# Blender v2.93.5 OBJ File: 'Modular Graveyard.blend'
# www.blender.org
mtllib SimpleTombTallNew.mtl
o SimpleTombTallNew_Cube.017
v -0.392914 0.387341 0.107236
v -0.392914 1.212942 0.107236
v -0.392914 0.387341 -0.106710
v -0.392914 1.212942 -0.106710
v 0.392914 0.387341 0.107236
v 0.392914 1.212942 0.107236
v 0.392914 0.387341 -0.106710
v 0.392914 1.212942 -0.106710
v -0.236070 1.402268 -0.106710
v 0.000000 1.449184 -0.106710
v -0.236070 1.402268 0.107236
v 0.000000 1.449184 0.107236
v 0.236070 1.402268 -0.106710
v 0.236070 1.402268 0.107236
v -0.434794 0.360287 -0.152673
v -0.434794 0.360287 0.153199
v 0.434794 0.360287 0.153199
v 0.434794 0.360287 -0.152673
v -0.434794 0.001105 -0.152673
v -0.434794 0.001105 0.153199
v 0.434794 0.001105 0.153199
v 0.434794 0.001105 -0.152673
vt 0.015625 0.976562
vt 0.062500 0.992188
vt 0.039062 0.988281
vt 0.109375 0.878906
vt 0.109375 0.933594
vt 0.007812 0.933594
vt 0.007812 0.878906
vt 0.015625 0.957031
vt 0.062500 0.972656
vt 0.031250 0.968750
vt 0.117188 0.941406
vt 0.117188 0.996094
vt 0.015625 0.996094
vt 0.015625 0.941406
vt 0.117188 0.976562
vt 0.093750 0.988281
vt 0.117188 0.957031
vt 0.101562 0.968750
vt 0.117188 0.871094
vt 0.015625 0.871094
vt 0.015625 0.839844
vt 0.117188 0.839844
vt 0.117188 0.871094
vt 0.015625 0.871094
vt 0.015625 0.839844
vt 0.117188 0.839844
vt 0.039062 0.992188
vt 0.039062 0.953125
vt 0.046875 0.953125
vt 0.046875 0.992188
vt 0.046875 0.953125
vt 0.046875 0.992188
vt 0.039062 0.992188
vt 0.039062 0.953125
vt 0.062500 0.871094
vt 0.015625 0.871094
vt 0.015625 0.847656
vt 0.062500 0.847656
vt 0.015625 0.847656
vt 0.062500 0.847656
vt 0.062500 0.871094
vt 0.015625 0.871094
vt 0.015625 0.847656
vt 0.062500 0.847656
vt 0.062500 0.871094
vt 0.015625 0.871094
vt 0.015625 0.847656
vt 0.062500 0.847656
vt 0.062500 0.871094
vt 0.015625 0.871094
vt 0.015625 0.847656
vt 0.062500 0.847656
vt 0.062500 0.871094
vt 0.015625 0.871094
vt 0.015625 0.847656
vt 0.062500 0.847656
vt 0.062500 0.871094
vt 0.015625 0.871094
vt 0.093750 0.957031
vt 0.093750 0.988281
vt 0.039062 0.992188
vt 0.039062 0.953125
vt 0.093750 0.871094
vt 0.046875 0.871094
vt 0.046875 0.839844
vt 0.093750 0.839844
vt 0.093750 0.871094
vt 0.046875 0.871094
vt 0.046875 0.839844
vt 0.093750 0.839844
vt 0.039062 0.988281
vt 0.039062 0.957031
vt 0.093750 0.953125
vt 0.093750 0.992188
vn 0.0000 0.0000 1.0000
vn 0.0000 0.0000 -1.0000
vn 0.0000 0.8618 0.5073
vn 0.0000 0.8618 -0.5073
vn -1.0000 0.0000 0.0000
vn -0.9408 0.3391 0.0000
vn 1.0000 0.0000 0.0000
vn 0.9408 0.3391 0.0000
vn -0.5120 0.8590 0.0000
vn 0.5120 0.8590 0.0000
vn 0.0000 1.0000 0.0000
vn -0.5426 0.8400 0.0000
vn 0.5426 0.8400 0.0000
usemtl Material.001
s off
f 2/1/1 12/2/1 11/3/1
f 5/4/1 6/5/1 2/6/1 1/7/1
f 8/8/2 10/9/2 13/10/2
f 3/11/2 4/12/2 8/13/2 7/14/2
f 6/15/1 14/16/1 12/2/1
f 2/1/1 6/15/1 12/2/1
f 4/17/2 9/18/2 10/9/2
f 8/8/2 4/17/2 10/9/2
f 17/19/1 16/20/1 20/21/1 21/22/1
f 15/23/2 18/24/2 22/25/2 19/26/2
f 5/27/3 1/28/3 16/29/3 17/30/3
f 3/31/4 7/32/4 18/33/4 15/34/4
s 1
f 1/35/5 2/36/6 4/37/6 3/38/5
f 7/39/7 8/40/8 6/41/8 5/42/7
f 9/43/9 4/44/6 2/45/6 11/46/9
f 13/47/10 10/48/11 12/49/11 14/50/10
f 10/51/11 9/52/9 11/53/9 12/54/11
f 8/55/8 13/56/10 14/57/10 6/58/8
f 1/59/12 3/60/12 15/61/12 16/62/12
f 16/63/5 15/64/5 19/65/5 20/66/5
f 18/67/7 17/68/7 21/69/7 22/70/7
f 7/71/13 5/72/13 17/73/13 18/74/13
