# Blender v2.93.5 OBJ File: 'Modular Graveyard.blend'
# www.blender.org
mtllib CrossTombOld.mtl
o CrossTombOld_Cube.031
v -0.128059 0.000000 0.122829
v -0.114588 0.591740 0.111167
v -0.128059 0.000000 -0.122829
v -0.114588 0.591740 -0.111167
v 0.128059 0.000000 0.122829
v 0.114588 0.591740 0.111167
v 0.128059 0.000000 -0.122829
v 0.114588 0.591740 -0.111167
v -0.114588 0.821527 0.111167
v -0.114588 0.821527 -0.111167
v 0.114588 0.821527 -0.111167
v 0.114588 0.821527 0.111167
v -0.128059 1.129393 0.122829
v -0.128059 1.129393 -0.122829
v 0.128059 1.129393 -0.122829
v 0.128059 1.129393 0.122829
v -0.417835 0.578232 0.122829
v -0.417835 0.578232 -0.122829
v 0.417835 0.578232 -0.122829
v 0.417835 0.578232 0.122829
v -0.417835 0.835035 0.122829
v -0.417835 0.835035 -0.122829
v 0.417835 0.835035 -0.122829
v 0.417835 0.835035 0.122829
vt 0.882812 0.574219
vt 0.882812 0.625000
vt 0.820312 0.625000
vt 0.820312 0.574219
vt 0.875000 0.574219
vt 0.875000 0.625000
vt 0.828125 0.625000
vt 0.828125 0.574219
vt 0.882812 0.574219
vt 0.882812 0.625000
vt 0.820312 0.625000
vt 0.820312 0.574219
vt 0.875000 0.574219
vt 0.875000 0.625000
vt 0.828125 0.625000
vt 0.828125 0.574219
vt 0.867188 0.570312
vt 0.867188 0.546875
vt 0.914062 0.546875
vt 0.914062 0.570312
vt 0.796875 0.570312
vt 0.796875 0.546875
vt 0.859375 0.546875
vt 0.859375 0.570312
vt 0.851562 0.546875
vt 0.851562 0.570312
vt 0.789062 0.570312
vt 0.789062 0.546875
vt 0.812500 0.738281
vt 0.875000 0.738281
vt 0.875000 0.761719
vt 0.812500 0.761719
vt 0.882812 0.625000
vt 0.882812 0.644531
vt 0.828125 0.644531
vt 0.757812 0.546875
vt 0.804688 0.546875
vt 0.804688 0.570312
vt 0.757812 0.570312
vt 0.867188 0.546875
vt 0.867188 0.570312
vt 0.820312 0.570312
vt 0.820312 0.546875
vt 0.835938 0.613281
vt 0.882812 0.613281
vt 0.882812 0.644531
vt 0.835938 0.644531
vt 0.835938 0.613281
vt 0.882812 0.613281
vt 0.882812 0.644531
vt 0.835938 0.644531
vt 0.765625 0.570312
vt 0.765625 0.546875
vt 0.812500 0.546875
vt 0.812500 0.570312
vt 0.812500 0.546875
vt 0.812500 0.570312
vt 0.765625 0.570312
vt 0.765625 0.546875
vt 0.921875 0.625000
vt 0.921875 0.644531
vt 0.890625 0.644531
vt 0.828125 0.644531
vt 0.828125 0.613281
vt 0.890625 0.613281
vt 0.898438 0.789062
vt 0.898438 0.765625
vt 0.945312 0.765625
vt 0.945312 0.789062
vt 0.828125 0.613281
vt 0.890625 0.613281
vt 0.890625 0.644531
vt 0.828125 0.644531
vt 0.804688 0.734375
vt 0.804688 0.757812
vt 0.757812 0.757812
vt 0.757812 0.734375
vt 0.789062 0.644531
vt 0.789062 0.625000
vn -0.9997 0.0228 0.0000
vn 0.0000 0.0197 -0.9998
vn 0.9997 0.0228 0.0000
vn 0.0000 0.0197 0.9998
vn 0.9990 -0.0437 0.0000
vn 0.0445 0.9990 0.0000
vn -0.0445 0.9990 0.0000
vn 0.0000 0.0000 1.0000
vn 0.0000 0.0000 -1.0000
vn 0.0000 1.0000 0.0000
vn -0.9990 -0.0437 0.0000
vn 0.0000 -0.0379 0.9993
vn 0.0000 -0.0379 -0.9993
vn 1.0000 0.0000 0.0000
vn -1.0000 0.0000 0.0000
vn 0.0384 0.0000 -0.9993
vn -0.0445 -0.9990 0.0000
vn -0.0384 0.0000 0.9993
vn 0.0445 -0.9990 0.0000
vn 0.0384 0.0000 0.9993
vn -0.0384 0.0000 -0.9993
usemtl Material.001
s off
f 1/1/1 2/2/1 4/3/1 3/4/1
f 3/5/2 4/6/2 8/7/2 7/8/2
f 7/9/3 8/10/3 6/11/3 5/12/3
f 5/13/4 6/14/4 2/15/4 1/16/4
f 12/17/5 11/18/5 15/19/5 16/20/5
f 9/21/6 10/22/6 22/23/6 21/24/6
f 11/25/7 12/26/7 24/27/7 23/28/7
f 2/29/8 6/30/8 12/31/8 9/32/8
f 8/7/9 4/33/9 10/34/9 11/35/9
f 15/36/10 14/37/10 13/38/10 16/39/10
f 10/40/11 9/41/11 13/42/11 14/43/11
f 9/44/12 12/45/12 16/46/12 13/47/12
f 11/48/13 10/49/13 14/50/13 15/51/13
f 20/52/14 19/53/14 23/54/14 24/55/14
f 18/56/15 17/57/15 21/58/15 22/59/15
f 10/34/16 4/33/16 18/60/16 22/61/16
f 6/62/17 8/63/17 19/64/17 20/65/17
f 12/66/18 6/67/18 20/68/18 24/69/18
f 4/70/19 2/71/19 17/72/19 18/73/19
f 2/74/20 9/75/20 21/76/20 17/77/20
f 8/7/21 11/35/21 23/78/21 19/79/21
