# Blender v2.93.5 OBJ File: 'Modular Graveyard.blend'
# www.blender.org
mtllib CrossTombTallOld.mtl
o CrossTombTallOld_Cube.038
v -0.114588 1.404656 0.060151
v -0.114588 1.404656 -0.060151
v 0.114588 1.404656 0.060151
v 0.128336 0.812292 -0.066640
v 0.114587 1.404656 -0.060151
v -0.114588 1.634444 0.060151
v -0.114588 1.634444 -0.060151
v 0.114588 1.634444 -0.060151
v 0.114588 1.634444 0.060151
v -0.128059 1.942310 0.066461
v -0.128059 1.942310 -0.066461
v 0.128059 1.942310 -0.066461
v 0.128059 1.942310 0.066461
v -0.417835 1.391149 0.066461
v -0.417835 1.391149 -0.066461
v 0.417835 1.391149 -0.066461
v 0.417835 1.391149 0.066461
v -0.417835 1.647951 0.066461
v -0.417835 1.647951 -0.066461
v 0.417835 1.647951 -0.066461
v 0.417835 1.647951 0.066461
v -0.128336 0.812292 -0.066640
v -0.435516 -0.000757 0.161822
v -0.361843 0.263213 0.126731
v -0.435516 -0.000757 -0.161822
v -0.361843 0.263213 -0.126731
v 0.435516 -0.000757 0.161822
v 0.361843 0.263213 0.126731
v 0.435516 -0.000757 -0.161822
v 0.361843 0.263213 -0.126731
v -0.435516 0.248331 0.161822
v -0.435516 0.248331 -0.161822
v 0.435516 0.248331 -0.161822
v 0.435516 0.248331 0.161822
v -0.128336 0.812292 0.066640
v 0.128336 0.812292 0.066640
v -0.345692 0.736938 0.126731
v -0.345692 0.736938 -0.126731
v 0.345692 0.736938 -0.126731
v 0.345692 0.736938 0.126731
vt 0.859375 0.574219
vt 0.859375 0.625000
vt 0.828125 0.625000
vt 0.828125 0.574219
vt 0.875000 0.574219
vt 0.875000 0.625000
vt 0.828125 0.625000
vt 0.828125 0.574219
vt 0.859375 0.574219
vt 0.859375 0.625000
vt 0.828125 0.625000
vt 0.828125 0.574219
vt 0.875000 0.574219
vt 0.875000 0.625000
vt 0.828125 0.625000
vt 0.828125 0.574219
vt 0.890625 0.570312
vt 0.890625 0.558594
vt 0.945312 0.558594
vt 0.945312 0.570312
vt 0.812500 0.570312
vt 0.812500 0.558594
vt 0.867188 0.558594
vt 0.867188 0.570312
vt 0.867188 0.558594
vt 0.867188 0.570312
vt 0.796875 0.570312
vt 0.796875 0.558594
vt 0.812500 0.738281
vt 0.875000 0.738281
vt 0.875000 0.761719
vt 0.812500 0.761719
vt 0.882812 0.625000
vt 0.882812 0.644531
vt 0.828125 0.644531
vt 0.757812 0.558594
vt 0.812500 0.558594
vt 0.812500 0.570312
vt 0.757812 0.570312
vt 0.890625 0.558594
vt 0.890625 0.570312
vt 0.835938 0.570312
vt 0.835938 0.558594
vt 0.835938 0.613281
vt 0.882812 0.613281
vt 0.882812 0.644531
vt 0.835938 0.644531
vt 0.835938 0.613281
vt 0.882812 0.613281
vt 0.882812 0.644531
vt 0.835938 0.644531
vt 0.773438 0.570312
vt 0.773438 0.558594
vt 0.835938 0.558594
vt 0.835938 0.570312
vt 0.835938 0.558594
vt 0.835938 0.570312
vt 0.773438 0.570312
vt 0.773438 0.558594
vt 0.921875 0.625000
vt 0.921875 0.644531
vt 0.859375 0.644531
vt 0.835938 0.644531
vt 0.835938 0.613281
vt 0.859375 0.613281
vt 0.898438 0.789062
vt 0.898438 0.765625
vt 0.945312 0.765625
vt 0.945312 0.789062
vt 0.835938 0.613281
vt 0.859375 0.613281
vt 0.859375 0.644531
vt 0.835938 0.644531
vt 0.804688 0.734375
vt 0.804688 0.757812
vt 0.757812 0.757812
vt 0.757812 0.734375
vt 0.789062 0.644531
vt 0.789062 0.625000
vt 0.859375 0.597656
vt 0.859375 0.566406
vt 0.828125 0.566406
vt 0.828125 0.597656
vt 0.914062 0.597656
vt 0.914062 0.566406
vt 0.789062 0.566406
vt 0.789062 0.597656
vt 0.859375 0.597656
vt 0.859375 0.566406
vt 0.828125 0.566406
vt 0.828125 0.597656
vt 0.914062 0.597656
vt 0.914062 0.566406
vt 0.789062 0.566406
vt 0.789062 0.597656
vt 0.789062 0.621094
vt 0.914062 0.621094
vt 0.914062 0.566406
vt 0.789062 0.566406
vt 0.851562 0.582031
vt 0.820312 0.582031
vt 0.812500 0.574219
vt 0.859375 0.574219
vt 0.914062 0.734375
vt 0.804688 0.734375
vt 0.796875 0.726562
vt 0.921875 0.726562
vt 0.851562 0.582031
vt 0.820312 0.582031
vt 0.812500 0.574219
vt 0.859375 0.574219
vt 0.914062 0.734375
vt 0.804688 0.734375
vt 0.796875 0.726562
vt 0.921875 0.726562
vt 0.812500 0.621094
vt 0.867188 0.621094
vt 0.867188 0.566406
vt 0.812500 0.566406
vt 0.812500 0.621094
vt 0.867188 0.621094
vt 0.867188 0.566406
vt 0.812500 0.566406
vt 0.789062 0.621094
vt 0.914062 0.621094
vt 0.914062 0.566406
vt 0.789062 0.566406
vt 0.835938 0.605469
vt 0.820312 0.605469
vt 0.804688 0.582031
vt 0.859375 0.582031
vt 0.859375 0.597656
vt 0.789062 0.597656
vt 0.773438 0.574219
vt 0.882812 0.574219
vt 0.835938 0.605469
vt 0.820312 0.605469
vt 0.804688 0.582031
vt 0.859375 0.582031
vt 0.859375 0.597656
vt 0.789062 0.597656
vt 0.773438 0.574219
vt 0.882812 0.574219
vn -0.9997 0.0232 0.0000
vn 0.0000 0.0110 -0.9999
vn 0.9997 0.0232 -0.0000
vn 0.0000 0.0110 0.9999
vn 0.9990 -0.0437 0.0000
vn 0.0445 0.9990 0.0000
vn -0.0445 0.9990 0.0000
vn 0.0000 0.0000 1.0000
vn -0.0000 0.0000 -1.0000
vn 0.0000 1.0000 0.0000
vn -0.9990 -0.0437 0.0000
vn 0.0000 -0.0205 0.9998
vn 0.0000 -0.0205 -0.9998
vn 1.0000 0.0000 0.0000
vn -1.0000 0.0000 0.0000
vn 0.0208 0.0000 -0.9998
vn -0.0445 -0.9990 0.0000
vn -0.0208 0.0000 0.9998
vn 0.0445 -0.9990 0.0000
vn 0.0208 0.0000 0.9998
vn -0.0208 0.0000 -0.9998
vn -0.1980 0.9802 0.0000
vn 0.0000 0.9206 -0.3904
vn 0.1980 0.9802 0.0000
vn 0.0000 0.9206 0.3904
vn 0.9994 0.0341 -0.0000
vn -0.9994 0.0341 0.0000
vn -0.3276 0.9448 0.0000
vn 0.0000 0.6235 -0.7818
vn 0.3276 0.9448 0.0000
vn 0.0000 0.6235 0.7818
usemtl Material.001
s off
f 35/1/1 1/2/1 2/3/1 22/4/1
f 22/5/2 2/6/2 5/7/2 4/8/2
f 4/9/3 5/10/3 3/11/3 36/12/3
f 36/13/4 3/14/4 1/15/4 35/16/4
f 9/17/5 8/18/5 12/19/5 13/20/5
f 6/21/6 7/22/6 19/23/6 18/24/6
f 8/25/7 9/26/7 21/27/7 20/28/7
f 1/29/8 3/30/8 9/31/8 6/32/8
f 5/7/9 2/33/9 7/34/9 8/35/9
f 12/36/10 11/37/10 10/38/10 13/39/10
f 7/40/11 6/41/11 10/42/11 11/43/11
f 6/44/12 9/45/12 13/46/12 10/47/12
f 8/48/13 7/49/13 11/50/13 12/51/13
f 17/52/14 16/53/14 20/54/14 21/55/14
f 15/56/15 14/57/15 18/58/15 19/59/15
f 7/34/16 2/33/16 15/60/16 19/61/16
f 3/62/17 5/63/17 16/64/17 17/65/17
f 9/66/18 3/67/18 17/68/18 21/69/18
f 2/70/19 1/71/19 14/72/19 15/73/19
f 1/74/20 6/75/20 18/76/20 14/77/20
f 5/7/21 8/35/21 20/78/21 16/79/21
f 23/80/15 31/81/15 32/82/15 25/83/15
f 25/84/9 32/85/9 33/86/9 29/87/9
f 29/88/14 33/89/14 34/90/14 27/91/14
f 27/92/8 34/93/8 31/94/8 23/95/8
f 30/96/9 26/97/9 38/98/9 39/99/9
f 24/100/22 26/101/22 32/102/22 31/103/22
f 26/104/23 30/105/23 33/106/23 32/107/23
f 30/108/24 28/109/24 34/110/24 33/111/24
f 28/112/25 24/113/25 31/114/25 34/115/25
f 28/116/26 30/117/26 39/118/26 40/119/26
f 26/120/27 24/121/27 37/122/27 38/123/27
f 24/124/8 28/125/8 40/126/8 37/127/8
f 35/128/28 22/129/28 38/130/28 37/131/28
f 22/132/29 4/133/29 39/134/29 38/135/29
f 4/136/30 36/137/30 40/138/30 39/139/30
f 36/140/31 35/141/31 37/142/31 40/143/31
