# Blender v2.93.5 OBJ File: 'Modular Graveyard.blend'
# www.blender.org
mtllib CTombTallOld.mtl
o CTombTallOld_Cube.020
v 0.190377 1.271662 -0.101625
v 0.109373 1.450509 -0.101625
v 0.176421 1.355063 -0.101625
v 0.190377 1.271662 0.101626
v 0.176421 1.355063 0.101626
v 0.109373 1.450509 0.101626
v 0.333738 1.132484 0.101626
v 0.333738 1.132484 -0.101625
v 0.246705 1.248473 -0.101625
v 0.246705 1.248473 0.101626
v 0.400499 1.103934 -0.101625
v 0.280559 1.220812 -0.101625
v 0.280559 1.220812 0.101626
v 0.400499 1.103934 0.101626
v 0.362165 1.113938 0.101626
v 0.362165 1.113938 -0.101625
v 0.400499 0.989380 0.101626
v 0.400499 0.989380 -0.101625
v 0.370984 0.956192 0.101626
v 0.370984 0.956192 -0.101625
v 0.380471 0.975463 -0.101625
v 0.380471 0.975463 0.101626
v 0.370984 0.411868 0.101626
v 0.370984 0.411868 -0.101626
v 0.392066 0.386887 0.101626
v 0.392066 0.386887 -0.101626
v 0.392066 0.234262 0.101626
v 0.392066 0.234262 -0.101626
v 0.481321 0.206226 0.159067
v 0.481321 0.206226 -0.159067
v 0.481321 -0.000357 0.159067
v 0.481321 -0.000357 -0.159067
v 0.000000 1.510729 0.101626
v 0.000000 1.510729 -0.101625
v -0.190377 1.271662 -0.101625
v -0.109373 1.450509 -0.101625
v -0.176421 1.355063 -0.101625
v -0.190377 1.271662 0.101626
v -0.176421 1.355063 0.101626
v -0.109373 1.450509 0.101626
v -0.333738 1.132484 0.101626
v -0.333738 1.132484 -0.101625
v -0.246705 1.248473 -0.101625
v -0.246705 1.248473 0.101626
v -0.400499 1.103934 -0.101625
v -0.280559 1.220812 -0.101625
v -0.280559 1.220812 0.101626
v -0.400499 1.103934 0.101626
v -0.362165 1.113938 0.101626
v -0.362165 1.113938 -0.101625
v -0.400499 0.989380 0.101626
v -0.400499 0.989380 -0.101625
v -0.370984 0.956192 0.101626
v -0.370984 0.956192 -0.101625
v -0.380471 0.975463 -0.101625
v -0.380471 0.975463 0.101626
v -0.370984 0.411868 0.101626
v -0.370984 0.411868 -0.101626
v -0.392066 0.386887 0.101626
v -0.392066 0.386887 -0.101626
v -0.392066 0.234262 0.101626
v -0.392066 0.234262 -0.101626
v -0.481321 0.206226 0.159067
v -0.481321 0.206226 -0.159067
v -0.481321 -0.000357 0.159067
v -0.481321 -0.000357 -0.159067
vt 0.953125 0.613281
vt 0.914062 0.613281
vt 0.914062 0.625000
vt 0.953125 0.625000
vt 0.914062 0.636719
vt 0.953125 0.636719
vt 0.914062 0.648438
vt 0.953125 0.648438
vt 0.914062 0.605469
vt 0.953125 0.605469
vt 0.953125 0.593750
vt 0.914062 0.593750
vt 0.953125 0.609375
vt 0.914062 0.609375
vt 0.906250 0.648438
vt 0.906250 0.652344
vt 0.906250 0.640625
vt 0.906250 0.640625
vt 0.914062 0.789062
vt 0.914062 0.804688
vt 0.789062 0.804688
vt 0.781250 0.789062
vt 0.914062 0.675781
vt 0.953125 0.675781
vt 0.953125 0.671875
vt 0.914062 0.671875
vt 0.789062 0.800781
vt 0.789062 0.792969
vt 0.789062 0.792969
vt 0.789062 0.804688
vt 0.914062 0.679688
vt 0.953125 0.679688
vt 0.781250 0.652344
vt 0.781250 0.648438
vt 0.781250 0.640625
vt 0.781250 0.640625
vt 0.953125 0.660156
vt 0.914062 0.660156
vt 0.796875 0.550781
vt 0.796875 0.570312
vt 0.796875 0.570312
vt 0.796875 0.550781
vt 0.843750 0.820312
vt 0.828125 0.820312
vt 0.937500 0.820312
vt 0.906250 0.820312
vt 0.789062 0.550781
vt 0.789062 0.570312
vt 0.906250 0.570312
vt 0.906250 0.550781
vt 0.914062 0.570312
vt 0.914062 0.550781
vt 0.750000 0.585938
vt 0.937500 0.585938
vt 0.921875 0.574219
vt 0.765625 0.574219
vt 0.921875 0.550781
vt 0.921875 0.570312
vt 0.953125 0.570312
vt 0.953125 0.550781
vt 0.937500 0.570312
vt 0.750000 0.570312
vt 0.750000 0.546875
vt 0.937500 0.546875
vt 0.875000 0.570312
vt 0.804688 0.570312
vt 0.804688 0.546875
vt 0.875000 0.546875
vt 0.937500 0.570312
vt 0.750000 0.570312
vt 0.750000 0.546875
vt 0.937500 0.546875
vt 0.804688 0.585938
vt 0.882812 0.585938
vt 0.867188 0.574219
vt 0.820312 0.574219
vt 0.750000 0.585938
vt 0.937500 0.585938
vt 0.921875 0.574219
vt 0.765625 0.574219
vt 0.773438 0.832031
vt 0.820312 0.832031
vt 0.796875 0.839844
vt 0.781250 0.738281
vt 0.914062 0.738281
vt 0.953125 0.683594
vt 0.953125 0.671875
vt 0.914062 0.671875
vt 0.914062 0.683594
vt 0.953125 0.660156
vt 0.914062 0.660156
vt 0.781250 0.734375
vt 0.914062 0.734375
vt 0.914062 0.593750
vt 0.914062 0.605469
vt 0.953125 0.605469
vt 0.953125 0.593750
vt 0.828125 0.820312
vt 0.937500 0.820312
vt 0.914062 0.585938
vt 0.914062 0.589844
vt 0.953125 0.589844
vt 0.953125 0.585938
vt 0.945312 0.812500
vt 0.820312 0.812500
vt 0.914062 0.609375
vt 0.914062 0.613281
vt 0.953125 0.613281
vt 0.953125 0.609375
vt 0.781250 0.652344
vt 0.781250 0.636719
vt 0.914062 0.804688
vt 0.914062 0.792969
vt 0.914062 0.800781
vt 0.914062 0.792969
vt 0.906250 0.636719
vt 0.906250 0.652344
vt 0.914062 0.625000
vt 0.953125 0.625000
vt 0.851562 0.550781
vt 0.851562 0.550781
vt 0.851562 0.570312
vt 0.851562 0.570312
vt 0.859375 0.550781
vt 0.859375 0.570312
vt 0.742188 0.550781
vt 0.742188 0.570312
vt 0.781250 0.585938
vt 0.906250 0.585938
vt 0.945312 0.550781
vt 0.937500 0.550781
vt 0.937500 0.570312
vt 0.945312 0.570312
vt 0.781250 0.582031
vt 0.906250 0.582031
vt 0.921875 0.550781
vt 0.953125 0.550781
vt 0.953125 0.570312
vt 0.921875 0.570312
vt 0.781250 0.718750
vt 0.914062 0.718750
vt 0.804688 0.570312
vt 0.804688 0.546875
vt 0.875000 0.546875
vt 0.875000 0.570312
vt 0.882812 0.585938
vt 0.867188 0.574219
vt 0.820312 0.574219
vt 0.804688 0.585938
vt 0.781250 0.566406
vt 0.906250 0.566406
vt 0.898438 0.660156
vt 0.898438 0.660156
vt 0.789062 0.660156
vt 0.789062 0.660156
vt 0.765625 0.824219
vt 0.828125 0.824219
vt 0.765625 0.812500
vt 0.828125 0.812500
vt 0.812500 0.660156
vt 0.875000 0.660156
vt 0.828125 0.671875
vt 0.828125 0.660156
vt 0.890625 0.660156
vt 0.890625 0.671875
vt 0.835938 0.679688
vt 0.882812 0.679688
vt 0.859375 0.687500
vn 0.9863 0.1650 0.0000
vn 0.9253 0.3793 0.0000
vn 0.6675 0.7446 -0.0000
vn 0.4823 0.8760 -0.0000
vn 0.7559 0.6547 0.0000
vn 0.7198 0.6942 0.0000
vn 0.3807 0.9247 0.0000
vn 0.5122 0.8588 0.0000
vn 0.0000 0.0000 -1.0000
vn 0.0000 -0.0000 1.0000
vn 0.4047 0.9144 0.0000
vn 0.2525 0.9676 0.0000
vn 1.0000 0.0000 0.0000
vn 0.7580 -0.6522 0.0000
vn 0.9740 -0.2267 0.0000
vn 0.5706 -0.8212 0.0000
vn 0.9392 0.3434 0.0000
vn 0.0000 0.8987 0.4386
vn 0.2997 0.9540 0.0000
vn 0.0000 0.8987 -0.4386
vn -0.9863 0.1650 0.0000
vn -0.9253 0.3793 0.0000
vn -0.6675 0.7446 0.0000
vn -0.4823 0.8760 0.0000
vn -0.7559 0.6547 0.0000
vn -0.7198 0.6942 0.0000
vn -0.3807 0.9247 0.0000
vn -0.5122 0.8588 0.0000
vn -0.4047 0.9144 0.0000
vn -0.2525 0.9676 0.0000
vn -1.0000 0.0000 0.0000
vn -0.7580 -0.6522 0.0000
vn -0.9740 -0.2267 0.0000
vn -0.5706 -0.8212 0.0000
vn -0.9392 0.3434 0.0000
vn -0.2997 0.9540 0.0000
usemtl Material.001
s 1
f 4/1/1 1/2/1 3/3/2 5/4/2
f 5/4/2 3/3/2 2/5/3 6/6/3
f 6/6/3 2/5/3 34/7/4 33/8/4
f 12/9/5 13/10/5 7/11/6 8/12/6
f 1/2/7 4/1/7 10/13/8 9/14/8
f 45/15/9 50/16/9 55/17/9 52/18/9
f 9/14/8 10/13/8 13/10/5 12/9/5
f 19/19/10 7/20/10 41/21/10 53/22/10
f 16/23/11 15/24/11 14/25/12 11/26/12
f 48/27/10 51/28/10 56/29/10 49/30/10
f 8/31/6 7/32/6 15/24/11 16/23/11
f 16/33/9 11/34/9 18/35/9 21/36/9
f 11/26/13 14/25/13 17/37/13 18/38/13
f 21/39/14 22/40/14 19/41/15 20/42/15
f 38/43/10 44/44/10 10/45/10 4/46/10
f 18/47/16 17/48/16 22/40/14 21/39/14
f 20/42/15 19/41/15 23/49/17 24/50/17
f 24/50/17 23/49/17 25/51/17 26/52/17
f 63/53/18 29/54/18 27/55/18 61/56/18
f 26/57/17 25/58/17 27/59/13 28/60/13
f 29/61/10 63/62/10 65/63/10 31/64/10
f 30/65/13 29/66/13 31/67/13 32/68/13
f 64/69/9 30/70/9 32/71/9 66/72/9
f 29/73/19 30/74/19 28/75/19 27/76/19
f 30/77/20 64/78/20 62/79/20 28/80/20
f 40/81/10 6/82/10 33/83/10
f 53/22/10 57/84/10 23/85/10 19/19/10
f 38/86/21 39/87/22 37/88/22 35/89/21
f 39/87/22 40/90/23 36/91/23 37/88/22
f 40/90/23 33/8/24 34/7/24 36/91/23
f 57/84/10 59/92/10 25/93/10 23/85/10
f 46/94/25 42/95/26 41/96/26 47/97/25
f 44/44/10 47/98/10 13/99/10 10/45/10
f 35/100/27 43/101/28 44/102/28 38/103/27
f 43/101/28 46/94/25 47/97/25 44/102/28
f 7/104/10 13/99/10 47/98/10 41/105/10
f 50/106/29 45/107/30 48/108/30 49/109/29
f 8/110/9 16/33/9 21/36/9 20/111/9
f 15/112/10 7/20/10 19/19/10 22/113/10
f 42/95/26 50/106/29 49/109/29 41/96/26
f 14/114/10 15/112/10 22/113/10 17/115/10
f 54/116/9 55/17/9 50/16/9 42/117/9
f 49/30/10 56/29/10 53/22/10 41/21/10
f 45/107/31 52/118/31 51/119/31 48/108/31
f 55/120/32 54/121/33 53/122/33 56/123/32
f 52/124/34 55/120/32 56/123/32 51/125/34
f 54/121/33 58/126/35 57/127/35 53/122/33
f 54/116/9 20/111/9 24/128/9 58/129/9
f 58/130/35 60/131/35 59/132/35 57/133/35
f 58/129/9 24/128/9 26/134/9 60/135/9
f 60/136/35 62/137/31 61/138/31 59/139/35
f 61/140/10 27/141/10 25/93/10 59/92/10
f 64/142/31 66/143/31 65/144/31 63/145/31
f 63/146/36 61/147/36 62/148/36 64/149/36
f 60/135/9 26/134/9 28/150/9 62/151/9
f 46/152/9 43/153/9 9/154/9 12/155/9
f 39/156/10 5/157/10 6/82/10 40/81/10
f 54/116/9 42/117/9 8/110/9 20/111/9
f 39/156/10 38/158/10 4/159/10 5/157/10
f 1/160/9 9/154/9 43/153/9 35/161/9
f 3/162/9 1/163/9 35/164/9 37/165/9
f 42/117/9 46/152/9 12/155/9 8/110/9
f 2/166/9 3/162/9 37/165/9 36/167/9
f 34/168/9 2/166/9 36/167/9
