# Blender v2.93.5 OBJ File: 'Modular Graveyard.blend'
# www.blender.org
mtllib SimpleTombOld.mtl
o SimpleTombOld_Cube.028
v -0.392914 0.000000 0.106973
v -0.392914 0.868574 0.106973
v -0.392914 0.000000 -0.106973
v -0.392914 0.868574 -0.106973
v 0.392914 0.000000 0.106973
v 0.392914 0.868574 0.106973
v 0.392914 0.000000 -0.106973
v 0.392914 0.868574 -0.106973
v -0.236070 1.057901 -0.106973
v 0.000000 1.104817 -0.106973
v -0.236070 1.057901 0.106973
v 0.000000 1.104817 0.106973
v 0.236070 1.057901 -0.106973
v 0.236070 1.057901 0.106973
vt 0.781250 0.656250
vt 0.851562 0.675781
vt 0.812500 0.667969
vt 0.921875 0.726562
vt 0.921875 0.804688
vt 0.773438 0.804688
vt 0.773438 0.726562
vt 0.781250 0.628906
vt 0.851562 0.648438
vt 0.804688 0.644531
vt 0.929688 0.574219
vt 0.929688 0.644531
vt 0.789062 0.644531
vt 0.789062 0.574219
vt 0.921875 0.656250
vt 0.890625 0.667969
vt 0.921875 0.628906
vt 0.898438 0.644531
vt 0.945312 0.570312
vt 0.757812 0.570312
vt 0.757812 0.546875
vt 0.945312 0.546875
vt 0.757812 0.546875
vt 0.945312 0.546875
vt 0.945312 0.570312
vt 0.757812 0.570312
vt 0.851562 0.546875
vt 0.898438 0.546875
vt 0.898438 0.570312
vt 0.851562 0.570312
vt 0.757812 0.546875
vt 0.804688 0.546875
vt 0.804688 0.570312
vt 0.757812 0.570312
vt 0.859375 0.546875
vt 0.906250 0.546875
vt 0.906250 0.570312
vt 0.859375 0.570312
vt 0.789062 0.546875
vt 0.835938 0.546875
vt 0.835938 0.570312
vt 0.789062 0.570312
vn -0.0000 0.0000 1.0000
vn 0.0000 0.0000 -1.0000
vn -0.7071 0.0000 0.7071
vn -0.7243 0.2610 0.6381
vn -0.7243 0.2610 -0.6381
vn -0.7071 0.0000 -0.7071
vn 0.7071 0.0000 -0.7071
vn 0.7243 0.2610 -0.6381
vn 0.7243 0.2610 0.6381
vn 0.7071 0.0000 0.7071
vn -0.3939 0.6607 -0.6389
vn -0.3939 0.6607 0.6389
vn 0.3939 0.6607 -0.6389
vn 0.0000 0.7461 -0.6657
vn 0.0000 0.7461 0.6657
vn 0.3939 0.6607 0.6389
usemtl Material.001
s off
f 2/1/1 12/2/1 11/3/1
f 5/4/1 6/5/1 2/6/1 1/7/1
f 8/8/2 10/9/2 13/10/2
f 3/11/2 4/12/2 8/13/2 7/14/2
f 6/15/1 14/16/1 12/2/1
f 2/1/1 6/15/1 12/2/1
f 4/17/2 9/18/2 10/9/2
f 8/8/2 4/17/2 10/9/2
s 1
f 1/19/3 2/20/4 4/21/5 3/22/6
f 7/23/7 8/24/8 6/25/9 5/26/10
f 9/27/11 4/28/5 2/29/4 11/30/12
f 13/31/13 10/32/14 12/33/15 14/34/16
f 10/35/14 9/36/11 11/37/12 12/38/15
f 8/39/8 13/40/13 14/41/16 6/42/9
