# Blender v2.93.5 OBJ File: 'Modular Graveyard.blend'
# www.blender.org
mtllib SimpleTombTallOld.mtl
o SimpleTombTallOld_Cube.004
v 0.392914 0.387341 0.107236
v 0.434795 0.360287 0.153199
v 0.434795 0.360287 -0.152673
v 0.434795 0.001105 0.153199
v 0.434795 0.001105 -0.152673
v -0.434794 0.360287 0.153199
v -0.434794 0.360287 -0.152673
v -0.434794 0.001105 0.153199
v -0.434794 0.001105 -0.152673
v -0.392914 0.387341 0.107236
v -0.392914 1.212942 0.107236
v -0.392914 0.387341 -0.106710
v -0.392914 1.212942 -0.106710
v 0.392914 1.212942 0.107236
v 0.392914 0.387341 -0.106710
v 0.392914 1.212942 -0.106710
v -0.236070 1.402268 -0.106710
v 0.000000 1.449184 -0.106710
v -0.236070 1.402268 0.107236
v 0.000000 1.449184 0.107236
v 0.236070 1.402268 -0.106710
v 0.236070 1.402268 0.107236
vt 0.773438 0.656250
vt 0.843750 0.675781
vt 0.804688 0.667969
vt 0.921875 0.726562
vt 0.921875 0.804688
vt 0.773438 0.804688
vt 0.773438 0.726562
vt 0.773438 0.628906
vt 0.843750 0.648438
vt 0.796875 0.644531
vt 0.921875 0.574219
vt 0.921875 0.644531
vt 0.781250 0.644531
vt 0.781250 0.574219
vt 0.914062 0.656250
vt 0.882812 0.667969
vt 0.914062 0.628906
vt 0.890625 0.644531
vt 0.750000 0.582031
vt 0.929688 0.582031
vt 0.914062 0.574219
vt 0.765625 0.574219
vt 0.929688 0.566406
vt 0.757812 0.566406
vt 0.757812 0.605469
vt 0.929688 0.605469
vt 0.875000 0.566406
vt 0.812500 0.566406
vt 0.812500 0.605469
vt 0.875000 0.605469
vt 0.929688 0.566406
vt 0.757812 0.566406
vt 0.757812 0.605469
vt 0.929688 0.605469
vt 0.804688 0.582031
vt 0.882812 0.582031
vt 0.867188 0.574219
vt 0.820312 0.574219
vt 0.750000 0.582031
vt 0.929688 0.582031
vt 0.914062 0.574219
vt 0.765625 0.574219
vt 0.812500 0.566406
vt 0.812500 0.605469
vt 0.875000 0.605469
vt 0.875000 0.566406
vt 0.882812 0.582031
vt 0.867188 0.574219
vt 0.820312 0.574219
vt 0.804688 0.582031
vt 0.937500 0.570312
vt 0.750000 0.570312
vt 0.750000 0.546875
vt 0.937500 0.546875
vt 0.750000 0.546875
vt 0.937500 0.546875
vt 0.937500 0.570312
vt 0.750000 0.570312
vt 0.843750 0.546875
vt 0.890625 0.546875
vt 0.890625 0.570312
vt 0.843750 0.570312
vt 0.750000 0.546875
vt 0.796875 0.546875
vt 0.796875 0.570312
vt 0.750000 0.570312
vt 0.851562 0.546875
vt 0.898438 0.546875
vt 0.898438 0.570312
vt 0.851562 0.570312
vt 0.781250 0.546875
vt 0.828125 0.546875
vt 0.828125 0.570312
vt 0.781250 0.570312
vn 0.0000 0.0000 1.0000
vn 0.0000 0.0000 -1.0000
vn -0.0000 0.8618 0.5073
vn 1.0000 -0.0000 0.0000
vn 0.5426 0.8400 0.0000
vn 0.0000 0.8618 -0.5073
vn -1.0000 -0.0000 0.0000
vn -0.5426 0.8400 0.0000
vn -0.9408 0.3391 0.0000
vn 0.9408 0.3391 0.0000
vn -0.5120 0.8590 0.0000
vn 0.5120 0.8590 0.0000
vn 0.0000 1.0000 0.0000
usemtl Material.001
s off
f 11/1/1 20/2/1 19/3/1
f 1/4/1 14/5/1 11/6/1 10/7/1
f 16/8/2 18/9/2 21/10/2
f 12/11/2 13/12/2 16/13/2 15/14/2
f 14/15/1 22/16/1 20/2/1
f 11/1/1 14/15/1 20/2/1
f 13/17/2 17/18/2 18/9/2
f 16/8/2 13/17/2 18/9/2
s 1
f 6/19/3 2/20/3 1/21/3 10/22/3
f 2/23/1 6/24/1 8/25/1 4/26/1
f 3/27/4 2/28/4 4/29/4 5/30/4
f 7/31/2 3/32/2 5/33/2 9/34/2
f 2/35/5 3/36/5 15/37/5 1/38/5
f 3/39/6 7/40/6 12/41/6 15/42/6
f 7/43/7 9/44/7 8/45/7 6/46/7
f 6/47/8 10/48/8 12/49/8 7/50/8
f 10/51/7 11/52/9 13/53/9 12/54/7
f 15/55/4 16/56/10 14/57/10 1/58/4
f 17/59/11 13/60/9 11/61/9 19/62/11
f 21/63/12 18/64/13 20/65/13 22/66/12
f 18/67/13 17/68/11 19/69/11 20/70/13
f 16/71/10 21/72/12 22/73/12 14/74/10
