# Blender v2.93.5 OBJ File: 'Modular Graveyard.blend'
# www.blender.org
mtllib BigRock2.mtl
o BigRock2_Cube_Cube.007
v -0.476552 -0.017485 0.536015
v -0.423670 0.794716 0.324421
v -0.371431 0.732481 -0.439746
v -0.491107 -0.017485 -0.502644
v 0.305112 0.715633 -0.340537
v 0.395027 -0.017485 -0.430560
v 0.387869 0.798010 0.391666
v 0.525824 -0.017485 0.571149
v -0.421374 0.433564 0.410457
v 0.442619 0.435211 0.447563
v 0.285930 0.382947 0.686539
v 0.380872 -0.016860 0.786652
v -0.343747 -0.016860 0.763255
v -0.288570 0.381300 0.637697
vt 0.718750 0.937500
vt 0.718750 0.996094
vt 0.507812 0.996094
vt 0.718750 0.878906
vt 0.718750 0.996094
vt 0.507812 0.996094
vt 0.507812 0.878906
vt 0.718750 0.996094
vt 0.507812 0.996094
vt 0.507812 0.937500
vt 0.718750 0.937500
vt 0.718750 0.996094
vt 0.507812 0.996094
vt 0.507812 0.937500
vt 0.718750 0.753906
vt 0.718750 0.871094
vt 0.507812 0.871094
vt 0.507812 0.753906
vt 0.648438 0.937500
vt 0.648438 0.878906
vt 0.703125 0.878906
vt 0.703125 0.929688
vt 0.718750 0.878906
vt 0.507812 0.878906
vt 0.507812 0.878906
vt 0.718750 0.878906
vt 0.703125 0.878906
vt 0.703125 0.929688
vt 0.523438 0.929688
vt 0.523438 0.878906
vt 0.585938 0.878906
vt 0.585938 0.937500
vt 0.523438 0.929688
vt 0.523438 0.878906
vt 0.687500 0.789062
vt 0.539062 0.781250
vt 0.539062 0.820312
vt 0.695312 0.824219
vn -0.9969 0.0757 -0.0197
vn -0.9967 0.0774 -0.0232
vn -0.9965 0.0793 -0.0281
vn 0.1095 0.0998 -0.9890
vn 0.9854 0.1036 -0.1354
vn 0.9850 0.1043 -0.1371
vn 0.9853 0.1038 -0.1358
vn -0.0616 0.1873 0.9804
vn 0.0199 0.9951 -0.0966
vn -0.8213 0.2573 0.5092
vn 0.9811 0.1453 -0.1281
vn -0.9929 0.1180 -0.0166
vn -0.9928 0.1184 -0.0175
vn -0.9929 0.1176 -0.0153
vn -0.9920 0.1252 0.0139
vn -0.0538 0.2693 0.9616
vn 0.7766 0.3067 0.5503
vn -0.0153 0.9758 0.2180
vn 0.9820 0.1465 -0.1194
vn 0.9820 0.1465 -0.1193
vn 0.9820 0.1464 -0.1191
usemtl Material.001
s off
f 9/1/1 2/2/2 3/3/3
f 4/4/4 3/5/4 5/6/4 6/7/4
f 5/8/5 7/9/6 10/10/7
f 10/11/8 7/12/8 2/13/8 9/14/8
f 5/15/9 3/16/9 2/17/9 7/18/9
f 9/19/10 1/20/10 13/21/10 14/22/10
f 6/23/11 10/10/11 8/24/11
f 4/25/12 9/1/13 3/3/14
f 1/26/15 9/1/15 4/25/15
f 12/27/16 11/28/16 14/29/16 13/30/16
f 8/31/17 10/32/17 11/33/17 12/34/17
f 10/35/18 9/36/18 14/37/18 11/38/18
f 6/23/19 5/8/20 10/10/21
