# Blender v2.93.5 OBJ File: 'Modular Graveyard.blend'
# www.blender.org
mtllib BigRock1.mtl
o BigRock1_Cube_Cube.009
v -0.516102 -0.001466 0.574422
v -0.465311 0.785297 0.367594
v -0.381197 0.823744 -0.446653
v -0.484183 -0.001466 -0.503049
v 0.488719 0.768143 -0.406875
v 0.576549 -0.001466 -0.510289
v 0.456357 0.734138 0.440067
v 0.590335 -0.001466 0.585716
v -0.468653 0.472064 -0.462162
v -0.488477 0.447159 0.511734
v 0.558579 0.414019 0.511940
v 0.526407 0.436047 -0.486876
vt 0.703125 0.949219
vt 0.703125 0.996094
vt 0.546875 0.996094
vt 0.546875 0.949219
vt 0.718750 0.949219
vt 0.718750 0.996094
vt 0.507812 0.996094
vt 0.507812 0.949219
vt 0.671875 0.949219
vt 0.671875 0.996094
vt 0.523438 0.996094
vt 0.523438 0.949219
vt 0.718750 0.949219
vt 0.718750 0.996094
vt 0.507812 0.996094
vt 0.507812 0.949219
vt 0.718750 0.753906
vt 0.718750 0.871094
vt 0.507812 0.871094
vt 0.507812 0.753906
vt 0.718750 0.878906
vt 0.507812 0.878906
vt 0.671875 0.878906
vt 0.523438 0.878906
vt 0.718750 0.878906
vt 0.507812 0.878906
vt 0.703125 0.878906
vt 0.546875 0.878906
vn -0.9875 0.1486 -0.0521
vn 0.0147 0.1373 -0.9904
vn 0.9778 0.2097 0.0065
vn -0.0219 0.3094 0.9507
vn 0.0565 0.9973 0.0475
vn -0.0029 0.1560 0.9878
vn 0.9953 0.0943 -0.0208
vn -0.0143 0.0699 -0.9975
vn -0.9986 0.0462 -0.0246
usemtl Material.001
s off
f 10/1/1 2/2/1 3/3/1 9/4/1
f 9/5/2 3/6/2 5/7/2 12/8/2
f 12/9/3 5/10/3 7/11/3 11/12/3
f 11/13/4 7/14/4 2/15/4 10/16/4
f 5/17/5 3/18/5 2/19/5 7/20/5
f 8/21/6 11/13/6 10/16/6 1/22/6
f 6/23/7 12/9/7 11/12/7 8/24/7
f 4/25/8 9/5/8 12/8/8 6/26/8
f 1/27/9 10/1/9 9/4/9 4/28/9
