# Blender v2.93.5 OBJ File: 'Modular Graveyard.blend'
# www.blender.org
mtllib BigRock3.mtl
o BigRock3_Cube_Cube.008
v -0.383186 -0.008999 0.566739
v -0.288417 0.772096 0.401985
v -0.422256 0.703893 -0.483110
v -0.462693 -0.008999 -0.542688
v 0.491150 0.770992 -0.385990
v 0.545966 -0.008999 -0.514620
v 0.268064 0.821327 0.491454
v 0.408559 -0.008999 0.645808
v -0.459761 0.785287 -0.061917
v -0.641768 -0.008999 0.043218
v 0.444431 0.802122 0.098845
v 0.574307 -0.008999 0.060905
v -0.342157 0.459410 0.531439
v 0.336377 0.527449 0.590162
vt 0.718750 0.878906
vt 0.718750 0.996094
vt 0.562500 0.996094
vt 0.562500 0.878906
vt 0.718750 0.878906
vt 0.718750 0.996094
vt 0.507812 0.996094
vt 0.507812 0.878906
vt 0.648438 0.996094
vt 0.523438 0.996094
vt 0.523438 0.953125
vt 0.695312 0.953125
vt 0.695312 0.996094
vt 0.507812 0.996094
vt 0.507812 0.953125
vt 0.625000 0.753906
vt 0.625000 0.871094
vt 0.507812 0.871094
vt 0.507812 0.753906
vt 0.718750 0.753906
vt 0.718750 0.871094
vt 0.687500 0.878906
vt 0.687500 0.996094
vt 0.554688 0.996094
vt 0.554688 0.878906
vt 0.671875 0.953125
vt 0.671875 0.996094
vt 0.507812 0.996094
vt 0.671875 0.878906
vt 0.507812 0.878906
vt 0.695312 0.878906
vt 0.507812 0.878906
vt 0.648438 0.878906
vt 0.523438 0.878906
vn -0.9662 0.1360 -0.2188
vn 0.0601 0.1254 -0.9903
vn 0.8962 0.2788 0.3451
vn 0.8972 0.2855 0.3369
vn 0.8955 0.2767 0.3485
vn -0.1441 0.3454 0.9273
vn -0.0439 0.9990 -0.0073
vn -0.0280 0.9917 -0.1258
vn 0.9934 0.1139 0.0139
vn -0.9218 0.2342 0.3091
vn -0.9229 0.2387 0.3022
vn -0.9220 0.2351 0.3075
vn -0.8910 0.1112 0.4401
vn -0.0969 0.0867 0.9915
vn 0.9504 0.1558 0.2693
vn -0.9014 0.2742 0.3352
vn -0.9018 0.2762 0.3323
vn -0.9018 0.2763 0.3322
vn 0.9399 0.1584 0.3025
vn 0.9405 0.1610 0.2991
vn 0.9405 0.1609 0.2992
usemtl Material.001
s off
f 10/1/1 9/2/1 3/3/1 4/4/1
f 4/5/2 3/6/2 5/7/2 6/8/2
f 11/9/3 7/10/4 14/11/5
f 14/12/6 7/13/6 2/14/6 13/15/6
f 11/16/7 9/17/7 2/18/7 7/19/7
f 5/20/8 3/21/8 9/17/8 11/16/8
f 6/22/9 5/23/9 11/24/9 12/25/9
f 13/26/10 2/27/11 9/28/12
f 1/29/13 13/26/13 10/30/13
f 8/31/14 14/12/14 13/15/14 1/32/14
f 12/33/15 14/11/15 8/34/15
f 10/30/16 13/26/17 9/28/18
f 12/33/19 11/9/20 14/11/21
