# Blender v2.93.5 OBJ File: 'Modular Graveyard.blend'
# www.blender.org
mtllib LowPillar.mtl
o LowPillar_Cube.021
v -0.150599 0.000000 0.150599
v -0.150599 1.033040 0.150599
v -0.150599 0.000000 -0.150599
v -0.150599 1.033040 -0.150599
v 0.150599 0.000000 0.150599
v 0.150599 1.033040 0.150599
v 0.150599 0.000000 -0.150599
v 0.150599 1.033040 -0.150599
v 0.000000 1.219522 0.000000
v -0.169267 1.033040 0.169267
v -0.169267 1.033040 -0.169267
v 0.169267 1.033040 -0.169267
v 0.169267 1.033040 0.169267
v -0.174934 1.189567 0.174934
v -0.174934 1.189567 -0.174934
v 0.174934 1.189567 -0.174934
v 0.174934 1.189567 0.174934
vt 0.398438 0.394531
vt 0.718750 0.394531
vt 0.718750 0.453125
vt 0.398438 0.453125
vt 0.398438 0.394531
vt 0.718750 0.394531
vt 0.718750 0.453125
vt 0.398438 0.453125
vt 0.398438 0.394531
vt 0.718750 0.394531
vt 0.718750 0.453125
vt 0.398438 0.453125
vt 0.398438 0.394531
vt 0.718750 0.394531
vt 0.718750 0.453125
vt 0.398438 0.453125
vt 0.085938 0.675781
vt 0.085938 0.746094
vt 0.062500 0.746094
vt 0.062500 0.675781
vt 0.085938 0.675781
vt 0.062500 0.675781
vt 0.203125 0.675781
vt 0.203125 0.746094
vt 0.125000 0.746094
vt 0.125000 0.675781
vt 0.203125 0.675781
vt 0.203125 0.746094
vt 0.125000 0.746094
vt 0.125000 0.675781
vt 0.203125 0.675781
vt 0.203125 0.746094
vt 0.125000 0.746094
vt 0.125000 0.675781
vt 0.203125 0.675781
vt 0.203125 0.746094
vt 0.125000 0.746094
vt 0.125000 0.675781
vt 0.085938 0.746094
vt 0.085938 0.675781
vt 0.062500 0.675781
vt 0.062500 0.746094
vt 0.085938 0.746094
vt 0.062500 0.746094
vt 0.070312 0.710938
vt 0.117188 0.687500
vt 0.117188 0.734375
vt 0.031250 0.734375
vt 0.031250 0.687500
vn -1.0000 0.0000 0.0000
vn 0.0000 0.0000 -1.0000
vn 1.0000 0.0000 0.0000
vn 0.0000 0.0000 1.0000
vn 0.0000 -1.0000 0.0000
vn 0.0000 -0.0362 -0.9993
vn 0.9993 -0.0362 0.0000
vn -0.9993 -0.0362 0.0000
vn 0.0000 -0.0362 0.9993
vn 0.0000 1.0000 0.0000
vn -0.6022 0.5242 -0.6022
vn -0.6022 0.5242 0.6022
vn 0.6022 0.5242 0.6022
vn 0.6022 0.5242 -0.6022
usemtl Material.001
s off
f 1/1/1 2/2/1 4/3/1 3/4/1
f 3/5/2 4/6/2 8/7/2 7/8/2
f 7/9/3 8/10/3 6/11/3 5/12/3
f 5/13/4 6/14/4 2/15/4 1/16/4
f 6/17/5 8/18/5 12/19/5 13/20/5
f 8/18/5 4/21/5 11/22/5 12/19/5
f 12/23/6 11/24/6 15/25/6 16/26/6
f 13/27/7 12/28/7 16/29/7 17/30/7
f 11/31/8 10/32/8 14/33/8 15/34/8
f 10/35/9 13/36/9 17/37/9 14/38/9
f 4/39/5 2/40/5 10/41/5 11/42/5
f 2/40/5 6/43/5 13/44/5 10/41/5
s 1
f 9/45/10 15/46/11 14/47/12
f 9/45/10 17/48/13 16/49/14
f 9/45/10 14/47/12 17/48/13
f 9/45/10 16/49/14 15/46/11
