# Blender v2.93.5 OBJ File: 'Modular Graveyard.blend'
# www.blender.org
mtllib LowWall3.mtl
o LowWall3_Cube.005
v -0.140403 0.000000 -0.124286
v -0.140403 0.860765 -0.124286
v -0.140403 0.000000 0.124286
v -0.140403 0.860765 0.124286
v -2.859597 0.000000 -0.124285
v -2.859597 0.860765 -0.124285
v -2.859597 0.000000 0.124286
v -2.859597 0.860765 0.124286
v -0.140403 1.001591 0.000000
v -2.859597 1.001591 0.000001
v -0.140403 0.858354 0.142804
v -2.859597 0.858354 0.142805
v -2.859597 0.858354 -0.142803
v -0.140403 0.858354 -0.142804
v -0.140403 0.988340 0.148945
v -2.859597 0.988340 0.148945
v -2.859597 0.988340 -0.148944
v -0.140403 0.988340 -0.148944
vt 0.710938 0.460938
vt 0.710938 0.566406
vt 0.015625 0.566406
vt 0.015625 0.460938
vt 0.710938 0.460938
vt 0.710938 0.566406
vt 0.015625 0.566406
vt 0.015625 0.460938
vt 0.718750 0.429688
vt 0.015625 0.429688
vt 0.015625 0.453125
vt 0.718750 0.453125
vt 0.015625 0.429688
vt 0.718750 0.429688
vt 0.718750 0.453125
vt 0.015625 0.453125
vt 0.718750 0.433594
vt 0.015625 0.433594
vt 0.015625 0.441406
vt 0.718750 0.441406
vt 0.015625 0.441406
vt 0.718750 0.441406
vt 0.718750 0.433594
vt 0.015625 0.433594
vt 0.015625 0.421875
vt 0.718750 0.421875
vt 0.718750 0.449219
vt 0.015625 0.449219
vt 0.015625 0.398438
vt 0.718750 0.398438
vn 0.0000 0.0000 1.0000
vn -0.0000 0.0000 -1.0000
vn -0.0000 -0.0472 -0.9989
vn 0.0000 -0.0472 0.9989
vn 0.0000 -0.9916 0.1291
vn -0.0000 -0.9916 -0.1291
vn 0.0000 1.0000 0.0000
vn 0.0000 0.6574 -0.7535
vn 0.0000 0.6574 0.7535
usemtl Material.001
s off
f 3/1/1 4/2/1 8/3/1 7/4/1
f 5/5/2 6/6/2 2/7/2 1/8/2
f 14/9/3 13/10/3 17/11/3 18/12/3
f 12/13/4 11/14/4 15/15/4 16/16/4
f 2/17/5 6/18/5 13/19/5 14/20/5
f 8/21/6 4/22/6 11/23/6 12/24/6
s 1
f 10/25/7 9/26/7 18/27/8 17/28/8
f 9/26/7 10/25/7 16/29/9 15/30/9
