# Blender v2.93.5 OBJ File: 'Modular Graveyard.blend'
# www.blender.org
mtllib CircularTallWallWorn.mtl
o CircularTallWallWorn_Cube.029
v -0.143019 0.000000 -0.124040
v -0.143019 2.360765 -0.124040
v -0.143154 0.000000 0.124531
v -0.143154 2.360765 0.124531
v -0.143086 2.501591 0.000245
v -0.143164 2.358354 0.143049
v -0.143008 2.358354 -0.142558
v -0.143168 2.488340 0.149190
v -0.143005 2.488340 -0.148699
v -0.438624 0.000000 0.049796
v -0.694364 0.000000 -0.096300
v -0.903577 0.000000 -0.303608
v -1.052007 0.000000 -0.558001
v -1.124932 0.000000 -0.854387
v -1.124932 2.360765 -0.854387
v -1.052007 2.360765 -0.558001
v -0.903577 2.360765 -0.303608
v -0.694364 2.360765 -0.096300
v -0.438624 2.360765 0.049796
v -0.876362 0.000000 -0.854805
v -0.822794 0.000000 -0.654174
v -0.707067 0.000000 -0.455829
v -0.543947 0.000000 -0.294195
v -0.344552 0.000000 -0.180286
v -0.344552 2.360765 -0.180286
v -0.543947 2.360765 -0.294195
v -0.707067 2.360765 -0.455829
v -0.822794 2.360765 -0.654174
v -0.876362 2.360765 -0.854805
v -1.143450 2.358354 -0.854355
v -1.069082 2.358354 -0.550836
v -0.918217 2.358354 -0.292268
v -0.705570 2.358354 -0.081557
v -0.445632 2.358354 0.066937
v -0.337544 2.358354 -0.197427
v -0.532741 2.358354 -0.308937
v -0.692427 2.358354 -0.467169
v -0.805719 2.358354 -0.661339
v -0.857844 2.358354 -0.854837
v -1.149591 2.488340 -0.854345
v -1.074745 2.488340 -0.548460
v -0.923072 2.488340 -0.288507
v -0.709286 2.488340 -0.076668
v -0.447957 2.488340 0.072621
v -0.335219 2.488340 -0.203111
v -0.529025 2.488340 -0.313826
v -0.687572 2.488340 -0.470930
v -0.800056 2.488340 -0.663715
v -0.851703 2.488340 -0.854847
v -0.391588 2.501591 -0.065245
v -0.619156 2.501591 -0.195247
v -0.805322 2.501591 -0.379718
v -0.937400 2.501591 -0.606087
v -1.000647 2.501591 -0.854596
vt 0.101562 0.101562
vt 0.015625 0.101562
vt 0.015625 0.308594
vt 0.101562 0.308594
vt 0.093750 0.070312
vt 0.093750 0.093750
vt 0.015625 0.093750
vt 0.015625 0.070312
vt 0.093750 0.062500
vt 0.093750 0.039062
vt 0.015625 0.039062
vt 0.015625 0.062500
vt 0.093750 0.074219
vt 0.093750 0.082031
vt 0.015625 0.082031
vt 0.015625 0.074219
vt 0.015625 0.082031
vt 0.015625 0.074219
vt 0.093750 0.074219
vt 0.093750 0.082031
vt 0.171875 0.074219
vt 0.171875 0.082031
vt 0.250000 0.074219
vt 0.250000 0.082031
vt 0.328125 0.074219
vt 0.328125 0.082031
vt 0.406250 0.074219
vt 0.406250 0.082031
vt 0.406250 0.074219
vt 0.406250 0.082031
vt 0.328125 0.082031
vt 0.328125 0.074219
vt 0.250000 0.082031
vt 0.250000 0.074219
vt 0.171875 0.082031
vt 0.171875 0.074219
vt 0.406250 0.062500
vt 0.406250 0.039062
vt 0.328125 0.039062
vt 0.328125 0.062500
vt 0.250000 0.039062
vt 0.250000 0.062500
vt 0.171875 0.039062
vt 0.171875 0.062500
vt 0.015625 0.089844
vt 0.093750 0.089844
vt 0.171875 0.089844
vt 0.250000 0.089844
vt 0.328125 0.089844
vt 0.406250 0.089844
vt 0.015625 0.070312
vt 0.015625 0.093750
vt 0.093750 0.093750
vt 0.093750 0.070312
vt 0.171875 0.093750
vt 0.171875 0.070312
vt 0.250000 0.093750
vt 0.250000 0.070312
vt 0.328125 0.093750
vt 0.328125 0.070312
vt 0.406250 0.093750
vt 0.406250 0.070312
vt 0.406250 0.070312
vt 0.406250 0.093750
vt 0.328125 0.093750
vt 0.328125 0.070312
vt 0.250000 0.093750
vt 0.250000 0.070312
vt 0.171875 0.093750
vt 0.171875 0.070312
vt 0.015625 0.101562
vt 0.101562 0.101562
vt 0.101562 0.308594
vt 0.015625 0.308594
vt 0.195312 0.101562
vt 0.195312 0.308594
vt 0.296875 0.101562
vt 0.203125 0.101562
vt 0.203125 0.308594
vt 0.296875 0.308594
vt 0.226562 0.101562
vt 0.109375 0.101562
vt 0.109375 0.308594
vt 0.226562 0.308594
vt 0.015625 0.101562
vt 0.015625 0.308594
vt 0.015625 0.101562
vt 0.109375 0.101562
vt 0.109375 0.308594
vt 0.015625 0.308594
vt 0.218750 0.101562
vt 0.218750 0.308594
vt 0.359375 0.101562
vt 0.234375 0.101562
vt 0.234375 0.308594
vt 0.359375 0.308594
vt 0.203125 0.101562
vt 0.203125 0.308594
vn -0.3741 -0.0000 0.9274
vn -0.2452 -0.0000 0.9695
vn 0.3864 -0.0468 -0.9211
vn 0.2716 -0.0462 -0.9613
vn -0.0025 1.0000 0.0069
vn -0.0335 0.9960 0.0826
vn -0.0225 0.9959 0.0876
vn -0.0031 0.9999 0.0144
vn -0.0500 -0.9915 0.1201
vn -0.0502 -0.9915 0.1200
vn -0.0356 -0.9913 0.1270
vn 0.0322 -0.9913 -0.1277
vn 0.0485 -0.9915 -0.1204
vn 0.0484 -0.9915 -0.1204
vn 0.0781 -0.9916 -0.1028
vn 0.1021 -0.9916 -0.0791
vn 0.1202 -0.9916 -0.0487
vn 0.1203 -0.9916 -0.0484
vn 0.1279 -0.9913 -0.0314
vn -0.1274 -0.9913 0.0342
vn -0.1200 -0.9915 0.0499
vn -0.1199 -0.9915 0.0499
vn -0.1021 -0.9916 0.0791
vn -0.0781 -0.9916 0.1028
vn -0.0139 0.9999 0.0030
vn -0.0878 0.9959 0.0219
vn -0.0824 0.9960 0.0336
vn -0.0074 1.0000 0.0027
vn -0.0701 0.9961 0.0543
vn -0.0058 1.0000 0.0045
vn -0.0536 0.9961 0.0705
vn -0.0045 1.0000 0.0059
vn 0.0238 0.9959 -0.0873
vn 0.0341 0.9960 -0.0824
vn 0.0536 0.9961 -0.0705
vn 0.0701 0.9961 -0.0543
vn 0.0824 0.9960 -0.0340
vn 0.0876 0.9959 -0.0229
vn -0.2436 -0.0462 0.9688
vn -0.3730 -0.0470 0.9266
vn -0.3730 -0.0470 0.9267
vn -0.6045 -0.0472 0.7952
vn -0.7897 -0.0472 0.6117
vn -0.9261 -0.0470 0.3744
vn -0.9261 -0.0470 0.3743
vn -0.9703 -0.0462 0.2376
vn 0.9644 -0.0462 -0.2602
vn 0.9217 -0.0469 -0.3852
vn 0.7897 -0.0472 -0.6117
vn 0.6045 -0.0472 -0.7952
vn 0.2688 -0.0000 -0.9632
vn 0.3854 -0.0000 -0.9228
vn 0.6051 -0.0000 -0.7961
vn 0.7906 0.0000 -0.6124
vn 0.9232 0.0000 -0.3844
vn 0.9662 0.0000 -0.2580
vn -0.9710 0.0000 0.2389
vn -0.9269 0.0000 0.3753
vn -0.7906 0.0000 0.6124
vn -0.6051 0.0000 0.7961
usemtl Material.001
s 1
f 10/1/1 3/2/2 4/3/2 19/4/1
f 35/5/3 45/6/3 9/7/4 7/8/4
f 50/9/5 44/10/6 8/11/7 5/12/8
f 25/13/9 35/14/10 7/15/11 2/16/11
f 4/17/12 6/18/12 34/19/13 19/20/14
f 19/20/14 34/19/13 33/21/15 18/22/15
f 18/22/15 33/21/15 32/23/16 17/24/16
f 17/24/16 32/23/16 31/25/17 16/26/18
f 16/26/18 31/25/17 30/27/19 15/28/19
f 29/29/20 39/30/20 38/31/21 28/32/22
f 28/32/22 38/31/21 37/33/23 27/34/23
f 27/34/23 37/33/23 36/35/24 26/36/24
f 26/36/24 36/35/24 35/14/10 25/13/9
f 54/37/25 40/38/26 41/39/27 53/40/28
f 53/40/28 41/39/27 42/41/29 52/42/30
f 52/42/30 42/41/29 43/43/31 51/44/32
f 51/44/32 43/43/31 44/10/6 50/9/5
f 5/12/8 9/45/33 45/46/34 50/9/5
f 50/9/5 45/46/34 46/47/35 51/44/32
f 51/44/32 46/47/35 47/48/36 52/42/30
f 52/42/30 47/48/36 48/49/37 53/40/28
f 53/40/28 48/49/37 49/50/38 54/37/25
f 6/51/39 8/52/39 44/53/40 34/54/41
f 34/54/41 44/53/40 43/55/42 33/56/42
f 33/56/42 43/55/42 42/57/43 32/58/43
f 32/58/43 42/57/43 41/59/44 31/60/45
f 31/60/45 41/59/44 40/61/46 30/62/46
f 39/63/47 49/64/47 48/65/48 38/66/48
f 38/66/48 48/65/48 47/67/49 37/68/49
f 37/68/49 47/67/49 46/69/50 36/70/50
f 36/70/50 46/69/50 45/6/3 35/5/3
f 1/71/51 24/72/52 25/73/52 2/74/51
f 24/72/52 23/75/53 26/76/53 25/73/52
f 23/77/53 22/78/54 27/79/54 26/80/53
f 22/81/54 21/82/55 28/83/55 27/84/54
f 21/82/55 20/85/56 29/86/56 28/83/55
f 14/87/57 13/88/58 16/89/58 15/90/57
f 13/88/58 12/91/59 17/92/59 16/89/58
f 12/93/59 11/94/60 18/95/60 17/96/59
f 11/97/60 10/1/1 19/4/1 18/98/60
