# Blender v2.93.5 OBJ File: 'Modular Graveyard.blend'
# www.blender.org
mtllib RustyLowRailing2.mtl
o RustyLowRailing2_Circle.059
v 1.000203 0.182211 0.018813
v 1.000203 0.210148 0.000142
v 1.000203 0.154274 0.000142
v -0.998025 0.182211 0.018813
v -0.998025 0.210148 0.000142
v -0.998025 0.154274 0.000142
v 1.000203 0.859053 0.018813
v 1.000203 0.886990 0.000142
v 1.000203 0.831116 0.000142
v -0.998025 0.859053 0.018813
v -0.998025 0.886990 0.000142
v -0.998025 0.831116 0.000142
v 0.219479 0.994248 0.030940
v 0.238377 1.300285 0.000107
v 0.219479 0.994248 -0.030726
v 0.283987 0.994248 0.030940
v 0.265089 1.300285 0.000107
v 0.283987 0.994248 -0.030726
v 0.177880 1.077323 0.000107
v 0.325586 1.077323 0.000107
v 0.251733 1.088476 0.052207
v 0.251733 1.088476 -0.051993
v 0.968576 0.994248 0.030940
v 0.987474 1.300285 0.000107
v 0.968576 0.994248 -0.030726
v 1.033084 0.994248 0.030940
v 1.014186 1.300285 0.000107
v 1.033084 0.994248 -0.030726
v 0.926977 1.077323 0.000107
v 1.074683 1.077323 0.000107
v 1.000830 1.088476 0.052207
v 1.000830 1.088476 -0.051993
v 0.750520 1.088476 -0.051993
v 0.750520 1.088476 0.052207
v 0.824373 1.077323 0.000107
v 0.676667 1.077323 0.000107
v 0.782774 0.994248 -0.030726
v 0.763876 1.300285 0.000107
v 0.782774 0.994248 0.030940
v 0.718266 0.994248 -0.030726
v 0.737164 1.300285 0.000107
v 0.718266 0.994248 0.030940
v 0.467667 0.994248 0.030940
v 0.486565 1.300285 0.000107
v 0.467667 0.994248 -0.030726
v 0.532174 0.994248 0.030940
v 0.513276 1.300285 0.000107
v 0.532174 0.994248 -0.030726
v 0.426068 1.077323 0.000107
v 0.573773 1.077323 0.000107
v 0.499920 1.088476 0.052207
v 0.499920 1.088476 -0.051993
v 0.001066 1.088476 -0.051993
v 0.001066 1.088476 0.052207
v 0.074919 1.077323 0.000107
v -0.072787 1.077323 0.000107
v 0.033320 0.994248 -0.030726
v 0.014422 1.300285 0.000107
v 0.033320 0.994248 0.030940
v -0.031188 0.994248 -0.030726
v -0.012290 1.300285 0.000107
v -0.031188 0.994248 0.030940
v 0.221216 -0.002187 0.000000
v 0.221216 1.001030 0.000000
v 0.251610 -0.002187 -0.030394
v 0.251610 1.001030 -0.030394
v 0.251610 -0.002187 0.030394
v 0.251610 1.001030 0.030394
v 0.282003 -0.002187 0.000000
v 0.282003 1.001030 0.000000
v -0.029334 -0.002187 0.000000
v -0.029334 1.001030 0.000000
v 0.001060 -0.002187 -0.030394
v 0.001060 1.001030 -0.030394
v 0.001060 -0.002187 0.030394
v 0.001060 1.001030 0.030394
v 0.031454 -0.002187 0.000000
v 0.031454 1.001030 0.000000
v 0.469596 -0.002187 0.000000
v 0.469596 1.001030 0.000000
v 0.499990 -0.002187 -0.030394
v 0.499990 1.001030 -0.030394
v 0.499990 -0.002187 0.030394
v 0.499990 1.001030 0.030394
v 0.530384 -0.002187 0.000000
v 0.530384 1.001030 0.000000
v 0.720086 -0.002187 0.000000
v 0.720086 1.001030 0.000000
v 0.750480 -0.002187 -0.030394
v 0.750480 1.001030 -0.030394
v 0.750480 -0.002187 0.030394
v 0.750480 1.001030 0.030394
v 0.780873 -0.002187 0.000000
v 0.780873 1.001030 0.000000
v 0.970439 -0.002187 0.000000
v 0.970439 1.001030 0.000000
v 1.000833 -0.002187 -0.030394
v 1.000833 1.001030 -0.030394
v 1.000833 -0.002187 0.030394
v 1.000833 1.001030 0.030394
v 1.031226 -0.002187 0.000000
v 1.031226 1.001030 0.000000
v 1.000203 0.859053 -0.018117
v -0.998025 0.859053 -0.018117
v 1.000203 0.182211 -0.018117
v -0.998025 0.182211 -0.018117
v -0.780521 0.994248 0.030940
v -0.761623 1.300285 0.000107
v -0.780521 0.994248 -0.030726
v -0.716013 0.994248 0.030940
v -0.734911 1.300285 0.000107
v -0.716013 0.994248 -0.030726
v -0.822120 1.077323 0.000107
v -0.674414 1.077323 0.000107
v -0.748267 1.088476 0.052207
v -0.748267 1.088476 -0.051993
v -0.249480 1.088476 -0.051993
v -0.249480 1.088476 0.052207
v -0.175627 1.077323 0.000107
v -0.323333 1.077323 0.000107
v -0.217226 0.994248 -0.030726
v -0.236124 1.300285 0.000107
v -0.217226 0.994248 0.030940
v -0.281734 0.994248 -0.030726
v -0.262836 1.300285 0.000107
v -0.281734 0.994248 0.030940
v -0.532333 0.994248 0.030940
v -0.513435 1.300285 0.000107
v -0.532333 0.994248 -0.030726
v -0.467826 0.994248 0.030940
v -0.486724 1.300285 0.000107
v -0.467826 0.994248 -0.030726
v -0.573932 1.077323 0.000107
v -0.426227 1.077323 0.000107
v -0.500080 1.088476 0.052207
v -0.500080 1.088476 -0.051993
v -0.998934 1.088476 -0.051993
v -0.998934 1.088476 0.052207
v -0.925081 1.077323 0.000107
v -1.072787 1.077323 0.000107
v -0.966680 0.994248 -0.030726
v -0.985578 1.300285 0.000107
v -0.966680 0.994248 0.030940
v -1.031188 0.994248 -0.030726
v -1.012290 1.300285 0.000107
v -1.031188 0.994248 0.030940
v -0.778784 -0.002187 0.000000
v -0.778784 1.001030 0.000000
v -0.748390 -0.002187 -0.030394
v -0.748390 1.001030 -0.030394
v -0.748390 -0.002187 0.030394
v -0.748390 1.001030 0.030394
v -0.717997 -0.002187 0.000000
v -0.717997 1.001030 0.000000
v -1.029334 -0.002187 0.000000
v -1.029334 1.001030 0.000000
v -0.998940 -0.002187 -0.030394
v -0.998940 1.001030 -0.030394
v -0.998940 -0.002187 0.030394
v -0.998940 1.001030 0.030394
v -0.968546 -0.002187 0.000000
v -0.968546 1.001030 0.000000
v -0.530404 -0.002187 0.000000
v -0.530404 1.001030 0.000000
v -0.500010 -0.002187 -0.030394
v -0.500010 1.001030 -0.030394
v -0.500010 -0.002187 0.030394
v -0.500010 1.001030 0.030394
v -0.469616 -0.002187 0.000000
v -0.469616 1.001030 0.000000
v -0.279914 -0.002187 0.000000
v -0.279914 1.001030 0.000000
v -0.249520 -0.002187 -0.030394
v -0.249520 1.001030 -0.030394
v -0.249520 -0.002187 0.030394
v -0.249520 1.001030 0.030394
v -0.219127 -0.002187 0.000000
v -0.219127 1.001030 0.000000
vt 0.742188 0.042969
vt 0.742188 0.175781
vt 0.734375 0.175781
vt 0.734375 0.042969
vt 0.804688 0.175781
vt 0.804688 0.042969
vt 0.812500 0.042969
vt 0.812500 0.175781
vt 0.757812 0.042969
vt 0.757812 0.175781
vt 0.875000 0.175781
vt 0.875000 0.042969
vt 0.882812 0.042969
vt 0.882812 0.175781
vt 0.835938 0.042969
vt 0.835938 0.175781
vt 0.820312 0.175781
vt 0.820312 0.042969
vt 0.851562 0.175781
vt 0.851562 0.042969
vt 0.828125 0.203125
vt 0.843750 0.171875
vt 0.851562 0.171875
vt 0.914062 0.152344
vt 0.929688 0.183594
vt 0.898438 0.152344
vt 0.851562 0.195312
vt 0.859375 0.183594
vt 0.867188 0.195312
vt 0.898438 0.140625
vt 0.828125 0.210938
vt 0.851562 0.203125
vt 0.820312 0.210938
vt 0.812500 0.203125
vt 0.921875 0.140625
vt 0.937500 0.152344
vt 0.937500 0.183594
vt 0.765625 0.257812
vt 0.781250 0.257812
vt 0.781250 0.269531
vt 0.867188 0.199219
vt 0.851562 0.199219
vt 0.867188 0.152344
vt 0.890625 0.183594
vt 0.882812 0.183594
vt 0.914062 0.109375
vt 0.929688 0.140625
vt 0.898438 0.109375
vt 0.875000 0.195312
vt 0.882812 0.183594
vt 0.890625 0.195312
vt 0.898438 0.097656
vt 0.851562 0.140625
vt 0.851562 0.152344
vt 0.875000 0.140625
vt 0.890625 0.152344
vt 0.921875 0.097656
vt 0.937500 0.109375
vt 0.937500 0.140625
vt 0.804688 0.210938
vt 0.820312 0.210938
vt 0.820312 0.222656
vt 0.890625 0.199219
vt 0.875000 0.199219
vt 0.914062 0.199219
vt 0.898438 0.199219
vt 0.898438 0.195312
vt 0.914062 0.195312
vt 0.898438 0.261719
vt 0.882812 0.261719
vt 0.898438 0.253906
vt 0.812500 0.218750
vt 0.789062 0.218750
vt 0.804688 0.210938
vt 0.789062 0.210938
vt 0.812500 0.179688
vt 0.898438 0.222656
vt 0.906250 0.222656
vt 0.851562 0.210938
vt 0.867188 0.210938
vt 0.867188 0.222656
vt 0.875000 0.253906
vt 0.820312 0.210938
vt 0.820312 0.179688
vt 0.906250 0.253906
vt 0.906250 0.183594
vt 0.875000 0.203125
vt 0.890625 0.171875
vt 0.898438 0.171875
vt 0.804688 0.234375
vt 0.812500 0.261719
vt 0.789062 0.234375
vt 0.789062 0.136719
vt 0.796875 0.121094
vt 0.804688 0.136719
vt 0.789062 0.222656
vt 0.875000 0.210938
vt 0.898438 0.203125
vt 0.859375 0.210938
vt 0.851562 0.203125
vt 0.812500 0.222656
vt 0.820312 0.234375
vt 0.820312 0.261719
vt 0.828125 0.210938
vt 0.843750 0.210938
vt 0.843750 0.222656
vt 0.804688 0.140625
vt 0.789062 0.140625
vt 0.804688 0.156250
vt 0.789062 0.156250
vt 0.789062 0.152344
vt 0.804688 0.152344
vt 0.859375 0.214844
vt 0.875000 0.214844
vt 0.875000 0.226562
vt 0.750000 0.101562
vt 0.765625 0.101562
vt 0.765625 0.117188
vt 0.781250 0.113281
vt 0.781250 0.140625
vt 0.898438 0.253906
vt 0.890625 0.253906
vt 0.875000 0.210938
vt 0.882812 0.210938
vt 0.882812 0.222656
vt 0.898438 0.226562
vt 0.750000 0.113281
vt 0.773438 0.140625
vt 0.851562 0.230469
vt 0.796875 0.140625
vt 0.750000 0.261719
vt 0.750000 0.128906
vt 0.757812 0.128906
vt 0.757812 0.261719
vt 0.773438 0.128906
vt 0.773438 0.261719
vt 0.851562 0.097656
vt 0.851562 0.226562
vt 0.843750 0.226562
vt 0.843750 0.097656
vt 0.828125 0.226562
vt 0.828125 0.097656
vt 0.875000 0.175781
vt 0.875000 0.042969
vt 0.882812 0.042969
vt 0.882812 0.175781
vt 0.890625 0.042969
vt 0.890625 0.175781
vt 0.921875 0.132812
vt 0.921875 0.257812
vt 0.914062 0.257812
vt 0.914062 0.128906
vt 0.906250 0.257812
vt 0.906250 0.132812
vt 0.828125 0.175781
vt 0.828125 0.042969
vt 0.835938 0.042969
vt 0.835938 0.175781
vt 0.843750 0.042969
vt 0.843750 0.175781
vt 0.945312 0.132812
vt 0.945312 0.257812
vt 0.937500 0.257812
vt 0.937500 0.128906
vt 0.929688 0.257812
vt 0.929688 0.132812
vt 0.765625 0.175781
vt 0.765625 0.042969
vt 0.773438 0.042969
vt 0.773438 0.175781
vt 0.781250 0.042969
vt 0.781250 0.175781
vt 0.820312 0.132812
vt 0.820312 0.257812
vt 0.812500 0.257812
vt 0.812500 0.128906
vt 0.796875 0.257812
vt 0.796875 0.132812
vt 0.851562 0.175781
vt 0.851562 0.042969
vt 0.859375 0.042969
vt 0.859375 0.175781
vt 0.867188 0.042969
vt 0.867188 0.175781
vt 0.796875 0.132812
vt 0.796875 0.257812
vt 0.789062 0.257812
vt 0.789062 0.128906
vt 0.773438 0.257812
vt 0.773438 0.132812
vt 0.851562 0.042969
vt 0.851562 0.175781
vt 0.789062 0.175781
vt 0.789062 0.042969
vt 0.898438 0.191406
vt 0.906250 0.218750
vt 0.898438 0.218750
vt 0.789062 0.226562
vt 0.796875 0.253906
vt 0.765625 0.230469
vt 0.789062 0.171875
vt 0.796875 0.160156
vt 0.804688 0.171875
vt 0.773438 0.214844
vt 0.882812 0.179688
vt 0.875000 0.191406
vt 0.898438 0.179688
vt 0.906250 0.191406
vt 0.789062 0.214844
vt 0.804688 0.226562
vt 0.804688 0.253906
vt 0.828125 0.269531
vt 0.812500 0.269531
vt 0.820312 0.257812
vt 0.804688 0.175781
vt 0.789062 0.175781
vt 0.804688 0.121094
vt 0.789062 0.121094
vt 0.789062 0.113281
vt 0.804688 0.113281
vt 0.820312 0.214844
vt 0.828125 0.214844
vt 0.828125 0.226562
vt 0.773438 0.171875
vt 0.789062 0.171875
vt 0.789062 0.187500
vt 0.804688 0.183594
vt 0.804688 0.210938
vt 0.851562 0.253906
vt 0.843750 0.253906
vt 0.804688 0.269531
vt 0.789062 0.269531
vt 0.796875 0.257812
vt 0.851562 0.226562
vt 0.765625 0.183594
vt 0.796875 0.210938
vt 0.812500 0.230469
vt 0.796875 0.101562
vt 0.867188 0.125000
vt 0.882812 0.097656
vt 0.890625 0.097656
vt 0.765625 0.156250
vt 0.773438 0.183594
vt 0.750000 0.160156
vt 0.789062 0.191406
vt 0.796875 0.179688
vt 0.804688 0.191406
vt 0.750000 0.144531
vt 0.875000 0.140625
vt 0.890625 0.128906
vt 0.851562 0.140625
vt 0.851562 0.128906
vt 0.765625 0.144531
vt 0.781250 0.156250
vt 0.781250 0.183594
vt 0.765625 0.210938
vt 0.781250 0.210938
vt 0.781250 0.222656
vt 0.804688 0.195312
vt 0.789062 0.195312
vt 0.937500 0.199219
vt 0.921875 0.199219
vt 0.921875 0.195312
vt 0.937500 0.195312
vt 0.851562 0.261719
vt 0.828125 0.261719
vt 0.843750 0.253906
vt 0.851562 0.218750
vt 0.835938 0.218750
vt 0.851562 0.210938
vt 0.828125 0.210938
vt 0.859375 0.179688
vt 0.859375 0.222656
vt 0.867188 0.222656
vt 0.796875 0.222656
vt 0.789062 0.222656
vt 0.796875 0.210938
vt 0.828125 0.253906
vt 0.867188 0.210938
vt 0.867188 0.179688
vt 0.867188 0.253906
vt 0.929688 0.183594
vt 0.789062 0.175781
vt 0.789062 0.042969
vt 0.796875 0.042969
vt 0.796875 0.175781
vt 0.804688 0.042969
vt 0.804688 0.175781
vt 0.859375 0.132812
vt 0.859375 0.257812
vt 0.851562 0.257812
vt 0.851562 0.128906
vt 0.843750 0.257812
vt 0.843750 0.132812
vt 0.812500 0.175781
vt 0.812500 0.042969
vt 0.820312 0.042969
vt 0.820312 0.175781
vt 0.828125 0.042969
vt 0.828125 0.175781
vt 0.835938 0.132812
vt 0.835938 0.257812
vt 0.828125 0.257812
vt 0.828125 0.128906
vt 0.820312 0.257812
vt 0.820312 0.132812
vt 0.898438 0.175781
vt 0.898438 0.042969
vt 0.906250 0.042969
vt 0.906250 0.175781
vt 0.921875 0.042969
vt 0.921875 0.175781
vt 0.882812 0.132812
vt 0.882812 0.257812
vt 0.875000 0.257812
vt 0.875000 0.128906
vt 0.867188 0.257812
vt 0.867188 0.132812
vt 0.921875 0.175781
vt 0.921875 0.042969
vt 0.921875 0.042969
vt 0.921875 0.175781
vt 0.937500 0.042969
vt 0.937500 0.175781
vt 0.906250 0.132812
vt 0.906250 0.257812
vt 0.898438 0.257812
vt 0.898438 0.128906
vt 0.890625 0.257812
vt 0.890625 0.132812
vn 0.0000 -0.0000 1.0000
vn 0.0000 -0.5557 0.8314
vn -0.0000 -0.0000 -1.0000
vn -0.0000 0.5471 -0.8371
vn -0.0000 0.5557 0.8314
vn 0.0000 0.0806 -0.9967
vn -0.1277 0.2293 -0.9649
vn 0.1277 0.2293 -0.9649
vn 0.0000 0.0806 0.9968
vn -0.1277 0.2293 0.9649
vn -0.9992 0.0407 0.0000
vn -0.4717 -0.6779 0.5638
vn -0.4717 -0.6779 -0.5638
vn 0.4717 -0.6779 -0.5638
vn 0.9992 0.0407 0.0000
vn 0.4717 -0.6779 0.5638
vn 0.1277 0.2293 0.9649
vn -0.0000 0.0806 -0.9968
vn -0.0000 0.0806 0.9967
vn -0.7071 0.0000 -0.7071
vn 0.7071 0.0000 -0.7071
vn 0.7071 0.0000 0.7071
vn -0.7071 0.0000 0.7071
vn 1.0000 0.0000 0.0000
vn -0.0000 -0.5471 -0.8371
usemtl Material.001
s 1
f 1/1/1 4/2/1 6/3/2 3/4/2
f 105/5/3 106/6/3 5/7/4 2/8/4
f 2/9/5 5/10/5 4/2/1 1/1/1
f 7/11/1 10/12/1 12/13/2 9/14/2
f 103/15/3 104/16/3 11/17/4 8/18/4
f 8/19/5 11/20/5 10/12/1 7/11/1
f 22/21/6 14/22/7 17/23/8
f 21/24/9 14/25/10 19/26/11
f 13/27/12 19/28/11 15/29/13
f 13/30/12 21/24/9 19/26/11
f 18/31/14 22/21/6 20/32/15
f 20/32/15 22/21/6 17/23/8
f 15/33/13 19/34/11 22/21/6
f 16/35/16 20/36/15 21/24/9
f 20/36/15 17/37/17 21/24/9
f 16/38/16 18/39/14 20/40/15
f 17/37/17 14/25/10 21/24/9
f 19/34/11 14/22/7 22/21/6
f 18/31/14 15/33/13 22/21/6
f 13/30/12 16/35/16 21/24/9
f 18/41/14 16/42/16 13/27/12 15/29/13
f 32/43/6 24/44/7 27/45/8
f 31/46/9 24/47/10 29/48/11
f 23/49/12 29/50/11 25/51/13
f 23/52/12 31/46/9 29/48/11
f 28/53/14 32/43/6 30/54/15
f 30/54/15 32/43/6 27/45/8
f 25/55/13 29/56/11 32/43/6
f 26/57/16 30/58/15 31/46/9
f 30/58/15 27/59/17 31/46/9
f 26/60/16 28/61/14 30/62/15
f 27/59/17 24/47/10 31/46/9
f 29/56/11 24/44/7 32/43/6
f 28/53/14 25/55/13 32/43/6
f 23/52/12 26/57/16 31/46/9
f 28/63/14 26/64/16 23/49/12 25/51/13
f 37/65/14 39/66/16 42/67/12 40/68/13
f 42/69/12 39/70/16 34/71/9
f 37/72/14 40/73/13 33/74/6
f 36/75/11 41/76/7 33/74/6
f 38/77/17 41/78/10 34/71/9
f 39/79/16 37/80/14 35/81/15
f 35/82/15 38/77/17 34/71/9
f 39/70/16 35/82/15 34/71/9
f 40/73/13 36/75/11 33/74/6
f 35/83/15 33/74/6 38/84/8
f 37/72/14 33/74/6 35/83/15
f 42/69/12 34/71/9 36/85/11
f 42/67/12 36/86/11 40/68/13
f 34/71/9 41/78/10 36/85/11
f 33/74/6 41/76/7 38/84/8
f 52/87/18 44/88/7 47/89/8
f 51/90/9 44/91/10 49/92/11
f 43/93/12 49/94/11 45/95/13
f 43/96/12 51/90/9 49/92/11
f 48/97/14 52/87/18 50/98/15
f 50/98/15 52/87/18 47/89/8
f 45/99/13 49/100/11 52/87/18
f 46/101/16 50/102/15 51/90/9
f 50/102/15 47/103/17 51/90/9
f 46/104/16 48/105/14 50/106/15
f 47/103/17 44/91/10 51/90/9
f 49/100/11 44/88/7 52/87/18
f 48/97/14 45/99/13 52/87/18
f 43/96/12 46/101/16 51/90/9
f 48/107/14 46/108/16 43/93/12 45/95/13
f 57/109/14 59/110/16 62/111/12 60/112/13
f 62/113/12 59/114/16 54/115/19
f 57/116/14 60/117/13 53/118/6
f 56/119/11 61/120/7 53/118/6
f 58/121/17 61/122/10 54/115/19
f 59/123/16 57/124/14 55/125/15
f 55/126/15 58/121/17 54/115/19
f 59/114/16 55/126/15 54/115/19
f 60/117/13 56/119/11 53/118/6
f 55/127/15 53/118/6 58/128/8
f 57/116/14 53/118/6 55/127/15
f 62/113/12 54/115/19 56/129/11
f 62/111/12 56/130/11 60/112/13
f 54/115/19 61/122/10 56/129/11
f 53/118/6 61/120/7 58/128/8
f 63/131/20 64/132/20 66/133/3 65/134/3
f 65/134/3 66/133/3 70/135/21 69/136/21
f 69/137/22 70/138/22 68/139/1 67/140/1
f 67/140/1 68/139/1 64/141/23 63/142/23
f 71/143/20 72/144/20 74/145/3 73/146/3
f 73/146/3 74/145/3 78/147/24 77/148/24
f 77/149/24 78/150/24 76/151/1 75/152/1
f 75/152/1 76/151/1 72/153/23 71/154/23
f 79/155/20 80/156/20 82/157/3 81/158/3
f 81/158/3 82/157/3 86/159/24 85/160/24
f 85/161/24 86/162/24 84/163/1 83/164/1
f 83/164/1 84/163/1 80/165/23 79/166/23
f 87/167/20 88/168/20 90/169/3 89/170/3
f 89/170/3 90/169/3 94/171/24 93/172/24
f 93/173/24 94/174/24 92/175/1 91/176/1
f 91/176/1 92/175/1 88/177/23 87/178/23
f 95/179/20 96/180/20 98/181/3 97/182/3
f 97/182/3 98/181/3 102/183/24 101/184/24
f 101/185/24 102/186/24 100/187/1 99/188/1
f 99/188/1 100/187/1 96/189/23 95/190/23
f 9/191/25 12/192/25 104/16/3 103/15/3
f 3/193/25 6/194/25 106/6/3 105/5/3
f 116/195/6 108/196/7 111/197/8
f 115/198/9 108/199/10 113/200/11
f 107/201/12 113/202/11 109/203/13
f 107/204/12 115/198/9 113/200/11
f 112/205/14 116/195/6 114/206/15
f 114/206/15 116/195/6 111/197/8
f 109/207/13 113/208/11 116/195/6
f 110/209/16 114/210/15 115/198/9
f 114/210/15 111/211/17 115/198/9
f 110/212/16 112/213/14 114/214/15
f 111/211/17 108/199/10 115/198/9
f 113/208/11 108/196/7 116/195/6
f 112/205/14 109/207/13 116/195/6
f 107/204/12 110/209/16 115/198/9
f 112/215/14 110/216/16 107/201/12 109/203/13
f 121/217/14 123/218/16 126/219/12 124/220/13
f 126/221/12 123/222/16 118/223/9
f 121/224/14 124/225/13 117/226/6
f 120/227/11 125/228/7 117/226/6
f 122/229/17 125/230/10 118/223/9
f 123/231/16 121/232/14 119/233/15
f 119/234/15 122/229/17 118/223/9
f 123/222/16 119/234/15 118/223/9
f 124/225/13 120/227/11 117/226/6
f 119/235/15 117/226/6 122/236/8
f 121/224/14 117/226/6 119/235/15
f 126/221/12 118/223/9 120/237/11
f 126/219/12 120/238/11 124/220/13
f 118/223/9 125/230/10 120/237/11
f 117/226/6 125/228/7 122/236/8
f 136/239/18 128/240/7 131/241/8
f 135/242/9 128/243/10 133/244/11
f 127/245/12 133/246/11 129/247/13
f 127/248/12 135/242/9 133/244/11
f 132/249/14 136/239/18 134/250/15
f 134/250/15 136/239/18 131/241/8
f 129/251/13 133/252/11 136/239/18
f 130/253/16 134/254/15 135/242/9
f 134/254/15 131/255/17 135/242/9
f 130/256/16 132/257/14 134/258/15
f 131/255/17 128/243/10 135/242/9
f 133/252/11 128/240/7 136/239/18
f 132/249/14 129/251/13 136/239/18
f 127/248/12 130/253/16 135/242/9
f 132/259/14 130/260/16 127/245/12 129/247/13
f 141/261/14 143/262/16 146/263/12 144/264/13
f 146/265/12 143/266/16 138/267/9
f 141/268/14 144/269/13 137/270/6
f 140/271/11 145/272/7 137/270/6
f 142/273/17 145/274/10 138/267/9
f 143/275/16 141/276/14 139/277/15
f 139/278/15 142/273/17 138/267/9
f 143/266/16 139/278/15 138/267/9
f 144/269/13 140/271/11 137/270/6
f 139/279/15 137/270/6 142/280/8
f 141/268/14 137/270/6 139/279/15
f 146/265/12 138/267/9 140/281/11
f 146/263/12 140/282/11 144/264/13
f 138/267/9 145/274/10 140/281/11
f 137/270/6 145/272/7 142/280/8
f 147/283/20 148/284/20 150/285/3 149/286/3
f 149/286/3 150/285/3 154/287/24 153/288/24
f 153/289/24 154/290/24 152/291/1 151/292/1
f 151/292/1 152/291/1 148/293/23 147/294/23
f 155/295/20 156/296/20 158/297/3 157/298/3
f 157/298/3 158/297/3 162/299/24 161/300/24
f 161/301/24 162/302/24 160/303/1 159/304/1
f 159/304/1 160/303/1 156/305/23 155/306/23
f 163/307/20 164/308/20 166/309/3 165/310/3
f 165/310/3 166/309/3 170/311/24 169/312/24
f 169/313/24 170/314/24 168/315/1 167/316/1
f 167/316/1 168/315/1 164/317/23 163/318/23
f 171/319/20 172/320/20 174/321/3 173/322/3
f 173/322/3 174/321/3 178/323/24 177/324/24
f 177/325/24 178/326/24 176/327/1 175/328/1
f 175/328/1 176/327/1 172/329/23 171/330/23
