# Blender v2.93.5 OBJ File: 'Modular Graveyard.blend'
# www.blender.org
mtllib RustyLowRailingPillar.mtl
o RustyLowRailingPillar_Circle.064
v -0.032051 1.192527 0.035141
v 0.033710 1.339438 -0.034902
v -0.032051 1.192527 -0.034902
v 0.033710 1.192527 0.035141
v 0.033710 1.339438 0.035141
v 0.033710 1.192527 -0.034902
v 0.000833 1.024811 0.038540
v 0.039390 1.024811 -0.000017
v 0.000833 1.024811 -0.038574
v -0.037724 1.024811 -0.000017
v -0.037724 -0.014238 -0.000017
v -0.024612 1.194788 -0.000019
v 0.000833 -0.014238 -0.038574
v 0.000833 1.194788 -0.025465
v 0.000833 -0.014238 0.038540
v 0.000833 1.194788 0.025427
v 0.039390 -0.014238 -0.000017
v 0.026279 1.194788 -0.000019
v -0.032051 1.339438 0.035141
v -0.032051 1.339438 -0.034902
v 0.076117 1.265983 0.000120
v -0.074458 1.265983 0.000120
v 0.000829 1.265983 0.059298
v 0.000829 1.265983 -0.059059
v 0.000833 1.026486 0.025427
v 0.026279 1.026486 -0.000019
v 0.000833 1.026486 -0.025465
v -0.024612 1.026486 -0.000019
vt 0.859375 0.117188
vt 0.875000 0.121094
vt 0.851562 0.125000
vt 0.882812 0.117188
vt 0.890625 0.125000
vt 0.875000 0.125000
vt 0.882812 0.132812
vt 0.890625 0.132812
vt 0.859375 0.117188
vt 0.851562 0.105469
vt 0.875000 0.105469
vt 0.859375 0.101562
vt 0.859375 0.132812
vt 0.875000 0.125000
vt 0.890625 0.117188
vt 0.875000 0.109375
vt 0.890625 0.105469
vt 0.867188 0.117188
vt 0.875000 0.101562
vt 0.859375 0.132812
vt 0.875000 0.132812
vt 0.914062 0.105469
vt 0.914062 0.117188
vt 0.890625 0.117188
vt 0.890625 0.105469
vt 0.859375 0.132812
vt 0.859375 0.156250
vt 0.851562 0.156250
vt 0.851562 0.132812
vt 0.882812 0.132812
vt 0.882812 0.152344
vt 0.875000 0.152344
vt 0.875000 0.132812
vt 0.890625 0.132812
vt 0.890625 0.152344
vt 0.882812 0.152344
vt 0.882812 0.132812
vt 0.906250 0.117188
vt 0.906250 0.136719
vt 0.890625 0.136719
vt 0.890625 0.117188
vt 0.851562 0.101562
vt 0.882812 0.101562
vt 0.914062 0.136719
vt 0.914062 0.144531
vt 0.890625 0.144531
vt 0.890625 0.136719
vt 0.828125 0.101562
vt 0.828125 0.218750
vt 0.804688 0.218750
vt 0.804688 0.101562
vt 0.835938 0.101562
vt 0.835938 0.218750
vt 0.804688 0.101562
vt 0.804688 0.218750
vt 0.796875 0.218750
vt 0.796875 0.101562
vt 0.851562 0.101562
vt 0.851562 0.218750
vt 0.835938 0.218750
vt 0.835938 0.101562
vt 0.914062 0.105469
vt 0.914062 0.105469
vt 0.914062 0.105469
vt 0.914062 0.105469
vt 0.890625 0.105469
vt 0.898438 0.105469
vt 0.890625 0.101562
vt 0.898438 0.101562
vn -0.4743 0.6861 0.5516
vn -0.4743 0.6861 -0.5516
vn -1.0000 -0.0000 0.0000
vn -0.0000 0.0000 1.0000
vn -0.4743 -0.6861 0.5516
vn -0.4743 -0.6861 -0.5516
vn 0.4743 -0.6861 -0.5516
vn -0.0000 0.0000 -1.0000
vn 1.0000 0.0000 0.0000
vn 0.4743 0.6861 -0.5516
vn 0.4743 -0.6861 0.5516
vn 0.4743 0.6861 0.5516
vn -0.5198 0.8543 -0.0000
vn -0.7071 0.0000 -0.7071
vn 0.0000 0.8543 -0.5198
vn 0.7071 0.0000 -0.7071
vn 0.5198 0.8543 -0.0000
vn 0.7071 0.0000 0.7071
vn 0.0000 0.8543 0.5197
vn -0.7071 0.0000 0.7071
vn -0.0000 0.5421 0.8403
vn -0.8403 0.5421 0.0000
vn 0.8403 0.5421 0.0000
vn -0.0000 0.5421 -0.8403
usemtl Material.001
s 1
f 19/1/1 20/2/2 22/3/3
f 19/4/1 22/5/3 23/6/4
f 1/7/5 22/5/3 3/8/6
f 1/7/5 23/6/4 22/5/3
f 6/9/7 24/10/8 21/11/9
f 2/12/10 21/11/9 24/10/8
f 3/13/6 22/3/3 24/14/8
f 4/15/11 21/16/9 23/17/4
f 20/2/2 24/14/8 22/3/3
f 4/18/11 6/9/7 21/11/9
f 5/19/12 23/17/4 21/16/9
f 5/19/12 21/11/9 2/12/10
f 6/20/7 3/13/6 24/14/8
f 1/7/5 4/21/11 23/6/4
f 6/22/7 4/23/11 1/24/5 3/25/6
f 28/26/13 12/27/14 14/28/8 27/29/15
f 27/30/15 14/31/8 18/32/16 26/33/17
f 26/34/17 18/35/18 16/36/4 25/37/19
f 25/38/19 16/39/4 12/40/20 28/41/13
f 20/42/2 2/12/10 24/10/8
f 5/19/12 19/43/1 23/17/4
f 20/44/2 19/45/1 5/46/12 2/47/10
f 15/48/4 7/49/21 10/50/22 11/51/20
f 17/52/18 8/53/23 7/49/21 15/48/4
f 13/54/8 9/55/24 8/56/23 17/57/16
f 11/58/14 10/59/22 9/60/24 13/61/8
f 7/62/21 25/63/19 28/64/13 10/65/22
f 8/66/23 26/67/17 25/63/19 7/62/21
f 9/68/24 27/69/15 26/67/17 8/66/23
f 10/65/22 28/64/13 27/69/15 9/68/24
