# Blender v2.93.5 OBJ File: 'Modular Graveyard.blend'
# www.blender.org
mtllib RustyLowRailing1.mtl
o RustyLowRailing1_Circle.057
v -0.000377 0.182211 0.018813
v -0.000377 0.210148 0.000142
v -0.000377 0.154274 0.000142
v -0.998025 0.182211 0.018813
v -0.998025 0.210148 0.000142
v -0.998025 0.154274 0.000142
v -0.000377 0.859053 0.018813
v -0.000377 0.886990 0.000142
v -0.000377 0.831116 0.000142
v -0.998025 0.859053 0.018813
v -0.998025 0.886990 0.000142
v -0.998025 0.831116 0.000142
v 0.001066 1.088476 -0.051993
v 0.001066 1.088476 0.052207
v 0.074919 1.077323 0.000107
v -0.072787 1.077323 0.000107
v 0.033320 0.994248 -0.030726
v 0.014422 1.300285 0.000107
v 0.033320 0.994248 0.030940
v -0.031188 0.994248 -0.030726
v -0.012290 1.300285 0.000107
v -0.031188 0.994248 0.030940
v -0.029334 -0.002187 0.000000
v -0.029334 1.001030 0.000000
v 0.001060 -0.002187 -0.030394
v 0.001060 1.001030 -0.030394
v 0.001060 -0.002187 0.030394
v 0.001060 1.001030 0.030394
v 0.031454 -0.002187 0.000000
v 0.031454 1.001030 0.000000
v -0.000377 0.859053 -0.018117
v -0.998025 0.859053 -0.018117
v -0.000377 0.182211 -0.018117
v -0.998025 0.182211 -0.018117
v -0.780521 0.994248 0.030940
v -0.761623 1.300285 0.000107
v -0.780521 0.994248 -0.030726
v -0.716013 0.994248 0.030940
v -0.734911 1.300285 0.000107
v -0.716013 0.994248 -0.030726
v -0.822120 1.077323 0.000107
v -0.674414 1.077323 0.000107
v -0.748267 1.088476 0.052207
v -0.748267 1.088476 -0.051993
v -0.249480 1.088476 -0.051993
v -0.249480 1.088476 0.052207
v -0.175627 1.077323 0.000107
v -0.323333 1.077323 0.000107
v -0.217226 0.994248 -0.030726
v -0.236124 1.300285 0.000107
v -0.217226 0.994248 0.030940
v -0.281734 0.994248 -0.030726
v -0.262836 1.300285 0.000107
v -0.281734 0.994248 0.030940
v -0.532333 0.994248 0.030940
v -0.513435 1.300285 0.000107
v -0.532333 0.994248 -0.030726
v -0.467826 0.994248 0.030940
v -0.486724 1.300285 0.000107
v -0.467826 0.994248 -0.030726
v -0.573932 1.077323 0.000107
v -0.426227 1.077323 0.000107
v -0.500080 1.088476 0.052207
v -0.500080 1.088476 -0.051993
v -0.998934 1.088476 -0.051993
v -0.998934 1.088476 0.052207
v -0.925081 1.077323 0.000107
v -1.072787 1.077323 0.000107
v -0.966680 0.994248 -0.030726
v -0.985578 1.300285 0.000107
v -0.966680 0.994248 0.030940
v -1.031188 0.994248 -0.030726
v -1.012290 1.300285 0.000107
v -1.031188 0.994248 0.030940
v -0.778784 -0.002187 0.000000
v -0.778784 1.001030 0.000000
v -0.748390 -0.002187 -0.030394
v -0.748390 1.001030 -0.030394
v -0.748390 -0.002187 0.030394
v -0.748390 1.001030 0.030394
v -0.717997 -0.002187 0.000000
v -0.717997 1.001030 0.000000
v -1.029334 -0.002187 0.000000
v -1.029334 1.001030 0.000000
v -0.998940 -0.002187 -0.030394
v -0.998940 1.001030 -0.030394
v -0.998940 -0.002187 0.030394
v -0.998940 1.001030 0.030394
v -0.968546 -0.002187 0.000000
v -0.968546 1.001030 0.000000
v -0.530404 -0.002187 0.000000
v -0.530404 1.001030 0.000000
v -0.500010 -0.002187 -0.030394
v -0.500010 1.001030 -0.030394
v -0.500010 -0.002187 0.030394
v -0.500010 1.001030 0.030394
v -0.469616 -0.002187 0.000000
v -0.469616 1.001030 0.000000
v -0.279914 -0.002187 0.000000
v -0.279914 1.001030 0.000000
v -0.249520 -0.002187 -0.030394
v -0.249520 1.001030 -0.030394
v -0.249520 -0.002187 0.030394
v -0.249520 1.001030 0.030394
v -0.219127 -0.002187 0.000000
v -0.219127 1.001030 0.000000
vt 0.835938 0.117188
vt 0.835938 0.179688
vt 0.812500 0.179688
vt 0.812500 0.117188
vt 0.843750 0.273438
vt 0.843750 0.210938
vt 0.867188 0.210938
vt 0.867188 0.273438
vt 0.851562 0.117188
vt 0.851562 0.179688
vt 0.835938 0.046875
vt 0.835938 0.113281
vt 0.812500 0.113281
vt 0.812500 0.046875
vt 0.835938 0.246094
vt 0.835938 0.183594
vt 0.851562 0.183594
vt 0.851562 0.246094
vt 0.851562 0.046875
vt 0.851562 0.113281
vt 0.765625 0.261719
vt 0.765625 0.273438
vt 0.750000 0.273438
vt 0.750000 0.261719
vt 0.757812 0.214844
vt 0.773438 0.214844
vt 0.773438 0.230469
vt 0.890625 0.265625
vt 0.875000 0.265625
vt 0.890625 0.250000
vt 0.859375 0.253906
vt 0.882812 0.218750
vt 0.773438 0.261719
vt 0.765625 0.261719
vt 0.875000 0.253906
vt 0.867188 0.253906
vt 0.890625 0.246094
vt 0.882812 0.230469
vt 0.882812 0.269531
vt 0.851562 0.234375
vt 0.859375 0.218750
vt 0.859375 0.242188
vt 0.890625 0.207031
vt 0.742188 0.230469
vt 0.859375 0.265625
vt 0.890625 0.218750
vt 0.804688 0.042969
vt 0.804688 0.207031
vt 0.789062 0.207031
vt 0.789062 0.042969
vt 0.742188 0.210938
vt 0.742188 0.046875
vt 0.757812 0.046875
vt 0.757812 0.210938
vt 0.882812 0.042969
vt 0.882812 0.207031
vt 0.867188 0.207031
vt 0.867188 0.042969
vt 0.867188 0.214844
vt 0.867188 0.050781
vt 0.882812 0.050781
vt 0.882812 0.214844
vt 0.812500 0.246094
vt 0.812500 0.183594
vt 0.828125 0.273438
vt 0.828125 0.210938
vt 0.820312 0.242188
vt 0.812500 0.210938
vt 0.820312 0.210938
vt 0.890625 0.062500
vt 0.882812 0.097656
vt 0.859375 0.062500
vt 0.789062 0.257812
vt 0.789062 0.246094
vt 0.804688 0.257812
vt 0.875000 0.046875
vt 0.898438 0.148438
vt 0.890625 0.136719
vt 0.921875 0.140625
vt 0.921875 0.101562
vt 0.867188 0.101562
vt 0.890625 0.117188
vt 0.859375 0.117188
vt 0.890625 0.148438
vt 0.914062 0.148438
vt 0.890625 0.097656
vt 0.820312 0.257812
vt 0.890625 0.046875
vt 0.937500 0.261719
vt 0.937500 0.273438
vt 0.921875 0.273438
vt 0.921875 0.261719
vt 0.812500 0.261719
vt 0.812500 0.273438
vt 0.789062 0.273438
vt 0.789062 0.261719
vt 0.835938 0.218750
vt 0.851562 0.218750
vt 0.851562 0.234375
vt 0.789062 0.265625
vt 0.765625 0.265625
vt 0.781250 0.250000
vt 0.750000 0.253906
vt 0.781250 0.218750
vt 0.851562 0.265625
vt 0.843750 0.265625
vt 0.875000 0.203125
vt 0.867188 0.203125
vt 0.890625 0.191406
vt 0.914062 0.230469
vt 0.914062 0.269531
vt 0.882812 0.234375
vt 0.890625 0.218750
vt 0.859375 0.187500
vt 0.890625 0.152344
vt 0.820312 0.234375
vt 0.757812 0.265625
vt 0.789062 0.218750
vt 0.921875 0.250000
vt 0.921875 0.218750
vt 0.929688 0.218750
vt 0.804688 0.230469
vt 0.804688 0.261719
vt 0.781250 0.230469
vt 0.898438 0.265625
vt 0.898438 0.253906
vt 0.906250 0.265625
vt 0.796875 0.214844
vt 0.898438 0.253906
vt 0.890625 0.242188
vt 0.921875 0.246094
vt 0.921875 0.207031
vt 0.898438 0.152344
vt 0.921875 0.164062
vt 0.890625 0.167969
vt 0.921875 0.203125
vt 0.914062 0.253906
vt 0.804688 0.261719
vt 0.929688 0.265625
vt 0.804688 0.214844
vt 0.890625 0.261719
vt 0.890625 0.273438
vt 0.867188 0.273438
vt 0.867188 0.261719
vt 0.914062 0.261719
vt 0.914062 0.273438
vt 0.898438 0.273438
vt 0.898438 0.261719
vt 0.757812 0.210938
vt 0.781250 0.210938
vt 0.781250 0.226562
vt 0.812500 0.265625
vt 0.796875 0.265625
vt 0.812500 0.250000
vt 0.789062 0.253906
vt 0.804688 0.218750
vt 0.781250 0.257812
vt 0.773438 0.257812
vt 0.914062 0.097656
vt 0.898438 0.097656
vt 0.921875 0.085938
vt 0.835938 0.222656
vt 0.835938 0.261719
vt 0.804688 0.226562
vt 0.812500 0.210938
vt 0.898438 0.082031
vt 0.921875 0.046875
vt 0.750000 0.226562
vt 0.750000 0.210938
vt 0.812500 0.218750
vt 0.820312 0.042969
vt 0.820312 0.207031
vt 0.804688 0.207031
vt 0.804688 0.042969
vt 0.781250 0.210938
vt 0.781250 0.046875
vt 0.796875 0.046875
vt 0.796875 0.210938
vt 0.796875 0.050781
vt 0.796875 0.214844
vt 0.789062 0.214844
vt 0.789062 0.050781
vt 0.906250 0.214844
vt 0.906250 0.050781
vt 0.921875 0.050781
vt 0.921875 0.214844
vt 0.757812 0.042969
vt 0.757812 0.207031
vt 0.750000 0.207031
vt 0.750000 0.042969
vt 0.804688 0.210938
vt 0.804688 0.046875
vt 0.812500 0.046875
vt 0.812500 0.210938
vt 0.820312 0.050781
vt 0.820312 0.214844
vt 0.804688 0.214844
vt 0.804688 0.050781
vt 0.882812 0.214844
vt 0.882812 0.050781
vt 0.898438 0.050781
vt 0.898438 0.214844
vt 0.781250 0.042969
vt 0.781250 0.207031
vt 0.765625 0.207031
vt 0.765625 0.042969
vt 0.921875 0.214844
vt 0.921875 0.050781
vt 0.937500 0.050781
vt 0.937500 0.214844
vt 0.859375 0.042969
vt 0.859375 0.207031
vt 0.851562 0.207031
vt 0.851562 0.042969
vt 0.820312 0.214844
vt 0.820312 0.050781
vt 0.835938 0.050781
vt 0.835938 0.214844
vt 0.843750 0.042969
vt 0.843750 0.207031
vt 0.828125 0.207031
vt 0.828125 0.042969
vt 0.765625 0.210938
vt 0.765625 0.046875
vt 0.773438 0.046875
vt 0.773438 0.210938
vt 0.789062 0.050781
vt 0.789062 0.214844
vt 0.773438 0.214844
vt 0.773438 0.050781
vt 0.843750 0.214844
vt 0.843750 0.050781
vt 0.859375 0.050781
vt 0.859375 0.214844
vn 0.0000 -0.0000 1.0000
vn 0.0000 -0.5557 0.8314
vn -0.0000 -0.0000 -1.0000
vn -0.0000 0.5471 -0.8371
vn -0.0000 0.5557 0.8314
vn 0.4717 -0.6779 -0.5638
vn 0.4717 -0.6779 0.5638
vn -0.4717 -0.6779 0.5638
vn -0.4717 -0.6779 -0.5638
vn -0.0000 0.0806 0.9967
vn -0.0000 0.0806 -0.9967
vn -0.9992 0.0407 0.0000
vn -0.1277 0.2293 -0.9649
vn 0.1277 0.2293 0.9649
vn -0.1277 0.2293 0.9649
vn 0.9992 0.0407 0.0000
vn 0.1277 0.2293 -0.9649
vn -0.7071 0.0000 -0.7071
vn 1.0000 0.0000 0.0000
vn -0.7071 0.0000 0.7071
vn -0.0000 -0.5471 -0.8371
vn -0.0000 0.0806 0.9968
vn -0.0000 0.0806 -0.9968
usemtl Material.001
s 1
f 1/1/1 4/2/1 6/3/2 3/4/2
f 33/5/3 34/6/3 5/7/4 2/8/4
f 2/9/5 5/10/5 4/2/1 1/1/1
f 7/11/1 10/12/1 12/13/2 9/14/2
f 31/15/3 32/16/3 11/17/4 8/18/4
f 8/19/5 11/20/5 10/12/1 7/11/1
f 17/21/6 19/22/7 22/23/8 20/24/9
f 22/25/8 19/26/7 14/27/10
f 17/28/6 20/29/9 13/30/11
f 16/31/12 21/32/13 13/30/11
f 18/33/14 21/34/15 14/27/10
f 19/35/7 17/36/6 15/37/16
f 15/38/16 18/39/14 14/40/10
f 19/41/7 15/38/16 14/40/10
f 20/29/9 16/31/12 13/30/11
f 15/37/16 13/42/11 18/43/17
f 17/36/6 13/42/11 15/37/16
f 22/25/8 14/27/10 16/44/12
f 22/45/8 16/31/12 20/29/9
f 14/27/10 21/34/15 16/44/12
f 13/30/11 21/32/13 18/46/17
f 23/47/18 24/48/18 26/49/3 25/50/3
f 25/51/3 26/52/3 30/53/19 29/54/19
f 29/55/19 30/56/19 28/57/1 27/58/1
f 27/59/1 28/60/1 24/61/20 23/62/20
f 9/63/21 12/64/21 32/16/3 31/15/3
f 3/65/21 6/66/21 34/6/3 33/5/3
f 44/67/11 36/68/13 39/69/17
f 43/70/22 36/71/15 41/72/12
f 35/73/8 41/74/12 37/75/9
f 35/76/8 43/70/22 41/72/12
f 40/77/6 44/78/11 42/79/16
f 42/79/16 44/78/11 39/80/17
f 37/75/9 41/74/12 44/67/11
f 38/81/7 42/82/16 43/83/22
f 42/82/16 39/84/14 43/83/22
f 38/85/7 40/77/6 42/79/16
f 39/86/14 36/71/15 43/70/22
f 41/74/12 36/68/13 44/67/11
f 40/87/6 37/75/9 44/67/11
f 35/76/8 38/88/7 43/70/22
f 40/89/6 38/90/7 35/91/8 37/92/9
f 49/93/6 51/94/7 54/95/8 52/96/9
f 54/97/8 51/98/7 46/99/22
f 49/100/6 52/101/9 45/102/11
f 48/103/12 53/104/13 45/102/11
f 50/105/14 53/106/15 46/99/22
f 51/107/7 49/108/6 47/109/16
f 47/110/16 50/111/14 46/112/22
f 51/113/7 47/110/16 46/112/22
f 52/101/9 48/103/12 45/102/11
f 47/109/16 45/114/11 50/115/17
f 49/108/6 45/114/11 47/109/16
f 54/97/8 46/99/22 48/116/12
f 54/117/8 48/103/12 52/101/9
f 46/99/22 53/106/15 48/116/12
f 45/102/11 53/104/13 50/118/17
f 64/119/23 56/120/13 59/121/17
f 63/122/22 56/123/15 61/124/12
f 55/125/8 61/126/12 57/127/9
f 55/128/8 63/122/22 61/124/12
f 60/129/6 64/130/23 62/131/16
f 62/131/16 64/130/23 59/132/17
f 57/127/9 61/126/12 64/119/23
f 58/133/7 62/134/16 63/135/22
f 62/134/16 59/136/14 63/135/22
f 58/137/7 60/129/6 62/131/16
f 59/138/14 56/123/15 63/122/22
f 61/126/12 56/120/13 64/119/23
f 60/139/6 57/127/9 64/119/23
f 55/128/8 58/140/7 63/122/22
f 60/141/6 58/142/7 55/143/8 57/144/9
f 69/145/6 71/146/7 74/147/8 72/148/9
f 74/149/8 71/150/7 66/151/22
f 69/152/6 72/153/9 65/154/11
f 68/155/12 73/156/13 65/154/11
f 70/157/14 73/158/15 66/151/22
f 71/159/7 69/160/6 67/161/16
f 67/162/16 70/163/14 66/164/22
f 71/165/7 67/162/16 66/164/22
f 72/153/9 68/155/12 65/154/11
f 67/161/16 65/166/11 70/167/17
f 69/160/6 65/166/11 67/161/16
f 74/149/8 66/151/22 68/168/12
f 74/149/8 68/168/12 72/169/9
f 66/151/22 73/158/15 68/168/12
f 65/154/11 73/156/13 70/170/17
f 75/171/18 76/172/18 78/173/3 77/174/3
f 77/175/3 78/176/3 82/177/19 81/178/19
f 81/179/19 82/180/19 80/181/1 79/182/1
f 79/183/1 80/184/1 76/185/20 75/186/20
f 83/187/18 84/188/18 86/189/3 85/190/3
f 85/191/3 86/192/3 90/193/19 89/194/19
f 89/195/19 90/196/19 88/197/1 87/198/1
f 87/199/1 88/200/1 84/201/20 83/202/20
f 91/203/18 92/204/18 94/205/3 93/206/3
f 93/207/3 94/208/3 98/209/19 97/210/19
f 97/211/19 98/212/19 96/213/1 95/214/1
f 95/215/1 96/216/1 92/217/20 91/218/20
f 99/219/18 100/220/18 102/221/3 101/222/3
f 101/223/3 102/224/3 106/225/19 105/226/19
f 105/227/19 106/228/19 104/229/1 103/230/1
f 103/231/1 104/232/1 100/233/20 99/234/20
