# Blender v2.93.5 OBJ File: 'Modular Graveyard.blend'
# www.blender.org
mtllib RustyLowRailingOpen2.mtl
o RustyLowRailingOpen2_Circle.065
v 2.000203 0.182211 0.018813
v 2.000203 0.210148 0.000142
v 2.000203 0.154274 0.000142
v 0.001897 0.182211 0.018813
v 0.001897 0.210148 0.000142
v 0.001897 0.154274 0.000142
v 2.000203 0.859053 0.018813
v 2.000203 0.886990 0.000142
v 2.000203 0.831116 0.000142
v 0.001897 0.859053 0.018813
v 0.001897 0.886990 0.000142
v 0.001897 0.831116 0.000142
v 0.219479 0.994248 0.030940
v 0.238377 1.300285 0.000107
v 0.219479 0.994248 -0.030726
v 0.283987 0.994248 0.030940
v 0.265089 1.300285 0.000107
v 0.283987 0.994248 -0.030726
v 0.177880 1.077323 0.000107
v 0.325586 1.077323 0.000107
v 0.251733 1.088476 0.052207
v 0.251733 1.088476 -0.051993
v 0.750520 1.088476 -0.051993
v 0.750520 1.088476 0.052207
v 0.824373 1.077323 0.000107
v 0.676667 1.077323 0.000107
v 0.782774 0.994248 -0.030726
v 0.763876 1.300285 0.000107
v 0.782774 0.994248 0.030940
v 0.718266 0.994248 -0.030726
v 0.737164 1.300285 0.000107
v 0.718266 0.994248 0.030940
v 0.467667 0.994248 0.030940
v 0.486565 1.300285 0.000107
v 0.467667 0.994248 -0.030726
v 0.532174 0.994248 0.030940
v 0.513276 1.300285 0.000107
v 0.532174 0.994248 -0.030726
v 0.426068 1.077323 0.000107
v 0.573773 1.077323 0.000107
v 0.499920 1.088476 0.052207
v 0.499920 1.088476 -0.051993
v 0.221216 -0.002187 0.000000
v 0.221216 1.001030 0.000000
v 0.251610 -0.002187 -0.030394
v 0.251610 1.001030 -0.030394
v 0.251610 -0.002187 0.030394
v 0.251610 1.001030 0.030394
v 0.282003 -0.002187 0.000000
v 0.282003 1.001030 0.000000
v 0.469596 -0.002187 0.000000
v 0.469596 1.001030 0.000000
v 0.499990 -0.002187 -0.030394
v 0.499990 1.001030 -0.030394
v 0.499990 -0.002187 0.030394
v 0.499990 1.001030 0.030394
v 0.530384 -0.002187 0.000000
v 0.530384 1.001030 0.000000
v 0.720086 -0.002187 0.000000
v 0.720086 1.001030 0.000000
v 0.750480 -0.002187 -0.030394
v 0.750480 1.001030 -0.030394
v 0.750480 -0.002187 0.030394
v 0.750480 1.001030 0.030394
v 0.780873 -0.002187 0.000000
v 0.780873 1.001030 0.000000
v 2.000203 0.859053 -0.018117
v 0.001897 0.859053 -0.018117
v 2.000203 0.182211 -0.018117
v 0.001897 0.182211 -0.018117
v 1.000894 1.088476 -0.051993
v 1.000894 1.088476 0.052207
v 1.074747 1.077323 0.000107
v 0.927041 1.077323 0.000107
v 1.033148 0.994248 -0.030726
v 1.014250 1.300285 0.000107
v 1.033148 0.994248 0.030940
v 0.968640 0.994248 -0.030726
v 0.987538 1.300285 0.000107
v 0.968640 0.994248 0.030940
v 0.970460 -0.002187 0.000000
v 0.970460 1.001030 0.000000
v 1.000853 -0.002187 -0.030394
v 1.000853 1.001030 -0.030394
v 1.000853 -0.002187 0.030394
v 1.000853 1.001030 0.030394
v 1.031247 -0.002187 0.000000
v 1.031247 1.001030 0.000000
v 1.219479 0.994248 0.030940
v 1.238377 1.300285 0.000107
v 1.219479 0.994248 -0.030726
v 1.283987 0.994248 0.030940
v 1.265089 1.300285 0.000107
v 1.283987 0.994248 -0.030726
v 1.177880 1.077323 0.000107
v 1.325586 1.077323 0.000107
v 1.251733 1.088476 0.052207
v 1.251733 1.088476 -0.051993
v 1.750520 1.088476 -0.051993
v 1.750520 1.088476 0.052207
v 1.824373 1.077323 0.000107
v 1.676667 1.077323 0.000107
v 1.782774 0.994248 -0.030726
v 1.763876 1.300285 0.000107
v 1.782774 0.994248 0.030940
v 1.718266 0.994248 -0.030726
v 1.737164 1.300285 0.000107
v 1.718266 0.994248 0.030940
v 1.467667 0.994248 0.030940
v 1.486565 1.300285 0.000107
v 1.467667 0.994248 -0.030726
v 1.532174 0.994248 0.030940
v 1.513276 1.300285 0.000107
v 1.532174 0.994248 -0.030726
v 1.426068 1.077323 0.000107
v 1.573773 1.077323 0.000107
v 1.499920 1.088476 0.052207
v 1.499920 1.088476 -0.051993
v 1.221216 -0.002187 0.000000
v 1.221216 1.001030 0.000000
v 1.251610 -0.002187 -0.030394
v 1.251610 1.001030 -0.030394
v 1.251610 -0.002187 0.030394
v 1.251610 1.001030 0.030394
v 1.282003 -0.002187 0.000000
v 1.282003 1.001030 0.000000
v 1.469596 -0.002187 0.000000
v 1.469596 1.001030 0.000000
v 1.499990 -0.002187 -0.030394
v 1.499990 1.001030 -0.030394
v 1.499990 -0.002187 0.030394
v 1.499990 1.001030 0.030394
v 1.530384 -0.002187 0.000000
v 1.530384 1.001030 0.000000
v 1.720086 -0.002187 0.000000
v 1.720086 1.001030 0.000000
v 1.750480 -0.002187 -0.030394
v 1.750480 1.001030 -0.030394
v 1.750480 -0.002187 0.030394
v 1.750480 1.001030 0.030394
v 1.780873 -0.002187 0.000000
v 1.780873 1.001030 0.000000
vt 0.882812 0.093750
vt 0.882812 0.242188
vt 0.867188 0.242188
vt 0.867188 0.093750
vt 0.804688 0.242188
vt 0.804688 0.093750
vt 0.828125 0.093750
vt 0.828125 0.242188
vt 0.898438 0.093750
vt 0.898438 0.242188
vt 0.765625 0.191406
vt 0.765625 0.042969
vt 0.773438 0.042969
vt 0.773438 0.191406
vt 0.851562 0.093750
vt 0.851562 0.242188
vt 0.828125 0.242188
vt 0.828125 0.093750
vt 0.742188 0.191406
vt 0.742188 0.042969
vt 0.898438 0.210938
vt 0.921875 0.242188
vt 0.914062 0.242188
vt 0.765625 0.261719
vt 0.789062 0.234375
vt 0.789062 0.261719
vt 0.828125 0.257812
vt 0.851562 0.246094
vt 0.851562 0.257812
vt 0.765625 0.277344
vt 0.882812 0.195312
vt 0.875000 0.210938
vt 0.898438 0.195312
vt 0.921875 0.210938
vt 0.750000 0.277344
vt 0.742188 0.261719
vt 0.781250 0.234375
vt 0.812500 0.218750
vt 0.804688 0.218750
vt 0.804688 0.203125
vt 0.812500 0.222656
vt 0.804688 0.222656
vt 0.757812 0.230469
vt 0.773438 0.230469
vt 0.773438 0.234375
vt 0.757812 0.234375
vt 0.882812 0.214844
vt 0.906250 0.214844
vt 0.898438 0.226562
vt 0.828125 0.238281
vt 0.812500 0.238281
vt 0.828125 0.226562
vt 0.804688 0.226562
vt 0.843750 0.191406
vt 0.921875 0.261719
vt 0.914062 0.261719
vt 0.765625 0.214844
vt 0.921875 0.226562
vt 0.851562 0.230469
vt 0.851562 0.191406
vt 0.875000 0.226562
vt 0.851562 0.257812
vt 0.867188 0.246094
vt 0.867188 0.257812
vt 0.765625 0.214844
vt 0.781250 0.183594
vt 0.789062 0.183594
vt 0.851562 0.226562
vt 0.867188 0.261719
vt 0.835938 0.226562
vt 0.875000 0.238281
vt 0.882812 0.226562
vt 0.882812 0.238281
vt 0.835938 0.214844
vt 0.765625 0.230469
vt 0.789062 0.218750
vt 0.750000 0.230469
vt 0.742188 0.218750
vt 0.851562 0.214844
vt 0.875000 0.226562
vt 0.875000 0.261719
vt 0.812500 0.238281
vt 0.804688 0.238281
vt 0.804688 0.226562
vt 0.812500 0.242188
vt 0.804688 0.242188
vt 0.851562 0.191406
vt 0.851562 0.042969
vt 0.859375 0.042969
vt 0.859375 0.191406
vt 0.867188 0.042969
vt 0.867188 0.191406
vt 0.820312 0.046875
vt 0.820312 0.191406
vt 0.812500 0.191406
vt 0.812500 0.046875
vt 0.804688 0.191406
vt 0.804688 0.046875
vt 0.781250 0.191406
vt 0.781250 0.042969
vt 0.789062 0.042969
vt 0.789062 0.191406
vt 0.796875 0.042969
vt 0.796875 0.191406
vt 0.843750 0.046875
vt 0.843750 0.191406
vt 0.835938 0.191406
vt 0.835938 0.046875
vt 0.828125 0.191406
vt 0.828125 0.046875
vt 0.804688 0.191406
vt 0.804688 0.042969
vt 0.812500 0.042969
vt 0.812500 0.191406
vt 0.820312 0.042969
vt 0.820312 0.191406
vt 0.796875 0.046875
vt 0.796875 0.191406
vt 0.789062 0.191406
vt 0.789062 0.046875
vt 0.781250 0.191406
vt 0.781250 0.046875
vt 0.859375 0.093750
vt 0.859375 0.242188
vt 0.789062 0.242188
vt 0.789062 0.093750
vt 0.765625 0.214844
vt 0.781250 0.214844
vt 0.781250 0.218750
vt 0.765625 0.218750
vt 0.906250 0.191406
vt 0.929688 0.191406
vt 0.921875 0.207031
vt 0.843750 0.230469
vt 0.828125 0.230469
vt 0.843750 0.214844
vt 0.820312 0.218750
vt 0.859375 0.183594
vt 0.945312 0.238281
vt 0.937500 0.238281
vt 0.773438 0.199219
vt 0.945312 0.207031
vt 0.867188 0.218750
vt 0.867188 0.183594
vt 0.898438 0.210938
vt 0.890625 0.246094
vt 0.890625 0.257812
vt 0.875000 0.246094
vt 0.828125 0.191406
vt 0.828125 0.042969
vt 0.835938 0.042969
vt 0.835938 0.191406
vt 0.843750 0.042969
vt 0.843750 0.191406
vt 0.867188 0.046875
vt 0.867188 0.191406
vt 0.859375 0.191406
vt 0.859375 0.046875
vt 0.851562 0.191406
vt 0.851562 0.046875
vt 0.804688 0.230469
vt 0.812500 0.195312
vt 0.820312 0.195312
vt 0.843750 0.261719
vt 0.867188 0.234375
vt 0.867188 0.261719
vt 0.898438 0.257812
vt 0.921875 0.246094
vt 0.921875 0.257812
vt 0.843750 0.277344
vt 0.804688 0.242188
vt 0.820312 0.230469
vt 0.781250 0.242188
vt 0.781250 0.230469
vt 0.828125 0.277344
vt 0.820312 0.261719
vt 0.859375 0.234375
vt 0.773438 0.210938
vt 0.757812 0.210938
vt 0.765625 0.195312
vt 0.773438 0.210938
vt 0.757812 0.210938
vt 0.851562 0.261719
vt 0.859375 0.261719
vt 0.859375 0.261719
vt 0.851562 0.261719
vt 0.789062 0.214844
vt 0.804688 0.214844
vt 0.796875 0.226562
vt 0.859375 0.191406
vt 0.875000 0.191406
vt 0.875000 0.210938
vt 0.898438 0.207031
vt 0.898438 0.238281
vt 0.828125 0.261719
vt 0.820312 0.261719
vt 0.851562 0.246094
vt 0.828125 0.226562
vt 0.859375 0.207031
vt 0.890625 0.238281
vt 0.781250 0.226562
vt 0.875000 0.257812
vt 0.882812 0.242188
vt 0.882812 0.257812
vt 0.851562 0.230469
vt 0.859375 0.195312
vt 0.875000 0.195312
vt 0.921875 0.265625
vt 0.937500 0.234375
vt 0.937500 0.265625
vt 0.945312 0.238281
vt 0.945312 0.250000
vt 0.929688 0.238281
vt 0.921875 0.277344
vt 0.851562 0.242188
vt 0.875000 0.230469
vt 0.835938 0.242188
vt 0.828125 0.230469
vt 0.898438 0.277344
vt 0.898438 0.261719
vt 0.929688 0.234375
vt 0.945312 0.230469
vt 0.929688 0.230469
vt 0.937500 0.214844
vt 0.945312 0.234375
vt 0.929688 0.234375
vt 0.757812 0.195312
vt 0.757812 0.046875
vt 0.765625 0.046875
vt 0.765625 0.195312
vt 0.773438 0.046875
vt 0.773438 0.195312
vt 0.914062 0.046875
vt 0.914062 0.191406
vt 0.906250 0.191406
vt 0.906250 0.046875
vt 0.898438 0.191406
vt 0.898438 0.046875
vt 0.890625 0.191406
vt 0.890625 0.042969
vt 0.906250 0.042969
vt 0.906250 0.191406
vt 0.914062 0.042969
vt 0.914062 0.191406
vt 0.898438 0.046875
vt 0.898438 0.191406
vt 0.882812 0.191406
vt 0.882812 0.046875
vt 0.875000 0.191406
vt 0.875000 0.046875
vt 0.875000 0.191406
vt 0.875000 0.042969
vt 0.882812 0.042969
vt 0.882812 0.191406
vt 0.890625 0.042969
vt 0.890625 0.191406
vt 0.937500 0.046875
vt 0.937500 0.191406
vt 0.929688 0.191406
vt 0.929688 0.046875
vt 0.921875 0.191406
vt 0.921875 0.046875
vn 0.0000 -0.0000 1.0000
vn 0.0000 -0.5557 0.8314
vn -0.0000 0.0000 -1.0000
vn -0.0000 0.5471 -0.8371
vn -0.0000 0.5557 0.8314
vn 0.0000 0.0806 -0.9967
vn -0.1277 0.2293 -0.9649
vn 0.1277 0.2293 -0.9649
vn 0.0000 0.0806 0.9968
vn -0.1277 0.2293 0.9649
vn -0.9992 0.0407 0.0000
vn -0.4717 -0.6779 0.5638
vn -0.4717 -0.6779 -0.5638
vn 0.4717 -0.6779 -0.5638
vn 0.9992 0.0407 0.0000
vn 0.4717 -0.6779 0.5638
vn 0.1277 0.2293 0.9649
vn -0.0000 0.0806 -0.9968
vn -0.7071 0.0000 -0.7071
vn 0.7071 0.0000 -0.7071
vn 0.7071 0.0000 0.7071
vn -0.7071 0.0000 0.7071
vn 1.0000 0.0000 0.0000
vn -0.0000 -0.5471 -0.8371
vn -0.0000 0.0806 0.9967
usemtl Material.001
s 1
f 1/1/1 4/2/1 6/3/2 3/4/2
f 69/5/3 70/6/3 5/7/4 2/8/4
f 2/9/5 5/10/5 4/2/1 1/1/1
f 7/11/1 10/12/1 12/13/2 9/14/2
f 67/15/3 68/16/3 11/17/4 8/18/4
f 8/19/5 11/20/5 10/12/1 7/11/1
f 22/21/6 14/22/7 17/23/8
f 21/24/9 14/25/10 19/26/11
f 13/27/12 19/28/11 15/29/13
f 13/30/12 21/24/9 19/26/11
f 18/31/14 22/21/6 20/32/15
f 20/32/15 22/21/6 17/23/8
f 15/33/13 19/34/11 22/21/6
f 16/35/16 20/36/15 21/24/9
f 20/36/15 17/37/17 21/24/9
f 16/38/16 18/39/14 20/40/15
f 17/37/17 14/25/10 21/24/9
f 19/34/11 14/22/7 22/21/6
f 18/31/14 15/33/13 22/21/6
f 13/30/12 16/35/16 21/24/9
f 18/39/14 16/38/16 13/41/12 15/42/13
f 27/43/14 29/44/16 32/45/12 30/46/13
f 32/47/12 29/48/16 24/49/9
f 27/50/14 30/51/13 23/52/6
f 26/53/11 31/54/7 23/52/6
f 28/55/17 31/56/10 24/49/9
f 29/44/16 27/43/14 25/57/15
f 25/58/15 28/55/17 24/49/9
f 29/48/16 25/58/15 24/49/9
f 30/51/13 26/53/11 23/52/6
f 25/59/15 23/52/6 28/60/8
f 27/50/14 23/52/6 25/59/15
f 32/47/12 24/49/9 26/61/11
f 32/62/12 26/63/11 30/64/13
f 24/49/9 31/56/10 26/61/11
f 23/52/6 31/54/7 28/60/8
f 42/65/18 34/66/7 37/67/8
f 41/68/9 34/69/10 39/70/11
f 33/71/12 39/72/11 35/73/13
f 33/74/12 41/68/9 39/70/11
f 38/75/14 42/65/18 40/76/15
f 40/76/15 42/65/18 37/67/8
f 35/77/13 39/78/11 42/65/18
f 36/79/16 40/80/15 41/68/9
f 40/80/15 37/81/17 41/68/9
f 36/82/16 38/83/14 40/84/15
f 37/81/17 34/69/10 41/68/9
f 39/78/11 34/66/7 42/65/18
f 38/75/14 35/77/13 42/65/18
f 33/74/12 36/79/16 41/68/9
f 38/83/14 36/82/16 33/85/12 35/86/13
f 43/87/19 44/88/19 46/89/3 45/90/3
f 45/90/3 46/89/3 50/91/20 49/92/20
f 49/93/21 50/94/21 48/95/1 47/96/1
f 47/96/1 48/95/1 44/97/22 43/98/22
f 51/99/19 52/100/19 54/101/3 53/102/3
f 53/102/3 54/101/3 58/103/23 57/104/23
f 57/105/23 58/106/23 56/107/1 55/108/1
f 55/108/1 56/107/1 52/109/22 51/110/22
f 59/111/19 60/112/19 62/113/3 61/114/3
f 61/114/3 62/113/3 66/115/23 65/116/23
f 65/117/23 66/118/23 64/119/1 63/120/1
f 63/120/1 64/119/1 60/121/22 59/122/22
f 9/123/24 12/124/24 68/16/3 67/15/3
f 3/125/24 6/126/24 70/6/3 69/5/3
f 75/127/14 77/128/16 80/129/12 78/130/13
f 80/131/12 77/132/16 72/133/25
f 75/134/14 78/135/13 71/136/6
f 74/137/11 79/138/7 71/136/6
f 76/139/17 79/140/10 72/133/25
f 77/128/16 75/127/14 73/141/15
f 73/142/15 76/139/17 72/133/25
f 77/132/16 73/142/15 72/133/25
f 78/135/13 74/137/11 71/136/6
f 73/143/15 71/136/6 76/144/8
f 75/134/14 71/136/6 73/143/15
f 80/131/12 72/133/25 74/145/11
f 80/146/12 74/147/11 78/148/13
f 72/133/25 79/140/10 74/145/11
f 71/136/6 79/138/7 76/144/8
f 81/149/19 82/150/19 84/151/3 83/152/3
f 83/152/3 84/151/3 88/153/23 87/154/23
f 87/155/23 88/156/23 86/157/1 85/158/1
f 85/158/1 86/157/1 82/159/22 81/160/22
f 98/161/6 90/162/7 93/163/8
f 97/164/25 90/165/10 95/166/11
f 89/167/12 95/168/11 91/169/13
f 89/170/12 97/164/25 95/166/11
f 94/171/14 98/161/6 96/172/15
f 96/172/15 98/161/6 93/163/8
f 91/173/13 95/174/11 98/161/6
f 92/175/16 96/176/15 97/164/25
f 96/176/15 93/177/17 97/164/25
f 92/178/16 94/179/14 96/180/15
f 93/177/17 90/165/10 97/164/25
f 95/174/11 90/162/7 98/161/6
f 94/171/14 91/173/13 98/161/6
f 89/170/12 92/175/16 97/164/25
f 94/179/14 92/178/16 89/181/12 91/182/13
f 103/183/14 105/184/16 108/185/12 106/186/13
f 108/187/12 105/188/16 100/189/25
f 103/190/14 106/191/13 99/192/6
f 102/193/11 107/194/7 99/192/6
f 104/195/17 107/196/10 100/189/25
f 105/184/16 103/183/14 101/197/15
f 101/198/15 104/195/17 100/189/25
f 105/188/16 101/198/15 100/189/25
f 106/191/13 102/193/11 99/192/6
f 101/199/15 99/192/6 104/200/8
f 103/190/14 99/192/6 101/199/15
f 108/187/12 100/189/25 102/201/11
f 108/202/12 102/203/11 106/204/13
f 100/189/25 107/196/10 102/201/11
f 99/192/6 107/194/7 104/200/8
f 118/205/6 110/206/7 113/207/8
f 117/208/9 110/209/10 115/210/11
f 109/211/12 115/212/11 111/213/13
f 109/214/12 117/208/9 115/210/11
f 114/215/14 118/205/6 116/216/15
f 116/216/15 118/205/6 113/207/8
f 111/217/13 115/218/11 118/205/6
f 112/219/16 116/220/15 117/208/9
f 116/220/15 113/221/17 117/208/9
f 112/222/16 114/223/14 116/224/15
f 113/221/17 110/209/10 117/208/9
f 115/218/11 110/206/7 118/205/6
f 114/215/14 111/217/13 118/205/6
f 109/214/12 112/219/16 117/208/9
f 114/223/14 112/222/16 109/225/12 111/226/13
f 119/227/19 120/228/19 122/229/3 121/230/3
f 121/230/3 122/229/3 126/231/23 125/232/23
f 125/233/23 126/234/23 124/235/1 123/236/1
f 123/236/1 124/235/1 120/237/22 119/238/22
f 127/239/19 128/240/19 130/241/3 129/242/3
f 129/242/3 130/241/3 134/243/23 133/244/23
f 133/245/23 134/246/23 132/247/1 131/248/1
f 131/248/1 132/247/1 128/249/22 127/250/22
f 135/251/19 136/252/19 138/253/3 137/254/3
f 137/254/3 138/253/3 142/255/23 141/256/23
f 141/257/23 142/258/23 140/259/1 139/260/1
f 139/260/1 140/259/1 136/261/22 135/262/22
