# Blender v2.93.5 OBJ File: 'Modular Graveyard.blend'
# www.blender.org
mtllib RustyCircularLowRailing.mtl
o RustyCircularLowRailing_Circle.046
v -0.629854 0.182211 -0.181015
v -0.619227 0.210148 -0.194977
v -0.619227 0.154274 -0.194977
v -1.018740 0.182211 -0.851734
v -0.999605 0.210148 -0.851916
v -0.999605 0.154274 -0.851916
v -0.629848 0.859053 -0.180998
v -0.619230 0.886990 -0.194985
v -0.619230 0.831116 -0.194985
v -1.018735 0.859053 -0.851720
v -0.999601 0.886990 -0.851903
v -0.999601 0.831116 -0.851903
v -1.007629 0.994248 -0.757418
v -0.973026 1.300285 -0.746910
v -0.947958 0.994248 -0.772975
v -0.991355 0.994248 -0.694997
v -0.966287 1.300285 -0.721062
v -0.931684 0.994248 -0.710554
v -0.988288 1.077323 -0.805450
v -0.951025 1.077323 -0.662522
v -1.020071 1.088476 -0.720842
v -0.919242 1.088476 -0.747130
v -0.674987 1.088476 -0.322393
v -0.748776 1.088476 -0.248820
v -0.659736 1.077323 -0.233308
v -0.764027 1.077323 -0.337905
v -0.667274 0.994248 -0.284536
v -0.702451 1.300285 -0.276149
v -0.710942 0.994248 -0.240996
v -0.712821 0.994248 -0.330217
v -0.721312 1.300285 -0.295065
v -0.756489 0.994248 -0.286677
v -0.914248 0.994248 -0.505815
v -0.878094 1.300285 -0.504982
v -0.860945 0.994248 -0.536821
v -0.881813 0.994248 -0.450054
v -0.864663 1.300285 -0.481893
v -0.828510 0.994248 -0.481061
v -0.908513 1.077323 -0.557276
v -0.834245 1.077323 -0.429600
v -0.916414 1.088476 -0.467241
v -0.826344 1.088476 -0.519634
v -0.977252 -0.002187 -0.763543
v -0.977252 1.001030 -0.763543
v -0.940174 -0.002187 -0.741800
v -0.940174 1.001030 -0.741800
v -0.998995 -0.002187 -0.726464
v -0.998995 1.001030 -0.726464
v -0.961916 -0.002187 -0.704722
v -0.961916 1.001030 -0.704722
v -0.886534 -0.002187 -0.519703
v -0.886534 1.001030 -0.519703
v -0.844979 -0.002187 -0.508714
v -0.844979 1.001030 -0.508714
v -0.897524 -0.002187 -0.478149
v -0.897524 1.001030 -0.478149
v -0.855969 -0.002187 -0.467159
v -0.855969 1.001030 -0.467159
v -0.733295 -0.002187 -0.307234
v -0.733295 1.001030 -0.307234
v -0.690312 -0.002187 -0.307171
v -0.690312 1.001030 -0.307171
v -0.733358 -0.002187 -0.264251
v -0.733358 1.001030 -0.264251
v -0.690375 -0.002187 -0.264188
v -0.690375 1.001030 -0.264188
v -0.608843 0.859053 -0.208771
v -0.980606 0.859053 -0.851366
v -0.608870 0.182211 -0.208850
v -0.980618 0.182211 -0.851403
v -0.805482 0.831116 -0.380011
v -0.820994 0.859053 -0.367520
v -0.805482 0.886990 -0.380011
v -0.790122 0.859053 -0.391653
v -0.805471 0.154274 -0.379978
v -0.821018 0.182211 -0.367594
v -0.805471 0.210148 -0.379978
v -0.790215 0.182211 -0.391930
v -0.937036 0.831116 -0.606172
v -0.937036 0.886990 -0.606172
v -0.953864 0.859053 -0.598961
v -0.919286 0.859053 -0.612698
v -0.937085 0.154274 -0.606331
v -0.937085 0.210148 -0.606331
v -0.953935 0.182211 -0.599182
v -0.919396 0.182211 -0.613037
v -0.391777 0.831116 -0.065141
v -0.398956 0.859053 -0.046565
v -0.391777 0.886990 -0.065141
v -0.384305 0.859053 -0.082907
v -0.391751 0.154274 -0.065118
v -0.399014 0.182211 -0.046616
v -0.391751 0.210148 -0.065118
v -0.384524 0.182211 -0.083101
v -0.147380 0.831116 -0.000884
v -0.147256 0.859053 0.019516
v -0.147380 0.886990 -0.000884
v -0.146916 0.859053 -0.020545
v -0.147349 0.154274 -0.000868
v -0.147326 0.182211 0.019481
v -0.147349 0.210148 -0.000868
v -0.147176 0.182211 -0.020679
v -0.478782 1.088476 -0.175473
v -0.530236 1.088476 -0.084863
v -0.440288 1.077323 -0.093699
v -0.568729 1.077323 -0.166637
v -0.461236 0.994248 -0.141052
v -0.492895 1.300285 -0.123573
v -0.491687 0.994248 -0.087430
v -0.517331 0.994248 -0.172907
v -0.516123 1.300285 -0.136763
v -0.547781 0.994248 -0.119284
v -0.530921 -0.002187 -0.145290
v -0.530921 1.001030 -0.145290
v -0.489483 -0.002187 -0.156711
v -0.489483 1.001030 -0.156711
v -0.519500 -0.002187 -0.103851
v -0.519500 1.001030 -0.103851
v -0.478062 -0.002187 -0.115272
v -0.478062 1.001030 -0.115272
v -0.255607 1.088476 -0.083554
v -0.281803 1.088476 0.017299
v -0.197224 1.077323 -0.014561
v -0.340186 1.077323 -0.051695
v -0.229735 0.994248 -0.054861
v -0.255778 1.300285 -0.029770
v -0.245238 0.994248 0.004824
v -0.292172 0.994248 -0.071079
v -0.281632 1.300285 -0.036485
v -0.307674 0.994248 -0.011394
v -0.298135 -0.002187 -0.040882
v -0.298135 1.001030 -0.040882
v -0.261076 -0.002187 -0.062659
v -0.261076 1.001030 -0.062659
v -0.276358 -0.002187 -0.003824
v -0.276358 1.001030 -0.003824
v -0.239300 -0.002187 -0.025600
v -0.239300 1.001030 -0.025600
v -0.015211 0.831116 -0.000937
v -0.015482 0.859053 0.019380
v -0.015211 0.886990 -0.000937
v -0.015068 0.859053 -0.020652
v -0.015178 0.154274 -0.000930
v -0.015557 0.182211 0.019361
v -0.015178 0.210148 -0.000930
v -0.015351 0.182211 -0.020717
v -0.980638 0.182211 -0.981597
v -0.999639 0.210148 -0.981850
v -1.018806 0.182211 -0.982094
v -0.999639 0.154274 -0.981850
v -0.980663 0.859053 -0.981573
v -0.999630 0.886990 -0.981835
v -1.018811 0.859053 -0.982084
v -0.999630 0.831116 -0.981835
vt 0.812500 0.117188
vt 0.820312 0.128906
vt 0.796875 0.128906
vt 0.796875 0.117188
vt 0.851562 0.117188
vt 0.851562 0.128906
vt 0.843750 0.128906
vt 0.843750 0.117188
vt 0.835938 0.117188
vt 0.835938 0.128906
vt 0.773438 0.117188
vt 0.773438 0.128906
vt 0.757812 0.128906
vt 0.750000 0.117188
vt 0.890625 0.117188
vt 0.890625 0.128906
vt 0.875000 0.128906
vt 0.875000 0.117188
vt 0.781250 0.117188
vt 0.789062 0.128906
vt 0.835938 0.218750
vt 0.835938 0.191406
vt 0.835938 0.191406
vt 0.843750 0.265625
vt 0.851562 0.234375
vt 0.851562 0.265625
vt 0.843750 0.273438
vt 0.851562 0.273438
vt 0.875000 0.273438
vt 0.867188 0.265625
vt 0.890625 0.265625
vt 0.890625 0.234375
vt 0.820312 0.234375
vt 0.804688 0.218750
vt 0.765625 0.234375
vt 0.750000 0.218750
vt 0.781250 0.218750
vt 0.773438 0.191406
vt 0.890625 0.273438
vt 0.781250 0.191406
vt 0.835938 0.234375
vt 0.781250 0.234375
vt 0.859375 0.253906
vt 0.882812 0.250000
vt 0.882812 0.261719
vt 0.859375 0.261719
vt 0.875000 0.246094
vt 0.882812 0.242188
vt 0.882812 0.246094
vt 0.875000 0.253906
vt 0.843750 0.187500
vt 0.867188 0.187500
vt 0.851562 0.203125
vt 0.820312 0.144531
vt 0.835938 0.144531
vt 0.835938 0.156250
vt 0.914062 0.203125
vt 0.914062 0.234375
vt 0.890625 0.203125
vt 0.867188 0.230469
vt 0.851562 0.230469
vt 0.882812 0.195312
vt 0.890625 0.191406
vt 0.890625 0.203125
vt 0.890625 0.234375
vt 0.867188 0.203125
vt 0.898438 0.195312
vt 0.804688 0.152344
vt 0.835938 0.187500
vt 0.843750 0.199219
vt 0.914062 0.191406
vt 0.835938 0.187500
vt 0.851562 0.152344
vt 0.875000 0.183594
vt 0.867188 0.183594
vt 0.773438 0.156250
vt 0.781250 0.187500
vt 0.750000 0.156250
vt 0.804688 0.250000
vt 0.828125 0.238281
vt 0.828125 0.250000
vt 0.757812 0.144531
vt 0.843750 0.140625
vt 0.843750 0.152344
vt 0.851562 0.140625
vt 0.875000 0.148438
vt 0.773438 0.144531
vt 0.796875 0.152344
vt 0.796875 0.187500
vt 0.859375 0.250000
vt 0.843750 0.250000
vt 0.851562 0.238281
vt 0.789062 0.246094
vt 0.812500 0.242188
vt 0.812500 0.246094
vt 0.789062 0.253906
vt 0.835938 0.046875
vt 0.835938 0.191406
vt 0.828125 0.191406
vt 0.828125 0.046875
vt 0.898438 0.191406
vt 0.898438 0.046875
vt 0.906250 0.046875
vt 0.906250 0.187500
vt 0.812500 0.046875
vt 0.812500 0.191406
vt 0.804688 0.191406
vt 0.804688 0.046875
vt 0.906250 0.191406
vt 0.906250 0.046875
vt 0.914062 0.046875
vt 0.914062 0.187500
vt 0.882812 0.187500
vt 0.882812 0.046875
vt 0.890625 0.046875
vt 0.890625 0.191406
vt 0.875000 0.265625
vt 0.875000 0.125000
vt 0.890625 0.125000
vt 0.890625 0.265625
vt 0.882812 0.046875
vt 0.882812 0.191406
vt 0.867188 0.187500
vt 0.867188 0.046875
vt 0.921875 0.191406
vt 0.921875 0.046875
vt 0.937500 0.046875
vt 0.937500 0.191406
vt 0.789062 0.046875
vt 0.789062 0.191406
vt 0.773438 0.187500
vt 0.773438 0.046875
vt 0.851562 0.191406
vt 0.851562 0.046875
vt 0.859375 0.046875
vt 0.859375 0.191406
vt 0.796875 0.046875
vt 0.796875 0.191406
vt 0.789062 0.187500
vt 0.789062 0.046875
vt 0.843750 0.191406
vt 0.843750 0.046875
vt 0.851562 0.046875
vt 0.851562 0.191406
vt 0.906250 0.117188
vt 0.914062 0.128906
vt 0.867188 0.117188
vt 0.867188 0.128906
vt 0.914062 0.078125
vt 0.906250 0.093750
vt 0.890625 0.093750
vt 0.890625 0.078125
vt 0.781250 0.078125
vt 0.781250 0.097656
vt 0.773438 0.097656
vt 0.773438 0.078125
vt 0.875000 0.093750
vt 0.875000 0.078125
vt 0.750000 0.097656
vt 0.750000 0.078125
vt 0.867188 0.078125
vt 0.867188 0.093750
vt 0.851562 0.093750
vt 0.851562 0.078125
vt 0.835938 0.078125
vt 0.835938 0.097656
vt 0.812500 0.097656
vt 0.812500 0.078125
vt 0.843750 0.093750
vt 0.843750 0.078125
vt 0.796875 0.097656
vt 0.796875 0.078125
vt 0.914062 0.058594
vt 0.890625 0.058594
vt 0.781250 0.058594
vt 0.773438 0.058594
vt 0.882812 0.058594
vt 0.757812 0.058594
vt 0.867188 0.058594
vt 0.851562 0.058594
vt 0.835938 0.058594
vt 0.812500 0.058594
vt 0.843750 0.058594
vt 0.796875 0.058594
vt 0.867188 0.246094
vt 0.859375 0.265625
vt 0.835938 0.265625
vt 0.843750 0.246094
vt 0.789062 0.046875
vt 0.773438 0.046875
vt 0.898438 0.046875
vt 0.890625 0.046875
vt 0.820312 0.250000
vt 0.820312 0.234375
vt 0.835938 0.234375
vt 0.835938 0.250000
vt 0.890625 0.257812
vt 0.898438 0.242188
vt 0.914062 0.242188
vt 0.906250 0.257812
vt 0.835938 0.046875
vt 0.820312 0.046875
vt 0.851562 0.046875
vt 0.843750 0.046875
vt 0.773438 0.250000
vt 0.773438 0.234375
vt 0.781250 0.234375
vt 0.781250 0.250000
vt 0.796875 0.238281
vt 0.796875 0.250000
vt 0.781250 0.242188
vt 0.781250 0.238281
vt 0.835938 0.195312
vt 0.859375 0.195312
vt 0.851562 0.207031
vt 0.882812 0.187500
vt 0.898438 0.187500
vt 0.890625 0.203125
vt 0.859375 0.203125
vt 0.859375 0.234375
vt 0.843750 0.203125
vt 0.859375 0.238281
vt 0.851562 0.238281
vt 0.812500 0.195312
vt 0.828125 0.191406
vt 0.835938 0.203125
vt 0.835938 0.234375
vt 0.804688 0.203125
vt 0.851562 0.195312
vt 0.867188 0.199219
vt 0.890625 0.230469
vt 0.828125 0.207031
vt 0.859375 0.191406
vt 0.898438 0.230469
vt 0.835938 0.050781
vt 0.835938 0.191406
vt 0.828125 0.191406
vt 0.828125 0.050781
vt 0.906250 0.195312
vt 0.906250 0.050781
vt 0.921875 0.050781
vt 0.921875 0.195312
vt 0.859375 0.050781
vt 0.859375 0.191406
vt 0.851562 0.191406
vt 0.851562 0.050781
vt 0.890625 0.195312
vt 0.890625 0.050781
vt 0.906250 0.050781
vt 0.906250 0.195312
vt 0.859375 0.242188
vt 0.859375 0.238281
vt 0.882812 0.238281
vt 0.882812 0.246094
vt 0.882812 0.238281
vt 0.882812 0.222656
vt 0.796875 0.234375
vt 0.789062 0.234375
vt 0.796875 0.218750
vt 0.773438 0.218750
vt 0.796875 0.191406
vt 0.882812 0.195312
vt 0.882812 0.195312
vt 0.812500 0.238281
vt 0.796875 0.238281
vt 0.820312 0.226562
vt 0.875000 0.222656
vt 0.789062 0.222656
vt 0.820312 0.195312
vt 0.898438 0.238281
vt 0.890625 0.222656
vt 0.921875 0.226562
vt 0.906250 0.238281
vt 0.921875 0.195312
vt 0.796875 0.191406
vt 0.867188 0.195312
vt 0.867188 0.050781
vt 0.882812 0.050781
vt 0.882812 0.191406
vt 0.812500 0.195312
vt 0.812500 0.050781
vt 0.828125 0.050781
vt 0.828125 0.195312
vt 0.875000 0.195312
vt 0.875000 0.050781
vt 0.882812 0.050781
vt 0.882812 0.191406
vt 0.789062 0.195312
vt 0.789062 0.050781
vt 0.812500 0.050781
vt 0.812500 0.195312
vt 0.773438 0.257812
vt 0.781250 0.257812
vt 0.804688 0.261719
vt 0.804688 0.250000
vt 0.820312 0.257812
vt 0.906250 0.265625
vt 0.929688 0.253906
vt 0.929688 0.265625
vt 0.890625 0.265625
vt 0.835938 0.257812
vt 0.843750 0.242188
vt 0.828125 0.250000
vt 0.828125 0.242188
vt 0.867188 0.242188
vt 0.750000 0.261719
vt 0.750000 0.250000
vt 0.820312 0.140625
vt 0.804688 0.140625
vt 0.789062 0.140625
vt 0.773438 0.140625
vt 0.851562 0.136719
vt 0.843750 0.136719
vt 0.867188 0.136719
vt 0.765625 0.140625
vt 0.890625 0.136719
vt 0.882812 0.136719
vt 0.914062 0.136719
vt 0.835938 0.140625
vn -0.9260 -0.0000 0.3775
vn -0.9927 -0.0000 0.1204
vn -0.8215 -0.5598 0.1083
vn -0.7687 -0.5583 0.3122
vn 0.9250 -0.0000 -0.3801
vn 0.9913 -0.0000 -0.1319
vn 0.8221 0.5608 -0.0980
vn 0.7668 0.5606 -0.3127
vn -0.7687 0.5583 0.3122
vn -0.8215 0.5598 0.1083
vn -0.9259 -0.0000 0.3778
vn -0.8215 -0.5598 0.1084
vn -0.7686 -0.5584 0.3121
vn 0.9247 0.0000 -0.3806
vn 0.9912 -0.0000 -0.1320
vn 0.8222 0.5608 -0.0980
vn 0.7672 0.5601 -0.3125
vn -0.7686 0.5584 0.3121
vn -0.8215 0.5598 0.1084
vn 0.9645 0.0806 -0.2515
vn 0.9015 0.2293 -0.3670
vn 0.9659 0.2293 -0.1199
vn -0.9645 0.0806 0.2515
vn -0.9659 0.2293 0.1199
vn -0.2521 0.0407 -0.9669
vn -0.6646 -0.6779 -0.3142
vn 0.4266 -0.6779 -0.5987
vn 0.6646 -0.6779 0.3142
vn 0.2521 0.0407 0.9669
vn -0.4266 -0.6779 0.5987
vn -0.9015 0.2293 0.3670
vn 0.7323 -0.6779 -0.0641
vn -0.0663 -0.6779 0.7321
vn -0.7323 -0.6779 0.0641
vn 0.0663 -0.6779 -0.7321
vn -0.7058 0.0806 0.7038
vn 0.7058 0.0806 -0.7038
vn -0.7055 0.0407 -0.7076
vn 0.5932 0.2293 -0.7717
vn -0.5932 0.2293 0.7717
vn -0.7735 0.2293 0.5909
vn 0.7055 0.0407 0.7076
vn 0.7735 0.2293 -0.5909
vn 0.8616 0.0806 -0.5012
vn 0.7699 0.2293 -0.5955
vn 0.8983 0.2293 -0.3748
vn -0.8616 0.0806 0.5012
vn -0.8983 0.2293 0.3748
vn -0.5024 0.0407 -0.8637
vn -0.7245 -0.6779 -0.1242
vn 0.2502 -0.6779 -0.6912
vn 0.7245 -0.6779 0.1242
vn 0.5024 0.0407 0.8637
vn -0.2502 -0.6779 0.6912
vn -0.7699 0.2293 0.5955
vn -0.2523 0.0000 -0.9677
vn 0.5058 0.0000 -0.8626
vn 0.8626 0.0000 0.5058
vn -0.5058 0.0000 0.8626
vn -0.8626 0.0000 -0.5058
vn 0.2557 0.0000 -0.9668
vn 0.9668 0.0000 0.2557
vn 0.5028 0.0000 0.8644
vn -0.2557 0.0000 0.9668
vn -0.9668 0.0000 -0.2557
vn 0.0015 0.0000 -1.0000
vn 1.0000 0.0000 0.0015
vn 0.7061 0.0000 0.7081
vn -0.0015 0.0000 1.0000
vn -1.0000 0.0000 -0.0015
vn 0.7672 -0.5601 -0.3125
vn 0.8222 -0.5608 -0.0980
vn 0.7668 -0.5606 -0.3127
vn 0.8221 -0.5608 -0.0980
vn 0.5066 -0.5475 -0.6661
vn 0.6588 -0.5550 -0.5079
vn 0.7915 -0.0000 -0.6111
vn 0.6057 0.0000 -0.7957
vn -0.5029 0.5568 0.6611
vn -0.6549 0.5611 0.5062
vn -0.7900 -0.0000 0.6131
vn -0.6054 -0.0000 0.7960
vn 0.6588 0.5550 -0.5079
vn 0.5066 0.5475 -0.6661
vn -0.6549 -0.5611 0.5062
vn -0.5029 -0.5568 0.6611
vn 0.5058 -0.5492 -0.6653
vn 0.6577 -0.5564 -0.5077
vn 0.7921 -0.0000 -0.6104
vn 0.6059 -0.0000 -0.7956
vn -0.5031 0.5563 0.6614
vn -0.6551 0.5606 0.5065
vn -0.7902 -0.0000 0.6128
vn -0.6054 -0.0000 0.7959
vn 0.6577 0.5564 -0.5077
vn 0.5058 0.5492 -0.6653
vn -0.6551 -0.5606 0.5065
vn -0.5031 -0.5563 0.6614
vn 0.3136 -0.5576 -0.7685
vn 0.3768 0.0000 -0.9263
vn -0.3144 0.5686 0.7602
vn -0.3803 -0.0000 0.9249
vn 0.3136 0.5576 -0.7685
vn -0.3144 -0.5686 0.7602
vn 0.3127 -0.5595 -0.7676
vn 0.3776 -0.0000 -0.9260
vn -0.3144 0.5680 0.7606
vn -0.3805 -0.0000 0.9248
vn 0.3127 0.5595 -0.7676
vn -0.3144 -0.5680 0.7606
vn 0.1010 -0.5737 -0.8128
vn 0.1331 0.0000 -0.9911
vn -0.1090 0.5860 0.8030
vn -0.1217 0.0000 0.9926
vn 0.1010 0.5737 -0.8128
vn -0.1090 -0.5860 0.8030
vn 0.1004 -0.5759 -0.8113
vn 0.1340 0.0000 -0.9910
vn -0.1089 0.5853 0.8035
vn -0.1220 -0.0000 0.9925
vn 0.1004 0.5759 -0.8113
vn -0.1089 -0.5853 0.8035
vn 0.6886 -0.6779 -0.2574
vn 0.1317 -0.6779 0.7232
vn -0.6886 -0.6779 0.2574
vn -0.1317 -0.6779 -0.7232
vn -0.4922 0.0806 0.8667
vn 0.4922 0.0806 -0.8667
vn -0.8689 0.0407 -0.4934
vn 0.3655 0.2293 -0.9021
vn -0.3655 0.2293 0.9021
vn -0.5875 0.2293 0.7760
vn 0.8689 0.0407 0.4934
vn 0.5875 0.2293 -0.7760
vn -0.2657 0.0000 -0.9641
vn 0.4938 0.0000 -0.8696
vn 0.8696 0.0000 0.4938
vn -0.4938 0.0000 0.8696
vn -0.9641 0.0000 0.2657
vn 0.5983 -0.6779 -0.4272
vn 0.3148 -0.6779 0.6643
vn -0.5983 -0.6779 0.4272
vn -0.3148 -0.6779 -0.6643
vn -0.2506 0.0806 0.9647
vn 0.2506 0.0806 -0.9647
vn -0.9671 0.0407 -0.2512
vn 0.1190 0.2293 -0.9660
vn -0.1190 0.2293 0.9660
vn -0.3662 0.2293 0.9019
vn 0.9671 0.0407 0.2512
vn 0.3662 0.2293 -0.9019
vn -0.5066 0.0000 -0.8622
vn 0.2514 0.0000 -0.9679
vn 0.9679 0.0000 0.2514
vn 0.5066 0.0000 0.8622
vn -0.8622 0.0000 0.5066
vn 0.0007 -0.0000 1.0000
vn 0.0006 -0.5882 0.8087
vn 0.0006 0.5889 0.8082
vn -0.0004 0.0000 -1.0000
vn -0.0003 0.5782 -0.8159
vn -0.0003 -0.5782 -0.8159
vn 0.0006 -0.5889 0.8082
vn -0.0006 0.0000 -1.0000
vn -0.0005 0.5761 -0.8174
vn -0.0005 -0.5760 -0.8174
vn 0.0006 0.5882 0.8087
vn -1.0000 0.0000 0.0004
vn -0.8248 -0.5654 0.0003
vn -0.8247 0.5655 0.0003
vn 1.0000 0.0000 -0.0002
vn 0.8270 0.5622 -0.0002
vn 0.8270 -0.5622 -0.0002
vn -0.8247 -0.5655 0.0003
vn 1.0000 -0.0000 -0.0003
vn 0.8271 0.5620 -0.0003
vn 0.8271 -0.5620 -0.0003
vn -0.8248 0.5654 0.0003
usemtl Material.001
s 1
f 85/1/1 4/2/2 6/3/3 83/4/4
f 86/5/5 70/6/6 5/7/7 84/8/8
f 84/9/9 5/10/10 4/2/2 85/1/1
f 81/11/11 10/12/2 12/13/12 79/14/13
f 82/15/14 68/16/15 11/17/16 80/18/17
f 80/19/18 11/20/19 10/12/2 81/11/11
f 22/21/20 14/22/21 17/23/22
f 21/24/23 14/25/24 19/26/25
f 13/27/26 19/26/25 15/28/27
f 13/27/26 21/24/23 19/26/25
f 18/29/28 22/30/20 20/31/29
f 20/31/29 22/30/20 17/32/22
f 15/33/27 19/34/25 22/21/20
f 16/35/30 20/36/29 21/37/23
f 20/36/29 17/38/31 21/37/23
f 16/39/30 18/29/28 20/31/29
f 17/38/31 14/40/24 21/37/23
f 19/34/25 14/22/21 22/21/20
f 18/41/28 15/33/27 22/21/20
f 13/42/26 16/35/30 21/37/23
f 18/43/28 16/44/30 13/45/26 15/46/27
f 27/47/32 29/48/33 32/49/34 30/50/35
f 32/51/34 29/52/33 24/53/36
f 27/54/32 30/55/35 23/56/37
f 26/57/38 31/58/39 23/59/37
f 28/60/40 31/61/41 24/53/36
f 29/62/33 27/63/32 25/64/42
f 25/64/42 28/65/40 24/66/36
f 29/62/33 25/64/42 24/66/36
f 30/67/35 26/57/38 23/59/37
f 25/68/42 23/56/37 28/69/43
f 27/54/32 23/56/37 25/68/42
f 32/51/34 24/53/36 26/70/38
f 32/71/34 26/57/38 30/67/35
f 24/53/36 31/61/41 26/70/38
f 23/56/37 31/72/39 28/69/43
f 42/73/44 34/74/45 37/75/46
f 41/76/47 34/77/48 39/78/49
f 33/79/50 39/80/49 35/81/51
f 33/82/50 41/76/47 39/78/49
f 38/83/52 42/73/44 40/84/53
f 40/84/53 42/73/44 37/75/46
f 35/85/51 39/86/49 42/73/44
f 36/87/54 40/88/53 41/76/47
f 40/88/53 37/89/55 41/76/47
f 36/90/54 38/91/52 40/92/53
f 37/89/55 34/77/48 41/76/47
f 39/86/49 34/74/45 42/73/44
f 38/83/52 35/85/51 42/73/44
f 33/82/50 36/87/54 41/76/47
f 38/93/52 36/94/54 33/95/50 35/96/51
f 43/97/56 44/98/56 46/99/57 45/100/57
f 45/101/58 46/102/58 50/103/58 49/104/58
f 49/105/59 50/106/59 48/107/59 47/108/59
f 47/109/60 48/110/60 44/111/56 43/112/56
f 51/113/61 52/114/61 54/115/61 53/116/61
f 53/117/62 54/118/62 58/119/63 57/120/63
f 57/121/63 58/122/63 56/123/64 55/124/64
f 55/125/65 56/126/65 52/127/65 51/128/65
f 59/129/66 60/130/66 62/131/66 61/132/66
f 61/133/67 62/134/67 66/135/68 65/136/68
f 65/137/68 66/138/68 64/139/69 63/140/69
f 63/141/70 64/142/70 60/143/70 59/144/70
f 79/145/71 12/146/72 68/16/15 82/15/14
f 83/147/73 6/148/74 70/6/6 86/5/5
f 9/149/75 71/150/76 74/151/77 67/152/78
f 8/153/79 73/154/80 72/155/81 7/156/82
f 67/152/78 74/151/77 73/157/83 8/158/84
f 7/156/82 72/155/81 71/159/85 9/160/86
f 3/161/87 75/162/88 78/163/89 69/164/90
f 2/165/91 77/166/92 76/167/93 1/168/94
f 69/164/90 78/163/89 77/169/95 2/170/96
f 1/168/94 76/167/93 75/171/97 3/172/98
f 71/150/76 79/145/71 82/15/14 74/151/77
f 73/154/80 80/19/18 81/11/11 72/155/81
f 74/151/77 82/15/14 80/18/17 73/157/83
f 72/155/81 81/11/11 79/14/13 71/159/85
f 75/162/88 83/147/73 86/5/5 78/163/89
f 77/166/92 84/9/9 85/1/1 76/167/93
f 78/163/89 86/5/5 84/8/8 77/169/95
f 76/167/93 85/1/1 83/4/4 75/171/97
f 87/173/99 9/149/75 67/152/78 90/174/100
f 89/175/101 8/153/79 7/156/82 88/176/102
f 90/174/100 67/152/78 8/158/84 89/177/103
f 88/176/102 7/156/82 9/160/86 87/178/104
f 91/179/105 3/161/87 69/164/90 94/180/106
f 93/181/107 2/165/91 1/168/94 92/182/108
f 94/180/106 69/164/90 2/170/96 93/183/109
f 92/182/108 1/168/94 3/172/98 91/184/110
f 95/185/111 87/186/99 90/187/100 98/188/112
f 97/189/113 89/175/101 88/176/102 96/190/114
f 98/191/112 90/174/100 89/177/103 97/192/115
f 96/193/114 88/194/102 87/195/104 95/196/116
f 99/197/117 91/198/105 94/199/106 102/200/118
f 101/201/119 93/181/107 92/182/108 100/202/120
f 102/203/118 94/180/106 93/183/109 101/204/121
f 100/205/120 92/206/108 91/207/110 99/208/122
f 107/209/123 109/210/124 112/211/125 110/212/126
f 112/213/125 109/214/124 104/215/127
f 107/216/123 110/217/126 103/218/128
f 106/219/129 111/220/130 103/221/128
f 108/222/131 111/223/132 104/215/127
f 109/224/124 107/225/123 105/226/133
f 105/226/133 108/227/131 104/228/127
f 109/224/124 105/226/133 104/228/127
f 110/229/126 106/219/129 103/221/128
f 105/230/133 103/218/128 108/231/134
f 107/216/123 103/218/128 105/230/133
f 112/213/125 104/215/127 106/232/129
f 112/233/125 106/219/129 110/229/126
f 104/215/127 111/223/132 106/232/129
f 103/218/128 111/234/130 108/231/134
f 113/235/135 114/236/135 116/237/136 115/238/136
f 115/239/136 116/240/136 120/241/137 119/242/137
f 119/243/137 120/244/137 118/245/138 117/246/138
f 117/247/138 118/248/138 114/249/139 113/250/139
f 125/251/140 127/252/141 130/253/142 128/254/143
f 130/253/142 127/255/141 122/256/144
f 125/257/140 128/258/143 121/259/145
f 124/260/146 129/261/147 121/259/145
f 126/262/148 129/263/149 122/256/144
f 127/264/141 125/265/140 123/266/150
f 123/267/150 126/262/148 122/256/144
f 127/255/141 123/267/150 122/256/144
f 128/258/143 124/260/146 121/259/145
f 123/266/150 121/268/145 126/269/151
f 125/265/140 121/268/145 123/266/150
f 130/270/142 122/271/144 124/272/146
f 130/270/142 124/272/146 128/273/143
f 122/271/144 129/274/149 124/272/146
f 121/259/145 129/261/147 126/275/151
f 131/276/152 132/277/152 134/278/153 133/279/153
f 133/280/153 134/281/153 138/282/154 137/283/154
f 137/284/154 138/285/154 136/286/155 135/287/155
f 135/288/156 136/289/156 132/290/156 131/291/156
f 144/292/157 100/205/120 99/208/122 143/293/158
f 141/294/159 97/295/113 96/193/114 140/296/157
f 146/297/160 102/200/118 101/298/121 145/299/161
f 143/300/162 99/197/117 102/200/118 146/297/160
f 140/296/157 96/193/114 95/196/116 139/301/163
f 142/302/164 98/188/112 97/303/115 141/304/165
f 139/305/166 95/185/111 98/188/112 142/302/164
f 145/306/167 101/307/119 100/205/120 144/292/157
f 4/2/2 149/308/168 150/309/169 6/3/3
f 11/20/19 152/310/170 153/311/168 10/12/2
f 70/6/6 147/312/171 148/313/172 5/7/7
f 6/148/74 150/314/173 147/312/171 70/6/6
f 10/12/2 153/311/168 154/315/174 12/13/12
f 68/16/15 151/316/175 152/317/176 11/17/16
f 12/146/72 154/318/177 151/316/175 68/16/15
f 5/10/10 148/319/178 149/308/168 4/2/2
