# Blender v2.93.5 OBJ File: 'Modular Graveyard.blend'
# www.blender.org
mtllib RustyLowRailingOpen1.mtl
o RustyLowRailingOpen1_Circle.056
v 1.000203 0.182211 0.018813
v 1.000203 0.210148 0.000142
v 1.000203 0.154274 0.000142
v 0.001897 0.182211 0.018813
v 0.001897 0.210148 0.000142
v 0.001897 0.154274 0.000142
v 1.000203 0.859053 0.018813
v 1.000203 0.886990 0.000142
v 1.000203 0.831116 0.000142
v 0.001897 0.859053 0.018813
v 0.001897 0.886990 0.000142
v 0.001897 0.831116 0.000142
v 0.219479 0.994248 0.030940
v 0.238377 1.300285 0.000107
v 0.219479 0.994248 -0.030726
v 0.283987 0.994248 0.030940
v 0.265089 1.300285 0.000107
v 0.283987 0.994248 -0.030726
v 0.177880 1.077323 0.000107
v 0.325586 1.077323 0.000107
v 0.251733 1.088476 0.052207
v 0.251733 1.088476 -0.051993
v 0.750520 1.088476 -0.051993
v 0.750520 1.088476 0.052207
v 0.824373 1.077323 0.000107
v 0.676667 1.077323 0.000107
v 0.782774 0.994248 -0.030726
v 0.763876 1.300285 0.000107
v 0.782774 0.994248 0.030940
v 0.718266 0.994248 -0.030726
v 0.737164 1.300285 0.000107
v 0.718266 0.994248 0.030940
v 0.467667 0.994248 0.030940
v 0.486565 1.300285 0.000107
v 0.467667 0.994248 -0.030726
v 0.532174 0.994248 0.030940
v 0.513276 1.300285 0.000107
v 0.532174 0.994248 -0.030726
v 0.426068 1.077323 0.000107
v 0.573773 1.077323 0.000107
v 0.499920 1.088476 0.052207
v 0.499920 1.088476 -0.051993
v 0.221216 -0.002187 0.000000
v 0.221216 1.001030 0.000000
v 0.251610 -0.002187 -0.030394
v 0.251610 1.001030 -0.030394
v 0.251610 -0.002187 0.030394
v 0.251610 1.001030 0.030394
v 0.282003 -0.002187 0.000000
v 0.282003 1.001030 0.000000
v 0.469596 -0.002187 0.000000
v 0.469596 1.001030 0.000000
v 0.499990 -0.002187 -0.030394
v 0.499990 1.001030 -0.030394
v 0.499990 -0.002187 0.030394
v 0.499990 1.001030 0.030394
v 0.530384 -0.002187 0.000000
v 0.530384 1.001030 0.000000
v 0.720086 -0.002187 0.000000
v 0.720086 1.001030 0.000000
v 0.750480 -0.002187 -0.030394
v 0.750480 1.001030 -0.030394
v 0.750480 -0.002187 0.030394
v 0.750480 1.001030 0.030394
v 0.780873 -0.002187 0.000000
v 0.780873 1.001030 0.000000
v 1.000203 0.859053 -0.018117
v 0.001897 0.859053 -0.018117
v 1.000203 0.182211 -0.018117
v 0.001897 0.182211 -0.018117
vt 0.765625 0.156250
vt 0.765625 0.207031
vt 0.757812 0.210938
vt 0.757812 0.156250
vt 0.804688 0.210938
vt 0.804688 0.156250
vt 0.828125 0.156250
vt 0.828125 0.207031
vt 0.789062 0.156250
vt 0.789062 0.207031
vt 0.765625 0.097656
vt 0.765625 0.152344
vt 0.757812 0.156250
vt 0.757812 0.097656
vt 0.804688 0.156250
vt 0.804688 0.097656
vt 0.828125 0.097656
vt 0.828125 0.152344
vt 0.789062 0.097656
vt 0.789062 0.152344
vt 0.882812 0.171875
vt 0.875000 0.140625
vt 0.882812 0.140625
vt 0.851562 0.199219
vt 0.843750 0.230469
vt 0.828125 0.195312
vt 0.851562 0.183594
vt 0.851562 0.171875
vt 0.867188 0.183594
vt 0.835938 0.187500
vt 0.890625 0.183594
vt 0.914062 0.171875
vt 0.914062 0.140625
vt 0.890625 0.187500
vt 0.914062 0.195312
vt 0.882812 0.195312
vt 0.914062 0.230469
vt 0.898438 0.183594
vt 0.851562 0.230469
vt 0.882812 0.183594
vt 0.851562 0.187500
vt 0.859375 0.230469
vt 0.859375 0.238281
vt 0.843750 0.238281
vt 0.843750 0.230469
vt 0.835938 0.230469
vt 0.835938 0.238281
vt 0.828125 0.238281
vt 0.828125 0.230469
vt 0.835938 0.097656
vt 0.851562 0.097656
vt 0.851562 0.113281
vt 0.882812 0.140625
vt 0.867188 0.140625
vt 0.882812 0.125000
vt 0.851562 0.128906
vt 0.875000 0.097656
vt 0.851562 0.140625
vt 0.843750 0.140625
vt 0.898438 0.140625
vt 0.890625 0.140625
vt 0.914062 0.128906
vt 0.820312 0.222656
vt 0.820312 0.253906
vt 0.789062 0.226562
vt 0.796875 0.210938
vt 0.914062 0.097656
vt 0.828125 0.109375
vt 0.851562 0.140625
vt 0.882812 0.097656
vt 0.882812 0.214844
vt 0.875000 0.187500
vt 0.882812 0.187500
vt 0.851562 0.156250
vt 0.843750 0.183594
vt 0.828125 0.156250
vt 0.851562 0.230469
vt 0.851562 0.218750
vt 0.867188 0.230469
vt 0.835938 0.140625
vt 0.765625 0.253906
vt 0.757812 0.238281
vt 0.781250 0.242188
vt 0.781250 0.210938
vt 0.890625 0.230469
vt 0.914062 0.238281
vt 0.882812 0.242188
vt 0.914062 0.269531
vt 0.773438 0.253906
vt 0.851562 0.183594
vt 0.882812 0.230469
vt 0.851562 0.140625
vt 0.789062 0.191406
vt 0.789062 0.199219
vt 0.765625 0.199219
vt 0.765625 0.191406
vt 0.804688 0.050781
vt 0.804688 0.187500
vt 0.789062 0.187500
vt 0.789062 0.050781
vt 0.867188 0.187500
vt 0.867188 0.050781
vt 0.882812 0.050781
vt 0.882812 0.187500
vt 0.781250 0.050781
vt 0.781250 0.187500
vt 0.765625 0.187500
vt 0.765625 0.050781
vt 0.859375 0.187500
vt 0.859375 0.050781
vt 0.867188 0.050781
vt 0.867188 0.187500
vt 0.789062 0.050781
vt 0.789062 0.187500
vt 0.781250 0.187500
vt 0.781250 0.050781
vt 0.914062 0.187500
vt 0.914062 0.050781
vt 0.929688 0.050781
vt 0.929688 0.187500
vt 0.835938 0.050781
vt 0.835938 0.187500
vt 0.828125 0.187500
vt 0.828125 0.050781
vt 0.843750 0.187500
vt 0.843750 0.050781
vt 0.851562 0.050781
vt 0.851562 0.187500
vt 0.765625 0.050781
vt 0.765625 0.187500
vt 0.750000 0.187500
vt 0.750000 0.050781
vt 0.898438 0.187500
vt 0.898438 0.050781
vt 0.914062 0.050781
vt 0.914062 0.187500
vt 0.820312 0.050781
vt 0.820312 0.187500
vt 0.812500 0.187500
vt 0.812500 0.050781
vt 0.882812 0.187500
vt 0.882812 0.050781
vt 0.898438 0.050781
vt 0.898438 0.187500
vt 0.789062 0.152344
vt 0.789062 0.097656
vt 0.789062 0.207031
vt 0.789062 0.156250
vn 0.0000 -0.0000 1.0000
vn 0.0000 -0.5557 0.8314
vn -0.0000 -0.0000 -1.0000
vn -0.0000 0.5471 -0.8371
vn -0.0000 0.5557 0.8314
vn 0.0000 0.0806 -0.9967
vn -0.1277 0.2293 -0.9649
vn 0.1277 0.2293 -0.9649
vn 0.0000 0.0806 0.9968
vn -0.1277 0.2293 0.9649
vn -0.9992 0.0407 0.0000
vn -0.4717 -0.6779 0.5638
vn -0.4717 -0.6779 -0.5638
vn 0.4717 -0.6779 -0.5638
vn 0.9992 0.0407 0.0000
vn 0.4717 -0.6779 0.5638
vn 0.1277 0.2293 0.9649
vn -0.0000 0.0806 -0.9968
vn -0.7071 0.0000 -0.7071
vn 0.7071 0.0000 -0.7071
vn 0.7071 0.0000 0.7071
vn -0.7071 0.0000 0.7071
vn 1.0000 0.0000 0.0000
vn -0.0000 -0.5471 -0.8371
usemtl Material.001
s 1
f 1/1/1 4/2/1 6/3/2 3/4/2
f 69/5/3 70/6/3 5/7/4 2/8/4
f 2/9/5 5/10/5 4/2/1 1/1/1
f 7/11/1 10/12/1 12/13/2 9/14/2
f 67/15/3 68/16/3 11/17/4 8/18/4
f 8/19/5 11/20/5 10/12/1 7/11/1
f 22/21/6 14/22/7 17/23/8
f 21/24/9 14/25/10 19/26/11
f 13/27/12 19/28/11 15/29/13
f 13/30/12 21/24/9 19/26/11
f 18/31/14 22/21/6 20/32/15
f 20/32/15 22/21/6 17/33/8
f 15/29/13 19/28/11 22/21/6
f 16/34/16 20/35/15 21/36/9
f 20/35/15 17/37/17 21/36/9
f 16/38/16 18/31/14 20/32/15
f 17/39/17 14/25/10 21/24/9
f 19/28/11 14/22/7 22/21/6
f 18/40/14 15/29/13 22/21/6
f 13/30/12 16/41/16 21/24/9
f 18/42/14 16/43/16 13/44/12 15/45/13
f 27/46/14 29/47/16 32/48/12 30/49/13
f 32/50/12 29/51/16 24/52/9
f 27/53/14 30/54/13 23/55/6
f 26/56/11 31/57/7 23/55/6
f 28/58/17 31/59/10 24/52/9
f 29/60/16 27/61/14 25/62/15
f 25/63/15 28/64/17 24/65/9
f 29/66/16 25/63/15 24/65/9
f 30/54/13 26/56/11 23/55/6
f 25/62/15 23/55/6 28/67/8
f 27/61/14 23/55/6 25/62/15
f 32/50/12 24/52/9 26/68/11
f 32/69/12 26/56/11 30/54/13
f 24/52/9 31/59/10 26/68/11
f 23/55/6 31/57/7 28/70/8
f 42/71/18 34/72/7 37/73/8
f 41/74/9 34/75/10 39/76/11
f 33/77/12 39/78/11 35/79/13
f 33/80/12 41/74/9 39/76/11
f 38/81/14 42/82/18 40/83/15
f 40/83/15 42/82/18 37/84/8
f 35/79/13 39/78/11 42/71/18
f 36/85/16 40/86/15 41/87/9
f 40/86/15 37/88/17 41/87/9
f 36/89/16 38/81/14 40/83/15
f 37/90/17 34/75/10 41/74/9
f 39/78/11 34/72/7 42/71/18
f 38/91/14 35/79/13 42/71/18
f 33/80/12 36/92/16 41/74/9
f 38/93/14 36/94/16 33/95/12 35/96/13
f 43/97/19 44/98/19 46/99/3 45/100/3
f 45/101/3 46/102/3 50/103/20 49/104/20
f 49/105/21 50/106/21 48/107/1 47/108/1
f 47/109/1 48/110/1 44/111/22 43/112/22
f 51/113/19 52/114/19 54/115/3 53/116/3
f 53/117/3 54/118/3 58/119/23 57/120/23
f 57/121/23 58/122/23 56/123/1 55/124/1
f 55/125/1 56/126/1 52/127/22 51/128/22
f 59/129/19 60/130/19 62/131/3 61/132/3
f 61/133/3 62/134/3 66/135/23 65/136/23
f 65/137/23 66/138/23 64/139/1 63/140/1
f 63/141/1 64/142/1 60/143/22 59/144/22
f 9/145/24 12/146/24 68/16/3 67/15/3
f 3/147/24 6/148/24 70/6/3 69/5/3
