# Blender v2.93.5 OBJ File: 'Modular Graveyard.blend'
# www.blender.org
mtllib CTallWall.mtl
o CTallWall_Cube.039
v -0.391524 0.000000 0.071071
v -0.694364 0.000000 -0.096300
v -0.903577 0.000000 -0.303608
v -1.052007 0.000000 -0.558001
v -1.124932 0.000000 -0.854387
v -1.124932 2.360765 -0.854387
v -1.052007 2.360765 -0.558001
v -0.903577 2.360765 -0.303608
v -0.694364 2.360765 -0.096300
v -0.391524 2.360765 0.071071
v -0.876362 0.000000 -0.854805
v -0.822794 0.000000 -0.654174
v -0.707067 0.000000 -0.455829
v -0.543947 0.000000 -0.294195
v -0.308889 0.000000 -0.163363
v -0.308889 2.360765 -0.163363
v -0.543947 2.360765 -0.294195
v -0.707067 2.360765 -0.455829
v -0.822794 2.360765 -0.654174
v -0.876362 2.360765 -0.854805
v -1.143450 2.358354 -0.854355
v -1.069082 2.358354 -0.550836
v -0.918217 2.358354 -0.292268
v -0.705570 2.358354 -0.081557
v -0.397680 2.358354 0.088536
v -0.302733 2.358354 -0.180828
v -0.532741 2.358354 -0.308937
v -0.692427 2.358354 -0.467169
v -0.805719 2.358354 -0.661339
v -0.857844 2.358354 -0.854837
v -1.149591 2.488340 -0.854345
v -1.074745 2.488340 -0.548460
v -0.923072 2.488340 -0.288507
v -0.709286 2.488340 -0.076668
v -0.399721 2.488340 0.094327
v -0.300692 2.488340 -0.186619
v -0.529025 2.488340 -0.313826
v -0.687572 2.488340 -0.470930
v -0.800056 2.488340 -0.663715
v -0.851703 2.488340 -0.854847
v -0.350207 2.501591 -0.046146
v -0.619156 2.501591 -0.195247
v -0.805322 2.501591 -0.379718
v -0.937400 2.501591 -0.606087
v -1.000647 2.501591 -0.854596
v 0.000000 0.000000 -0.124040
v 0.000000 2.360765 -0.124040
v 0.000000 0.000000 0.124531
v 0.000000 2.360765 0.124531
v 0.000000 2.501591 0.000245
v 0.000000 2.358354 0.143049
v 0.000000 2.358354 -0.142558
v 0.000000 2.488340 0.149190
v 0.000000 2.488340 -0.148699
v 0.392183 0.000000 0.058103
v 0.694364 0.000000 -0.096300
v 0.903577 0.000000 -0.303608
v 1.052007 0.000000 -0.558001
v 1.124932 0.000000 -0.854387
v 1.124932 2.360765 -0.854387
v 1.052007 2.360765 -0.558001
v 0.903577 2.360765 -0.303608
v 0.694364 2.360765 -0.096300
v 0.392183 2.360765 0.058104
v 0.876362 0.000000 -0.854805
v 0.822794 0.000000 -0.654174
v 0.707067 0.000000 -0.455829
v 0.543947 0.000000 -0.294195
v 0.308230 0.000000 -0.175861
v 0.308230 2.360765 -0.175861
v 0.543947 2.360765 -0.294195
v 0.707067 2.360765 -0.455829
v 0.822794 2.360765 -0.654174
v 0.876362 2.360765 -0.854805
v 1.143450 2.358354 -0.854355
v 1.069082 2.358354 -0.550836
v 0.918217 2.358354 -0.292268
v 0.705570 2.358354 -0.081557
v 0.398438 2.358354 0.075533
v 0.301975 2.358354 -0.193291
v 0.532741 2.358354 -0.308937
v 0.692427 2.358354 -0.467169
v 0.805719 2.358354 -0.661339
v 0.857844 2.358354 -0.854837
v 1.149591 2.488340 -0.854345
v 1.074745 2.488340 -0.548460
v 0.923072 2.488340 -0.288507
v 0.709286 2.488340 -0.076668
v 0.400512 2.488340 0.081313
v 0.299901 2.488340 -0.199071
v 0.529025 2.488340 -0.313826
v 0.687572 2.488340 -0.470930
v 0.800056 2.488340 -0.663715
v 0.851703 2.488340 -0.854847
v 0.350207 2.501591 -0.058879
v 0.619156 2.501591 -0.195247
v 0.805322 2.501591 -0.379718
v 0.937400 2.501591 -0.606087
v 1.000647 2.501591 -0.854596
vt 0.148438 0.460938
vt 0.023438 0.460938
vt 0.023438 0.667969
vt 0.148438 0.667969
vt 0.093750 0.429688
vt 0.093750 0.453125
vt 0.007812 0.453125
vt 0.007812 0.429688
vt 0.093750 0.421875
vt 0.093750 0.398438
vt 0.007812 0.398438
vt 0.007812 0.421875
vt 0.093750 0.433594
vt 0.093750 0.441406
vt 0.007812 0.441406
vt 0.007812 0.433594
vt 0.007812 0.441406
vt 0.007812 0.433594
vt 0.093750 0.433594
vt 0.093750 0.441406
vt 0.171875 0.433594
vt 0.171875 0.441406
vt 0.250000 0.433594
vt 0.250000 0.441406
vt 0.328125 0.433594
vt 0.328125 0.441406
vt 0.406250 0.433594
vt 0.406250 0.441406
vt 0.406250 0.433594
vt 0.406250 0.441406
vt 0.328125 0.441406
vt 0.328125 0.433594
vt 0.250000 0.441406
vt 0.250000 0.433594
vt 0.171875 0.441406
vt 0.171875 0.433594
vt 0.406250 0.421875
vt 0.406250 0.398438
vt 0.328125 0.398438
vt 0.328125 0.421875
vt 0.250000 0.398438
vt 0.250000 0.421875
vt 0.171875 0.398438
vt 0.171875 0.421875
vt 0.007812 0.449219
vt 0.093750 0.449219
vt 0.171875 0.449219
vt 0.250000 0.449219
vt 0.328125 0.449219
vt 0.406250 0.449219
vt 0.007812 0.429688
vt 0.007812 0.453125
vt 0.093750 0.453125
vt 0.093750 0.429688
vt 0.171875 0.453125
vt 0.171875 0.429688
vt 0.250000 0.453125
vt 0.250000 0.429688
vt 0.328125 0.453125
vt 0.328125 0.429688
vt 0.406250 0.453125
vt 0.406250 0.429688
vt 0.406250 0.429688
vt 0.406250 0.453125
vt 0.328125 0.453125
vt 0.328125 0.429688
vt 0.250000 0.453125
vt 0.250000 0.429688
vt 0.171875 0.453125
vt 0.171875 0.429688
vt 0.023438 0.460938
vt 0.148438 0.460938
vt 0.148438 0.667969
vt 0.023438 0.667969
vt 0.101562 0.460938
vt 0.195312 0.460938
vt 0.195312 0.667969
vt 0.101562 0.667969
vt 0.296875 0.460938
vt 0.203125 0.460938
vt 0.203125 0.667969
vt 0.296875 0.667969
vt 0.226562 0.460938
vt 0.109375 0.460938
vt 0.109375 0.667969
vt 0.226562 0.667969
vt 0.015625 0.460938
vt 0.015625 0.667969
vt 0.015625 0.460938
vt 0.109375 0.460938
vt 0.109375 0.667969
vt 0.015625 0.667969
vt 0.218750 0.460938
vt 0.218750 0.667969
vt 0.359375 0.460938
vt 0.234375 0.460938
vt 0.234375 0.667969
vt 0.359375 0.667969
vt 0.203125 0.460938
vt 0.101562 0.460938
vt 0.101562 0.667969
vt 0.203125 0.667969
vt 0.179688 0.460938
vt 0.179688 0.667969
vt 0.054688 0.667969
vt 0.054688 0.460938
vt 0.093750 0.429688
vt 0.023438 0.429688
vt 0.023438 0.453125
vt 0.093750 0.453125
vt 0.093750 0.421875
vt 0.023438 0.421875
vt 0.023438 0.398438
vt 0.093750 0.398438
vt 0.093750 0.433594
vt 0.023438 0.433594
vt 0.023438 0.441406
vt 0.093750 0.441406
vt 0.023438 0.441406
vt 0.093750 0.441406
vt 0.093750 0.433594
vt 0.023438 0.433594
vt 0.171875 0.441406
vt 0.171875 0.433594
vt 0.250000 0.441406
vt 0.250000 0.433594
vt 0.328125 0.441406
vt 0.328125 0.433594
vt 0.406250 0.441406
vt 0.406250 0.433594
vt 0.406250 0.433594
vt 0.328125 0.433594
vt 0.328125 0.441406
vt 0.406250 0.441406
vt 0.250000 0.433594
vt 0.250000 0.441406
vt 0.171875 0.433594
vt 0.171875 0.441406
vt 0.406250 0.421875
vt 0.328125 0.421875
vt 0.328125 0.398438
vt 0.406250 0.398438
vt 0.250000 0.421875
vt 0.250000 0.398438
vt 0.171875 0.421875
vt 0.171875 0.398438
vt 0.093750 0.449219
vt 0.023438 0.449219
vt 0.171875 0.449219
vt 0.250000 0.449219
vt 0.328125 0.449219
vt 0.406250 0.449219
vt 0.023438 0.429688
vt 0.093750 0.429688
vt 0.093750 0.453125
vt 0.023438 0.453125
vt 0.171875 0.429688
vt 0.171875 0.453125
vt 0.250000 0.429688
vt 0.250000 0.453125
vt 0.328125 0.429688
vt 0.328125 0.453125
vt 0.406250 0.429688
vt 0.406250 0.453125
vt 0.406250 0.429688
vt 0.328125 0.429688
vt 0.328125 0.453125
vt 0.406250 0.453125
vt 0.250000 0.429688
vt 0.250000 0.453125
vt 0.171875 0.429688
vt 0.171875 0.453125
vt 0.054688 0.460938
vt 0.054688 0.667969
vt 0.179688 0.667969
vt 0.179688 0.460938
vt 0.101562 0.460938
vt 0.101562 0.667969
vt 0.195312 0.667969
vt 0.195312 0.460938
vt 0.296875 0.460938
vt 0.296875 0.667969
vt 0.203125 0.667969
vt 0.203125 0.460938
vt 0.226562 0.460938
vt 0.226562 0.667969
vt 0.109375 0.667969
vt 0.109375 0.460938
vt 0.015625 0.667969
vt 0.015625 0.460938
vt 0.015625 0.460938
vt 0.015625 0.667969
vt 0.109375 0.667969
vt 0.109375 0.460938
vt 0.218750 0.667969
vt 0.218750 0.460938
vt 0.359375 0.460938
vt 0.359375 0.667969
vt 0.234375 0.667969
vt 0.234375 0.460938
vt 0.203125 0.460938
vt 0.203125 0.667969
vt 0.101562 0.667969
vt 0.101562 0.460938
vn -0.3148 -0.0000 0.9491
vn 0.0160 -0.0000 0.9999
vn 0.3114 -0.0474 -0.9491
vn 0.3112 -0.0474 -0.9492
vn -0.0205 -0.0470 -0.9987
vn -0.0203 -0.0470 -0.9987
vn -0.0032 0.9999 0.0101
vn -0.0279 0.9961 0.0837
vn 0.0013 0.9960 0.0889
vn 0.0002 1.0000 0.0084
vn -0.0404 -0.9917 0.1220
vn -0.0398 -0.9917 0.1222
vn 0.0028 -0.9916 0.1296
vn 0.0023 -0.9916 0.1297
vn -0.0022 -0.9916 -0.1295
vn -0.0018 -0.9916 -0.1295
vn 0.0408 -0.9917 -0.1220
vn 0.0403 -0.9917 -0.1222
vn 0.0775 -0.9916 -0.1034
vn 0.0774 -0.9916 -0.1035
vn 0.1021 -0.9916 -0.0791
vn 0.1202 -0.9916 -0.0487
vn 0.1203 -0.9916 -0.0484
vn 0.1279 -0.9913 -0.0314
vn -0.1274 -0.9913 0.0342
vn -0.1200 -0.9915 0.0499
vn -0.1199 -0.9915 0.0499
vn -0.1021 -0.9916 0.0791
vn -0.0776 -0.9916 0.1034
vn -0.0777 -0.9916 0.1033
vn -0.0139 0.9999 0.0030
vn -0.0878 0.9959 0.0219
vn -0.0824 0.9960 0.0336
vn -0.0074 1.0000 0.0027
vn -0.0701 0.9961 0.0543
vn -0.0058 1.0000 0.0045
vn -0.0532 0.9961 0.0709
vn -0.0046 1.0000 0.0063
vn -0.0018 0.9960 -0.0890
vn 0.0274 0.9961 -0.0839
vn 0.0532 0.9961 -0.0710
vn 0.0701 0.9961 -0.0543
vn 0.0824 0.9960 -0.0340
vn 0.0876 0.9959 -0.0229
vn 0.0158 -0.0470 0.9988
vn 0.0157 -0.0470 0.9988
vn -0.3148 -0.0474 0.9480
vn -0.3146 -0.0474 0.9480
vn -0.5988 -0.0472 0.7995
vn -0.5987 -0.0472 0.7996
vn -0.7897 -0.0472 0.6117
vn -0.9261 -0.0470 0.3744
vn -0.9261 -0.0470 0.3743
vn -0.9703 -0.0462 0.2376
vn 0.9644 -0.0462 -0.2602
vn 0.9217 -0.0469 -0.3852
vn 0.7897 -0.0472 -0.6117
vn 0.6001 -0.0471 -0.7985
vn 0.6002 -0.0471 -0.7985
vn -0.0200 0.0000 -0.9998
vn 0.3120 -0.0000 -0.9501
vn 0.6007 -0.0000 -0.7995
vn 0.7906 0.0000 -0.6124
vn 0.9232 0.0000 -0.3844
vn 0.9662 0.0000 -0.2580
vn -0.9710 0.0000 0.2389
vn -0.9269 0.0000 0.3753
vn -0.7906 0.0000 0.6124
vn -0.5995 0.0000 0.8004
vn 0.3146 0.0000 0.9492
vn -0.3100 -0.0471 -0.9496
vn -0.3098 -0.0471 -0.9496
vn 0.0026 1.0000 0.0081
vn 0.0281 0.9961 0.0842
vn 0.0405 -0.9916 0.1229
vn 0.0399 -0.9916 0.1231
vn -0.0404 -0.9916 -0.1229
vn -0.0410 -0.9916 -0.1227
vn -0.0754 -0.9917 -0.1046
vn -0.0758 -0.9917 -0.1042
vn -0.1021 -0.9916 -0.0791
vn -0.1203 -0.9916 -0.0484
vn -0.1202 -0.9916 -0.0487
vn -0.1279 -0.9913 -0.0314
vn 0.1274 -0.9913 0.0342
vn 0.1199 -0.9915 0.0499
vn 0.1200 -0.9915 0.0499
vn 0.1021 -0.9916 0.0791
vn 0.0754 -0.9917 0.1044
vn 0.0749 -0.9917 0.1049
vn 0.0139 0.9999 0.0030
vn 0.0074 1.0000 0.0027
vn 0.0824 0.9960 0.0336
vn 0.0878 0.9959 0.0219
vn 0.0058 1.0000 0.0045
vn 0.0701 0.9961 0.0543
vn 0.0050 1.0000 0.0072
vn 0.0520 0.9961 0.0716
vn -0.0274 0.9960 -0.0845
vn -0.0515 0.9961 -0.0719
vn -0.0701 0.9961 -0.0543
vn -0.0824 0.9960 -0.0340
vn -0.0876 0.9959 -0.0229
vn 0.3145 -0.0471 0.9481
vn 0.3147 -0.0471 0.9480
vn 0.5858 -0.0473 0.8090
vn 0.5860 -0.0473 0.8089
vn 0.7897 -0.0472 0.6117
vn 0.9261 -0.0470 0.3743
vn 0.9261 -0.0470 0.3744
vn 0.9703 -0.0462 0.2376
vn -0.9644 -0.0462 -0.2602
vn -0.9217 -0.0469 -0.3852
vn -0.7897 -0.0472 -0.6117
vn -0.5826 -0.0473 -0.8114
vn -0.5824 -0.0473 -0.8115
vn -0.3107 0.0000 -0.9505
vn -0.5835 0.0000 -0.8121
vn -0.7906 0.0000 -0.6124
vn -0.9232 0.0000 -0.3844
vn -0.9662 0.0000 -0.2580
vn 0.9710 0.0000 0.2389
vn 0.9269 -0.0000 0.3753
vn 0.7906 0.0000 0.6124
vn 0.5864 0.0000 0.8100
usemtl Material.001
s 1
f 1/1/1 48/2/2 49/3/2 10/4/1
f 26/5/3 36/6/4 54/7/5 52/8/6
f 41/9/7 35/10/8 53/11/9 50/12/10
f 16/13/11 26/14/12 52/15/13 47/16/14
f 49/17/15 51/18/16 25/19/17 10/20/18
f 10/20/18 25/19/17 24/21/19 9/22/20
f 9/22/20 24/21/19 23/23/21 8/24/21
f 8/24/21 23/23/21 22/25/22 7/26/23
f 7/26/23 22/25/22 21/27/24 6/28/24
f 20/29/25 30/30/25 29/31/26 19/32/27
f 19/32/27 29/31/26 28/33/28 18/34/28
f 18/34/28 28/33/28 27/35/29 17/36/30
f 17/36/30 27/35/29 26/14/12 16/13/11
f 45/37/31 31/38/32 32/39/33 44/40/34
f 44/40/34 32/39/33 33/41/35 43/42/36
f 43/42/36 33/41/35 34/43/37 42/44/38
f 42/44/38 34/43/37 35/10/8 41/9/7
f 50/12/10 54/45/39 36/46/40 41/9/7
f 41/9/7 36/46/40 37/47/41 42/44/38
f 42/44/38 37/47/41 38/48/42 43/42/36
f 43/42/36 38/48/42 39/49/43 44/40/34
f 44/40/34 39/49/43 40/50/44 45/37/31
f 51/51/45 53/52/46 35/53/47 25/54/48
f 25/54/48 35/53/47 34/55/49 24/56/50
f 24/56/50 34/55/49 33/57/51 23/58/51
f 23/58/51 33/57/51 32/59/52 22/60/53
f 22/60/53 32/59/52 31/61/54 21/62/54
f 30/63/55 40/64/55 39/65/56 29/66/56
f 29/66/56 39/65/56 38/67/57 28/68/57
f 28/68/57 38/67/57 37/69/58 27/70/59
f 27/70/59 37/69/58 36/6/4 26/5/3
f 46/71/60 15/72/61 16/73/61 47/74/60
f 15/75/61 14/76/62 17/77/62 16/78/61
f 14/79/62 13/80/63 18/81/63 17/82/62
f 13/83/63 12/84/64 19/85/64 18/86/63
f 12/84/64 11/87/65 20/88/65 19/85/64
f 5/89/66 4/90/67 7/91/67 6/92/66
f 4/90/67 3/93/68 8/94/68 7/91/67
f 3/95/68 2/96/69 9/97/69 8/98/68
f 2/99/69 1/100/1 10/101/1 9/102/69
f 55/103/70 64/104/70 49/105/2 48/106/2
f 80/107/71 52/108/6 54/109/5 90/110/72
f 95/111/73 50/112/10 53/113/9 89/114/74
f 70/115/75 47/116/14 52/117/13 80/118/76
f 49/119/15 64/120/77 79/121/78 51/122/16
f 64/120/77 63/123/79 78/124/80 79/121/78
f 63/123/79 62/125/81 77/126/81 78/124/80
f 62/125/81 61/127/82 76/128/83 77/126/81
f 61/127/82 60/129/84 75/130/84 76/128/83
f 74/131/85 73/132/86 83/133/87 84/134/85
f 73/132/86 72/135/88 82/136/88 83/133/87
f 72/135/88 71/137/89 81/138/90 82/136/88
f 71/137/89 70/115/75 80/118/76 81/138/90
f 99/139/91 98/140/92 86/141/93 85/142/94
f 98/140/92 97/143/95 87/144/96 86/141/93
f 97/143/95 96/145/97 88/146/98 87/144/96
f 96/145/97 95/111/73 89/114/74 88/146/98
f 50/112/10 95/111/73 90/147/99 54/148/39
f 95/111/73 96/145/97 91/149/100 90/147/99
f 96/145/97 97/143/95 92/150/101 91/149/100
f 97/143/95 98/140/92 93/151/102 92/150/101
f 98/140/92 99/139/91 94/152/103 93/151/102
f 51/153/45 79/154/104 89/155/105 53/156/46
f 79/154/104 78/157/106 88/158/107 89/155/105
f 78/157/106 77/159/108 87/160/108 88/158/107
f 77/159/108 76/161/109 86/162/110 87/160/108
f 76/161/109 75/163/111 85/164/111 86/162/110
f 84/165/112 83/166/113 93/167/113 94/168/112
f 83/166/113 82/169/114 92/170/114 93/167/113
f 82/169/114 81/171/115 91/172/116 92/170/114
f 81/171/115 80/107/71 90/110/72 91/172/116
f 46/173/60 47/174/60 70/175/117 69/176/117
f 69/177/117 70/178/117 71/179/118 68/180/118
f 68/181/118 71/182/118 72/183/119 67/184/119
f 67/185/119 72/186/119 73/187/120 66/188/120
f 66/188/120 73/187/120 74/189/121 65/190/121
f 59/191/122 60/192/122 61/193/123 58/194/123
f 58/194/123 61/193/123 62/195/124 57/196/124
f 57/197/124 62/198/124 63/199/125 56/200/125
f 56/201/125 63/202/125 64/203/70 55/204/70
