# Blender v2.93.5 OBJ File: 'Modular Graveyard.blend'
# www.blender.org
mtllib TallWall1.mtl
o TallWall1_Cube.047
v -0.140403 0.000000 -0.124286
v -0.140403 2.360765 -0.124286
v -0.140403 0.000000 0.124286
v -0.140403 2.360765 0.124286
v -0.140403 2.501591 0.000000
v -0.140403 2.358354 0.142804
v -0.140403 2.358354 -0.142804
v -0.140403 2.488340 0.148945
v -0.140403 2.488340 -0.148944
v -0.860744 0.000000 0.124286
v -0.860744 2.360765 0.124286
v -0.860744 0.000000 -0.124285
v -0.860744 2.360765 -0.124285
v -0.860744 2.358354 0.142804
v -0.860744 2.358354 -0.142803
v -0.860744 2.488340 0.148945
v -0.860744 2.488340 -0.148944
v -0.860744 2.501591 0.000000
vt 0.710938 0.460938
vt 0.710938 0.667969
vt 0.468750 0.667969
vt 0.468750 0.460938
vt 0.718750 0.429688
vt 0.476562 0.429688
vt 0.476562 0.453125
vt 0.718750 0.453125
vt 0.718750 0.441406
vt 0.476562 0.441406
vt 0.476562 0.433594
vt 0.718750 0.433594
vt 0.476562 0.433594
vt 0.718750 0.433594
vt 0.718750 0.441406
vt 0.476562 0.441406
vt 0.476562 0.429688
vt 0.718750 0.429688
vt 0.718750 0.453125
vt 0.476562 0.453125
vt 0.710938 0.460938
vt 0.710938 0.667969
vt 0.468750 0.667969
vt 0.468750 0.460938
vt 0.476562 0.421875
vt 0.718750 0.421875
vt 0.718750 0.449219
vt 0.476562 0.449219
vt 0.476562 0.398438
vt 0.718750 0.398438
vn -0.0000 -0.0000 -1.0000
vn 0.0000 -0.0472 0.9989
vn -0.0000 -0.9916 -0.1291
vn 0.0000 -0.9916 0.1291
vn -0.0000 -0.0472 -0.9989
vn 0.0000 -0.0000 1.0000
vn 0.0000 1.0000 0.0000
vn 0.0000 0.6574 -0.7535
vn 0.0000 0.6574 0.7535
usemtl Material.001
s off
f 12/1/1 13/2/1 2/3/1 1/4/1
f 14/5/2 6/6/2 8/7/2 16/8/2
f 11/9/3 4/10/3 6/11/3 14/12/3
f 2/13/4 13/14/4 15/15/4 7/16/4
f 7/17/5 15/18/5 17/19/5 9/20/5
f 3/21/6 4/22/6 11/23/6 10/24/6
s 1
f 18/25/7 5/26/7 9/27/8 17/28/8
f 5/26/7 18/25/7 16/29/9 8/30/9
