# Blender v2.93.5 OBJ File: 'Modular Graveyard.blend'
# www.blender.org
mtllib CircularLowRailingA.mtl
o CircularLowRailingA_Circle.013
v -0.629848 0.359053 -0.180998
v -0.619230 0.386990 -0.194985
v -0.619230 0.331116 -0.194985
v -1.018735 0.359053 -0.851720
v -0.999601 0.386990 -0.851903
v -0.999601 0.331116 -0.851903
v -1.007629 0.494248 -0.757418
v -0.973026 0.800285 -0.746910
v -0.947958 0.494248 -0.772975
v -0.991355 0.494248 -0.694997
v -0.966287 0.800285 -0.721062
v -0.931684 0.494248 -0.710554
v -0.988288 0.577323 -0.805450
v -0.951025 0.577323 -0.662522
v -1.020071 0.588476 -0.720842
v -0.919242 0.588476 -0.747130
v -0.674987 0.588476 -0.322393
v -0.748776 0.588476 -0.248820
v -0.659736 0.577323 -0.233308
v -0.764027 0.577323 -0.337905
v -0.667274 0.494248 -0.284536
v -0.702451 0.800285 -0.276149
v -0.710942 0.494248 -0.240996
v -0.712821 0.494248 -0.330217
v -0.721312 0.800285 -0.295065
v -0.756489 0.494248 -0.286677
v -0.914248 0.494248 -0.505815
v -0.878094 0.800285 -0.504982
v -0.860945 0.494248 -0.536821
v -0.881813 0.494248 -0.450054
v -0.864663 0.800285 -0.481893
v -0.828510 0.494248 -0.481061
v -0.908513 0.577323 -0.557276
v -0.834245 0.577323 -0.429600
v -0.916414 0.588476 -0.467241
v -0.826344 0.588476 -0.519634
v -0.977252 -0.012187 -0.763543
v -0.977252 0.501030 -0.763543
v -0.940174 -0.012187 -0.741800
v -0.940174 0.501030 -0.741800
v -0.998995 -0.012187 -0.726464
v -0.998995 0.501030 -0.726464
v -0.961916 -0.012187 -0.704722
v -0.961916 0.501030 -0.704722
v -0.886534 -0.012187 -0.519703
v -0.886534 0.501030 -0.519703
v -0.844979 -0.012187 -0.508714
v -0.844979 0.501030 -0.508714
v -0.897524 -0.012187 -0.478149
v -0.897524 0.501030 -0.478149
v -0.855969 -0.012187 -0.467159
v -0.855969 0.501030 -0.467159
v -0.733295 -0.012187 -0.307234
v -0.733295 0.501030 -0.307234
v -0.690312 -0.012187 -0.307171
v -0.690312 0.501030 -0.307171
v -0.733358 -0.012187 -0.264251
v -0.733358 0.501030 -0.264251
v -0.690375 -0.012187 -0.264188
v -0.690375 0.501030 -0.264188
v -0.608843 0.359053 -0.208771
v -0.980606 0.359053 -0.851366
v -0.805482 0.331116 -0.380011
v -0.820994 0.359053 -0.367520
v -0.805482 0.386990 -0.380011
v -0.790122 0.359053 -0.391653
v -0.937036 0.331116 -0.606172
v -0.937036 0.386990 -0.606172
v -0.953864 0.359053 -0.598961
v -0.919286 0.359053 -0.612698
v -0.391777 0.331116 -0.065141
v -0.398956 0.359053 -0.046565
v -0.391777 0.386990 -0.065141
v -0.384305 0.359053 -0.082907
v -0.147380 0.331116 -0.000884
v -0.147256 0.359053 0.019516
v -0.147380 0.386990 -0.000884
v -0.146916 0.359053 -0.020545
v -0.478782 0.588476 -0.175473
v -0.530236 0.588476 -0.084863
v -0.440288 0.577323 -0.093699
v -0.568729 0.577323 -0.166637
v -0.461236 0.494248 -0.141052
v -0.492895 0.800285 -0.123573
v -0.491687 0.494248 -0.087430
v -0.517331 0.494248 -0.172907
v -0.516123 0.800285 -0.136763
v -0.547781 0.494248 -0.119284
v -0.530921 -0.012187 -0.145290
v -0.530921 0.501030 -0.145290
v -0.489483 -0.012187 -0.156711
v -0.489483 0.501030 -0.156711
v -0.519500 -0.012187 -0.103851
v -0.519500 0.501030 -0.103851
v -0.478062 -0.012187 -0.115272
v -0.478062 0.501030 -0.115272
v -0.255607 0.588476 -0.083554
v -0.281803 0.588476 0.017299
v -0.197224 0.577323 -0.014561
v -0.340186 0.577323 -0.051695
v -0.229735 0.494248 -0.054861
v -0.255778 0.800285 -0.029770
v -0.245238 0.494248 0.004824
v -0.292172 0.494248 -0.071079
v -0.281632 0.800285 -0.036485
v -0.307674 0.494248 -0.011394
v -0.298135 -0.012187 -0.040882
v -0.298135 0.501030 -0.040882
v -0.261076 -0.012187 -0.062659
v -0.261076 0.501030 -0.062659
v -0.276358 -0.012187 -0.003824
v -0.276358 0.501030 -0.003824
v -0.239300 -0.012187 -0.025600
v -0.239300 0.501030 -0.025600
v -0.015211 0.331116 -0.000937
v -0.015482 0.359053 0.019380
v -0.015211 0.386990 -0.000937
v -0.015068 0.359053 -0.020652
v -0.980663 0.359053 -0.981573
v -0.999630 0.386990 -0.981835
v -1.018811 0.359053 -0.982084
v -0.999630 0.331116 -0.981835
vt 0.843750 0.429688
vt 0.843750 0.488281
vt 0.828125 0.488281
vt 0.828125 0.429688
vt 0.843750 0.429688
vt 0.843750 0.488281
vt 0.828125 0.488281
vt 0.828125 0.429688
vt 0.843750 0.429688
vt 0.843750 0.488281
vt 0.828125 0.488281
vt 0.828125 0.429688
vt 0.867188 0.484375
vt 0.867188 0.503906
vt 0.867188 0.503906
vt 0.867188 0.484375
vt 0.851562 0.484375
vt 0.882812 0.402344
vt 0.859375 0.421875
vt 0.859375 0.402344
vt 0.859375 0.472656
vt 0.882812 0.472656
vt 0.890625 0.484375
vt 0.859375 0.472656
vt 0.882812 0.472656
vt 0.859375 0.402344
vt 0.882812 0.402344
vt 0.859375 0.421875
vt 0.843750 0.503906
vt 0.828125 0.503906
vt 0.828125 0.492188
vt 0.843750 0.492188
vt 0.843750 0.503906
vt 0.828125 0.503906
vt 0.828125 0.492188
vt 0.843750 0.492188
vt 0.859375 0.472656
vt 0.882812 0.472656
vt 0.867188 0.484375
vt 0.882812 0.472656
vt 0.859375 0.472656
vt 0.867188 0.484375
vt 0.851562 0.484375
vt 0.867188 0.503906
vt 0.867188 0.503906
vt 0.859375 0.402344
vt 0.882812 0.402344
vt 0.859375 0.421875
vt 0.890625 0.484375
vt 0.882812 0.402344
vt 0.859375 0.421875
vt 0.859375 0.402344
vt 0.867188 0.484375
vt 0.867188 0.503906
vt 0.867188 0.503906
vt 0.867188 0.484375
vt 0.851562 0.484375
vt 0.882812 0.402344
vt 0.859375 0.421875
vt 0.859375 0.402344
vt 0.859375 0.472656
vt 0.882812 0.472656
vt 0.890625 0.484375
vt 0.859375 0.472656
vt 0.882812 0.472656
vt 0.859375 0.402344
vt 0.882812 0.402344
vt 0.859375 0.421875
vt 0.843750 0.503906
vt 0.828125 0.503906
vt 0.828125 0.492188
vt 0.843750 0.492188
vt 0.843750 0.328125
vt 0.843750 0.492188
vt 0.828125 0.492188
vt 0.828125 0.328125
vt 0.843750 0.328125
vt 0.843750 0.492188
vt 0.828125 0.492188
vt 0.828125 0.328125
vt 0.843750 0.328125
vt 0.843750 0.492188
vt 0.828125 0.492188
vt 0.828125 0.328125
vt 0.843750 0.328125
vt 0.843750 0.492188
vt 0.828125 0.492188
vt 0.828125 0.328125
vt 0.843750 0.328125
vt 0.843750 0.492188
vt 0.828125 0.492188
vt 0.828125 0.328125
vt 0.843750 0.328125
vt 0.843750 0.492188
vt 0.828125 0.492188
vt 0.828125 0.328125
vt 0.843750 0.328125
vt 0.843750 0.492188
vt 0.828125 0.492188
vt 0.828125 0.328125
vt 0.843750 0.328125
vt 0.843750 0.492188
vt 0.828125 0.492188
vt 0.828125 0.328125
vt 0.843750 0.328125
vt 0.843750 0.492188
vt 0.828125 0.492188
vt 0.828125 0.328125
vt 0.843750 0.328125
vt 0.843750 0.492188
vt 0.828125 0.492188
vt 0.828125 0.328125
vt 0.843750 0.328125
vt 0.843750 0.492188
vt 0.828125 0.492188
vt 0.828125 0.328125
vt 0.843750 0.328125
vt 0.843750 0.492188
vt 0.828125 0.492188
vt 0.828125 0.328125
vt 0.843750 0.429688
vt 0.843750 0.488281
vt 0.828125 0.488281
vt 0.828125 0.429688
vt 0.843750 0.343750
vt 0.843750 0.386719
vt 0.828125 0.386719
vt 0.828125 0.347656
vt 0.843750 0.343750
vt 0.843750 0.386719
vt 0.828125 0.386719
vt 0.828125 0.343750
vt 0.843750 0.347656
vt 0.843750 0.386719
vt 0.828125 0.386719
vt 0.828125 0.343750
vt 0.843750 0.343750
vt 0.843750 0.386719
vt 0.828125 0.386719
vt 0.828125 0.343750
vt 0.843750 0.386719
vt 0.843750 0.429688
vt 0.828125 0.429688
vt 0.828125 0.386719
vt 0.843750 0.386719
vt 0.843750 0.429688
vt 0.828125 0.429688
vt 0.828125 0.386719
vt 0.843750 0.386719
vt 0.843750 0.429688
vt 0.828125 0.429688
vt 0.828125 0.386719
vt 0.843750 0.386719
vt 0.843750 0.429688
vt 0.828125 0.429688
vt 0.828125 0.386719
vt 0.843750 0.390625
vt 0.843750 0.429688
vt 0.828125 0.429688
vt 0.828125 0.390625
vt 0.843750 0.390625
vt 0.843750 0.429688
vt 0.828125 0.429688
vt 0.828125 0.386719
vt 0.843750 0.390625
vt 0.843750 0.429688
vt 0.828125 0.429688
vt 0.828125 0.390625
vt 0.843750 0.386719
vt 0.843750 0.429688
vt 0.828125 0.429688
vt 0.828125 0.390625
vt 0.843750 0.503906
vt 0.828125 0.503906
vt 0.828125 0.492188
vt 0.843750 0.492188
vt 0.859375 0.472656
vt 0.882812 0.472656
vt 0.867188 0.484375
vt 0.882812 0.472656
vt 0.859375 0.472656
vt 0.867188 0.484375
vt 0.851562 0.484375
vt 0.867188 0.503906
vt 0.867188 0.503906
vt 0.859375 0.402344
vt 0.882812 0.402344
vt 0.859375 0.421875
vt 0.890625 0.484375
vt 0.882812 0.402344
vt 0.859375 0.421875
vt 0.859375 0.402344
vt 0.843750 0.328125
vt 0.843750 0.492188
vt 0.828125 0.492188
vt 0.828125 0.328125
vt 0.843750 0.328125
vt 0.843750 0.492188
vt 0.828125 0.492188
vt 0.828125 0.328125
vt 0.843750 0.328125
vt 0.843750 0.492188
vt 0.828125 0.492188
vt 0.828125 0.328125
vt 0.843750 0.328125
vt 0.843750 0.492188
vt 0.828125 0.492188
vt 0.828125 0.328125
vt 0.843750 0.503906
vt 0.828125 0.503906
vt 0.828125 0.492188
vt 0.843750 0.492188
vt 0.859375 0.472656
vt 0.882812 0.472656
vt 0.867188 0.484375
vt 0.882812 0.472656
vt 0.859375 0.472656
vt 0.867188 0.484375
vt 0.851562 0.484375
vt 0.867188 0.503906
vt 0.867188 0.503906
vt 0.859375 0.402344
vt 0.882812 0.402344
vt 0.859375 0.421875
vt 0.890625 0.484375
vt 0.882812 0.402344
vt 0.859375 0.421875
vt 0.859375 0.402344
vt 0.843750 0.328125
vt 0.843750 0.492188
vt 0.828125 0.492188
vt 0.828125 0.328125
vt 0.843750 0.328125
vt 0.843750 0.492188
vt 0.828125 0.492188
vt 0.828125 0.328125
vt 0.843750 0.328125
vt 0.843750 0.492188
vt 0.828125 0.492188
vt 0.828125 0.328125
vt 0.843750 0.328125
vt 0.843750 0.492188
vt 0.828125 0.492188
vt 0.828125 0.328125
vt 0.843750 0.390625
vt 0.843750 0.429688
vt 0.828125 0.429688
vt 0.828125 0.390625
vt 0.843750 0.390625
vt 0.843750 0.429688
vt 0.828125 0.429688
vt 0.828125 0.390625
vt 0.843750 0.390625
vt 0.843750 0.429688
vt 0.828125 0.429688
vt 0.828125 0.390625
vt 0.843750 0.390625
vt 0.843750 0.429688
vt 0.828125 0.429688
vt 0.828125 0.390625
vt 0.843750 0.390625
vt 0.843750 0.410156
vt 0.828125 0.410156
vt 0.828125 0.386719
vt 0.843750 0.386719
vt 0.843750 0.410156
vt 0.828125 0.410156
vt 0.828125 0.390625
vt 0.843750 0.390625
vt 0.843750 0.410156
vt 0.828125 0.410156
vt 0.828125 0.390625
vt 0.843750 0.390625
vt 0.843750 0.410156
vt 0.828125 0.410156
vt 0.828125 0.390625
vn -0.9259 -0.0000 0.3778
vn -0.9927 -0.0000 0.1204
vn -0.8215 -0.5598 0.1084
vn -0.7686 -0.5584 0.3121
vn 0.9247 0.0000 -0.3806
vn 0.9912 -0.0000 -0.1320
vn 0.8222 0.5608 -0.0980
vn 0.7672 0.5601 -0.3125
vn -0.7686 0.5584 0.3121
vn -0.8215 0.5598 0.1084
vn 0.9645 0.0806 -0.2515
vn 0.9015 0.2293 -0.3670
vn 0.9659 0.2293 -0.1199
vn -0.9645 0.0806 0.2515
vn -0.9659 0.2293 0.1199
vn -0.2521 0.0407 -0.9669
vn -0.6646 -0.6779 -0.3142
vn 0.4266 -0.6779 -0.5987
vn 0.6646 -0.6779 0.3142
vn 0.2521 0.0407 0.9669
vn -0.4266 -0.6779 0.5987
vn -0.9015 0.2293 0.3670
vn 0.7323 -0.6779 -0.0641
vn -0.0663 -0.6779 0.7321
vn -0.7323 -0.6779 0.0641
vn 0.0663 -0.6779 -0.7321
vn -0.7058 0.0806 0.7038
vn 0.7058 0.0806 -0.7038
vn -0.7055 0.0407 -0.7076
vn 0.5932 0.2293 -0.7717
vn -0.5932 0.2293 0.7717
vn -0.7735 0.2293 0.5909
vn 0.7055 0.0407 0.7076
vn 0.7735 0.2293 -0.5909
vn 0.8616 0.0806 -0.5012
vn 0.7699 0.2293 -0.5955
vn 0.8983 0.2293 -0.3748
vn -0.8616 0.0806 0.5012
vn -0.8983 0.2293 0.3748
vn -0.5024 0.0407 -0.8637
vn -0.7245 -0.6779 -0.1242
vn 0.2502 -0.6779 -0.6912
vn 0.7245 -0.6779 0.1242
vn 0.5024 0.0407 0.8637
vn -0.2502 -0.6779 0.6912
vn -0.7699 0.2293 0.5955
vn -0.2523 0.0000 -0.9677
vn 0.9677 0.0000 -0.2523
vn 0.8626 0.0000 0.5058
vn -0.5058 0.0000 0.8626
vn -0.9677 0.0000 0.2523
vn 0.2557 0.0000 -0.9668
vn 0.9668 0.0000 0.2557
vn 0.5028 0.0000 0.8644
vn -0.2557 0.0000 0.9668
vn -0.9668 0.0000 -0.2557
vn 0.0015 0.0000 -1.0000
vn 0.7081 0.0000 -0.7061
vn 0.7061 0.0000 0.7081
vn -0.0015 0.0000 1.0000
vn -1.0000 0.0000 -0.0015
vn 0.7672 -0.5601 -0.3125
vn 0.8222 -0.5608 -0.0980
vn 0.5066 -0.5475 -0.6661
vn 0.6588 -0.5550 -0.5079
vn 0.7915 0.0000 -0.6111
vn 0.6057 0.0000 -0.7957
vn -0.5029 0.5568 0.6611
vn -0.6549 0.5611 0.5062
vn -0.7900 -0.0000 0.6131
vn -0.6054 -0.0000 0.7960
vn 0.6588 0.5550 -0.5079
vn 0.5066 0.5475 -0.6661
vn -0.6549 -0.5611 0.5062
vn -0.5029 -0.5568 0.6611
vn 0.3136 -0.5576 -0.7685
vn 0.3768 0.0000 -0.9263
vn -0.3144 0.5686 0.7602
vn -0.3803 -0.0000 0.9249
vn 0.3136 0.5576 -0.7685
vn -0.3144 -0.5686 0.7602
vn 0.1010 -0.5737 -0.8128
vn 0.1331 0.0000 -0.9911
vn -0.1090 0.5860 0.8030
vn -0.1217 -0.0000 0.9926
vn 0.1010 0.5737 -0.8128
vn -0.1090 -0.5860 0.8030
vn 0.6886 -0.6779 -0.2574
vn 0.1317 -0.6779 0.7232
vn -0.6886 -0.6779 0.2574
vn -0.1317 -0.6779 -0.7232
vn -0.4922 0.0806 0.8667
vn 0.4922 0.0806 -0.8667
vn -0.8689 0.0407 -0.4934
vn 0.3655 0.2293 -0.9021
vn -0.3655 0.2293 0.9021
vn -0.5875 0.2293 0.7760
vn 0.8689 0.0407 0.4934
vn 0.5875 0.2293 -0.7760
vn -0.2657 0.0000 -0.9641
vn 0.4938 0.0000 -0.8696
vn 0.8696 0.0000 0.4938
vn -0.4938 0.0000 0.8696
vn -0.9641 0.0000 0.2657
vn 0.5983 -0.6779 -0.4272
vn 0.3148 -0.6779 0.6643
vn -0.5983 -0.6779 0.4272
vn -0.3148 -0.6779 -0.6643
vn -0.2506 0.0806 0.9647
vn 0.2506 0.0806 -0.9647
vn -0.9671 0.0407 -0.2512
vn 0.1190 0.2293 -0.9660
vn -0.1190 0.2293 0.9660
vn -0.3662 0.2293 0.9019
vn 0.9671 0.0407 0.2512
vn 0.3662 0.2293 -0.9019
vn -0.5066 0.0000 -0.8622
vn 0.2514 0.0000 -0.9679
vn 0.9679 0.0000 0.2514
vn 0.5066 0.0000 0.8622
vn -0.8622 0.0000 0.5066
vn 0.0006 0.5889 0.8082
vn 0.0007 -0.0000 1.0000
vn 0.0006 -0.5889 0.8082
vn -0.0006 0.0000 -1.0000
vn -0.0005 0.5761 -0.8174
vn -0.0005 -0.5760 -0.8174
vn -0.8247 0.5655 0.0003
vn -1.0000 -0.0000 0.0004
vn -0.8247 -0.5655 0.0003
vn 1.0000 -0.0000 -0.0003
vn 0.8271 0.5620 -0.0003
vn 0.8271 -0.5620 -0.0003
usemtl Material.001
s 1
f 69/1/1 4/2/2 6/3/3 67/4/4
f 70/5/5 62/6/6 5/7/7 68/8/8
f 68/9/9 5/10/10 4/11/2 69/12/1
f 16/13/11 8/14/12 11/15/13
f 15/16/14 8/14/15 13/17/16
f 7/18/17 13/19/16 9/20/18
f 7/21/17 15/16/14 13/17/16
f 12/22/19 16/13/11 14/23/20
f 14/23/20 16/13/11 11/15/13
f 9/24/18 13/17/16 16/13/11
f 10/25/21 14/23/20 15/16/14
f 14/23/20 11/15/22 15/16/14
f 10/26/21 12/27/19 14/28/20
f 11/15/22 8/14/15 15/16/14
f 13/17/16 8/14/12 16/13/11
f 12/22/19 9/24/18 16/13/11
f 7/21/17 10/25/21 15/16/14
f 12/29/19 10/30/21 7/31/17 9/32/18
f 21/33/23 23/34/24 26/35/25 24/36/26
f 26/37/25 23/38/24 18/39/27
f 21/40/23 24/41/26 17/42/28
f 20/43/29 25/44/30 17/42/28
f 22/45/31 25/44/32 18/39/27
f 23/46/24 21/47/23 19/48/33
f 19/49/33 22/45/31 18/39/27
f 23/38/24 19/49/33 18/39/27
f 24/41/26 20/43/29 17/42/28
f 19/49/33 17/42/28 22/45/34
f 21/40/23 17/42/28 19/49/33
f 26/37/25 18/39/27 20/43/29
f 26/50/25 20/51/29 24/52/26
f 18/39/27 25/44/32 20/43/29
f 17/42/28 25/44/30 22/45/34
f 36/53/35 28/54/36 31/55/37
f 35/56/38 28/54/39 33/57/40
f 27/58/41 33/59/40 29/60/42
f 27/61/41 35/56/38 33/57/40
f 32/62/43 36/53/35 34/63/44
f 34/63/44 36/53/35 31/55/37
f 29/64/42 33/57/40 36/53/35
f 30/65/45 34/63/44 35/56/38
f 34/63/44 31/55/46 35/56/38
f 30/66/45 32/67/43 34/68/44
f 31/55/46 28/54/39 35/56/38
f 33/57/40 28/54/36 36/53/35
f 32/62/43 29/64/42 36/53/35
f 27/61/41 30/65/45 35/56/38
f 32/69/43 30/70/45 27/71/41 29/72/42
f 37/73/47 38/74/47 40/75/48 39/76/48
f 39/77/48 40/78/48 44/79/49 43/80/49
f 43/81/50 44/82/50 42/83/51 41/84/51
f 41/85/51 42/86/51 38/87/47 37/88/47
f 45/89/52 46/90/52 48/91/52 47/92/52
f 47/93/53 48/94/53 52/95/54 51/96/54
f 51/97/54 52/98/54 50/99/55 49/100/55
f 49/101/56 50/102/56 46/103/56 45/104/56
f 53/105/57 54/106/57 56/107/58 55/108/58
f 55/109/58 56/110/58 60/111/59 59/112/59
f 59/113/59 60/114/59 58/115/60 57/116/60
f 57/117/61 58/118/61 54/119/61 53/120/61
f 67/121/62 6/122/63 62/123/6 70/124/5
f 3/125/64 63/126/65 66/127/66 61/128/67
f 2/129/68 65/130/69 64/131/70 1/132/71
f 61/133/67 66/134/66 65/135/72 2/136/73
f 1/137/71 64/138/70 63/139/74 3/140/75
f 63/126/65 67/121/62 70/124/5 66/127/66
f 65/130/69 68/9/9 69/12/1 64/131/70
f 66/134/66 70/5/5 68/8/8 65/135/72
f 64/138/70 69/1/1 67/4/4 63/139/74
f 71/141/76 3/142/64 61/143/67 74/144/77
f 73/145/78 2/146/68 1/147/71 72/148/79
f 74/149/77 61/150/67 2/151/73 73/152/80
f 72/153/79 1/154/71 3/155/75 71/156/81
f 75/157/82 71/158/76 74/159/77 78/160/83
f 77/161/84 73/162/78 72/163/79 76/164/85
f 78/165/83 74/166/77 73/167/80 77/168/86
f 76/169/85 72/170/79 71/171/81 75/172/87
f 83/173/88 85/174/89 88/175/90 86/176/91
f 88/177/90 85/178/89 80/179/92
f 83/180/88 86/181/91 79/182/93
f 82/183/94 87/184/95 79/182/93
f 84/185/96 87/184/97 80/179/92
f 85/186/89 83/187/88 81/188/98
f 81/189/98 84/185/96 80/179/92
f 85/178/89 81/189/98 80/179/92
f 86/181/91 82/183/94 79/182/93
f 81/189/98 79/182/93 84/185/99
f 83/180/88 79/182/93 81/189/98
f 88/177/90 80/179/92 82/183/94
f 88/190/90 82/191/94 86/192/91
f 80/179/92 87/184/97 82/183/94
f 79/182/93 87/184/95 84/185/99
f 89/193/100 90/194/100 92/195/101 91/196/101
f 91/197/101 92/198/101 96/199/102 95/200/102
f 95/201/102 96/202/102 94/203/103 93/204/103
f 93/205/103 94/206/103 90/207/104 89/208/104
f 101/209/105 103/210/106 106/211/107 104/212/108
f 106/213/107 103/214/106 98/215/109
f 101/216/105 104/217/108 97/218/110
f 100/219/111 105/220/112 97/218/110
f 102/221/113 105/220/114 98/215/109
f 103/222/106 101/223/105 99/224/115
f 99/225/115 102/221/113 98/215/109
f 103/214/106 99/225/115 98/215/109
f 104/217/108 100/219/111 97/218/110
f 99/225/115 97/218/110 102/221/116
f 101/216/105 97/218/110 99/225/115
f 106/213/107 98/215/109 100/219/111
f 106/226/107 100/227/111 104/228/108
f 98/215/109 105/220/114 100/219/111
f 97/218/110 105/220/112 102/221/116
f 107/229/117 108/230/117 110/231/118 109/232/118
f 109/233/118 110/234/118 114/235/119 113/236/119
f 113/237/119 114/238/119 112/239/120 111/240/120
f 111/241/121 112/242/121 108/243/121 107/244/121
f 117/245/122 77/246/84 76/247/85 116/248/123
f 116/249/123 76/250/85 75/251/87 115/252/124
f 118/253/125 78/254/83 77/255/86 117/256/126
f 115/257/127 75/258/82 78/259/83 118/260/125
f 5/261/10 120/262/128 121/263/129 4/264/2
f 4/265/2 121/266/129 122/267/130 6/268/3
f 62/269/6 119/270/131 120/271/132 5/272/7
f 6/273/63 122/274/133 119/275/131 62/276/6
