# Blender v2.93.5 OBJ File: 'Modular Graveyard.blend'
# www.blender.org
mtllib LowRailingOpen2A.mtl
o LowRailingOpen2A_Circle.016
v 2.000203 0.359053 0.018813
v 2.000203 0.386990 0.000142
v 2.000203 0.331116 0.000142
v 0.001897 0.359053 0.018813
v 0.001897 0.386990 0.000142
v 0.001897 0.331116 0.000142
v 0.219479 0.494248 0.030940
v 0.238377 0.800285 0.000107
v 0.219479 0.494248 -0.030726
v 0.283987 0.494248 0.030940
v 0.265089 0.800285 0.000107
v 0.283987 0.494248 -0.030726
v 0.177880 0.577323 0.000107
v 0.325586 0.577323 0.000107
v 0.251733 0.588476 0.052207
v 0.251733 0.588476 -0.051993
v 0.750520 0.588476 -0.051993
v 0.750520 0.588476 0.052207
v 0.824373 0.577323 0.000107
v 0.676667 0.577323 0.000107
v 0.782774 0.494248 -0.030726
v 0.763876 0.800285 0.000107
v 0.782774 0.494248 0.030940
v 0.718266 0.494248 -0.030726
v 0.737164 0.800285 0.000107
v 0.718266 0.494248 0.030940
v 0.467667 0.494248 0.030940
v 0.486565 0.800285 0.000107
v 0.467667 0.494248 -0.030726
v 0.532174 0.494248 0.030940
v 0.513276 0.800285 0.000107
v 0.532174 0.494248 -0.030726
v 0.426068 0.577323 0.000107
v 0.573773 0.577323 0.000107
v 0.499920 0.588476 0.052207
v 0.499920 0.588476 -0.051993
v 0.221216 -0.002187 0.000000
v 0.221216 0.501030 0.000000
v 0.251610 -0.002187 -0.030394
v 0.251610 0.501030 -0.030394
v 0.251610 -0.002187 0.030394
v 0.251610 0.501030 0.030394
v 0.282003 -0.002187 0.000000
v 0.282003 0.501030 0.000000
v 0.469596 -0.002187 0.000000
v 0.469596 0.501030 0.000000
v 0.499990 -0.002187 -0.030394
v 0.499990 0.501030 -0.030394
v 0.499990 -0.002187 0.030394
v 0.499990 0.501030 0.030394
v 0.530384 -0.002187 0.000000
v 0.530384 0.501030 0.000000
v 0.720086 -0.002187 0.000000
v 0.720086 0.501030 0.000000
v 0.750480 -0.002187 -0.030394
v 0.750480 0.501030 -0.030394
v 0.750480 -0.002187 0.030394
v 0.750480 0.501030 0.030394
v 0.780873 -0.002187 0.000000
v 0.780873 0.501030 0.000000
v 2.000203 0.359053 -0.018117
v 0.001897 0.359053 -0.018117
v 1.000894 0.588476 -0.051993
v 1.000894 0.588476 0.052207
v 1.074747 0.577323 0.000107
v 0.927041 0.577323 0.000107
v 1.033148 0.494248 -0.030726
v 1.014250 0.800285 0.000107
v 1.033148 0.494248 0.030940
v 0.968640 0.494248 -0.030726
v 0.987538 0.800285 0.000107
v 0.968640 0.494248 0.030940
v 0.970460 -0.002187 0.000000
v 0.970460 0.501030 0.000000
v 1.000853 -0.002187 -0.030394
v 1.000853 0.501030 -0.030394
v 1.000853 -0.002187 0.030394
v 1.000853 0.501030 0.030394
v 1.031247 -0.002187 0.000000
v 1.031247 0.501030 0.000000
v 1.219479 0.494248 0.030940
v 1.238377 0.800285 0.000107
v 1.219479 0.494248 -0.030726
v 1.283987 0.494248 0.030940
v 1.265089 0.800285 0.000107
v 1.283987 0.494248 -0.030726
v 1.177880 0.577323 0.000107
v 1.325586 0.577323 0.000107
v 1.251733 0.588476 0.052207
v 1.251733 0.588476 -0.051993
v 1.750520 0.588476 -0.051993
v 1.750520 0.588476 0.052207
v 1.824373 0.577323 0.000107
v 1.676667 0.577323 0.000107
v 1.782774 0.494248 -0.030726
v 1.763876 0.800285 0.000107
v 1.782774 0.494248 0.030940
v 1.718266 0.494248 -0.030726
v 1.737164 0.800285 0.000107
v 1.718266 0.494248 0.030940
v 1.467667 0.494248 0.030940
v 1.486565 0.800285 0.000107
v 1.467667 0.494248 -0.030726
v 1.532174 0.494248 0.030940
v 1.513276 0.800285 0.000107
v 1.532174 0.494248 -0.030726
v 1.426068 0.577323 0.000107
v 1.573773 0.577323 0.000107
v 1.499920 0.588476 0.052207
v 1.499920 0.588476 -0.051993
v 1.221216 -0.002187 0.000000
v 1.221216 0.501030 0.000000
v 1.251610 -0.002187 -0.030394
v 1.251610 0.501030 -0.030394
v 1.251610 -0.002187 0.030394
v 1.251610 0.501030 0.030394
v 1.282003 -0.002187 0.000000
v 1.282003 0.501030 0.000000
v 1.469596 -0.002187 0.000000
v 1.469596 0.501030 0.000000
v 1.499990 -0.002187 -0.030394
v 1.499990 0.501030 -0.030394
v 1.499990 -0.002187 0.030394
v 1.499990 0.501030 0.030394
v 1.530384 -0.002187 0.000000
v 1.530384 0.501030 0.000000
v 1.720086 -0.002187 0.000000
v 1.720086 0.501030 0.000000
v 1.750480 -0.002187 -0.030394
v 1.750480 0.501030 -0.030394
v 1.750480 -0.002187 0.030394
v 1.750480 0.501030 0.030394
v 1.780873 -0.002187 0.000000
v 1.780873 0.501030 0.000000
vt 0.843750 0.328125
vt 0.843750 0.492188
vt 0.828125 0.492188
vt 0.828125 0.328125
vt 0.843750 0.328125
vt 0.843750 0.492188
vt 0.828125 0.492188
vt 0.828125 0.328125
vt 0.843750 0.328125
vt 0.843750 0.492188
vt 0.828125 0.492188
vt 0.828125 0.328125
vt 0.867188 0.484375
vt 0.867188 0.503906
vt 0.867188 0.503906
vt 0.867188 0.484375
vt 0.851562 0.484375
vt 0.882812 0.402344
vt 0.859375 0.421875
vt 0.859375 0.402344
vt 0.859375 0.472656
vt 0.882812 0.472656
vt 0.890625 0.484375
vt 0.859375 0.472656
vt 0.882812 0.472656
vt 0.859375 0.402344
vt 0.882812 0.402344
vt 0.859375 0.421875
vt 0.843750 0.503906
vt 0.828125 0.503906
vt 0.828125 0.492188
vt 0.843750 0.492188
vt 0.843750 0.503906
vt 0.828125 0.503906
vt 0.828125 0.492188
vt 0.843750 0.492188
vt 0.859375 0.472656
vt 0.882812 0.472656
vt 0.867188 0.484375
vt 0.882812 0.472656
vt 0.859375 0.472656
vt 0.867188 0.484375
vt 0.851562 0.484375
vt 0.867188 0.503906
vt 0.867188 0.503906
vt 0.859375 0.402344
vt 0.882812 0.402344
vt 0.859375 0.421875
vt 0.890625 0.484375
vt 0.882812 0.402344
vt 0.859375 0.421875
vt 0.859375 0.402344
vt 0.867188 0.484375
vt 0.867188 0.503906
vt 0.867188 0.503906
vt 0.867188 0.484375
vt 0.851562 0.484375
vt 0.882812 0.402344
vt 0.859375 0.421875
vt 0.859375 0.402344
vt 0.859375 0.472656
vt 0.882812 0.472656
vt 0.890625 0.484375
vt 0.859375 0.472656
vt 0.882812 0.472656
vt 0.859375 0.402344
vt 0.882812 0.402344
vt 0.859375 0.421875
vt 0.843750 0.503906
vt 0.828125 0.503906
vt 0.828125 0.492188
vt 0.843750 0.492188
vt 0.843750 0.328125
vt 0.843750 0.492188
vt 0.828125 0.492188
vt 0.828125 0.328125
vt 0.843750 0.328125
vt 0.843750 0.492188
vt 0.828125 0.492188
vt 0.828125 0.328125
vt 0.843750 0.328125
vt 0.843750 0.492188
vt 0.828125 0.492188
vt 0.828125 0.328125
vt 0.843750 0.328125
vt 0.843750 0.492188
vt 0.828125 0.492188
vt 0.828125 0.328125
vt 0.843750 0.328125
vt 0.843750 0.492188
vt 0.828125 0.492188
vt 0.828125 0.328125
vt 0.843750 0.328125
vt 0.843750 0.492188
vt 0.828125 0.492188
vt 0.828125 0.328125
vt 0.843750 0.328125
vt 0.843750 0.492188
vt 0.828125 0.492188
vt 0.828125 0.328125
vt 0.843750 0.328125
vt 0.843750 0.492188
vt 0.828125 0.492188
vt 0.828125 0.328125
vt 0.843750 0.328125
vt 0.843750 0.492188
vt 0.828125 0.492188
vt 0.828125 0.328125
vt 0.843750 0.328125
vt 0.843750 0.492188
vt 0.828125 0.492188
vt 0.828125 0.328125
vt 0.843750 0.328125
vt 0.843750 0.492188
vt 0.828125 0.492188
vt 0.828125 0.328125
vt 0.843750 0.328125
vt 0.843750 0.492188
vt 0.828125 0.492188
vt 0.828125 0.328125
vt 0.843750 0.328125
vt 0.843750 0.492188
vt 0.828125 0.492188
vt 0.828125 0.328125
vt 0.843750 0.503906
vt 0.828125 0.503906
vt 0.828125 0.492188
vt 0.843750 0.492188
vt 0.859375 0.472656
vt 0.882812 0.472656
vt 0.867188 0.484375
vt 0.882812 0.472656
vt 0.859375 0.472656
vt 0.867188 0.484375
vt 0.851562 0.484375
vt 0.867188 0.503906
vt 0.867188 0.503906
vt 0.859375 0.402344
vt 0.882812 0.402344
vt 0.859375 0.421875
vt 0.890625 0.484375
vt 0.882812 0.402344
vt 0.859375 0.421875
vt 0.859375 0.402344
vt 0.843750 0.328125
vt 0.843750 0.492188
vt 0.828125 0.492188
vt 0.828125 0.328125
vt 0.843750 0.328125
vt 0.843750 0.492188
vt 0.828125 0.492188
vt 0.828125 0.328125
vt 0.843750 0.328125
vt 0.843750 0.492188
vt 0.828125 0.492188
vt 0.828125 0.328125
vt 0.843750 0.328125
vt 0.843750 0.492188
vt 0.828125 0.492188
vt 0.828125 0.328125
vt 0.867188 0.484375
vt 0.867188 0.503906
vt 0.867188 0.503906
vt 0.867188 0.484375
vt 0.851562 0.484375
vt 0.882812 0.402344
vt 0.859375 0.421875
vt 0.859375 0.402344
vt 0.859375 0.472656
vt 0.882812 0.472656
vt 0.890625 0.484375
vt 0.859375 0.472656
vt 0.882812 0.472656
vt 0.859375 0.402344
vt 0.882812 0.402344
vt 0.859375 0.421875
vt 0.843750 0.503906
vt 0.828125 0.503906
vt 0.828125 0.492188
vt 0.843750 0.492188
vt 0.843750 0.503906
vt 0.828125 0.503906
vt 0.828125 0.492188
vt 0.843750 0.492188
vt 0.859375 0.472656
vt 0.882812 0.472656
vt 0.867188 0.484375
vt 0.882812 0.472656
vt 0.859375 0.472656
vt 0.867188 0.484375
vt 0.851562 0.484375
vt 0.867188 0.503906
vt 0.867188 0.503906
vt 0.859375 0.402344
vt 0.882812 0.402344
vt 0.859375 0.421875
vt 0.890625 0.484375
vt 0.882812 0.402344
vt 0.859375 0.421875
vt 0.859375 0.402344
vt 0.867188 0.484375
vt 0.867188 0.503906
vt 0.867188 0.503906
vt 0.867188 0.484375
vt 0.851562 0.484375
vt 0.882812 0.402344
vt 0.859375 0.421875
vt 0.859375 0.402344
vt 0.859375 0.472656
vt 0.882812 0.472656
vt 0.890625 0.484375
vt 0.859375 0.472656
vt 0.882812 0.472656
vt 0.859375 0.402344
vt 0.882812 0.402344
vt 0.859375 0.421875
vt 0.843750 0.503906
vt 0.828125 0.503906
vt 0.828125 0.492188
vt 0.843750 0.492188
vt 0.843750 0.328125
vt 0.843750 0.492188
vt 0.828125 0.492188
vt 0.828125 0.328125
vt 0.843750 0.328125
vt 0.843750 0.492188
vt 0.828125 0.492188
vt 0.828125 0.328125
vt 0.843750 0.328125
vt 0.843750 0.492188
vt 0.828125 0.492188
vt 0.828125 0.328125
vt 0.843750 0.328125
vt 0.843750 0.492188
vt 0.828125 0.492188
vt 0.828125 0.328125
vt 0.843750 0.328125
vt 0.843750 0.492188
vt 0.828125 0.492188
vt 0.828125 0.328125
vt 0.843750 0.328125
vt 0.843750 0.492188
vt 0.828125 0.492188
vt 0.828125 0.328125
vt 0.843750 0.328125
vt 0.843750 0.492188
vt 0.828125 0.492188
vt 0.828125 0.328125
vt 0.843750 0.328125
vt 0.843750 0.492188
vt 0.828125 0.492188
vt 0.828125 0.328125
vt 0.843750 0.328125
vt 0.843750 0.492188
vt 0.828125 0.492188
vt 0.828125 0.328125
vt 0.843750 0.328125
vt 0.843750 0.492188
vt 0.828125 0.492188
vt 0.828125 0.328125
vt 0.843750 0.328125
vt 0.843750 0.492188
vt 0.828125 0.492188
vt 0.828125 0.328125
vt 0.843750 0.328125
vt 0.843750 0.492188
vt 0.828125 0.492188
vt 0.828125 0.328125
vn 0.0000 -0.0000 1.0000
vn 0.0000 -0.5557 0.8314
vn -0.0000 -0.0000 -1.0000
vn -0.0000 0.5471 -0.8371
vn 0.0000 0.5557 0.8314
vn 0.0000 0.0806 -0.9967
vn -0.1277 0.2293 -0.9649
vn 0.1277 0.2293 -0.9649
vn 0.0000 0.0806 0.9967
vn -0.1277 0.2293 0.9649
vn -0.9992 0.0407 0.0000
vn -0.4717 -0.6779 0.5638
vn -0.4717 -0.6779 -0.5638
vn 0.4717 -0.6779 -0.5638
vn 0.9992 0.0407 0.0000
vn 0.4717 -0.6779 0.5638
vn 0.1277 0.2293 0.9649
vn -0.0000 0.0806 -0.9968
vn -0.7071 0.0000 -0.7071
vn 0.7071 0.0000 -0.7071
vn 0.7071 0.0000 0.7071
vn -0.7071 0.0000 0.7071
vn 1.0000 0.0000 0.0000
vn -0.0000 -0.5471 -0.8371
usemtl Material.001
s 1
f 1/1/1 4/2/1 6/3/2 3/4/2
f 61/5/3 62/6/3 5/7/4 2/8/4
f 2/9/5 5/10/5 4/11/1 1/12/1
f 16/13/6 8/14/7 11/15/8
f 15/16/9 8/14/10 13/17/11
f 7/18/12 13/19/11 9/20/13
f 7/21/12 15/16/9 13/17/11
f 12/22/14 16/13/6 14/23/15
f 14/23/15 16/13/6 11/15/8
f 9/24/13 13/17/11 16/13/6
f 10/25/16 14/23/15 15/16/9
f 14/23/15 11/15/17 15/16/9
f 10/26/16 12/27/14 14/28/15
f 11/15/17 8/14/10 15/16/9
f 13/17/11 8/14/7 16/13/6
f 12/22/14 9/24/13 16/13/6
f 7/21/12 10/25/16 15/16/9
f 12/29/14 10/30/16 7/31/12 9/32/13
f 21/33/14 23/34/16 26/35/12 24/36/13
f 26/37/12 23/38/16 18/39/9
f 21/40/14 24/41/13 17/42/6
f 20/43/11 25/44/7 17/42/6
f 22/45/17 25/44/10 18/39/9
f 23/46/16 21/47/14 19/48/15
f 19/49/15 22/45/17 18/39/9
f 23/38/16 19/49/15 18/39/9
f 24/41/13 20/43/11 17/42/6
f 19/49/15 17/42/6 22/45/8
f 21/40/14 17/42/6 19/49/15
f 26/37/12 18/39/9 20/43/11
f 26/50/12 20/51/11 24/52/13
f 18/39/9 25/44/10 20/43/11
f 17/42/6 25/44/7 22/45/8
f 36/53/18 28/54/7 31/55/8
f 35/56/9 28/54/10 33/57/11
f 27/58/12 33/59/11 29/60/13
f 27/61/12 35/56/9 33/57/11
f 32/62/14 36/53/18 34/63/15
f 34/63/15 36/53/18 31/55/8
f 29/64/13 33/57/11 36/53/18
f 30/65/16 34/63/15 35/56/9
f 34/63/15 31/55/17 35/56/9
f 30/66/16 32/67/14 34/68/15
f 31/55/17 28/54/10 35/56/9
f 33/57/11 28/54/7 36/53/18
f 32/62/14 29/64/13 36/53/18
f 27/61/12 30/65/16 35/56/9
f 32/69/14 30/70/16 27/71/12 29/72/13
f 37/73/19 38/74/19 40/75/3 39/76/3
f 39/77/3 40/78/3 44/79/20 43/80/20
f 43/81/21 44/82/21 42/83/1 41/84/1
f 41/85/1 42/86/1 38/87/22 37/88/22
f 45/89/19 46/90/19 48/91/3 47/92/3
f 47/93/3 48/94/3 52/95/23 51/96/23
f 51/97/23 52/98/23 50/99/1 49/100/1
f 49/101/1 50/102/1 46/103/22 45/104/22
f 53/105/19 54/106/19 56/107/3 55/108/3
f 55/109/3 56/110/3 60/111/23 59/112/23
f 59/113/23 60/114/23 58/115/1 57/116/1
f 57/117/1 58/118/1 54/119/22 53/120/22
f 3/121/24 6/122/24 62/123/3 61/124/3
f 67/125/14 69/126/16 72/127/12 70/128/13
f 72/129/12 69/130/16 64/131/9
f 67/132/14 70/133/13 63/134/6
f 66/135/11 71/136/7 63/134/6
f 68/137/17 71/136/10 64/131/9
f 69/138/16 67/139/14 65/140/15
f 65/141/15 68/137/17 64/131/9
f 69/130/16 65/141/15 64/131/9
f 70/133/13 66/135/11 63/134/6
f 65/141/15 63/134/6 68/137/8
f 67/132/14 63/134/6 65/141/15
f 72/129/12 64/131/9 66/135/11
f 72/142/12 66/143/11 70/144/13
f 64/131/9 71/136/10 66/135/11
f 63/134/6 71/136/7 68/137/8
f 73/145/19 74/146/19 76/147/3 75/148/3
f 75/149/3 76/150/3 80/151/23 79/152/23
f 79/153/23 80/154/23 78/155/1 77/156/1
f 77/157/1 78/158/1 74/159/22 73/160/22
f 90/161/6 82/162/7 85/163/8
f 89/164/9 82/162/10 87/165/11
f 81/166/12 87/167/11 83/168/13
f 81/169/12 89/164/9 87/165/11
f 86/170/14 90/161/6 88/171/15
f 88/171/15 90/161/6 85/163/8
f 83/172/13 87/165/11 90/161/6
f 84/173/16 88/171/15 89/164/9
f 88/171/15 85/163/17 89/164/9
f 84/174/16 86/175/14 88/176/15
f 85/163/17 82/162/10 89/164/9
f 87/165/11 82/162/7 90/161/6
f 86/170/14 83/172/13 90/161/6
f 81/169/12 84/173/16 89/164/9
f 86/177/14 84/178/16 81/179/12 83/180/13
f 95/181/14 97/182/16 100/183/12 98/184/13
f 100/185/12 97/186/16 92/187/9
f 95/188/14 98/189/13 91/190/6
f 94/191/11 99/192/7 91/190/6
f 96/193/17 99/192/10 92/187/9
f 97/194/16 95/195/14 93/196/15
f 93/197/15 96/193/17 92/187/9
f 97/186/16 93/197/15 92/187/9
f 98/189/13 94/191/11 91/190/6
f 93/197/15 91/190/6 96/193/8
f 95/188/14 91/190/6 93/197/15
f 100/185/12 92/187/9 94/191/11
f 100/198/12 94/199/11 98/200/13
f 92/187/9 99/192/10 94/191/11
f 91/190/6 99/192/7 96/193/8
f 110/201/18 102/202/7 105/203/8
f 109/204/9 102/202/10 107/205/11
f 101/206/12 107/207/11 103/208/13
f 101/209/12 109/204/9 107/205/11
f 106/210/14 110/201/18 108/211/15
f 108/211/15 110/201/18 105/203/8
f 103/212/13 107/205/11 110/201/18
f 104/213/16 108/211/15 109/204/9
f 108/211/15 105/203/17 109/204/9
f 104/214/16 106/215/14 108/216/15
f 105/203/17 102/202/10 109/204/9
f 107/205/11 102/202/7 110/201/18
f 106/210/14 103/212/13 110/201/18
f 101/209/12 104/213/16 109/204/9
f 106/217/14 104/218/16 101/219/12 103/220/13
f 111/221/19 112/222/19 114/223/3 113/224/3
f 113/225/3 114/226/3 118/227/23 117/228/23
f 117/229/23 118/230/23 116/231/1 115/232/1
f 115/233/1 116/234/1 112/235/22 111/236/22
f 119/237/19 120/238/19 122/239/3 121/240/3
f 121/241/3 122/242/3 126/243/23 125/244/23
f 125/245/23 126/246/23 124/247/1 123/248/1
f 123/249/1 124/250/1 120/251/22 119/252/22
f 127/253/19 128/254/19 130/255/3 129/256/3
f 129/257/3 130/258/3 134/259/23 133/260/23
f 133/261/23 134/262/23 132/263/1 131/264/1
f 131/265/1 132/266/1 128/267/22 127/268/22
