# Blender v2.93.5 OBJ File: 'Modular Graveyard.blend'
# www.blender.org
mtllib DirtGrass.mtl
o DirtGrass_Plane.010
v 0.426998 0.000000 1.261109
v -0.474717 0.000000 1.114247
v 0.437081 0.000000 -1.186750
v -0.484676 0.000000 -1.137686
v 0.000000 0.000000 1.329133
v 0.000000 0.000000 -1.329133
v -0.631763 0.000000 -0.683138
v -0.631763 0.000000 0.683138
v 0.631763 0.000000 0.683138
v 0.631763 0.000000 -0.683138
v 0.000000 0.112166 0.683138
v 0.000000 0.112166 -0.683138
vt 0.265625 0.945312
vt 0.375000 0.945312
vt 0.296875 0.976562
vt 0.375000 0.890625
vt 0.375000 0.929688
vt 0.296875 0.898438
vt 0.484375 0.992188
vt 0.375000 0.992188
vt 0.375000 0.882812
vt 0.484375 0.882812
vt 0.453125 0.976562
vt 0.375000 0.984375
vt 0.265625 0.992188
vt 0.265625 0.882812
vt 0.453125 0.898438
vt 0.484375 0.929688
vt 0.484375 0.945312
vt 0.265625 0.929688
vn -0.1747 0.9843 -0.0252
vn 0.0004 0.9983 -0.0580
vn -0.1213 0.9860 -0.1139
vn -0.0197 0.9850 0.1710
vn -0.0020 0.9984 0.0570
vn -0.1266 0.9850 0.1169
vn -0.1747 0.9842 0.0279
vn 0.1131 0.9861 -0.1214
vn -0.0044 0.9852 -0.1711
vn 0.1747 0.9842 0.0272
vn 0.1747 0.9842 -0.0293
vn 0.0972 0.9880 0.1199
usemtl Material.001
s 1
f 7/1/1 12/2/2 4/3/3
f 5/4/4 11/5/5 2/6/6
f 8/7/7 11/8/5 12/9/2 7/10/1
f 3/11/8 6/12/9 12/2/2
f 11/8/5 9/13/10 10/14/11 12/9/2
f 1/15/12 9/16/10 11/5/5
f 11/5/5 5/4/4 1/15/12
f 12/2/2 10/17/11 3/11/8
f 4/3/3 12/2/2 6/12/9
f 2/6/6 11/5/5 8/18/7
