# Blender v2.93.5 OBJ File: 'Modular Graveyard.blend'
# www.blender.org
mtllib Rock5.mtl
o Rock5_Cube_Cube.005
v -0.251968 -0.003178 0.281651
v -0.191119 0.410047 0.177617
v -0.243048 0.374421 -0.161725
v -0.284712 -0.003178 -0.227357
v 0.180988 0.328310 -0.154927
v 0.298673 -0.003178 -0.214286
v 0.198138 0.366268 0.164715
v 0.262912 -0.003178 0.275641
v 0.013796 0.398280 0.233862
v -0.019126 -0.003178 0.330096
vt 0.234375 0.753906
vt 0.234375 0.808594
vt 0.156250 0.808594
vt 0.156250 0.753906
vt 0.242188 0.753906
vt 0.242188 0.808594
vt 0.132812 0.808594
vt 0.132812 0.753906
vt 0.218750 0.753906
vt 0.218750 0.808594
vt 0.140625 0.808594
vt 0.140625 0.753906
vt 0.187500 0.753906
vt 0.187500 0.808594
vt 0.132812 0.808594
vt 0.132812 0.753906
vt 0.226562 0.800781
vt 0.156250 0.800781
vt 0.156250 0.781250
vt 0.226562 0.769531
vt 0.242188 0.753906
vt 0.242188 0.808594
vt 0.156250 0.769531
vn -0.9868 0.1324 0.0929
vn 0.0275 0.1764 -0.9839
vn 0.9675 0.2526 0.0104
vn -0.2183 0.2566 0.9416
vn 0.0890 0.9891 -0.1175
vn 0.1072 0.9855 -0.1315
vn 0.1072 0.9855 -0.1314
vn 0.1072 0.9855 -0.1313
vn 0.2640 0.2605 0.9287
vn 0.1291 0.9841 -0.1222
vn 0.1288 0.9842 -0.1216
vn 0.1292 0.9840 -0.1229
usemtl Material.001
s off
f 1/1/1 2/2/1 3/3/1 4/4/1
f 4/5/2 3/6/2 5/7/2 6/8/2
f 6/9/3 5/10/3 7/11/3 8/12/3
f 10/13/4 9/14/4 2/15/4 1/16/4
f 3/17/5 2/18/5 9/19/5
f 5/20/6 3/17/7 9/19/8
f 8/21/9 7/22/9 9/14/9 10/13/9
f 7/23/10 5/20/11 9/19/12
