# Blender v2.93.5 OBJ File: 'Modular Graveyard.blend'
# www.blender.org
mtllib Rock3.mtl
o Rock3_Cube_Cube.003
v -0.197067 -0.000733 0.279527
v -0.151420 0.365211 0.144815
v -0.044868 0.369815 -0.233319
v -0.132292 -0.000733 -0.280663
v 0.227177 0.417207 -0.160769
v 0.251876 -0.000733 -0.249134
v 0.143290 0.405492 0.210478
v 0.224499 -0.000733 0.302862
v -0.156743 0.352706 0.009390
v -0.260475 -0.000733 0.063214
v 0.223859 0.423061 0.016991
v 0.309638 -0.000733 0.006331
vt 0.195312 0.753906
vt 0.195312 0.808594
vt 0.156250 0.808594
vt 0.156250 0.753906
vt 0.242188 0.753906
vt 0.242188 0.808594
vt 0.132812 0.808594
vt 0.132812 0.753906
vt 0.179688 0.753906
vt 0.179688 0.808594
vt 0.140625 0.808594
vt 0.140625 0.753906
vt 0.242188 0.753906
vt 0.242188 0.808594
vt 0.132812 0.808594
vt 0.132812 0.753906
vt 0.195312 0.769531
vt 0.195312 0.800781
vt 0.156250 0.800781
vt 0.156250 0.769531
vt 0.226562 0.769531
vt 0.226562 0.800781
vt 0.218750 0.753906
vt 0.218750 0.808594
vt 0.234375 0.753906
vt 0.234375 0.808594
vn -0.9020 0.2349 -0.3623
vn 0.1437 0.1568 -0.9771
vn 0.9223 0.2170 0.3197
vn -0.1337 0.2739 0.9524
vn -0.1594 0.9870 -0.0213
vn -0.1749 0.9843 -0.0216
vn 0.9817 0.1436 -0.1253
vn -0.9533 0.2445 0.1776
usemtl Material.001
s off
f 10/1/1 9/2/1 3/3/1 4/4/1
f 4/5/2 3/6/2 5/7/2 6/8/2
f 12/9/3 11/10/3 7/11/3 8/12/3
f 8/13/4 7/14/4 2/15/4 1/16/4
f 11/17/5 9/18/5 2/19/5 7/20/5
f 5/21/6 3/22/6 9/18/6 11/17/6
f 6/23/7 5/24/7 11/10/7 12/9/7
f 1/25/8 2/26/8 9/2/8 10/1/8
