# Blender v2.93.5 OBJ File: 'Modular Graveyard.blend'
# www.blender.org
mtllib Rock1.mtl
o Rock1_Cube_Cube.001
v -0.258051 -0.000733 0.287211
v -0.203481 0.392726 0.161226
v -0.166433 0.412349 -0.197413
v -0.242092 -0.000733 -0.251525
v 0.216726 0.383971 -0.179893
v 0.288274 -0.000733 -0.255145
v 0.202472 0.366615 0.193147
v 0.295168 -0.000733 0.292858
vt 0.234375 0.753906
vt 0.234375 0.808594
vt 0.156250 0.808594
vt 0.156250 0.753906
vt 0.242188 0.753906
vt 0.242188 0.808594
vt 0.132812 0.808594
vt 0.132812 0.753906
vt 0.218750 0.753906
vt 0.218750 0.808594
vt 0.140625 0.808594
vt 0.140625 0.753906
vt 0.242188 0.753906
vt 0.242188 0.808594
vt 0.132812 0.808594
vt 0.132812 0.753906
vt 0.226562 0.769531
vt 0.226562 0.800781
vt 0.156250 0.800781
vt 0.156250 0.769531
vn -0.9865 0.1544 -0.0549
vn 0.0200 0.1599 -0.9869
vn 0.9768 0.2137 0.0118
vn -0.0298 0.2829 0.9587
vn 0.0654 0.9963 0.0549
usemtl Material.001
s off
f 1/1/1 2/2/1 3/3/1 4/4/1
f 4/5/2 3/6/2 5/7/2 6/8/2
f 6/9/3 5/10/3 7/11/3 8/12/3
f 8/13/4 7/14/4 2/15/4 1/16/4
f 5/17/5 3/18/5 2/19/5 7/20/5
