# Blender v2.93.5 OBJ File: 'Modular Graveyard.blend'
# www.blender.org
mtllib Rock6.mtl
o Rock6_Cube_Cube.006
v -0.191593 -0.004500 0.283369
v -0.150564 0.369843 0.149688
v -0.142004 0.323706 -0.222654
v -0.231346 -0.004500 -0.271344
v 0.216987 0.391053 -0.169671
v 0.272983 -0.004500 -0.257310
v 0.118577 0.437882 0.206056
v 0.204279 -0.004500 0.299244
v -0.263329 0.374498 -0.007544
v -0.324264 -0.004500 0.048649
v 0.196378 0.408887 0.046473
v 0.287153 -0.004500 0.030453
vt 0.195312 0.753906
vt 0.195312 0.808594
vt 0.156250 0.808594
vt 0.156250 0.753906
vt 0.242188 0.753906
vt 0.242188 0.808594
vt 0.132812 0.808594
vt 0.132812 0.753906
vt 0.179688 0.753906
vt 0.179688 0.808594
vt 0.140625 0.808594
vt 0.140625 0.753906
vt 0.242188 0.753906
vt 0.242188 0.808594
vt 0.132812 0.808594
vt 0.132812 0.753906
vt 0.195312 0.769531
vt 0.195312 0.800781
vt 0.156250 0.800781
vt 0.156250 0.769531
vt 0.226562 0.769531
vt 0.226562 0.800781
vt 0.218750 0.753906
vt 0.218750 0.808594
vt 0.234375 0.753906
vt 0.234375 0.808594
vn -0.9054 0.1884 -0.3804
vn 0.0620 0.1820 -0.9813
vn 0.9183 0.2191 0.3296
vn -0.1304 0.2587 0.9571
vn -0.1297 0.9896 -0.0617
vn -0.0970 0.9775 -0.1875
vn 0.9841 0.1777 0.0063
vn -0.8212 0.2415 0.5171
usemtl Material.001
s off
f 10/1/1 9/2/1 3/3/1 4/4/1
f 4/5/2 3/6/2 5/7/2 6/8/2
f 12/9/3 11/10/3 7/11/3 8/12/3
f 8/13/4 7/14/4 2/15/4 1/16/4
f 11/17/5 9/18/5 2/19/5 7/20/5
f 5/21/6 3/22/6 9/18/6 11/17/6
f 6/23/7 5/24/7 11/10/7 12/9/7
f 1/25/8 2/26/8 9/2/8 10/1/8
