# Blender v2.93.5 OBJ File: 'Modular Graveyard.blend'
# www.blender.org
mtllib Rock2.mtl
o Rock2_Cube_Cube.002
v -0.258051 -0.000733 0.277382
v -0.192944 0.408784 0.176337
v -0.219819 0.386996 -0.118058
v -0.268197 -0.000733 -0.188401
v 0.187005 0.335443 -0.188098
v 0.288274 -0.000733 -0.241097
v 0.204878 0.357434 0.165921
v 0.285378 -0.000733 0.279661
v 0.021388 0.392337 0.239131
v 0.006182 -0.000733 0.347660
vt 0.234375 0.753906
vt 0.234375 0.808594
vt 0.156250 0.808594
vt 0.156250 0.753906
vt 0.242188 0.753906
vt 0.242188 0.808594
vt 0.132812 0.808594
vt 0.132812 0.753906
vt 0.218750 0.753906
vt 0.218750 0.808594
vt 0.140625 0.808594
vt 0.140625 0.753906
vt 0.187500 0.753906
vt 0.187500 0.808594
vt 0.132812 0.808594
vt 0.132812 0.753906
vt 0.226562 0.800781
vt 0.156250 0.800781
vt 0.156250 0.781250
vt 0.226562 0.769531
vt 0.242188 0.753906
vt 0.242188 0.808594
vt 0.156250 0.769531
vn -0.9888 0.1425 0.0441
vn -0.1164 0.1585 -0.9805
vn 0.9676 0.2513 -0.0229
vn -0.2495 0.2680 0.9306
vn 0.1003 0.9915 -0.0825
vn 0.1079 0.9901 -0.0899
vn 0.1079 0.9901 -0.0900
vn 0.1080 0.9901 -0.0900
vn 0.2992 0.2945 0.9076
vn 0.1641 0.9841 -0.0678
vn 0.1639 0.9842 -0.0672
vn 0.1643 0.9840 -0.0686
usemtl Material.001
s off
f 1/1/1 2/2/1 3/3/1 4/4/1
f 4/5/2 3/6/2 5/7/2 6/8/2
f 6/9/3 5/10/3 7/11/3 8/12/3
f 10/13/4 9/14/4 2/15/4 1/16/4
f 3/17/5 2/18/5 9/19/5
f 5/20/6 3/17/7 9/19/8
f 8/21/9 7/22/9 9/14/9 10/13/9
f 7/23/10 5/20/11 9/19/12
