# Blender v2.93.5 OBJ File: 'Modular Graveyard.blend'
# www.blender.org
mtllib Rock4.mtl
o Rock4_Cube_Cube.004
v -0.251968 -0.008742 0.291480
v -0.196791 0.397358 0.165922
v -0.168936 0.366241 -0.196538
v -0.245554 -0.008742 -0.251322
v 0.128310 0.357817 -0.140937
v 0.197513 -0.008742 -0.215280
v 0.167970 0.399005 0.185461
v 0.262912 -0.008742 0.285574
vt 0.234375 0.753906
vt 0.234375 0.808594
vt 0.156250 0.808594
vt 0.156250 0.753906
vt 0.242188 0.753906
vt 0.242188 0.808594
vt 0.132812 0.808594
vt 0.132812 0.753906
vt 0.218750 0.753906
vt 0.218750 0.808594
vt 0.140625 0.808594
vt 0.140625 0.753906
vt 0.242188 0.753906
vt 0.242188 0.808594
vt 0.132812 0.808594
vt 0.132812 0.753906
vt 0.226562 0.769531
vt 0.226562 0.800781
vt 0.156250 0.800781
vt 0.156250 0.769531
vn -0.9858 0.1624 -0.0429
vn 0.1230 0.1691 -0.9779
vn 0.9704 0.2013 -0.1333
vn -0.0154 0.2665 0.9637
vn 0.0221 0.9943 -0.1047
usemtl Material.001
s off
f 1/1/1 2/2/1 3/3/1 4/4/1
f 4/5/2 3/6/2 5/7/2 6/8/2
f 6/9/3 5/10/3 7/11/3 8/12/3
f 8/13/4 7/14/4 2/15/4 1/16/4
f 5/17/5 3/18/5 2/19/5 7/20/5
