# Blender v2.93.5 OBJ File: 'Modular Graveyard.blend'
# www.blender.org
mtllib RustyCircularTallRailing.mtl
o RustyCircularTallRailing_Circle.051
v -0.181015 0.359044 0.629854
v -0.194977 0.386982 0.619227
v -0.194977 0.331107 0.619227
v -0.851626 0.359044 1.018712
v -0.851914 0.386982 0.999605
v -0.851914 0.331107 0.999605
v -0.180998 2.259179 0.629848
v -0.194985 2.287116 0.619230
v -0.194985 2.231242 0.619230
v -0.851612 2.259179 1.018708
v -0.851901 2.287116 0.999601
v -0.851901 2.231242 0.999601
v -0.757418 2.394374 1.007629
v -0.746910 2.700411 0.973026
v -0.772975 2.394374 0.947958
v -0.694997 2.394374 0.991355
v -0.721062 2.700411 0.966287
v -0.710554 2.394374 0.931684
v -0.805450 2.477450 0.988288
v -0.662522 2.477450 0.951025
v -0.720842 2.488603 1.020071
v -0.747130 2.488603 0.919242
v -0.322393 2.488603 0.674987
v -0.248820 2.488603 0.748776
v -0.233308 2.477450 0.659736
v -0.337905 2.477450 0.764027
v -0.284536 2.394374 0.667274
v -0.276149 2.700411 0.702451
v -0.240996 2.394374 0.710942
v -0.330217 2.394374 0.712821
v -0.295065 2.700411 0.721312
v -0.286677 2.394374 0.756489
v -0.505814 2.394374 0.914248
v -0.504982 2.700411 0.878094
v -0.536821 2.394374 0.860945
v -0.450054 2.394374 0.881813
v -0.481893 2.700411 0.864663
v -0.481061 2.394374 0.828510
v -0.557275 2.477450 0.908513
v -0.429600 2.477450 0.834245
v -0.467241 2.488603 0.916414
v -0.519634 2.488603 0.826344
v -0.763543 0.055746 0.977252
v -0.763543 2.401156 0.977252
v -0.741800 0.055746 0.940174
v -0.741800 2.401156 0.940174
v -0.726464 0.055746 0.998995
v -0.726464 2.401156 0.998995
v -0.704722 0.055746 0.961916
v -0.704722 2.401156 0.961916
v -0.519703 0.055746 0.886534
v -0.519703 2.401156 0.886534
v -0.508714 0.055746 0.844979
v -0.508714 2.401156 0.844979
v -0.478149 0.055746 0.897524
v -0.478149 2.401156 0.897524
v -0.467159 0.055746 0.855969
v -0.467159 2.401156 0.855969
v -0.307234 0.055746 0.733295
v -0.307234 2.401156 0.733295
v -0.307171 0.055746 0.690312
v -0.307171 2.401156 0.690312
v -0.264251 0.055746 0.733358
v -0.264251 2.401156 0.733358
v -0.264188 0.055746 0.690375
v -0.264188 2.401156 0.690375
v -0.208771 2.259179 0.608843
v -0.851508 2.259179 0.980643
v -0.208850 0.359044 0.608870
v -0.851545 0.359045 0.980655
v -0.380011 2.231242 0.805482
v -0.367520 2.259179 0.820994
v -0.380011 2.287116 0.805482
v -0.391653 2.259179 0.790122
v -0.379978 0.331107 0.805471
v -0.367594 0.359044 0.821018
v -0.379978 0.386982 0.805471
v -0.391930 0.359044 0.790215
v -0.606172 2.231242 0.937036
v -0.606172 2.287116 0.937036
v -0.598961 2.259179 0.953864
v -0.612698 2.259179 0.919286
v -0.606331 0.331107 0.937085
v -0.606331 0.386982 0.937085
v -0.599182 0.359044 0.953935
v -0.613037 0.359044 0.919396
v -0.065141 2.231242 0.391777
v -0.046565 2.259179 0.398956
v -0.065141 2.287116 0.391777
v -0.082907 2.259179 0.384305
v -0.065118 0.331107 0.391751
v -0.046616 0.359044 0.399014
v -0.065118 0.386982 0.391751
v -0.083101 0.359044 0.384524
v -0.000861 2.231242 0.147296
v 0.019523 2.259179 0.147231
v -0.000861 2.287116 0.147296
v -0.020564 2.259179 0.146985
v -0.000846 0.331107 0.147266
v 0.019488 0.359044 0.147300
v -0.000846 0.386982 0.147266
v -0.020697 0.359044 0.147245
v -0.175473 2.488603 0.478782
v -0.084863 2.488603 0.530236
v -0.093699 2.477450 0.440288
v -0.166637 2.477450 0.568729
v -0.141052 2.394374 0.461236
v -0.123573 2.700411 0.492895
v -0.087430 2.394374 0.491687
v -0.172907 2.394374 0.517331
v -0.136763 2.700411 0.516123
v -0.119284 2.394374 0.547781
v -0.145290 0.055746 0.530921
v -0.145290 2.401156 0.530921
v -0.156711 0.055746 0.489483
v -0.156711 2.401156 0.489483
v -0.103851 0.055746 0.519500
v -0.103851 2.401156 0.519500
v -0.115272 0.055746 0.478062
v -0.115272 2.401156 0.478062
v -0.083554 2.488603 0.255607
v 0.017299 2.488603 0.281803
v -0.014561 2.477450 0.197224
v -0.051694 2.477450 0.340186
v -0.054861 2.394374 0.229735
v -0.029770 2.700411 0.255778
v 0.004824 2.394374 0.245238
v -0.071079 2.394374 0.292172
v -0.036485 2.700411 0.281632
v -0.011394 2.394374 0.307674
v -0.040882 0.055746 0.298135
v -0.040882 2.401156 0.298135
v -0.062659 0.055746 0.261076
v -0.062659 2.401156 0.261076
v -0.003824 0.055746 0.276358
v -0.003824 2.401156 0.276358
v -0.025600 0.055746 0.239300
v -0.025600 2.401156 0.239300
v -0.181015 0.181307 0.629854
v -0.194977 0.209244 0.619227
v -0.194977 0.153370 0.619227
v -0.851626 0.181307 1.018712
v -0.851914 0.209244 0.999605
v -0.851914 0.153370 0.999605
v -0.208850 0.181307 0.608870
v -0.851545 0.181307 0.980655
v -0.379978 0.153370 0.805471
v -0.367594 0.181307 0.821018
v -0.379978 0.209244 0.805471
v -0.391930 0.181307 0.790215
v -0.606331 0.153370 0.937085
v -0.606331 0.209244 0.937085
v -0.599182 0.181307 0.953935
v -0.613037 0.181307 0.919396
v -0.065118 0.153370 0.391751
v -0.046616 0.181307 0.399014
v -0.065118 0.209244 0.391751
v -0.083101 0.181307 0.384524
v -0.000846 0.153370 0.147266
v 0.019488 0.181307 0.147300
v -0.000846 0.209244 0.147266
v -0.020697 0.181307 0.147245
v -0.181015 2.059008 0.629854
v -0.194977 2.086945 0.619227
v -0.194977 2.031071 0.619227
v -0.851626 2.059008 1.018712
v -0.851914 2.086945 0.999605
v -0.851914 2.031071 0.999605
v -0.208850 2.059008 0.608870
v -0.851545 2.059008 0.980655
v -0.379978 2.031071 0.805471
v -0.367594 2.059008 0.821018
v -0.379978 2.086945 0.805471
v -0.391930 2.059008 0.790215
v -0.606331 2.031071 0.937085
v -0.606331 2.086945 0.937085
v -0.599182 2.059008 0.953935
v -0.613037 2.059008 0.919396
v -0.065118 2.031071 0.391751
v -0.046616 2.059008 0.399014
v -0.065118 2.086945 0.391751
v -0.083101 2.059008 0.384524
v -0.000846 2.031071 0.147266
v 0.019488 2.059008 0.147300
v -0.000846 2.086945 0.147266
v -0.020697 2.059008 0.147245
vt 0.851562 0.085938
vt 0.851562 0.097656
vt 0.843750 0.097656
vt 0.843750 0.085938
vt 0.882812 0.152344
vt 0.890625 0.164062
vt 0.875000 0.164062
vt 0.875000 0.152344
vt 0.867188 0.085938
vt 0.875000 0.097656
vt 0.828125 0.085938
vt 0.828125 0.097656
vt 0.812500 0.097656
vt 0.812500 0.085938
vt 0.882812 0.210938
vt 0.890625 0.226562
vt 0.875000 0.230469
vt 0.875000 0.210938
vt 0.828125 0.085938
vt 0.828125 0.097656
vt 0.828125 0.222656
vt 0.828125 0.203125
vt 0.828125 0.203125
vt 0.851562 0.074219
vt 0.867188 0.054688
vt 0.867188 0.078125
vt 0.851562 0.085938
vt 0.867188 0.085938
vt 0.835938 0.187500
vt 0.835938 0.175781
vt 0.851562 0.175781
vt 0.851562 0.152344
vt 0.820312 0.234375
vt 0.812500 0.226562
vt 0.789062 0.085938
vt 0.773438 0.078125
vt 0.796875 0.074219
vt 0.796875 0.054688
vt 0.851562 0.187500
vt 0.796875 0.054688
vt 0.828125 0.234375
vt 0.796875 0.089844
vt 0.835938 0.093750
vt 0.851562 0.093750
vt 0.851562 0.093750
vt 0.835938 0.097656
vt 0.875000 0.234375
vt 0.890625 0.234375
vt 0.890625 0.234375
vt 0.875000 0.238281
vt 0.914062 0.171875
vt 0.921875 0.171875
vt 0.921875 0.179688
vt 0.820312 0.171875
vt 0.828125 0.171875
vt 0.828125 0.179688
vt 0.851562 0.066406
vt 0.851562 0.085938
vt 0.835938 0.066406
vt 0.921875 0.203125
vt 0.914062 0.203125
vt 0.843750 0.121094
vt 0.851562 0.121094
vt 0.851562 0.132812
vt 0.851562 0.148438
vt 0.835938 0.132812
vt 0.835938 0.054688
vt 0.812500 0.175781
vt 0.828125 0.203125
vt 0.898438 0.179688
vt 0.851562 0.054688
vt 0.828125 0.203125
vt 0.914062 0.152344
vt 0.937500 0.171875
vt 0.929688 0.171875
vt 0.789062 0.132812
vt 0.804688 0.148438
vt 0.773438 0.132812
vt 0.835938 0.265625
vt 0.835938 0.253906
vt 0.843750 0.265625
vt 0.781250 0.121094
vt 0.906250 0.136719
vt 0.898438 0.152344
vt 0.914062 0.136719
vt 0.937500 0.148438
vt 0.789062 0.121094
vt 0.812500 0.128906
vt 0.812500 0.148438
vt 0.843750 0.109375
vt 0.835938 0.109375
vt 0.835938 0.101562
vt 0.921875 0.242188
vt 0.937500 0.238281
vt 0.937500 0.246094
vt 0.921875 0.250000
vt 0.875000 0.042969
vt 0.875000 0.281250
vt 0.875000 0.281250
vt 0.875000 0.042969
vt 0.765625 0.277344
vt 0.765625 0.039062
vt 0.765625 0.039062
vt 0.765625 0.277344
vt 0.898438 0.042969
vt 0.898438 0.281250
vt 0.890625 0.281250
vt 0.890625 0.042969
vt 0.765625 0.277344
vt 0.765625 0.039062
vt 0.781250 0.039062
vt 0.781250 0.277344
vt 0.937500 0.042969
vt 0.937500 0.281250
vt 0.929688 0.281250
vt 0.929688 0.042969
vt 0.804688 0.277344
vt 0.804688 0.039062
vt 0.804688 0.039062
vt 0.804688 0.277344
vt 0.757812 0.039062
vt 0.757812 0.277344
vt 0.750000 0.277344
vt 0.750000 0.039062
vt 0.789062 0.277344
vt 0.789062 0.039062
vt 0.789062 0.039062
vt 0.789062 0.277344
vt 0.859375 0.042969
vt 0.859375 0.281250
vt 0.851562 0.281250
vt 0.851562 0.042969
vt 0.914062 0.281250
vt 0.914062 0.042969
vt 0.921875 0.042969
vt 0.921875 0.281250
vt 0.875000 0.042969
vt 0.875000 0.281250
vt 0.859375 0.281250
vt 0.859375 0.042969
vt 0.898438 0.281250
vt 0.898438 0.042969
vt 0.914062 0.042969
vt 0.914062 0.281250
vt 0.898438 0.210938
vt 0.898438 0.230469
vt 0.898438 0.152344
vt 0.898438 0.164062
vt 0.898438 0.191406
vt 0.898438 0.203125
vt 0.882812 0.203125
vt 0.882812 0.191406
vt 0.828125 0.062500
vt 0.828125 0.078125
vt 0.820312 0.078125
vt 0.828125 0.062500
vt 0.875000 0.203125
vt 0.875000 0.191406
vt 0.812500 0.078125
vt 0.812500 0.062500
vt 0.898438 0.125000
vt 0.898438 0.136719
vt 0.882812 0.136719
vt 0.882812 0.125000
vt 0.867188 0.062500
vt 0.867188 0.078125
vt 0.851562 0.078125
vt 0.851562 0.062500
vt 0.875000 0.136719
vt 0.875000 0.125000
vt 0.843750 0.078125
vt 0.843750 0.062500
vt 0.898438 0.175781
vt 0.890625 0.175781
vt 0.828125 0.050781
vt 0.828125 0.050781
vt 0.875000 0.175781
vt 0.812500 0.050781
vt 0.898438 0.117188
vt 0.890625 0.117188
vt 0.867188 0.050781
vt 0.851562 0.050781
vt 0.875000 0.117188
vt 0.843750 0.050781
vt 0.828125 0.238281
vt 0.828125 0.246094
vt 0.812500 0.246094
vt 0.812500 0.238281
vt 0.828125 0.039062
vt 0.828125 0.039062
vt 0.890625 0.167969
vt 0.875000 0.167969
vt 0.789062 0.093750
vt 0.789062 0.101562
vt 0.773438 0.101562
vt 0.773438 0.093750
vt 0.851562 0.234375
vt 0.851562 0.238281
vt 0.843750 0.238281
vt 0.843750 0.234375
vt 0.875000 0.039062
vt 0.851562 0.039062
vt 0.890625 0.105469
vt 0.875000 0.105469
vt 0.812500 0.093750
vt 0.812500 0.101562
vt 0.796875 0.101562
vt 0.796875 0.093750
vt 0.914062 0.242188
vt 0.914062 0.250000
vt 0.898438 0.246094
vt 0.898438 0.238281
vt 0.812500 0.222656
vt 0.828125 0.222656
vt 0.828125 0.230469
vt 0.914062 0.207031
vt 0.921875 0.207031
vt 0.921875 0.214844
vt 0.851562 0.195312
vt 0.851562 0.218750
vt 0.835938 0.195312
vt 0.828125 0.253906
vt 0.820312 0.253906
vt 0.835938 0.222656
vt 0.843750 0.222656
vt 0.851562 0.226562
vt 0.851562 0.253906
vt 0.835938 0.230469
vt 0.835938 0.187500
vt 0.898438 0.210938
vt 0.914062 0.238281
vt 0.804688 0.226562
vt 0.843750 0.187500
vt 0.921875 0.238281
vt 0.781250 0.042969
vt 0.781250 0.281250
vt 0.765625 0.281250
vt 0.765625 0.042969
vt 0.835938 0.281250
vt 0.835938 0.042969
vt 0.843750 0.042969
vt 0.843750 0.281250
vt 0.789062 0.042969
vt 0.789062 0.281250
vt 0.781250 0.281250
vt 0.781250 0.042969
vt 0.820312 0.281250
vt 0.820312 0.042969
vt 0.835938 0.042969
vt 0.835938 0.281250
vt 0.875000 0.246094
vt 0.875000 0.238281
vt 0.890625 0.238281
vt 0.890625 0.250000
vt 0.828125 0.218750
vt 0.812500 0.218750
vt 0.828125 0.210938
vt 0.828125 0.085938
vt 0.812500 0.085938
vt 0.828125 0.074219
vt 0.804688 0.078125
vt 0.820312 0.054688
vt 0.820312 0.187500
vt 0.828125 0.187500
vt 0.835938 0.187500
vt 0.812500 0.187500
vt 0.835938 0.175781
vt 0.804688 0.210938
vt 0.812500 0.175781
vt 0.835938 0.152344
vt 0.812500 0.148438
vt 0.812500 0.140625
vt 0.835938 0.144531
vt 0.835938 0.148438
vt 0.835938 0.121094
vt 0.828125 0.054688
vt 0.796875 0.281250
vt 0.796875 0.042969
vt 0.796875 0.042969
vt 0.796875 0.281250
vt 0.757812 0.281250
vt 0.757812 0.042969
vt 0.757812 0.042969
vt 0.757812 0.281250
vt 0.804688 0.281250
vt 0.804688 0.042969
vt 0.820312 0.042969
vt 0.820312 0.281250
vt 0.742188 0.281250
vt 0.742188 0.042969
vt 0.750000 0.042969
vt 0.750000 0.281250
vt 0.882812 0.085938
vt 0.890625 0.097656
vt 0.875000 0.097656
vt 0.875000 0.085938
vt 0.851562 0.152344
vt 0.851562 0.164062
vt 0.843750 0.164062
vt 0.843750 0.152344
vt 0.898438 0.085938
vt 0.898438 0.097656
vt 0.867188 0.152344
vt 0.875000 0.164062
vt 0.867188 0.125000
vt 0.867188 0.136719
vt 0.851562 0.136719
vt 0.851562 0.125000
vt 0.898438 0.062500
vt 0.898438 0.078125
vt 0.882812 0.078125
vt 0.882812 0.062500
vt 0.843750 0.136719
vt 0.843750 0.125000
vt 0.875000 0.078125
vt 0.875000 0.062500
vt 0.875000 0.117188
vt 0.851562 0.117188
vt 0.898438 0.050781
vt 0.882812 0.050781
vt 0.843750 0.117188
vt 0.875000 0.050781
vt 0.835938 0.101562
vt 0.835938 0.109375
vt 0.812500 0.109375
vt 0.812500 0.101562
vt 0.898438 0.039062
vt 0.890625 0.039062
vt 0.851562 0.105469
vt 0.843750 0.105469
vt 0.812500 0.101562
vt 0.812500 0.113281
vt 0.796875 0.109375
vt 0.796875 0.101562
vt 0.828125 0.156250
vt 0.828125 0.164062
vt 0.812500 0.164062
vt 0.812500 0.156250
vt 0.851562 0.210938
vt 0.851562 0.226562
vt 0.843750 0.230469
vt 0.843750 0.210938
vt 0.828125 0.156250
vt 0.828125 0.164062
vt 0.867188 0.210938
vt 0.875000 0.230469
vt 0.867188 0.191406
vt 0.867188 0.203125
vt 0.851562 0.203125
vt 0.851562 0.191406
vt 0.828125 0.128906
vt 0.828125 0.136719
vt 0.820312 0.136719
vt 0.828125 0.125000
vt 0.843750 0.203125
vt 0.843750 0.191406
vt 0.812500 0.136719
vt 0.812500 0.128906
vt 0.875000 0.175781
vt 0.851562 0.175781
vt 0.828125 0.117188
vt 0.828125 0.117188
vt 0.843750 0.175781
vt 0.812500 0.117188
vt 0.835938 0.093750
vt 0.835938 0.101562
vt 0.812500 0.101562
vt 0.812500 0.093750
vt 0.828125 0.105469
vt 0.828125 0.105469
vt 0.851562 0.167969
vt 0.843750 0.167969
vt 0.789062 0.101562
vt 0.789062 0.113281
vt 0.773438 0.109375
vt 0.773438 0.101562
vt 0.851562 0.242188
vt 0.851562 0.250000
vt 0.843750 0.246094
vt 0.843750 0.242188
vt 0.835938 0.242188
vt 0.835938 0.250000
vt 0.828125 0.250000
vt 0.828125 0.242188
vt 0.820312 0.250000
vt 0.820312 0.253906
vt 0.812500 0.253906
vt 0.812500 0.250000
vt 0.851562 0.242188
vt 0.867188 0.242188
vt 0.867188 0.246094
vt 0.851562 0.250000
vt 0.835938 0.238281
vt 0.828125 0.242188
vt 0.828125 0.238281
vt 0.835938 0.238281
vn 0.3775 -0.0000 0.9260
vn 0.2476 -0.0000 0.9689
vn 0.2070 -0.5488 0.8099
vn 0.3122 -0.5583 0.7687
vn -0.3801 0.0000 -0.9250
vn -0.2477 0.0000 -0.9688
vn -0.2064 0.5528 -0.8073
vn -0.3127 0.5606 -0.7668
vn 0.3122 0.5583 0.7687
vn 0.2070 0.5488 0.8099
vn 0.3778 -0.0000 0.9259
vn 0.2477 -0.0000 0.9688
vn 0.2071 -0.5487 0.8100
vn 0.3121 -0.5584 0.7686
vn -0.3806 -0.0000 -0.9247
vn -0.2478 -0.0000 -0.9688
vn -0.2064 0.5530 -0.8072
vn -0.3125 0.5601 -0.7672
vn 0.3121 0.5584 0.7686
vn 0.2071 0.5487 0.8100
vn -0.2515 0.0806 -0.9645
vn -0.3670 0.2293 -0.9015
vn -0.1199 0.2293 -0.9659
vn 0.2515 0.0806 0.9645
vn 0.1199 0.2293 0.9659
vn -0.9669 0.0407 0.2521
vn -0.3142 -0.6779 0.6646
vn -0.5987 -0.6779 -0.4266
vn 0.3142 -0.6779 -0.6646
vn 0.9669 0.0407 -0.2521
vn 0.5987 -0.6779 0.4266
vn 0.3670 0.2293 0.9015
vn -0.0641 -0.6779 -0.7323
vn 0.7321 -0.6779 0.0663
vn 0.0641 -0.6779 0.7323
vn -0.7321 -0.6779 -0.0663
vn 0.7038 0.0806 0.7058
vn -0.7038 0.0806 -0.7058
vn -0.7076 0.0407 0.7055
vn -0.7717 0.2293 -0.5932
vn 0.7717 0.2293 0.5932
vn 0.5909 0.2293 0.7735
vn 0.7076 0.0407 -0.7055
vn -0.5909 0.2293 -0.7735
vn -0.5012 0.0806 -0.8616
vn -0.5955 0.2293 -0.7699
vn -0.3748 0.2293 -0.8983
vn 0.5012 0.0806 0.8616
vn 0.3748 0.2293 0.8983
vn -0.8637 0.0407 0.5024
vn -0.1242 -0.6779 0.7245
vn -0.6912 -0.6779 -0.2502
vn 0.1242 -0.6779 -0.7245
vn 0.8637 0.0407 -0.5024
vn 0.6912 -0.6779 0.2502
vn 0.5955 0.2293 0.7699
vn -0.7901 -0.5774 0.2060
vn -0.9677 0.0000 0.2523
vn -0.8626 0.0000 -0.5058
vn -0.2060 -0.5774 -0.7901
vn 0.5058 0.0000 -0.8626
vn 0.7901 -0.5774 -0.2060
vn 0.8626 0.0000 0.5058
vn 0.2523 0.0000 0.9677
vn 0.2060 -0.5773 0.7901
vn -0.6836 -0.7071 -0.1808
vn -0.9668 0.0000 -0.2557
vn -0.4105 -0.5774 -0.7058
vn 0.2557 0.0000 -0.9668
vn 0.8644 0.0000 -0.5028
vn 0.7058 -0.5774 -0.4105
vn 0.5028 0.0000 0.8644
vn 0.4105 -0.5774 0.7058
vn -0.2557 0.0000 0.9668
vn -0.5782 -0.5774 0.5765
vn -1.0000 0.0000 -0.0015
vn -0.5765 -0.5774 -0.5782
vn 0.0015 0.0000 -1.0000
vn 0.7081 0.0000 -0.7061
vn 0.5782 -0.5774 -0.5765
vn 1.0000 0.0000 0.0015
vn 0.5765 -0.5774 0.5782
vn -0.0015 0.0000 1.0000
vn -0.3125 -0.5601 -0.7672
vn -0.2064 -0.5530 -0.8072
vn -0.3127 -0.5606 -0.7668
vn -0.2064 -0.5528 -0.8073
vn -0.6661 -0.5475 -0.5066
vn -0.5079 -0.5550 -0.6588
vn -0.6111 -0.0000 -0.7915
vn -0.7957 -0.0000 -0.6057
vn 0.6611 0.5568 0.5029
vn 0.5062 0.5611 0.6549
vn 0.6131 -0.0000 0.7900
vn 0.7960 -0.0000 0.6054
vn -0.5079 0.5550 -0.6588
vn -0.6661 0.5475 -0.5066
vn 0.5062 -0.5611 0.6549
vn 0.6611 -0.5568 0.5029
vn -0.6653 -0.5492 -0.5058
vn -0.5077 -0.5564 -0.6577
vn -0.6104 -0.0000 -0.7921
vn -0.7956 0.0000 -0.6059
vn 0.6614 0.5563 0.5031
vn 0.5065 0.5606 0.6551
vn 0.6128 -0.0000 0.7902
vn 0.7959 -0.0000 0.6054
vn -0.5077 0.5564 -0.6577
vn -0.6653 0.5492 -0.5058
vn 0.5065 -0.5606 0.6551
vn 0.6614 -0.5563 0.5031
vn -0.7685 -0.5576 -0.3136
vn -0.9263 -0.0000 -0.3768
vn 0.7602 0.5685 0.3144
vn 0.9249 -0.0000 0.3803
vn -0.7685 0.5576 -0.3136
vn 0.7602 -0.5686 0.3144
vn -0.7676 -0.5595 -0.3127
vn -0.9260 0.0000 -0.3776
vn 0.7606 0.5680 0.3144
vn 0.9248 -0.0000 0.3805
vn -0.7676 0.5595 -0.3127
vn 0.7606 -0.5680 0.3144
vn -0.7983 -0.5645 -0.2098
vn -0.9672 -0.0000 -0.2542
vn 0.7898 0.5772 0.2075
vn 0.9672 -0.0000 0.2541
vn -0.7983 0.5645 -0.2098
vn 0.7898 -0.5772 0.2075
vn -0.7968 -0.5667 -0.2095
vn -0.9671 0.0000 -0.2543
vn 0.7903 0.5764 0.2077
vn -0.7968 0.5667 -0.2095
vn 0.7903 -0.5764 0.2077
vn -0.2574 -0.6779 -0.6886
vn 0.7232 -0.6779 -0.1317
vn 0.2574 -0.6779 0.6886
vn -0.7232 -0.6779 0.1317
vn 0.8667 0.0806 0.4922
vn -0.8667 0.0806 -0.4922
vn -0.4934 0.0407 0.8689
vn -0.9021 0.2293 -0.3655
vn 0.9021 0.2293 0.3655
vn 0.7760 0.2293 0.5875
vn 0.4934 0.0407 -0.8689
vn -0.7760 0.2293 -0.5875
vn -0.6817 -0.7071 0.1879
vn -0.9641 0.0000 0.2657
vn -0.8696 0.0000 -0.4938
vn -0.7100 -0.5774 -0.4032
vn -0.2657 0.0000 -0.9641
vn 0.4032 -0.5774 -0.7100
vn 0.9641 0.0000 -0.2657
vn 0.8696 0.0000 0.4938
vn 0.7100 -0.5774 0.4032
vn 0.2657 0.0000 0.9641
vn -0.4272 -0.6779 -0.5983
vn 0.6643 -0.6779 -0.3148
vn 0.4272 -0.6779 0.5983
vn -0.6643 -0.6779 0.3148
vn 0.9647 0.0806 0.2506
vn -0.9647 0.0806 -0.2506
vn -0.2512 0.0407 0.9671
vn -0.9660 0.2293 -0.1190
vn 0.9660 0.2293 0.1190
vn 0.9019 0.2293 0.3662
vn 0.2512 0.0407 -0.9671
vn -0.9019 0.2293 -0.3662
vn -0.2053 -0.5773 0.7903
vn -0.8622 0.0000 0.5066
vn -0.9679 0.0000 -0.2514
vn -0.7903 -0.5774 -0.2053
vn 0.2514 0.0000 -0.9679
vn 0.2053 -0.5774 -0.7903
vn 0.8622 0.0000 -0.5066
vn 0.7903 -0.5774 0.2053
vn 0.5066 0.0000 0.8622
usemtl Material.001
s 1
f 85/1/1 4/2/2 6/3/3 83/4/4
f 86/5/5 70/6/6 5/7/7 84/8/8
f 84/9/9 5/10/10 4/2/2 85/1/1
f 81/11/11 10/12/12 12/13/13 79/14/14
f 82/15/15 68/16/16 11/17/17 80/18/18
f 80/19/19 11/20/20 10/12/12 81/11/11
f 22/21/21 14/22/22 17/23/23
f 21/24/24 14/25/25 19/26/26
f 13/27/27 19/26/26 15/28/28
f 13/27/27 21/24/24 19/26/26
f 18/29/29 22/30/21 20/31/30
f 20/31/30 22/30/21 17/32/23
f 15/33/28 19/34/26 22/21/21
f 16/35/31 20/36/30 21/37/24
f 20/36/30 17/38/32 21/37/24
f 16/39/31 18/29/29 20/31/30
f 17/38/32 14/40/25 21/37/24
f 19/34/26 14/22/22 22/21/21
f 18/41/29 15/33/28 22/21/21
f 13/42/27 16/35/31 21/37/24
f 18/43/29 16/44/31 13/45/27 15/46/28
f 27/47/33 29/48/34 32/49/35 30/50/36
f 32/51/35 29/52/34 24/53/37
f 27/54/33 30/55/36 23/56/38
f 26/57/39 31/58/40 23/59/38
f 28/60/41 31/61/42 24/53/37
f 29/62/34 27/63/33 25/64/43
f 25/64/43 28/65/41 24/66/37
f 29/62/34 25/64/43 24/66/37
f 30/67/36 26/57/39 23/59/38
f 25/68/43 23/56/38 28/69/44
f 27/54/33 23/56/38 25/68/43
f 32/51/35 24/53/37 26/70/39
f 32/71/35 26/57/39 30/67/36
f 24/53/37 31/61/42 26/70/39
f 23/56/38 31/72/40 28/69/44
f 42/73/45 34/74/46 37/75/47
f 41/76/48 34/77/49 39/78/50
f 33/79/51 39/80/50 35/81/52
f 33/82/51 41/76/48 39/78/50
f 38/83/53 42/73/45 40/84/54
f 40/84/54 42/73/45 37/75/47
f 35/85/52 39/86/50 42/73/45
f 36/87/55 40/88/54 41/76/48
f 40/88/54 37/89/56 41/76/48
f 36/90/55 38/91/53 40/92/54
f 37/89/56 34/77/49 41/76/48
f 39/86/50 34/74/46 42/73/45
f 38/83/53 35/85/52 42/73/45
f 33/82/51 36/87/55 41/76/48
f 38/93/53 36/94/55 33/95/51 35/96/52
f 43/97/57 44/98/58 46/99/59 45/100/60
f 45/101/60 46/102/61 50/103/61 49/104/62
f 49/105/62 50/106/63 48/107/64 47/108/65
f 47/109/65 48/110/64 44/111/58 43/112/57
f 51/113/66 52/114/67 54/115/67 53/116/68
f 53/117/68 54/118/69 58/119/70 57/120/71
f 57/121/71 58/122/70 56/123/72 55/124/73
f 55/125/73 56/126/72 52/127/74 51/128/74
f 59/129/75 60/130/76 62/131/76 61/132/77
f 61/133/77 62/134/78 66/135/79 65/136/80
f 65/137/80 66/138/79 64/139/81 63/140/82
f 63/141/82 64/142/83 60/143/83 59/144/75
f 79/145/84 12/146/85 68/16/16 82/15/15
f 83/147/86 6/148/87 70/6/6 86/5/5
f 9/149/88 71/150/89 74/151/90 67/152/91
f 8/153/92 73/154/93 72/155/94 7/156/95
f 67/152/91 74/151/90 73/157/96 8/158/97
f 7/156/95 72/155/94 71/159/98 9/160/99
f 3/161/100 75/162/101 78/163/102 69/164/103
f 2/165/104 77/166/105 76/167/106 1/168/107
f 69/164/103 78/163/102 77/169/108 2/170/109
f 1/168/107 76/167/106 75/171/110 3/172/111
f 71/150/89 79/145/84 82/15/15 74/151/90
f 73/154/93 80/19/19 81/11/11 72/155/94
f 74/151/90 82/15/15 80/18/18 73/157/96
f 72/155/94 81/11/11 79/14/14 71/159/98
f 75/162/101 83/147/86 86/5/5 78/163/102
f 77/166/105 84/9/9 85/1/1 76/167/106
f 78/163/102 86/5/5 84/8/8 77/169/108
f 76/167/106 85/1/1 83/4/4 75/171/110
f 87/173/112 9/149/88 67/152/91 90/174/113
f 89/175/114 8/153/92 7/156/95 88/176/115
f 90/174/113 67/152/91 8/158/97 89/177/116
f 88/176/115 7/156/95 9/160/99 87/178/117
f 91/179/118 3/161/100 69/164/103 94/180/119
f 93/181/120 2/165/104 1/168/107 92/182/121
f 94/180/119 69/164/103 2/170/109 93/183/122
f 92/182/121 1/168/107 3/172/111 91/184/123
f 95/185/124 87/186/112 90/187/113 98/188/125
f 97/189/126 89/175/114 88/176/115 96/190/127
f 98/191/125 90/174/113 89/177/116 97/192/128
f 96/193/127 88/194/115 87/195/117 95/196/129
f 99/197/130 91/198/118 94/199/119 102/200/131
f 101/201/132 93/181/120 92/182/121 100/202/127
f 102/203/131 94/180/119 93/183/122 101/204/133
f 100/205/127 92/206/121 91/207/123 99/208/134
f 107/209/135 109/210/136 112/211/137 110/212/138
f 112/213/137 109/214/136 104/215/139
f 107/216/135 110/217/138 103/218/140
f 106/219/141 111/220/142 103/221/140
f 108/222/143 111/223/144 104/215/139
f 109/224/136 107/225/135 105/226/145
f 105/226/145 108/227/143 104/228/139
f 109/224/136 105/226/145 104/228/139
f 110/229/138 106/219/141 103/221/140
f 105/230/145 103/218/140 108/231/146
f 107/216/135 103/218/140 105/230/145
f 112/213/137 104/215/139 106/232/141
f 112/233/137 106/219/141 110/229/138
f 104/215/139 111/223/144 106/232/141
f 103/218/140 111/234/142 108/231/146
f 113/235/147 114/236/148 116/237/149 115/238/150
f 115/239/150 116/240/149 120/241/151 119/242/152
f 119/243/152 120/244/153 118/245/154 117/246/155
f 117/247/155 118/248/154 114/249/156 113/250/156
f 125/251/157 127/252/158 130/253/159 128/254/160
f 130/255/159 127/256/158 122/257/161
f 125/258/157 128/259/160 121/260/162
f 124/261/163 129/262/164 121/260/162
f 126/263/165 129/264/166 122/257/161
f 127/265/158 125/266/157 123/267/167
f 123/268/167 126/263/165 122/257/161
f 127/256/158 123/268/167 122/257/161
f 128/259/160 124/261/163 121/260/162
f 123/267/167 121/269/162 126/270/168
f 125/266/157 121/269/162 123/267/167
f 130/271/159 122/272/161 124/273/163
f 130/271/159 124/273/163 128/274/160
f 122/272/161 129/275/166 124/273/163
f 121/260/162 129/262/164 126/276/168
f 131/277/169 132/278/170 134/279/171 133/280/172
f 133/281/172 134/282/171 138/283/173 137/284/174
f 137/285/174 138/286/173 136/287/175 135/288/176
f 135/289/176 136/290/177 132/291/177 131/292/169
f 153/293/1 142/294/2 144/295/3 151/296/4
f 154/297/5 146/298/6 143/299/7 152/300/8
f 152/301/9 143/302/10 142/294/2 153/293/1
f 151/303/86 144/304/87 146/298/6 154/297/5
f 141/305/100 147/306/101 150/307/102 145/308/103
f 140/309/104 149/310/105 148/311/106 139/312/107
f 145/308/103 150/307/102 149/313/108 140/314/109
f 139/312/107 148/311/106 147/315/110 141/316/111
f 147/306/101 151/303/86 154/297/5 150/307/102
f 149/310/105 152/301/9 153/293/1 148/311/106
f 150/307/102 154/297/5 152/300/8 149/313/108
f 148/311/106 153/293/1 151/296/4 147/315/110
f 155/317/118 141/305/100 145/308/103 158/318/119
f 157/319/120 140/309/104 139/312/107 156/320/121
f 158/318/119 145/308/103 140/314/109 157/321/122
f 156/320/121 139/312/107 141/316/111 155/322/123
f 159/323/130 155/324/118 158/325/119 162/326/131
f 161/327/132 157/319/120 156/320/121 160/328/127
f 162/329/131 158/318/119 157/321/122 161/330/133
f 160/331/127 156/332/121 155/333/123 159/334/134
f 177/335/1 166/336/2 168/337/3 175/338/4
f 178/339/5 170/340/6 167/341/7 176/342/8
f 176/343/9 167/344/10 166/336/2 177/335/1
f 175/345/86 168/346/87 170/340/6 178/339/5
f 165/347/100 171/348/101 174/349/102 169/350/103
f 164/351/104 173/352/105 172/353/106 163/354/107
f 169/350/103 174/349/102 173/355/108 164/356/109
f 163/354/107 172/353/106 171/357/110 165/358/111
f 171/348/101 175/345/86 178/339/5 174/349/102
f 173/352/105 176/343/9 177/335/1 172/353/106
f 174/349/102 178/339/5 176/342/8 173/355/108
f 172/353/106 177/335/1 175/338/4 171/357/110
f 179/359/118 165/347/100 169/350/103 182/360/119
f 181/361/120 164/351/104 163/354/107 180/362/121
f 182/360/119 169/350/103 164/356/109 181/363/122
f 180/362/121 163/354/107 165/358/111 179/364/123
f 183/365/130 179/366/118 182/367/119 186/368/131
f 185/369/132 181/361/120 180/362/121 184/370/127
f 186/371/131 182/360/119 181/363/122 185/372/133
f 184/373/127 180/374/121 179/375/123 183/376/134
f 45/377/60 49/378/62 47/379/65 43/380/57
f 53/381/68 57/382/71 55/383/73 51/384/66
f 61/385/77 65/386/80 63/387/82 59/388/75
f 113/389/147 115/390/150 119/391/152 117/392/155
f 131/393/169 133/394/172 137/395/174 135/396/176
