# Blender v2.93.5 OBJ File: 'Modular Graveyard.blend'
# www.blender.org
mtllib RustyTallRailing1.mtl
o RustyTallRailing1_Circle.027
v 0.850432 0.182211 0.018813
v 0.850432 0.210148 0.000142
v 0.850432 0.154274 0.000142
v 0.147868 0.182211 0.018813
v 0.147868 0.210148 0.000142
v 0.147868 0.154274 0.000142
v 0.850432 2.259053 0.018813
v 0.850432 2.286990 0.000142
v 0.850432 2.231116 0.000142
v 0.147868 2.259053 0.018813
v 0.147868 2.286990 0.000142
v 0.147868 2.231116 0.000142
v 0.219504 2.394248 0.030940
v 0.238402 2.700284 0.000107
v 0.219504 2.394248 -0.030726
v 0.284011 2.394248 0.030940
v 0.265113 2.700284 0.000107
v 0.284011 2.394248 -0.030726
v 0.177905 2.477323 0.000107
v 0.325610 2.477323 0.000107
v 0.251758 2.488476 0.052207
v 0.251758 2.488476 -0.051993
v 0.750520 2.488476 -0.051993
v 0.750520 2.488476 0.052207
v 0.824373 2.477323 0.000107
v 0.676667 2.477323 0.000107
v 0.782774 2.394248 -0.030726
v 0.763876 2.700284 0.000107
v 0.782774 2.394248 0.030940
v 0.718266 2.394248 -0.030726
v 0.737164 2.700284 0.000107
v 0.718266 2.394248 0.030940
v 0.467691 2.394248 0.030940
v 0.486589 2.700284 0.000107
v 0.467691 2.394248 -0.030726
v 0.532199 2.394248 0.030940
v 0.513301 2.700284 0.000107
v 0.532199 2.394248 -0.030726
v 0.426092 2.477323 0.000107
v 0.573798 2.477323 0.000107
v 0.499945 2.488476 0.052207
v 0.499945 2.488476 -0.051993
v 0.221241 0.055823 0.000000
v 0.221241 2.401030 0.000000
v 0.251634 0.055823 -0.030394
v 0.251634 2.401030 -0.030394
v 0.251634 0.055823 0.030394
v 0.251634 2.401030 0.030394
v 0.282028 0.055823 0.000000
v 0.282028 2.401030 0.000000
v 0.469621 0.055823 0.000000
v 0.469621 2.401030 0.000000
v 0.500015 0.055823 -0.030394
v 0.500015 2.401030 -0.030394
v 0.500015 0.055823 0.030394
v 0.500015 2.401030 0.030394
v 0.530409 0.055823 0.000000
v 0.530409 2.401030 0.000000
v 0.720085 0.055823 0.000000
v 0.720085 2.401030 0.000000
v 0.750479 0.055823 -0.030394
v 0.750479 2.401030 -0.030394
v 0.750479 0.055823 0.030394
v 0.750479 2.401030 0.030394
v 0.780873 0.055823 0.000000
v 0.780873 2.401030 0.000000
v 0.850432 2.259053 -0.018117
v 0.147868 2.259053 -0.018117
v 0.850432 0.182211 -0.018117
v 0.147868 0.182211 -0.018117
v 0.850432 2.059053 0.018813
v 0.850432 2.086990 0.000142
v 0.850432 2.031116 0.000142
v 0.147868 2.059053 0.018813
v 0.147868 2.086990 0.000142
v 0.147868 2.031116 0.000142
v 0.850432 2.059053 -0.018117
v 0.147868 2.059053 -0.018117
v 0.147868 0.359053 -0.018117
v 0.850432 0.359053 -0.018117
v 0.147868 0.331115 0.000142
v 0.147868 0.386990 0.000142
v 0.147868 0.359053 0.018813
v 0.850432 0.331115 0.000142
v 0.850432 0.386990 0.000142
v 0.850432 0.359053 0.018813
vt 0.843750 0.160156
vt 0.843750 0.265625
vt 0.835938 0.265625
vt 0.835938 0.160156
vt 0.828125 0.152344
vt 0.828125 0.046875
vt 0.835938 0.046875
vt 0.835938 0.152344
vt 0.859375 0.160156
vt 0.859375 0.265625
vt 0.812500 0.160156
vt 0.812500 0.265625
vt 0.804688 0.265625
vt 0.804688 0.160156
vt 0.914062 0.265625
vt 0.914062 0.160156
vt 0.921875 0.160156
vt 0.921875 0.265625
vt 0.828125 0.160156
vt 0.828125 0.265625
vt 0.867188 0.125000
vt 0.859375 0.105469
vt 0.867188 0.105469
vt 0.906250 0.113281
vt 0.906250 0.132812
vt 0.890625 0.113281
vt 0.843750 0.132812
vt 0.843750 0.125000
vt 0.851562 0.132812
vt 0.898438 0.105469
vt 0.882812 0.167969
vt 0.875000 0.156250
vt 0.890625 0.160156
vt 0.890625 0.136719
vt 0.914062 0.117188
vt 0.929688 0.125000
vt 0.906250 0.125000
vt 0.929688 0.148438
vt 0.890625 0.167969
vt 0.906250 0.132812
vt 0.867188 0.132812
vt 0.906250 0.105469
vt 0.773438 0.269531
vt 0.773438 0.277344
vt 0.765625 0.277344
vt 0.765625 0.269531
vt 0.882812 0.269531
vt 0.882812 0.277344
vt 0.867188 0.277344
vt 0.867188 0.269531
vt 0.890625 0.085938
vt 0.898438 0.085938
vt 0.898438 0.093750
vt 0.835938 0.132812
vt 0.828125 0.132812
vt 0.835938 0.125000
vt 0.820312 0.125000
vt 0.828125 0.105469
vt 0.898438 0.113281
vt 0.890625 0.113281
vt 0.859375 0.195312
vt 0.851562 0.195312
vt 0.867188 0.187500
vt 0.781250 0.210938
vt 0.781250 0.230469
vt 0.765625 0.210938
vt 0.765625 0.203125
vt 0.851562 0.187500
vt 0.867188 0.164062
vt 0.875000 0.093750
vt 0.820312 0.132812
vt 0.835938 0.105469
vt 0.937500 0.089844
vt 0.937500 0.066406
vt 0.937500 0.066406
vt 0.937500 0.113281
vt 0.937500 0.132812
vt 0.921875 0.113281
vt 0.921875 0.097656
vt 0.921875 0.089844
vt 0.929688 0.097656
vt 0.929688 0.105469
vt 0.828125 0.265625
vt 0.820312 0.253906
vt 0.835938 0.257812
vt 0.835938 0.234375
vt 0.851562 0.117188
vt 0.867188 0.125000
vt 0.851562 0.125000
vt 0.867188 0.148438
vt 0.835938 0.265625
vt 0.937500 0.132812
vt 0.937500 0.097656
vt 0.937500 0.105469
vt 0.859375 0.269531
vt 0.859375 0.277344
vt 0.843750 0.277344
vt 0.843750 0.269531
vt 0.867188 0.042969
vt 0.867188 0.273438
vt 0.859375 0.273438
vt 0.859375 0.042969
vt 0.804688 0.273438
vt 0.804688 0.042969
vt 0.812500 0.042969
vt 0.812500 0.273438
vt 0.867188 0.046875
vt 0.867188 0.277344
vt 0.859375 0.277344
vt 0.859375 0.046875
vt 0.929688 0.273438
vt 0.929688 0.042969
vt 0.937500 0.042969
vt 0.937500 0.273438
vt 0.812500 0.042969
vt 0.812500 0.273438
vt 0.804688 0.273438
vt 0.804688 0.042969
vt 0.867188 0.273438
vt 0.867188 0.042969
vt 0.882812 0.042969
vt 0.882812 0.273438
vt 0.851562 0.042969
vt 0.851562 0.273438
vt 0.843750 0.273438
vt 0.843750 0.042969
vt 0.859375 0.273438
vt 0.859375 0.042969
vt 0.859375 0.042969
vt 0.859375 0.273438
vt 0.851562 0.046875
vt 0.851562 0.277344
vt 0.843750 0.277344
vt 0.843750 0.046875
vt 0.890625 0.273438
vt 0.890625 0.042969
vt 0.898438 0.042969
vt 0.898438 0.273438
vt 0.750000 0.042969
vt 0.750000 0.273438
vt 0.742188 0.273438
vt 0.742188 0.042969
vt 0.890625 0.273438
vt 0.890625 0.042969
vt 0.898438 0.042969
vt 0.898438 0.273438
vt 0.898438 0.265625
vt 0.898438 0.160156
vt 0.812500 0.152344
vt 0.812500 0.046875
vt 0.781250 0.160156
vt 0.781250 0.265625
vt 0.765625 0.265625
vt 0.765625 0.160156
vt 0.757812 0.152344
vt 0.757812 0.046875
vt 0.773438 0.046875
vt 0.773438 0.152344
vt 0.789062 0.160156
vt 0.789062 0.265625
vt 0.750000 0.152344
vt 0.750000 0.046875
vt 0.890625 0.160156
vt 0.890625 0.265625
vt 0.882812 0.265625
vt 0.882812 0.160156
vt 0.789062 0.152344
vt 0.789062 0.046875
vt 0.804688 0.046875
vt 0.804688 0.152344
vt 0.781250 0.152344
vt 0.781250 0.046875
vt 0.867188 0.265625
vt 0.867188 0.160156
vt 0.929688 0.238281
vt 0.929688 0.234375
vt 0.937500 0.234375
vt 0.937500 0.238281
vt 0.929688 0.246094
vt 0.937500 0.246094
vt 0.937500 0.250000
vt 0.929688 0.250000
vt 0.898438 0.171875
vt 0.906250 0.175781
vt 0.906250 0.179688
vt 0.898438 0.175781
vn 0.0000 0.0000 1.0000
vn 0.0000 -0.5557 0.8314
vn -0.0000 0.0000 -1.0000
vn -0.0000 0.5471 -0.8371
vn 0.0000 0.5557 0.8314
vn 0.0000 0.0806 -0.9967
vn -0.1277 0.2293 -0.9649
vn 0.1277 0.2293 -0.9649
vn 0.0000 0.0806 0.9968
vn -0.1277 0.2293 0.9649
vn -0.9992 0.0407 0.0000
vn -0.4717 -0.6779 0.5638
vn -0.4717 -0.6779 -0.5638
vn 0.4717 -0.6779 -0.5638
vn 0.9992 0.0407 0.0000
vn 0.4717 -0.6779 0.5638
vn 0.1277 0.2293 0.9649
vn -0.0000 0.0806 0.9967
vn -0.8165 -0.5774 -0.0000
vn -1.0000 0.0000 -0.0000
vn -0.0000 -0.5774 -0.8165
vn 0.7071 0.0000 -0.7071
vn 0.5000 -0.7071 -0.5000
vn 0.7071 0.0000 0.7071
vn -0.5000 -0.7071 -0.5000
vn -0.7071 0.0000 -0.7071
vn 1.0000 0.0000 0.0000
vn 0.8165 -0.5774 0.0000
vn -0.7071 0.0000 0.7071
vn -0.0000 -0.5471 -0.8371
vn 0.0000 -1.0000 -0.0000
usemtl Material.001
s 1
f 1/1/1 4/2/1 6/3/2 3/4/2
f 69/5/3 70/6/3 5/7/4 2/8/4
f 2/9/5 5/10/5 4/2/1 1/1/1
f 7/11/1 10/12/1 12/13/2 9/14/2
f 67/15/3 68/16/3 11/17/4 8/18/4
f 8/19/5 11/20/5 10/12/1 7/11/1
f 22/21/6 14/22/7 17/23/8
f 21/24/9 14/25/10 19/26/11
f 13/27/12 19/28/11 15/29/13
f 13/30/12 21/24/9 19/26/11
f 18/31/14 22/32/6 20/33/15
f 20/33/15 22/32/6 17/34/8
f 15/29/13 19/28/11 22/21/6
f 16/35/16 20/36/15 21/37/9
f 20/36/15 17/38/17 21/37/9
f 16/39/16 18/31/14 20/33/15
f 17/40/17 14/25/10 21/24/9
f 19/28/11 14/22/7 22/21/6
f 18/41/14 15/29/13 22/21/6
f 13/30/12 16/42/16 21/24/9
f 18/43/14 16/44/16 13/45/12 15/46/13
f 27/47/14 29/48/16 32/49/12 30/50/13
f 32/51/12 29/52/16 24/53/9
f 27/54/14 30/55/13 23/56/6
f 26/57/11 31/58/7 23/56/6
f 28/59/17 31/60/10 24/53/9
f 29/61/16 27/62/14 25/63/15
f 25/64/15 28/65/17 24/66/9
f 29/67/16 25/64/15 24/66/9
f 30/55/13 26/57/11 23/56/6
f 25/63/15 23/68/6 28/69/8
f 27/62/14 23/68/6 25/63/15
f 32/51/12 24/53/9 26/70/11
f 32/71/12 26/57/11 30/55/13
f 24/53/9 31/60/10 26/70/11
f 23/56/6 31/58/7 28/72/8
f 42/73/6 34/74/7 37/75/8
f 41/76/18 34/77/10 39/78/11
f 33/79/12 39/80/11 35/81/13
f 33/82/12 41/76/18 39/78/11
f 38/83/14 42/84/6 40/85/15
f 40/85/15 42/84/6 37/86/8
f 35/81/13 39/80/11 42/73/6
f 36/87/16 40/88/15 41/89/18
f 40/88/15 37/90/17 41/89/18
f 36/91/16 38/83/14 40/85/15
f 37/92/17 34/77/10 41/76/18
f 39/80/11 34/74/7 42/73/6
f 38/93/14 35/81/13 42/73/6
f 33/82/12 36/94/16 41/76/18
f 38/95/14 36/96/16 33/97/12 35/98/13
f 43/99/19 44/100/20 46/101/3 45/102/21
f 45/103/21 46/104/3 50/105/22 49/106/23
f 49/107/24 50/108/24 48/109/1 47/110/1
f 47/111/1 48/112/1 44/113/20 43/114/19
f 51/115/25 52/116/26 54/117/3 53/118/21
f 53/119/21 54/120/3 58/121/27 57/122/28
f 57/123/28 58/124/27 56/125/1 55/126/1
f 55/127/1 56/128/1 52/129/29 51/130/29
f 59/131/25 60/132/26 62/133/26 61/134/21
f 61/135/21 62/136/22 66/137/27 65/138/28
f 65/139/28 66/140/27 64/141/24 63/142/24
f 63/143/29 64/144/29 60/145/29 59/146/29
f 9/147/30 12/148/30 68/16/3 67/15/3
f 3/149/30 6/150/30 70/6/3 69/5/3
f 71/151/1 74/152/1 76/153/2 73/154/2
f 77/155/3 78/156/3 75/157/4 72/158/4
f 72/159/5 75/160/5 74/152/1 71/151/1
f 73/161/30 76/162/30 78/156/3 77/155/3
f 85/163/5 82/164/5 83/165/1 86/166/1
f 80/167/3 79/168/3 82/169/4 85/170/4
f 84/171/30 81/172/30 79/168/3 80/167/3
f 86/166/1 83/165/1 81/173/2 84/174/2
f 45/175/21 49/176/23 47/177/31 43/178/19
f 53/179/21 57/180/28 55/181/31 51/182/25
f 61/183/21 65/184/28 63/185/31 59/186/25
