# Blender v2.93.5 OBJ File: 'Modular Graveyard.blend'
# www.blender.org
mtllib RustyTallRailing3.mtl
o RustyTallRailing3_Circle.062
v 2.851080 0.182211 0.018813
v 2.851080 0.210148 0.000142
v 2.851080 0.154274 0.000142
v 0.147868 0.182211 0.018813
v 0.147868 0.210148 0.000142
v 0.147868 0.154274 0.000142
v 2.851080 2.259053 0.018813
v 2.851080 2.286990 0.000142
v 2.851080 2.231116 0.000142
v 0.147868 2.259053 0.018813
v 0.147868 2.286990 0.000142
v 0.147868 2.231116 0.000142
v 1.251616 2.488476 -0.051993
v 1.251616 2.488476 0.052207
v 1.325469 2.477323 0.000107
v 1.177763 2.477323 0.000107
v 1.283870 2.394248 -0.030726
v 1.264972 2.700284 0.000107
v 1.283870 2.394248 0.030940
v 1.219362 2.394248 -0.030726
v 1.238260 2.700284 0.000107
v 1.219362 2.394248 0.030940
v 0.219504 2.394248 0.030940
v 0.238402 2.700284 0.000107
v 0.219504 2.394248 -0.030726
v 0.284011 2.394248 0.030940
v 0.265113 2.700284 0.000107
v 0.284011 2.394248 -0.030726
v 0.177905 2.477323 0.000107
v 0.325610 2.477323 0.000107
v 0.251758 2.488476 0.052207
v 0.251758 2.488476 -0.051993
v 0.968611 2.394248 0.030940
v 0.987509 2.700284 0.000107
v 0.968611 2.394248 -0.030726
v 1.033119 2.394248 0.030940
v 1.014221 2.700284 0.000107
v 1.033119 2.394248 -0.030726
v 0.927012 2.477323 0.000107
v 1.074718 2.477323 0.000107
v 1.000865 2.488476 0.052207
v 1.000865 2.488476 -0.051993
v 0.750520 2.488476 -0.051993
v 0.750520 2.488476 0.052207
v 0.824373 2.477323 0.000107
v 0.676667 2.477323 0.000107
v 0.782774 2.394248 -0.030726
v 0.763876 2.700284 0.000107
v 0.782774 2.394248 0.030940
v 0.718266 2.394248 -0.030726
v 0.737164 2.700284 0.000107
v 0.718266 2.394248 0.030940
v 0.467691 2.394248 0.030940
v 0.486589 2.700284 0.000107
v 0.467691 2.394248 -0.030726
v 0.532199 2.394248 0.030940
v 0.513301 2.700284 0.000107
v 0.532199 2.394248 -0.030726
v 0.426092 2.477323 0.000107
v 0.573798 2.477323 0.000107
v 0.499945 2.488476 0.052207
v 0.499945 2.488476 -0.051993
v 0.221241 0.055823 0.000000
v 0.221241 2.401030 0.000000
v 0.251634 0.055823 -0.030394
v 0.251634 2.401030 -0.030394
v 0.251634 0.055823 0.030394
v 0.251634 2.401030 0.030394
v 0.282028 0.055823 0.000000
v 0.282028 2.401030 0.000000
v 0.469621 0.055823 0.000000
v 0.469621 2.401030 0.000000
v 0.500015 0.055823 -0.030394
v 0.500015 2.401030 -0.030394
v 0.500015 0.055823 0.030394
v 0.500015 2.401030 0.030394
v 0.530409 0.055823 0.000000
v 0.530409 2.401030 0.000000
v 0.720085 0.055823 0.000000
v 0.720085 2.401030 0.000000
v 0.750479 0.055823 -0.030394
v 0.750479 2.401030 -0.030394
v 0.750479 0.055823 0.030394
v 0.750479 2.401030 0.030394
v 0.780873 0.055823 0.000000
v 0.780873 2.401030 0.000000
v 0.970473 0.055823 0.000000
v 0.970473 2.401030 0.000000
v 1.000867 0.055823 -0.030394
v 1.000867 2.401030 -0.030394
v 1.000867 0.055823 0.030394
v 1.000867 2.401030 0.030394
v 1.031261 0.055823 0.000000
v 1.031261 2.401030 0.000000
v 1.221160 0.055823 0.000000
v 1.221160 2.401030 0.000000
v 1.251554 0.055823 -0.030394
v 1.251554 2.401030 -0.030394
v 1.251554 0.055823 0.030394
v 1.251554 2.401030 0.030394
v 1.281947 0.055823 0.000000
v 1.281947 2.401030 0.000000
v 2.851080 2.259053 -0.018117
v 0.147868 2.259053 -0.018117
v 2.851080 0.182211 -0.018117
v 0.147868 0.182211 -0.018117
v 2.851080 2.059053 0.018813
v 2.851080 2.086990 0.000142
v 2.851080 2.031116 0.000142
v 0.147868 2.059053 0.018813
v 0.147868 2.086990 0.000142
v 0.147868 2.031116 0.000142
v 2.851080 2.059053 -0.018117
v 0.147868 2.059053 -0.018117
v 0.147868 0.359053 -0.018117
v 2.851080 0.359053 -0.018117
v 0.147868 0.331115 0.000142
v 0.147868 0.386990 0.000142
v 0.147868 0.359053 0.018813
v 2.851080 0.331115 0.000142
v 2.851080 0.386990 0.000142
v 2.851080 0.359053 0.018813
v 1.718160 2.394248 0.030940
v 1.737058 2.700284 0.000107
v 1.718160 2.394248 -0.030726
v 1.782668 2.394248 0.030940
v 1.763770 2.700284 0.000107
v 1.782668 2.394248 -0.030726
v 1.676561 2.477323 0.000107
v 1.824267 2.477323 0.000107
v 1.750414 2.488476 0.052207
v 1.750414 2.488476 -0.051993
v 2.467785 2.394248 0.030940
v 2.486683 2.700284 0.000107
v 2.467785 2.394248 -0.030726
v 2.532293 2.394248 0.030940
v 2.513395 2.700284 0.000107
v 2.532293 2.394248 -0.030726
v 2.426186 2.477323 0.000107
v 2.573892 2.477323 0.000107
v 2.500039 2.488476 0.052207
v 2.500039 2.488476 -0.051993
v 2.251553 2.488476 -0.051993
v 2.251553 2.488476 0.052207
v 2.325405 2.477323 0.000107
v 2.177700 2.477323 0.000107
v 2.283806 2.394248 -0.030726
v 2.264908 2.700284 0.000107
v 2.283806 2.394248 0.030940
v 2.219298 2.394248 -0.030726
v 2.238196 2.700284 0.000107
v 2.219298 2.394248 0.030940
v 1.968570 2.394248 0.030940
v 1.987468 2.700284 0.000107
v 1.968570 2.394248 -0.030726
v 2.033078 2.394248 0.030940
v 2.014180 2.700284 0.000107
v 2.033078 2.394248 -0.030726
v 1.926971 2.477323 0.000107
v 2.074677 2.477323 0.000107
v 2.000824 2.488476 0.052207
v 2.000824 2.488476 -0.051993
v 1.500093 2.488476 -0.051993
v 1.500093 2.488476 0.052207
v 1.573946 2.477323 0.000107
v 1.426240 2.477323 0.000107
v 1.532347 2.394248 -0.030726
v 1.513449 2.700284 0.000107
v 1.532347 2.394248 0.030940
v 1.467839 2.394248 -0.030726
v 1.486737 2.700284 0.000107
v 1.467839 2.394248 0.030940
v 1.719897 0.055823 0.000000
v 1.719897 2.401030 0.000000
v 1.750290 0.055823 -0.030394
v 1.750290 2.401030 -0.030394
v 1.750290 0.055823 0.030394
v 1.750290 2.401030 0.030394
v 1.780684 0.055823 0.000000
v 1.780684 2.401030 0.000000
v 1.469693 0.055823 0.000000
v 1.469693 2.401030 0.000000
v 1.500087 0.055823 -0.030394
v 1.500087 2.401030 -0.030394
v 1.500087 0.055823 0.030394
v 1.500087 2.401030 0.030394
v 1.530481 0.055823 0.000000
v 1.530481 2.401030 0.000000
v 1.970500 0.055823 0.000000
v 1.970500 2.401030 0.000000
v 2.000894 0.055823 -0.030394
v 2.000894 2.401030 -0.030394
v 2.000894 0.055823 0.030394
v 2.000894 2.401030 0.030394
v 2.031287 0.055823 0.000000
v 2.031287 2.401030 0.000000
v 2.221118 0.055823 0.000000
v 2.221118 2.401030 0.000000
v 2.251512 0.055823 -0.030394
v 2.251512 2.401030 -0.030394
v 2.251512 0.055823 0.030394
v 2.251512 2.401030 0.030394
v 2.281905 0.055823 0.000000
v 2.281905 2.401030 0.000000
v 2.469648 0.055823 0.000000
v 2.469648 2.401030 0.000000
v 2.500041 0.055823 -0.030394
v 2.500041 2.401030 -0.030394
v 2.500041 0.055823 0.030394
v 2.500041 2.401030 0.030394
v 2.530435 0.055823 0.000000
v 2.530435 2.401030 0.000000
v 2.718194 2.394248 0.030940
v 2.737092 2.700284 0.000107
v 2.718194 2.394248 -0.030726
v 2.782701 2.394248 0.030940
v 2.763803 2.700284 0.000107
v 2.782701 2.394248 -0.030726
v 2.676594 2.477323 0.000107
v 2.824300 2.477323 0.000107
v 2.750448 2.488476 0.052207
v 2.750448 2.488476 -0.051993
v 2.720123 0.055823 0.000000
v 2.720123 2.401030 0.000000
v 2.750517 0.055823 -0.030394
v 2.750517 2.401030 -0.030394
v 2.750517 0.055823 0.030394
v 2.750517 2.401030 0.030394
v 2.780910 0.055823 0.000000
v 2.780910 2.401030 0.000000
vt 0.843750 0.160156
vt 0.843750 0.265625
vt 0.835938 0.265625
vt 0.835938 0.160156
vt 0.828125 0.152344
vt 0.828125 0.046875
vt 0.835938 0.046875
vt 0.835938 0.152344
vt 0.859375 0.160156
vt 0.859375 0.265625
vt 0.812500 0.160156
vt 0.812500 0.265625
vt 0.804688 0.265625
vt 0.804688 0.160156
vt 0.914062 0.265625
vt 0.914062 0.160156
vt 0.921875 0.160156
vt 0.921875 0.265625
vt 0.828125 0.160156
vt 0.828125 0.265625
vt 0.921875 0.246094
vt 0.921875 0.250000
vt 0.906250 0.250000
vt 0.906250 0.246094
vt 0.867188 0.066406
vt 0.882812 0.066406
vt 0.882812 0.078125
vt 0.929688 0.113281
vt 0.914062 0.113281
vt 0.929688 0.105469
vt 0.906250 0.105469
vt 0.921875 0.085938
vt 0.882812 0.097656
vt 0.875000 0.097656
vt 0.890625 0.230469
vt 0.882812 0.230469
vt 0.898438 0.222656
vt 0.867188 0.210938
vt 0.867188 0.230469
vt 0.851562 0.210938
vt 0.851562 0.203125
vt 0.875000 0.222656
vt 0.898438 0.203125
vt 0.859375 0.074219
vt 0.906250 0.113281
vt 0.929688 0.085938
vt 0.867188 0.125000
vt 0.859375 0.105469
vt 0.867188 0.105469
vt 0.906250 0.113281
vt 0.906250 0.132812
vt 0.890625 0.113281
vt 0.843750 0.132812
vt 0.843750 0.125000
vt 0.851562 0.132812
vt 0.898438 0.105469
vt 0.882812 0.167969
vt 0.875000 0.156250
vt 0.890625 0.160156
vt 0.890625 0.136719
vt 0.914062 0.117188
vt 0.929688 0.125000
vt 0.906250 0.125000
vt 0.929688 0.148438
vt 0.890625 0.167969
vt 0.906250 0.132812
vt 0.867188 0.132812
vt 0.906250 0.105469
vt 0.773438 0.269531
vt 0.773438 0.277344
vt 0.765625 0.277344
vt 0.765625 0.269531
vt 0.812500 0.187500
vt 0.804688 0.164062
vt 0.812500 0.164062
vt 0.867188 0.058594
vt 0.867188 0.078125
vt 0.851562 0.054688
vt 0.789062 0.195312
vt 0.789062 0.187500
vt 0.796875 0.195312
vt 0.859375 0.046875
vt 0.851562 0.265625
vt 0.851562 0.253906
vt 0.867188 0.257812
vt 0.867188 0.234375
vt 0.765625 0.234375
vt 0.781250 0.242188
vt 0.765625 0.242188
vt 0.781250 0.265625
vt 0.859375 0.265625
vt 0.867188 0.078125
vt 0.812500 0.195312
vt 0.867188 0.046875
vt 0.921875 0.269531
vt 0.921875 0.273438
vt 0.906250 0.273438
vt 0.906250 0.269531
vt 0.882812 0.269531
vt 0.882812 0.277344
vt 0.867188 0.277344
vt 0.867188 0.269531
vt 0.890625 0.085938
vt 0.898438 0.085938
vt 0.898438 0.093750
vt 0.835938 0.132812
vt 0.828125 0.132812
vt 0.835938 0.125000
vt 0.820312 0.125000
vt 0.828125 0.105469
vt 0.898438 0.113281
vt 0.890625 0.113281
vt 0.859375 0.195312
vt 0.851562 0.195312
vt 0.867188 0.187500
vt 0.781250 0.210938
vt 0.781250 0.230469
vt 0.765625 0.210938
vt 0.765625 0.203125
vt 0.851562 0.187500
vt 0.867188 0.164062
vt 0.875000 0.093750
vt 0.820312 0.132812
vt 0.835938 0.105469
vt 0.937500 0.089844
vt 0.937500 0.066406
vt 0.937500 0.066406
vt 0.937500 0.113281
vt 0.937500 0.132812
vt 0.921875 0.113281
vt 0.921875 0.097656
vt 0.921875 0.089844
vt 0.929688 0.097656
vt 0.929688 0.105469
vt 0.828125 0.265625
vt 0.820312 0.253906
vt 0.835938 0.257812
vt 0.835938 0.234375
vt 0.851562 0.117188
vt 0.867188 0.125000
vt 0.851562 0.125000
vt 0.867188 0.148438
vt 0.835938 0.265625
vt 0.937500 0.132812
vt 0.937500 0.097656
vt 0.937500 0.105469
vt 0.859375 0.269531
vt 0.859375 0.277344
vt 0.843750 0.277344
vt 0.843750 0.269531
vt 0.867188 0.042969
vt 0.867188 0.273438
vt 0.859375 0.273438
vt 0.859375 0.042969
vt 0.804688 0.273438
vt 0.804688 0.042969
vt 0.812500 0.042969
vt 0.812500 0.273438
vt 0.867188 0.046875
vt 0.867188 0.277344
vt 0.859375 0.277344
vt 0.859375 0.046875
vt 0.929688 0.273438
vt 0.929688 0.042969
vt 0.937500 0.042969
vt 0.937500 0.273438
vt 0.812500 0.042969
vt 0.812500 0.273438
vt 0.804688 0.273438
vt 0.804688 0.042969
vt 0.867188 0.273438
vt 0.867188 0.042969
vt 0.882812 0.042969
vt 0.882812 0.273438
vt 0.851562 0.042969
vt 0.851562 0.273438
vt 0.843750 0.273438
vt 0.843750 0.042969
vt 0.859375 0.273438
vt 0.859375 0.042969
vt 0.859375 0.042969
vt 0.859375 0.273438
vt 0.851562 0.046875
vt 0.851562 0.277344
vt 0.843750 0.277344
vt 0.843750 0.046875
vt 0.890625 0.273438
vt 0.890625 0.042969
vt 0.898438 0.042969
vt 0.898438 0.273438
vt 0.750000 0.042969
vt 0.750000 0.273438
vt 0.742188 0.273438
vt 0.742188 0.042969
vt 0.890625 0.273438
vt 0.890625 0.042969
vt 0.898438 0.042969
vt 0.898438 0.273438
vt 0.898438 0.046875
vt 0.898438 0.277344
vt 0.898438 0.277344
vt 0.898438 0.046875
vt 0.867188 0.273438
vt 0.867188 0.042969
vt 0.882812 0.042969
vt 0.882812 0.273438
vt 0.789062 0.042969
vt 0.789062 0.273438
vt 0.781250 0.273438
vt 0.781250 0.042969
vt 0.835938 0.273438
vt 0.835938 0.042969
vt 0.843750 0.042969
vt 0.843750 0.273438
vt 0.812500 0.046875
vt 0.812500 0.277344
vt 0.804688 0.277344
vt 0.804688 0.046875
vt 0.804688 0.273438
vt 0.804688 0.042969
vt 0.812500 0.042969
vt 0.812500 0.273438
vt 0.882812 0.042969
vt 0.882812 0.273438
vt 0.882812 0.273438
vt 0.882812 0.042969
vt 0.906250 0.273438
vt 0.906250 0.042969
vt 0.914062 0.042969
vt 0.914062 0.273438
vt 0.898438 0.265625
vt 0.898438 0.160156
vt 0.812500 0.152344
vt 0.812500 0.046875
vt 0.781250 0.160156
vt 0.781250 0.265625
vt 0.765625 0.265625
vt 0.765625 0.160156
vt 0.757812 0.152344
vt 0.757812 0.046875
vt 0.773438 0.046875
vt 0.773438 0.152344
vt 0.789062 0.160156
vt 0.789062 0.265625
vt 0.750000 0.152344
vt 0.750000 0.046875
vt 0.890625 0.160156
vt 0.890625 0.265625
vt 0.882812 0.265625
vt 0.882812 0.160156
vt 0.789062 0.152344
vt 0.789062 0.046875
vt 0.804688 0.046875
vt 0.804688 0.152344
vt 0.781250 0.152344
vt 0.781250 0.046875
vt 0.867188 0.265625
vt 0.867188 0.160156
vt 0.835938 0.089844
vt 0.828125 0.066406
vt 0.835938 0.066406
vt 0.773438 0.113281
vt 0.773438 0.132812
vt 0.757812 0.113281
vt 0.820312 0.097656
vt 0.820312 0.089844
vt 0.828125 0.097656
vt 0.765625 0.105469
vt 0.882812 0.195312
vt 0.875000 0.187500
vt 0.898438 0.187500
vt 0.898438 0.164062
vt 0.765625 0.136719
vt 0.773438 0.144531
vt 0.757812 0.144531
vt 0.773438 0.167969
vt 0.890625 0.195312
vt 0.773438 0.132812
vt 0.835938 0.097656
vt 0.773438 0.105469
vt 0.921875 0.234375
vt 0.921875 0.242188
vt 0.906250 0.242188
vt 0.906250 0.234375
vt 0.835938 0.187500
vt 0.835938 0.164062
vt 0.835938 0.164062
vt 0.773438 0.078125
vt 0.773438 0.097656
vt 0.757812 0.074219
vt 0.820312 0.195312
vt 0.820312 0.187500
vt 0.828125 0.195312
vt 0.765625 0.066406
vt 0.882812 0.265625
vt 0.875000 0.253906
vt 0.898438 0.257812
vt 0.898438 0.234375
vt 0.906250 0.136719
vt 0.921875 0.144531
vt 0.906250 0.144531
vt 0.921875 0.167969
vt 0.890625 0.265625
vt 0.773438 0.097656
vt 0.835938 0.195312
vt 0.773438 0.066406
vt 0.890625 0.152344
vt 0.890625 0.160156
vt 0.875000 0.160156
vt 0.875000 0.152344
vt 0.859375 0.152344
vt 0.859375 0.160156
vt 0.851562 0.160156
vt 0.851562 0.152344
vt 0.796875 0.203125
vt 0.812500 0.203125
vt 0.812500 0.210938
vt 0.804688 0.132812
vt 0.796875 0.132812
vt 0.804688 0.125000
vt 0.789062 0.125000
vt 0.804688 0.105469
vt 0.812500 0.230469
vt 0.804688 0.230469
vt 0.921875 0.195312
vt 0.914062 0.195312
vt 0.921875 0.187500
vt 0.804688 0.144531
vt 0.804688 0.167969
vt 0.789062 0.144531
vt 0.789062 0.136719
vt 0.906250 0.187500
vt 0.921875 0.164062
vt 0.789062 0.210938
vt 0.789062 0.132812
vt 0.804688 0.105469
vt 0.804688 0.089844
vt 0.804688 0.066406
vt 0.804688 0.066406
vt 0.929688 0.058594
vt 0.921875 0.078125
vt 0.906250 0.054688
vt 0.789062 0.097656
vt 0.789062 0.089844
vt 0.796875 0.097656
vt 0.914062 0.046875
vt 0.796875 0.265625
vt 0.789062 0.253906
vt 0.812500 0.257812
vt 0.812500 0.234375
vt 0.851562 0.136719
vt 0.867188 0.144531
vt 0.843750 0.144531
vt 0.867188 0.167969
vt 0.804688 0.265625
vt 0.929688 0.078125
vt 0.804688 0.097656
vt 0.929688 0.046875
vt 0.835938 0.269531
vt 0.835938 0.277344
vt 0.820312 0.277344
vt 0.820312 0.269531
vt 0.921875 0.257812
vt 0.921875 0.261719
vt 0.906250 0.261719
vt 0.906250 0.257812
vt 0.890625 0.046875
vt 0.898438 0.046875
vt 0.898438 0.058594
vt 0.781250 0.195312
vt 0.773438 0.195312
vt 0.781250 0.187500
vt 0.765625 0.187500
vt 0.773438 0.164062
vt 0.898438 0.078125
vt 0.890625 0.078125
vt 0.890625 0.148438
vt 0.882812 0.148438
vt 0.898438 0.140625
vt 0.835938 0.210938
vt 0.835938 0.230469
vt 0.820312 0.210938
vt 0.828125 0.203125
vt 0.875000 0.136719
vt 0.898438 0.117188
vt 0.875000 0.054688
vt 0.765625 0.195312
vt 0.781250 0.164062
vt 0.937500 0.046875
vt 0.937500 0.277344
vt 0.929688 0.277344
vt 0.929688 0.046875
vt 0.929688 0.273438
vt 0.929688 0.042969
vt 0.937500 0.042969
vt 0.937500 0.273438
vt 0.789062 0.046875
vt 0.789062 0.277344
vt 0.781250 0.277344
vt 0.781250 0.046875
vt 0.843750 0.273438
vt 0.843750 0.042969
vt 0.851562 0.042969
vt 0.851562 0.273438
vt 0.828125 0.046875
vt 0.828125 0.277344
vt 0.820312 0.277344
vt 0.820312 0.046875
vt 0.820312 0.273438
vt 0.820312 0.042969
vt 0.828125 0.042969
vt 0.828125 0.273438
vt 0.828125 0.042969
vt 0.828125 0.273438
vt 0.820312 0.273438
vt 0.820312 0.042969
vt 0.781250 0.273438
vt 0.781250 0.042969
vt 0.789062 0.042969
vt 0.789062 0.273438
vt 0.757812 0.046875
vt 0.757812 0.277344
vt 0.742188 0.277344
vt 0.742188 0.046875
vt 0.906250 0.273438
vt 0.906250 0.042969
vt 0.914062 0.042969
vt 0.914062 0.273438
vt 0.773438 0.042969
vt 0.773438 0.273438
vt 0.765625 0.273438
vt 0.765625 0.042969
vt 0.906250 0.273438
vt 0.906250 0.042969
vt 0.921875 0.042969
vt 0.921875 0.273438
vt 0.890625 0.046875
vt 0.890625 0.277344
vt 0.882812 0.277344
vt 0.882812 0.046875
vt 0.742188 0.273438
vt 0.742188 0.042969
vt 0.750000 0.042969
vt 0.750000 0.273438
vt 0.773438 0.042969
vt 0.773438 0.273438
vt 0.765625 0.273438
vt 0.765625 0.042969
vt 0.765625 0.273438
vt 0.765625 0.042969
vt 0.773438 0.042969
vt 0.773438 0.273438
vt 0.757812 0.042969
vt 0.757812 0.273438
vt 0.742188 0.273438
vt 0.742188 0.042969
vt 0.890625 0.273438
vt 0.890625 0.042969
vt 0.898438 0.042969
vt 0.898438 0.273438
vt 0.773438 0.046875
vt 0.773438 0.277344
vt 0.765625 0.277344
vt 0.765625 0.046875
vt 0.820312 0.273438
vt 0.820312 0.042969
vt 0.828125 0.042969
vt 0.828125 0.273438
vt 0.929688 0.238281
vt 0.929688 0.234375
vt 0.937500 0.234375
vt 0.937500 0.238281
vt 0.929688 0.246094
vt 0.937500 0.246094
vt 0.937500 0.250000
vt 0.929688 0.250000
vt 0.898438 0.171875
vt 0.906250 0.175781
vt 0.906250 0.179688
vt 0.898438 0.175781
vt 0.804688 0.277344
vt 0.789062 0.273438
vt 0.789062 0.269531
vt 0.804688 0.273438
vt 0.875000 0.179688
vt 0.875000 0.175781
vt 0.890625 0.171875
vt 0.890625 0.175781
vt 0.929688 0.175781
vt 0.921875 0.179688
vt 0.921875 0.175781
vt 0.929688 0.171875
vt 0.937500 0.156250
vt 0.937500 0.160156
vt 0.929688 0.156250
vt 0.929688 0.152344
vt 0.820312 0.175781
vt 0.820312 0.171875
vt 0.828125 0.175781
vt 0.828125 0.179688
vt 0.937500 0.261719
vt 0.929688 0.261719
vt 0.929688 0.257812
vt 0.937500 0.257812
vt 0.796875 0.175781
vt 0.789062 0.179688
vt 0.789062 0.175781
vt 0.796875 0.171875
vt 0.867188 0.105469
vt 0.867188 0.085938
vt 0.867188 0.085938
vt 0.906250 0.078125
vt 0.906250 0.097656
vt 0.890625 0.074219
vt 0.851562 0.113281
vt 0.851562 0.105469
vt 0.859375 0.113281
vt 0.898438 0.066406
vt 0.820312 0.167969
vt 0.820312 0.156250
vt 0.835938 0.160156
vt 0.835938 0.136719
vt 0.914062 0.203125
vt 0.921875 0.210938
vt 0.906250 0.210938
vt 0.921875 0.230469
vt 0.828125 0.167969
vt 0.906250 0.097656
vt 0.867188 0.113281
vt 0.906250 0.066406
vt 0.921875 0.152344
vt 0.921875 0.160156
vt 0.906250 0.160156
vt 0.906250 0.152344
vt 0.921875 0.046875
vt 0.921875 0.277344
vt 0.906250 0.277344
vt 0.906250 0.046875
vt 0.929688 0.273438
vt 0.929688 0.042969
vt 0.937500 0.042969
vt 0.937500 0.273438
vt 0.789062 0.042969
vt 0.789062 0.273438
vt 0.781250 0.273438
vt 0.781250 0.042969
vt 0.851562 0.273438
vt 0.851562 0.042969
vt 0.859375 0.042969
vt 0.859375 0.273438
vt 0.843750 0.175781
vt 0.843750 0.171875
vt 0.859375 0.175781
vt 0.859375 0.179688
vn 0.0000 0.0000 1.0000
vn 0.0000 -0.5557 0.8314
vn -0.0000 -0.0000 -1.0000
vn -0.0000 0.5471 -0.8371
vn 0.0000 0.5557 0.8314
vn 0.4717 -0.6779 -0.5638
vn 0.4717 -0.6779 0.5638
vn -0.4717 -0.6779 0.5638
vn -0.4717 -0.6779 -0.5638
vn -0.0000 0.0806 0.9967
vn -0.0000 0.0806 -0.9967
vn -0.9992 0.0407 0.0000
vn -0.1277 0.2293 -0.9649
vn 0.1277 0.2293 0.9649
vn -0.1277 0.2293 0.9649
vn 0.9992 0.0407 0.0000
vn 0.1277 0.2293 -0.9649
vn 0.0000 0.0806 0.9968
vn -0.8165 -0.5774 -0.0000
vn -1.0000 0.0000 -0.0000
vn -0.0000 -0.5774 -0.8165
vn 0.7071 0.0000 -0.7071
vn 0.5000 -0.7071 -0.5000
vn 0.7071 0.0000 0.7071
vn -0.5000 -0.7071 -0.5000
vn -0.7071 0.0000 -0.7071
vn 1.0000 0.0000 0.0000
vn 0.8165 -0.5774 0.0000
vn -0.7071 0.0000 0.7071
vn -0.0000 -0.5774 0.8165
vn -0.0000 -0.5471 -0.8371
vn 0.0000 0.0806 -0.9968
vn 0.8165 -0.5773 0.0000
vn -0.8165 -0.5773 -0.0000
vn -0.0000 -0.5773 0.8165
vn 0.0000 -1.0000 -0.0000
usemtl Material.001
s 1
f 1/1/1 4/2/1 6/3/2 3/4/2
f 105/5/3 106/6/3 5/7/4 2/8/4
f 2/9/5 5/10/5 4/2/1 1/1/1
f 7/11/1 10/12/1 12/13/2 9/14/2
f 103/15/3 104/16/3 11/17/4 8/18/4
f 8/19/5 11/20/5 10/12/1 7/11/1
f 17/21/6 19/22/7 22/23/8 20/24/9
f 22/25/8 19/26/7 14/27/10
f 17/28/6 20/29/9 13/30/11
f 16/31/12 21/32/13 13/30/11
f 18/33/14 21/34/15 14/27/10
f 19/35/7 17/36/6 15/37/16
f 15/38/16 18/39/14 14/40/10
f 19/41/7 15/38/16 14/40/10
f 20/29/9 16/31/12 13/30/11
f 15/37/16 13/42/11 18/43/17
f 17/36/6 13/42/11 15/37/16
f 22/25/8 14/27/10 16/44/12
f 22/45/8 16/31/12 20/29/9
f 14/27/10 21/34/15 16/44/12
f 13/30/11 21/32/13 18/46/17
f 32/47/11 24/48/13 27/49/17
f 31/50/18 24/51/15 29/52/12
f 23/53/8 29/54/12 25/55/9
f 23/56/8 31/50/18 29/52/12
f 28/57/6 32/58/11 30/59/16
f 30/59/16 32/58/11 27/60/17
f 25/55/9 29/54/12 32/47/11
f 26/61/7 30/62/16 31/63/18
f 30/62/16 27/64/14 31/63/18
f 26/65/7 28/57/6 30/59/16
f 27/66/14 24/51/15 31/50/18
f 29/54/12 24/48/13 32/47/11
f 28/67/6 25/55/9 32/47/11
f 23/56/8 26/68/7 31/50/18
f 28/69/6 26/70/7 23/71/8 25/72/9
f 42/73/11 34/74/13 37/75/17
f 41/76/10 34/77/15 39/78/12
f 33/79/8 39/80/12 35/81/9
f 33/82/8 41/76/10 39/78/12
f 38/83/6 42/84/11 40/85/16
f 40/85/16 42/84/11 37/86/17
f 35/81/9 39/80/12 42/73/11
f 36/87/7 40/88/16 41/89/10
f 40/88/16 37/90/14 41/89/10
f 36/91/7 38/83/6 40/85/16
f 37/92/14 34/77/15 41/76/10
f 39/80/12 34/74/13 42/73/11
f 38/93/6 35/81/9 42/73/11
f 33/82/8 36/94/7 41/76/10
f 38/95/6 36/96/7 33/97/8 35/98/9
f 47/99/6 49/100/7 52/101/8 50/102/9
f 52/103/8 49/104/7 44/105/18
f 47/106/6 50/107/9 43/108/11
f 46/109/12 51/110/13 43/108/11
f 48/111/14 51/112/15 44/105/18
f 49/113/7 47/114/6 45/115/16
f 45/116/16 48/117/14 44/118/18
f 49/119/7 45/116/16 44/118/18
f 50/107/9 46/109/12 43/108/11
f 45/115/16 43/120/11 48/121/17
f 47/114/6 43/120/11 45/115/16
f 52/103/8 44/105/18 46/122/12
f 52/123/8 46/109/12 50/107/9
f 44/105/18 51/112/15 46/122/12
f 43/108/11 51/110/13 48/124/17
f 62/125/11 54/126/13 57/127/17
f 61/128/10 54/129/15 59/130/12
f 53/131/8 59/132/12 55/133/9
f 53/134/8 61/128/10 59/130/12
f 58/135/6 62/136/11 60/137/16
f 60/137/16 62/136/11 57/138/17
f 55/133/9 59/132/12 62/125/11
f 56/139/7 60/140/16 61/141/10
f 60/140/16 57/142/14 61/141/10
f 56/143/7 58/135/6 60/137/16
f 57/144/14 54/129/15 61/128/10
f 59/132/12 54/126/13 62/125/11
f 58/145/6 55/133/9 62/125/11
f 53/134/8 56/146/7 61/128/10
f 58/147/6 56/148/7 53/149/8 55/150/9
f 63/151/19 64/152/20 66/153/3 65/154/21
f 65/155/21 66/156/3 70/157/22 69/158/23
f 69/159/24 70/160/24 68/161/1 67/162/1
f 67/163/1 68/164/1 64/165/20 63/166/19
f 71/167/25 72/168/26 74/169/3 73/170/21
f 73/171/21 74/172/3 78/173/27 77/174/28
f 77/175/28 78/176/27 76/177/1 75/178/1
f 75/179/1 76/180/1 72/181/29 71/182/29
f 79/183/25 80/184/26 82/185/26 81/186/21
f 81/187/21 82/188/22 86/189/27 85/190/28
f 85/191/28 86/192/27 84/193/24 83/194/24
f 83/195/29 84/196/29 80/197/29 79/198/29
f 87/199/19 88/200/26 90/201/3 89/202/21
f 89/203/21 90/204/3 94/205/22 93/206/28
f 93/207/28 94/208/24 92/209/1 91/210/30
f 91/211/30 92/212/1 88/213/29 87/214/19
f 95/215/19 96/216/26 98/217/26 97/218/21
f 97/219/21 98/220/22 102/221/27 101/222/28
f 101/223/28 102/224/27 100/225/24 99/226/30
f 99/227/30 100/228/29 96/229/29 95/230/19
f 9/231/31 12/232/31 104/16/3 103/15/3
f 3/233/31 6/234/31 106/6/3 105/5/3
f 107/235/1 110/236/1 112/237/2 109/238/2
f 113/239/3 114/240/3 111/241/4 108/242/4
f 108/243/5 111/244/5 110/236/1 107/235/1
f 109/245/31 112/246/31 114/240/3 113/239/3
f 121/247/5 118/248/5 119/249/1 122/250/1
f 116/251/3 115/252/3 118/253/4 121/254/4
f 120/255/31 117/256/31 115/252/3 116/251/3
f 122/250/1 119/249/1 117/257/2 120/258/2
f 132/259/11 124/260/13 127/261/17
f 131/262/18 124/263/15 129/264/12
f 123/265/8 129/266/12 125/267/9
f 123/268/8 131/262/18 129/264/12
f 128/269/6 132/270/11 130/271/16
f 130/271/16 132/270/11 127/272/17
f 125/267/9 129/266/12 132/259/11
f 126/273/7 130/274/16 131/275/18
f 130/274/16 127/276/14 131/275/18
f 126/277/7 128/269/6 130/271/16
f 127/278/14 124/263/15 131/262/18
f 129/266/12 124/260/13 132/259/11
f 128/279/6 125/267/9 132/259/11
f 123/268/8 126/280/7 131/262/18
f 128/281/6 126/282/7 123/283/8 125/284/9
f 142/285/11 134/286/13 137/287/17
f 141/288/18 134/289/15 139/290/12
f 133/291/8 139/292/12 135/293/9
f 133/294/8 141/288/18 139/290/12
f 138/295/6 142/296/11 140/297/16
f 140/297/16 142/296/11 137/298/17
f 135/293/9 139/292/12 142/285/11
f 136/299/7 140/300/16 141/301/18
f 140/300/16 137/302/14 141/301/18
f 136/303/7 138/295/6 140/297/16
f 137/304/14 134/289/15 141/288/18
f 139/292/12 134/286/13 142/285/11
f 138/305/6 135/293/9 142/285/11
f 133/294/8 136/306/7 141/288/18
f 138/307/6 136/308/7 133/309/8 135/310/9
f 147/311/6 149/312/7 152/313/8 150/314/9
f 152/315/8 149/316/7 144/317/10
f 147/318/6 150/319/9 143/320/32
f 146/321/12 151/322/13 143/320/32
f 148/323/14 151/324/15 144/317/10
f 149/325/7 147/326/6 145/327/16
f 145/328/16 148/329/14 144/330/10
f 149/331/7 145/328/16 144/330/10
f 150/319/9 146/321/12 143/320/32
f 145/327/16 143/332/32 148/333/17
f 147/326/6 143/332/32 145/327/16
f 152/315/8 144/317/10 146/334/12
f 152/335/8 146/321/12 150/319/9
f 144/317/10 151/324/15 146/334/12
f 143/320/32 151/322/13 148/336/17
f 162/337/11 154/338/13 157/339/17
f 161/340/18 154/341/15 159/342/12
f 153/343/8 159/344/12 155/345/9
f 153/346/8 161/340/18 159/342/12
f 158/347/6 162/348/11 160/349/16
f 160/349/16 162/348/11 157/350/17
f 155/345/9 159/344/12 162/337/11
f 156/351/7 160/352/16 161/353/18
f 160/352/16 157/354/14 161/353/18
f 156/355/7 158/347/6 160/349/16
f 157/356/14 154/341/15 161/340/18
f 159/344/12 154/338/13 162/337/11
f 158/357/6 155/345/9 162/337/11
f 153/346/8 156/358/7 161/340/18
f 158/359/6 156/360/7 153/361/8 155/362/9
f 167/363/6 169/364/7 172/365/8 170/366/9
f 172/367/8 169/368/7 164/369/18
f 167/370/6 170/371/9 163/372/11
f 166/373/12 171/374/13 163/372/11
f 168/375/14 171/376/15 164/369/18
f 169/377/7 167/378/6 165/379/16
f 165/380/16 168/381/14 164/382/18
f 169/383/7 165/380/16 164/382/18
f 170/371/9 166/373/12 163/372/11
f 165/379/16 163/384/11 168/385/17
f 167/378/6 163/384/11 165/379/16
f 172/367/8 164/369/18 166/386/12
f 172/387/8 166/373/12 170/371/9
f 164/369/18 171/376/15 166/386/12
f 163/372/11 171/374/13 168/388/17
f 173/389/19 174/390/20 176/391/3 175/392/21
f 175/393/21 176/394/3 180/395/22 179/396/33
f 179/397/33 180/398/24 178/399/1 177/400/30
f 177/401/30 178/402/1 174/403/20 173/404/19
f 181/405/19 182/406/26 184/407/3 183/408/21
f 183/409/21 184/410/3 188/411/27 187/412/28
f 187/413/28 188/414/27 186/415/1 185/416/30
f 185/417/30 186/418/1 182/419/29 181/420/19
f 189/421/34 190/422/26 192/423/26 191/424/21
f 191/425/21 192/426/22 196/427/27 195/428/28
f 195/429/28 196/430/27 194/431/24 193/432/30
f 193/433/30 194/434/29 190/435/29 189/436/34
f 197/437/19 198/438/20 200/439/26 199/440/21
f 199/441/21 200/442/22 204/443/27 203/444/28
f 203/445/28 204/446/27 202/447/24 201/448/35
f 201/449/35 202/450/29 198/451/20 197/452/19
f 205/453/19 206/454/20 208/455/3 207/456/21
f 207/457/21 208/458/3 212/459/22 211/460/33
f 211/461/33 212/462/24 210/463/1 209/464/30
f 209/465/30 210/466/1 206/467/20 205/468/19
f 65/469/21 69/470/23 67/471/36 63/472/19
f 73/473/21 77/474/28 75/475/36 71/476/25
f 81/477/21 85/478/28 83/479/36 79/480/25
f 89/481/21 93/482/28 91/483/30 87/484/19
f 97/485/21 101/486/28 99/487/30 95/488/19
f 181/489/19 183/490/21 187/491/28 185/492/30
f 173/493/19 175/494/21 179/495/33 177/496/30
f 189/497/34 191/498/21 195/499/28 193/500/30
f 197/501/19 199/502/21 203/503/28 201/504/35
f 205/505/19 207/506/21 211/507/33 209/508/30
f 222/509/11 214/510/13 217/511/17
f 221/512/10 214/513/15 219/514/12
f 213/515/8 219/516/12 215/517/9
f 213/518/8 221/512/10 219/514/12
f 218/519/6 222/520/11 220/521/16
f 220/521/16 222/520/11 217/522/17
f 215/517/9 219/516/12 222/509/11
f 216/523/7 220/524/16 221/525/10
f 220/524/16 217/526/14 221/525/10
f 216/527/7 218/519/6 220/521/16
f 217/528/14 214/513/15 221/512/10
f 219/516/12 214/510/13 222/509/11
f 218/529/6 215/517/9 222/509/11
f 213/518/8 216/530/7 221/512/10
f 218/531/6 216/532/7 213/533/8 215/534/9
f 223/535/34 224/536/26 226/537/26 225/538/21
f 225/539/21 226/540/22 230/541/27 229/542/28
f 229/543/28 230/544/27 228/545/24 227/546/30
f 227/547/30 228/548/29 224/549/29 223/550/34
f 223/551/34 225/552/21 229/553/28 227/554/30
