# Blender v2.93.5 OBJ File: 'Modular Graveyard.blend'
# www.blender.org
mtllib RustyTallRailingPillar.mtl
o RustyTallRailingPillar_Circle.063
v 0.149626 0.182211 0.168813
v 0.149626 0.210148 0.150142
v 0.149626 0.154274 0.150142
v -0.148103 0.182211 0.168813
v -0.148103 0.210148 0.150142
v -0.148103 0.154274 0.150142
v 0.149626 2.259053 0.168813
v 0.149626 2.286990 0.150142
v 0.149626 2.231116 0.150142
v -0.148103 2.259053 0.168813
v -0.148103 2.286990 0.150142
v -0.148103 2.231116 0.150142
v 0.117574 2.394248 0.180940
v 0.136472 2.700284 0.150107
v 0.117574 2.394248 0.119274
v 0.182082 2.394248 0.180940
v 0.163184 2.700284 0.150107
v 0.182082 2.394248 0.119274
v 0.075975 2.477323 0.150107
v 0.223681 2.477323 0.150107
v 0.149828 2.488476 0.202207
v 0.149828 2.488476 0.098007
v -0.148934 2.488476 0.098007
v -0.148934 2.488476 0.202207
v -0.075081 2.477323 0.150107
v -0.222787 2.477323 0.150107
v -0.116680 2.394248 0.119274
v -0.135578 2.700284 0.150107
v -0.116680 2.394248 0.180940
v -0.181188 2.394248 0.119274
v -0.162290 2.700284 0.150107
v -0.181188 2.394248 0.180940
v 0.119311 -0.002187 0.150000
v 0.119311 2.401030 0.150000
v 0.149704 -0.002187 0.119606
v 0.149704 2.401030 0.119606
v 0.149704 -0.002187 0.180394
v 0.149704 2.401030 0.180394
v 0.180098 -0.002187 0.150000
v 0.180098 2.401030 0.150000
v -0.179334 -0.002187 0.150000
v -0.179334 2.401030 0.150000
v -0.148940 -0.002187 0.119606
v -0.148940 2.401030 0.119606
v -0.148940 -0.002187 0.180394
v -0.148940 2.401030 0.180394
v -0.118546 -0.002187 0.150000
v -0.118546 2.401030 0.150000
v 0.149626 2.259053 0.131883
v -0.148103 2.259053 0.131883
v 0.149626 0.182211 0.131883
v -0.148103 0.182211 0.131883
v 0.149626 0.182211 -0.131187
v 0.149626 0.210148 -0.149858
v 0.149626 0.154274 -0.149858
v -0.148103 0.182211 -0.131187
v -0.148103 0.210148 -0.149858
v -0.148103 0.154274 -0.149858
v 0.149626 2.259053 -0.131187
v 0.149626 2.286990 -0.149858
v 0.149626 2.231116 -0.149858
v -0.148103 2.259053 -0.131187
v -0.148103 2.286990 -0.149858
v -0.148103 2.231116 -0.149858
v 0.117574 2.394248 -0.119060
v 0.136472 2.700284 -0.149893
v 0.117574 2.394248 -0.180726
v 0.182082 2.394248 -0.119060
v 0.163184 2.700284 -0.149893
v 0.182082 2.394248 -0.180726
v 0.075975 2.477323 -0.149893
v 0.223681 2.477323 -0.149893
v 0.149828 2.488476 -0.097793
v 0.149828 2.488476 -0.201993
v -0.148934 2.488476 -0.201993
v -0.148934 2.488476 -0.097793
v -0.075081 2.477323 -0.149893
v -0.222787 2.477323 -0.149893
v -0.116680 2.394248 -0.180726
v -0.135578 2.700284 -0.149893
v -0.116680 2.394248 -0.119060
v -0.181188 2.394248 -0.180726
v -0.162290 2.700284 -0.149893
v -0.181188 2.394248 -0.119060
v 0.119311 -0.002187 -0.150000
v 0.119311 2.401030 -0.150000
v 0.149704 -0.002187 -0.180394
v 0.149704 2.401030 -0.180394
v 0.149704 -0.002187 -0.119606
v 0.149704 2.401030 -0.119606
v 0.180098 -0.002187 -0.150000
v 0.180098 2.401030 -0.150000
v -0.179334 -0.002187 -0.150000
v -0.179334 2.401030 -0.150000
v -0.148940 -0.002187 -0.180394
v -0.148940 2.401030 -0.180394
v -0.148940 -0.002187 -0.119606
v -0.148940 2.401030 -0.119606
v -0.118546 -0.002187 -0.150000
v -0.118546 2.401030 -0.150000
v 0.149626 2.259053 -0.168117
v -0.148103 2.259053 -0.168117
v 0.149626 0.182211 -0.168117
v -0.148103 0.182211 -0.168117
v -0.167792 0.182211 0.148321
v -0.149121 0.210148 0.148321
v -0.149121 0.154274 0.148321
v -0.167792 0.182211 -0.149539
v -0.149121 0.210148 -0.149539
v -0.149121 0.154274 -0.149539
v -0.167792 2.259053 0.148321
v -0.149121 2.286990 0.148321
v -0.149121 2.231116 0.148321
v -0.167792 2.259053 -0.149539
v -0.149121 2.286990 -0.149539
v -0.149121 2.231116 -0.149539
v -0.130862 2.259053 0.148321
v -0.130862 2.259053 -0.149539
v -0.130862 0.182211 0.148321
v -0.130862 0.182211 -0.149539
v 0.131167 0.182211 0.148321
v 0.149838 0.210148 0.148321
v 0.149838 0.154274 0.148321
v 0.131167 0.182211 -0.149539
v 0.149838 0.210148 -0.149539
v 0.149838 0.154274 -0.149539
v 0.131167 2.259053 0.148321
v 0.149838 2.286990 0.148321
v 0.149838 2.231116 0.148321
v 0.131167 2.259053 -0.149539
v 0.149838 2.286990 -0.149539
v 0.149838 2.231116 -0.149539
v 0.168097 2.259053 0.148321
v 0.168097 2.259053 -0.149539
v 0.168097 0.182211 0.148321
v 0.168097 0.182211 -0.149539
v -0.148103 2.059053 -0.168117
v 0.149626 2.059053 -0.168117
v -0.148103 2.031116 -0.149858
v -0.148103 2.086990 -0.149858
v -0.148103 2.059053 -0.131187
v 0.149626 2.031116 -0.149858
v 0.149626 2.086990 -0.149858
v 0.149626 2.059053 -0.131187
v -0.148103 2.059053 0.131883
v 0.149626 2.059053 0.131883
v -0.148103 2.031116 0.150142
v -0.148103 2.086990 0.150142
v -0.148103 2.059053 0.168813
v 0.149626 2.031116 0.150142
v 0.149626 2.086990 0.150142
v 0.149626 2.059053 0.168813
v -0.167792 2.059053 0.148321
v -0.149121 2.086990 0.148321
v -0.149121 2.031116 0.148321
v -0.167792 2.059053 -0.149539
v -0.149121 2.086990 -0.149539
v -0.149121 2.031116 -0.149539
v -0.130862 2.059053 0.148321
v -0.130862 2.059053 -0.149539
v 0.131167 2.059053 0.148321
v 0.149838 2.086990 0.148321
v 0.149838 2.031116 0.148321
v 0.131167 2.059053 -0.149539
v 0.149838 2.086990 -0.149539
v 0.149838 2.031116 -0.149539
v 0.168097 2.059053 0.148321
v 0.168097 2.059053 -0.149539
v -0.148103 0.359053 -0.168117
v 0.149626 0.359053 -0.168117
v -0.148103 0.331115 -0.149858
v -0.148103 0.386990 -0.149858
v -0.148103 0.359053 -0.131187
v 0.149626 0.331115 -0.149858
v 0.149626 0.386990 -0.149858
v 0.149626 0.359053 -0.131187
v -0.148103 0.359053 0.131883
v 0.149626 0.359053 0.131883
v -0.148103 0.331115 0.150142
v -0.148103 0.386990 0.150142
v -0.148103 0.359053 0.168813
v 0.149626 0.331115 0.150142
v 0.149626 0.386990 0.150142
v 0.149626 0.359053 0.168813
v -0.167792 0.359053 0.148321
v -0.149121 0.386990 0.148321
v -0.149121 0.331115 0.148321
v -0.167792 0.359053 -0.149539
v -0.149121 0.386990 -0.149539
v -0.149121 0.331115 -0.149539
v -0.130862 0.359053 0.148321
v -0.130862 0.359053 -0.149539
v 0.131167 0.359053 0.148321
v 0.149838 0.386990 0.148321
v 0.149838 0.331115 0.148321
v 0.131167 0.359053 -0.149539
v 0.149838 0.386990 -0.149539
v 0.149838 0.331115 -0.149539
v 0.168097 0.359053 0.148321
v 0.168097 0.359053 -0.149539
vt 0.828125 0.210938
vt 0.828125 0.222656
vt 0.820312 0.222656
vt 0.820312 0.214844
vt 0.882812 0.144531
vt 0.882812 0.128906
vt 0.890625 0.128906
vt 0.890625 0.140625
vt 0.843750 0.210938
vt 0.843750 0.222656
vt 0.781250 0.199219
vt 0.781250 0.210938
vt 0.765625 0.210938
vt 0.765625 0.199219
vt 0.882812 0.109375
vt 0.882812 0.097656
vt 0.890625 0.097656
vt 0.890625 0.109375
vt 0.796875 0.199219
vt 0.796875 0.210938
vt 0.789062 0.191406
vt 0.781250 0.167969
vt 0.789062 0.167969
vt 0.789062 0.140625
vt 0.781250 0.164062
vt 0.765625 0.136719
vt 0.765625 0.195312
vt 0.765625 0.191406
vt 0.773438 0.195312
vt 0.773438 0.128906
vt 0.820312 0.195312
vt 0.820312 0.187500
vt 0.843750 0.191406
vt 0.843750 0.164062
vt 0.843750 0.128906
vt 0.859375 0.136719
vt 0.843750 0.140625
vt 0.859375 0.164062
vt 0.851562 0.128906
vt 0.789062 0.164062
vt 0.789062 0.195312
vt 0.789062 0.128906
vt 0.781250 0.242188
vt 0.781250 0.246094
vt 0.765625 0.246094
vt 0.765625 0.242188
vt 0.929688 0.082031
vt 0.929688 0.082031
vt 0.914062 0.082031
vt 0.914062 0.082031
vt 0.796875 0.066406
vt 0.812500 0.066406
vt 0.812500 0.078125
vt 0.789062 0.128906
vt 0.773438 0.128906
vt 0.789062 0.125000
vt 0.765625 0.125000
vt 0.781250 0.097656
vt 0.812500 0.097656
vt 0.804688 0.097656
vt 0.820312 0.128906
vt 0.835938 0.128906
vt 0.843750 0.136719
vt 0.843750 0.164062
vt 0.820312 0.140625
vt 0.843750 0.125000
vt 0.820312 0.121094
vt 0.843750 0.097656
vt 0.820312 0.128906
vt 0.796875 0.074219
vt 0.765625 0.128906
vt 0.789062 0.097656
vt 0.773438 0.042969
vt 0.773438 0.281250
vt 0.773438 0.281250
vt 0.773438 0.042969
vt 0.890625 0.281250
vt 0.890625 0.042969
vt 0.890625 0.042969
vt 0.890625 0.281250
vt 0.789062 0.042969
vt 0.789062 0.281250
vt 0.781250 0.281250
vt 0.781250 0.042969
vt 0.820312 0.042969
vt 0.820312 0.281250
vt 0.812500 0.281250
vt 0.812500 0.042969
vt 0.773438 0.042969
vt 0.773438 0.281250
vt 0.765625 0.281250
vt 0.765625 0.042969
vt 0.921875 0.281250
vt 0.921875 0.042969
vt 0.937500 0.042969
vt 0.937500 0.281250
vt 0.843750 0.042969
vt 0.843750 0.281250
vt 0.835938 0.281250
vt 0.835938 0.042969
vt 0.757812 0.042969
vt 0.757812 0.281250
vt 0.742188 0.281250
vt 0.742188 0.042969
vt 0.867188 0.109375
vt 0.867188 0.093750
vt 0.867188 0.140625
vt 0.867188 0.128906
vt 0.859375 0.210938
vt 0.859375 0.222656
vt 0.843750 0.222656
vt 0.843750 0.214844
vt 0.882812 0.160156
vt 0.882812 0.148438
vt 0.890625 0.148438
vt 0.890625 0.156250
vt 0.875000 0.210938
vt 0.875000 0.222656
vt 0.859375 0.195312
vt 0.859375 0.207031
vt 0.843750 0.210938
vt 0.843750 0.199219
vt 0.882812 0.125000
vt 0.882812 0.113281
vt 0.890625 0.109375
vt 0.890625 0.125000
vt 0.875000 0.195312
vt 0.875000 0.207031
vt 0.812500 0.191406
vt 0.804688 0.167969
vt 0.812500 0.167969
vt 0.812500 0.140625
vt 0.804688 0.164062
vt 0.796875 0.136719
vt 0.796875 0.195312
vt 0.796875 0.191406
vt 0.796875 0.195312
vt 0.796875 0.128906
vt 0.820312 0.097656
vt 0.820312 0.082031
vt 0.843750 0.085938
vt 0.843750 0.066406
vt 0.843750 0.164062
vt 0.859375 0.175781
vt 0.843750 0.175781
vt 0.859375 0.195312
vt 0.851562 0.164062
vt 0.812500 0.164062
vt 0.812500 0.195312
vt 0.812500 0.128906
vt 0.906250 0.242188
vt 0.906250 0.246094
vt 0.898438 0.246094
vt 0.898438 0.242188
vt 0.796875 0.242188
vt 0.796875 0.246094
vt 0.789062 0.246094
vt 0.789062 0.242188
vt 0.796875 0.097656
vt 0.812500 0.101562
vt 0.812500 0.109375
vt 0.789062 0.097656
vt 0.773438 0.097656
vt 0.789062 0.085938
vt 0.765625 0.085938
vt 0.781250 0.066406
vt 0.812500 0.128906
vt 0.804688 0.128906
vt 0.843750 0.097656
vt 0.851562 0.097656
vt 0.859375 0.109375
vt 0.859375 0.128906
vt 0.843750 0.109375
vt 0.859375 0.085938
vt 0.843750 0.082031
vt 0.859375 0.066406
vt 0.843750 0.097656
vt 0.796875 0.109375
vt 0.765625 0.097656
vt 0.789062 0.066406
vt 0.898438 0.281250
vt 0.898438 0.042969
vt 0.906250 0.042969
vt 0.906250 0.281250
vt 0.914062 0.281250
vt 0.914062 0.042969
vt 0.921875 0.042969
vt 0.921875 0.281250
vt 0.812500 0.042969
vt 0.812500 0.281250
vt 0.796875 0.281250
vt 0.796875 0.042969
vt 0.875000 0.281250
vt 0.875000 0.042969
vt 0.882812 0.042969
vt 0.882812 0.281250
vt 0.843750 0.281250
vt 0.843750 0.042969
vt 0.843750 0.042969
vt 0.843750 0.281250
vt 0.937500 0.281250
vt 0.937500 0.042969
vt 0.937500 0.042969
vt 0.937500 0.281250
vt 0.828125 0.042969
vt 0.828125 0.281250
vt 0.828125 0.281250
vt 0.828125 0.042969
vt 0.851562 0.281250
vt 0.851562 0.042969
vt 0.867188 0.042969
vt 0.867188 0.281250
vt 0.867188 0.125000
vt 0.867188 0.109375
vt 0.867188 0.156250
vt 0.867188 0.144531
vt 0.890625 0.175781
vt 0.890625 0.144531
vt 0.890625 0.144531
vt 0.890625 0.175781
vt 0.906250 0.218750
vt 0.906250 0.210938
vt 0.921875 0.207031
vt 0.921875 0.218750
vt 0.898438 0.179688
vt 0.898438 0.191406
vt 0.890625 0.191406
vt 0.890625 0.179688
vt 0.898438 0.175781
vt 0.898438 0.144531
vt 0.898438 0.144531
vt 0.898438 0.175781
vt 0.898438 0.191406
vt 0.898438 0.179688
vt 0.914062 0.179688
vt 0.914062 0.191406
vt 0.859375 0.226562
vt 0.859375 0.242188
vt 0.843750 0.238281
vt 0.843750 0.226562
vt 0.906250 0.144531
vt 0.906250 0.175781
vt 0.898438 0.144531
vt 0.898438 0.175781
vt 0.890625 0.109375
vt 0.890625 0.082031
vt 0.890625 0.082031
vt 0.890625 0.109375
vt 0.906250 0.207031
vt 0.906250 0.195312
vt 0.921875 0.195312
vt 0.921875 0.207031
vt 0.898438 0.070312
vt 0.898438 0.078125
vt 0.890625 0.078125
vt 0.890625 0.066406
vt 0.898438 0.109375
vt 0.898438 0.082031
vt 0.898438 0.082031
vt 0.898438 0.109375
vt 0.898438 0.078125
vt 0.898438 0.066406
vt 0.914062 0.070312
vt 0.914062 0.078125
vt 0.882812 0.238281
vt 0.882812 0.226562
vt 0.890625 0.226562
vt 0.890625 0.242188
vt 0.906250 0.082031
vt 0.906250 0.109375
vt 0.898438 0.082031
vt 0.898438 0.109375
vt 0.843750 0.195312
vt 0.843750 0.207031
vt 0.828125 0.207031
vt 0.828125 0.195312
vt 0.882812 0.210938
vt 0.882812 0.199219
vt 0.890625 0.199219
vt 0.890625 0.207031
vt 0.882812 0.207031
vt 0.882812 0.195312
vt 0.820312 0.210938
vt 0.820312 0.199219
vt 0.890625 0.082031
vt 0.890625 0.089844
vt 0.882812 0.089844
vt 0.882812 0.082031
vt 0.882812 0.222656
vt 0.882812 0.214844
vt 0.890625 0.214844
vt 0.890625 0.222656
vt 0.882812 0.222656
vt 0.882812 0.210938
vt 0.867188 0.093750
vt 0.867188 0.082031
vt 0.898438 0.226562
vt 0.898438 0.195312
vt 0.898438 0.195312
vt 0.898438 0.226562
vt 0.851562 0.246094
vt 0.851562 0.242188
vt 0.867188 0.242188
vt 0.867188 0.250000
vt 0.835938 0.226562
vt 0.835938 0.242188
vt 0.820312 0.238281
vt 0.820312 0.226562
vt 0.898438 0.195312
vt 0.898438 0.226562
vt 0.804688 0.230469
vt 0.804688 0.199219
vt 0.804688 0.199219
vt 0.804688 0.230469
vt 0.835938 0.246094
vt 0.835938 0.242188
vt 0.843750 0.242188
vt 0.843750 0.250000
vt 0.781250 0.230469
vt 0.781250 0.242188
vt 0.765625 0.242188
vt 0.765625 0.230469
vt 0.812500 0.199219
vt 0.812500 0.230469
vt 0.796875 0.214844
vt 0.796875 0.226562
vt 0.781250 0.222656
vt 0.781250 0.214844
vt 0.882812 0.191406
vt 0.882812 0.179688
vt 0.890625 0.175781
vt 0.890625 0.191406
vt 0.867188 0.191406
vt 0.867188 0.175781
vt 0.765625 0.226562
vt 0.765625 0.214844
vt 0.890625 0.070312
vt 0.890625 0.078125
vt 0.882812 0.078125
vt 0.882812 0.066406
vt 0.882812 0.175781
vt 0.882812 0.164062
vt 0.890625 0.160156
vt 0.890625 0.175781
vt 0.867188 0.175781
vt 0.867188 0.160156
vt 0.867188 0.082031
vt 0.867188 0.070312
vt 0.898438 0.136719
vt 0.898438 0.109375
vt 0.898438 0.109375
vt 0.898438 0.136719
vt 0.890625 0.242188
vt 0.890625 0.250000
vt 0.882812 0.246094
vt 0.882812 0.242188
vt 0.898438 0.242188
vt 0.898438 0.230469
vt 0.906250 0.230469
vt 0.906250 0.242188
vt 0.906250 0.109375
vt 0.906250 0.136719
vt 0.890625 0.136719
vt 0.890625 0.109375
vt 0.890625 0.109375
vt 0.890625 0.136719
vt 0.820312 0.246094
vt 0.820312 0.242188
vt 0.835938 0.242188
vt 0.835938 0.250000
vt 0.789062 0.242188
vt 0.789062 0.230469
vt 0.796875 0.230469
vt 0.796875 0.242188
vt 0.898438 0.109375
vt 0.898438 0.136719
vn 0.0000 -0.0000 1.0000
vn 0.0000 -0.5557 0.8314
vn -0.0000 -0.0000 -1.0000
vn -0.0000 0.5471 -0.8371
vn -0.0000 0.5557 0.8314
vn 0.0000 0.0806 -0.9967
vn -0.1277 0.2293 -0.9649
vn 0.1277 0.2293 -0.9649
vn 0.0000 0.0806 0.9968
vn -0.1277 0.2293 0.9649
vn -0.9992 0.0407 0.0000
vn -0.4717 -0.6779 0.5638
vn -0.4717 -0.6779 -0.5638
vn 0.4717 -0.6779 -0.5638
vn 0.9992 0.0407 0.0000
vn 0.4717 -0.6779 0.5638
vn 0.1277 0.2293 0.9649
vn -0.0000 0.0806 0.9967
vn -0.7071 0.0000 -0.7071
vn 0.7071 0.0000 -0.7071
vn 0.7071 0.0000 0.7071
vn -0.7071 0.0000 0.7071
vn 1.0000 0.0000 0.0000
vn 0.0000 -0.5471 -0.8371
vn -0.0000 0.0806 -0.9968
vn -1.0000 -0.0000 -0.0000
vn -0.8314 -0.5557 -0.0000
vn 0.8371 0.5471 -0.0000
vn -0.8314 0.5557 -0.0000
vn 0.8371 -0.5471 0.0000
usemtl Material.001
s 1
f 1/1/1 4/2/1 6/3/2 3/4/2
f 51/5/3 52/6/3 5/7/4 2/8/4
f 2/9/5 5/10/5 4/2/1 1/1/1
f 7/11/1 10/12/1 12/13/2 9/14/2
f 49/15/3 50/16/3 11/17/4 8/18/4
f 8/19/5 11/20/5 10/12/1 7/11/1
f 22/21/6 14/22/7 17/23/8
f 21/24/9 14/25/10 19/26/11
f 13/27/12 19/28/11 15/29/13
f 13/30/12 21/24/9 19/26/11
f 18/31/14 22/32/6 20/33/15
f 20/33/15 22/32/6 17/34/8
f 15/29/13 19/28/11 22/21/6
f 16/35/16 20/36/15 21/37/9
f 20/36/15 17/38/17 21/37/9
f 16/35/16 18/39/14 20/36/15
f 17/40/17 14/25/10 21/24/9
f 19/28/11 14/22/7 22/21/6
f 18/41/14 15/29/13 22/21/6
f 13/30/12 16/42/16 21/24/9
f 18/43/14 16/44/16 13/45/12 15/46/13
f 27/47/14 29/48/16 32/49/12 30/50/13
f 32/51/12 29/52/16 24/53/18
f 27/54/14 30/55/13 23/56/6
f 26/57/11 31/58/7 23/56/6
f 28/59/17 31/60/10 24/53/18
f 29/61/16 27/62/14 25/63/15
f 25/63/15 28/64/17 24/65/18
f 29/61/16 25/63/15 24/65/18
f 30/55/13 26/57/11 23/56/6
f 25/66/15 23/67/6 28/68/8
f 27/69/14 23/67/6 25/66/15
f 32/51/12 24/53/18 26/70/11
f 32/71/12 26/57/11 30/55/13
f 24/53/18 31/60/10 26/70/11
f 23/56/6 31/58/7 28/72/8
f 33/73/19 34/74/19 36/75/3 35/76/3
f 35/77/3 36/78/3 40/79/20 39/80/20
f 39/81/21 40/82/21 38/83/1 37/84/1
f 37/85/1 38/86/1 34/87/22 33/88/22
f 41/89/19 42/90/19 44/91/3 43/92/3
f 43/93/3 44/94/3 48/95/23 47/96/23
f 47/97/23 48/98/23 46/99/1 45/100/1
f 45/101/1 46/102/1 42/103/22 41/104/22
f 9/105/24 12/106/24 50/16/3 49/15/3
f 3/107/24 6/108/24 52/6/3 51/5/3
f 53/109/1 56/110/1 58/111/2 55/112/2
f 103/113/3 104/114/3 57/115/4 54/116/4
f 54/117/5 57/118/5 56/110/1 53/109/1
f 59/119/1 62/120/1 64/121/2 61/122/2
f 101/123/3 102/124/3 63/125/4 60/126/4
f 60/127/5 63/128/5 62/120/1 59/119/1
f 74/129/6 66/130/7 69/131/8
f 73/132/9 66/133/10 71/134/11
f 65/135/12 71/136/11 67/137/13
f 65/138/12 73/132/9 71/134/11
f 70/139/14 74/140/6 72/141/15
f 72/141/15 74/140/6 69/142/8
f 67/137/13 71/136/11 74/129/6
f 68/143/16 72/144/15 73/145/9
f 72/144/15 69/146/17 73/145/9
f 68/143/16 70/147/14 72/144/15
f 69/148/17 66/133/10 73/132/9
f 71/136/11 66/130/7 74/129/6
f 70/149/14 67/137/13 74/129/6
f 65/138/12 68/150/16 73/132/9
f 70/151/14 68/152/16 65/153/12 67/154/13
f 79/155/14 81/156/16 84/157/12 82/158/13
f 84/159/12 81/160/16 76/161/18
f 79/162/14 82/163/13 75/164/25
f 78/165/11 83/166/7 75/164/25
f 80/167/17 83/168/10 76/161/18
f 81/169/16 79/170/14 77/171/15
f 77/171/15 80/172/17 76/173/18
f 81/169/16 77/171/15 76/173/18
f 82/163/13 78/165/11 75/164/25
f 77/174/15 75/175/25 80/176/8
f 79/177/14 75/175/25 77/174/15
f 84/159/12 76/161/18 78/178/11
f 84/179/12 78/165/11 82/163/13
f 76/161/18 83/168/10 78/178/11
f 75/164/25 83/166/7 80/180/8
f 85/181/19 86/182/19 88/183/3 87/184/3
f 87/185/3 88/186/3 92/187/20 91/188/20
f 91/189/21 92/190/21 90/191/1 89/192/1
f 89/193/1 90/194/1 86/195/22 85/196/22
f 93/197/19 94/198/19 96/199/3 95/200/3
f 95/201/3 96/202/3 100/203/23 99/204/23
f 99/205/23 100/206/23 98/207/1 97/208/1
f 97/209/1 98/210/1 94/211/22 93/212/22
f 61/213/24 64/214/24 102/124/3 101/123/3
f 55/215/24 58/216/24 104/114/3 103/113/3
f 105/217/26 108/218/26 110/219/27 107/220/27
f 119/221/23 120/222/23 109/223/28 106/224/28
f 106/225/29 109/226/29 108/227/26 105/228/26
f 111/229/26 114/230/26 116/231/27 113/232/27
f 117/233/23 118/234/23 115/235/28 112/236/28
f 112/237/29 115/238/29 114/239/26 111/240/26
f 113/232/30 116/231/30 118/241/23 117/242/23
f 107/220/30 110/219/30 120/243/23 119/244/23
f 121/245/26 124/246/26 126/247/27 123/248/27
f 135/249/23 136/250/23 125/251/28 122/252/28
f 122/253/29 125/254/29 124/255/26 121/256/26
f 127/257/26 130/258/26 132/259/27 129/260/27
f 133/261/23 134/262/23 131/263/28 128/264/28
f 128/265/29 131/266/29 130/267/26 127/268/26
f 129/260/30 132/259/30 134/269/23 133/270/23
f 123/248/30 126/247/30 136/271/23 135/272/23
f 143/273/5 140/274/5 141/275/1 144/276/1
f 138/277/3 137/278/3 140/279/4 143/280/4
f 142/281/24 139/282/24 137/278/3 138/277/3
f 144/276/1 141/275/1 139/283/2 142/284/2
f 151/285/5 148/286/5 149/287/1 152/288/1
f 146/289/3 145/290/3 148/291/4 151/292/4
f 150/293/24 147/294/24 145/290/3 146/289/3
f 152/288/1 149/287/1 147/295/2 150/296/2
f 153/297/26 156/298/26 158/299/27 155/300/27
f 159/301/23 160/302/23 157/303/28 154/304/28
f 154/305/29 157/306/29 156/307/26 153/308/26
f 155/300/30 158/299/30 160/309/23 159/310/23
f 161/311/26 164/312/26 166/313/27 163/314/27
f 167/315/23 168/316/23 165/317/28 162/318/28
f 162/319/29 165/320/29 164/321/26 161/322/26
f 163/314/30 166/313/30 168/323/23 167/324/23
f 175/325/5 172/326/5 173/327/1 176/328/1
f 170/329/3 169/330/3 172/331/4 175/332/4
f 174/333/24 171/334/24 169/330/3 170/329/3
f 176/328/1 173/327/1 171/335/2 174/336/2
f 183/337/5 180/338/5 181/339/1 184/340/1
f 178/341/3 177/342/3 180/343/4 183/344/4
f 182/345/24 179/346/24 177/342/3 178/341/3
f 184/340/1 181/339/1 179/347/2 182/348/2
f 185/349/26 188/350/26 190/351/27 187/352/27
f 191/353/23 192/354/23 189/355/28 186/356/28
f 186/357/29 189/358/29 188/359/26 185/360/26
f 187/352/30 190/351/30 192/361/23 191/362/23
f 193/363/26 196/364/26 198/365/27 195/366/27
f 199/367/23 200/368/23 197/369/28 194/370/28
f 194/371/29 197/372/29 196/373/26 193/374/26
f 195/366/30 198/365/30 200/375/23 199/376/23
