# Blender v2.93.5 OBJ File: 'Modular Graveyard.blend'
# www.blender.org
mtllib CLowWallWorn.mtl
o CLowWallWorn_Cube.070
v -0.391524 0.000000 0.071071
v -0.694364 0.000000 -0.096300
v -0.903577 0.000000 -0.303608
v -1.052007 0.000000 -0.558001
v -1.124932 0.000000 -0.854387
v -1.124932 0.860765 -0.854387
v -1.052007 0.860765 -0.558001
v -0.903577 0.860765 -0.303608
v -0.694364 0.860765 -0.096300
v -0.391524 0.860765 0.071071
v -0.876362 0.000000 -0.854805
v -0.822794 0.000000 -0.654174
v -0.707067 0.000000 -0.455829
v -0.543947 0.000000 -0.294195
v -0.308889 0.000000 -0.163363
v -0.308889 0.860765 -0.163363
v -0.543947 0.860765 -0.294195
v -0.707067 0.860765 -0.455829
v -0.822794 0.860765 -0.654174
v -0.876362 0.860765 -0.854805
v -1.143450 0.858354 -0.854355
v -1.069082 0.858354 -0.550836
v -0.918217 0.858354 -0.292268
v -0.705570 0.858354 -0.081557
v -0.397680 0.858354 0.088536
v -0.302733 0.858354 -0.180828
v -0.532741 0.858354 -0.308937
v -0.692427 0.858354 -0.467169
v -0.805719 0.858354 -0.661339
v -0.857844 0.858354 -0.854837
v -1.149591 0.988340 -0.854345
v -1.074745 0.988340 -0.548460
v -0.923072 0.988340 -0.288507
v -0.709286 0.988340 -0.076668
v -0.399721 0.988340 0.094327
v -0.300692 0.988340 -0.186619
v -0.529025 0.988340 -0.313826
v -0.687572 0.988340 -0.470930
v -0.800056 0.988340 -0.663715
v -0.851703 0.988340 -0.854847
v -0.350207 1.001591 -0.046146
v -0.619156 1.001591 -0.195247
v -0.805322 1.001591 -0.379718
v -0.937400 1.001591 -0.606087
v -1.000647 1.001591 -0.854596
v 0.000000 0.000000 -0.124040
v 0.000000 0.860765 -0.124040
v 0.000000 0.000000 0.124531
v 0.000000 0.860765 0.124531
v 0.000000 1.001591 0.000245
v 0.000000 0.858354 0.143049
v 0.000000 0.858354 -0.142558
v 0.000000 0.988340 0.149190
v 0.000000 0.988340 -0.148699
v 0.392183 0.000000 0.058103
v 0.694364 0.000000 -0.096300
v 0.903577 0.000000 -0.303608
v 1.052007 0.000000 -0.558001
v 1.124932 0.000000 -0.854387
v 1.124932 0.860765 -0.854387
v 1.052007 0.860765 -0.558001
v 0.903577 0.860765 -0.303608
v 0.694364 0.860765 -0.096300
v 0.392183 0.860765 0.058104
v 0.876362 0.000000 -0.854805
v 0.822794 0.000000 -0.654174
v 0.707067 0.000000 -0.455829
v 0.543947 0.000000 -0.294195
v 0.308230 0.000000 -0.175861
v 0.308230 0.860765 -0.175861
v 0.543947 0.860765 -0.294195
v 0.707067 0.860765 -0.455829
v 0.822794 0.860765 -0.654174
v 0.876362 0.860765 -0.854805
v 1.143450 0.858354 -0.854355
v 1.069082 0.858354 -0.550836
v 0.918217 0.858354 -0.292268
v 0.705570 0.858354 -0.081557
v 0.398438 0.858354 0.075533
v 0.301975 0.858354 -0.193291
v 0.532741 0.858354 -0.308937
v 0.692427 0.858354 -0.467169
v 0.805719 0.858354 -0.661339
v 0.857844 0.858354 -0.854837
v 1.149591 0.988340 -0.854345
v 1.074745 0.988340 -0.548460
v 0.923072 0.988340 -0.288507
v 0.709286 0.988340 -0.076668
v 0.400512 0.988340 0.081313
v 0.299901 0.988340 -0.199071
v 0.529025 0.988340 -0.313826
v 0.687572 0.988340 -0.470930
v 0.800056 0.988340 -0.663715
v 0.851703 0.988340 -0.854847
v 0.350207 1.001591 -0.058879
v 0.619156 1.001591 -0.195247
v 0.805322 1.001591 -0.379718
v 0.937400 1.001591 -0.606087
v 1.000647 1.001591 -0.854596
vt 0.148438 0.101562
vt 0.023438 0.101562
vt 0.023438 0.207031
vt 0.148438 0.207031
vt 0.093750 0.070312
vt 0.093750 0.093750
vt 0.007812 0.093750
vt 0.007812 0.070312
vt 0.093750 0.062500
vt 0.093750 0.039062
vt 0.007812 0.039062
vt 0.007812 0.062500
vt 0.093750 0.074219
vt 0.093750 0.082031
vt 0.007812 0.082031
vt 0.007812 0.074219
vt 0.007812 0.082031
vt 0.007812 0.074219
vt 0.093750 0.074219
vt 0.093750 0.082031
vt 0.171875 0.074219
vt 0.171875 0.082031
vt 0.250000 0.074219
vt 0.250000 0.082031
vt 0.328125 0.074219
vt 0.328125 0.082031
vt 0.406250 0.074219
vt 0.406250 0.082031
vt 0.406250 0.074219
vt 0.406250 0.082031
vt 0.328125 0.082031
vt 0.328125 0.074219
vt 0.250000 0.082031
vt 0.250000 0.074219
vt 0.171875 0.082031
vt 0.171875 0.074219
vt 0.406250 0.062500
vt 0.406250 0.039062
vt 0.328125 0.039062
vt 0.328125 0.062500
vt 0.250000 0.039062
vt 0.250000 0.062500
vt 0.171875 0.039062
vt 0.171875 0.062500
vt 0.007812 0.089844
vt 0.093750 0.089844
vt 0.171875 0.089844
vt 0.250000 0.089844
vt 0.328125 0.089844
vt 0.406250 0.089844
vt 0.007812 0.070312
vt 0.007812 0.093750
vt 0.093750 0.093750
vt 0.093750 0.070312
vt 0.171875 0.093750
vt 0.171875 0.070312
vt 0.250000 0.093750
vt 0.250000 0.070312
vt 0.328125 0.093750
vt 0.328125 0.070312
vt 0.406250 0.093750
vt 0.406250 0.070312
vt 0.406250 0.070312
vt 0.406250 0.093750
vt 0.328125 0.093750
vt 0.328125 0.070312
vt 0.250000 0.093750
vt 0.250000 0.070312
vt 0.171875 0.093750
vt 0.171875 0.070312
vt 0.023438 0.101562
vt 0.148438 0.101562
vt 0.148438 0.207031
vt 0.023438 0.207031
vt 0.101562 0.101562
vt 0.195312 0.101562
vt 0.195312 0.207031
vt 0.101562 0.207031
vt 0.296875 0.101562
vt 0.203125 0.101562
vt 0.203125 0.207031
vt 0.296875 0.207031
vt 0.226562 0.101562
vt 0.109375 0.101562
vt 0.109375 0.207031
vt 0.226562 0.207031
vt 0.015625 0.101562
vt 0.015625 0.207031
vt 0.015625 0.101562
vt 0.109375 0.101562
vt 0.109375 0.207031
vt 0.015625 0.207031
vt 0.218750 0.101562
vt 0.218750 0.207031
vt 0.359375 0.101562
vt 0.234375 0.101562
vt 0.234375 0.207031
vt 0.359375 0.207031
vt 0.203125 0.101562
vt 0.101562 0.101562
vt 0.101562 0.207031
vt 0.203125 0.207031
vt 0.179688 0.101562
vt 0.179688 0.207031
vt 0.054688 0.207031
vt 0.054688 0.101562
vt 0.093750 0.070312
vt 0.023438 0.070312
vt 0.023438 0.093750
vt 0.093750 0.093750
vt 0.093750 0.062500
vt 0.023438 0.062500
vt 0.023438 0.039062
vt 0.093750 0.039062
vt 0.093750 0.074219
vt 0.023438 0.074219
vt 0.023438 0.082031
vt 0.093750 0.082031
vt 0.023438 0.082031
vt 0.093750 0.082031
vt 0.093750 0.074219
vt 0.023438 0.074219
vt 0.171875 0.082031
vt 0.171875 0.074219
vt 0.250000 0.082031
vt 0.250000 0.074219
vt 0.328125 0.082031
vt 0.328125 0.074219
vt 0.406250 0.082031
vt 0.406250 0.074219
vt 0.406250 0.074219
vt 0.328125 0.074219
vt 0.328125 0.082031
vt 0.406250 0.082031
vt 0.250000 0.074219
vt 0.250000 0.082031
vt 0.171875 0.074219
vt 0.171875 0.082031
vt 0.406250 0.062500
vt 0.328125 0.062500
vt 0.328125 0.039062
vt 0.406250 0.039062
vt 0.250000 0.062500
vt 0.250000 0.039062
vt 0.171875 0.062500
vt 0.171875 0.039062
vt 0.093750 0.089844
vt 0.023438 0.089844
vt 0.171875 0.089844
vt 0.250000 0.089844
vt 0.328125 0.089844
vt 0.406250 0.089844
vt 0.023438 0.070312
vt 0.093750 0.070312
vt 0.093750 0.093750
vt 0.023438 0.093750
vt 0.171875 0.070312
vt 0.171875 0.093750
vt 0.250000 0.070312
vt 0.250000 0.093750
vt 0.328125 0.070312
vt 0.328125 0.093750
vt 0.406250 0.070312
vt 0.406250 0.093750
vt 0.406250 0.070312
vt 0.328125 0.070312
vt 0.328125 0.093750
vt 0.406250 0.093750
vt 0.250000 0.070312
vt 0.250000 0.093750
vt 0.171875 0.070312
vt 0.171875 0.093750
vt 0.054688 0.101562
vt 0.054688 0.207031
vt 0.179688 0.207031
vt 0.179688 0.101562
vt 0.101562 0.101562
vt 0.101562 0.207031
vt 0.195312 0.207031
vt 0.195312 0.101562
vt 0.296875 0.101562
vt 0.296875 0.207031
vt 0.203125 0.207031
vt 0.203125 0.101562
vt 0.226562 0.101562
vt 0.226562 0.207031
vt 0.109375 0.207031
vt 0.109375 0.101562
vt 0.015625 0.207031
vt 0.015625 0.101562
vt 0.015625 0.101562
vt 0.015625 0.207031
vt 0.109375 0.207031
vt 0.109375 0.101562
vt 0.218750 0.207031
vt 0.218750 0.101562
vt 0.359375 0.101562
vt 0.359375 0.207031
vt 0.234375 0.207031
vt 0.234375 0.101562
vt 0.203125 0.101562
vt 0.203125 0.207031
vt 0.101562 0.207031
vt 0.101562 0.101562
vn -0.3148 -0.0000 0.9491
vn 0.0160 -0.0000 0.9999
vn 0.3114 -0.0474 -0.9491
vn 0.3112 -0.0474 -0.9492
vn -0.0205 -0.0470 -0.9987
vn -0.0203 -0.0470 -0.9987
vn -0.0032 0.9999 0.0101
vn -0.0279 0.9961 0.0837
vn 0.0013 0.9960 0.0889
vn 0.0002 1.0000 0.0084
vn -0.0404 -0.9917 0.1220
vn -0.0398 -0.9917 0.1222
vn 0.0028 -0.9916 0.1296
vn 0.0023 -0.9916 0.1296
vn -0.0022 -0.9916 -0.1295
vn -0.0018 -0.9916 -0.1295
vn 0.0408 -0.9917 -0.1220
vn 0.0403 -0.9917 -0.1222
vn 0.0775 -0.9916 -0.1034
vn 0.0774 -0.9916 -0.1035
vn 0.1021 -0.9916 -0.0791
vn 0.1202 -0.9916 -0.0487
vn 0.1203 -0.9916 -0.0484
vn 0.1279 -0.9913 -0.0314
vn -0.1274 -0.9913 0.0342
vn -0.1199 -0.9915 0.0499
vn -0.1021 -0.9916 0.0791
vn -0.0776 -0.9916 0.1034
vn -0.0777 -0.9916 0.1033
vn -0.0139 0.9999 0.0030
vn -0.0878 0.9959 0.0219
vn -0.0824 0.9960 0.0336
vn -0.0074 1.0000 0.0027
vn -0.0701 0.9961 0.0543
vn -0.0058 1.0000 0.0045
vn -0.0532 0.9961 0.0709
vn -0.0046 1.0000 0.0063
vn -0.0018 0.9960 -0.0890
vn 0.0274 0.9961 -0.0839
vn 0.0532 0.9961 -0.0710
vn 0.0701 0.9961 -0.0543
vn 0.0824 0.9960 -0.0340
vn 0.0876 0.9959 -0.0229
vn 0.0158 -0.0470 0.9988
vn 0.0157 -0.0470 0.9988
vn -0.3148 -0.0474 0.9480
vn -0.3146 -0.0474 0.9480
vn -0.5988 -0.0472 0.7995
vn -0.5987 -0.0472 0.7996
vn -0.7897 -0.0472 0.6117
vn -0.9261 -0.0470 0.3744
vn -0.9261 -0.0470 0.3743
vn -0.9703 -0.0462 0.2376
vn 0.9644 -0.0462 -0.2602
vn 0.9217 -0.0469 -0.3852
vn 0.7897 -0.0472 -0.6117
vn 0.6001 -0.0471 -0.7985
vn 0.6002 -0.0471 -0.7985
vn -0.0200 0.0000 -0.9998
vn 0.3120 -0.0000 -0.9501
vn 0.6007 -0.0000 -0.7995
vn 0.7906 0.0000 -0.6124
vn 0.9232 0.0000 -0.3844
vn 0.9662 0.0000 -0.2580
vn -0.9710 0.0000 0.2389
vn -0.9269 0.0000 0.3753
vn -0.7906 0.0000 0.6124
vn -0.5995 0.0000 0.8004
vn 0.3146 0.0000 0.9492
vn -0.3100 -0.0471 -0.9496
vn -0.3098 -0.0471 -0.9496
vn 0.0026 1.0000 0.0081
vn 0.0281 0.9961 0.0842
vn 0.0405 -0.9916 0.1229
vn 0.0398 -0.9916 0.1231
vn -0.0404 -0.9916 -0.1229
vn -0.0410 -0.9916 -0.1227
vn -0.0754 -0.9917 -0.1046
vn -0.0758 -0.9917 -0.1042
vn -0.1021 -0.9916 -0.0791
vn -0.1203 -0.9916 -0.0484
vn -0.1202 -0.9916 -0.0487
vn -0.1279 -0.9913 -0.0314
vn 0.1274 -0.9913 0.0342
vn 0.1199 -0.9915 0.0499
vn 0.1021 -0.9916 0.0791
vn 0.0754 -0.9917 0.1044
vn 0.0749 -0.9917 0.1049
vn 0.0139 0.9999 0.0030
vn 0.0074 1.0000 0.0027
vn 0.0824 0.9960 0.0336
vn 0.0878 0.9959 0.0219
vn 0.0058 1.0000 0.0045
vn 0.0701 0.9961 0.0543
vn 0.0050 1.0000 0.0072
vn 0.0520 0.9961 0.0716
vn -0.0274 0.9960 -0.0845
vn -0.0515 0.9961 -0.0719
vn -0.0701 0.9961 -0.0543
vn -0.0824 0.9960 -0.0340
vn -0.0876 0.9959 -0.0229
vn 0.3145 -0.0471 0.9481
vn 0.3147 -0.0471 0.9480
vn 0.5858 -0.0473 0.8090
vn 0.5860 -0.0473 0.8089
vn 0.7897 -0.0472 0.6117
vn 0.9261 -0.0470 0.3743
vn 0.9261 -0.0470 0.3744
vn 0.9703 -0.0462 0.2376
vn -0.9644 -0.0462 -0.2602
vn -0.9217 -0.0469 -0.3852
vn -0.7897 -0.0472 -0.6117
vn -0.5826 -0.0473 -0.8114
vn -0.5824 -0.0473 -0.8115
vn -0.3107 0.0000 -0.9505
vn -0.5835 0.0000 -0.8121
vn -0.7906 0.0000 -0.6124
vn -0.9232 0.0000 -0.3844
vn -0.9662 0.0000 -0.2580
vn 0.9710 0.0000 0.2389
vn 0.9269 -0.0000 0.3753
vn 0.7906 0.0000 0.6124
vn 0.5864 0.0000 0.8100
usemtl Material.001
s 1
f 1/1/1 48/2/2 49/3/2 10/4/1
f 26/5/3 36/6/4 54/7/5 52/8/6
f 41/9/7 35/10/8 53/11/9 50/12/10
f 16/13/11 26/14/12 52/15/13 47/16/14
f 49/17/15 51/18/16 25/19/17 10/20/18
f 10/20/18 25/19/17 24/21/19 9/22/20
f 9/22/20 24/21/19 23/23/21 8/24/21
f 8/24/21 23/23/21 22/25/22 7/26/23
f 7/26/23 22/25/22 21/27/24 6/28/24
f 20/29/25 30/30/25 29/31/26 19/32/26
f 19/32/26 29/31/26 28/33/27 18/34/27
f 18/34/27 28/33/27 27/35/28 17/36/29
f 17/36/29 27/35/28 26/14/12 16/13/11
f 45/37/30 31/38/31 32/39/32 44/40/33
f 44/40/33 32/39/32 33/41/34 43/42/35
f 43/42/35 33/41/34 34/43/36 42/44/37
f 42/44/37 34/43/36 35/10/8 41/9/7
f 50/12/10 54/45/38 36/46/39 41/9/7
f 41/9/7 36/46/39 37/47/40 42/44/37
f 42/44/37 37/47/40 38/48/41 43/42/35
f 43/42/35 38/48/41 39/49/42 44/40/33
f 44/40/33 39/49/42 40/50/43 45/37/30
f 51/51/44 53/52/45 35/53/46 25/54/47
f 25/54/47 35/53/46 34/55/48 24/56/49
f 24/56/49 34/55/48 33/57/50 23/58/50
f 23/58/50 33/57/50 32/59/51 22/60/52
f 22/60/52 32/59/51 31/61/53 21/62/53
f 30/63/54 40/64/54 39/65/55 29/66/55
f 29/66/55 39/65/55 38/67/56 28/68/56
f 28/68/56 38/67/56 37/69/57 27/70/58
f 27/70/58 37/69/57 36/6/4 26/5/3
f 46/71/59 15/72/60 16/73/60 47/74/59
f 15/75/60 14/76/61 17/77/61 16/78/60
f 14/79/61 13/80/62 18/81/62 17/82/61
f 13/83/62 12/84/63 19/85/63 18/86/62
f 12/84/63 11/87/64 20/88/64 19/85/63
f 5/89/65 4/90/66 7/91/66 6/92/65
f 4/90/66 3/93/67 8/94/67 7/91/66
f 3/95/67 2/96/68 9/97/68 8/98/67
f 2/99/68 1/100/1 10/101/1 9/102/68
f 55/103/69 64/104/69 49/105/2 48/106/2
f 80/107/70 52/108/6 54/109/5 90/110/71
f 95/111/72 50/112/10 53/113/9 89/114/73
f 70/115/74 47/116/14 52/117/13 80/118/75
f 49/119/15 64/120/76 79/121/77 51/122/16
f 64/120/76 63/123/78 78/124/79 79/121/77
f 63/123/78 62/125/80 77/126/80 78/124/79
f 62/125/80 61/127/81 76/128/82 77/126/80
f 61/127/81 60/129/83 75/130/83 76/128/82
f 74/131/84 73/132/85 83/133/85 84/134/84
f 73/132/85 72/135/86 82/136/86 83/133/85
f 72/135/86 71/137/87 81/138/88 82/136/86
f 71/137/87 70/115/74 80/118/75 81/138/88
f 99/139/89 98/140/90 86/141/91 85/142/92
f 98/140/90 97/143/93 87/144/94 86/141/91
f 97/143/93 96/145/95 88/146/96 87/144/94
f 96/145/95 95/111/72 89/114/73 88/146/96
f 50/112/10 95/111/72 90/147/97 54/148/38
f 95/111/72 96/145/95 91/149/98 90/147/97
f 96/145/95 97/143/93 92/150/99 91/149/98
f 97/143/93 98/140/90 93/151/100 92/150/99
f 98/140/90 99/139/89 94/152/101 93/151/100
f 51/153/44 79/154/102 89/155/103 53/156/45
f 79/154/102 78/157/104 88/158/105 89/155/103
f 78/157/104 77/159/106 87/160/106 88/158/105
f 77/159/106 76/161/107 86/162/108 87/160/106
f 76/161/107 75/163/109 85/164/109 86/162/108
f 84/165/110 83/166/111 93/167/111 94/168/110
f 83/166/111 82/169/112 92/170/112 93/167/111
f 82/169/112 81/171/113 91/172/114 92/170/112
f 81/171/113 80/107/70 90/110/71 91/172/114
f 46/173/59 47/174/59 70/175/115 69/176/115
f 69/177/115 70/178/115 71/179/116 68/180/116
f 68/181/116 71/182/116 72/183/117 67/184/117
f 67/185/117 72/186/117 73/187/118 66/188/118
f 66/188/118 73/187/118 74/189/119 65/190/119
f 59/191/120 60/192/120 61/193/121 58/194/121
f 58/194/121 61/193/121 62/195/122 57/196/122
f 57/197/122 62/198/122 63/199/123 56/200/123
f 56/201/123 63/202/123 64/203/69 55/204/69
