# Blender v2.93.5 OBJ File: 'Modular Graveyard.blend'
# www.blender.org
mtllib RustyCLowRailingA.mtl
o RustyCLowRailingA_Circle.068
v -0.629848 0.359053 -0.180998
v -0.619230 0.386990 -0.194985
v -0.619230 0.331116 -0.194985
v -1.018735 0.359053 -0.851720
v -0.999601 0.386990 -0.851903
v -0.999601 0.331116 -0.851903
v -1.007629 0.494248 -0.757418
v -0.973026 0.800285 -0.746910
v -0.947958 0.494248 -0.772975
v -0.991355 0.494248 -0.694997
v -0.966287 0.800285 -0.721062
v -0.931684 0.494248 -0.710554
v -0.988288 0.577323 -0.805450
v -0.951025 0.577323 -0.662522
v -1.020071 0.588476 -0.720842
v -0.919242 0.588476 -0.747130
v -0.674987 0.588476 -0.322393
v -0.748776 0.588476 -0.248820
v -0.659736 0.577323 -0.233308
v -0.764027 0.577323 -0.337905
v -0.667274 0.494248 -0.284536
v -0.702451 0.800285 -0.276149
v -0.710942 0.494248 -0.240996
v -0.712821 0.494248 -0.330217
v -0.721312 0.800285 -0.295065
v -0.756489 0.494248 -0.286677
v -0.914248 0.494248 -0.505815
v -0.878094 0.800285 -0.504982
v -0.860945 0.494248 -0.536821
v -0.881813 0.494248 -0.450054
v -0.864663 0.800285 -0.481893
v -0.828510 0.494248 -0.481061
v -0.908513 0.577323 -0.557276
v -0.834245 0.577323 -0.429600
v -0.916414 0.588476 -0.467241
v -0.826344 0.588476 -0.519634
v -0.977252 -0.002187 -0.763543
v -0.977252 0.501030 -0.763543
v -0.940174 -0.002187 -0.741800
v -0.940174 0.501030 -0.741800
v -0.998995 -0.002187 -0.726464
v -0.998995 0.501030 -0.726464
v -0.961916 -0.002187 -0.704722
v -0.961916 0.501030 -0.704722
v -0.886534 -0.002187 -0.519703
v -0.886534 0.501030 -0.519703
v -0.844979 -0.002187 -0.508714
v -0.844979 0.501030 -0.508714
v -0.897524 -0.002187 -0.478149
v -0.897524 0.501030 -0.478149
v -0.855969 -0.002187 -0.467159
v -0.855969 0.501030 -0.467159
v -0.733295 -0.002187 -0.307234
v -0.733295 0.501030 -0.307234
v -0.690312 -0.002187 -0.307171
v -0.690312 0.501030 -0.307171
v -0.733358 -0.002187 -0.264251
v -0.733358 0.501030 -0.264251
v -0.690375 -0.002187 -0.264188
v -0.690375 0.501030 -0.264188
v -0.608843 0.359053 -0.208771
v -0.980606 0.359053 -0.851366
v -0.805482 0.331116 -0.380011
v -0.820994 0.359053 -0.367520
v -0.805482 0.386990 -0.380011
v -0.790122 0.359053 -0.391653
v -0.937036 0.331116 -0.606172
v -0.937036 0.386990 -0.606172
v -0.953864 0.359053 -0.598961
v -0.919286 0.359053 -0.612698
v -0.391777 0.331116 -0.065141
v -0.398956 0.359053 -0.046565
v -0.391777 0.386990 -0.065141
v -0.384305 0.359053 -0.082907
v -0.147380 0.331116 -0.000884
v -0.147256 0.359053 0.019516
v -0.147380 0.386990 -0.000884
v -0.146916 0.359053 -0.020545
v -0.478782 0.588476 -0.175473
v -0.530236 0.588476 -0.084863
v -0.440288 0.577323 -0.093699
v -0.568729 0.577323 -0.166637
v -0.461236 0.494248 -0.141052
v -0.492895 0.800285 -0.123573
v -0.491687 0.494248 -0.087430
v -0.517331 0.494248 -0.172907
v -0.516123 0.800285 -0.136763
v -0.547781 0.494248 -0.119284
v -0.530921 -0.002187 -0.145290
v -0.530921 0.501030 -0.145290
v -0.489483 -0.002187 -0.156711
v -0.489483 0.501030 -0.156711
v -0.519500 -0.002187 -0.103851
v -0.519500 0.501030 -0.103851
v -0.478062 -0.002187 -0.115272
v -0.478062 0.501030 -0.115272
v -0.255607 0.588476 -0.083554
v -0.281803 0.588476 0.017299
v -0.197224 0.577323 -0.014561
v -0.340186 0.577323 -0.051695
v -0.229735 0.494248 -0.054861
v -0.255778 0.800285 -0.029770
v -0.245238 0.494248 0.004824
v -0.292172 0.494248 -0.071079
v -0.281632 0.800285 -0.036485
v -0.307674 0.494248 -0.011394
v -0.298135 -0.002187 -0.040882
v -0.298135 0.501030 -0.040882
v -0.261076 -0.002187 -0.062659
v -0.261076 0.501030 -0.062659
v -0.276358 -0.002187 -0.003824
v -0.276358 0.501030 -0.003824
v -0.239300 -0.002187 -0.025600
v -0.239300 0.501030 -0.025600
v 0.032381 0.494248 -0.032139
v -0.032130 0.494248 0.029523
v -0.013231 0.800285 -0.001309
v -0.032127 0.494248 -0.032143
v 0.073978 0.577323 -0.001305
v -0.073727 0.577323 -0.001312
v 0.000123 0.588476 0.050792
v 0.000128 0.588476 -0.053408
v -0.980663 0.359053 -0.981573
v -0.999630 0.386990 -0.981835
v -1.018811 0.359053 -0.982084
v -0.999630 0.331116 -0.981835
v 0.629848 0.359053 -0.180998
v 0.619230 0.386990 -0.194985
v 0.619230 0.331116 -0.194985
v 1.018735 0.359053 -0.851720
v 0.999601 0.386990 -0.851903
v 0.999601 0.331116 -0.851903
v 1.007629 0.494248 -0.757418
v 0.973026 0.800285 -0.746910
v 0.947958 0.494248 -0.772975
v 0.991355 0.494248 -0.694997
v 0.966287 0.800285 -0.721062
v 0.931684 0.494248 -0.710554
v 0.988288 0.577323 -0.805450
v 0.951025 0.577323 -0.662522
v 1.020071 0.588476 -0.720842
v 0.919242 0.588476 -0.747130
v 0.674987 0.588476 -0.322393
v 0.748776 0.588476 -0.248820
v 0.659736 0.577323 -0.233308
v 0.764027 0.577323 -0.337905
v 0.667274 0.494248 -0.284536
v 0.702451 0.800285 -0.276149
v 0.710942 0.494248 -0.240996
v 0.712821 0.494248 -0.330217
v 0.721312 0.800285 -0.295065
v 0.756489 0.494248 -0.286677
v 0.914248 0.494248 -0.505815
v 0.878094 0.800285 -0.504982
v 0.860945 0.494248 -0.536821
v 0.881813 0.494248 -0.450054
v 0.864663 0.800285 -0.481893
v 0.828510 0.494248 -0.481061
v 0.908513 0.577323 -0.557276
v 0.834245 0.577323 -0.429600
v 0.916414 0.588476 -0.467241
v 0.826344 0.588476 -0.519634
v 0.977252 -0.002187 -0.763543
v 0.977252 0.501030 -0.763543
v 0.940174 -0.002187 -0.741800
v 0.940174 0.501030 -0.741800
v 0.998995 -0.002187 -0.726464
v 0.998995 0.501030 -0.726464
v 0.961916 -0.002187 -0.704722
v 0.961916 0.501030 -0.704722
v 0.886534 -0.002187 -0.519703
v 0.886534 0.501030 -0.519703
v 0.844979 -0.002187 -0.508714
v 0.844979 0.501030 -0.508714
v 0.897524 -0.002187 -0.478149
v 0.897524 0.501030 -0.478149
v 0.855969 -0.002187 -0.467159
v 0.855969 0.501030 -0.467159
v 0.733295 -0.002187 -0.307234
v 0.733295 0.501030 -0.307234
v 0.690312 -0.002187 -0.307171
v 0.690312 0.501030 -0.307171
v 0.733358 -0.002187 -0.264251
v 0.733358 0.501030 -0.264251
v 0.690375 -0.002187 -0.264188
v 0.690375 0.501030 -0.264188
v 0.608843 0.359053 -0.208771
v 0.980606 0.359053 -0.851366
v 0.805482 0.331116 -0.380011
v 0.820994 0.359053 -0.367520
v 0.805482 0.386990 -0.380011
v 0.790122 0.359053 -0.391653
v 0.937036 0.331116 -0.606172
v 0.937036 0.386990 -0.606172
v 0.953864 0.359053 -0.598961
v 0.919286 0.359053 -0.612698
v 0.391777 0.331116 -0.065141
v 0.398956 0.359053 -0.046565
v 0.391777 0.386990 -0.065141
v 0.384305 0.359053 -0.082907
v 0.147380 0.331116 -0.000884
v 0.147256 0.359053 0.019516
v 0.147380 0.386990 -0.000884
v 0.146916 0.359053 -0.020545
v 0.478782 0.588476 -0.175473
v 0.530236 0.588476 -0.084863
v 0.440288 0.577323 -0.093699
v 0.568729 0.577323 -0.166637
v 0.461236 0.494248 -0.141052
v 0.492895 0.800285 -0.123573
v 0.491687 0.494248 -0.087430
v 0.517331 0.494248 -0.172907
v 0.516123 0.800285 -0.136763
v 0.547781 0.494248 -0.119284
v 0.530921 -0.002187 -0.145290
v 0.530921 0.501030 -0.145290
v 0.489483 -0.002187 -0.156711
v 0.489483 0.501030 -0.156711
v 0.519500 -0.002187 -0.103851
v 0.519500 0.501030 -0.103851
v 0.478062 -0.002187 -0.115272
v 0.478062 0.501030 -0.115272
v 0.255607 0.588476 -0.083554
v 0.281803 0.588476 0.017299
v 0.197224 0.577323 -0.014561
v 0.340186 0.577323 -0.051695
v 0.229735 0.494248 -0.054861
v 0.255778 0.800285 -0.029770
v 0.245238 0.494248 0.004824
v 0.292172 0.494248 -0.071079
v 0.281632 0.800285 -0.036485
v 0.307674 0.494248 -0.011394
v 0.298135 -0.002187 -0.040882
v 0.298135 0.501030 -0.040882
v 0.261076 -0.002187 -0.062659
v 0.261076 0.501030 -0.062659
v 0.276358 -0.002187 -0.003824
v 0.276358 0.501030 -0.003824
v 0.239300 -0.002187 -0.025600
v 0.239300 0.501030 -0.025600
v 0.980663 0.359053 -0.981573
v 0.999630 0.386990 -0.981835
v 1.018811 0.359053 -0.982084
v 0.999630 0.331116 -0.981835
v 0.013482 0.800285 -0.001308
v 0.032378 0.494248 0.029526
v 0.030560 -0.002187 -0.001414
v 0.030560 0.501030 -0.001414
v 0.000168 -0.002187 -0.031809
v 0.000168 0.501030 -0.031809
v 0.000165 -0.002187 0.028979
v 0.000165 0.501030 0.028979
v -0.030227 -0.002187 -0.001417
v -0.030227 0.501030 -0.001417
vt 0.875000 0.082031
vt 0.875000 0.058594
vt 0.898438 0.058594
vt 0.898438 0.082031
vt 0.820312 0.117188
vt 0.820312 0.097656
vt 0.828125 0.097656
vt 0.828125 0.117188
vt 0.851562 0.082031
vt 0.851562 0.058594
vt 0.835938 0.214844
vt 0.828125 0.179688
vt 0.835938 0.179688
vt 0.906250 0.175781
vt 0.921875 0.140625
vt 0.921875 0.179688
vt 0.906250 0.191406
vt 0.921875 0.191406
vt 0.835938 0.230469
vt 0.828125 0.214844
vt 0.851562 0.214844
vt 0.859375 0.175781
vt 0.820312 0.234375
vt 0.804688 0.218750
vt 0.859375 0.105469
vt 0.843750 0.089844
vt 0.875000 0.089844
vt 0.875000 0.050781
vt 0.859375 0.230469
vt 0.882812 0.050781
vt 0.835938 0.234375
vt 0.882812 0.105469
vt 0.804688 0.261719
vt 0.828125 0.257812
vt 0.828125 0.265625
vt 0.804688 0.269531
vt 0.828125 0.125000
vt 0.859375 0.121094
vt 0.859375 0.128906
vt 0.828125 0.132812
vt 0.859375 0.105469
vt 0.875000 0.105469
vt 0.875000 0.125000
vt 0.796875 0.113281
vt 0.820312 0.113281
vt 0.812500 0.128906
vt 0.914062 0.105469
vt 0.914062 0.144531
vt 0.898438 0.109375
vt 0.875000 0.164062
vt 0.867188 0.164062
vt 0.757812 0.199219
vt 0.773438 0.199219
vt 0.773438 0.214844
vt 0.773438 0.257812
vt 0.750000 0.218750
vt 0.898438 0.089844
vt 0.781250 0.128906
vt 0.804688 0.164062
vt 0.843750 0.121094
vt 0.914062 0.089844
vt 0.820312 0.164062
vt 0.789062 0.089844
vt 0.812500 0.125000
vt 0.804688 0.125000
vt 0.867188 0.066406
vt 0.882812 0.101562
vt 0.843750 0.066406
vt 0.750000 0.070312
vt 0.765625 0.054688
vt 0.773438 0.070312
vt 0.851562 0.050781
vt 0.773438 0.070312
vt 0.765625 0.085938
vt 0.789062 0.070312
vt 0.812500 0.085938
vt 0.867188 0.050781
vt 0.890625 0.062500
vt 0.890625 0.101562
vt 0.914062 0.203125
vt 0.890625 0.203125
vt 0.914062 0.187500
vt 0.828125 0.164062
vt 0.851562 0.160156
vt 0.851562 0.167969
vt 0.828125 0.171875
vt 0.890625 0.257812
vt 0.890625 0.167969
vt 0.906250 0.167969
vt 0.906250 0.257812
vt 0.750000 0.253906
vt 0.750000 0.164062
vt 0.757812 0.164062
vt 0.757812 0.253906
vt 0.875000 0.164062
vt 0.875000 0.074219
vt 0.890625 0.074219
vt 0.890625 0.164062
vt 0.828125 0.167969
vt 0.828125 0.078125
vt 0.843750 0.078125
vt 0.843750 0.167969
vt 0.820312 0.164062
vt 0.820312 0.253906
vt 0.812500 0.253906
vt 0.812500 0.164062
vt 0.804688 0.171875
vt 0.804688 0.257812
vt 0.796875 0.257812
vt 0.796875 0.171875
vt 0.875000 0.164062
vt 0.875000 0.253906
vt 0.867188 0.253906
vt 0.867188 0.164062
vt 0.859375 0.171875
vt 0.859375 0.257812
vt 0.851562 0.257812
vt 0.851562 0.171875
vt 0.906250 0.175781
vt 0.906250 0.261719
vt 0.890625 0.261719
vt 0.890625 0.175781
vt 0.921875 0.175781
vt 0.921875 0.261719
vt 0.914062 0.261719
vt 0.914062 0.175781
vt 0.820312 0.171875
vt 0.820312 0.261719
vt 0.804688 0.261719
vt 0.804688 0.171875
vt 0.867188 0.171875
vt 0.867188 0.261719
vt 0.851562 0.261719
vt 0.851562 0.171875
vt 0.796875 0.117188
vt 0.796875 0.097656
vt 0.796875 0.164062
vt 0.796875 0.140625
vt 0.820312 0.140625
vt 0.820312 0.164062
vt 0.851562 0.128906
vt 0.851562 0.105469
vt 0.875000 0.105469
vt 0.875000 0.128906
vt 0.828125 0.140625
vt 0.828125 0.164062
vt 0.898438 0.105469
vt 0.898438 0.128906
vt 0.796875 0.183594
vt 0.820312 0.183594
vt 0.851562 0.144531
vt 0.875000 0.144531
vt 0.828125 0.183594
vt 0.898438 0.144531
vt 0.804688 0.062500
vt 0.804688 0.046875
vt 0.820312 0.046875
vt 0.820312 0.066406
vt 0.750000 0.066406
vt 0.750000 0.046875
vt 0.773438 0.046875
vt 0.765625 0.062500
vt 0.843750 0.046875
vt 0.843750 0.062500
vt 0.789062 0.046875
vt 0.789062 0.066406
vt 0.921875 0.125000
vt 0.921875 0.132812
vt 0.906250 0.128906
vt 0.906250 0.121094
vt 0.820312 0.207031
vt 0.843750 0.207031
vt 0.843750 0.226562
vt 0.914062 0.210938
vt 0.937500 0.210938
vt 0.937500 0.226562
vt 0.867188 0.234375
vt 0.867188 0.277344
vt 0.843750 0.238281
vt 0.843750 0.265625
vt 0.835938 0.265625
vt 0.906250 0.078125
vt 0.921875 0.078125
vt 0.929688 0.089844
vt 0.929688 0.132812
vt 0.898438 0.093750
vt 0.851562 0.222656
vt 0.898438 0.226562
vt 0.929688 0.261719
vt 0.812500 0.222656
vt 0.867188 0.222656
vt 0.937500 0.261719
vt 0.835938 0.074219
vt 0.835938 0.164062
vt 0.820312 0.164062
vt 0.820312 0.074219
vt 0.843750 0.074219
vt 0.843750 0.164062
vt 0.828125 0.164062
vt 0.828125 0.074219
vt 0.820312 0.074219
vt 0.820312 0.164062
vt 0.804688 0.164062
vt 0.804688 0.074219
vt 0.914062 0.074219
vt 0.914062 0.164062
vt 0.898438 0.164062
vt 0.898438 0.074219
vt 0.851562 0.066406
vt 0.851562 0.054688
vt 0.867188 0.058594
vt 0.867188 0.066406
vt 0.851562 0.265625
vt 0.835938 0.265625
vt 0.851562 0.250000
vt 0.820312 0.273438
vt 0.804688 0.273438
vt 0.820312 0.257812
vt 0.789062 0.257812
vt 0.812500 0.222656
vt 0.843750 0.214844
vt 0.851562 0.214844
vt 0.773438 0.093750
vt 0.757812 0.093750
vt 0.781250 0.078125
vt 0.820312 0.250000
vt 0.750000 0.078125
vt 0.781250 0.042969
vt 0.859375 0.261719
vt 0.851562 0.246094
vt 0.882812 0.250000
vt 0.875000 0.265625
vt 0.882812 0.207031
vt 0.820312 0.222656
vt 0.781250 0.164062
vt 0.781250 0.074219
vt 0.796875 0.074219
vt 0.796875 0.164062
vt 0.851562 0.082031
vt 0.851562 0.167969
vt 0.835938 0.167969
vt 0.835938 0.082031
vt 0.914062 0.167969
vt 0.914062 0.082031
vt 0.921875 0.082031
vt 0.921875 0.167969
vt 0.820312 0.082031
vt 0.820312 0.167969
vt 0.804688 0.167969
vt 0.804688 0.082031
vt 0.851562 0.046875
vt 0.875000 0.046875
vt 0.898438 0.046875
vt 0.820312 0.085938
vt 0.828125 0.085938
vt 0.796875 0.085938
vt 0.851562 0.140625
vt 0.867188 0.140625
vt 0.867188 0.152344
vt 0.851562 0.152344
vt 0.898438 0.140625
vt 0.921875 0.140625
vt 0.921875 0.152344
vt 0.898438 0.152344
vt 0.828125 0.140625
vt 0.828125 0.152344
vt 0.890625 0.257812
vt 0.882812 0.222656
vt 0.890625 0.222656
vt 0.914062 0.238281
vt 0.882812 0.238281
vt 0.898438 0.203125
vt 0.843750 0.269531
vt 0.828125 0.269531
vt 0.851562 0.257812
vt 0.898438 0.253906
vt 0.875000 0.273438
vt 0.859375 0.257812
vt 0.820312 0.253906
vt 0.765625 0.261719
vt 0.757812 0.242188
vt 0.789062 0.246094
vt 0.789062 0.210938
vt 0.781250 0.261719
vt 0.906250 0.203125
vt 0.851562 0.218750
vt 0.890625 0.273438
vt 0.914062 0.253906
vt 0.750000 0.269531
vt 0.750000 0.261719
vt 0.773438 0.265625
vt 0.773438 0.269531
vt 0.867188 0.128906
vt 0.867188 0.121094
vt 0.898438 0.125000
vt 0.898438 0.132812
vt 0.914062 0.167969
vt 0.906250 0.187500
vt 0.890625 0.167969
vt 0.789062 0.179688
vt 0.781250 0.199219
vt 0.765625 0.179688
vt 0.750000 0.195312
vt 0.773438 0.234375
vt 0.906250 0.226562
vt 0.914062 0.226562
vt 0.929688 0.136719
vt 0.921875 0.152344
vt 0.906250 0.136719
vt 0.875000 0.183594
vt 0.929688 0.187500
vt 0.898438 0.156250
vt 0.906250 0.074219
vt 0.921875 0.089844
vt 0.898438 0.093750
vt 0.929688 0.074219
vt 0.929688 0.132812
vt 0.789062 0.234375
vt 0.789062 0.101562
vt 0.796875 0.136719
vt 0.789062 0.136719
vt 0.812500 0.121094
vt 0.843750 0.117188
vt 0.843750 0.160156
vt 0.820312 0.105469
vt 0.835938 0.105469
vt 0.859375 0.078125
vt 0.882812 0.089844
vt 0.859375 0.093750
vt 0.882812 0.132812
vt 0.773438 0.082031
vt 0.757812 0.097656
vt 0.859375 0.167969
vt 0.875000 0.183594
vt 0.843750 0.183594
vt 0.867188 0.218750
vt 0.882812 0.078125
vt 0.875000 0.218750
vt 0.796875 0.082031
vt 0.875000 0.167969
vt 0.851562 0.199219
vt 0.851562 0.187500
vt 0.882812 0.191406
vt 0.882812 0.203125
vt 0.765625 0.164062
vt 0.750000 0.164062
vt 0.750000 0.074219
vt 0.765625 0.074219
vt 0.875000 0.148438
vt 0.890625 0.148438
vt 0.890625 0.238281
vt 0.875000 0.238281
vt 0.898438 0.167969
vt 0.882812 0.167969
vt 0.882812 0.082031
vt 0.898438 0.082031
vt 0.859375 0.082031
vt 0.875000 0.082031
vt 0.875000 0.167969
vt 0.859375 0.167969
vt 0.875000 0.113281
vt 0.890625 0.113281
vt 0.890625 0.199219
vt 0.875000 0.199219
vt 0.781250 0.175781
vt 0.796875 0.175781
vt 0.796875 0.261719
vt 0.781250 0.261719
vt 0.875000 0.074219
vt 0.890625 0.074219
vt 0.890625 0.164062
vt 0.875000 0.164062
vt 0.929688 0.171875
vt 0.937500 0.171875
vt 0.937500 0.261719
vt 0.929688 0.261719
vt 0.867188 0.175781
vt 0.882812 0.175781
vt 0.882812 0.261719
vt 0.867188 0.261719
vt 0.851562 0.078125
vt 0.867188 0.078125
vt 0.867188 0.167969
vt 0.851562 0.167969
vt 0.914062 0.167969
vt 0.929688 0.167969
vt 0.929688 0.257812
vt 0.914062 0.257812
vt 0.773438 0.164062
vt 0.789062 0.164062
vt 0.789062 0.253906
vt 0.773438 0.253906
vt 0.882812 0.140625
vt 0.882812 0.152344
vt 0.804688 0.132812
vt 0.820312 0.132812
vt 0.820312 0.152344
vt 0.804688 0.152344
vt 0.750000 0.132812
vt 0.765625 0.132812
vt 0.765625 0.152344
vt 0.750000 0.152344
vt 0.843750 0.132812
vt 0.843750 0.152344
vt 0.789062 0.132812
vt 0.789062 0.152344
vt 0.820312 0.171875
vt 0.804688 0.171875
vt 0.773438 0.175781
vt 0.750000 0.171875
vt 0.843750 0.171875
vt 0.789062 0.171875
vt 0.804688 0.109375
vt 0.820312 0.109375
vt 0.750000 0.109375
vt 0.765625 0.109375
vt 0.843750 0.109375
vt 0.789062 0.109375
vt 0.804688 0.085938
vt 0.820312 0.089844
vt 0.750000 0.089844
vt 0.765625 0.085938
vt 0.843750 0.085938
vt 0.789062 0.089844
vt 0.843750 0.187500
vt 0.812500 0.191406
vt 0.812500 0.183594
vt 0.843750 0.179688
vt 0.789062 0.105469
vt 0.804688 0.089844
vt 0.812500 0.105469
vt 0.859375 0.203125
vt 0.882812 0.187500
vt 0.882812 0.207031
vt 0.906250 0.191406
vt 0.906250 0.152344
vt 0.835938 0.050781
vt 0.820312 0.050781
vt 0.804688 0.054688
vt 0.804688 0.070312
vt 0.789062 0.054688
vt 0.835938 0.093750
vt 0.851562 0.191406
vt 0.898438 0.152344
vt 0.781250 0.089844
vt 0.843750 0.070312
vt 0.820312 0.070312
vt 0.843750 0.054688
vt 0.828125 0.226562
vt 0.812500 0.226562
vt 0.812500 0.136719
vt 0.828125 0.136719
vt 0.843750 0.253906
vt 0.835938 0.253906
vt 0.835938 0.164062
vt 0.843750 0.164062
vt 0.851562 0.226562
vt 0.835938 0.226562
vt 0.835938 0.136719
vt 0.851562 0.136719
vt 0.867188 0.226562
vt 0.859375 0.226562
vt 0.859375 0.136719
vt 0.867188 0.136719
vt 0.875000 0.171875
vt 0.898438 0.171875
vt 0.898438 0.179688
vt 0.875000 0.179688
vt 0.843750 0.222656
vt 0.859375 0.207031
vt 0.867188 0.226562
vt 0.796875 0.222656
vt 0.812500 0.207031
vt 0.820312 0.226562
vt 0.828125 0.238281
vt 0.804688 0.238281
vt 0.828125 0.199219
vt 0.867188 0.167969
vt 0.859375 0.167969
vt 0.820312 0.242188
vt 0.828125 0.226562
vt 0.828125 0.242188
vt 0.812500 0.226562
vt 0.828125 0.187500
vt 0.804688 0.253906
vt 0.781250 0.210938
vt 0.804688 0.167969
vt 0.828125 0.210938
vt 0.828125 0.253906
vt 0.820312 0.167969
vt 0.820312 0.261719
vt 0.804688 0.261719
vt 0.804688 0.175781
vt 0.820312 0.175781
vt 0.820312 0.144531
vt 0.804688 0.144531
vt 0.804688 0.058594
vt 0.820312 0.058594
vt 0.867188 0.164062
vt 0.859375 0.164062
vt 0.859375 0.074219
vt 0.867188 0.074219
vt 0.843750 0.261719
vt 0.828125 0.261719
vt 0.828125 0.171875
vt 0.843750 0.171875
vt 0.851562 0.164062
vt 0.828125 0.164062
vt 0.867188 0.164062
vt 0.921875 0.164062
vt 0.898438 0.164062
vt 0.882812 0.164062
vt 0.875000 0.273438
vt 0.851562 0.273438
vt 0.851562 0.265625
vt 0.875000 0.265625
vt 0.906250 0.105469
vt 0.921875 0.089844
vt 0.921875 0.105469
vt 0.867188 0.261719
vt 0.890625 0.250000
vt 0.890625 0.261719
vt 0.890625 0.144531
vt 0.867188 0.140625
vt 0.890625 0.105469
vt 0.921875 0.050781
vt 0.921875 0.050781
vt 0.820312 0.132812
vt 0.843750 0.117188
vt 0.843750 0.132812
vt 0.812500 0.113281
vt 0.843750 0.078125
vt 0.875000 0.160156
vt 0.851562 0.250000
vt 0.882812 0.210938
vt 0.890625 0.089844
vt 0.890625 0.160156
vt 0.890625 0.210938
vt 0.867188 0.164062
vt 0.851562 0.164062
vt 0.851562 0.074219
vt 0.867188 0.074219
vt 0.867188 0.261719
vt 0.851562 0.261719
vt 0.851562 0.171875
vt 0.867188 0.171875
vt 0.812500 0.164062
vt 0.796875 0.164062
vt 0.796875 0.074219
vt 0.812500 0.074219
vt 0.914062 0.261719
vt 0.898438 0.261719
vt 0.898438 0.171875
vt 0.914062 0.171875
vn -0.9259 -0.0000 0.3778
vn -0.9927 -0.0000 0.1204
vn -0.8215 -0.5598 0.1084
vn -0.7686 -0.5584 0.3121
vn 0.9247 0.0000 -0.3806
vn 0.9912 -0.0000 -0.1320
vn 0.8222 0.5608 -0.0980
vn 0.7672 0.5601 -0.3125
vn -0.7686 0.5584 0.3121
vn -0.8215 0.5598 0.1084
vn 0.9645 0.0806 -0.2515
vn 0.9015 0.2293 -0.3670
vn 0.9659 0.2293 -0.1199
vn -0.9645 0.0806 0.2515
vn -0.9659 0.2293 0.1199
vn -0.2521 0.0407 -0.9669
vn -0.6646 -0.6779 -0.3142
vn 0.4266 -0.6779 -0.5987
vn 0.6646 -0.6779 0.3142
vn 0.2521 0.0407 0.9669
vn -0.4266 -0.6779 0.5987
vn -0.9015 0.2293 0.3670
vn 0.7323 -0.6779 -0.0641
vn -0.0663 -0.6779 0.7321
vn -0.7323 -0.6779 0.0641
vn 0.0663 -0.6779 -0.7321
vn -0.7058 0.0806 0.7038
vn 0.7058 0.0806 -0.7038
vn -0.7055 0.0407 -0.7076
vn 0.5932 0.2293 -0.7717
vn -0.5932 0.2293 0.7717
vn -0.7735 0.2293 0.5909
vn 0.7055 0.0407 0.7076
vn 0.7735 0.2293 -0.5909
vn 0.8616 0.0806 -0.5012
vn 0.7699 0.2293 -0.5955
vn 0.8983 0.2293 -0.3748
vn -0.8616 0.0806 0.5012
vn -0.8983 0.2293 0.3748
vn -0.5024 0.0407 -0.8637
vn -0.7245 -0.6779 -0.1242
vn 0.2502 -0.6779 -0.6912
vn 0.7245 -0.6779 0.1242
vn 0.5024 0.0407 0.8637
vn -0.2502 -0.6779 0.6912
vn -0.7699 0.2293 0.5955
vn -0.2523 0.0000 -0.9677
vn 0.9677 0.0000 -0.2523
vn 0.8626 0.0000 0.5058
vn -0.5058 0.0000 0.8626
vn -0.9677 0.0000 0.2523
vn 0.2557 0.0000 -0.9668
vn 0.9668 0.0000 0.2557
vn 0.5028 0.0000 0.8644
vn -0.2557 0.0000 0.9668
vn -0.9668 0.0000 -0.2557
vn 0.0015 0.0000 -1.0000
vn 0.7081 0.0000 -0.7061
vn 0.7061 0.0000 0.7081
vn -0.0015 0.0000 1.0000
vn -1.0000 0.0000 -0.0015
vn 0.7672 -0.5601 -0.3125
vn 0.8222 -0.5608 -0.0980
vn 0.5066 -0.5475 -0.6661
vn 0.6588 -0.5550 -0.5079
vn 0.7915 0.0000 -0.6111
vn 0.6057 0.0000 -0.7957
vn -0.5029 0.5568 0.6611
vn -0.6549 0.5611 0.5062
vn -0.7900 -0.0000 0.6131
vn -0.6054 -0.0000 0.7960
vn 0.6588 0.5550 -0.5079
vn 0.5066 0.5475 -0.6661
vn -0.6549 -0.5611 0.5062
vn -0.5029 -0.5568 0.6611
vn 0.3136 -0.5576 -0.7685
vn 0.3768 0.0000 -0.9263
vn -0.3144 0.5686 0.7602
vn -0.3803 -0.0000 0.9249
vn 0.3136 0.5576 -0.7685
vn -0.3144 -0.5686 0.7602
vn 0.1013 -0.5735 -0.8130
vn 0.1334 0.0000 -0.9911
vn -0.1093 0.5863 0.8027
vn -0.1221 0.0000 0.9925
vn 0.1013 0.5735 -0.8130
vn -0.1093 -0.5863 0.8027
vn 0.6886 -0.6779 -0.2574
vn 0.1317 -0.6779 0.7232
vn -0.6886 -0.6779 0.2574
vn -0.1317 -0.6779 -0.7232
vn -0.4922 0.0806 0.8667
vn 0.4922 0.0806 -0.8667
vn -0.8689 0.0407 -0.4934
vn 0.3655 0.2293 -0.9021
vn -0.3655 0.2293 0.9021
vn -0.5875 0.2293 0.7760
vn 0.8689 0.0407 0.4934
vn 0.5875 0.2293 -0.7760
vn -0.2657 0.0000 -0.9641
vn 0.4938 0.0000 -0.8696
vn 0.8696 0.0000 0.4938
vn -0.4938 0.0000 0.8696
vn -0.9641 0.0000 0.2657
vn 0.5983 -0.6779 -0.4272
vn 0.3148 -0.6779 0.6643
vn -0.5983 -0.6779 0.4272
vn -0.3148 -0.6779 -0.6643
vn -0.2506 0.0806 0.9647
vn 0.2506 0.0806 -0.9647
vn -0.9671 0.0407 -0.2512
vn 0.1190 0.2293 -0.9660
vn -0.1190 0.2293 0.9660
vn -0.3662 0.2293 0.9019
vn 0.9671 0.0407 0.2512
vn 0.3662 0.2293 -0.9019
vn -0.5066 0.0000 -0.8622
vn 0.2514 0.0000 -0.9679
vn 0.9679 0.0000 0.2514
vn 0.5066 0.0000 0.8622
vn -0.8622 0.0000 0.5066
vn -0.8247 0.5655 0.0003
vn -1.0000 -0.0000 0.0004
vn -0.8247 -0.5655 0.0003
vn 1.0000 -0.0000 -0.0003
vn 0.8271 0.5620 -0.0003
vn 0.8271 -0.5620 -0.0003
vn 0.9259 -0.0000 0.3778
vn 0.7686 -0.5584 0.3121
vn 0.8215 -0.5598 0.1084
vn 0.9927 -0.0000 0.1204
vn -0.9247 0.0000 -0.3806
vn -0.7672 0.5601 -0.3125
vn -0.8222 0.5608 -0.0980
vn -0.9912 -0.0000 -0.1320
vn 0.7686 0.5584 0.3121
vn 0.8215 0.5598 0.1084
vn -0.9645 0.0806 -0.2515
vn -0.9659 0.2293 -0.1199
vn -0.9015 0.2293 -0.3670
vn 0.9645 0.0806 0.2515
vn 0.2521 0.0407 -0.9669
vn 0.9659 0.2293 0.1199
vn 0.6646 -0.6779 -0.3142
vn -0.4266 -0.6779 -0.5987
vn -0.6646 -0.6779 0.3142
vn -0.2521 0.0407 0.9669
vn 0.4266 -0.6779 0.5987
vn 0.9015 0.2293 0.3670
vn -0.7323 -0.6779 -0.0641
vn -0.0663 -0.6779 -0.7321
vn 0.7323 -0.6779 0.0641
vn 0.0663 -0.6779 0.7321
vn 0.7058 0.0806 0.7038
vn -0.7058 0.0806 -0.7038
vn 0.7055 0.0407 -0.7076
vn -0.5932 0.2293 -0.7717
vn 0.5932 0.2293 0.7717
vn 0.7735 0.2293 0.5909
vn -0.7055 0.0407 0.7076
vn -0.7735 0.2293 -0.5909
vn -0.8616 0.0806 -0.5012
vn -0.8983 0.2293 -0.3748
vn -0.7699 0.2293 -0.5955
vn 0.8616 0.0806 0.5012
vn 0.5024 0.0407 -0.8637
vn 0.8983 0.2293 0.3748
vn 0.7245 -0.6779 -0.1242
vn -0.2502 -0.6779 -0.6912
vn -0.7245 -0.6779 0.1242
vn -0.5024 0.0407 0.8637
vn 0.2502 -0.6779 0.6912
vn 0.7699 0.2293 0.5955
vn 0.2523 0.0000 -0.9677
vn -0.9677 0.0000 -0.2523
vn -0.8626 0.0000 0.5058
vn 0.5058 0.0000 0.8626
vn 0.9677 0.0000 0.2523
vn -0.2557 0.0000 -0.9668
vn -0.9668 0.0000 0.2557
vn -0.5028 0.0000 0.8644
vn 0.2557 0.0000 0.9668
vn 0.9668 0.0000 -0.2557
vn -0.0015 0.0000 -1.0000
vn -0.7081 0.0000 -0.7061
vn -0.7061 0.0000 0.7081
vn 0.0015 0.0000 1.0000
vn 1.0000 0.0000 -0.0015
vn -0.7672 -0.5601 -0.3125
vn -0.8222 -0.5608 -0.0980
vn -0.5066 -0.5475 -0.6661
vn -0.6057 0.0000 -0.7957
vn -0.7915 0.0000 -0.6111
vn -0.6588 -0.5550 -0.5079
vn 0.5029 0.5568 0.6611
vn 0.6054 -0.0000 0.7960
vn 0.7900 -0.0000 0.6131
vn 0.6549 0.5611 0.5062
vn -0.5066 0.5475 -0.6661
vn -0.6588 0.5550 -0.5079
vn 0.5029 -0.5568 0.6611
vn 0.6549 -0.5611 0.5062
vn -0.3136 -0.5576 -0.7685
vn -0.3768 0.0000 -0.9263
vn 0.3144 0.5686 0.7602
vn 0.3803 -0.0000 0.9249
vn -0.3136 0.5576 -0.7685
vn 0.3144 -0.5686 0.7602
vn -0.1013 -0.5735 -0.8130
vn -0.1334 0.0000 -0.9911
vn 0.1093 0.5863 0.8027
vn 0.1221 0.0000 0.9925
vn -0.1013 0.5735 -0.8130
vn 0.1093 -0.5863 0.8027
vn -0.6886 -0.6779 -0.2574
vn 0.1317 -0.6779 -0.7232
vn 0.6886 -0.6779 0.2574
vn -0.1317 -0.6779 0.7232
vn 0.4922 0.0806 0.8667
vn -0.4922 0.0806 -0.8667
vn 0.8689 0.0407 -0.4934
vn -0.3655 0.2293 -0.9021
vn 0.3655 0.2293 0.9021
vn 0.5875 0.2293 0.7760
vn -0.8689 0.0407 0.4934
vn -0.5875 0.2293 -0.7760
vn 0.2657 0.0000 -0.9641
vn -0.4938 0.0000 -0.8696
vn -0.8696 0.0000 0.4938
vn 0.4938 0.0000 0.8696
vn 0.9641 0.0000 0.2657
vn -0.5983 -0.6779 -0.4272
vn 0.3148 -0.6779 -0.6643
vn 0.5983 -0.6779 0.4272
vn -0.3148 -0.6779 0.6643
vn 0.2506 0.0806 0.9647
vn -0.2506 0.0806 -0.9647
vn 0.9671 0.0407 -0.2512
vn -0.1190 0.2293 -0.9660
vn 0.1190 0.2293 0.9660
vn 0.3662 0.2293 0.9019
vn -0.9671 0.0407 0.2512
vn -0.3662 0.2293 -0.9019
vn 0.5066 0.0000 -0.8622
vn -0.2514 0.0000 -0.9679
vn -0.9679 0.0000 0.2514
vn -0.5066 0.0000 0.8622
vn 0.8622 0.0000 0.5066
vn 1.0000 -0.0000 0.0004
vn 0.8247 0.5655 0.0003
vn 0.8247 -0.5655 0.0003
vn -0.8271 0.5620 -0.0003
vn -1.0000 -0.0000 -0.0003
vn -0.8271 -0.5620 -0.0003
vn -0.4716 -0.6779 -0.5639
vn 0.4717 -0.6779 -0.5638
vn 0.4716 -0.6779 0.5639
vn -0.4717 -0.6779 0.5638
vn -0.0000 0.0806 0.9967
vn 0.0000 0.0806 -0.9967
vn 0.9992 0.0407 0.0000
vn 0.1277 0.2293 -0.9649
vn -0.1277 0.2293 0.9649
vn 0.1276 0.2293 0.9650
vn -0.9992 0.0407 -0.0000
vn -0.1276 0.2293 -0.9650
vn 0.7071 0.0000 -0.7071
vn 0.0000 0.0000 -1.0000
vn -1.0000 0.0000 -0.0001
vn -0.7071 0.0000 0.7071
vn 0.7071 0.0000 0.7071
usemtl Material.001
s 1
f 69/1/1 4/2/2 6/3/3 67/4/4
f 70/5/5 62/6/6 5/7/7 68/8/8
f 68/9/9 5/10/10 4/2/2 69/1/1
f 16/11/11 8/12/12 11/13/13
f 15/14/14 8/15/15 13/16/16
f 7/17/17 13/16/16 9/18/18
f 7/17/17 15/14/14 13/16/16
f 12/19/19 16/20/11 14/21/20
f 14/21/20 16/20/11 11/22/13
f 9/23/18 13/24/16 16/11/11
f 10/25/21 14/26/20 15/27/14
f 14/26/20 11/28/22 15/27/14
f 10/29/21 12/19/19 14/21/20
f 11/28/22 8/30/15 15/27/14
f 13/24/16 8/12/12 16/11/11
f 12/31/19 9/23/18 16/11/11
f 7/32/17 10/25/21 15/27/14
f 12/33/19 10/34/21 7/35/17 9/36/18
f 21/37/23 23/38/24 26/39/25 24/40/26
f 26/41/25 23/42/24 18/43/27
f 21/44/23 24/45/26 17/46/28
f 20/47/29 25/48/30 17/49/28
f 22/50/31 25/51/32 18/43/27
f 23/52/24 21/53/23 19/54/33
f 19/54/33 22/55/31 18/56/27
f 23/52/24 19/54/33 18/56/27
f 24/57/26 20/47/29 17/49/28
f 19/58/33 17/46/28 22/59/34
f 21/44/23 17/46/28 19/58/33
f 26/41/25 18/43/27 20/60/29
f 26/61/25 20/47/29 24/57/26
f 18/43/27 25/51/32 20/60/29
f 17/46/28 25/62/30 22/59/34
f 36/63/35 28/64/36 31/65/37
f 35/66/38 28/67/39 33/68/40
f 27/69/41 33/70/40 29/71/42
f 27/72/41 35/66/38 33/68/40
f 32/73/43 36/63/35 34/74/44
f 34/74/44 36/63/35 31/65/37
f 29/75/42 33/76/40 36/63/35
f 30/77/45 34/78/44 35/66/38
f 34/78/44 31/79/46 35/66/38
f 30/80/45 32/81/43 34/82/44
f 31/79/46 28/67/39 35/66/38
f 33/76/40 28/64/36 36/63/35
f 32/73/43 29/75/42 36/63/35
f 27/72/41 30/77/45 35/66/38
f 32/83/43 30/84/45 27/85/41 29/86/42
f 37/87/47 38/88/47 40/89/48 39/90/48
f 39/91/48 40/92/48 44/93/49 43/94/49
f 43/95/50 44/96/50 42/97/51 41/98/51
f 41/99/51 42/100/51 38/101/47 37/102/47
f 45/103/52 46/104/52 48/105/52 47/106/52
f 47/107/53 48/108/53 52/109/54 51/110/54
f 51/111/54 52/112/54 50/113/55 49/114/55
f 49/115/56 50/116/56 46/117/56 45/118/56
f 53/119/57 54/120/57 56/121/58 55/122/58
f 55/123/58 56/124/58 60/125/59 59/126/59
f 59/127/59 60/128/59 58/129/60 57/130/60
f 57/131/61 58/132/61 54/133/61 53/134/61
f 67/135/62 6/136/63 62/6/6 70/5/5
f 3/137/64 63/138/65 66/139/66 61/140/67
f 2/141/68 65/142/69 64/143/70 1/144/71
f 61/140/67 66/139/66 65/145/72 2/146/73
f 1/144/71 64/143/70 63/147/74 3/148/75
f 63/138/65 67/135/62 70/5/5 66/139/66
f 65/142/69 68/9/9 69/1/1 64/143/70
f 66/139/66 70/5/5 68/8/8 65/145/72
f 64/143/70 69/1/1 67/4/4 63/147/74
f 71/149/76 3/137/64 61/140/67 74/150/77
f 73/151/78 2/141/68 1/144/71 72/152/79
f 74/150/77 61/140/67 2/146/73 73/153/80
f 72/152/79 1/144/71 3/148/75 71/154/81
f 75/155/82 71/156/76 74/157/77 78/158/83
f 77/159/84 73/160/78 72/161/79 76/162/85
f 78/158/83 74/157/77 73/163/80 77/164/86
f 76/162/85 72/161/79 71/165/81 75/166/87
f 83/167/88 85/168/89 88/169/90 86/170/91
f 88/171/90 85/172/89 80/173/92
f 83/174/88 86/175/91 79/176/93
f 82/177/94 87/178/95 79/179/93
f 84/180/96 87/181/97 80/173/92
f 85/182/89 83/183/88 81/184/98
f 81/184/98 84/185/96 80/186/92
f 85/182/89 81/184/98 80/186/92
f 86/187/91 82/177/94 79/179/93
f 81/188/98 79/176/93 84/189/99
f 83/174/88 79/176/93 81/188/98
f 88/171/90 80/173/92 82/190/94
f 88/191/90 82/177/94 86/187/91
f 80/173/92 87/181/97 82/190/94
f 79/176/93 87/192/95 84/189/99
f 89/193/100 90/194/100 92/195/101 91/196/101
f 91/197/101 92/198/101 96/199/102 95/200/102
f 95/201/102 96/202/102 94/203/103 93/204/103
f 93/205/103 94/206/103 90/207/104 89/208/104
f 101/209/105 103/210/106 106/211/107 104/212/108
f 106/213/107 103/214/106 98/215/109
f 101/216/105 104/217/108 97/218/110
f 100/219/111 105/220/112 97/218/110
f 102/221/113 105/222/114 98/215/109
f 103/223/106 101/224/105 99/225/115
f 99/226/115 102/221/113 98/215/109
f 103/214/106 99/226/115 98/215/109
f 104/217/108 100/219/111 97/218/110
f 99/225/115 97/227/110 102/228/116
f 101/224/105 97/227/110 99/225/115
f 106/229/107 98/230/109 100/231/111
f 106/229/107 100/231/111 104/232/108
f 98/230/109 105/233/114 100/231/111
f 97/218/110 105/220/112 102/234/116
f 107/235/117 108/236/117 110/237/118 109/238/118
f 109/239/118 110/240/118 114/241/119 113/242/119
f 113/243/119 114/244/119 112/245/120 111/246/120
f 111/247/121 112/248/121 108/249/121 107/250/121
f 5/10/10 124/251/122 125/252/123 4/2/2
f 4/2/2 125/252/123 126/253/124 6/3/3
f 62/6/6 123/254/125 124/255/126 5/7/7
f 6/136/63 126/256/127 123/254/125 62/6/6
f 195/257/128 193/258/129 132/259/130 130/260/131
f 196/261/132 194/262/133 131/263/134 188/264/135
f 194/265/136 195/257/128 130/260/131 131/266/137
f 142/267/138 137/268/139 134/269/140
f 141/270/141 139/271/142 134/272/143
f 133/273/144 135/274/145 139/275/142
f 133/276/144 139/271/142 141/270/141
f 138/277/146 140/278/147 142/267/138
f 140/278/147 137/268/139 142/267/138
f 135/274/145 142/279/138 139/275/142
f 136/280/148 141/281/141 140/282/147
f 140/282/147 141/281/141 137/283/149
f 136/280/148 140/282/147 138/284/146
f 137/285/149 141/270/141 134/272/143
f 139/275/142 142/279/138 134/286/140
f 138/277/146 142/267/138 135/287/145
f 133/276/144 141/270/141 136/288/148
f 138/289/146 135/290/145 133/291/144 136/292/148
f 147/293/150 150/294/151 152/295/152 149/296/153
f 152/297/152 144/298/154 149/299/153
f 147/300/150 143/301/155 150/302/151
f 146/303/156 143/301/155 151/304/157
f 148/305/158 144/298/154 151/306/159
f 149/307/153 145/308/160 147/309/150
f 145/310/160 144/298/154 148/305/158
f 149/299/153 144/298/154 145/310/160
f 150/302/151 143/301/155 146/303/156
f 145/308/160 148/311/161 143/312/155
f 147/309/150 145/308/160 143/312/155
f 152/313/152 146/314/156 144/315/154
f 152/313/152 150/316/151 146/314/156
f 144/315/154 146/314/156 151/317/159
f 143/301/155 148/318/161 151/304/157
f 162/319/162 157/320/163 154/321/164
f 161/322/165 159/323/166 154/324/167
f 153/325/168 155/326/169 159/323/166
f 153/325/168 159/323/166 161/322/165
f 158/327/170 160/328/171 162/329/162
f 160/328/171 157/330/163 162/329/162
f 155/331/169 162/319/162 159/332/166
f 156/333/172 161/334/165 160/335/171
f 160/335/171 161/334/165 157/336/173
f 156/337/172 160/328/171 158/327/170
f 157/336/173 161/334/165 154/338/167
f 159/332/166 162/319/162 154/321/164
f 158/339/170 162/319/162 155/331/169
f 153/340/168 161/334/165 156/333/172
f 158/341/170 155/342/169 153/343/168 156/344/172
f 163/345/174 165/346/175 166/347/175 164/348/174
f 165/349/175 169/350/176 170/351/176 166/352/175
f 169/353/177 167/354/178 168/355/178 170/356/177
f 167/357/178 163/358/174 164/359/174 168/360/178
f 171/361/179 173/362/179 174/363/179 172/364/179
f 173/365/180 177/366/181 178/367/181 174/368/180
f 177/369/181 175/370/182 176/371/182 178/372/181
f 175/373/183 171/374/183 172/375/183 176/376/183
f 179/377/184 181/378/185 182/379/185 180/380/184
f 181/381/185 185/382/186 186/383/186 182/384/185
f 185/385/186 183/386/187 184/387/187 186/388/186
f 183/389/188 179/390/188 180/391/188 184/392/188
f 193/393/189 196/261/132 188/264/135 132/394/190
f 129/395/191 187/396/192 192/397/193 189/398/194
f 128/399/195 127/400/196 190/401/197 191/402/198
f 187/396/192 128/403/199 191/404/200 192/397/193
f 127/400/196 129/405/201 189/406/202 190/401/197
f 189/398/194 192/397/193 196/407/132 193/408/189
f 191/402/198 190/401/197 195/409/128 194/410/136
f 192/397/193 191/404/200 194/411/133 196/407/132
f 190/401/197 189/406/202 193/412/129 195/409/128
f 197/413/203 200/414/204 187/396/192 129/395/191
f 199/415/205 198/416/206 127/400/196 128/399/195
f 200/414/204 199/417/207 128/403/199 187/396/192
f 198/416/206 197/418/208 129/405/201 127/400/196
f 201/419/209 204/420/210 200/414/204 197/413/203
f 203/421/211 202/422/212 198/416/206 199/415/205
f 204/420/210 203/423/213 199/417/207 200/414/204
f 202/422/212 201/424/214 197/418/208 198/416/206
f 209/425/215 212/426/216 214/427/217 211/428/218
f 214/429/217 206/430/219 211/431/218
f 209/432/215 205/433/220 212/434/216
f 208/435/221 205/433/220 213/436/222
f 210/437/223 206/430/219 213/438/224
f 211/439/218 207/440/225 209/441/215
f 207/442/225 206/430/219 210/437/223
f 211/431/218 206/430/219 207/442/225
f 212/434/216 205/433/220 208/435/221
f 207/443/225 210/444/226 205/433/220
f 209/432/215 207/443/225 205/433/220
f 214/429/217 208/445/221 206/430/219
f 214/446/217 212/447/216 208/448/221
f 206/430/219 208/445/221 213/438/224
f 205/433/220 210/444/226 213/436/222
f 215/449/227 217/450/228 218/451/228 216/452/227
f 217/453/228 221/454/229 222/455/229 218/456/228
f 221/457/229 219/458/230 220/459/230 222/460/229
f 219/461/230 215/462/231 216/463/231 220/464/230
f 227/465/232 230/466/233 232/467/234 229/468/235
f 232/469/234 224/470/236 229/471/235
f 227/472/232 223/473/237 230/474/233
f 226/475/238 223/476/237 231/477/239
f 228/478/240 224/470/236 231/479/241
f 229/480/235 225/481/242 227/482/232
f 225/481/242 224/483/236 228/484/240
f 229/480/235 224/483/236 225/481/242
f 230/485/233 223/476/237 226/475/238
f 225/486/242 228/487/243 223/473/237
f 227/472/232 225/486/242 223/473/237
f 232/469/234 226/488/238 224/470/236
f 232/489/234 230/485/233 226/475/238
f 224/470/236 226/488/238 231/479/241
f 223/473/237 228/487/243 231/490/239
f 233/491/244 235/492/245 236/493/245 234/494/244
f 235/495/245 239/496/246 240/497/246 236/498/245
f 239/499/246 237/500/247 238/501/247 240/502/246
f 237/503/248 233/504/248 234/505/248 238/506/248
f 77/159/84 76/162/85 202/422/212 203/421/211
f 76/162/85 75/166/87 201/424/214 202/422/212
f 78/158/83 77/164/86 203/423/213 204/420/210
f 75/155/82 78/158/83 204/420/210 201/419/209
f 131/266/137 130/260/131 243/507/249 242/508/250
f 130/260/131 132/259/130 244/509/251 243/507/249
f 188/264/135 131/263/134 242/510/252 241/511/253
f 132/394/190 188/264/135 241/511/253 244/512/254
f 118/513/255 115/514/256 246/515/257 116/516/258
f 246/517/257 121/518/259 116/519/258
f 118/520/255 122/521/260 115/522/256
f 119/523/261 122/524/260 245/525/262
f 117/526/263 121/518/259 245/527/264
f 116/528/258 120/529/265 118/530/255
f 120/529/265 121/531/259 117/532/263
f 116/528/258 121/531/259 120/529/265
f 115/533/256 122/524/260 119/523/261
f 120/534/265 117/535/266 122/521/260
f 118/520/255 120/534/265 122/521/260
f 246/517/257 119/536/261 121/518/259
f 246/537/257 115/533/256 119/523/261
f 121/518/259 119/536/261 245/527/264
f 122/521/260 117/535/266 245/538/262
f 247/539/267 249/540/268 250/541/268 248/542/267
f 249/543/268 253/544/269 254/545/269 250/546/268
f 253/547/269 251/548/270 252/549/270 254/550/269
f 251/551/271 247/552/271 248/553/271 252/554/271
