# Blender v2.93.5 OBJ File: 'Modular Graveyard.blend'
# www.blender.org
mtllib RustyCircularLowRailingA.mtl
o RustyCircularLowRailingA_Circle.050
v -0.629848 0.359053 -0.180998
v -0.619230 0.386990 -0.194985
v -0.619230 0.331116 -0.194985
v -1.018735 0.359053 -0.851720
v -0.999601 0.386990 -0.851903
v -0.999601 0.331116 -0.851903
v -1.007629 0.494248 -0.757418
v -0.973026 0.800285 -0.746910
v -0.947958 0.494248 -0.772975
v -0.991355 0.494248 -0.694997
v -0.966287 0.800285 -0.721062
v -0.931684 0.494248 -0.710554
v -0.988288 0.577323 -0.805450
v -0.951025 0.577323 -0.662522
v -1.020071 0.588476 -0.720842
v -0.919242 0.588476 -0.747130
v -0.674987 0.588476 -0.322393
v -0.748776 0.588476 -0.248820
v -0.659736 0.577323 -0.233308
v -0.764027 0.577323 -0.337905
v -0.667274 0.494248 -0.284536
v -0.702451 0.800285 -0.276149
v -0.710942 0.494248 -0.240996
v -0.712821 0.494248 -0.330217
v -0.721312 0.800285 -0.295065
v -0.756489 0.494248 -0.286677
v -0.914248 0.494248 -0.505815
v -0.878094 0.800285 -0.504982
v -0.860945 0.494248 -0.536821
v -0.881813 0.494248 -0.450054
v -0.864663 0.800285 -0.481893
v -0.828510 0.494248 -0.481061
v -0.908513 0.577323 -0.557276
v -0.834245 0.577323 -0.429600
v -0.916414 0.588476 -0.467241
v -0.826344 0.588476 -0.519634
v -0.977252 -0.012187 -0.763543
v -0.977252 0.501030 -0.763543
v -0.940174 -0.012187 -0.741800
v -0.940174 0.501030 -0.741800
v -0.998995 -0.012187 -0.726464
v -0.998995 0.501030 -0.726464
v -0.961916 -0.012187 -0.704722
v -0.961916 0.501030 -0.704722
v -0.886534 -0.012187 -0.519703
v -0.886534 0.501030 -0.519703
v -0.844979 -0.012187 -0.508714
v -0.844979 0.501030 -0.508714
v -0.897524 -0.012187 -0.478149
v -0.897524 0.501030 -0.478149
v -0.855969 -0.012187 -0.467159
v -0.855969 0.501030 -0.467159
v -0.733295 -0.012187 -0.307234
v -0.733295 0.501030 -0.307234
v -0.690312 -0.012187 -0.307171
v -0.690312 0.501030 -0.307171
v -0.733358 -0.012187 -0.264251
v -0.733358 0.501030 -0.264251
v -0.690375 -0.012187 -0.264188
v -0.690375 0.501030 -0.264188
v -0.608843 0.359053 -0.208771
v -0.980606 0.359053 -0.851366
v -0.805482 0.331116 -0.380011
v -0.820994 0.359053 -0.367520
v -0.805482 0.386990 -0.380011
v -0.790122 0.359053 -0.391653
v -0.937036 0.331116 -0.606172
v -0.937036 0.386990 -0.606172
v -0.953864 0.359053 -0.598961
v -0.919286 0.359053 -0.612698
v -0.391777 0.331116 -0.065141
v -0.398956 0.359053 -0.046565
v -0.391777 0.386990 -0.065141
v -0.384305 0.359053 -0.082907
v -0.147380 0.331116 -0.000884
v -0.147256 0.359053 0.019516
v -0.147380 0.386990 -0.000884
v -0.146916 0.359053 -0.020545
v -0.478782 0.588476 -0.175473
v -0.530236 0.588476 -0.084863
v -0.440288 0.577323 -0.093699
v -0.568729 0.577323 -0.166637
v -0.461236 0.494248 -0.141052
v -0.492895 0.800285 -0.123573
v -0.491687 0.494248 -0.087430
v -0.517331 0.494248 -0.172907
v -0.516123 0.800285 -0.136763
v -0.547781 0.494248 -0.119284
v -0.530921 -0.012187 -0.145290
v -0.530921 0.501030 -0.145290
v -0.489483 -0.012187 -0.156711
v -0.489483 0.501030 -0.156711
v -0.519500 -0.012187 -0.103851
v -0.519500 0.501030 -0.103851
v -0.478062 -0.012187 -0.115272
v -0.478062 0.501030 -0.115272
v -0.255607 0.588476 -0.083554
v -0.281803 0.588476 0.017299
v -0.197224 0.577323 -0.014561
v -0.340186 0.577323 -0.051695
v -0.229735 0.494248 -0.054861
v -0.255778 0.800285 -0.029770
v -0.245238 0.494248 0.004824
v -0.292172 0.494248 -0.071079
v -0.281632 0.800285 -0.036485
v -0.307674 0.494248 -0.011394
v -0.298135 -0.012187 -0.040882
v -0.298135 0.501030 -0.040882
v -0.261076 -0.012187 -0.062659
v -0.261076 0.501030 -0.062659
v -0.276358 -0.012187 -0.003824
v -0.276358 0.501030 -0.003824
v -0.239300 -0.012187 -0.025600
v -0.239300 0.501030 -0.025600
v -0.015211 0.331116 -0.000937
v -0.015482 0.359053 0.019380
v -0.015211 0.386990 -0.000937
v -0.015068 0.359053 -0.020652
v -0.980663 0.359053 -0.981573
v -0.999630 0.386990 -0.981835
v -1.018811 0.359053 -0.982084
v -0.999630 0.331116 -0.981835
vt 0.812500 0.140625
vt 0.820312 0.164062
vt 0.796875 0.164062
vt 0.796875 0.140625
vt 0.867188 0.140625
vt 0.867188 0.164062
vt 0.843750 0.164062
vt 0.843750 0.140625
vt 0.828125 0.140625
vt 0.835938 0.164062
vt 0.906250 0.093750
vt 0.898438 0.058594
vt 0.914062 0.058594
vt 0.851562 0.085938
vt 0.882812 0.050781
vt 0.875000 0.089844
vt 0.859375 0.105469
vt 0.882812 0.105469
vt 0.796875 0.230469
vt 0.789062 0.214844
vt 0.820312 0.214844
vt 0.820312 0.175781
vt 0.890625 0.113281
vt 0.875000 0.097656
vt 0.859375 0.167969
vt 0.843750 0.156250
vt 0.875000 0.152344
vt 0.875000 0.117188
vt 0.820312 0.230469
vt 0.882812 0.117188
vt 0.914062 0.113281
vt 0.882812 0.167969
vt 0.890625 0.246094
vt 0.914062 0.246094
vt 0.914062 0.257812
vt 0.890625 0.261719
vt 0.757812 0.234375
vt 0.789062 0.230469
vt 0.789062 0.238281
vt 0.757812 0.242188
vt 0.820312 0.117188
vt 0.843750 0.117188
vt 0.835938 0.132812
vt 0.781250 0.117188
vt 0.796875 0.117188
vt 0.796875 0.132812
vt 0.875000 0.191406
vt 0.875000 0.230469
vt 0.843750 0.191406
vt 0.843750 0.167969
vt 0.835938 0.167969
vt 0.773438 0.171875
vt 0.789062 0.171875
vt 0.789062 0.191406
vt 0.789062 0.226562
vt 0.757812 0.191406
vt 0.851562 0.175781
vt 0.757812 0.132812
vt 0.789062 0.167969
vt 0.804688 0.132812
vt 0.875000 0.175781
vt 0.796875 0.167969
vt 0.789062 0.074219
vt 0.812500 0.113281
vt 0.804688 0.113281
vt 0.843750 0.074219
vt 0.859375 0.113281
vt 0.820312 0.074219
vt 0.781250 0.179688
vt 0.781250 0.191406
vt 0.765625 0.179688
vt 0.828125 0.062500
vt 0.765625 0.062500
vt 0.757812 0.074219
vt 0.796875 0.058594
vt 0.812500 0.074219
vt 0.843750 0.058594
vt 0.867188 0.074219
vt 0.867188 0.113281
vt 0.820312 0.250000
vt 0.789062 0.250000
vt 0.804688 0.234375
vt 0.843750 0.238281
vt 0.875000 0.230469
vt 0.875000 0.238281
vt 0.843750 0.246094
vt 0.906250 0.066406
vt 0.906250 0.156250
vt 0.890625 0.156250
vt 0.890625 0.066406
vt 0.906250 0.250000
vt 0.906250 0.160156
vt 0.921875 0.160156
vt 0.921875 0.250000
vt 0.921875 0.066406
vt 0.921875 0.156250
vt 0.906250 0.156250
vt 0.906250 0.066406
vt 0.851562 0.250000
vt 0.851562 0.160156
vt 0.867188 0.160156
vt 0.867188 0.250000
vt 0.804688 0.160156
vt 0.804688 0.250000
vt 0.789062 0.250000
vt 0.789062 0.160156
vt 0.890625 0.250000
vt 0.890625 0.160156
vt 0.898438 0.160156
vt 0.898438 0.250000
vt 0.828125 0.160156
vt 0.828125 0.250000
vt 0.812500 0.250000
vt 0.812500 0.160156
vt 0.875000 0.265625
vt 0.875000 0.175781
vt 0.882812 0.175781
vt 0.882812 0.265625
vt 0.835938 0.179688
vt 0.835938 0.265625
vt 0.828125 0.265625
vt 0.828125 0.175781
vt 0.875000 0.250000
vt 0.875000 0.160156
vt 0.882812 0.160156
vt 0.882812 0.250000
vt 0.882812 0.066406
vt 0.882812 0.156250
vt 0.875000 0.156250
vt 0.875000 0.066406
vt 0.828125 0.250000
vt 0.828125 0.160156
vt 0.843750 0.160156
vt 0.843750 0.250000
vt 0.882812 0.140625
vt 0.882812 0.164062
vt 0.882812 0.093750
vt 0.882812 0.117188
vt 0.867188 0.117188
vt 0.867188 0.093750
vt 0.828125 0.097656
vt 0.828125 0.117188
vt 0.812500 0.117188
vt 0.812500 0.097656
vt 0.843750 0.117188
vt 0.843750 0.093750
vt 0.789062 0.117188
vt 0.789062 0.097656
vt 0.890625 0.074219
vt 0.875000 0.074219
vt 0.835938 0.078125
vt 0.820312 0.074219
vt 0.851562 0.074219
vt 0.796875 0.078125
vt 0.929688 0.062500
vt 0.921875 0.082031
vt 0.898438 0.082031
vt 0.898438 0.058594
vt 0.835938 0.062500
vt 0.820312 0.058594
vt 0.875000 0.062500
vt 0.859375 0.058594
vt 0.804688 0.238281
vt 0.804688 0.222656
vt 0.828125 0.222656
vt 0.828125 0.238281
vt 0.914062 0.234375
vt 0.914062 0.242188
vt 0.890625 0.238281
vt 0.890625 0.230469
vt 0.796875 0.050781
vt 0.812500 0.050781
vt 0.804688 0.066406
vt 0.898438 0.117188
vt 0.921875 0.117188
vt 0.921875 0.132812
vt 0.914062 0.191406
vt 0.914062 0.226562
vt 0.890625 0.191406
vt 0.812500 0.105469
vt 0.804688 0.105469
vt 0.765625 0.066406
vt 0.781250 0.066406
vt 0.781250 0.082031
vt 0.781250 0.117188
vt 0.757812 0.082031
vt 0.890625 0.171875
vt 0.890625 0.132812
vt 0.914062 0.167969
vt 0.773438 0.066406
vt 0.906250 0.171875
vt 0.921875 0.167969
vt 0.843750 0.066406
vt 0.843750 0.156250
vt 0.828125 0.156250
vt 0.828125 0.066406
vt 0.851562 0.156250
vt 0.851562 0.066406
vt 0.867188 0.066406
vt 0.867188 0.156250
vt 0.882812 0.171875
vt 0.882812 0.265625
vt 0.867188 0.265625
vt 0.867188 0.171875
vt 0.828125 0.265625
vt 0.828125 0.171875
vt 0.843750 0.171875
vt 0.843750 0.265625
vt 0.890625 0.093750
vt 0.890625 0.082031
vt 0.906250 0.082031
vt 0.906250 0.093750
vt 0.820312 0.160156
vt 0.804688 0.160156
vt 0.820312 0.144531
vt 0.851562 0.105469
vt 0.835938 0.105469
vt 0.851562 0.085938
vt 0.812500 0.089844
vt 0.843750 0.050781
vt 0.812500 0.109375
vt 0.820312 0.109375
vt 0.804688 0.218750
vt 0.796875 0.218750
vt 0.812500 0.207031
vt 0.789062 0.148438
vt 0.789062 0.203125
vt 0.812500 0.164062
vt 0.757812 0.175781
vt 0.750000 0.160156
vt 0.781250 0.164062
vt 0.773438 0.175781
vt 0.781250 0.121094
vt 0.851562 0.050781
vt 0.843750 0.265625
vt 0.843750 0.171875
vt 0.859375 0.171875
vt 0.859375 0.265625
vt 0.812500 0.156250
vt 0.812500 0.066406
vt 0.828125 0.066406
vt 0.828125 0.156250
vt 0.804688 0.265625
vt 0.804688 0.171875
vt 0.820312 0.171875
vt 0.820312 0.265625
vt 0.789062 0.156250
vt 0.789062 0.066406
vt 0.804688 0.066406
vt 0.804688 0.156250
vt 0.789062 0.253906
vt 0.789062 0.242188
vt 0.804688 0.250000
vt 0.828125 0.250000
vt 0.898438 0.050781
vt 0.890625 0.062500
vt 0.890625 0.054688
vt 0.929688 0.050781
vt 0.835938 0.171875
vt 0.820312 0.175781
vt 0.796875 0.171875
vt 0.875000 0.171875
vt 0.851562 0.171875
vt 0.890625 0.171875
vn -0.9259 -0.0000 0.3778
vn -0.9927 -0.0000 0.1204
vn -0.8215 -0.5598 0.1084
vn -0.7686 -0.5584 0.3121
vn 0.9247 0.0000 -0.3806
vn 0.9912 -0.0000 -0.1320
vn 0.8222 0.5608 -0.0980
vn 0.7672 0.5601 -0.3125
vn -0.7686 0.5584 0.3121
vn -0.8215 0.5598 0.1084
vn 0.9645 0.0806 -0.2515
vn 0.9015 0.2293 -0.3670
vn 0.9659 0.2293 -0.1199
vn -0.9645 0.0806 0.2515
vn -0.9659 0.2293 0.1199
vn -0.2521 0.0407 -0.9669
vn -0.6646 -0.6779 -0.3142
vn 0.4266 -0.6779 -0.5987
vn 0.6646 -0.6779 0.3142
vn 0.2521 0.0407 0.9669
vn -0.4266 -0.6779 0.5987
vn -0.9015 0.2293 0.3670
vn 0.7323 -0.6779 -0.0641
vn -0.0663 -0.6779 0.7321
vn -0.7323 -0.6779 0.0641
vn 0.0663 -0.6779 -0.7321
vn -0.7058 0.0806 0.7038
vn 0.7058 0.0806 -0.7038
vn -0.7055 0.0407 -0.7076
vn 0.5932 0.2293 -0.7717
vn -0.5932 0.2293 0.7717
vn -0.7735 0.2293 0.5909
vn 0.7055 0.0407 0.7076
vn 0.7735 0.2293 -0.5909
vn 0.8616 0.0806 -0.5012
vn 0.7699 0.2293 -0.5955
vn 0.8983 0.2293 -0.3748
vn -0.8616 0.0806 0.5012
vn -0.8983 0.2293 0.3748
vn -0.5024 0.0407 -0.8637
vn -0.7245 -0.6779 -0.1242
vn 0.2502 -0.6779 -0.6912
vn 0.7245 -0.6779 0.1242
vn 0.5024 0.0407 0.8637
vn -0.2502 -0.6779 0.6912
vn -0.7699 0.2293 0.5955
vn -0.2523 0.0000 -0.9677
vn 0.9677 0.0000 -0.2523
vn 0.8626 0.0000 0.5058
vn -0.5058 0.0000 0.8626
vn -0.9677 0.0000 0.2523
vn 0.2557 0.0000 -0.9668
vn 0.9668 0.0000 0.2557
vn 0.5028 0.0000 0.8644
vn -0.2557 0.0000 0.9668
vn -0.9668 0.0000 -0.2557
vn 0.0015 0.0000 -1.0000
vn 0.7081 0.0000 -0.7061
vn 0.7061 0.0000 0.7081
vn -0.0015 0.0000 1.0000
vn -1.0000 0.0000 -0.0015
vn 0.7672 -0.5601 -0.3125
vn 0.8222 -0.5608 -0.0980
vn 0.5066 -0.5475 -0.6661
vn 0.6588 -0.5550 -0.5079
vn 0.7915 0.0000 -0.6111
vn 0.6057 0.0000 -0.7957
vn -0.5029 0.5568 0.6611
vn -0.6549 0.5611 0.5062
vn -0.7900 -0.0000 0.6131
vn -0.6054 -0.0000 0.7960
vn 0.6588 0.5550 -0.5079
vn 0.5066 0.5475 -0.6661
vn -0.6549 -0.5611 0.5062
vn -0.5029 -0.5568 0.6611
vn 0.3136 -0.5576 -0.7685
vn 0.3768 0.0000 -0.9263
vn -0.3144 0.5686 0.7602
vn -0.3803 -0.0000 0.9249
vn 0.3136 0.5576 -0.7685
vn -0.3144 -0.5686 0.7602
vn 0.1010 -0.5737 -0.8128
vn 0.1331 0.0000 -0.9911
vn -0.1090 0.5860 0.8030
vn -0.1217 -0.0000 0.9926
vn 0.1010 0.5737 -0.8128
vn -0.1090 -0.5860 0.8030
vn 0.6886 -0.6779 -0.2574
vn 0.1317 -0.6779 0.7232
vn -0.6886 -0.6779 0.2574
vn -0.1317 -0.6779 -0.7232
vn -0.4922 0.0806 0.8667
vn 0.4922 0.0806 -0.8667
vn -0.8689 0.0407 -0.4934
vn 0.3655 0.2293 -0.9021
vn -0.3655 0.2293 0.9021
vn -0.5875 0.2293 0.7760
vn 0.8689 0.0407 0.4934
vn 0.5875 0.2293 -0.7760
vn -0.2657 0.0000 -0.9641
vn 0.4938 0.0000 -0.8696
vn 0.8696 0.0000 0.4938
vn -0.4938 0.0000 0.8696
vn -0.9641 0.0000 0.2657
vn 0.5983 -0.6779 -0.4272
vn 0.3148 -0.6779 0.6643
vn -0.5983 -0.6779 0.4272
vn -0.3148 -0.6779 -0.6643
vn -0.2506 0.0806 0.9647
vn 0.2506 0.0806 -0.9647
vn -0.9671 0.0407 -0.2512
vn 0.1190 0.2293 -0.9660
vn -0.1190 0.2293 0.9660
vn -0.3662 0.2293 0.9019
vn 0.9671 0.0407 0.2512
vn 0.3662 0.2293 -0.9019
vn -0.5066 0.0000 -0.8622
vn 0.2514 0.0000 -0.9679
vn 0.9679 0.0000 0.2514
vn 0.5066 0.0000 0.8622
vn -0.8622 0.0000 0.5066
vn 0.0006 0.5889 0.8082
vn 0.0007 -0.0000 1.0000
vn 0.0006 -0.5889 0.8082
vn -0.0006 0.0000 -1.0000
vn -0.0005 0.5761 -0.8174
vn -0.0005 -0.5760 -0.8174
vn -0.8247 0.5655 0.0003
vn -1.0000 -0.0000 0.0004
vn -0.8247 -0.5655 0.0003
vn 1.0000 -0.0000 -0.0003
vn 0.8271 0.5620 -0.0003
vn 0.8271 -0.5620 -0.0003
usemtl Material.001
s 1
f 69/1/1 4/2/2 6/3/3 67/4/4
f 70/5/5 62/6/6 5/7/7 68/8/8
f 68/9/9 5/10/10 4/2/2 69/1/1
f 16/11/11 8/12/12 11/13/13
f 15/14/14 8/15/15 13/16/16
f 7/17/17 13/16/16 9/18/18
f 7/17/17 15/14/14 13/16/16
f 12/19/19 16/20/11 14/21/20
f 14/21/20 16/20/11 11/22/13
f 9/23/18 13/24/16 16/11/11
f 10/25/21 14/26/20 15/27/14
f 14/26/20 11/28/22 15/27/14
f 10/29/21 12/19/19 14/21/20
f 11/28/22 8/30/15 15/27/14
f 13/24/16 8/12/12 16/11/11
f 12/31/19 9/23/18 16/11/11
f 7/32/17 10/25/21 15/27/14
f 12/33/19 10/34/21 7/35/17 9/36/18
f 21/37/23 23/38/24 26/39/25 24/40/26
f 26/41/25 23/42/24 18/43/27
f 21/44/23 24/45/26 17/46/28
f 20/47/29 25/48/30 17/49/28
f 22/50/31 25/51/32 18/43/27
f 23/52/24 21/53/23 19/54/33
f 19/54/33 22/55/31 18/56/27
f 23/52/24 19/54/33 18/56/27
f 24/57/26 20/47/29 17/49/28
f 19/58/33 17/46/28 22/59/34
f 21/44/23 17/46/28 19/58/33
f 26/41/25 18/43/27 20/60/29
f 26/61/25 20/47/29 24/57/26
f 18/43/27 25/51/32 20/60/29
f 17/46/28 25/62/30 22/59/34
f 36/63/35 28/64/36 31/65/37
f 35/66/38 28/67/39 33/68/40
f 27/69/41 33/70/40 29/71/42
f 27/72/41 35/66/38 33/68/40
f 32/73/43 36/63/35 34/74/44
f 34/74/44 36/63/35 31/65/37
f 29/75/42 33/76/40 36/63/35
f 30/77/45 34/78/44 35/66/38
f 34/78/44 31/79/46 35/66/38
f 30/80/45 32/81/43 34/82/44
f 31/79/46 28/67/39 35/66/38
f 33/76/40 28/64/36 36/63/35
f 32/73/43 29/75/42 36/63/35
f 27/72/41 30/77/45 35/66/38
f 32/83/43 30/84/45 27/85/41 29/86/42
f 37/87/47 38/88/47 40/89/48 39/90/48
f 39/91/48 40/92/48 44/93/49 43/94/49
f 43/95/50 44/96/50 42/97/51 41/98/51
f 41/99/51 42/100/51 38/101/47 37/102/47
f 45/103/52 46/104/52 48/105/52 47/106/52
f 47/107/53 48/108/53 52/109/54 51/110/54
f 51/111/54 52/112/54 50/113/55 49/114/55
f 49/115/56 50/116/56 46/117/56 45/118/56
f 53/119/57 54/120/57 56/121/58 55/122/58
f 55/123/58 56/124/58 60/125/59 59/126/59
f 59/127/59 60/128/59 58/129/60 57/130/60
f 57/131/61 58/132/61 54/133/61 53/134/61
f 67/135/62 6/136/63 62/6/6 70/5/5
f 3/137/64 63/138/65 66/139/66 61/140/67
f 2/141/68 65/142/69 64/143/70 1/144/71
f 61/140/67 66/139/66 65/145/72 2/146/73
f 1/144/71 64/143/70 63/147/74 3/148/75
f 63/138/65 67/135/62 70/5/5 66/139/66
f 65/142/69 68/9/9 69/1/1 64/143/70
f 66/139/66 70/5/5 68/8/8 65/145/72
f 64/143/70 69/1/1 67/4/4 63/147/74
f 71/149/76 3/137/64 61/140/67 74/150/77
f 73/151/78 2/141/68 1/144/71 72/152/79
f 74/150/77 61/140/67 2/146/73 73/153/80
f 72/152/79 1/144/71 3/148/75 71/154/81
f 75/155/82 71/156/76 74/157/77 78/158/83
f 77/159/84 73/151/78 72/152/79 76/160/85
f 78/161/83 74/150/77 73/153/80 77/162/86
f 76/163/85 72/164/79 71/165/81 75/166/87
f 83/167/88 85/168/89 88/169/90 86/170/91
f 88/171/90 85/172/89 80/173/92
f 83/174/88 86/175/91 79/176/93
f 82/177/94 87/178/95 79/179/93
f 84/180/96 87/181/97 80/173/92
f 85/182/89 83/183/88 81/184/98
f 81/184/98 84/185/96 80/186/92
f 85/182/89 81/184/98 80/186/92
f 86/187/91 82/177/94 79/179/93
f 81/188/98 79/176/93 84/189/99
f 83/174/88 79/176/93 81/188/98
f 88/171/90 80/173/92 82/190/94
f 88/191/90 82/177/94 86/187/91
f 80/173/92 87/181/97 82/190/94
f 79/176/93 87/192/95 84/189/99
f 89/193/100 90/194/100 92/195/101 91/196/101
f 91/197/101 92/198/101 96/199/102 95/200/102
f 95/201/102 96/202/102 94/203/103 93/204/103
f 93/205/103 94/206/103 90/207/104 89/208/104
f 101/209/105 103/210/106 106/211/107 104/212/108
f 106/213/107 103/214/106 98/215/109
f 101/216/105 104/217/108 97/218/110
f 100/219/111 105/220/112 97/218/110
f 102/221/113 105/222/114 98/215/109
f 103/223/106 101/224/105 99/225/115
f 99/226/115 102/221/113 98/215/109
f 103/214/106 99/226/115 98/215/109
f 104/217/108 100/219/111 97/218/110
f 99/225/115 97/227/110 102/228/116
f 101/224/105 97/227/110 99/225/115
f 106/229/107 98/230/109 100/231/111
f 106/229/107 100/231/111 104/232/108
f 98/230/109 105/233/114 100/231/111
f 97/218/110 105/220/112 102/234/116
f 107/235/117 108/236/117 110/237/118 109/238/118
f 109/239/118 110/240/118 114/241/119 113/242/119
f 113/243/119 114/244/119 112/245/120 111/246/120
f 111/247/121 112/248/121 108/249/121 107/250/121
f 117/251/122 77/252/84 76/163/85 116/253/123
f 116/253/123 76/163/85 75/166/87 115/254/124
f 118/255/125 78/158/83 77/256/86 117/257/126
f 115/258/127 75/155/82 78/158/83 118/255/125
f 5/10/10 120/259/128 121/260/129 4/2/2
f 4/2/2 121/260/129 122/261/130 6/3/3
f 62/6/6 119/262/131 120/263/132 5/7/7
f 6/136/63 122/264/133 119/262/131 62/6/6
