# Blender v2.93.5 OBJ File: 'Modular Graveyard.blend'
# www.blender.org
mtllib RustyLowRailing1A.mtl
o RustyLowRailing1A_Circle.058
v -0.000377 0.359053 0.018813
v -0.000377 0.386990 0.000142
v -0.000377 0.331116 0.000142
v -0.998025 0.359053 0.018813
v -0.998025 0.386990 0.000142
v -0.998025 0.331116 0.000142
v 0.001066 0.588476 -0.051993
v 0.001066 0.588476 0.052207
v 0.074919 0.577323 0.000107
v -0.072787 0.577323 0.000107
v 0.033320 0.494248 -0.030726
v 0.014422 0.800285 0.000107
v 0.033320 0.494248 0.030940
v -0.031188 0.494248 -0.030726
v -0.012290 0.800285 0.000107
v -0.031188 0.494248 0.030940
v -0.029334 -0.012187 0.000000
v -0.029334 0.501030 0.000000
v 0.001060 -0.012187 -0.030394
v 0.001060 0.501030 -0.030394
v 0.001060 -0.012187 0.030394
v 0.001060 0.501030 0.030394
v 0.031454 -0.012187 0.000000
v 0.031454 0.501030 0.000000
v -0.000377 0.359053 -0.018117
v -0.998025 0.359053 -0.018117
v -0.780521 0.494248 0.030940
v -0.761623 0.800285 0.000107
v -0.780521 0.494248 -0.030726
v -0.716013 0.494248 0.030940
v -0.734911 0.800285 0.000107
v -0.716013 0.494248 -0.030726
v -0.822120 0.577323 0.000107
v -0.674414 0.577323 0.000107
v -0.748267 0.588476 0.052207
v -0.748267 0.588476 -0.051993
v -0.249480 0.588476 -0.051993
v -0.249480 0.588476 0.052207
v -0.175627 0.577323 0.000107
v -0.323333 0.577323 0.000107
v -0.217226 0.494248 -0.030726
v -0.236124 0.800285 0.000107
v -0.217226 0.494248 0.030940
v -0.281734 0.494248 -0.030726
v -0.262836 0.800285 0.000107
v -0.281734 0.494248 0.030940
v -0.532333 0.494248 0.030940
v -0.513435 0.800285 0.000107
v -0.532333 0.494248 -0.030726
v -0.467826 0.494248 0.030940
v -0.486724 0.800285 0.000107
v -0.467826 0.494248 -0.030726
v -0.573932 0.577323 0.000107
v -0.426227 0.577323 0.000107
v -0.500080 0.588476 0.052207
v -0.500080 0.588476 -0.051993
v -0.998934 0.588476 -0.051993
v -0.998934 0.588476 0.052207
v -0.925081 0.577323 0.000107
v -1.072787 0.577323 0.000107
v -0.966680 0.494248 -0.030726
v -0.985578 0.800285 0.000107
v -0.966680 0.494248 0.030940
v -1.031188 0.494248 -0.030726
v -1.012290 0.800285 0.000107
v -1.031188 0.494248 0.030940
v -0.778784 -0.012187 0.000000
v -0.778784 0.501030 0.000000
v -0.748390 -0.012187 -0.030394
v -0.748390 0.501030 -0.030394
v -0.748390 -0.012187 0.030394
v -0.748390 0.501030 0.030394
v -0.717997 -0.012187 0.000000
v -0.717997 0.501030 0.000000
v -1.029334 -0.012187 0.000000
v -1.029334 0.501030 0.000000
v -0.998940 -0.012187 -0.030394
v -0.998940 0.501030 -0.030394
v -0.998940 -0.012187 0.030394
v -0.998940 0.501030 0.030394
v -0.968546 -0.012187 0.000000
v -0.968546 0.501030 0.000000
v -0.530404 -0.012187 0.000000
v -0.530404 0.501030 0.000000
v -0.500010 -0.012187 -0.030394
v -0.500010 0.501030 -0.030394
v -0.500010 -0.012187 0.030394
v -0.500010 0.501030 0.030394
v -0.469616 -0.012187 0.000000
v -0.469616 0.501030 0.000000
v -0.279914 -0.012187 0.000000
v -0.279914 0.501030 0.000000
v -0.249520 -0.012187 -0.030394
v -0.249520 0.501030 -0.030394
v -0.249520 -0.012187 0.030394
v -0.249520 0.501030 0.030394
v -0.219127 -0.012187 0.000000
v -0.219127 0.501030 0.000000
vt 0.812500 0.136719
vt 0.812500 0.050781
vt 0.828125 0.050781
vt 0.828125 0.136719
vt 0.765625 0.050781
vt 0.765625 0.136719
vt 0.750000 0.136719
vt 0.750000 0.050781
vt 0.789062 0.136719
vt 0.789062 0.050781
vt 0.765625 0.210938
vt 0.750000 0.210938
vt 0.750000 0.203125
vt 0.765625 0.203125
vt 0.796875 0.085938
vt 0.820312 0.085938
vt 0.820312 0.101562
vt 0.906250 0.156250
vt 0.890625 0.156250
vt 0.906250 0.140625
vt 0.882812 0.140625
vt 0.921875 0.105469
vt 0.843750 0.136719
vt 0.835938 0.136719
vt 0.890625 0.242188
vt 0.875000 0.242188
vt 0.890625 0.230469
vt 0.843750 0.101562
vt 0.929688 0.144531
vt 0.929688 0.105469
vt 0.796875 0.101562
vt 0.757812 0.191406
vt 0.921875 0.226562
vt 0.921875 0.140625
vt 0.929688 0.140625
vt 0.929688 0.226562
vt 0.937500 0.140625
vt 0.937500 0.226562
vt 0.851562 0.160156
vt 0.851562 0.242188
vt 0.843750 0.242188
vt 0.843750 0.156250
vt 0.828125 0.242188
vt 0.828125 0.160156
vt 0.789062 0.050781
vt 0.789062 0.136719
vt 0.851562 0.121094
vt 0.882812 0.156250
vt 0.867188 0.156250
vt 0.773438 0.148438
vt 0.789062 0.187500
vt 0.750000 0.152344
vt 0.843750 0.101562
vt 0.859375 0.085938
vt 0.867188 0.101562
vt 0.750000 0.136719
vt 0.835938 0.105469
vt 0.828125 0.121094
vt 0.851562 0.105469
vt 0.882812 0.117188
vt 0.773438 0.136719
vt 0.804688 0.148438
vt 0.804688 0.187500
vt 0.906250 0.203125
vt 0.921875 0.199219
vt 0.921875 0.218750
vt 0.867188 0.105469
vt 0.843750 0.105469
vt 0.921875 0.175781
vt 0.906250 0.175781
vt 0.906250 0.175781
vt 0.921875 0.175781
vt 0.750000 0.140625
vt 0.765625 0.140625
vt 0.765625 0.156250
vt 0.890625 0.050781
vt 0.906250 0.050781
vt 0.906250 0.066406
vt 0.929688 0.066406
vt 0.929688 0.101562
vt 0.789062 0.187500
vt 0.781250 0.191406
vt 0.890625 0.101562
vt 0.875000 0.101562
vt 0.890625 0.085938
vt 0.789062 0.156250
vt 0.882812 0.066406
vt 0.921875 0.101562
vt 0.742188 0.156250
vt 0.906250 0.156250
vt 0.765625 0.121094
vt 0.781250 0.085938
vt 0.789062 0.085938
vt 0.765625 0.207031
vt 0.781250 0.242188
vt 0.742188 0.210938
vt 0.843750 0.125000
vt 0.859375 0.105469
vt 0.867188 0.125000
vt 0.750000 0.191406
vt 0.765625 0.136719
vt 0.789062 0.125000
vt 0.750000 0.136719
vt 0.742188 0.125000
vt 0.765625 0.191406
vt 0.789062 0.207031
vt 0.789062 0.242188
vt 0.843750 0.230469
vt 0.867188 0.230469
vt 0.867188 0.242188
vt 0.867188 0.128906
vt 0.843750 0.128906
vt 0.921875 0.199219
vt 0.906250 0.199219
vt 0.906250 0.195312
vt 0.921875 0.195312
vt 0.796875 0.140625
vt 0.820312 0.140625
vt 0.820312 0.156250
vt 0.835938 0.050781
vt 0.851562 0.050781
vt 0.851562 0.066406
vt 0.882812 0.066406
vt 0.882812 0.101562
vt 0.843750 0.187500
vt 0.835938 0.191406
vt 0.773438 0.191406
vt 0.796875 0.191406
vt 0.796875 0.203125
vt 0.843750 0.156250
vt 0.828125 0.066406
vt 0.867188 0.101562
vt 0.796875 0.156250
vt 0.906250 0.179688
vt 0.875000 0.226562
vt 0.875000 0.140625
vt 0.875000 0.140625
vt 0.875000 0.226562
vt 0.890625 0.140625
vt 0.890625 0.226562
vt 0.820312 0.195312
vt 0.820312 0.277344
vt 0.804688 0.277344
vt 0.804688 0.191406
vt 0.796875 0.277344
vt 0.796875 0.195312
vt 0.843750 0.226562
vt 0.843750 0.140625
vt 0.859375 0.140625
vt 0.859375 0.226562
vt 0.867188 0.140625
vt 0.867188 0.226562
vt 0.835938 0.195312
vt 0.835938 0.277344
vt 0.828125 0.277344
vt 0.828125 0.191406
vt 0.820312 0.277344
vt 0.820312 0.195312
vt 0.804688 0.226562
vt 0.804688 0.136719
vt 0.812500 0.136719
vt 0.812500 0.226562
vt 0.820312 0.136719
vt 0.820312 0.226562
vt 0.898438 0.160156
vt 0.898438 0.242188
vt 0.890625 0.242188
vt 0.890625 0.156250
vt 0.875000 0.242188
vt 0.875000 0.160156
vt 0.890625 0.226562
vt 0.890625 0.140625
vt 0.906250 0.140625
vt 0.906250 0.226562
vt 0.921875 0.140625
vt 0.921875 0.226562
vt 0.875000 0.160156
vt 0.875000 0.242188
vt 0.859375 0.242188
vt 0.859375 0.156250
vt 0.851562 0.242188
vt 0.851562 0.160156
vn 0.0000 -0.0000 1.0000
vn 0.0000 -0.5557 0.8314
vn -0.0000 -0.0000 -1.0000
vn -0.0000 0.5471 -0.8371
vn 0.0000 0.5557 0.8314
vn 0.4717 -0.6779 -0.5638
vn 0.4717 -0.6779 0.5638
vn -0.4717 -0.6779 0.5638
vn -0.4717 -0.6779 -0.5638
vn -0.0000 0.0806 0.9967
vn -0.0000 0.0806 -0.9968
vn -0.9992 0.0407 0.0000
vn -0.1277 0.2293 -0.9649
vn 0.1277 0.2293 0.9649
vn -0.1277 0.2293 0.9649
vn 0.9992 0.0407 0.0000
vn 0.1277 0.2293 -0.9649
vn -0.7071 0.0000 -0.7071
vn 1.0000 0.0000 0.0000
vn -0.7071 0.0000 0.7071
vn -0.0000 -0.5471 -0.8371
vn -0.0000 0.0806 -0.9967
vn 0.0000 0.0806 0.9968
usemtl Material.001
s 1
f 1/1/1 4/2/1 6/3/2 3/4/2
f 25/5/3 26/6/3 5/7/4 2/8/4
f 2/9/5 5/10/5 4/2/1 1/1/1
f 11/11/6 13/12/7 16/13/8 14/14/9
f 16/15/8 13/16/7 8/17/10
f 11/18/6 14/19/9 7/20/11
f 10/21/12 15/22/13 7/20/11
f 12/23/14 15/24/15 8/17/10
f 13/25/7 11/26/6 9/27/16
f 9/28/16 12/23/14 8/17/10
f 13/16/7 9/28/16 8/17/10
f 14/19/9 10/21/12 7/20/11
f 9/29/16 7/20/11 12/30/17
f 11/18/6 7/20/11 9/29/16
f 16/15/8 8/17/10 10/31/12
f 16/13/8 10/32/12 14/14/9
f 8/17/10 15/24/15 10/31/12
f 7/20/11 15/22/13 12/30/17
f 17/33/18 18/34/18 20/35/3 19/36/3
f 19/36/3 20/35/3 24/37/19 23/38/19
f 23/39/19 24/40/19 22/41/1 21/42/1
f 21/42/1 22/41/1 18/43/20 17/44/20
f 3/45/21 6/46/21 26/6/3 25/5/3
f 36/47/22 28/48/13 31/49/17
f 35/50/10 28/51/15 33/52/12
f 27/53/8 33/54/12 29/55/9
f 27/56/8 35/50/10 33/52/12
f 32/57/6 36/47/22 34/58/16
f 34/58/16 36/47/22 31/49/17
f 29/59/9 33/60/12 36/47/22
f 30/61/7 34/62/16 35/50/10
f 34/62/16 31/63/14 35/50/10
f 30/64/7 32/65/6 34/66/16
f 31/63/14 28/51/15 35/50/10
f 33/60/12 28/48/13 36/47/22
f 32/57/6 29/59/9 36/47/22
f 27/56/8 30/61/7 35/50/10
f 32/67/6 30/68/7 27/53/8 29/55/9
f 41/69/6 43/70/7 46/71/8 44/72/9
f 46/73/8 43/74/7 38/75/10
f 41/76/6 44/77/9 37/78/22
f 40/79/12 45/80/13 37/78/22
f 42/81/14 45/82/15 38/75/10
f 43/83/7 41/84/6 39/85/16
f 39/86/16 42/81/14 38/75/10
f 43/74/7 39/86/16 38/75/10
f 44/77/9 40/79/12 37/78/22
f 39/87/16 37/78/22 42/88/17
f 41/76/6 37/78/22 39/87/16
f 46/73/8 38/75/10 40/89/12
f 46/71/8 40/90/12 44/72/9
f 38/75/10 45/82/15 40/89/12
f 37/78/22 45/80/13 42/88/17
f 56/91/11 48/92/13 51/93/17
f 55/94/10 48/95/15 53/96/12
f 47/97/8 53/98/12 49/99/9
f 47/100/8 55/94/10 53/96/12
f 52/101/6 56/91/11 54/102/16
f 54/102/16 56/91/11 51/93/17
f 49/103/9 53/104/12 56/91/11
f 50/105/7 54/106/16 55/94/10
f 54/106/16 51/107/14 55/94/10
f 50/108/7 52/109/6 54/110/16
f 51/107/14 48/95/15 55/94/10
f 53/104/12 48/92/13 56/91/11
f 52/101/6 49/103/9 56/91/11
f 47/100/8 50/105/7 55/94/10
f 52/111/6 50/112/7 47/97/8 49/99/9
f 61/113/6 63/114/7 66/115/8 64/116/9
f 66/117/8 63/118/7 58/119/23
f 61/120/6 64/121/9 57/122/22
f 60/123/12 65/124/13 57/122/22
f 62/125/14 65/126/15 58/119/23
f 63/127/7 61/128/6 59/129/16
f 59/130/16 62/125/14 58/119/23
f 63/118/7 59/130/16 58/119/23
f 64/121/9 60/123/12 57/122/22
f 59/131/16 57/122/22 62/132/17
f 61/120/6 57/122/22 59/131/16
f 66/117/8 58/119/23 60/133/12
f 66/115/8 60/134/12 64/116/9
f 58/119/23 65/126/15 60/133/12
f 57/122/22 65/124/13 62/132/17
f 67/135/18 68/136/18 70/137/3 69/138/3
f 69/138/3 70/137/3 74/139/19 73/140/19
f 73/141/19 74/142/19 72/143/1 71/144/1
f 71/144/1 72/143/1 68/145/20 67/146/20
f 75/147/18 76/148/18 78/149/3 77/150/3
f 77/150/3 78/149/3 82/151/19 81/152/19
f 81/153/19 82/154/19 80/155/1 79/156/1
f 79/156/1 80/155/1 76/157/20 75/158/20
f 83/159/18 84/160/18 86/161/3 85/162/3
f 85/162/3 86/161/3 90/163/19 89/164/19
f 89/165/19 90/166/19 88/167/1 87/168/1
f 87/168/1 88/167/1 84/169/20 83/170/20
f 91/171/18 92/172/18 94/173/3 93/174/3
f 93/174/3 94/173/3 98/175/19 97/176/19
f 97/177/19 98/178/19 96/179/1 95/180/1
f 95/180/1 96/179/1 92/181/20 91/182/20
