# Blender v2.93.5 OBJ File: 'Modular Graveyard.blend'
# www.blender.org
mtllib RustyLowRailing2A.mtl
o RustyLowRailing2A_Circle.060
v 1.000203 0.359053 0.018813
v 1.000203 0.386990 0.000142
v 1.000203 0.331116 0.000142
v -0.998025 0.359053 0.018813
v -0.998025 0.386990 0.000142
v -0.998025 0.331116 0.000142
v 0.219479 0.494248 0.030940
v 0.238377 0.800285 0.000107
v 0.219479 0.494248 -0.030726
v 0.283987 0.494248 0.030940
v 0.265089 0.800285 0.000107
v 0.283987 0.494248 -0.030726
v 0.177880 0.577323 0.000107
v 0.325586 0.577323 0.000107
v 0.251733 0.588476 0.052207
v 0.251733 0.588476 -0.051993
v 0.968576 0.494248 0.030940
v 0.987474 0.800285 0.000107
v 0.968576 0.494248 -0.030726
v 1.033084 0.494248 0.030940
v 1.014186 0.800285 0.000107
v 1.033084 0.494248 -0.030726
v 0.926977 0.577323 0.000107
v 1.074683 0.577323 0.000107
v 1.000830 0.588476 0.052207
v 1.000830 0.588476 -0.051993
v 0.750520 0.588476 -0.051993
v 0.750520 0.588476 0.052207
v 0.824373 0.577323 0.000107
v 0.676667 0.577323 0.000107
v 0.782774 0.494248 -0.030726
v 0.763876 0.800285 0.000107
v 0.782774 0.494248 0.030940
v 0.718266 0.494248 -0.030726
v 0.737164 0.800285 0.000107
v 0.718266 0.494248 0.030940
v 0.467667 0.494248 0.030940
v 0.486565 0.800285 0.000107
v 0.467667 0.494248 -0.030726
v 0.532174 0.494248 0.030940
v 0.513276 0.800285 0.000107
v 0.532174 0.494248 -0.030726
v 0.426068 0.577323 0.000107
v 0.573773 0.577323 0.000107
v 0.499920 0.588476 0.052207
v 0.499920 0.588476 -0.051993
v 0.001066 0.588476 -0.051993
v 0.001066 0.588476 0.052207
v 0.074919 0.577323 0.000107
v -0.072787 0.577323 0.000107
v 0.033320 0.494248 -0.030726
v 0.014422 0.800285 0.000107
v 0.033320 0.494248 0.030940
v -0.031188 0.494248 -0.030726
v -0.012290 0.800285 0.000107
v -0.031188 0.494248 0.030940
v 0.221216 -0.012187 0.000000
v 0.221216 0.501030 0.000000
v 0.251610 -0.012187 -0.030394
v 0.251610 0.501030 -0.030394
v 0.251610 -0.012187 0.030394
v 0.251610 0.501030 0.030394
v 0.282003 -0.012187 0.000000
v 0.282003 0.501030 0.000000
v -0.029334 -0.012187 0.000000
v -0.029334 0.501030 0.000000
v 0.001060 -0.012187 -0.030394
v 0.001060 0.501030 -0.030394
v 0.001060 -0.012187 0.030394
v 0.001060 0.501030 0.030394
v 0.031454 -0.012187 0.000000
v 0.031454 0.501030 0.000000
v 0.469596 -0.012187 0.000000
v 0.469596 0.501030 0.000000
v 0.499990 -0.012187 -0.030394
v 0.499990 0.501030 -0.030394
v 0.499990 -0.012187 0.030394
v 0.499990 0.501030 0.030394
v 0.530384 -0.012187 0.000000
v 0.530384 0.501030 0.000000
v 0.720086 -0.012187 0.000000
v 0.720086 0.501030 0.000000
v 0.750480 -0.012187 -0.030394
v 0.750480 0.501030 -0.030394
v 0.750480 -0.012187 0.030394
v 0.750480 0.501030 0.030394
v 0.780873 -0.012187 0.000000
v 0.780873 0.501030 0.000000
v 0.970439 -0.012187 0.000000
v 0.970439 0.501030 0.000000
v 1.000833 -0.012187 -0.030394
v 1.000833 0.501030 -0.030394
v 1.000833 -0.012187 0.030394
v 1.000833 0.501030 0.030394
v 1.031226 -0.012187 0.000000
v 1.031226 0.501030 0.000000
v 1.000203 0.359053 -0.018117
v -0.998025 0.359053 -0.018117
v -0.780521 0.494248 0.030940
v -0.761623 0.800285 0.000107
v -0.780521 0.494248 -0.030726
v -0.716013 0.494248 0.030940
v -0.734911 0.800285 0.000107
v -0.716013 0.494248 -0.030726
v -0.822120 0.577323 0.000107
v -0.674414 0.577323 0.000107
v -0.748267 0.588476 0.052207
v -0.748267 0.588476 -0.051993
v -0.249480 0.588476 -0.051993
v -0.249480 0.588476 0.052207
v -0.175627 0.577323 0.000107
v -0.323333 0.577323 0.000107
v -0.217226 0.494248 -0.030726
v -0.236124 0.800285 0.000107
v -0.217226 0.494248 0.030940
v -0.281734 0.494248 -0.030726
v -0.262836 0.800285 0.000107
v -0.281734 0.494248 0.030940
v -0.532333 0.494248 0.030940
v -0.513435 0.800285 0.000107
v -0.532333 0.494248 -0.030726
v -0.467826 0.494248 0.030940
v -0.486724 0.800285 0.000107
v -0.467826 0.494248 -0.030726
v -0.573932 0.577323 0.000107
v -0.426227 0.577323 0.000107
v -0.500080 0.588476 0.052207
v -0.500080 0.588476 -0.051993
v -0.998934 0.588476 -0.051993
v -0.998934 0.588476 0.052207
v -0.925081 0.577323 0.000107
v -1.072787 0.577323 0.000107
v -0.966680 0.494248 -0.030726
v -0.985578 0.800285 0.000107
v -0.966680 0.494248 0.030940
v -1.031188 0.494248 -0.030726
v -1.012290 0.800285 0.000107
v -1.031188 0.494248 0.030940
v -0.778784 -0.012187 0.000000
v -0.778784 0.501030 0.000000
v -0.748390 -0.012187 -0.030394
v -0.748390 0.501030 -0.030394
v -0.748390 -0.012187 0.030394
v -0.748390 0.501030 0.030394
v -0.717997 -0.012187 0.000000
v -0.717997 0.501030 0.000000
v -1.029334 -0.012187 0.000000
v -1.029334 0.501030 0.000000
v -0.998940 -0.012187 -0.030394
v -0.998940 0.501030 -0.030394
v -0.998940 -0.012187 0.030394
v -0.998940 0.501030 0.030394
v -0.968546 -0.012187 0.000000
v -0.968546 0.501030 0.000000
v -0.530404 -0.012187 0.000000
v -0.530404 0.501030 0.000000
v -0.500010 -0.012187 -0.030394
v -0.500010 0.501030 -0.030394
v -0.500010 -0.012187 0.030394
v -0.500010 0.501030 0.030394
v -0.469616 -0.012187 0.000000
v -0.469616 0.501030 0.000000
v -0.279914 -0.012187 0.000000
v -0.279914 0.501030 0.000000
v -0.249520 -0.012187 -0.030394
v -0.249520 0.501030 -0.030394
v -0.249520 -0.012187 0.030394
v -0.249520 0.501030 0.030394
v -0.219127 -0.012187 0.000000
v -0.219127 0.501030 0.000000
vt 0.828125 0.207031
vt 0.828125 0.046875
vt 0.843750 0.046875
vt 0.843750 0.207031
vt 0.789062 0.046875
vt 0.789062 0.207031
vt 0.765625 0.207031
vt 0.765625 0.046875
vt 0.804688 0.207031
vt 0.804688 0.046875
vt 0.875000 0.167969
vt 0.898438 0.199219
vt 0.898438 0.203125
vt 0.828125 0.113281
vt 0.851562 0.148438
vt 0.812500 0.117188
vt 0.765625 0.273438
vt 0.781250 0.261719
vt 0.789062 0.273438
vt 0.812500 0.101562
vt 0.859375 0.152344
vt 0.851562 0.167969
vt 0.882812 0.152344
vt 0.898438 0.164062
vt 0.835938 0.101562
vt 0.859375 0.113281
vt 0.859375 0.148438
vt 0.929688 0.257812
vt 0.921875 0.257812
vt 0.929688 0.242188
vt 0.789062 0.277344
vt 0.765625 0.277344
vt 0.875000 0.058594
vt 0.898438 0.097656
vt 0.898438 0.097656
vt 0.781250 0.191406
vt 0.804688 0.152344
vt 0.804688 0.191406
vt 0.898438 0.257812
vt 0.898438 0.242188
vt 0.914062 0.257812
vt 0.781250 0.199219
vt 0.859375 0.046875
vt 0.851562 0.058594
vt 0.882812 0.046875
vt 0.898438 0.054688
vt 0.765625 0.199219
vt 0.757812 0.187500
vt 0.789062 0.152344
vt 0.859375 0.132812
vt 0.890625 0.132812
vt 0.890625 0.148438
vt 0.914062 0.261719
vt 0.898438 0.261719
vt 0.789062 0.257812
vt 0.765625 0.257812
vt 0.765625 0.253906
vt 0.789062 0.253906
vt 0.843750 0.210938
vt 0.820312 0.210938
vt 0.843750 0.203125
vt 0.796875 0.109375
vt 0.773438 0.105469
vt 0.789062 0.089844
vt 0.765625 0.093750
vt 0.804688 0.058594
vt 0.859375 0.164062
vt 0.867188 0.164062
vt 0.835938 0.273438
vt 0.820312 0.273438
vt 0.835938 0.261719
vt 0.820312 0.199219
vt 0.812500 0.093750
vt 0.812500 0.058594
vt 0.867188 0.203125
vt 0.781250 0.238281
vt 0.843750 0.070312
vt 0.867188 0.109375
vt 0.859375 0.109375
vt 0.898438 0.179688
vt 0.914062 0.210938
vt 0.875000 0.179688
vt 0.796875 0.253906
vt 0.796875 0.238281
vt 0.812500 0.253906
vt 0.882812 0.164062
vt 0.820312 0.058594
vt 0.820312 0.070312
vt 0.843750 0.058594
vt 0.867188 0.066406
vt 0.898438 0.164062
vt 0.929688 0.179688
vt 0.929688 0.210938
vt 0.898438 0.132812
vt 0.914062 0.132812
vt 0.914062 0.148438
vt 0.812500 0.257812
vt 0.796875 0.257812
vt 0.835938 0.257812
vt 0.820312 0.257812
vt 0.820312 0.253906
vt 0.835938 0.253906
vt 0.812500 0.046875
vt 0.835938 0.046875
vt 0.828125 0.058594
vt 0.820312 0.113281
vt 0.843750 0.113281
vt 0.843750 0.128906
vt 0.867188 0.125000
vt 0.867188 0.160156
vt 0.859375 0.093750
vt 0.851562 0.093750
vt 0.929688 0.273438
vt 0.921875 0.273438
vt 0.929688 0.261719
vt 0.859375 0.058594
vt 0.820312 0.125000
vt 0.859375 0.160156
vt 0.812500 0.058594
vt 0.828125 0.238281
vt 0.921875 0.128906
vt 0.921875 0.046875
vt 0.929688 0.046875
vt 0.929688 0.128906
vt 0.929688 0.046875
vt 0.929688 0.128906
vt 0.906250 0.269531
vt 0.906250 0.187500
vt 0.914062 0.187500
vt 0.914062 0.273438
vt 0.929688 0.187500
vt 0.929688 0.269531
vt 0.921875 0.238281
vt 0.921875 0.152344
vt 0.929688 0.152344
vt 0.929688 0.238281
vt 0.929688 0.152344
vt 0.929688 0.238281
vt 0.851562 0.269531
vt 0.851562 0.187500
vt 0.859375 0.187500
vt 0.859375 0.273438
vt 0.867188 0.187500
vt 0.867188 0.269531
vt 0.820312 0.273438
vt 0.820312 0.187500
vt 0.835938 0.187500
vt 0.835938 0.273438
vt 0.843750 0.187500
vt 0.843750 0.273438
vt 0.882812 0.269531
vt 0.882812 0.187500
vt 0.890625 0.187500
vt 0.890625 0.273438
vt 0.898438 0.187500
vt 0.898438 0.269531
vt 0.898438 0.238281
vt 0.898438 0.152344
vt 0.898438 0.152344
vt 0.898438 0.238281
vt 0.914062 0.152344
vt 0.914062 0.238281
vt 0.828125 0.269531
vt 0.828125 0.187500
vt 0.835938 0.187500
vt 0.835938 0.273438
vt 0.851562 0.187500
vt 0.851562 0.269531
vt 0.843750 0.273438
vt 0.843750 0.187500
vt 0.859375 0.187500
vt 0.859375 0.273438
vt 0.867188 0.187500
vt 0.867188 0.273438
vt 0.765625 0.269531
vt 0.765625 0.187500
vt 0.773438 0.187500
vt 0.773438 0.273438
vt 0.781250 0.187500
vt 0.781250 0.269531
vt 0.796875 0.046875
vt 0.796875 0.207031
vt 0.898438 0.070312
vt 0.929688 0.109375
vt 0.914062 0.109375
vt 0.781250 0.082031
vt 0.804688 0.046875
vt 0.804688 0.082031
vt 0.765625 0.226562
vt 0.781250 0.210938
vt 0.789062 0.226562
vt 0.781250 0.093750
vt 0.882812 0.058594
vt 0.875000 0.070312
vt 0.898438 0.058594
vt 0.929688 0.066406
vt 0.765625 0.093750
vt 0.757812 0.078125
vt 0.789062 0.046875
vt 0.859375 0.265625
vt 0.890625 0.261719
vt 0.890625 0.273438
vt 0.789062 0.234375
vt 0.765625 0.234375
vt 0.835938 0.234375
vt 0.820312 0.234375
vt 0.820312 0.226562
vt 0.835938 0.226562
vt 0.781250 0.148438
vt 0.765625 0.148438
vt 0.781250 0.132812
vt 0.859375 0.101562
vt 0.882812 0.101562
vt 0.875000 0.117188
vt 0.898438 0.113281
vt 0.898438 0.148438
vt 0.789062 0.101562
vt 0.804688 0.101562
vt 0.929688 0.148438
vt 0.921875 0.148438
vt 0.929688 0.132812
vt 0.757812 0.132812
vt 0.851562 0.113281
vt 0.898438 0.148438
vt 0.804688 0.132812
vt 0.828125 0.210938
vt 0.789062 0.144531
vt 0.804688 0.113281
vt 0.812500 0.113281
vt 0.828125 0.167969
vt 0.851562 0.199219
vt 0.812500 0.167969
vt 0.796875 0.226562
vt 0.796875 0.210938
vt 0.812500 0.226562
vt 0.812500 0.152344
vt 0.796875 0.160156
vt 0.812500 0.148438
vt 0.773438 0.160156
vt 0.765625 0.144531
vt 0.835938 0.152344
vt 0.859375 0.167969
vt 0.859375 0.199219
vt 0.914062 0.273438
vt 0.898438 0.273438
vt 0.914062 0.261719
vt 0.812500 0.234375
vt 0.796875 0.234375
vt 0.890625 0.261719
vt 0.859375 0.261719
vt 0.859375 0.257812
vt 0.890625 0.257812
vt 0.773438 0.164062
vt 0.789062 0.164062
vt 0.789062 0.179688
vt 0.882812 0.113281
vt 0.898438 0.113281
vt 0.898438 0.128906
vt 0.929688 0.125000
vt 0.929688 0.160156
vt 0.812500 0.210938
vt 0.804688 0.210938
vt 0.796875 0.261719
vt 0.812500 0.261719
vt 0.812500 0.273438
vt 0.812500 0.179688
vt 0.875000 0.125000
vt 0.914062 0.160156
vt 0.765625 0.179688
vt 0.875000 0.242188
vt 0.859375 0.128906
vt 0.859375 0.046875
vt 0.875000 0.046875
vt 0.875000 0.128906
vt 0.890625 0.046875
vt 0.890625 0.128906
vt 0.773438 0.269531
vt 0.773438 0.187500
vt 0.781250 0.187500
vt 0.781250 0.273438
vt 0.789062 0.187500
vt 0.789062 0.269531
vt 0.859375 0.238281
vt 0.859375 0.152344
vt 0.875000 0.152344
vt 0.875000 0.238281
vt 0.890625 0.152344
vt 0.890625 0.238281
vt 0.914062 0.187500
vt 0.914062 0.273438
vt 0.914062 0.269531
vt 0.914062 0.187500
vt 0.898438 0.273438
vt 0.898438 0.187500
vt 0.898438 0.128906
vt 0.898438 0.046875
vt 0.898438 0.046875
vt 0.898438 0.128906
vt 0.914062 0.046875
vt 0.914062 0.128906
vt 0.796875 0.269531
vt 0.796875 0.187500
vt 0.812500 0.187500
vt 0.812500 0.273438
vt 0.828125 0.187500
vt 0.828125 0.269531
vt 0.875000 0.273438
vt 0.875000 0.187500
vt 0.882812 0.187500
vt 0.882812 0.273438
vt 0.890625 0.187500
vt 0.890625 0.273438
vt 0.789062 0.269531
vt 0.789062 0.187500
vt 0.804688 0.187500
vt 0.804688 0.273438
vt 0.812500 0.187500
vt 0.812500 0.269531
vn 0.0000 -0.0000 1.0000
vn 0.0000 -0.5557 0.8314
vn -0.0000 -0.0000 -1.0000
vn -0.0000 0.5471 -0.8371
vn 0.0000 0.5557 0.8314
vn 0.0000 0.0806 -0.9967
vn -0.1277 0.2293 -0.9649
vn 0.1277 0.2293 -0.9649
vn 0.0000 0.0806 0.9967
vn -0.1277 0.2293 0.9649
vn -0.9992 0.0407 0.0000
vn -0.4717 -0.6779 0.5638
vn -0.4717 -0.6779 -0.5638
vn 0.4717 -0.6779 -0.5638
vn 0.9992 0.0407 0.0000
vn 0.4717 -0.6779 0.5638
vn 0.1277 0.2293 0.9649
vn -0.0000 0.0806 -0.9968
vn -0.7071 0.0000 -0.7071
vn 0.7071 0.0000 -0.7071
vn 0.7071 0.0000 0.7071
vn -0.7071 0.0000 0.7071
vn 1.0000 0.0000 0.0000
vn -0.0000 -0.5471 -0.8371
vn 0.0000 0.0806 0.9968
usemtl Material.001
s 1
f 1/1/1 4/2/1 6/3/2 3/4/2
f 97/5/3 98/6/3 5/7/4 2/8/4
f 2/9/5 5/10/5 4/2/1 1/1/1
f 16/11/6 8/12/7 11/13/8
f 15/14/9 8/15/10 13/16/11
f 7/17/12 13/18/11 9/19/13
f 7/20/12 15/14/9 13/16/11
f 12/21/14 16/11/6 14/22/15
f 14/22/15 16/11/6 11/13/8
f 9/23/13 13/24/11 16/11/6
f 10/25/16 14/26/15 15/14/9
f 14/26/15 11/27/17 15/14/9
f 10/28/16 12/29/14 14/30/15
f 11/27/17 8/15/10 15/14/9
f 13/24/11 8/12/7 16/11/6
f 12/21/14 9/23/13 16/11/6
f 7/20/12 10/25/16 15/14/9
f 12/31/14 10/32/16 7/17/12 9/19/13
f 26/33/6 18/34/7 21/35/8
f 25/36/9 18/37/10 23/38/11
f 17/39/12 23/40/11 19/41/13
f 17/42/12 25/36/9 23/38/11
f 22/43/14 26/33/6 24/44/15
f 24/44/15 26/33/6 21/35/8
f 19/45/13 23/46/11 26/33/6
f 20/47/16 24/48/15 25/36/9
f 24/48/15 21/49/17 25/36/9
f 20/50/16 22/51/14 24/52/15
f 21/49/17 18/37/10 25/36/9
f 23/46/11 18/34/7 26/33/6
f 22/43/14 19/45/13 26/33/6
f 17/42/12 20/47/16 25/36/9
f 22/53/14 20/54/16 17/39/12 19/41/13
f 31/55/14 33/56/16 36/57/12 34/58/13
f 36/59/12 33/60/16 28/61/9
f 31/62/14 34/63/13 27/64/6
f 30/65/11 35/66/7 27/64/6
f 32/67/17 35/68/10 28/61/9
f 33/69/16 31/70/14 29/71/15
f 29/72/15 32/67/17 28/61/9
f 33/60/16 29/72/15 28/61/9
f 34/63/13 30/65/11 27/64/6
f 29/73/15 27/64/6 32/74/8
f 31/62/14 27/64/6 29/73/15
f 36/59/12 28/61/9 30/75/11
f 36/57/12 30/76/11 34/58/13
f 28/61/9 35/68/10 30/75/11
f 27/64/6 35/66/7 32/74/8
f 46/77/18 38/78/7 41/79/8
f 45/80/9 38/81/10 43/82/11
f 37/83/12 43/84/11 39/85/13
f 37/86/12 45/80/9 43/82/11
f 42/87/14 46/77/18 44/88/15
f 44/88/15 46/77/18 41/79/8
f 39/89/13 43/90/11 46/77/18
f 40/91/16 44/92/15 45/80/9
f 44/92/15 41/93/17 45/80/9
f 40/94/16 42/95/14 44/96/15
f 41/93/17 38/81/10 45/80/9
f 43/90/11 38/78/7 46/77/18
f 42/87/14 39/89/13 46/77/18
f 37/86/12 40/91/16 45/80/9
f 42/97/14 40/98/16 37/83/12 39/85/13
f 51/99/14 53/100/16 56/101/12 54/102/13
f 56/103/12 53/104/16 48/105/9
f 51/106/14 54/107/13 47/108/18
f 50/109/11 55/110/7 47/108/18
f 52/111/17 55/112/10 48/105/9
f 53/113/16 51/114/14 49/115/15
f 49/116/15 52/111/17 48/105/9
f 53/104/16 49/116/15 48/105/9
f 54/107/13 50/109/11 47/108/18
f 49/117/15 47/108/18 52/118/8
f 51/106/14 47/108/18 49/117/15
f 56/103/12 48/105/9 50/119/11
f 56/101/12 50/120/11 54/102/13
f 48/105/9 55/112/10 50/119/11
f 47/108/18 55/110/7 52/118/8
f 57/121/19 58/122/19 60/123/3 59/124/3
f 59/124/3 60/123/3 64/125/20 63/126/20
f 63/127/21 64/128/21 62/129/1 61/130/1
f 61/130/1 62/129/1 58/131/22 57/132/22
f 65/133/19 66/134/19 68/135/3 67/136/3
f 67/136/3 68/135/3 72/137/23 71/138/23
f 71/139/23 72/140/23 70/141/1 69/142/1
f 69/142/1 70/141/1 66/143/22 65/144/22
f 73/145/19 74/146/19 76/147/3 75/148/3
f 75/148/3 76/147/3 80/149/23 79/150/23
f 79/151/23 80/152/23 78/153/1 77/154/1
f 77/154/1 78/153/1 74/155/22 73/156/22
f 81/157/19 82/158/19 84/159/3 83/160/3
f 83/160/3 84/159/3 88/161/23 87/162/23
f 87/163/23 88/164/23 86/165/1 85/166/1
f 85/166/1 86/165/1 82/167/22 81/168/22
f 89/169/19 90/170/19 92/171/3 91/172/3
f 91/172/3 92/171/3 96/173/23 95/174/23
f 95/175/23 96/176/23 94/177/1 93/178/1
f 93/178/1 94/177/1 90/179/22 89/180/22
f 3/181/24 6/182/24 98/6/3 97/5/3
f 108/183/6 100/184/7 103/185/8
f 107/186/9 100/187/10 105/188/11
f 99/189/12 105/190/11 101/191/13
f 99/192/12 107/186/9 105/188/11
f 104/193/14 108/183/6 106/194/15
f 106/194/15 108/183/6 103/185/8
f 101/195/13 105/196/11 108/183/6
f 102/197/16 106/198/15 107/186/9
f 106/198/15 103/199/17 107/186/9
f 102/200/16 104/201/14 106/202/15
f 103/199/17 100/187/10 107/186/9
f 105/196/11 100/184/7 108/183/6
f 104/193/14 101/195/13 108/183/6
f 99/192/12 102/197/16 107/186/9
f 104/203/14 102/204/16 99/189/12 101/191/13
f 113/205/14 115/206/16 118/207/12 116/208/13
f 118/209/12 115/210/16 110/211/9
f 113/212/14 116/213/13 109/214/6
f 112/215/11 117/216/7 109/214/6
f 114/217/17 117/218/10 110/211/9
f 115/219/16 113/220/14 111/221/15
f 111/222/15 114/217/17 110/211/9
f 115/210/16 111/222/15 110/211/9
f 116/213/13 112/215/11 109/214/6
f 111/223/15 109/214/6 114/224/8
f 113/212/14 109/214/6 111/223/15
f 118/209/12 110/211/9 112/225/11
f 118/207/12 112/226/11 116/208/13
f 110/211/9 117/218/10 112/225/11
f 109/214/6 117/216/7 114/224/8
f 128/227/18 120/228/7 123/229/8
f 127/230/9 120/231/10 125/232/11
f 119/233/12 125/234/11 121/235/13
f 119/236/12 127/230/9 125/232/11
f 124/237/14 128/227/18 126/238/15
f 126/238/15 128/227/18 123/229/8
f 121/239/13 125/240/11 128/227/18
f 122/241/16 126/242/15 127/230/9
f 126/242/15 123/243/17 127/230/9
f 122/244/16 124/245/14 126/246/15
f 123/243/17 120/231/10 127/230/9
f 125/240/11 120/228/7 128/227/18
f 124/237/14 121/239/13 128/227/18
f 119/236/12 122/241/16 127/230/9
f 124/247/14 122/248/16 119/233/12 121/235/13
f 133/249/14 135/250/16 138/251/12 136/252/13
f 138/253/12 135/254/16 130/255/25
f 133/256/14 136/257/13 129/258/6
f 132/259/11 137/260/7 129/258/6
f 134/261/17 137/262/10 130/255/25
f 135/263/16 133/264/14 131/265/15
f 131/266/15 134/261/17 130/255/25
f 135/254/16 131/266/15 130/255/25
f 136/257/13 132/259/11 129/258/6
f 131/267/15 129/258/6 134/268/8
f 133/256/14 129/258/6 131/267/15
f 138/253/12 130/255/25 132/269/11
f 138/251/12 132/270/11 136/252/13
f 130/255/25 137/262/10 132/269/11
f 129/258/6 137/260/7 134/268/8
f 139/271/19 140/272/19 142/273/3 141/274/3
f 141/274/3 142/273/3 146/275/23 145/276/23
f 145/277/23 146/278/23 144/279/1 143/280/1
f 143/280/1 144/279/1 140/281/22 139/282/22
f 147/283/19 148/284/19 150/285/3 149/286/3
f 149/286/3 150/285/3 154/287/23 153/288/23
f 153/289/23 154/290/23 152/291/1 151/292/1
f 151/292/1 152/291/1 148/293/22 147/294/22
f 155/295/19 156/296/19 158/297/3 157/298/3
f 157/298/3 158/297/3 162/299/23 161/300/23
f 161/301/23 162/302/23 160/303/1 159/304/1
f 159/304/1 160/303/1 156/305/22 155/306/22
f 163/307/19 164/308/19 166/309/3 165/310/3
f 165/310/3 166/309/3 170/311/23 169/312/23
f 169/313/23 170/314/23 168/315/1 167/316/1
f 167/316/1 168/315/1 164/317/22 163/318/22
