# Blender v2.93.5 OBJ File: 'Modular Graveyard.blend'
# www.blender.org
mtllib RustyLowRailingOpen2A.mtl
o RustyLowRailingOpen2A_Circle.066
v 2.000203 0.359053 0.018813
v 2.000203 0.386990 0.000142
v 2.000203 0.331116 0.000142
v 0.001897 0.359053 0.018813
v 0.001897 0.386990 0.000142
v 0.001897 0.331116 0.000142
v 0.219479 0.494248 0.030940
v 0.238377 0.800285 0.000107
v 0.219479 0.494248 -0.030726
v 0.283987 0.494248 0.030940
v 0.265089 0.800285 0.000107
v 0.283987 0.494248 -0.030726
v 0.177880 0.577323 0.000107
v 0.325586 0.577323 0.000107
v 0.251733 0.588476 0.052207
v 0.251733 0.588476 -0.051993
v 0.750520 0.588476 -0.051993
v 0.750520 0.588476 0.052207
v 0.824373 0.577323 0.000107
v 0.676667 0.577323 0.000107
v 0.782774 0.494248 -0.030726
v 0.763876 0.800285 0.000107
v 0.782774 0.494248 0.030940
v 0.718266 0.494248 -0.030726
v 0.737164 0.800285 0.000107
v 0.718266 0.494248 0.030940
v 0.467667 0.494248 0.030940
v 0.486565 0.800285 0.000107
v 0.467667 0.494248 -0.030726
v 0.532174 0.494248 0.030940
v 0.513276 0.800285 0.000107
v 0.532174 0.494248 -0.030726
v 0.426068 0.577323 0.000107
v 0.573773 0.577323 0.000107
v 0.499920 0.588476 0.052207
v 0.499920 0.588476 -0.051993
v 0.221216 -0.002187 0.000000
v 0.221216 0.501030 0.000000
v 0.251610 -0.002187 -0.030394
v 0.251610 0.501030 -0.030394
v 0.251610 -0.002187 0.030394
v 0.251610 0.501030 0.030394
v 0.282003 -0.002187 0.000000
v 0.282003 0.501030 0.000000
v 0.469596 -0.002187 0.000000
v 0.469596 0.501030 0.000000
v 0.499990 -0.002187 -0.030394
v 0.499990 0.501030 -0.030394
v 0.499990 -0.002187 0.030394
v 0.499990 0.501030 0.030394
v 0.530384 -0.002187 0.000000
v 0.530384 0.501030 0.000000
v 0.720086 -0.002187 0.000000
v 0.720086 0.501030 0.000000
v 0.750480 -0.002187 -0.030394
v 0.750480 0.501030 -0.030394
v 0.750480 -0.002187 0.030394
v 0.750480 0.501030 0.030394
v 0.780873 -0.002187 0.000000
v 0.780873 0.501030 0.000000
v 2.000203 0.359053 -0.018117
v 0.001897 0.359053 -0.018117
v 1.000894 0.588476 -0.051993
v 1.000894 0.588476 0.052207
v 1.074747 0.577323 0.000107
v 0.927041 0.577323 0.000107
v 1.033148 0.494248 -0.030726
v 1.014250 0.800285 0.000107
v 1.033148 0.494248 0.030940
v 0.968640 0.494248 -0.030726
v 0.987538 0.800285 0.000107
v 0.968640 0.494248 0.030940
v 0.970460 -0.002187 0.000000
v 0.970460 0.501030 0.000000
v 1.000853 -0.002187 -0.030394
v 1.000853 0.501030 -0.030394
v 1.000853 -0.002187 0.030394
v 1.000853 0.501030 0.030394
v 1.031247 -0.002187 0.000000
v 1.031247 0.501030 0.000000
v 1.219479 0.494248 0.030940
v 1.238377 0.800285 0.000107
v 1.219479 0.494248 -0.030726
v 1.283987 0.494248 0.030940
v 1.265089 0.800285 0.000107
v 1.283987 0.494248 -0.030726
v 1.177880 0.577323 0.000107
v 1.325586 0.577323 0.000107
v 1.251733 0.588476 0.052207
v 1.251733 0.588476 -0.051993
v 1.750520 0.588476 -0.051993
v 1.750520 0.588476 0.052207
v 1.824373 0.577323 0.000107
v 1.676667 0.577323 0.000107
v 1.782774 0.494248 -0.030726
v 1.763876 0.800285 0.000107
v 1.782774 0.494248 0.030940
v 1.718266 0.494248 -0.030726
v 1.737164 0.800285 0.000107
v 1.718266 0.494248 0.030940
v 1.467667 0.494248 0.030940
v 1.486565 0.800285 0.000107
v 1.467667 0.494248 -0.030726
v 1.532174 0.494248 0.030940
v 1.513276 0.800285 0.000107
v 1.532174 0.494248 -0.030726
v 1.426068 0.577323 0.000107
v 1.573773 0.577323 0.000107
v 1.499920 0.588476 0.052207
v 1.499920 0.588476 -0.051993
v 1.221216 -0.002187 0.000000
v 1.221216 0.501030 0.000000
v 1.251610 -0.002187 -0.030394
v 1.251610 0.501030 -0.030394
v 1.251610 -0.002187 0.030394
v 1.251610 0.501030 0.030394
v 1.282003 -0.002187 0.000000
v 1.282003 0.501030 0.000000
v 1.469596 -0.002187 0.000000
v 1.469596 0.501030 0.000000
v 1.499990 -0.002187 -0.030394
v 1.499990 0.501030 -0.030394
v 1.499990 -0.002187 0.030394
v 1.499990 0.501030 0.030394
v 1.530384 -0.002187 0.000000
v 1.530384 0.501030 0.000000
v 1.720086 -0.002187 0.000000
v 1.720086 0.501030 0.000000
v 1.750480 -0.002187 -0.030394
v 1.750480 0.501030 -0.030394
v 1.750480 -0.002187 0.030394
v 1.750480 0.501030 0.030394
v 1.780873 -0.002187 0.000000
v 1.780873 0.501030 0.000000
vt 0.812500 0.246094
vt 0.812500 0.113281
vt 0.828125 0.113281
vt 0.828125 0.246094
vt 0.781250 0.113281
vt 0.781250 0.246094
vt 0.765625 0.246094
vt 0.765625 0.113281
vt 0.796875 0.246094
vt 0.796875 0.113281
vt 0.789062 0.085938
vt 0.796875 0.058594
vt 0.804688 0.058594
vt 0.851562 0.210938
vt 0.867188 0.242188
vt 0.835938 0.210938
vt 0.765625 0.261719
vt 0.781250 0.250000
vt 0.781250 0.261719
vt 0.835938 0.203125
vt 0.789062 0.101562
vt 0.804688 0.089844
vt 0.773438 0.101562
vt 0.773438 0.085938
vt 0.851562 0.203125
vt 0.867188 0.210938
vt 0.867188 0.242188
vt 0.890625 0.070312
vt 0.882812 0.070312
vt 0.890625 0.058594
vt 0.890625 0.078125
vt 0.882812 0.078125
vt 0.835938 0.257812
vt 0.843750 0.257812
vt 0.843750 0.257812
vt 0.835938 0.257812
vt 0.835938 0.183594
vt 0.820312 0.183594
vt 0.835938 0.175781
vt 0.835938 0.160156
vt 0.851562 0.160156
vt 0.851562 0.167969
vt 0.867188 0.164062
vt 0.867188 0.199219
vt 0.843750 0.144531
vt 0.851562 0.144531
vt 0.843750 0.242188
vt 0.812500 0.175781
vt 0.835938 0.167969
vt 0.867188 0.199219
vt 0.851562 0.175781
vt 0.898438 0.070312
vt 0.921875 0.058594
vt 0.921875 0.070312
vt 0.890625 0.167969
vt 0.914062 0.199219
vt 0.906250 0.199219
vt 0.835938 0.113281
vt 0.843750 0.144531
vt 0.812500 0.113281
vt 0.781250 0.187500
vt 0.781250 0.203125
vt 0.765625 0.191406
vt 0.820312 0.105469
vt 0.882812 0.160156
vt 0.875000 0.167969
vt 0.890625 0.160156
vt 0.914062 0.164062
vt 0.835938 0.105469
vt 0.851562 0.113281
vt 0.851562 0.144531
vt 0.890625 0.089844
vt 0.882812 0.089844
vt 0.890625 0.078125
vt 0.890625 0.089844
vt 0.882812 0.089844
vt 0.828125 0.179688
vt 0.828125 0.113281
vt 0.843750 0.113281
vt 0.843750 0.179688
vt 0.851562 0.113281
vt 0.851562 0.179688
vt 0.906250 0.183594
vt 0.906250 0.246094
vt 0.906250 0.246094
vt 0.906250 0.179688
vt 0.890625 0.246094
vt 0.890625 0.183594
vt 0.828125 0.250000
vt 0.828125 0.179688
vt 0.843750 0.179688
vt 0.843750 0.250000
vt 0.851562 0.179688
vt 0.851562 0.250000
vt 0.781250 0.199219
vt 0.781250 0.261719
vt 0.773438 0.261719
vt 0.773438 0.195312
vt 0.765625 0.261719
vt 0.765625 0.199219
vt 0.851562 0.179688
vt 0.851562 0.113281
vt 0.859375 0.113281
vt 0.859375 0.179688
vt 0.875000 0.113281
vt 0.875000 0.179688
vt 0.820312 0.199219
vt 0.820312 0.261719
vt 0.820312 0.261719
vt 0.820312 0.195312
vt 0.812500 0.261719
vt 0.812500 0.199219
vt 0.789062 0.113281
vt 0.789062 0.246094
vt 0.851562 0.257812
vt 0.867188 0.257812
vt 0.867188 0.257812
vt 0.851562 0.257812
vt 0.859375 0.148438
vt 0.882812 0.144531
vt 0.882812 0.156250
vt 0.773438 0.105469
vt 0.789062 0.105469
vt 0.789062 0.113281
vt 0.804688 0.109375
vt 0.804688 0.144531
vt 0.890625 0.183594
vt 0.890625 0.183594
vt 0.859375 0.242188
vt 0.890625 0.156250
vt 0.773438 0.113281
vt 0.796875 0.144531
vt 0.859375 0.156250
vt 0.789062 0.203125
vt 0.796875 0.187500
vt 0.796875 0.203125
vt 0.875000 0.250000
vt 0.875000 0.179688
vt 0.875000 0.179688
vt 0.875000 0.250000
vt 0.890625 0.179688
vt 0.890625 0.250000
vt 0.765625 0.199219
vt 0.765625 0.261719
vt 0.757812 0.261719
vt 0.757812 0.195312
vt 0.750000 0.261719
vt 0.750000 0.199219
vt 0.835938 0.070312
vt 0.851562 0.101562
vt 0.843750 0.101562
vt 0.890625 0.210938
vt 0.906250 0.242188
vt 0.875000 0.210938
vt 0.898438 0.089844
vt 0.921875 0.078125
vt 0.921875 0.089844
vt 0.882812 0.203125
vt 0.820312 0.058594
vt 0.812500 0.070312
vt 0.835938 0.058594
vt 0.851562 0.066406
vt 0.890625 0.203125
vt 0.914062 0.210938
vt 0.914062 0.242188
vt 0.875000 0.089844
vt 0.859375 0.089844
vt 0.867188 0.078125
vt 0.875000 0.089844
vt 0.859375 0.089844
vt 0.859375 0.070312
vt 0.875000 0.070312
vt 0.875000 0.078125
vt 0.859375 0.078125
vt 0.859375 0.105469
vt 0.882812 0.105469
vt 0.882812 0.113281
vt 0.835938 0.113281
vt 0.851562 0.113281
vt 0.851562 0.125000
vt 0.867188 0.121094
vt 0.867188 0.156250
vt 0.890625 0.144531
vt 0.890625 0.144531
vt 0.867188 0.058594
vt 0.890625 0.113281
vt 0.835938 0.125000
vt 0.867188 0.156250
vt 0.859375 0.113281
vt 0.781250 0.261719
vt 0.789062 0.250000
vt 0.796875 0.261719
vt 0.890625 0.125000
vt 0.914062 0.156250
vt 0.906250 0.156250
vt 0.789062 0.156250
vt 0.796875 0.187500
vt 0.773438 0.156250
vt 0.890625 0.257812
vt 0.906250 0.242188
vt 0.906250 0.257812
vt 0.773438 0.148438
vt 0.882812 0.113281
vt 0.875000 0.125000
vt 0.890625 0.113281
vt 0.914062 0.121094
vt 0.789062 0.148438
vt 0.804688 0.156250
vt 0.804688 0.187500
vt 0.890625 0.257812
vt 0.875000 0.257812
vt 0.882812 0.242188
vt 0.875000 0.257812
vt 0.875000 0.179688
vt 0.875000 0.113281
vt 0.875000 0.113281
vt 0.875000 0.179688
vt 0.890625 0.113281
vt 0.890625 0.179688
vt 0.804688 0.199219
vt 0.804688 0.261719
vt 0.796875 0.261719
vt 0.796875 0.195312
vt 0.789062 0.261719
vt 0.789062 0.199219
vt 0.890625 0.179688
vt 0.890625 0.113281
vt 0.906250 0.113281
vt 0.906250 0.179688
vt 0.906250 0.113281
vt 0.906250 0.179688
vt 0.929688 0.179688
vt 0.929688 0.242188
vt 0.921875 0.242188
vt 0.921875 0.179688
vt 0.914062 0.242188
vt 0.914062 0.179688
vt 0.851562 0.250000
vt 0.851562 0.179688
vt 0.859375 0.179688
vt 0.859375 0.250000
vt 0.875000 0.179688
vt 0.875000 0.250000
vt 0.929688 0.113281
vt 0.929688 0.175781
vt 0.921875 0.175781
vt 0.921875 0.113281
vt 0.914062 0.175781
vt 0.914062 0.113281
vn 0.0000 -0.0000 1.0000
vn 0.0000 -0.5557 0.8314
vn -0.0000 -0.0000 -1.0000
vn -0.0000 0.5471 -0.8371
vn 0.0000 0.5557 0.8314
vn 0.0000 0.0806 -0.9967
vn -0.1277 0.2293 -0.9649
vn 0.1277 0.2293 -0.9649
vn 0.0000 0.0806 0.9967
vn -0.1277 0.2293 0.9649
vn -0.9992 0.0407 0.0000
vn -0.4717 -0.6779 0.5638
vn -0.4717 -0.6779 -0.5638
vn 0.4717 -0.6779 -0.5638
vn 0.9992 0.0407 0.0000
vn 0.4717 -0.6779 0.5638
vn 0.1277 0.2293 0.9649
vn -0.0000 0.0806 -0.9968
vn -0.7071 0.0000 -0.7071
vn 0.7071 0.0000 -0.7071
vn 0.7071 0.0000 0.7071
vn -0.7071 0.0000 0.7071
vn 1.0000 0.0000 0.0000
vn -0.0000 -0.5471 -0.8371
usemtl Material.001
s 1
f 1/1/1 4/2/1 6/3/2 3/4/2
f 61/5/3 62/6/3 5/7/4 2/8/4
f 2/9/5 5/10/5 4/2/1 1/1/1
f 16/11/6 8/12/7 11/13/8
f 15/14/9 8/15/10 13/16/11
f 7/17/12 13/18/11 9/19/13
f 7/20/12 15/14/9 13/16/11
f 12/21/14 16/11/6 14/22/15
f 14/22/15 16/11/6 11/13/8
f 9/23/13 13/24/11 16/11/6
f 10/25/16 14/26/15 15/14/9
f 14/26/15 11/27/17 15/14/9
f 10/28/16 12/29/14 14/30/15
f 11/27/17 8/15/10 15/14/9
f 13/24/11 8/12/7 16/11/6
f 12/21/14 9/23/13 16/11/6
f 7/20/12 10/25/16 15/14/9
f 12/29/14 10/28/16 7/31/12 9/32/13
f 21/33/14 23/34/16 26/35/12 24/36/13
f 26/37/12 23/38/16 18/39/9
f 21/40/14 24/41/13 17/42/6
f 20/43/11 25/44/7 17/42/6
f 22/45/17 25/46/10 18/39/9
f 23/34/16 21/33/14 19/47/15
f 19/48/15 22/45/17 18/39/9
f 23/38/16 19/48/15 18/39/9
f 24/41/13 20/43/11 17/42/6
f 19/49/15 17/42/6 22/50/8
f 21/40/14 17/42/6 19/49/15
f 26/37/12 18/39/9 20/51/11
f 26/52/12 20/53/11 24/54/13
f 18/39/9 25/46/10 20/51/11
f 17/42/6 25/44/7 22/50/8
f 36/55/18 28/56/7 31/57/8
f 35/58/9 28/59/10 33/60/11
f 27/61/12 33/62/11 29/63/13
f 27/64/12 35/58/9 33/60/11
f 32/65/14 36/55/18 34/66/15
f 34/66/15 36/55/18 31/57/8
f 29/67/13 33/68/11 36/55/18
f 30/69/16 34/70/15 35/58/9
f 34/70/15 31/71/17 35/58/9
f 30/72/16 32/73/14 34/74/15
f 31/71/17 28/59/10 35/58/9
f 33/68/11 28/56/7 36/55/18
f 32/65/14 29/67/13 36/55/18
f 27/64/12 30/69/16 35/58/9
f 32/73/14 30/72/16 27/75/12 29/76/13
f 37/77/19 38/78/19 40/79/3 39/80/3
f 39/80/3 40/79/3 44/81/20 43/82/20
f 43/83/21 44/84/21 42/85/1 41/86/1
f 41/86/1 42/85/1 38/87/22 37/88/22
f 45/89/19 46/90/19 48/91/3 47/92/3
f 47/92/3 48/91/3 52/93/23 51/94/23
f 51/95/23 52/96/23 50/97/1 49/98/1
f 49/98/1 50/97/1 46/99/22 45/100/22
f 53/101/19 54/102/19 56/103/3 55/104/3
f 55/104/3 56/103/3 60/105/23 59/106/23
f 59/107/23 60/108/23 58/109/1 57/110/1
f 57/110/1 58/109/1 54/111/22 53/112/22
f 3/113/24 6/114/24 62/6/3 61/5/3
f 67/115/14 69/116/16 72/117/12 70/118/13
f 72/119/12 69/120/16 64/121/9
f 67/122/14 70/123/13 63/124/6
f 66/125/11 71/126/7 63/124/6
f 68/127/17 71/128/10 64/121/9
f 69/116/16 67/115/14 65/129/15
f 65/130/15 68/127/17 64/121/9
f 69/120/16 65/130/15 64/121/9
f 70/123/13 66/125/11 63/124/6
f 65/131/15 63/124/6 68/132/8
f 67/122/14 63/124/6 65/131/15
f 72/119/12 64/121/9 66/133/11
f 72/134/12 66/135/11 70/136/13
f 64/121/9 71/128/10 66/133/11
f 63/124/6 71/126/7 68/132/8
f 73/137/19 74/138/19 76/139/3 75/140/3
f 75/140/3 76/139/3 80/141/23 79/142/23
f 79/143/23 80/144/23 78/145/1 77/146/1
f 77/146/1 78/145/1 74/147/22 73/148/22
f 90/149/6 82/150/7 85/151/8
f 89/152/9 82/153/10 87/154/11
f 81/155/12 87/156/11 83/157/13
f 81/158/12 89/152/9 87/154/11
f 86/159/14 90/149/6 88/160/15
f 88/160/15 90/149/6 85/151/8
f 83/161/13 87/162/11 90/149/6
f 84/163/16 88/164/15 89/152/9
f 88/164/15 85/165/17 89/152/9
f 84/166/16 86/167/14 88/168/15
f 85/165/17 82/153/10 89/152/9
f 87/162/11 82/150/7 90/149/6
f 86/159/14 83/161/13 90/149/6
f 81/158/12 84/163/16 89/152/9
f 86/167/14 84/166/16 81/169/12 83/170/13
f 95/171/14 97/172/16 100/173/12 98/174/13
f 100/175/12 97/176/16 92/177/9
f 95/178/14 98/179/13 91/180/6
f 94/181/11 99/182/7 91/180/6
f 96/183/17 99/184/10 92/177/9
f 97/172/16 95/171/14 93/185/15
f 93/186/15 96/183/17 92/177/9
f 97/176/16 93/186/15 92/177/9
f 98/179/13 94/181/11 91/180/6
f 93/187/15 91/180/6 96/188/8
f 95/178/14 91/180/6 93/187/15
f 100/175/12 92/177/9 94/189/11
f 100/190/12 94/191/11 98/192/13
f 92/177/9 99/184/10 94/189/11
f 91/180/6 99/182/7 96/188/8
f 110/193/18 102/194/7 105/195/8
f 109/196/9 102/197/10 107/198/11
f 101/199/12 107/200/11 103/201/13
f 101/202/12 109/196/9 107/198/11
f 106/203/14 110/193/18 108/204/15
f 108/204/15 110/193/18 105/195/8
f 103/205/13 107/206/11 110/193/18
f 104/207/16 108/208/15 109/196/9
f 108/208/15 105/209/17 109/196/9
f 104/210/16 106/211/14 108/212/15
f 105/209/17 102/197/10 109/196/9
f 107/206/11 102/194/7 110/193/18
f 106/203/14 103/205/13 110/193/18
f 101/202/12 104/207/16 109/196/9
f 106/211/14 104/210/16 101/199/12 103/213/13
f 111/214/19 112/215/19 114/216/3 113/217/3
f 113/217/3 114/216/3 118/218/23 117/219/23
f 117/220/23 118/221/23 116/222/1 115/223/1
f 115/223/1 116/222/1 112/224/22 111/225/22
f 119/226/19 120/227/19 122/228/3 121/229/3
f 121/229/3 122/228/3 126/230/23 125/231/23
f 125/232/23 126/233/23 124/234/1 123/235/1
f 123/235/1 124/234/1 120/236/22 119/237/22
f 127/238/19 128/239/19 130/240/3 129/241/3
f 129/241/3 130/240/3 134/242/23 133/243/23
f 133/244/23 134/245/23 132/246/1 131/247/1
f 131/247/1 132/246/1 128/248/22 127/249/22
