# Blender v2.93.5 OBJ File: 'Modular Graveyard.blend'
# www.blender.org
mtllib RustyLowRailingOpen1A.mtl
o RustyLowRailingOpen1A_Circle.061
v 1.000203 0.359053 0.018813
v 1.000203 0.386990 0.000142
v 1.000203 0.331116 0.000142
v 0.001897 0.359053 0.018813
v 0.001897 0.386990 0.000142
v 0.001897 0.331116 0.000142
v 0.219479 0.494248 0.030940
v 0.238377 0.800285 0.000107
v 0.219479 0.494248 -0.030726
v 0.283987 0.494248 0.030940
v 0.265089 0.800285 0.000107
v 0.283987 0.494248 -0.030726
v 0.177880 0.577323 0.000107
v 0.325586 0.577323 0.000107
v 0.251733 0.588476 0.052207
v 0.251733 0.588476 -0.051993
v 0.750520 0.588476 -0.051993
v 0.750520 0.588476 0.052207
v 0.824373 0.577323 0.000107
v 0.676667 0.577323 0.000107
v 0.782774 0.494248 -0.030726
v 0.763876 0.800285 0.000107
v 0.782774 0.494248 0.030940
v 0.718266 0.494248 -0.030726
v 0.737164 0.800285 0.000107
v 0.718266 0.494248 0.030940
v 0.467667 0.494248 0.030940
v 0.486565 0.800285 0.000107
v 0.467667 0.494248 -0.030726
v 0.532174 0.494248 0.030940
v 0.513276 0.800285 0.000107
v 0.532174 0.494248 -0.030726
v 0.426068 0.577323 0.000107
v 0.573773 0.577323 0.000107
v 0.499920 0.588476 0.052207
v 0.499920 0.588476 -0.051993
v 0.221216 -0.012187 0.000000
v 0.221216 0.501030 0.000000
v 0.251610 -0.012187 -0.030394
v 0.251610 0.501030 -0.030394
v 0.251610 -0.012187 0.030394
v 0.251610 0.501030 0.030394
v 0.282003 -0.012187 0.000000
v 0.282003 0.501030 0.000000
v 0.469596 -0.012187 0.000000
v 0.469596 0.501030 0.000000
v 0.499990 -0.012187 -0.030394
v 0.499990 0.501030 -0.030394
v 0.499990 -0.012187 0.030394
v 0.499990 0.501030 0.030394
v 0.530384 -0.012187 0.000000
v 0.530384 0.501030 0.000000
v 0.720086 -0.012187 0.000000
v 0.720086 0.501030 0.000000
v 0.750480 -0.012187 -0.030394
v 0.750480 0.501030 -0.030394
v 0.750480 -0.012187 0.030394
v 0.750480 0.501030 0.030394
v 0.780873 -0.012187 0.000000
v 0.780873 0.501030 0.000000
v 1.000203 0.359053 -0.018117
v 0.001897 0.359053 -0.018117
vt 0.820312 0.183594
vt 0.820312 0.089844
vt 0.828125 0.089844
vt 0.828125 0.183594
vt 0.773438 0.089844
vt 0.773438 0.183594
vt 0.750000 0.183594
vt 0.750000 0.089844
vt 0.796875 0.183594
vt 0.796875 0.089844
vt 0.859375 0.183594
vt 0.875000 0.148438
vt 0.890625 0.148438
vt 0.789062 0.074219
vt 0.804688 0.109375
vt 0.765625 0.074219
vt 0.804688 0.167969
vt 0.804688 0.183594
vt 0.781250 0.167969
vt 0.773438 0.058594
vt 0.867188 0.203125
vt 0.890625 0.187500
vt 0.843750 0.199219
vt 0.835938 0.183594
vt 0.796875 0.054688
vt 0.812500 0.074219
vt 0.812500 0.109375
vt 0.789062 0.199219
vt 0.765625 0.199219
vt 0.773438 0.183594
vt 0.789062 0.207031
vt 0.765625 0.207031
vt 0.789062 0.199219
vt 0.804688 0.199219
vt 0.804688 0.207031
vt 0.789062 0.207031
vt 0.890625 0.148438
vt 0.914062 0.148438
vt 0.914062 0.164062
vt 0.843750 0.093750
vt 0.867188 0.089844
vt 0.859375 0.113281
vt 0.890625 0.105469
vt 0.890625 0.144531
vt 0.937500 0.199219
vt 0.929688 0.199219
vt 0.796875 0.183594
vt 0.937500 0.164062
vt 0.835938 0.109375
vt 0.875000 0.144531
vt 0.890625 0.164062
vt 0.757812 0.179688
vt 0.773438 0.167969
vt 0.773438 0.183594
vt 0.914062 0.128906
vt 0.929688 0.089844
vt 0.937500 0.093750
vt 0.789062 0.128906
vt 0.804688 0.164062
vt 0.765625 0.128906
vt 0.929688 0.203125
vt 0.929688 0.218750
vt 0.914062 0.203125
vt 0.773438 0.113281
vt 0.914062 0.144531
vt 0.937500 0.132812
vt 0.890625 0.144531
vt 0.890625 0.132812
vt 0.796875 0.113281
vt 0.812500 0.128906
vt 0.812500 0.164062
vt 0.914062 0.218750
vt 0.890625 0.218750
vt 0.898438 0.203125
vt 0.914062 0.222656
vt 0.890625 0.222656
vt 0.835938 0.148438
vt 0.835938 0.058594
vt 0.851562 0.054688
vt 0.851562 0.148438
vt 0.859375 0.058594
vt 0.859375 0.148438
vt 0.914062 0.148438
vt 0.914062 0.234375
vt 0.898438 0.230469
vt 0.898438 0.148438
vt 0.890625 0.234375
vt 0.890625 0.148438
vt 0.867188 0.148438
vt 0.867188 0.058594
vt 0.875000 0.054688
vt 0.875000 0.148438
vt 0.882812 0.058594
vt 0.882812 0.148438
vt 0.828125 0.183594
vt 0.828125 0.269531
vt 0.820312 0.265625
vt 0.820312 0.183594
vt 0.804688 0.269531
vt 0.804688 0.183594
vt 0.812500 0.148438
vt 0.812500 0.058594
vt 0.828125 0.054688
vt 0.828125 0.148438
vt 0.835938 0.058594
vt 0.835938 0.148438
vt 0.914062 0.058594
vt 0.914062 0.144531
vt 0.898438 0.144531
vt 0.898438 0.054688
vt 0.890625 0.144531
vt 0.890625 0.058594
vt 0.789062 0.089844
vt 0.789062 0.183594
vn 0.0000 -0.0000 1.0000
vn 0.0000 -0.5557 0.8314
vn -0.0000 -0.0000 -1.0000
vn -0.0000 0.5471 -0.8371
vn 0.0000 0.5557 0.8314
vn 0.0000 0.0806 -0.9967
vn -0.1277 0.2293 -0.9649
vn 0.1277 0.2293 -0.9649
vn 0.0000 0.0806 0.9967
vn -0.1277 0.2293 0.9649
vn -0.9992 0.0407 0.0000
vn -0.4717 -0.6779 0.5638
vn -0.4717 -0.6779 -0.5638
vn 0.4717 -0.6779 -0.5638
vn 0.9992 0.0407 0.0000
vn 0.4717 -0.6779 0.5638
vn 0.1277 0.2293 0.9649
vn -0.0000 0.0806 -0.9968
vn -0.7071 0.0000 -0.7071
vn 0.7071 0.0000 -0.7071
vn 0.7071 0.0000 0.7071
vn -0.7071 0.0000 0.7071
vn 1.0000 0.0000 0.0000
vn -0.0000 -0.5471 -0.8371
usemtl Material.001
s 1
f 1/1/1 4/2/1 6/3/2 3/4/2
f 61/5/3 62/6/3 5/7/4 2/8/4
f 2/9/5 5/10/5 4/2/1 1/1/1
f 16/11/6 8/12/7 11/13/8
f 15/14/9 8/15/10 13/16/11
f 7/17/12 13/18/11 9/19/13
f 7/20/12 15/14/9 13/16/11
f 12/21/14 16/11/6 14/22/15
f 14/22/15 16/11/6 11/13/8
f 9/23/13 13/24/11 16/11/6
f 10/25/16 14/26/15 15/14/9
f 14/26/15 11/27/17 15/14/9
f 10/28/16 12/29/14 14/30/15
f 11/27/17 8/15/10 15/14/9
f 13/24/11 8/12/7 16/11/6
f 12/21/14 9/23/13 16/11/6
f 7/20/12 10/25/16 15/14/9
f 12/29/14 10/28/16 7/31/12 9/32/13
f 21/33/14 23/34/16 26/35/12 24/36/13
f 26/37/12 23/38/16 18/39/9
f 21/40/14 24/41/13 17/42/6
f 20/43/11 25/44/7 17/42/6
f 22/45/17 25/46/10 18/39/9
f 23/34/16 21/33/14 19/47/15
f 19/48/15 22/45/17 18/39/9
f 23/38/16 19/48/15 18/39/9
f 24/41/13 20/43/11 17/42/6
f 19/49/15 17/42/6 22/50/8
f 21/40/14 17/42/6 19/49/15
f 26/37/12 18/39/9 20/51/11
f 26/52/12 20/53/11 24/54/13
f 18/39/9 25/46/10 20/51/11
f 17/42/6 25/44/7 22/50/8
f 36/55/18 28/56/7 31/57/8
f 35/58/9 28/59/10 33/60/11
f 27/61/12 33/62/11 29/63/13
f 27/64/12 35/58/9 33/60/11
f 32/65/14 36/55/18 34/66/15
f 34/66/15 36/55/18 31/57/8
f 29/67/13 33/68/11 36/55/18
f 30/69/16 34/70/15 35/58/9
f 34/70/15 31/71/17 35/58/9
f 30/72/16 32/73/14 34/74/15
f 31/71/17 28/59/10 35/58/9
f 33/68/11 28/56/7 36/55/18
f 32/65/14 29/67/13 36/55/18
f 27/64/12 30/69/16 35/58/9
f 32/73/14 30/72/16 27/75/12 29/76/13
f 37/77/19 38/78/19 40/79/3 39/80/3
f 39/80/3 40/79/3 44/81/20 43/82/20
f 43/83/21 44/84/21 42/85/1 41/86/1
f 41/86/1 42/85/1 38/87/22 37/88/22
f 45/89/19 46/90/19 48/91/3 47/92/3
f 47/92/3 48/91/3 52/93/23 51/94/23
f 51/95/23 52/96/23 50/97/1 49/98/1
f 49/98/1 50/97/1 46/99/22 45/100/22
f 53/101/19 54/102/19 56/103/3 55/104/3
f 55/104/3 56/103/3 60/105/23 59/106/23
f 59/107/23 60/108/23 58/109/1 57/110/1
f 57/110/1 58/109/1 54/111/22 53/112/22
f 3/113/24 6/114/24 62/6/3 61/5/3
