# Blender v2.93.5 OBJ File: 'Modular Graveyard.blend'
# www.blender.org
mtllib StairsWall.mtl
o StairsWall_Cube.043
v -0.124286 1.000000 0.140403
v -0.124286 1.860765 0.140403
v 0.124286 1.000000 0.140403
v 0.124286 1.860765 0.140403
v -0.124284 0.000000 1.859597
v -0.124284 0.860765 1.859597
v 0.124287 0.000000 1.859597
v 0.124287 0.860765 1.859597
v 0.000000 2.001591 0.140403
v 0.000001 1.001591 1.859597
v 0.142804 1.858354 0.140403
v 0.142805 0.858354 1.859597
v -0.142803 0.858354 1.859597
v -0.142804 1.858354 0.140403
v 0.148945 1.988340 0.140403
v 0.148946 0.988340 1.859597
v -0.148943 0.988340 1.859597
v -0.148944 1.988340 0.140403
v -0.124286 0.000000 0.140403
v 0.124286 0.000000 0.140403
vt 0.718750 0.460938
vt 0.718750 0.566406
vt 0.078125 0.566406
vt 0.078125 0.460938
vt 0.718750 0.460938
vt 0.718750 0.566406
vt 0.078125 0.566406
vt 0.078125 0.460938
vt 0.718750 0.429688
vt 0.015625 0.429688
vt 0.015625 0.453125
vt 0.718750 0.453125
vt 0.015625 0.429688
vt 0.718750 0.429688
vt 0.718750 0.453125
vt 0.015625 0.453125
vt 0.718750 0.433594
vt 0.015625 0.433594
vt 0.015625 0.441406
vt 0.718750 0.441406
vt 0.015625 0.441406
vt 0.718750 0.441406
vt 0.718750 0.433594
vt 0.015625 0.433594
vt 0.718750 0.460938
vt 0.718750 0.562500
vt 0.078125 0.562500
vt 0.718750 0.562500
vt 0.078125 0.562500
vt 0.078125 0.460938
vt 0.015625 0.421875
vt 0.718750 0.421875
vt 0.718750 0.449219
vt 0.015625 0.449219
vt 0.015625 0.398438
vt 0.718750 0.398438
vn 1.0000 0.0000 -0.0000
vn -1.0000 0.0000 0.0000
vn -0.9985 -0.0472 -0.0274
vn 0.9985 -0.0472 -0.0274
vn 0.1118 -0.8590 -0.4996
vn -0.1118 -0.8590 -0.4996
vn 0.0000 0.8644 0.5028
vn -0.6005 0.6912 0.4020
vn -0.8436 0.4642 0.2700
vn 0.8436 0.4642 0.2700
vn 0.6005 0.6912 0.4020
usemtl Material.001
s off
f 3/1/1 4/2/1 8/3/1 7/4/1
f 5/5/2 6/6/2 2/7/2 1/8/2
f 14/9/3 13/10/3 17/11/3 18/12/3
f 12/13/4 11/14/4 15/15/4 16/16/4
f 2/17/5 6/18/5 13/19/5 14/20/5
f 8/21/6 4/22/6 11/23/6 12/24/6
f 20/25/1 3/26/1 7/27/1
f 5/28/2 1/29/2 19/30/2
s 1
f 10/31/7 9/32/7 18/33/8 17/34/9
f 9/32/7 10/31/7 16/35/10 15/36/11
