# Blender v2.93.5 OBJ File: 'Modular Graveyard.blend'
# www.blender.org
mtllib CircularLowRailing.mtl
o CircularLowRailing_Circle.001
v -0.629854 0.182211 -0.181015
v -0.619227 0.210148 -0.194977
v -0.619227 0.154274 -0.194977
v -1.018740 0.182211 -0.851734
v -0.999605 0.210148 -0.851916
v -0.999605 0.154274 -0.851916
v -0.629848 0.859053 -0.180998
v -0.619230 0.886990 -0.194985
v -0.619230 0.831116 -0.194985
v -1.018735 0.859053 -0.851720
v -0.999601 0.886990 -0.851903
v -0.999601 0.831116 -0.851903
v -1.007629 0.994248 -0.757418
v -0.973026 1.300285 -0.746910
v -0.947958 0.994248 -0.772975
v -0.991355 0.994248 -0.694997
v -0.966287 1.300285 -0.721062
v -0.931684 0.994248 -0.710554
v -0.988288 1.077323 -0.805450
v -0.951025 1.077323 -0.662522
v -1.020071 1.088476 -0.720842
v -0.919242 1.088476 -0.747130
v -0.674987 1.088476 -0.322393
v -0.748776 1.088476 -0.248820
v -0.659736 1.077323 -0.233308
v -0.764027 1.077323 -0.337905
v -0.667274 0.994248 -0.284536
v -0.702451 1.300285 -0.276149
v -0.710942 0.994248 -0.240996
v -0.712821 0.994248 -0.330217
v -0.721312 1.300285 -0.295065
v -0.756489 0.994248 -0.286677
v -0.914248 0.994248 -0.505815
v -0.878094 1.300285 -0.504982
v -0.860945 0.994248 -0.536821
v -0.881813 0.994248 -0.450054
v -0.864663 1.300285 -0.481893
v -0.828510 0.994248 -0.481061
v -0.908513 1.077323 -0.557276
v -0.834245 1.077323 -0.429600
v -0.916414 1.088476 -0.467241
v -0.826344 1.088476 -0.519634
v -0.977252 -0.002187 -0.763543
v -0.977252 1.001030 -0.763543
v -0.940174 -0.002187 -0.741800
v -0.940174 1.001030 -0.741800
v -0.998995 -0.002187 -0.726464
v -0.998995 1.001030 -0.726464
v -0.961916 -0.002187 -0.704722
v -0.961916 1.001030 -0.704722
v -0.886534 -0.002187 -0.519703
v -0.886534 1.001030 -0.519703
v -0.844979 -0.002187 -0.508714
v -0.844979 1.001030 -0.508714
v -0.897524 -0.002187 -0.478149
v -0.897524 1.001030 -0.478149
v -0.855969 -0.002187 -0.467159
v -0.855969 1.001030 -0.467159
v -0.733295 -0.002187 -0.307234
v -0.733295 1.001030 -0.307234
v -0.690312 -0.002187 -0.307171
v -0.690312 1.001030 -0.307171
v -0.733358 -0.002187 -0.264251
v -0.733358 1.001030 -0.264251
v -0.690375 -0.002187 -0.264188
v -0.690375 1.001030 -0.264188
v -0.608843 0.859053 -0.208771
v -0.980606 0.859053 -0.851366
v -0.608870 0.182211 -0.208850
v -0.980618 0.182211 -0.851403
v -0.805482 0.831116 -0.380011
v -0.820994 0.859053 -0.367520
v -0.805482 0.886990 -0.380011
v -0.790122 0.859053 -0.391653
v -0.805471 0.154274 -0.379978
v -0.821018 0.182211 -0.367594
v -0.805471 0.210148 -0.379978
v -0.790215 0.182211 -0.391930
v -0.937036 0.831116 -0.606172
v -0.937036 0.886990 -0.606172
v -0.953864 0.859053 -0.598961
v -0.919286 0.859053 -0.612698
v -0.937085 0.154274 -0.606331
v -0.937085 0.210148 -0.606331
v -0.953935 0.182211 -0.599182
v -0.919396 0.182211 -0.613037
v -0.391777 0.831116 -0.065141
v -0.398956 0.859053 -0.046565
v -0.391777 0.886990 -0.065141
v -0.384305 0.859053 -0.082907
v -0.391751 0.154274 -0.065118
v -0.399014 0.182211 -0.046616
v -0.391751 0.210148 -0.065118
v -0.384524 0.182211 -0.083101
v -0.147380 0.831116 -0.000884
v -0.147256 0.859053 0.019516
v -0.147380 0.886990 -0.000884
v -0.146916 0.859053 -0.020545
v -0.147349 0.154274 -0.000868
v -0.147326 0.182211 0.019481
v -0.147349 0.210148 -0.000868
v -0.147176 0.182211 -0.020679
v -0.478782 1.088476 -0.175473
v -0.530236 1.088476 -0.084863
v -0.440288 1.077323 -0.093699
v -0.568729 1.077323 -0.166637
v -0.461236 0.994248 -0.141052
v -0.492895 1.300285 -0.123573
v -0.491687 0.994248 -0.087430
v -0.517331 0.994248 -0.172907
v -0.516123 1.300285 -0.136763
v -0.547781 0.994248 -0.119284
v -0.530921 -0.002187 -0.145290
v -0.530921 1.001030 -0.145290
v -0.489483 -0.002187 -0.156711
v -0.489483 1.001030 -0.156711
v -0.519500 -0.002187 -0.103851
v -0.519500 1.001030 -0.103851
v -0.478062 -0.002187 -0.115272
v -0.478062 1.001030 -0.115272
v -0.255607 1.088476 -0.083554
v -0.281803 1.088476 0.017299
v -0.197224 1.077323 -0.014561
v -0.340186 1.077323 -0.051695
v -0.229735 0.994248 -0.054861
v -0.255778 1.300285 -0.029770
v -0.245238 0.994248 0.004824
v -0.292172 0.994248 -0.071079
v -0.281632 1.300285 -0.036485
v -0.307674 0.994248 -0.011394
v -0.298135 -0.002187 -0.040882
v -0.298135 1.001030 -0.040882
v -0.261076 -0.002187 -0.062659
v -0.261076 1.001030 -0.062659
v -0.276358 -0.002187 -0.003824
v -0.276358 1.001030 -0.003824
v -0.239300 -0.002187 -0.025600
v -0.239300 1.001030 -0.025600
v -0.015211 0.831116 -0.000937
v -0.015482 0.859053 0.019380
v -0.015211 0.886990 -0.000937
v -0.015068 0.859053 -0.020652
v -0.015178 0.154274 -0.000930
v -0.015557 0.182211 0.019361
v -0.015178 0.210148 -0.000930
v -0.015351 0.182211 -0.020717
v -0.980638 0.182211 -0.981597
v -0.999639 0.210148 -0.981850
v -1.018806 0.182211 -0.982094
v -0.999639 0.154274 -0.981850
v -0.980663 0.859053 -0.981573
v -0.999630 0.886990 -0.981835
v -1.018811 0.859053 -0.982084
v -0.999630 0.831116 -0.981835
vt 0.843750 0.429688
vt 0.843750 0.488281
vt 0.828125 0.488281
vt 0.828125 0.445312
vt 0.828125 0.390625
vt 0.828125 0.339844
vt 0.843750 0.332031
vt 0.843750 0.378906
vt 0.843750 0.445312
vt 0.843750 0.488281
vt 0.828125 0.488281
vt 0.828125 0.429688
vt 0.843750 0.429688
vt 0.843750 0.488281
vt 0.828125 0.488281
vt 0.828125 0.429688
vt 0.843750 0.429688
vt 0.843750 0.488281
vt 0.828125 0.488281
vt 0.828125 0.429688
vt 0.843750 0.429688
vt 0.843750 0.488281
vt 0.828125 0.488281
vt 0.828125 0.429688
vt 0.867188 0.484375
vt 0.867188 0.503906
vt 0.867188 0.503906
vt 0.867188 0.484375
vt 0.851562 0.484375
vt 0.882812 0.402344
vt 0.859375 0.421875
vt 0.859375 0.402344
vt 0.859375 0.472656
vt 0.882812 0.472656
vt 0.890625 0.484375
vt 0.859375 0.472656
vt 0.882812 0.472656
vt 0.859375 0.402344
vt 0.882812 0.402344
vt 0.859375 0.421875
vt 0.843750 0.503906
vt 0.828125 0.503906
vt 0.828125 0.492188
vt 0.843750 0.492188
vt 0.843750 0.503906
vt 0.828125 0.503906
vt 0.828125 0.492188
vt 0.843750 0.492188
vt 0.859375 0.472656
vt 0.882812 0.472656
vt 0.867188 0.484375
vt 0.882812 0.472656
vt 0.859375 0.472656
vt 0.867188 0.484375
vt 0.851562 0.484375
vt 0.867188 0.503906
vt 0.867188 0.503906
vt 0.859375 0.402344
vt 0.882812 0.402344
vt 0.859375 0.421875
vt 0.890625 0.484375
vt 0.882812 0.402344
vt 0.859375 0.421875
vt 0.859375 0.402344
vt 0.867188 0.484375
vt 0.867188 0.503906
vt 0.867188 0.503906
vt 0.867188 0.484375
vt 0.851562 0.484375
vt 0.882812 0.402344
vt 0.859375 0.421875
vt 0.859375 0.402344
vt 0.859375 0.472656
vt 0.882812 0.472656
vt 0.890625 0.484375
vt 0.859375 0.472656
vt 0.882812 0.472656
vt 0.859375 0.402344
vt 0.882812 0.402344
vt 0.859375 0.421875
vt 0.843750 0.503906
vt 0.828125 0.503906
vt 0.828125 0.492188
vt 0.843750 0.492188
vt 0.843750 0.328125
vt 0.843750 0.492188
vt 0.828125 0.492188
vt 0.828125 0.328125
vt 0.843750 0.328125
vt 0.843750 0.492188
vt 0.828125 0.492188
vt 0.828125 0.328125
vt 0.843750 0.328125
vt 0.843750 0.492188
vt 0.828125 0.492188
vt 0.828125 0.328125
vt 0.843750 0.328125
vt 0.843750 0.492188
vt 0.828125 0.492188
vt 0.828125 0.328125
vt 0.843750 0.328125
vt 0.843750 0.492188
vt 0.828125 0.492188
vt 0.828125 0.328125
vt 0.843750 0.328125
vt 0.843750 0.492188
vt 0.828125 0.492188
vt 0.828125 0.328125
vt 0.843750 0.328125
vt 0.843750 0.492188
vt 0.828125 0.492188
vt 0.828125 0.328125
vt 0.843750 0.328125
vt 0.843750 0.492188
vt 0.828125 0.492188
vt 0.828125 0.328125
vt 0.843750 0.328125
vt 0.843750 0.492188
vt 0.828125 0.492188
vt 0.828125 0.328125
vt 0.843750 0.328125
vt 0.843750 0.492188
vt 0.828125 0.492188
vt 0.828125 0.328125
vt 0.843750 0.328125
vt 0.843750 0.492188
vt 0.828125 0.492188
vt 0.828125 0.328125
vt 0.843750 0.328125
vt 0.843750 0.492188
vt 0.828125 0.492188
vt 0.828125 0.328125
vt 0.843750 0.429688
vt 0.843750 0.488281
vt 0.828125 0.488281
vt 0.828125 0.429688
vt 0.828125 0.378906
vt 0.828125 0.332031
vt 0.843750 0.339844
vt 0.843750 0.390625
vt 0.843750 0.343750
vt 0.843750 0.386719
vt 0.828125 0.386719
vt 0.828125 0.347656
vt 0.843750 0.343750
vt 0.843750 0.386719
vt 0.828125 0.386719
vt 0.828125 0.343750
vt 0.843750 0.347656
vt 0.843750 0.386719
vt 0.828125 0.386719
vt 0.828125 0.343750
vt 0.843750 0.343750
vt 0.843750 0.386719
vt 0.828125 0.386719
vt 0.828125 0.343750
vt 0.828125 0.472656
vt 0.828125 0.410156
vt 0.843750 0.433594
vt 0.843750 0.476562
vt 0.843750 0.351562
vt 0.843750 0.410156
vt 0.828125 0.386719
vt 0.828125 0.343750
vt 0.828125 0.476562
vt 0.828125 0.433594
vt 0.843750 0.472656
vt 0.843750 0.343750
vt 0.843750 0.386719
vt 0.828125 0.351562
vt 0.843750 0.386719
vt 0.843750 0.429688
vt 0.828125 0.429688
vt 0.828125 0.386719
vt 0.843750 0.386719
vt 0.843750 0.429688
vt 0.828125 0.429688
vt 0.828125 0.386719
vt 0.843750 0.386719
vt 0.843750 0.429688
vt 0.828125 0.429688
vt 0.828125 0.386719
vt 0.843750 0.386719
vt 0.843750 0.429688
vt 0.828125 0.429688
vt 0.828125 0.386719
vt 0.828125 0.410156
vt 0.828125 0.378906
vt 0.843750 0.390625
vt 0.843750 0.433594
vt 0.843750 0.410156
vt 0.843750 0.445312
vt 0.828125 0.429688
vt 0.828125 0.386719
vt 0.828125 0.433594
vt 0.828125 0.390625
vt 0.843750 0.378906
vt 0.843750 0.386719
vt 0.843750 0.429688
vt 0.828125 0.445312
vt 0.843750 0.390625
vt 0.843750 0.429688
vt 0.828125 0.429688
vt 0.828125 0.390625
vt 0.843750 0.390625
vt 0.843750 0.429688
vt 0.828125 0.429688
vt 0.828125 0.386719
vt 0.843750 0.390625
vt 0.843750 0.429688
vt 0.828125 0.429688
vt 0.828125 0.390625
vt 0.843750 0.386719
vt 0.843750 0.429688
vt 0.828125 0.429688
vt 0.828125 0.390625
vt 0.828125 0.410156
vt 0.828125 0.378906
vt 0.843750 0.390625
vt 0.843750 0.429688
vt 0.843750 0.410156
vt 0.843750 0.445312
vt 0.828125 0.429688
vt 0.828125 0.386719
vt 0.828125 0.429688
vt 0.828125 0.390625
vt 0.843750 0.378906
vt 0.843750 0.386719
vt 0.843750 0.429688
vt 0.828125 0.445312
vt 0.843750 0.503906
vt 0.828125 0.503906
vt 0.828125 0.492188
vt 0.843750 0.492188
vt 0.859375 0.472656
vt 0.882812 0.472656
vt 0.867188 0.484375
vt 0.882812 0.472656
vt 0.859375 0.472656
vt 0.867188 0.484375
vt 0.851562 0.484375
vt 0.867188 0.503906
vt 0.867188 0.503906
vt 0.859375 0.402344
vt 0.882812 0.402344
vt 0.859375 0.421875
vt 0.890625 0.484375
vt 0.882812 0.402344
vt 0.859375 0.421875
vt 0.859375 0.402344
vt 0.843750 0.328125
vt 0.843750 0.492188
vt 0.828125 0.492188
vt 0.828125 0.328125
vt 0.843750 0.328125
vt 0.843750 0.492188
vt 0.828125 0.492188
vt 0.828125 0.328125
vt 0.843750 0.328125
vt 0.843750 0.492188
vt 0.828125 0.492188
vt 0.828125 0.328125
vt 0.843750 0.328125
vt 0.843750 0.492188
vt 0.828125 0.492188
vt 0.828125 0.328125
vt 0.843750 0.503906
vt 0.828125 0.503906
vt 0.828125 0.492188
vt 0.843750 0.492188
vt 0.859375 0.472656
vt 0.882812 0.472656
vt 0.867188 0.484375
vt 0.882812 0.472656
vt 0.859375 0.472656
vt 0.867188 0.484375
vt 0.851562 0.484375
vt 0.867188 0.503906
vt 0.867188 0.503906
vt 0.859375 0.402344
vt 0.882812 0.402344
vt 0.859375 0.421875
vt 0.890625 0.484375
vt 0.882812 0.402344
vt 0.859375 0.421875
vt 0.859375 0.402344
vt 0.843750 0.328125
vt 0.843750 0.492188
vt 0.828125 0.492188
vt 0.828125 0.328125
vt 0.843750 0.328125
vt 0.843750 0.492188
vt 0.828125 0.492188
vt 0.828125 0.328125
vt 0.843750 0.328125
vt 0.843750 0.492188
vt 0.828125 0.492188
vt 0.828125 0.328125
vt 0.843750 0.328125
vt 0.843750 0.492188
vt 0.828125 0.492188
vt 0.828125 0.328125
vt 0.843750 0.390625
vt 0.843750 0.429688
vt 0.828125 0.445312
vt 0.828125 0.410156
vt 0.843750 0.390625
vt 0.843750 0.429688
vt 0.828125 0.429688
vt 0.828125 0.390625
vt 0.828125 0.429688
vt 0.828125 0.390625
vt 0.843750 0.378906
vt 0.843750 0.410156
vt 0.828125 0.378906
vt 0.843750 0.390625
vt 0.843750 0.429688
vt 0.843750 0.390625
vt 0.843750 0.429688
vt 0.828125 0.429688
vt 0.828125 0.390625
vt 0.843750 0.390625
vt 0.843750 0.429688
vt 0.828125 0.429688
vt 0.828125 0.390625
vt 0.843750 0.390625
vt 0.843750 0.429688
vt 0.828125 0.429688
vt 0.828125 0.390625
vt 0.843750 0.445312
vt 0.828125 0.429688
vt 0.828125 0.390625
vt 0.843750 0.386719
vt 0.843750 0.410156
vt 0.828125 0.429688
vt 0.828125 0.410156
vt 0.843750 0.390625
vt 0.843750 0.410156
vt 0.828125 0.410156
vt 0.828125 0.386719
vt 0.828125 0.429688
vt 0.828125 0.410156
vt 0.843750 0.394531
vt 0.843750 0.410156
vt 0.828125 0.394531
vt 0.843750 0.410156
vt 0.843750 0.429688
vt 0.843750 0.386719
vt 0.843750 0.410156
vt 0.828125 0.410156
vt 0.828125 0.390625
vt 0.843750 0.390625
vt 0.843750 0.410156
vt 0.828125 0.410156
vt 0.828125 0.390625
vt 0.843750 0.390625
vt 0.843750 0.410156
vt 0.828125 0.410156
vt 0.828125 0.390625
vt 0.843750 0.429688
vt 0.828125 0.410156
vt 0.828125 0.386719
vn -0.9260 -0.0000 0.3775
vn -0.9927 -0.0000 0.1204
vn -0.8215 -0.5598 0.1083
vn -0.7687 -0.5583 0.3122
vn 0.9250 -0.0000 -0.3801
vn 0.9913 -0.0000 -0.1319
vn 0.8221 0.5608 -0.0980
vn 0.7668 0.5606 -0.3127
vn -0.7687 0.5583 0.3122
vn -0.8215 0.5598 0.1083
vn -0.9259 -0.0000 0.3778
vn -0.8215 -0.5598 0.1084
vn -0.7686 -0.5584 0.3121
vn 0.9247 0.0000 -0.3806
vn 0.9912 -0.0000 -0.1320
vn 0.8222 0.5608 -0.0980
vn 0.7672 0.5601 -0.3125
vn -0.7686 0.5584 0.3121
vn -0.8215 0.5598 0.1084
vn 0.9645 0.0806 -0.2515
vn 0.9015 0.2293 -0.3670
vn 0.9659 0.2293 -0.1199
vn -0.9645 0.0806 0.2515
vn -0.9659 0.2293 0.1199
vn -0.2521 0.0407 -0.9669
vn -0.6646 -0.6779 -0.3142
vn 0.4266 -0.6779 -0.5987
vn 0.6646 -0.6779 0.3142
vn 0.2521 0.0407 0.9669
vn -0.4266 -0.6779 0.5987
vn -0.9015 0.2293 0.3670
vn 0.7323 -0.6779 -0.0641
vn -0.0663 -0.6779 0.7321
vn -0.7323 -0.6779 0.0641
vn 0.0663 -0.6779 -0.7321
vn -0.7058 0.0806 0.7038
vn 0.7058 0.0806 -0.7038
vn -0.7055 0.0407 -0.7076
vn 0.5932 0.2293 -0.7717
vn -0.5932 0.2293 0.7717
vn -0.7735 0.2293 0.5909
vn 0.7055 0.0407 0.7076
vn 0.7735 0.2293 -0.5909
vn 0.8616 0.0806 -0.5012
vn 0.7699 0.2293 -0.5955
vn 0.8983 0.2293 -0.3748
vn -0.8616 0.0806 0.5012
vn -0.8983 0.2293 0.3748
vn -0.5024 0.0407 -0.8637
vn -0.7245 -0.6779 -0.1242
vn 0.2502 -0.6779 -0.6912
vn 0.7245 -0.6779 0.1242
vn 0.5024 0.0407 0.8637
vn -0.2502 -0.6779 0.6912
vn -0.7699 0.2293 0.5955
vn -0.2523 0.0000 -0.9677
vn 0.5058 0.0000 -0.8626
vn 0.8626 0.0000 0.5058
vn -0.5058 0.0000 0.8626
vn -0.8626 0.0000 -0.5058
vn 0.2557 0.0000 -0.9668
vn 0.9668 0.0000 0.2557
vn 0.5028 0.0000 0.8644
vn -0.2557 0.0000 0.9668
vn -0.9668 0.0000 -0.2557
vn 0.0015 0.0000 -1.0000
vn 1.0000 0.0000 0.0015
vn 0.7061 0.0000 0.7081
vn -0.0015 0.0000 1.0000
vn -1.0000 0.0000 -0.0015
vn 0.7672 -0.5601 -0.3125
vn 0.8222 -0.5608 -0.0980
vn 0.7668 -0.5606 -0.3127
vn 0.8221 -0.5608 -0.0980
vn 0.5066 -0.5475 -0.6661
vn 0.6588 -0.5550 -0.5079
vn 0.7915 -0.0000 -0.6111
vn 0.6057 0.0000 -0.7957
vn -0.5029 0.5568 0.6611
vn -0.6549 0.5611 0.5062
vn -0.7900 -0.0000 0.6131
vn -0.6054 -0.0000 0.7960
vn 0.6588 0.5550 -0.5079
vn 0.5066 0.5475 -0.6661
vn -0.6549 -0.5611 0.5062
vn -0.5029 -0.5568 0.6611
vn 0.5058 -0.5492 -0.6653
vn 0.6577 -0.5564 -0.5077
vn 0.7921 -0.0000 -0.6104
vn 0.6059 -0.0000 -0.7956
vn -0.5031 0.5563 0.6614
vn -0.6551 0.5606 0.5065
vn -0.7902 -0.0000 0.6128
vn -0.6054 -0.0000 0.7959
vn 0.6577 0.5564 -0.5077
vn 0.5058 0.5492 -0.6653
vn -0.6551 -0.5606 0.5065
vn -0.5031 -0.5563 0.6614
vn 0.3136 -0.5576 -0.7685
vn 0.3768 0.0000 -0.9263
vn -0.3144 0.5686 0.7602
vn -0.3803 -0.0000 0.9249
vn 0.3136 0.5576 -0.7685
vn -0.3144 -0.5686 0.7602
vn 0.3127 -0.5595 -0.7676
vn 0.3776 -0.0000 -0.9260
vn -0.3144 0.5680 0.7606
vn -0.3805 -0.0000 0.9248
vn 0.3127 0.5595 -0.7676
vn -0.3144 -0.5680 0.7606
vn 0.1010 -0.5737 -0.8128
vn 0.1331 0.0000 -0.9911
vn -0.1090 0.5860 0.8030
vn -0.1217 0.0000 0.9926
vn 0.1010 0.5737 -0.8128
vn -0.1090 -0.5860 0.8030
vn 0.1004 -0.5759 -0.8113
vn 0.1340 0.0000 -0.9910
vn -0.1089 0.5853 0.8035
vn -0.1220 -0.0000 0.9925
vn 0.1004 0.5759 -0.8113
vn -0.1089 -0.5853 0.8035
vn 0.6886 -0.6779 -0.2574
vn 0.1317 -0.6779 0.7232
vn -0.6886 -0.6779 0.2574
vn -0.1317 -0.6779 -0.7232
vn -0.4922 0.0806 0.8667
vn 0.4922 0.0806 -0.8667
vn -0.8689 0.0407 -0.4934
vn 0.3655 0.2293 -0.9021
vn -0.3655 0.2293 0.9021
vn -0.5875 0.2293 0.7760
vn 0.8689 0.0407 0.4934
vn 0.5875 0.2293 -0.7760
vn -0.2657 0.0000 -0.9641
vn 0.4938 0.0000 -0.8696
vn 0.8696 0.0000 0.4938
vn -0.4938 0.0000 0.8696
vn -0.9641 0.0000 0.2657
vn 0.5983 -0.6779 -0.4272
vn 0.3148 -0.6779 0.6643
vn -0.5983 -0.6779 0.4272
vn -0.3148 -0.6779 -0.6643
vn -0.2506 0.0806 0.9647
vn 0.2506 0.0806 -0.9647
vn -0.9671 0.0407 -0.2512
vn 0.1190 0.2293 -0.9660
vn -0.1190 0.2293 0.9660
vn -0.3662 0.2293 0.9019
vn 0.9671 0.0407 0.2512
vn 0.3662 0.2293 -0.9019
vn -0.5066 0.0000 -0.8622
vn 0.2514 0.0000 -0.9679
vn 0.9679 0.0000 0.2514
vn 0.5066 0.0000 0.8622
vn -0.8622 0.0000 0.5066
vn 0.0007 -0.0000 1.0000
vn 0.0006 -0.5882 0.8087
vn 0.0006 0.5889 0.8082
vn -0.0004 0.0000 -1.0000
vn -0.0003 0.5782 -0.8159
vn -0.0003 -0.5782 -0.8159
vn 0.0006 -0.5889 0.8082
vn -0.0006 0.0000 -1.0000
vn -0.0005 0.5761 -0.8174
vn -0.0005 -0.5760 -0.8174
vn 0.0006 0.5882 0.8087
vn -1.0000 0.0000 0.0004
vn -0.8248 -0.5654 0.0003
vn -0.8247 0.5655 0.0003
vn 1.0000 0.0000 -0.0002
vn 0.8270 0.5622 -0.0002
vn 0.8270 -0.5622 -0.0002
vn -0.8247 -0.5655 0.0003
vn 1.0000 -0.0000 -0.0003
vn 0.8271 0.5620 -0.0003
vn 0.8271 -0.5620 -0.0003
vn -0.8248 0.5654 0.0003
usemtl Material.001
s 1
f 85/1/1 4/2/2 6/3/3 83/4/4
f 86/5/5 70/6/6 5/7/7 84/8/8
f 84/9/9 5/10/10 4/11/2 85/12/1
f 81/13/11 10/14/2 12/15/12 79/16/13
f 82/17/14 68/18/15 11/19/16 80/20/17
f 80/21/18 11/22/19 10/23/2 81/24/11
f 22/25/20 14/26/21 17/27/22
f 21/28/23 14/26/24 19/29/25
f 13/30/26 19/31/25 15/32/27
f 13/33/26 21/28/23 19/29/25
f 18/34/28 22/25/20 20/35/29
f 20/35/29 22/25/20 17/27/22
f 15/36/27 19/29/25 22/25/20
f 16/37/30 20/35/29 21/28/23
f 20/35/29 17/27/31 21/28/23
f 16/38/30 18/39/28 20/40/29
f 17/27/31 14/26/24 21/28/23
f 19/29/25 14/26/21 22/25/20
f 18/34/28 15/36/27 22/25/20
f 13/33/26 16/37/30 21/28/23
f 18/41/28 16/42/30 13/43/26 15/44/27
f 27/45/32 29/46/33 32/47/34 30/48/35
f 32/49/34 29/50/33 24/51/36
f 27/52/32 30/53/35 23/54/37
f 26/55/38 31/56/39 23/54/37
f 28/57/40 31/56/41 24/51/36
f 29/58/33 27/59/32 25/60/42
f 25/61/42 28/57/40 24/51/36
f 29/50/33 25/61/42 24/51/36
f 30/53/35 26/55/38 23/54/37
f 25/61/42 23/54/37 28/57/43
f 27/52/32 23/54/37 25/61/42
f 32/49/34 24/51/36 26/55/38
f 32/62/34 26/63/38 30/64/35
f 24/51/36 31/56/41 26/55/38
f 23/54/37 31/56/39 28/57/43
f 42/65/44 34/66/45 37/67/46
f 41/68/47 34/66/48 39/69/49
f 33/70/50 39/71/49 35/72/51
f 33/73/50 41/68/47 39/69/49
f 38/74/52 42/65/44 40/75/53
f 40/75/53 42/65/44 37/67/46
f 35/76/51 39/69/49 42/65/44
f 36/77/54 40/75/53 41/68/47
f 40/75/53 37/67/55 41/68/47
f 36/78/54 38/79/52 40/80/53
f 37/67/55 34/66/48 41/68/47
f 39/69/49 34/66/45 42/65/44
f 38/74/52 35/76/51 42/65/44
f 33/73/50 36/77/54 41/68/47
f 38/81/52 36/82/54 33/83/50 35/84/51
f 43/85/56 44/86/56 46/87/57 45/88/57
f 45/89/58 46/90/58 50/91/58 49/92/58
f 49/93/59 50/94/59 48/95/59 47/96/59
f 47/97/60 48/98/60 44/99/56 43/100/56
f 51/101/61 52/102/61 54/103/61 53/104/61
f 53/105/62 54/106/62 58/107/63 57/108/63
f 57/109/63 58/110/63 56/111/64 55/112/64
f 55/113/65 56/114/65 52/115/65 51/116/65
f 59/117/66 60/118/66 62/119/66 61/120/66
f 61/121/67 62/122/67 66/123/68 65/124/68
f 65/125/68 66/126/68 64/127/69 63/128/69
f 63/129/70 64/130/70 60/131/70 59/132/70
f 79/133/71 12/134/72 68/135/15 82/136/14
f 83/137/73 6/138/74 70/139/6 86/140/5
f 9/141/75 71/142/76 74/143/77 67/144/78
f 8/145/79 73/146/80 72/147/81 7/148/82
f 67/149/78 74/150/77 73/151/83 8/152/84
f 7/153/82 72/154/81 71/155/85 9/156/86
f 3/157/87 75/158/88 78/159/89 69/160/90
f 2/161/91 77/162/92 76/163/93 1/164/94
f 69/165/90 78/166/89 77/162/95 2/167/96
f 1/168/94 76/169/93 75/158/97 3/170/98
f 71/142/76 79/133/71 82/136/14 74/143/77
f 73/146/80 80/21/18 81/24/11 72/147/81
f 74/150/77 82/17/14 80/20/17 73/151/83
f 72/154/81 81/13/11 79/16/13 71/155/85
f 75/158/88 83/137/73 86/140/5 78/159/89
f 77/162/92 84/9/9 85/12/1 76/163/93
f 78/166/89 86/5/5 84/8/8 77/162/95
f 76/169/93 85/1/1 83/4/4 75/158/97
f 87/171/99 9/172/75 67/173/78 90/174/100
f 89/175/101 8/176/79 7/177/82 88/178/102
f 90/179/100 67/180/78 8/181/84 89/182/103
f 88/183/102 7/184/82 9/185/86 87/186/104
f 91/187/105 3/188/87 69/189/90 94/190/106
f 93/191/107 2/192/91 1/193/94 92/194/108
f 94/195/106 69/196/90 2/197/96 93/191/109
f 92/198/108 1/199/94 3/200/98 91/187/110
f 95/201/111 87/202/99 90/203/100 98/204/112
f 97/205/113 89/206/101 88/207/102 96/208/114
f 98/209/112 90/210/100 89/211/103 97/212/115
f 96/213/114 88/214/102 87/215/104 95/216/116
f 99/217/117 91/218/105 94/219/106 102/220/118
f 101/221/119 93/222/107 92/223/108 100/224/120
f 102/225/118 94/226/106 93/227/109 101/221/121
f 100/228/120 92/229/108 91/230/110 99/217/122
f 107/231/123 109/232/124 112/233/125 110/234/126
f 112/235/125 109/236/124 104/237/127
f 107/238/123 110/239/126 103/240/128
f 106/241/129 111/242/130 103/240/128
f 108/243/131 111/242/132 104/237/127
f 109/244/124 107/245/123 105/246/133
f 105/247/133 108/243/131 104/237/127
f 109/236/124 105/247/133 104/237/127
f 110/239/126 106/241/129 103/240/128
f 105/247/133 103/240/128 108/243/134
f 107/238/123 103/240/128 105/247/133
f 112/235/125 104/237/127 106/241/129
f 112/248/125 106/249/129 110/250/126
f 104/237/127 111/242/132 106/241/129
f 103/240/128 111/242/130 108/243/134
f 113/251/135 114/252/135 116/253/136 115/254/136
f 115/255/136 116/256/136 120/257/137 119/258/137
f 119/259/137 120/260/137 118/261/138 117/262/138
f 117/263/138 118/264/138 114/265/139 113/266/139
f 125/267/140 127/268/141 130/269/142 128/270/143
f 130/271/142 127/272/141 122/273/144
f 125/274/140 128/275/143 121/276/145
f 124/277/146 129/278/147 121/276/145
f 126/279/148 129/278/149 122/273/144
f 127/280/141 125/281/140 123/282/150
f 123/283/150 126/279/148 122/273/144
f 127/272/141 123/283/150 122/273/144
f 128/275/143 124/277/146 121/276/145
f 123/283/150 121/276/145 126/279/151
f 125/274/140 121/276/145 123/283/150
f 130/271/142 122/273/144 124/277/146
f 130/284/142 124/285/146 128/286/143
f 122/273/144 129/278/149 124/277/146
f 121/276/145 129/278/147 126/279/151
f 131/287/152 132/288/152 134/289/153 133/290/153
f 133/291/153 134/292/153 138/293/154 137/294/154
f 137/295/154 138/296/154 136/297/155 135/298/155
f 135/299/156 136/300/156 132/301/156 131/302/156
f 144/303/157 100/304/120 99/305/122 143/306/158
f 141/307/159 97/308/113 96/309/114 140/310/157
f 146/311/160 102/312/118 101/313/121 145/314/161
f 143/306/162 99/315/117 102/316/118 146/317/160
f 140/318/157 96/319/114 95/320/116 139/321/163
f 142/322/164 98/323/112 97/324/115 141/325/165
f 139/326/166 95/327/111 98/328/112 142/329/164
f 145/314/167 101/330/119 100/331/120 144/332/157
f 4/333/2 149/334/168 150/335/169 6/336/3
f 11/337/19 152/338/170 153/339/168 10/340/2
f 70/341/6 147/342/171 148/343/172 5/344/7
f 6/336/74 150/345/173 147/346/171 70/347/6
f 10/348/2 153/349/168 154/350/174 12/351/12
f 68/352/15 151/353/175 152/354/176 11/355/16
f 12/356/72 154/357/177 151/358/175 68/359/15
f 5/344/10 148/360/178 149/361/168 4/362/2
