# Blender v2.93.5 OBJ File: 'Modular Graveyard.blend'
# www.blender.org
mtllib CLowRailing.mtl
o CLowRailing_Circle.018
v -0.629854 0.182211 -0.181015
v -0.619227 0.210148 -0.194977
v -0.619227 0.154274 -0.194977
v -1.018740 0.182211 -0.851734
v -0.999605 0.210148 -0.851916
v -0.999605 0.154274 -0.851916
v -0.629848 0.859053 -0.180998
v -0.619230 0.886990 -0.194985
v -0.619230 0.831116 -0.194985
v -1.018735 0.859053 -0.851720
v -0.999601 0.886990 -0.851903
v -0.999601 0.831116 -0.851903
v -1.007629 0.994248 -0.757418
v -0.973026 1.300285 -0.746910
v -0.947958 0.994248 -0.772975
v -0.991355 0.994248 -0.694997
v -0.966287 1.300285 -0.721062
v -0.931684 0.994248 -0.710554
v -0.988288 1.077323 -0.805450
v -0.951025 1.077323 -0.662522
v -1.020071 1.088476 -0.720842
v -0.919242 1.088476 -0.747130
v -0.674987 1.088476 -0.322393
v -0.748776 1.088476 -0.248820
v -0.659736 1.077323 -0.233308
v -0.764027 1.077323 -0.337905
v -0.667274 0.994248 -0.284536
v -0.702451 1.300285 -0.276149
v -0.710942 0.994248 -0.240996
v -0.712821 0.994248 -0.330217
v -0.721312 1.300285 -0.295065
v -0.756489 0.994248 -0.286677
v -0.914248 0.994248 -0.505815
v -0.878094 1.300285 -0.504982
v -0.860945 0.994248 -0.536821
v -0.881813 0.994248 -0.450054
v -0.864663 1.300285 -0.481893
v -0.828510 0.994248 -0.481061
v -0.908513 1.077323 -0.557276
v -0.834245 1.077323 -0.429600
v -0.916414 1.088476 -0.467241
v -0.826344 1.088476 -0.519634
v -0.977252 -0.002187 -0.763543
v -0.977252 1.001030 -0.763543
v -0.940174 -0.002187 -0.741800
v -0.940174 1.001030 -0.741800
v -0.998995 -0.002187 -0.726464
v -0.998995 1.001030 -0.726464
v -0.961916 -0.002187 -0.704722
v -0.961916 1.001030 -0.704722
v -0.886534 -0.002187 -0.519703
v -0.886534 1.001030 -0.519703
v -0.844979 -0.002187 -0.508714
v -0.844979 1.001030 -0.508714
v -0.897524 -0.002187 -0.478149
v -0.897524 1.001030 -0.478149
v -0.855969 -0.002187 -0.467159
v -0.855969 1.001030 -0.467159
v -0.733295 -0.002187 -0.307234
v -0.733295 1.001030 -0.307234
v -0.690312 -0.002187 -0.307171
v -0.690312 1.001030 -0.307171
v -0.733358 -0.002187 -0.264251
v -0.733358 1.001030 -0.264251
v -0.690375 -0.002187 -0.264188
v -0.690375 1.001030 -0.264188
v -0.608843 0.859053 -0.208771
v -0.980606 0.859053 -0.851366
v -0.608870 0.182211 -0.208850
v -0.980618 0.182211 -0.851403
v -0.805482 0.831116 -0.380011
v -0.820994 0.859053 -0.367520
v -0.805482 0.886990 -0.380011
v -0.790122 0.859053 -0.391653
v -0.805471 0.154274 -0.379978
v -0.821018 0.182211 -0.367594
v -0.805471 0.210148 -0.379978
v -0.790215 0.182211 -0.391930
v -0.937036 0.831116 -0.606172
v -0.937036 0.886990 -0.606172
v -0.953864 0.859053 -0.598961
v -0.919286 0.859053 -0.612698
v -0.937085 0.154274 -0.606331
v -0.937085 0.210148 -0.606331
v -0.953935 0.182211 -0.599182
v -0.919396 0.182211 -0.613037
v -0.391777 0.831116 -0.065141
v -0.398956 0.859053 -0.046565
v -0.391777 0.886990 -0.065141
v -0.384305 0.859053 -0.082907
v -0.391751 0.154274 -0.065118
v -0.399014 0.182211 -0.046616
v -0.391751 0.210148 -0.065118
v -0.384524 0.182211 -0.083101
v -0.147380 0.831116 -0.000884
v -0.147256 0.859053 0.019516
v -0.147380 0.886990 -0.000884
v -0.146916 0.859053 -0.020545
v -0.147349 0.154274 -0.000868
v -0.147326 0.182211 0.019481
v -0.147349 0.210148 -0.000868
v -0.147176 0.182211 -0.020679
v -0.478782 1.088476 -0.175473
v -0.530236 1.088476 -0.084863
v -0.440288 1.077323 -0.093699
v -0.568729 1.077323 -0.166637
v -0.461236 0.994248 -0.141052
v -0.492895 1.300285 -0.123573
v -0.491687 0.994248 -0.087430
v -0.517331 0.994248 -0.172907
v -0.516123 1.300285 -0.136763
v -0.547781 0.994248 -0.119284
v -0.530921 -0.002187 -0.145290
v -0.530921 1.001030 -0.145290
v -0.489483 -0.002187 -0.156711
v -0.489483 1.001030 -0.156711
v -0.519500 -0.002187 -0.103851
v -0.519500 1.001030 -0.103851
v -0.478062 -0.002187 -0.115272
v -0.478062 1.001030 -0.115272
v -0.255607 1.088476 -0.083554
v -0.281803 1.088476 0.017299
v -0.197224 1.077323 -0.014561
v -0.340186 1.077323 -0.051695
v -0.229735 0.994248 -0.054861
v -0.255778 1.300285 -0.029770
v -0.245238 0.994248 0.004824
v -0.292172 0.994248 -0.071079
v -0.281632 1.300285 -0.036485
v -0.307674 0.994248 -0.011394
v -0.298135 -0.002187 -0.040882
v -0.298135 1.001030 -0.040882
v -0.261076 -0.002187 -0.062659
v -0.261076 1.001030 -0.062659
v -0.276358 -0.002187 -0.003824
v -0.276358 1.001030 -0.003824
v -0.239300 -0.002187 -0.025600
v -0.239300 1.001030 -0.025600
v 0.032381 0.994248 -0.032139
v -0.032130 0.994248 0.029523
v -0.013231 1.300285 -0.001309
v -0.032127 0.994248 -0.032143
v 0.073978 1.077323 -0.001305
v -0.073727 1.077323 -0.001312
v 0.000123 1.088476 0.050792
v 0.000128 1.088476 -0.053408
v -0.980638 0.182211 -0.981597
v -0.999639 0.210148 -0.981850
v -1.018806 0.182211 -0.982094
v -0.999639 0.154274 -0.981850
v -0.980663 0.859053 -0.981573
v -0.999630 0.886990 -0.981835
v -1.018811 0.859053 -0.982084
v -0.999630 0.831116 -0.981835
v 0.629854 0.182211 -0.181015
v 0.619227 0.210148 -0.194977
v 0.619227 0.154274 -0.194977
v 1.018740 0.182211 -0.851734
v 0.999605 0.210148 -0.851916
v 0.999605 0.154274 -0.851916
v 0.629848 0.859053 -0.180998
v 0.619230 0.886990 -0.194985
v 0.619230 0.831116 -0.194985
v 1.018735 0.859053 -0.851720
v 0.999601 0.886990 -0.851903
v 0.999601 0.831116 -0.851903
v 1.007629 0.994248 -0.757418
v 0.973026 1.300285 -0.746910
v 0.947958 0.994248 -0.772975
v 0.991355 0.994248 -0.694997
v 0.966287 1.300285 -0.721062
v 0.931684 0.994248 -0.710554
v 0.988288 1.077323 -0.805450
v 0.951025 1.077323 -0.662522
v 1.020071 1.088476 -0.720842
v 0.919242 1.088476 -0.747130
v 0.674987 1.088476 -0.322393
v 0.748776 1.088476 -0.248820
v 0.659736 1.077323 -0.233308
v 0.764027 1.077323 -0.337905
v 0.667274 0.994248 -0.284536
v 0.702451 1.300285 -0.276149
v 0.710942 0.994248 -0.240996
v 0.712821 0.994248 -0.330217
v 0.721312 1.300285 -0.295065
v 0.756489 0.994248 -0.286677
v 0.914248 0.994248 -0.505815
v 0.878094 1.300285 -0.504982
v 0.860945 0.994248 -0.536821
v 0.881813 0.994248 -0.450054
v 0.864663 1.300285 -0.481893
v 0.828510 0.994248 -0.481061
v 0.908513 1.077323 -0.557276
v 0.834245 1.077323 -0.429600
v 0.916414 1.088476 -0.467241
v 0.826344 1.088476 -0.519634
v 0.977252 -0.002187 -0.763543
v 0.977252 1.001030 -0.763543
v 0.940174 -0.002187 -0.741800
v 0.940174 1.001030 -0.741800
v 0.998995 -0.002187 -0.726464
v 0.998995 1.001030 -0.726464
v 0.961916 -0.002187 -0.704722
v 0.961916 1.001030 -0.704722
v 0.886534 -0.002187 -0.519703
v 0.886534 1.001030 -0.519703
v 0.844979 -0.002187 -0.508714
v 0.844979 1.001030 -0.508714
v 0.897524 -0.002187 -0.478149
v 0.897524 1.001030 -0.478149
v 0.855969 -0.002187 -0.467159
v 0.855969 1.001030 -0.467159
v 0.733295 -0.002187 -0.307234
v 0.733295 1.001030 -0.307234
v 0.690312 -0.002187 -0.307171
v 0.690312 1.001030 -0.307171
v 0.733358 -0.002187 -0.264251
v 0.733358 1.001030 -0.264251
v 0.690375 -0.002187 -0.264188
v 0.690375 1.001030 -0.264188
v 0.608843 0.859053 -0.208771
v 0.980606 0.859053 -0.851366
v 0.608870 0.182211 -0.208850
v 0.980618 0.182211 -0.851403
v 0.805482 0.831116 -0.380011
v 0.820994 0.859053 -0.367520
v 0.805482 0.886990 -0.380011
v 0.790122 0.859053 -0.391653
v 0.805471 0.154274 -0.379978
v 0.821018 0.182211 -0.367594
v 0.805471 0.210148 -0.379978
v 0.790215 0.182211 -0.391930
v 0.937036 0.831116 -0.606172
v 0.937036 0.886990 -0.606172
v 0.953864 0.859053 -0.598961
v 0.919286 0.859053 -0.612698
v 0.937085 0.154274 -0.606331
v 0.937085 0.210148 -0.606331
v 0.953935 0.182211 -0.599182
v 0.919396 0.182211 -0.613037
v 0.391777 0.831116 -0.065141
v 0.398956 0.859053 -0.046565
v 0.391777 0.886990 -0.065141
v 0.384305 0.859053 -0.082907
v 0.391751 0.154274 -0.065118
v 0.399014 0.182211 -0.046616
v 0.391751 0.210148 -0.065118
v 0.384524 0.182211 -0.083101
v 0.147380 0.831116 -0.000884
v 0.147256 0.859053 0.019516
v 0.147380 0.886990 -0.000884
v 0.146916 0.859053 -0.020545
v 0.147349 0.154274 -0.000868
v 0.147326 0.182211 0.019481
v 0.147349 0.210148 -0.000868
v 0.147176 0.182211 -0.020679
v 0.478782 1.088476 -0.175473
v 0.530236 1.088476 -0.084863
v 0.440288 1.077323 -0.093699
v 0.568729 1.077323 -0.166637
v 0.461236 0.994248 -0.141052
v 0.492895 1.300285 -0.123573
v 0.491687 0.994248 -0.087430
v 0.517331 0.994248 -0.172907
v 0.516123 1.300285 -0.136763
v 0.547781 0.994248 -0.119284
v 0.530921 -0.002187 -0.145290
v 0.530921 1.001030 -0.145290
v 0.489483 -0.002187 -0.156711
v 0.489483 1.001030 -0.156711
v 0.519500 -0.002187 -0.103851
v 0.519500 1.001030 -0.103851
v 0.478062 -0.002187 -0.115272
v 0.478062 1.001030 -0.115272
v 0.255607 1.088476 -0.083554
v 0.281803 1.088476 0.017299
v 0.197224 1.077323 -0.014561
v 0.340186 1.077323 -0.051695
v 0.229735 0.994248 -0.054861
v 0.255778 1.300285 -0.029770
v 0.245238 0.994248 0.004824
v 0.292172 0.994248 -0.071079
v 0.281632 1.300285 -0.036485
v 0.307674 0.994248 -0.011394
v 0.298135 -0.002187 -0.040882
v 0.298135 1.001030 -0.040882
v 0.261076 -0.002187 -0.062659
v 0.261076 1.001030 -0.062659
v 0.276358 -0.002187 -0.003824
v 0.276358 1.001030 -0.003824
v 0.239300 -0.002187 -0.025600
v 0.239300 1.001030 -0.025600
v 0.980638 0.182211 -0.981597
v 0.999639 0.210148 -0.981850
v 1.018806 0.182211 -0.982094
v 0.999639 0.154274 -0.981850
v 0.980663 0.859053 -0.981573
v 0.999630 0.886990 -0.981835
v 1.018811 0.859053 -0.982084
v 0.999630 0.831116 -0.981835
v 0.013482 1.300285 -0.001308
v 0.032378 0.994248 0.029526
v 0.030560 -0.002187 -0.001414
v 0.030560 1.001030 -0.001414
v 0.000168 -0.002187 -0.031809
v 0.000168 1.001030 -0.031809
v 0.000165 -0.002187 0.028979
v 0.000165 1.001030 0.028979
v -0.030227 -0.002187 -0.001417
v -0.030227 1.001030 -0.001417
vt 0.843750 0.429688
vt 0.843750 0.488281
vt 0.828125 0.488281
vt 0.828125 0.445312
vt 0.828125 0.390625
vt 0.828125 0.339844
vt 0.843750 0.332031
vt 0.843750 0.378906
vt 0.843750 0.445312
vt 0.843750 0.488281
vt 0.828125 0.488281
vt 0.828125 0.429688
vt 0.843750 0.429688
vt 0.843750 0.488281
vt 0.828125 0.488281
vt 0.828125 0.429688
vt 0.843750 0.429688
vt 0.843750 0.488281
vt 0.828125 0.488281
vt 0.828125 0.429688
vt 0.843750 0.429688
vt 0.843750 0.488281
vt 0.828125 0.488281
vt 0.828125 0.429688
vt 0.867188 0.484375
vt 0.867188 0.503906
vt 0.867188 0.503906
vt 0.867188 0.484375
vt 0.851562 0.484375
vt 0.882812 0.402344
vt 0.859375 0.421875
vt 0.859375 0.402344
vt 0.859375 0.472656
vt 0.882812 0.472656
vt 0.890625 0.484375
vt 0.859375 0.472656
vt 0.882812 0.472656
vt 0.859375 0.402344
vt 0.882812 0.402344
vt 0.859375 0.421875
vt 0.843750 0.503906
vt 0.828125 0.503906
vt 0.828125 0.492188
vt 0.843750 0.492188
vt 0.843750 0.503906
vt 0.828125 0.503906
vt 0.828125 0.492188
vt 0.843750 0.492188
vt 0.859375 0.472656
vt 0.882812 0.472656
vt 0.867188 0.484375
vt 0.882812 0.472656
vt 0.859375 0.472656
vt 0.867188 0.484375
vt 0.851562 0.484375
vt 0.867188 0.503906
vt 0.867188 0.503906
vt 0.859375 0.402344
vt 0.882812 0.402344
vt 0.859375 0.421875
vt 0.890625 0.484375
vt 0.882812 0.402344
vt 0.859375 0.421875
vt 0.859375 0.402344
vt 0.867188 0.484375
vt 0.867188 0.503906
vt 0.867188 0.503906
vt 0.867188 0.484375
vt 0.851562 0.484375
vt 0.882812 0.402344
vt 0.859375 0.421875
vt 0.859375 0.402344
vt 0.859375 0.472656
vt 0.882812 0.472656
vt 0.890625 0.484375
vt 0.859375 0.472656
vt 0.882812 0.472656
vt 0.859375 0.402344
vt 0.882812 0.402344
vt 0.859375 0.421875
vt 0.843750 0.503906
vt 0.828125 0.503906
vt 0.828125 0.492188
vt 0.843750 0.492188
vt 0.843750 0.328125
vt 0.843750 0.492188
vt 0.828125 0.492188
vt 0.828125 0.328125
vt 0.843750 0.328125
vt 0.843750 0.492188
vt 0.828125 0.492188
vt 0.828125 0.328125
vt 0.843750 0.328125
vt 0.843750 0.492188
vt 0.828125 0.492188
vt 0.828125 0.328125
vt 0.843750 0.328125
vt 0.843750 0.492188
vt 0.828125 0.492188
vt 0.828125 0.328125
vt 0.843750 0.328125
vt 0.843750 0.492188
vt 0.828125 0.492188
vt 0.828125 0.328125
vt 0.843750 0.328125
vt 0.843750 0.492188
vt 0.828125 0.492188
vt 0.828125 0.328125
vt 0.843750 0.328125
vt 0.843750 0.492188
vt 0.828125 0.492188
vt 0.828125 0.328125
vt 0.843750 0.328125
vt 0.843750 0.492188
vt 0.828125 0.492188
vt 0.828125 0.328125
vt 0.843750 0.328125
vt 0.843750 0.492188
vt 0.828125 0.492188
vt 0.828125 0.328125
vt 0.843750 0.328125
vt 0.843750 0.492188
vt 0.828125 0.492188
vt 0.828125 0.328125
vt 0.843750 0.328125
vt 0.843750 0.492188
vt 0.828125 0.492188
vt 0.828125 0.328125
vt 0.843750 0.328125
vt 0.843750 0.492188
vt 0.828125 0.492188
vt 0.828125 0.328125
vt 0.843750 0.429688
vt 0.843750 0.488281
vt 0.828125 0.488281
vt 0.828125 0.429688
vt 0.828125 0.378906
vt 0.828125 0.332031
vt 0.843750 0.339844
vt 0.843750 0.390625
vt 0.843750 0.343750
vt 0.843750 0.386719
vt 0.828125 0.386719
vt 0.828125 0.347656
vt 0.843750 0.343750
vt 0.843750 0.386719
vt 0.828125 0.386719
vt 0.828125 0.343750
vt 0.843750 0.347656
vt 0.843750 0.386719
vt 0.828125 0.386719
vt 0.828125 0.343750
vt 0.843750 0.343750
vt 0.843750 0.386719
vt 0.828125 0.386719
vt 0.828125 0.343750
vt 0.828125 0.472656
vt 0.828125 0.410156
vt 0.843750 0.433594
vt 0.843750 0.476562
vt 0.843750 0.351562
vt 0.843750 0.410156
vt 0.828125 0.386719
vt 0.828125 0.343750
vt 0.828125 0.476562
vt 0.828125 0.433594
vt 0.843750 0.472656
vt 0.843750 0.343750
vt 0.843750 0.386719
vt 0.828125 0.351562
vt 0.843750 0.386719
vt 0.843750 0.429688
vt 0.828125 0.429688
vt 0.828125 0.386719
vt 0.843750 0.386719
vt 0.843750 0.429688
vt 0.828125 0.429688
vt 0.828125 0.386719
vt 0.843750 0.386719
vt 0.843750 0.429688
vt 0.828125 0.429688
vt 0.828125 0.386719
vt 0.843750 0.386719
vt 0.843750 0.429688
vt 0.828125 0.429688
vt 0.828125 0.386719
vt 0.828125 0.410156
vt 0.828125 0.378906
vt 0.843750 0.390625
vt 0.843750 0.433594
vt 0.843750 0.410156
vt 0.843750 0.445312
vt 0.828125 0.429688
vt 0.828125 0.386719
vt 0.828125 0.433594
vt 0.828125 0.390625
vt 0.843750 0.378906
vt 0.843750 0.386719
vt 0.843750 0.429688
vt 0.828125 0.445312
vt 0.843750 0.390625
vt 0.843750 0.429688
vt 0.828125 0.429688
vt 0.828125 0.390625
vt 0.843750 0.390625
vt 0.843750 0.429688
vt 0.828125 0.429688
vt 0.828125 0.386719
vt 0.843750 0.390625
vt 0.843750 0.429688
vt 0.828125 0.429688
vt 0.828125 0.390625
vt 0.843750 0.386719
vt 0.843750 0.429688
vt 0.828125 0.429688
vt 0.828125 0.390625
vt 0.828125 0.410156
vt 0.828125 0.378906
vt 0.843750 0.390625
vt 0.843750 0.429688
vt 0.843750 0.410156
vt 0.843750 0.445312
vt 0.828125 0.429688
vt 0.828125 0.386719
vt 0.828125 0.429688
vt 0.828125 0.390625
vt 0.843750 0.378906
vt 0.843750 0.386719
vt 0.843750 0.429688
vt 0.828125 0.445312
vt 0.843750 0.503906
vt 0.828125 0.503906
vt 0.828125 0.492188
vt 0.843750 0.492188
vt 0.859375 0.472656
vt 0.882812 0.472656
vt 0.867188 0.484375
vt 0.882812 0.472656
vt 0.859375 0.472656
vt 0.867188 0.484375
vt 0.851562 0.484375
vt 0.867188 0.503906
vt 0.867188 0.503906
vt 0.859375 0.402344
vt 0.882812 0.402344
vt 0.859375 0.421875
vt 0.890625 0.484375
vt 0.882812 0.402344
vt 0.859375 0.421875
vt 0.859375 0.402344
vt 0.843750 0.328125
vt 0.843750 0.492188
vt 0.828125 0.492188
vt 0.828125 0.328125
vt 0.843750 0.328125
vt 0.843750 0.492188
vt 0.828125 0.492188
vt 0.828125 0.328125
vt 0.843750 0.328125
vt 0.843750 0.492188
vt 0.828125 0.492188
vt 0.828125 0.328125
vt 0.843750 0.328125
vt 0.843750 0.492188
vt 0.828125 0.492188
vt 0.828125 0.328125
vt 0.843750 0.503906
vt 0.828125 0.503906
vt 0.828125 0.492188
vt 0.843750 0.492188
vt 0.859375 0.472656
vt 0.882812 0.472656
vt 0.867188 0.484375
vt 0.882812 0.472656
vt 0.859375 0.472656
vt 0.867188 0.484375
vt 0.851562 0.484375
vt 0.867188 0.503906
vt 0.867188 0.503906
vt 0.859375 0.402344
vt 0.882812 0.402344
vt 0.859375 0.421875
vt 0.890625 0.484375
vt 0.882812 0.402344
vt 0.859375 0.421875
vt 0.859375 0.402344
vt 0.843750 0.328125
vt 0.843750 0.492188
vt 0.828125 0.492188
vt 0.828125 0.328125
vt 0.843750 0.328125
vt 0.843750 0.492188
vt 0.828125 0.492188
vt 0.828125 0.328125
vt 0.843750 0.328125
vt 0.843750 0.492188
vt 0.828125 0.492188
vt 0.828125 0.328125
vt 0.843750 0.328125
vt 0.843750 0.492188
vt 0.828125 0.492188
vt 0.828125 0.328125
vt 0.843750 0.386719
vt 0.843750 0.410156
vt 0.828125 0.429688
vt 0.828125 0.410156
vt 0.843750 0.390625
vt 0.843750 0.410156
vt 0.828125 0.410156
vt 0.828125 0.386719
vt 0.828125 0.429688
vt 0.828125 0.410156
vt 0.843750 0.394531
vt 0.843750 0.410156
vt 0.828125 0.394531
vt 0.843750 0.410156
vt 0.843750 0.429688
vt 0.843750 0.386719
vt 0.843750 0.410156
vt 0.828125 0.410156
vt 0.828125 0.390625
vt 0.843750 0.390625
vt 0.843750 0.410156
vt 0.828125 0.410156
vt 0.828125 0.390625
vt 0.843750 0.390625
vt 0.843750 0.410156
vt 0.828125 0.410156
vt 0.828125 0.390625
vt 0.843750 0.429688
vt 0.828125 0.410156
vt 0.828125 0.386719
vt 0.843750 0.429688
vt 0.828125 0.445312
vt 0.828125 0.488281
vt 0.843750 0.488281
vt 0.828125 0.390625
vt 0.843750 0.378906
vt 0.843750 0.332031
vt 0.828125 0.339844
vt 0.843750 0.445312
vt 0.828125 0.429688
vt 0.828125 0.488281
vt 0.843750 0.488281
vt 0.843750 0.429688
vt 0.828125 0.429688
vt 0.828125 0.488281
vt 0.843750 0.488281
vt 0.843750 0.429688
vt 0.828125 0.429688
vt 0.828125 0.488281
vt 0.843750 0.488281
vt 0.843750 0.429688
vt 0.828125 0.429688
vt 0.828125 0.488281
vt 0.843750 0.488281
vt 0.867188 0.484375
vt 0.867188 0.503906
vt 0.867188 0.503906
vt 0.867188 0.484375
vt 0.851562 0.484375
vt 0.882812 0.402344
vt 0.859375 0.402344
vt 0.859375 0.421875
vt 0.859375 0.472656
vt 0.882812 0.472656
vt 0.890625 0.484375
vt 0.859375 0.472656
vt 0.882812 0.472656
vt 0.859375 0.402344
vt 0.859375 0.421875
vt 0.882812 0.402344
vt 0.843750 0.503906
vt 0.843750 0.492188
vt 0.828125 0.492188
vt 0.828125 0.503906
vt 0.843750 0.503906
vt 0.843750 0.492188
vt 0.828125 0.492188
vt 0.828125 0.503906
vt 0.859375 0.472656
vt 0.867188 0.484375
vt 0.882812 0.472656
vt 0.882812 0.472656
vt 0.867188 0.484375
vt 0.859375 0.472656
vt 0.851562 0.484375
vt 0.867188 0.503906
vt 0.867188 0.503906
vt 0.859375 0.402344
vt 0.859375 0.421875
vt 0.882812 0.402344
vt 0.890625 0.484375
vt 0.882812 0.402344
vt 0.859375 0.402344
vt 0.859375 0.421875
vt 0.867188 0.484375
vt 0.867188 0.503906
vt 0.867188 0.503906
vt 0.867188 0.484375
vt 0.851562 0.484375
vt 0.882812 0.402344
vt 0.859375 0.402344
vt 0.859375 0.421875
vt 0.859375 0.472656
vt 0.882812 0.472656
vt 0.890625 0.484375
vt 0.859375 0.472656
vt 0.882812 0.472656
vt 0.859375 0.402344
vt 0.859375 0.421875
vt 0.882812 0.402344
vt 0.843750 0.503906
vt 0.843750 0.492188
vt 0.828125 0.492188
vt 0.828125 0.503906
vt 0.843750 0.328125
vt 0.828125 0.328125
vt 0.828125 0.492188
vt 0.843750 0.492188
vt 0.843750 0.328125
vt 0.828125 0.328125
vt 0.828125 0.492188
vt 0.843750 0.492188
vt 0.843750 0.328125
vt 0.828125 0.328125
vt 0.828125 0.492188
vt 0.843750 0.492188
vt 0.843750 0.328125
vt 0.828125 0.328125
vt 0.828125 0.492188
vt 0.843750 0.492188
vt 0.843750 0.328125
vt 0.828125 0.328125
vt 0.828125 0.492188
vt 0.843750 0.492188
vt 0.843750 0.328125
vt 0.828125 0.328125
vt 0.828125 0.492188
vt 0.843750 0.492188
vt 0.843750 0.328125
vt 0.828125 0.328125
vt 0.828125 0.492188
vt 0.843750 0.492188
vt 0.843750 0.328125
vt 0.828125 0.328125
vt 0.828125 0.492188
vt 0.843750 0.492188
vt 0.843750 0.328125
vt 0.828125 0.328125
vt 0.828125 0.492188
vt 0.843750 0.492188
vt 0.843750 0.328125
vt 0.828125 0.328125
vt 0.828125 0.492188
vt 0.843750 0.492188
vt 0.843750 0.328125
vt 0.828125 0.328125
vt 0.828125 0.492188
vt 0.843750 0.492188
vt 0.843750 0.328125
vt 0.828125 0.328125
vt 0.828125 0.492188
vt 0.843750 0.492188
vt 0.843750 0.429688
vt 0.828125 0.429688
vt 0.828125 0.488281
vt 0.843750 0.488281
vt 0.828125 0.378906
vt 0.843750 0.390625
vt 0.843750 0.339844
vt 0.828125 0.332031
vt 0.843750 0.343750
vt 0.828125 0.347656
vt 0.828125 0.386719
vt 0.843750 0.386719
vt 0.843750 0.343750
vt 0.828125 0.343750
vt 0.828125 0.386719
vt 0.843750 0.386719
vt 0.843750 0.347656
vt 0.828125 0.343750
vt 0.828125 0.386719
vt 0.843750 0.386719
vt 0.843750 0.343750
vt 0.828125 0.343750
vt 0.828125 0.386719
vt 0.843750 0.386719
vt 0.828125 0.472656
vt 0.843750 0.476562
vt 0.843750 0.433594
vt 0.828125 0.410156
vt 0.843750 0.351562
vt 0.828125 0.343750
vt 0.828125 0.386719
vt 0.843750 0.410156
vt 0.828125 0.476562
vt 0.843750 0.472656
vt 0.828125 0.433594
vt 0.843750 0.343750
vt 0.828125 0.351562
vt 0.843750 0.386719
vt 0.843750 0.386719
vt 0.828125 0.386719
vt 0.828125 0.429688
vt 0.843750 0.429688
vt 0.843750 0.386719
vt 0.828125 0.386719
vt 0.828125 0.429688
vt 0.843750 0.429688
vt 0.843750 0.386719
vt 0.828125 0.386719
vt 0.828125 0.429688
vt 0.843750 0.429688
vt 0.843750 0.386719
vt 0.828125 0.386719
vt 0.828125 0.429688
vt 0.843750 0.429688
vt 0.828125 0.410156
vt 0.843750 0.433594
vt 0.843750 0.390625
vt 0.828125 0.378906
vt 0.843750 0.410156
vt 0.828125 0.386719
vt 0.828125 0.429688
vt 0.843750 0.445312
vt 0.828125 0.433594
vt 0.843750 0.378906
vt 0.828125 0.390625
vt 0.843750 0.386719
vt 0.828125 0.445312
vt 0.843750 0.429688
vt 0.843750 0.390625
vt 0.828125 0.390625
vt 0.828125 0.429688
vt 0.843750 0.429688
vt 0.843750 0.390625
vt 0.828125 0.386719
vt 0.828125 0.429688
vt 0.843750 0.429688
vt 0.843750 0.390625
vt 0.828125 0.390625
vt 0.828125 0.429688
vt 0.843750 0.429688
vt 0.843750 0.386719
vt 0.828125 0.390625
vt 0.828125 0.429688
vt 0.843750 0.429688
vt 0.828125 0.410156
vt 0.843750 0.429688
vt 0.843750 0.390625
vt 0.828125 0.378906
vt 0.843750 0.410156
vt 0.828125 0.386719
vt 0.828125 0.429688
vt 0.843750 0.445312
vt 0.828125 0.429688
vt 0.843750 0.378906
vt 0.828125 0.390625
vt 0.843750 0.386719
vt 0.828125 0.445312
vt 0.843750 0.429688
vt 0.843750 0.503906
vt 0.843750 0.492188
vt 0.828125 0.492188
vt 0.828125 0.503906
vt 0.859375 0.472656
vt 0.867188 0.484375
vt 0.882812 0.472656
vt 0.882812 0.472656
vt 0.867188 0.484375
vt 0.859375 0.472656
vt 0.851562 0.484375
vt 0.867188 0.503906
vt 0.867188 0.503906
vt 0.859375 0.402344
vt 0.859375 0.421875
vt 0.882812 0.402344
vt 0.890625 0.484375
vt 0.882812 0.402344
vt 0.859375 0.402344
vt 0.859375 0.421875
vt 0.843750 0.328125
vt 0.828125 0.328125
vt 0.828125 0.492188
vt 0.843750 0.492188
vt 0.843750 0.328125
vt 0.828125 0.328125
vt 0.828125 0.492188
vt 0.843750 0.492188
vt 0.843750 0.328125
vt 0.828125 0.328125
vt 0.828125 0.492188
vt 0.843750 0.492188
vt 0.843750 0.328125
vt 0.828125 0.328125
vt 0.828125 0.492188
vt 0.843750 0.492188
vt 0.843750 0.503906
vt 0.843750 0.492188
vt 0.828125 0.492188
vt 0.828125 0.503906
vt 0.859375 0.472656
vt 0.867188 0.484375
vt 0.882812 0.472656
vt 0.882812 0.472656
vt 0.867188 0.484375
vt 0.859375 0.472656
vt 0.851562 0.484375
vt 0.867188 0.503906
vt 0.867188 0.503906
vt 0.859375 0.402344
vt 0.859375 0.421875
vt 0.882812 0.402344
vt 0.890625 0.484375
vt 0.882812 0.402344
vt 0.859375 0.402344
vt 0.859375 0.421875
vt 0.843750 0.328125
vt 0.828125 0.328125
vt 0.828125 0.492188
vt 0.843750 0.492188
vt 0.843750 0.328125
vt 0.828125 0.328125
vt 0.828125 0.492188
vt 0.843750 0.492188
vt 0.843750 0.328125
vt 0.828125 0.328125
vt 0.828125 0.492188
vt 0.843750 0.492188
vt 0.843750 0.328125
vt 0.828125 0.328125
vt 0.828125 0.492188
vt 0.843750 0.492188
vt 0.843750 0.429688
vt 0.828125 0.425781
vt 0.828125 0.445312
vt 0.843750 0.429688
vt 0.843750 0.429688
vt 0.828125 0.390625
vt 0.828125 0.429688
vt 0.843750 0.429688
vt 0.828125 0.390625
vt 0.843750 0.425781
vt 0.843750 0.378906
vt 0.828125 0.390625
vt 0.843750 0.390625
vt 0.843750 0.390625
vt 0.828125 0.378906
vt 0.843750 0.390625
vt 0.828125 0.429688
vt 0.828125 0.429688
vt 0.843750 0.429688
vt 0.843750 0.429688
vt 0.828125 0.429688
vt 0.828125 0.429688
vt 0.843750 0.429688
vt 0.843750 0.429688
vt 0.828125 0.429688
vt 0.828125 0.429688
vt 0.843750 0.429688
vt 0.828125 0.429688
vt 0.828125 0.429688
vt 0.843750 0.445312
vt 0.843750 0.386719
vt 0.828125 0.410156
vt 0.828125 0.429688
vt 0.843750 0.410156
vt 0.843750 0.390625
vt 0.828125 0.386719
vt 0.828125 0.410156
vt 0.843750 0.410156
vt 0.828125 0.429688
vt 0.843750 0.410156
vt 0.843750 0.394531
vt 0.828125 0.410156
vt 0.843750 0.429688
vt 0.843750 0.410156
vt 0.828125 0.394531
vt 0.843750 0.386719
vt 0.828125 0.390625
vt 0.828125 0.410156
vt 0.843750 0.410156
vt 0.843750 0.390625
vt 0.828125 0.390625
vt 0.828125 0.410156
vt 0.843750 0.410156
vt 0.843750 0.390625
vt 0.828125 0.390625
vt 0.828125 0.410156
vt 0.843750 0.410156
vt 0.828125 0.386719
vt 0.828125 0.410156
vt 0.843750 0.429688
vt 0.843750 0.503906
vt 0.843750 0.492188
vt 0.828125 0.492188
vt 0.828125 0.503906
vt 0.859375 0.472656
vt 0.867188 0.484375
vt 0.882812 0.472656
vt 0.882812 0.472656
vt 0.867188 0.484375
vt 0.859375 0.472656
vt 0.851562 0.484375
vt 0.867188 0.503906
vt 0.867188 0.503906
vt 0.859375 0.402344
vt 0.859375 0.421875
vt 0.882812 0.402344
vt 0.890625 0.484375
vt 0.882812 0.402344
vt 0.859375 0.402344
vt 0.859375 0.421875
vt 0.843750 0.328125
vt 0.828125 0.328125
vt 0.828125 0.492188
vt 0.843750 0.492188
vt 0.843750 0.328125
vt 0.828125 0.328125
vt 0.828125 0.492188
vt 0.843750 0.492188
vt 0.843750 0.328125
vt 0.828125 0.328125
vt 0.828125 0.492188
vt 0.843750 0.492188
vt 0.843750 0.328125
vt 0.828125 0.328125
vt 0.828125 0.492188
vt 0.843750 0.492188
vn -0.9260 -0.0000 0.3775
vn -0.9927 -0.0000 0.1204
vn -0.8215 -0.5598 0.1083
vn -0.7687 -0.5583 0.3122
vn 0.9250 -0.0000 -0.3801
vn 0.9913 -0.0000 -0.1319
vn 0.8221 0.5608 -0.0980
vn 0.7668 0.5606 -0.3127
vn -0.7687 0.5583 0.3122
vn -0.8215 0.5598 0.1083
vn -0.9259 -0.0000 0.3778
vn -0.8215 -0.5598 0.1084
vn -0.7686 -0.5584 0.3121
vn 0.9247 0.0000 -0.3806
vn 0.9912 -0.0000 -0.1320
vn 0.8222 0.5608 -0.0980
vn 0.7672 0.5601 -0.3125
vn -0.7686 0.5584 0.3121
vn -0.8215 0.5598 0.1084
vn 0.9645 0.0806 -0.2515
vn 0.9015 0.2293 -0.3670
vn 0.9659 0.2293 -0.1199
vn -0.9645 0.0806 0.2515
vn -0.9659 0.2293 0.1199
vn -0.2521 0.0407 -0.9669
vn -0.6646 -0.6779 -0.3142
vn 0.4266 -0.6779 -0.5987
vn 0.6646 -0.6779 0.3142
vn 0.2521 0.0407 0.9669
vn -0.4266 -0.6779 0.5987
vn -0.9015 0.2293 0.3670
vn 0.7323 -0.6779 -0.0641
vn -0.0663 -0.6779 0.7321
vn -0.7323 -0.6779 0.0641
vn 0.0663 -0.6779 -0.7321
vn -0.7058 0.0806 0.7038
vn 0.7058 0.0806 -0.7038
vn -0.7055 0.0407 -0.7076
vn 0.5932 0.2293 -0.7717
vn -0.5932 0.2293 0.7717
vn -0.7735 0.2293 0.5909
vn 0.7055 0.0407 0.7076
vn 0.7735 0.2293 -0.5909
vn 0.8616 0.0806 -0.5012
vn 0.7699 0.2293 -0.5955
vn 0.8983 0.2293 -0.3748
vn -0.8616 0.0806 0.5012
vn -0.8983 0.2293 0.3748
vn -0.5024 0.0407 -0.8637
vn -0.7245 -0.6779 -0.1242
vn 0.2502 -0.6779 -0.6912
vn 0.7245 -0.6779 0.1242
vn 0.5024 0.0407 0.8637
vn -0.2502 -0.6779 0.6912
vn -0.7699 0.2293 0.5955
vn -0.2523 0.0000 -0.9677
vn 0.5058 0.0000 -0.8626
vn 0.8626 0.0000 0.5058
vn -0.5058 0.0000 0.8626
vn -0.8626 0.0000 -0.5058
vn 0.2557 0.0000 -0.9668
vn 0.9668 0.0000 0.2557
vn 0.5028 0.0000 0.8644
vn -0.2557 0.0000 0.9668
vn -0.9668 0.0000 -0.2557
vn 0.0015 0.0000 -1.0000
vn 1.0000 0.0000 0.0015
vn 0.7061 0.0000 0.7081
vn -0.0015 0.0000 1.0000
vn -1.0000 0.0000 -0.0015
vn 0.7672 -0.5601 -0.3125
vn 0.8222 -0.5608 -0.0980
vn 0.7668 -0.5606 -0.3127
vn 0.8221 -0.5608 -0.0980
vn 0.5066 -0.5475 -0.6661
vn 0.6588 -0.5550 -0.5079
vn 0.7915 -0.0000 -0.6111
vn 0.6057 0.0000 -0.7957
vn -0.5029 0.5568 0.6611
vn -0.6549 0.5611 0.5062
vn -0.7900 -0.0000 0.6131
vn -0.6054 -0.0000 0.7960
vn 0.6588 0.5550 -0.5079
vn 0.5066 0.5475 -0.6661
vn -0.6549 -0.5611 0.5062
vn -0.5029 -0.5568 0.6611
vn 0.5058 -0.5492 -0.6653
vn 0.6577 -0.5564 -0.5077
vn 0.7921 -0.0000 -0.6104
vn 0.6059 -0.0000 -0.7956
vn -0.5031 0.5563 0.6614
vn -0.6551 0.5606 0.5065
vn -0.7902 -0.0000 0.6128
vn -0.6054 -0.0000 0.7959
vn 0.6577 0.5564 -0.5077
vn 0.5058 0.5492 -0.6653
vn -0.6551 -0.5606 0.5065
vn -0.5031 -0.5563 0.6614
vn 0.3136 -0.5576 -0.7685
vn 0.3768 0.0000 -0.9263
vn -0.3144 0.5686 0.7602
vn -0.3803 -0.0000 0.9249
vn 0.3136 0.5576 -0.7685
vn -0.3144 -0.5686 0.7602
vn 0.3127 -0.5595 -0.7676
vn 0.3776 -0.0000 -0.9260
vn -0.3144 0.5680 0.7606
vn -0.3805 -0.0000 0.9248
vn 0.3127 0.5595 -0.7676
vn -0.3144 -0.5680 0.7606
vn 0.1013 -0.5735 -0.8130
vn 0.1334 0.0000 -0.9911
vn -0.1093 0.5863 0.8027
vn -0.1221 0.0000 0.9925
vn 0.1013 0.5735 -0.8130
vn -0.1093 -0.5863 0.8027
vn 0.1005 -0.5761 -0.8112
vn 0.1342 0.0000 -0.9910
vn -0.1092 0.5855 0.8033
vn -0.1223 -0.0000 0.9925
vn 0.1005 0.5761 -0.8112
vn -0.1092 -0.5855 0.8033
vn 0.6886 -0.6779 -0.2574
vn 0.1317 -0.6779 0.7232
vn -0.6886 -0.6779 0.2574
vn -0.1317 -0.6779 -0.7232
vn -0.4922 0.0806 0.8667
vn 0.4922 0.0806 -0.8667
vn -0.8689 0.0407 -0.4934
vn 0.3655 0.2293 -0.9021
vn -0.3655 0.2293 0.9021
vn -0.5875 0.2293 0.7760
vn 0.8689 0.0407 0.4934
vn 0.5875 0.2293 -0.7760
vn -0.2657 0.0000 -0.9641
vn 0.4938 0.0000 -0.8696
vn 0.8696 0.0000 0.4938
vn -0.4938 0.0000 0.8696
vn -0.9641 0.0000 0.2657
vn 0.5983 -0.6779 -0.4272
vn 0.3148 -0.6779 0.6643
vn -0.5983 -0.6779 0.4272
vn -0.3148 -0.6779 -0.6643
vn -0.2506 0.0806 0.9647
vn 0.2506 0.0806 -0.9647
vn -0.9671 0.0407 -0.2512
vn 0.1190 0.2293 -0.9660
vn -0.1190 0.2293 0.9660
vn -0.3662 0.2293 0.9019
vn 0.9671 0.0407 0.2512
vn 0.3662 0.2293 -0.9019
vn -0.5066 0.0000 -0.8622
vn 0.2514 0.0000 -0.9679
vn 0.9679 0.0000 0.2514
vn 0.5066 0.0000 0.8622
vn -0.8622 0.0000 0.5066
vn -1.0000 0.0000 0.0004
vn -0.8248 -0.5654 0.0003
vn -0.8247 0.5655 0.0003
vn 1.0000 0.0000 -0.0002
vn 0.8270 0.5622 -0.0002
vn 0.8270 -0.5622 -0.0002
vn -0.8247 -0.5655 0.0003
vn 1.0000 -0.0000 -0.0003
vn 0.8271 0.5620 -0.0003
vn 0.8271 -0.5620 -0.0003
vn -0.8248 0.5654 0.0003
vn 0.9260 -0.0000 0.3775
vn 0.7687 -0.5583 0.3122
vn 0.8215 -0.5598 0.1083
vn 0.9927 -0.0000 0.1204
vn -0.9250 -0.0000 -0.3801
vn -0.7668 0.5606 -0.3127
vn -0.8221 0.5608 -0.0980
vn -0.9913 -0.0000 -0.1319
vn 0.7687 0.5583 0.3122
vn 0.8215 0.5598 0.1083
vn 0.9259 -0.0000 0.3778
vn 0.7686 -0.5584 0.3121
vn 0.8215 -0.5598 0.1084
vn -0.9247 0.0000 -0.3806
vn -0.7672 0.5601 -0.3125
vn -0.8222 0.5608 -0.0980
vn -0.9912 -0.0000 -0.1320
vn 0.7686 0.5584 0.3121
vn 0.8215 0.5598 0.1084
vn -0.9645 0.0806 -0.2515
vn -0.9659 0.2293 -0.1199
vn -0.9015 0.2293 -0.3670
vn 0.9645 0.0806 0.2515
vn 0.2521 0.0407 -0.9669
vn 0.9659 0.2293 0.1199
vn 0.6646 -0.6779 -0.3142
vn -0.4266 -0.6779 -0.5987
vn -0.6646 -0.6779 0.3142
vn -0.2521 0.0407 0.9669
vn 0.4266 -0.6779 0.5987
vn 0.9015 0.2293 0.3670
vn -0.7323 -0.6779 -0.0641
vn -0.0663 -0.6779 -0.7321
vn 0.7323 -0.6779 0.0641
vn 0.0663 -0.6779 0.7321
vn 0.7058 0.0806 0.7038
vn -0.7058 0.0806 -0.7038
vn 0.7055 0.0407 -0.7076
vn -0.5932 0.2293 -0.7717
vn 0.5932 0.2293 0.7717
vn 0.7735 0.2293 0.5909
vn -0.7055 0.0407 0.7076
vn -0.7735 0.2293 -0.5909
vn -0.8616 0.0806 -0.5012
vn -0.8983 0.2293 -0.3748
vn -0.7699 0.2293 -0.5955
vn 0.8616 0.0806 0.5012
vn 0.5024 0.0407 -0.8637
vn 0.8983 0.2293 0.3748
vn 0.7245 -0.6779 -0.1242
vn -0.2502 -0.6779 -0.6912
vn -0.7245 -0.6779 0.1242
vn -0.5024 0.0407 0.8637
vn 0.2502 -0.6779 0.6912
vn 0.7699 0.2293 0.5955
vn 0.2523 0.0000 -0.9677
vn -0.5058 0.0000 -0.8626
vn -0.8626 0.0000 0.5058
vn 0.5058 0.0000 0.8626
vn 0.8626 0.0000 -0.5058
vn -0.2557 0.0000 -0.9668
vn -0.9668 0.0000 0.2557
vn -0.5028 0.0000 0.8644
vn 0.2557 0.0000 0.9668
vn 0.9668 0.0000 -0.2557
vn -0.0015 0.0000 -1.0000
vn -1.0000 0.0000 0.0015
vn -0.7061 0.0000 0.7081
vn 0.0015 0.0000 1.0000
vn 1.0000 0.0000 -0.0015
vn -0.7672 -0.5601 -0.3125
vn -0.8222 -0.5608 -0.0980
vn -0.7668 -0.5606 -0.3127
vn -0.8221 -0.5608 -0.0980
vn -0.5066 -0.5475 -0.6661
vn -0.6057 0.0000 -0.7957
vn -0.7915 -0.0000 -0.6111
vn -0.6588 -0.5550 -0.5079
vn 0.5029 0.5568 0.6611
vn 0.6054 -0.0000 0.7960
vn 0.7900 -0.0000 0.6131
vn 0.6549 0.5611 0.5062
vn -0.5066 0.5475 -0.6661
vn -0.6588 0.5550 -0.5079
vn 0.5029 -0.5568 0.6611
vn 0.6549 -0.5611 0.5062
vn -0.5058 -0.5492 -0.6653
vn -0.6059 -0.0000 -0.7956
vn -0.7921 -0.0000 -0.6104
vn -0.6577 -0.5564 -0.5077
vn 0.5031 0.5563 0.6614
vn 0.6054 -0.0000 0.7959
vn 0.7902 -0.0000 0.6128
vn 0.6551 0.5606 0.5065
vn -0.5058 0.5492 -0.6653
vn -0.6577 0.5564 -0.5077
vn 0.5031 -0.5563 0.6614
vn 0.6551 -0.5606 0.5065
vn -0.3136 -0.5576 -0.7685
vn -0.3768 0.0000 -0.9263
vn 0.3144 0.5686 0.7602
vn 0.3803 -0.0000 0.9249
vn -0.3136 0.5576 -0.7685
vn 0.3144 -0.5686 0.7602
vn -0.3127 -0.5595 -0.7676
vn -0.3776 -0.0000 -0.9260
vn 0.3144 0.5680 0.7606
vn 0.3805 -0.0000 0.9248
vn -0.3127 0.5595 -0.7676
vn 0.3144 -0.5680 0.7606
vn -0.1013 -0.5735 -0.8130
vn -0.1334 0.0000 -0.9911
vn 0.1093 0.5863 0.8027
vn 0.1221 0.0000 0.9925
vn -0.1013 0.5735 -0.8130
vn 0.1093 -0.5863 0.8027
vn -0.1005 -0.5761 -0.8112
vn -0.1342 0.0000 -0.9910
vn 0.1092 0.5855 0.8033
vn 0.1223 -0.0000 0.9925
vn -0.1005 0.5761 -0.8112
vn 0.1092 -0.5855 0.8033
vn -0.6886 -0.6779 -0.2574
vn 0.1317 -0.6779 -0.7232
vn 0.6886 -0.6779 0.2574
vn -0.1317 -0.6779 0.7232
vn 0.4922 0.0806 0.8667
vn -0.4922 0.0806 -0.8667
vn 0.8689 0.0407 -0.4934
vn -0.3655 0.2293 -0.9021
vn 0.3655 0.2293 0.9021
vn 0.5875 0.2293 0.7760
vn -0.8689 0.0407 0.4934
vn -0.5875 0.2293 -0.7760
vn 0.2657 0.0000 -0.9641
vn -0.4938 0.0000 -0.8696
vn -0.8696 0.0000 0.4938
vn 0.4938 0.0000 0.8696
vn 0.9641 0.0000 0.2657
vn -0.5983 -0.6779 -0.4272
vn 0.3148 -0.6779 -0.6643
vn 0.5983 -0.6779 0.4272
vn -0.3148 -0.6779 0.6643
vn 0.2506 0.0806 0.9647
vn -0.2506 0.0806 -0.9647
vn 0.9671 0.0407 -0.2512
vn -0.1190 0.2293 -0.9660
vn 0.1190 0.2293 0.9660
vn 0.3662 0.2293 0.9019
vn -0.9671 0.0407 0.2512
vn -0.3662 0.2293 -0.9019
vn 0.5066 0.0000 -0.8622
vn -0.2514 0.0000 -0.9679
vn -0.9679 0.0000 0.2514
vn -0.5066 0.0000 0.8622
vn 0.8622 0.0000 0.5066
vn 0.8248 -0.5654 0.0003
vn 1.0000 0.0000 0.0004
vn 0.8247 0.5655 0.0003
vn -0.8270 0.5622 -0.0002
vn -1.0000 0.0000 -0.0002
vn -0.8270 -0.5622 -0.0002
vn 0.8247 -0.5655 0.0003
vn -0.8271 0.5620 -0.0003
vn -1.0000 -0.0000 -0.0003
vn -0.8271 -0.5620 -0.0003
vn 0.8248 0.5654 0.0003
vn -0.4716 -0.6779 -0.5639
vn 0.4717 -0.6779 -0.5638
vn 0.4716 -0.6779 0.5639
vn -0.4717 -0.6779 0.5638
vn -0.0000 0.0806 0.9968
vn 0.0000 0.0806 -0.9967
vn 0.9992 0.0407 0.0000
vn 0.1277 0.2293 -0.9649
vn -0.1277 0.2293 0.9649
vn 0.1276 0.2293 0.9650
vn -0.9992 0.0407 -0.0001
vn -0.1276 0.2293 -0.9650
vn 0.7071 0.0000 -0.7071
vn 0.0000 0.0000 -1.0000
vn -1.0000 0.0000 -0.0001
vn -0.7071 0.0000 0.7071
vn 0.7071 0.0000 0.7071
usemtl Material.001
s 1
f 85/1/1 4/2/2 6/3/3 83/4/4
f 86/5/5 70/6/6 5/7/7 84/8/8
f 84/9/9 5/10/10 4/11/2 85/12/1
f 81/13/11 10/14/2 12/15/12 79/16/13
f 82/17/14 68/18/15 11/19/16 80/20/17
f 80/21/18 11/22/19 10/23/2 81/24/11
f 22/25/20 14/26/21 17/27/22
f 21/28/23 14/26/24 19/29/25
f 13/30/26 19/31/25 15/32/27
f 13/33/26 21/28/23 19/29/25
f 18/34/28 22/25/20 20/35/29
f 20/35/29 22/25/20 17/27/22
f 15/36/27 19/29/25 22/25/20
f 16/37/30 20/35/29 21/28/23
f 20/35/29 17/27/31 21/28/23
f 16/38/30 18/39/28 20/40/29
f 17/27/31 14/26/24 21/28/23
f 19/29/25 14/26/21 22/25/20
f 18/34/28 15/36/27 22/25/20
f 13/33/26 16/37/30 21/28/23
f 18/41/28 16/42/30 13/43/26 15/44/27
f 27/45/32 29/46/33 32/47/34 30/48/35
f 32/49/34 29/50/33 24/51/36
f 27/52/32 30/53/35 23/54/37
f 26/55/38 31/56/39 23/54/37
f 28/57/40 31/56/41 24/51/36
f 29/58/33 27/59/32 25/60/42
f 25/61/42 28/57/40 24/51/36
f 29/50/33 25/61/42 24/51/36
f 30/53/35 26/55/38 23/54/37
f 25/61/42 23/54/37 28/57/43
f 27/52/32 23/54/37 25/61/42
f 32/49/34 24/51/36 26/55/38
f 32/62/34 26/63/38 30/64/35
f 24/51/36 31/56/41 26/55/38
f 23/54/37 31/56/39 28/57/43
f 42/65/44 34/66/45 37/67/46
f 41/68/47 34/66/48 39/69/49
f 33/70/50 39/71/49 35/72/51
f 33/73/50 41/68/47 39/69/49
f 38/74/52 42/65/44 40/75/53
f 40/75/53 42/65/44 37/67/46
f 35/76/51 39/69/49 42/65/44
f 36/77/54 40/75/53 41/68/47
f 40/75/53 37/67/55 41/68/47
f 36/78/54 38/79/52 40/80/53
f 37/67/55 34/66/48 41/68/47
f 39/69/49 34/66/45 42/65/44
f 38/74/52 35/76/51 42/65/44
f 33/73/50 36/77/54 41/68/47
f 38/81/52 36/82/54 33/83/50 35/84/51
f 43/85/56 44/86/56 46/87/57 45/88/57
f 45/89/58 46/90/58 50/91/58 49/92/58
f 49/93/59 50/94/59 48/95/59 47/96/59
f 47/97/60 48/98/60 44/99/56 43/100/56
f 51/101/61 52/102/61 54/103/61 53/104/61
f 53/105/62 54/106/62 58/107/63 57/108/63
f 57/109/63 58/110/63 56/111/64 55/112/64
f 55/113/65 56/114/65 52/115/65 51/116/65
f 59/117/66 60/118/66 62/119/66 61/120/66
f 61/121/67 62/122/67 66/123/68 65/124/68
f 65/125/68 66/126/68 64/127/69 63/128/69
f 63/129/70 64/130/70 60/131/70 59/132/70
f 79/133/71 12/134/72 68/135/15 82/136/14
f 83/137/73 6/138/74 70/139/6 86/140/5
f 9/141/75 71/142/76 74/143/77 67/144/78
f 8/145/79 73/146/80 72/147/81 7/148/82
f 67/149/78 74/150/77 73/151/83 8/152/84
f 7/153/82 72/154/81 71/155/85 9/156/86
f 3/157/87 75/158/88 78/159/89 69/160/90
f 2/161/91 77/162/92 76/163/93 1/164/94
f 69/165/90 78/166/89 77/162/95 2/167/96
f 1/168/94 76/169/93 75/158/97 3/170/98
f 71/142/76 79/133/71 82/136/14 74/143/77
f 73/146/80 80/21/18 81/24/11 72/147/81
f 74/150/77 82/17/14 80/20/17 73/151/83
f 72/154/81 81/13/11 79/16/13 71/155/85
f 75/158/88 83/137/73 86/140/5 78/159/89
f 77/162/92 84/9/9 85/12/1 76/163/93
f 78/166/89 86/5/5 84/8/8 77/162/95
f 76/169/93 85/1/1 83/4/4 75/158/97
f 87/171/99 9/172/75 67/173/78 90/174/100
f 89/175/101 8/176/79 7/177/82 88/178/102
f 90/179/100 67/180/78 8/181/84 89/182/103
f 88/183/102 7/184/82 9/185/86 87/186/104
f 91/187/105 3/188/87 69/189/90 94/190/106
f 93/191/107 2/192/91 1/193/94 92/194/108
f 94/195/106 69/196/90 2/197/96 93/191/109
f 92/198/108 1/199/94 3/200/98 91/187/110
f 95/201/111 87/202/99 90/203/100 98/204/112
f 97/205/113 89/206/101 88/207/102 96/208/114
f 98/209/112 90/210/100 89/211/103 97/212/115
f 96/213/114 88/214/102 87/215/104 95/216/116
f 99/217/117 91/218/105 94/219/106 102/220/118
f 101/221/119 93/222/107 92/223/108 100/224/120
f 102/225/118 94/226/106 93/227/109 101/221/121
f 100/228/120 92/229/108 91/230/110 99/217/122
f 107/231/123 109/232/124 112/233/125 110/234/126
f 112/235/125 109/236/124 104/237/127
f 107/238/123 110/239/126 103/240/128
f 106/241/129 111/242/130 103/240/128
f 108/243/131 111/242/132 104/237/127
f 109/244/124 107/245/123 105/246/133
f 105/247/133 108/243/131 104/237/127
f 109/236/124 105/247/133 104/237/127
f 110/239/126 106/241/129 103/240/128
f 105/247/133 103/240/128 108/243/134
f 107/238/123 103/240/128 105/247/133
f 112/235/125 104/237/127 106/241/129
f 112/248/125 106/249/129 110/250/126
f 104/237/127 111/242/132 106/241/129
f 103/240/128 111/242/130 108/243/134
f 113/251/135 114/252/135 116/253/136 115/254/136
f 115/255/136 116/256/136 120/257/137 119/258/137
f 119/259/137 120/260/137 118/261/138 117/262/138
f 117/263/138 118/264/138 114/265/139 113/266/139
f 125/267/140 127/268/141 130/269/142 128/270/143
f 130/271/142 127/272/141 122/273/144
f 125/274/140 128/275/143 121/276/145
f 124/277/146 129/278/147 121/276/145
f 126/279/148 129/278/149 122/273/144
f 127/280/141 125/281/140 123/282/150
f 123/283/150 126/279/148 122/273/144
f 127/272/141 123/283/150 122/273/144
f 128/275/143 124/277/146 121/276/145
f 123/283/150 121/276/145 126/279/151
f 125/274/140 121/276/145 123/283/150
f 130/271/142 122/273/144 124/277/146
f 130/284/142 124/285/146 128/286/143
f 122/273/144 129/278/149 124/277/146
f 121/276/145 129/278/147 126/279/151
f 131/287/152 132/288/152 134/289/153 133/290/153
f 133/291/153 134/292/153 138/293/154 137/294/154
f 137/295/154 138/296/154 136/297/155 135/298/155
f 135/299/156 136/300/156 132/301/156 131/302/156
f 4/303/2 149/304/157 150/305/158 6/306/3
f 11/307/19 152/308/159 153/309/157 10/310/2
f 70/311/6 147/312/160 148/313/161 5/314/7
f 6/306/74 150/315/162 147/316/160 70/317/6
f 10/318/2 153/319/157 154/320/163 12/321/12
f 68/322/15 151/323/164 152/324/165 11/325/16
f 12/326/72 154/327/166 151/328/164 68/329/15
f 5/314/10 148/330/167 149/331/157 4/332/2
f 239/333/168 237/334/169 160/335/170 158/336/171
f 240/337/172 238/338/173 159/339/174 224/340/175
f 238/341/176 239/342/168 158/343/171 159/344/177
f 235/345/178 233/346/179 166/347/180 164/348/171
f 236/349/181 234/350/182 165/351/183 222/352/184
f 234/353/185 235/354/178 164/355/171 165/356/186
f 176/357/187 171/358/188 168/359/189
f 175/360/190 173/361/191 168/359/192
f 167/362/193 169/363/194 173/364/191
f 167/365/193 173/361/191 175/360/190
f 172/366/195 174/367/196 176/357/187
f 174/367/196 171/358/188 176/357/187
f 169/368/194 176/357/187 173/361/191
f 170/369/197 175/360/190 174/367/196
f 174/367/196 175/360/190 171/358/198
f 170/370/197 174/371/196 172/372/195
f 171/358/198 175/360/190 168/359/192
f 173/361/191 176/357/187 168/359/189
f 172/366/195 176/357/187 169/368/194
f 167/365/193 175/360/190 170/369/197
f 172/373/195 169/374/194 167/375/193 170/376/197
f 181/377/199 184/378/200 186/379/201 183/380/202
f 186/381/201 178/382/203 183/383/202
f 181/384/199 177/385/204 184/386/200
f 180/387/205 177/385/204 185/388/206
f 182/389/207 178/382/203 185/388/208
f 183/390/202 179/391/209 181/392/199
f 179/393/209 178/382/203 182/389/207
f 183/383/202 178/382/203 179/393/209
f 184/386/200 177/385/204 180/387/205
f 179/393/209 182/389/210 177/385/204
f 181/384/199 179/393/209 177/385/204
f 186/381/201 180/387/205 178/382/203
f 186/394/201 184/395/200 180/396/205
f 178/382/203 180/387/205 185/388/208
f 177/385/204 182/389/210 185/388/206
f 196/397/211 191/398/212 188/399/213
f 195/400/214 193/401/215 188/399/216
f 187/402/217 189/403/218 193/404/215
f 187/405/217 193/401/215 195/400/214
f 192/406/219 194/407/220 196/397/211
f 194/407/220 191/398/212 196/397/211
f 189/408/218 196/397/211 193/401/215
f 190/409/221 195/400/214 194/407/220
f 194/407/220 195/400/214 191/398/222
f 190/410/221 194/411/220 192/412/219
f 191/398/222 195/400/214 188/399/216
f 193/401/215 196/397/211 188/399/213
f 192/406/219 196/397/211 189/408/218
f 187/405/217 195/400/214 190/409/221
f 192/413/219 189/414/218 187/415/217 190/416/221
f 197/417/223 199/418/224 200/419/224 198/420/223
f 199/421/225 203/422/225 204/423/225 200/424/225
f 203/425/226 201/426/226 202/427/226 204/428/226
f 201/429/227 197/430/223 198/431/223 202/432/227
f 205/433/228 207/434/228 208/435/228 206/436/228
f 207/437/229 211/438/230 212/439/230 208/440/229
f 211/441/230 209/442/231 210/443/231 212/444/230
f 209/445/232 205/446/232 206/447/232 210/448/232
f 213/449/233 215/450/233 216/451/233 214/452/233
f 215/453/234 219/454/235 220/455/235 216/456/234
f 219/457/235 217/458/236 218/459/236 220/460/235
f 217/461/237 213/462/237 214/463/237 218/464/237
f 233/465/238 236/466/181 222/467/184 166/468/239
f 237/469/240 240/470/172 224/471/175 160/472/241
f 163/473/242 221/474/243 228/475/244 225/476/245
f 162/477/246 161/478/247 226/479/248 227/480/249
f 221/481/243 162/482/250 227/483/251 228/484/244
f 161/485/247 163/486/252 225/487/253 226/488/248
f 157/489/254 223/490/255 232/491/256 229/492/257
f 156/493/258 155/494/259 230/495/260 231/496/261
f 223/497/255 156/498/262 231/496/263 232/499/256
f 155/500/259 157/501/264 229/492/265 230/502/260
f 225/476/245 228/475/244 236/466/181 233/465/238
f 227/480/249 226/479/248 235/354/178 234/353/185
f 228/484/244 227/483/251 234/350/182 236/349/181
f 226/488/248 225/487/253 233/346/179 235/345/178
f 229/492/257 232/491/256 240/470/172 237/469/240
f 231/496/261 230/495/260 239/342/168 238/341/176
f 232/499/256 231/496/263 238/338/173 240/337/172
f 230/502/260 229/492/265 237/334/169 239/333/168
f 241/503/266 244/504/267 221/505/243 163/506/242
f 243/507/268 242/508/269 161/509/247 162/510/246
f 244/511/267 243/512/270 162/513/250 221/514/243
f 242/515/269 241/516/271 163/517/252 161/518/247
f 245/519/272 248/520/273 223/521/255 157/522/254
f 247/523/274 246/524/275 155/525/259 156/526/258
f 248/527/273 247/523/276 156/528/262 223/529/255
f 246/530/275 245/519/277 157/531/264 155/532/259
f 249/533/278 252/534/279 244/535/267 241/536/266
f 251/537/280 250/538/281 242/539/269 243/540/268
f 252/541/279 251/542/282 243/543/270 244/544/267
f 250/545/281 249/546/283 241/547/271 242/548/269
f 253/549/284 256/550/285 248/551/273 245/552/272
f 255/553/286 254/554/287 246/555/275 247/556/274
f 256/557/285 255/553/288 247/558/276 248/559/273
f 254/560/287 253/549/289 245/561/277 246/562/275
f 261/563/290 264/564/291 266/565/292 263/566/293
f 266/567/292 258/568/294 263/569/293
f 261/570/290 257/571/295 264/572/291
f 260/573/296 257/571/295 265/574/297
f 262/575/298 258/568/294 265/574/299
f 263/576/293 259/577/300 261/578/290
f 259/579/300 258/568/294 262/575/298
f 263/569/293 258/568/294 259/579/300
f 264/572/291 257/571/295 260/573/296
f 259/579/300 262/575/301 257/571/295
f 261/570/290 259/579/300 257/571/295
f 266/567/292 260/573/296 258/568/294
f 266/580/292 264/581/291 260/582/296
f 258/568/294 260/573/296 265/574/299
f 257/571/295 262/575/301 265/574/297
f 267/583/302 269/584/303 270/585/303 268/586/302
f 269/587/303 273/588/304 274/589/304 270/590/303
f 273/591/304 271/592/305 272/593/305 274/594/304
f 271/595/305 267/596/306 268/597/306 272/598/305
f 279/599/307 282/600/308 284/601/309 281/602/310
f 284/603/309 276/604/311 281/605/310
f 279/606/307 275/607/312 282/608/308
f 278/609/313 275/607/312 283/610/314
f 280/611/315 276/604/311 283/610/316
f 281/612/310 277/613/317 279/614/307
f 277/615/317 276/604/311 280/611/315
f 281/605/310 276/604/311 277/615/317
f 282/608/308 275/607/312 278/609/313
f 277/615/317 280/611/318 275/607/312
f 279/606/307 277/615/317 275/607/312
f 284/603/309 278/609/313 276/604/311
f 284/616/309 282/617/308 278/618/313
f 276/604/311 278/609/313 283/610/316
f 275/607/312 280/611/318 283/610/314
f 285/619/319 287/620/320 288/621/320 286/622/319
f 287/623/320 291/624/321 292/625/321 288/626/320
f 291/627/321 289/628/322 290/629/322 292/630/321
f 289/631/323 285/632/323 286/633/323 290/634/323
f 100/635/120 99/636/122 253/637/289 254/638/287
f 97/639/113 96/640/114 250/641/281 251/642/280
f 102/643/118 101/644/121 255/645/288 256/646/285
f 99/636/117 102/647/118 256/648/285 253/649/284
f 96/650/114 95/651/116 249/652/283 250/653/281
f 98/654/112 97/655/115 251/656/282 252/657/279
f 95/658/111 98/659/112 252/660/279 249/661/278
f 101/644/119 100/662/120 254/663/287 255/664/286
f 158/665/171 160/666/170 296/667/324 295/668/325
f 165/669/186 164/670/171 299/671/325 298/672/326
f 224/673/175 159/674/174 294/675/327 293/676/328
f 160/666/241 224/677/175 293/678/328 296/679/329
f 164/680/171 166/681/180 300/682/330 299/683/325
f 222/684/184 165/685/183 298/686/331 297/687/332
f 166/688/239 222/689/184 297/690/332 300/691/333
f 159/674/177 158/692/171 295/693/325 294/694/334
f 142/695/335 139/696/336 302/697/337 140/698/338
f 302/699/337 145/700/339 140/701/338
f 142/702/335 146/703/340 139/704/336
f 143/705/341 146/703/340 301/706/342
f 141/707/343 145/700/339 301/706/344
f 140/708/338 144/709/345 142/710/335
f 144/711/345 145/700/339 141/707/343
f 140/701/338 145/700/339 144/711/345
f 139/704/336 146/703/340 143/705/341
f 144/711/345 141/707/346 146/703/340
f 142/702/335 144/711/345 146/703/340
f 302/699/337 143/705/341 145/700/339
f 302/712/337 139/713/336 143/714/341
f 145/700/339 143/705/341 301/706/344
f 146/703/340 141/707/346 301/706/342
f 303/715/347 305/716/348 306/717/348 304/718/347
f 305/719/348 309/720/349 310/721/349 306/722/348
f 309/723/349 307/724/350 308/725/350 310/726/349
f 307/727/351 303/728/351 304/729/351 308/730/351
