# Blender v2.93.5 OBJ File: 'Modular Graveyard.blend'
# www.blender.org
mtllib LowRailingPillar.mtl
o LowRailingPillar_Circle.014
v -0.032051 1.192527 0.035141
v 0.033710 1.339438 -0.034902
v -0.032051 1.192527 -0.034902
v 0.033710 1.192527 0.035141
v 0.033710 1.339438 0.035141
v 0.033710 1.192527 -0.034902
v 0.000833 1.024811 0.038540
v 0.039390 1.024811 -0.000017
v 0.000833 1.024811 -0.038574
v -0.037724 1.024811 -0.000017
v -0.037724 -0.014238 -0.000017
v -0.024612 1.194788 -0.000019
v 0.000833 -0.014238 -0.038574
v 0.000833 1.194788 -0.025465
v 0.000833 -0.014238 0.038540
v 0.000833 1.194788 0.025427
v 0.039390 -0.014238 -0.000017
v 0.026279 1.194788 -0.000019
v -0.032051 1.339438 0.035141
v -0.032051 1.339438 -0.034902
v 0.076117 1.265983 0.000120
v -0.074458 1.265983 0.000120
v 0.000829 1.265983 0.059298
v 0.000829 1.265983 -0.059059
v 0.000833 1.026486 0.025427
v 0.026279 1.026486 -0.000019
v 0.000833 1.026486 -0.025465
v -0.024612 1.026486 -0.000019
vt 0.859375 0.402344
vt 0.882812 0.402344
vt 0.859375 0.421875
vt 0.859375 0.492188
vt 0.851562 0.484375
vt 0.867188 0.484375
vt 0.882812 0.402344
vt 0.859375 0.402344
vt 0.859375 0.472656
vt 0.882812 0.472656
vt 0.867188 0.484375
vt 0.890625 0.484375
vt 0.882812 0.492188
vt 0.859375 0.472656
vt 0.882812 0.472656
vt 0.859375 0.492188
vt 0.859375 0.402344
vt 0.882812 0.402344
vt 0.859375 0.421875
vt 0.882812 0.492188
vt 0.882812 0.402344
vt 0.859375 0.402344
vt 0.843750 0.492188
vt 0.843750 0.503906
vt 0.828125 0.503906
vt 0.828125 0.492188
vt 0.882812 0.425781
vt 0.882812 0.464844
vt 0.859375 0.464844
vt 0.859375 0.425781
vt 0.882812 0.425781
vt 0.882812 0.464844
vt 0.859375 0.464844
vt 0.859375 0.425781
vt 0.882812 0.425781
vt 0.882812 0.464844
vt 0.859375 0.464844
vt 0.859375 0.425781
vt 0.882812 0.425781
vt 0.882812 0.464844
vt 0.859375 0.464844
vt 0.859375 0.425781
vt 0.843750 0.492188
vt 0.843750 0.503906
vt 0.828125 0.503906
vt 0.828125 0.492188
vt 0.843750 0.328125
vt 0.843750 0.492188
vt 0.828125 0.492188
vt 0.828125 0.328125
vt 0.843750 0.328125
vt 0.843750 0.492188
vt 0.828125 0.492188
vt 0.828125 0.328125
vt 0.843750 0.328125
vt 0.843750 0.492188
vt 0.828125 0.492188
vt 0.828125 0.328125
vt 0.843750 0.328125
vt 0.843750 0.492188
vt 0.828125 0.492188
vt 0.828125 0.328125
vt 0.851562 0.496094
vt 0.859375 0.496094
vt 0.859375 0.503906
vt 0.851562 0.503906
vt 0.851562 0.496094
vt 0.859375 0.496094
vt 0.859375 0.503906
vt 0.851562 0.503906
vt 0.859375 0.503906
vt 0.851562 0.503906
vt 0.851562 0.496094
vt 0.859375 0.496094
vt 0.859375 0.503906
vt 0.851562 0.503906
vt 0.851562 0.496094
vt 0.859375 0.496094
vn -0.4743 0.6861 0.5516
vn -0.4743 0.6861 -0.5516
vn -1.0000 -0.0000 0.0000
vn -0.0000 0.0000 1.0000
vn -0.4743 -0.6861 0.5516
vn -0.4743 -0.6861 -0.5516
vn 0.4743 -0.6861 -0.5516
vn -0.0000 0.0000 -1.0000
vn 1.0000 0.0000 0.0000
vn 0.4743 0.6861 -0.5516
vn 0.4743 -0.6861 0.5516
vn 0.4743 0.6861 0.5516
vn -0.5198 0.8543 -0.0000
vn -0.7071 0.0000 -0.7071
vn 0.0000 0.8543 -0.5198
vn 0.7071 0.0000 -0.7071
vn 0.5198 0.8543 -0.0000
vn 0.7071 0.0000 0.7071
vn 0.0000 0.8543 0.5197
vn -0.7071 0.0000 0.7071
vn -0.0000 0.5421 0.8403
vn -0.8403 0.5421 0.0000
vn 0.8403 0.5421 0.0000
vn -0.0000 0.5421 -0.8403
usemtl Material.001
s 1
f 19/1/1 20/2/2 22/3/3
f 19/4/1 22/5/3 23/6/4
f 1/7/5 22/3/3 3/8/6
f 1/9/5 23/6/4 22/5/3
f 6/10/7 24/11/8 21/12/9
f 2/13/10 21/12/9 24/11/8
f 3/14/6 22/5/3 24/11/8
f 4/15/11 21/12/9 23/6/4
f 20/16/2 24/11/8 22/5/3
f 4/17/11 6/18/7 21/19/9
f 5/20/12 23/6/4 21/12/9
f 5/21/12 21/19/9 2/22/10
f 6/10/7 3/14/6 24/11/8
f 1/9/5 4/15/11 23/6/4
f 6/23/7 4/24/11 1/25/5 3/26/6
f 28/27/13 12/28/14 14/29/8 27/30/15
f 27/31/15 14/32/8 18/33/16 26/34/17
f 26/35/17 18/36/18 16/37/4 25/38/19
f 25/39/19 16/40/4 12/41/20 28/42/13
f 20/16/2 2/13/10 24/11/8
f 5/20/12 19/4/1 23/6/4
f 20/43/2 19/44/1 5/45/12 2/46/10
f 15/47/4 7/48/21 10/49/22 11/50/20
f 17/51/18 8/52/23 7/53/21 15/54/4
f 13/55/8 9/56/24 8/57/23 17/58/16
f 11/59/14 10/60/22 9/61/24 13/62/8
f 7/63/21 25/64/19 28/65/13 10/66/22
f 8/67/23 26/68/17 25/69/19 7/70/21
f 9/71/24 27/72/15 26/73/17 8/74/23
f 10/75/22 28/76/13 27/77/15 9/78/24
