# Blender v2.93.5 OBJ File: 'Modular Graveyard.blend'
# www.blender.org
mtllib StairsWorn.mtl
o StairsWorn_Castle_Plane.003
v 1.000002 0.800000 -1.199255
v 1.000002 0.600000 -1.199255
v -1.000002 0.800000 -1.602040
v 1.000002 0.800000 -1.602042
v 1.000002 0.400000 -0.399789
v -1.000002 1.000000 -1.602040
v 1.000002 1.000000 -1.602042
v -1.000002 0.400000 -0.399787
v 1.000002 0.200000 -0.399789
v -1.000002 0.200000 -0.399787
v -1.000002 0.999999 -2.000000
v 1.000002 1.000000 -2.000000
v -1.000002 0.799999 -1.199253
v -1.000002 0.600000 -1.199253
v -1.000002 -0.000000 0.000000
v -1.000002 0.200000 0.000000
v 1.000002 0.200000 -0.000002
v 1.000002 0.400000 -0.801810
v 1.000002 0.600000 -0.801810
v -1.000002 0.400000 -0.801810
v -1.000002 0.599999 -0.801810
v 1.000002 0.000000 -0.000002
vt 0.648438 0.382812
vt 0.320312 0.382812
vt 0.320312 0.347656
vt 0.648438 0.347656
vt 0.648438 0.335938
vt 0.320312 0.335938
vt 0.320312 0.308594
vt 0.648438 0.308594
vt 0.648438 0.382812
vt 0.312500 0.382812
vt 0.312500 0.347656
vt 0.648438 0.347656
vt 0.679688 0.335938
vt 0.343750 0.335938
vt 0.343750 0.308594
vt 0.679688 0.308594
vt 0.648438 0.335938
vt 0.312500 0.335938
vt 0.312500 0.308594
vt 0.648438 0.308594
vt 0.679688 0.335938
vt 0.343750 0.335938
vt 0.343750 0.308594
vt 0.679688 0.308594
vt 0.679688 0.382812
vt 0.343750 0.382812
vt 0.343750 0.347656
vt 0.679688 0.347656
vt 0.679688 0.382812
vt 0.343750 0.382812
vt 0.343750 0.347656
vt 0.679688 0.347656
vt 0.679688 0.335938
vt 0.343750 0.335938
vt 0.343750 0.308594
vt 0.679688 0.308594
vt 0.679688 0.382812
vt 0.343750 0.382812
vt 0.343750 0.347656
vt 0.679688 0.347656
vn -0.0000 1.0000 0.0000
vn 0.0000 0.0000 1.0000
usemtl Material.001
s off
f 4/1/1 3/2/1 13/3/1 1/4/1
f 1/5/2 13/6/2 14/7/2 2/8/2
f 18/9/1 20/10/1 8/11/1 5/12/1
f 7/13/2 6/14/2 3/15/2 4/16/2
f 5/17/2 8/18/2 10/19/2 9/20/2
f 17/21/2 16/22/2 15/23/2 22/24/2
f 12/25/1 11/26/1 6/27/1 7/28/1
f 2/29/1 14/30/1 21/31/1 19/32/1
f 19/33/2 21/34/2 20/35/2 18/36/2
f 9/37/1 10/38/1 16/39/1 17/40/1
