# Blender v2.93.5 OBJ File: 'Modular Graveyard.blend'
# www.blender.org
mtllib CrossTombTall.mtl
o CrossTombTall_Cube.015
v -0.114588 1.404656 0.060151
v -0.128336 0.812292 -0.066640
v -0.114588 1.404656 -0.060151
v 0.114588 1.404656 0.060151
v 0.128336 0.812292 -0.066640
v 0.114588 1.404656 -0.060151
v -0.114588 1.634444 0.060151
v -0.114588 1.634444 -0.060151
v 0.114588 1.634444 -0.060151
v 0.114588 1.634444 0.060151
v -0.128059 1.942310 0.066461
v -0.128059 1.942310 -0.066461
v 0.128059 1.942310 -0.066461
v 0.128059 1.942310 0.066461
v -0.417835 1.391149 0.066461
v -0.417835 1.391149 -0.066461
v 0.417835 1.391149 -0.066461
v 0.417835 1.391149 0.066461
v -0.417835 1.647951 0.066461
v -0.417835 1.647951 -0.066461
v 0.417835 1.647951 -0.066461
v 0.417835 1.647951 0.066461
v -0.435516 -0.000757 0.161822
v -0.361843 0.263213 0.126731
v -0.435516 -0.000757 -0.161822
v -0.361843 0.263213 -0.126731
v 0.435516 -0.000757 0.161822
v 0.361843 0.263213 0.126731
v 0.435516 -0.000757 -0.161822
v 0.361843 0.263213 -0.126731
v -0.435516 0.248331 0.161822
v -0.435516 0.248331 -0.161822
v 0.435516 0.248331 -0.161822
v 0.435516 0.248331 0.161822
v -0.128336 0.812292 0.066640
v 0.128336 0.812292 0.066640
v -0.345692 0.736938 0.126731
v -0.345692 0.736938 -0.126731
v 0.345692 0.736938 -0.126731
v 0.345692 0.736938 0.126731
vt 0.203125 0.941406
vt 0.203125 0.996094
vt 0.156250 0.996094
vt 0.156250 0.941406
vt 0.203125 0.941406
vt 0.203125 0.996094
vt 0.164062 0.996094
vt 0.164062 0.941406
vt 0.203125 0.941406
vt 0.203125 0.996094
vt 0.156250 0.996094
vt 0.156250 0.941406
vt 0.203125 0.941406
vt 0.203125 0.996094
vt 0.164062 0.996094
vt 0.164062 0.941406
vt 0.132812 0.871094
vt 0.132812 0.847656
vt 0.179688 0.847656
vt 0.179688 0.871094
vt 0.132812 0.871094
vt 0.132812 0.847656
vt 0.179688 0.847656
vt 0.179688 0.871094
vt 0.179688 0.847656
vt 0.179688 0.871094
vt 0.132812 0.871094
vt 0.132812 0.847656
vt 0.156250 0.910156
vt 0.218750 0.910156
vt 0.218750 0.933594
vt 0.156250 0.933594
vt 0.164062 0.980469
vt 0.203125 0.980469
vt 0.203125 0.996094
vt 0.164062 0.996094
vt 0.132812 0.847656
vt 0.179688 0.847656
vt 0.179688 0.871094
vt 0.132812 0.871094
vt 0.179688 0.847656
vt 0.179688 0.871094
vt 0.132812 0.871094
vt 0.132812 0.847656
vt 0.156250 0.972656
vt 0.218750 0.972656
vt 0.218750 0.996094
vt 0.156250 0.996094
vt 0.156250 0.972656
vt 0.218750 0.972656
vt 0.218750 0.996094
vt 0.156250 0.996094
vt 0.132812 0.871094
vt 0.132812 0.847656
vt 0.179688 0.847656
vt 0.179688 0.871094
vt 0.179688 0.847656
vt 0.179688 0.871094
vt 0.132812 0.871094
vt 0.132812 0.847656
vt 0.234375 0.980469
vt 0.234375 0.996094
vt 0.210938 0.996094
vt 0.164062 0.972656
vt 0.210938 0.972656
vt 0.242188 0.910156
vt 0.242188 0.933594
vt 0.164062 0.972656
vt 0.210938 0.972656
vt 0.210938 0.996094
vt 0.164062 0.996094
vt 0.132812 0.933594
vt 0.132812 0.910156
vt 0.132812 0.996094
vt 0.132812 0.980469
vt 0.226562 0.839844
vt 0.226562 0.871094
vt 0.148438 0.871094
vt 0.148438 0.839844
vt 0.242188 0.839844
vt 0.242188 0.871094
vt 0.132812 0.871094
vt 0.132812 0.839844
vt 0.226562 0.839844
vt 0.226562 0.871094
vt 0.148438 0.871094
vt 0.148438 0.839844
vt 0.242188 0.839844
vt 0.242188 0.871094
vt 0.132812 0.871094
vt 0.132812 0.839844
vt 0.132812 0.816406
vt 0.242188 0.816406
vt 0.242188 0.871094
vt 0.132812 0.871094
vt 0.226562 0.957031
vt 0.148438 0.957031
vt 0.140625 0.941406
vt 0.234375 0.941406
vt 0.226562 0.886719
vt 0.148438 0.886719
vt 0.140625 0.878906
vt 0.234375 0.878906
vt 0.226562 0.957031
vt 0.148438 0.957031
vt 0.140625 0.941406
vt 0.234375 0.941406
vt 0.226562 0.886719
vt 0.148438 0.886719
vt 0.140625 0.878906
vt 0.234375 0.878906
vt 0.132812 0.816406
vt 0.234375 0.816406
vt 0.234375 0.871094
vt 0.132812 0.871094
vt 0.132812 0.816406
vt 0.234375 0.816406
vt 0.234375 0.871094
vt 0.132812 0.871094
vt 0.132812 0.816406
vt 0.242188 0.816406
vt 0.242188 0.871094
vt 0.132812 0.871094
vt 0.195312 0.972656
vt 0.164062 0.972656
vt 0.140625 0.949219
vt 0.218750 0.949219
vt 0.203125 0.964844
vt 0.156250 0.964844
vt 0.140625 0.941406
vt 0.218750 0.941406
vt 0.195312 0.972656
vt 0.164062 0.972656
vt 0.140625 0.949219
vt 0.218750 0.949219
vt 0.203125 0.964844
vt 0.156250 0.964844
vt 0.140625 0.941406
vt 0.218750 0.941406
vn -0.9997 0.0232 0.0000
vn 0.0000 0.0110 -0.9999
vn 0.9997 0.0232 0.0000
vn 0.0000 0.0110 0.9999
vn 0.9990 -0.0437 0.0000
vn 0.0445 0.9990 0.0000
vn -0.0445 0.9990 0.0000
vn 0.0000 0.0000 1.0000
vn 0.0000 0.0000 -1.0000
vn 0.0000 1.0000 0.0000
vn -0.9990 -0.0437 0.0000
vn 0.0000 -0.0205 0.9998
vn 0.0000 -0.0205 -0.9998
vn 1.0000 0.0000 0.0000
vn -1.0000 0.0000 0.0000
vn 0.0208 0.0000 -0.9998
vn -0.0445 -0.9990 0.0000
vn -0.0208 0.0000 0.9998
vn 0.0445 -0.9990 0.0000
vn 0.0208 0.0000 0.9998
vn -0.0208 0.0000 -0.9998
vn -0.1980 0.9802 0.0000
vn 0.0000 0.9206 -0.3904
vn 0.1980 0.9802 0.0000
vn 0.0000 0.9206 0.3904
vn 0.9994 0.0341 -0.0000
vn -0.9994 0.0341 0.0000
vn -0.3276 0.9448 0.0000
vn 0.0000 0.6235 -0.7818
vn 0.3276 0.9448 0.0000
vn 0.0000 0.6235 0.7818
usemtl Material.001
s off
f 35/1/1 1/2/1 3/3/1 2/4/1
f 2/5/2 3/6/2 6/7/2 5/8/2
f 5/9/3 6/10/3 4/11/3 36/12/3
f 36/13/4 4/14/4 1/15/4 35/16/4
f 10/17/5 9/18/5 13/19/5 14/20/5
f 7/21/6 8/22/6 20/23/6 19/24/6
f 9/25/7 10/26/7 22/27/7 21/28/7
f 1/29/8 4/30/8 10/31/8 7/32/8
f 6/33/9 3/34/9 8/35/9 9/36/9
f 13/37/10 12/38/10 11/39/10 14/40/10
f 8/41/11 7/42/11 11/43/11 12/44/11
f 7/45/12 10/46/12 14/47/12 11/48/12
f 9/49/13 8/50/13 12/51/13 13/52/13
f 18/53/14 17/54/14 21/55/14 22/56/14
f 16/57/15 15/58/15 19/59/15 20/60/15
f 8/35/16 3/34/16 16/61/16 20/62/16
f 4/63/17 6/7/17 17/64/17 18/65/17
f 10/31/18 4/30/18 18/66/18 22/67/18
f 3/68/19 1/69/19 15/70/19 16/71/19
f 1/29/20 7/32/20 19/72/20 15/73/20
f 6/33/21 9/36/21 21/74/21 17/75/21
f 23/76/15 31/77/15 32/78/15 25/79/15
f 25/80/9 32/81/9 33/82/9 29/83/9
f 29/84/14 33/85/14 34/86/14 27/87/14
f 27/88/8 34/89/8 31/90/8 23/91/8
f 30/92/9 26/93/9 38/94/9 39/95/9
f 24/96/22 26/97/22 32/98/22 31/99/22
f 26/100/23 30/101/23 33/102/23 32/103/23
f 30/104/24 28/105/24 34/106/24 33/107/24
f 28/108/25 24/109/25 31/110/25 34/111/25
f 28/112/26 30/113/26 39/114/26 40/115/26
f 26/116/27 24/117/27 37/118/27 38/119/27
f 24/120/8 28/121/8 40/122/8 37/123/8
f 35/124/28 2/125/28 38/126/28 37/127/28
f 2/128/29 5/129/29 39/130/29 38/131/29
f 5/132/30 36/133/30 40/134/30 39/135/30
f 36/136/31 35/137/31 37/138/31 40/139/31
