# Blender v2.93.5 OBJ File: 'Modular Graveyard.blend'
# www.blender.org
mtllib CrossTomb.mtl
o CrossTomb_Cube.030
v -0.128059 0.000000 0.122829
v -0.114588 0.591740 0.111167
v -0.128059 0.000000 -0.122829
v -0.114588 0.591740 -0.111167
v 0.128059 0.000000 0.122829
v 0.114588 0.591740 0.111167
v 0.128059 0.000000 -0.122829
v 0.114588 0.591740 -0.111167
v -0.114588 0.821527 0.111167
v -0.114588 0.821527 -0.111167
v 0.114588 0.821527 -0.111167
v 0.114588 0.821527 0.111167
v -0.128059 1.129393 0.122829
v -0.128059 1.129393 -0.122829
v 0.128059 1.129393 -0.122829
v 0.128059 1.129393 0.122829
v -0.417835 0.578232 0.122829
v -0.417835 0.578232 -0.122829
v 0.417835 0.578232 -0.122829
v 0.417835 0.578232 0.122829
v -0.417835 0.835035 0.122829
v -0.417835 0.835035 -0.122829
v 0.417835 0.835035 -0.122829
v 0.417835 0.835035 0.122829
vt 0.203125 0.941406
vt 0.203125 0.996094
vt 0.156250 0.996094
vt 0.156250 0.941406
vt 0.203125 0.941406
vt 0.203125 0.996094
vt 0.164062 0.996094
vt 0.164062 0.941406
vt 0.203125 0.941406
vt 0.203125 0.996094
vt 0.156250 0.996094
vt 0.156250 0.941406
vt 0.203125 0.941406
vt 0.203125 0.996094
vt 0.164062 0.996094
vt 0.164062 0.941406
vt 0.132812 0.871094
vt 0.132812 0.847656
vt 0.179688 0.847656
vt 0.179688 0.871094
vt 0.132812 0.871094
vt 0.132812 0.847656
vt 0.179688 0.847656
vt 0.179688 0.871094
vt 0.179688 0.847656
vt 0.179688 0.871094
vt 0.132812 0.871094
vt 0.132812 0.847656
vt 0.156250 0.910156
vt 0.218750 0.910156
vt 0.218750 0.933594
vt 0.156250 0.933594
vt 0.164062 0.980469
vt 0.203125 0.980469
vt 0.203125 0.996094
vt 0.164062 0.996094
vt 0.132812 0.847656
vt 0.179688 0.847656
vt 0.179688 0.871094
vt 0.132812 0.871094
vt 0.179688 0.847656
vt 0.179688 0.871094
vt 0.132812 0.871094
vt 0.132812 0.847656
vt 0.156250 0.972656
vt 0.218750 0.972656
vt 0.218750 0.996094
vt 0.156250 0.996094
vt 0.156250 0.972656
vt 0.218750 0.972656
vt 0.218750 0.996094
vt 0.156250 0.996094
vt 0.132812 0.871094
vt 0.132812 0.847656
vt 0.179688 0.847656
vt 0.179688 0.871094
vt 0.179688 0.847656
vt 0.179688 0.871094
vt 0.132812 0.871094
vt 0.132812 0.847656
vt 0.234375 0.980469
vt 0.234375 0.996094
vt 0.210938 0.996094
vt 0.164062 0.972656
vt 0.210938 0.972656
vt 0.242188 0.910156
vt 0.242188 0.933594
vt 0.164062 0.972656
vt 0.210938 0.972656
vt 0.210938 0.996094
vt 0.164062 0.996094
vt 0.132812 0.933594
vt 0.132812 0.910156
vt 0.132812 0.996094
vt 0.132812 0.980469
vn -0.9997 0.0228 0.0000
vn 0.0000 0.0197 -0.9998
vn 0.9997 0.0228 0.0000
vn 0.0000 0.0197 0.9998
vn 0.9990 -0.0437 0.0000
vn 0.0445 0.9990 0.0000
vn -0.0445 0.9990 0.0000
vn 0.0000 0.0000 1.0000
vn 0.0000 0.0000 -1.0000
vn 0.0000 1.0000 0.0000
vn -0.9990 -0.0437 0.0000
vn 0.0000 -0.0379 0.9993
vn 0.0000 -0.0379 -0.9993
vn 1.0000 0.0000 0.0000
vn -1.0000 0.0000 0.0000
vn 0.0384 0.0000 -0.9993
vn -0.0445 -0.9990 0.0000
vn -0.0384 0.0000 0.9993
vn 0.0445 -0.9990 0.0000
vn 0.0384 0.0000 0.9993
vn -0.0384 0.0000 -0.9993
usemtl Material.001
s off
f 1/1/1 2/2/1 4/3/1 3/4/1
f 3/5/2 4/6/2 8/7/2 7/8/2
f 7/9/3 8/10/3 6/11/3 5/12/3
f 5/13/4 6/14/4 2/15/4 1/16/4
f 12/17/5 11/18/5 15/19/5 16/20/5
f 9/21/6 10/22/6 22/23/6 21/24/6
f 11/25/7 12/26/7 24/27/7 23/28/7
f 2/29/8 6/30/8 12/31/8 9/32/8
f 8/33/9 4/34/9 10/35/9 11/36/9
f 15/37/10 14/38/10 13/39/10 16/40/10
f 10/41/11 9/42/11 13/43/11 14/44/11
f 9/45/12 12/46/12 16/47/12 13/48/12
f 11/49/13 10/50/13 14/51/13 15/52/13
f 20/53/14 19/54/14 23/55/14 24/56/14
f 18/57/15 17/58/15 21/59/15 22/60/15
f 10/35/16 4/34/16 18/61/16 22/62/16
f 6/63/17 8/7/17 19/64/17 20/65/17
f 12/31/18 6/30/18 20/66/18 24/67/18
f 4/68/19 2/69/19 17/70/19 18/71/19
f 2/29/20 9/32/20 21/72/20 17/73/20
f 8/33/21 11/36/21 23/74/21 19/75/21
