# Blender v2.93.5 OBJ File: 'Modular Graveyard.blend'
# www.blender.org
mtllib CTomb.mtl
o CTomb_Cube.016
v 0.190377 1.037197 -0.101625
v 0.109373 1.216045 -0.101625
v 0.176421 1.120598 -0.101625
v 0.190377 1.037197 0.101626
v 0.176421 1.120598 0.101626
v 0.109373 1.216045 0.101626
v 0.333738 0.898019 0.101626
v 0.333738 0.898019 -0.101625
v 0.246705 1.014009 -0.101625
v 0.246705 1.014009 0.101626
v 0.400499 0.869470 -0.101625
v 0.280559 0.986348 -0.101625
v 0.280559 0.986348 0.101626
v 0.400499 0.869470 0.101626
v 0.362165 0.879474 0.101626
v 0.362165 0.879474 -0.101625
v 0.400499 0.754916 0.101626
v 0.400499 0.754916 -0.101625
v 0.370984 0.721727 0.101626
v 0.370984 0.721727 -0.101625
v 0.380471 0.740998 -0.101625
v 0.380471 0.740998 0.101626
v 0.370984 0.177403 0.101626
v 0.370984 0.177403 -0.101626
v 0.392066 0.152423 0.101626
v 0.392066 0.152423 -0.101626
v 0.392066 -0.000202 0.101626
v 0.392066 -0.000202 -0.101626
v 0.000000 1.276265 0.101626
v 0.000000 1.276265 -0.101625
v -0.190377 1.037197 -0.101625
v -0.109373 1.216045 -0.101625
v -0.176421 1.120598 -0.101625
v -0.190377 1.037197 0.101626
v -0.176421 1.120598 0.101626
v -0.109373 1.216045 0.101626
v -0.333738 0.898019 0.101626
v -0.333738 0.898019 -0.101625
v -0.246705 1.014009 -0.101625
v -0.246705 1.014009 0.101626
v -0.400499 0.869470 -0.101625
v -0.280559 0.986348 -0.101625
v -0.280559 0.986348 0.101626
v -0.400499 0.869470 0.101626
v -0.362165 0.879474 0.101626
v -0.362165 0.879474 -0.101625
v -0.400499 0.754916 0.101626
v -0.400499 0.754916 -0.101625
v -0.370984 0.721727 0.101626
v -0.370984 0.721727 -0.101625
v -0.380471 0.740998 -0.101625
v -0.380471 0.740998 0.101626
v -0.370984 0.177403 0.101626
v -0.370984 0.177403 -0.101626
v -0.392066 0.152423 0.101626
v -0.392066 0.152423 -0.101626
v -0.392066 -0.000202 0.101626
v -0.392066 -0.000202 -0.101626
vt 0.179688 0.871094
vt 0.179688 0.851562
vt 0.156250 0.851562
vt 0.156250 0.871094
vt 0.234375 0.871094
vt 0.234375 0.851562
vt 0.210938 0.851562
vt 0.210938 0.871094
vt 0.226562 0.871094
vt 0.226562 0.851562
vt 0.203125 0.851562
vt 0.203125 0.871094
vt 0.195312 0.851562
vt 0.195312 0.871094
vt 0.218750 0.871094
vt 0.218750 0.851562
vt 0.187500 0.871094
vt 0.187500 0.851562
vt 0.242188 0.988281
vt 0.242188 0.992188
vt 0.242188 0.984375
vt 0.242188 0.984375
vt 0.234375 0.917969
vt 0.226562 0.929688
vt 0.140625 0.929688
vt 0.132812 0.917969
vt 0.148438 0.851562
vt 0.148438 0.871094
vt 0.156250 0.871094
vt 0.156250 0.851562
vt 0.140625 0.925781
vt 0.140625 0.921875
vt 0.140625 0.921875
vt 0.140625 0.929688
vt 0.140625 0.851562
vt 0.140625 0.871094
vt 0.140625 0.992188
vt 0.140625 0.988281
vt 0.140625 0.984375
vt 0.140625 0.984375
vt 0.179688 0.871094
vt 0.179688 0.851562
vt 0.187500 0.851562
vt 0.187500 0.871094
vt 0.187500 0.871094
vt 0.187500 0.851562
vt 0.156250 0.976562
vt 0.140625 0.976562
vt 0.226562 0.976562
vt 0.203125 0.976562
vt 0.132812 0.851562
vt 0.132812 0.871094
vt 0.242188 0.871094
vt 0.242188 0.851562
vt 0.140625 0.886719
vt 0.179688 0.886719
vt 0.179688 0.882812
vt 0.140625 0.882812
vt 0.234375 0.894531
vt 0.195312 0.894531
vt 0.195312 0.878906
vt 0.234375 0.878906
vt 0.164062 0.992188
vt 0.195312 0.992188
vt 0.179688 0.996094
vt 0.132812 0.878906
vt 0.234375 0.878906
vt 0.132812 0.871094
vt 0.156250 0.871094
vt 0.156250 0.851562
vt 0.132812 0.851562
vt 0.179688 0.871094
vt 0.179688 0.851562
vt 0.132812 0.953125
vt 0.132812 0.949219
vt 0.242188 0.949219
vt 0.242188 0.953125
vt 0.210938 0.851562
vt 0.187500 0.851562
vt 0.187500 0.871094
vt 0.210938 0.871094
vt 0.140625 0.976562
vt 0.226562 0.976562
vt 0.226562 0.851562
vt 0.218750 0.851562
vt 0.218750 0.871094
vt 0.226562 0.871094
vt 0.234375 0.968750
vt 0.140625 0.968750
vt 0.179688 0.851562
vt 0.171875 0.851562
vt 0.171875 0.871094
vt 0.179688 0.871094
vt 0.140625 0.992188
vt 0.140625 0.980469
vt 0.226562 0.929688
vt 0.226562 0.921875
vt 0.226562 0.925781
vt 0.226562 0.921875
vt 0.242188 0.980469
vt 0.242188 0.992188
vt 0.148438 0.851562
vt 0.148438 0.871094
vt 0.242188 0.851562
vt 0.242188 0.851562
vt 0.242188 0.871094
vt 0.242188 0.871094
vt 0.242188 0.851562
vt 0.234375 0.851562
vt 0.234375 0.871094
vt 0.242188 0.871094
vt 0.132812 0.851562
vt 0.132812 0.871094
vt 0.140625 0.941406
vt 0.242188 0.941406
vt 0.140625 0.882812
vt 0.140625 0.886719
vt 0.179688 0.886719
vt 0.179688 0.882812
vt 0.242188 0.953125
vt 0.132812 0.953125
vt 0.132812 0.949219
vt 0.242188 0.949219
vt 0.234375 0.894531
vt 0.234375 0.878906
vt 0.195312 0.878906
vt 0.195312 0.894531
vt 0.132812 0.941406
vt 0.242188 0.941406
vt 0.242188 0.957031
vt 0.132812 0.957031
vt 0.242188 0.957031
vt 0.132812 0.957031
vt 0.132812 0.941406
vt 0.242188 0.941406
vt 0.226562 0.964844
vt 0.226562 0.964844
vt 0.140625 0.964844
vt 0.140625 0.964844
vt 0.156250 0.984375
vt 0.203125 0.984375
vt 0.156250 0.964844
vt 0.210938 0.964844
vt 0.156250 0.972656
vt 0.210938 0.972656
vt 0.234375 0.957031
vt 0.132812 0.957031
vt 0.164062 0.976562
vt 0.203125 0.976562
vt 0.187500 0.984375
vn 0.9863 0.1650 0.0000
vn 0.9253 0.3793 0.0000
vn 0.6675 0.7446 -0.0000
vn 0.4823 0.8760 -0.0000
vn 0.7559 0.6547 0.0000
vn 0.7198 0.6942 0.0000
vn 0.3807 0.9247 0.0000
vn 0.5122 0.8588 0.0000
vn 0.0000 0.0000 -1.0000
vn 0.0000 -0.0000 1.0000
vn 0.4047 0.9144 0.0000
vn 0.2525 0.9676 0.0000
vn 1.0000 0.0000 0.0000
vn 0.7580 -0.6522 0.0000
vn 0.9740 -0.2267 0.0000
vn 0.5706 -0.8212 0.0000
vn 0.9392 0.3434 0.0000
vn -0.9863 0.1650 0.0000
vn -0.9253 0.3793 0.0000
vn -0.6675 0.7446 0.0000
vn -0.4823 0.8760 0.0000
vn -0.7559 0.6547 0.0000
vn -0.7198 0.6942 0.0000
vn -0.3807 0.9247 0.0000
vn -0.5122 0.8588 0.0000
vn -0.4047 0.9144 0.0000
vn -0.2525 0.9676 0.0000
vn -1.0000 0.0000 0.0000
vn -0.7580 -0.6522 0.0000
vn -0.9740 -0.2267 0.0000
vn -0.5706 -0.8212 0.0000
vn -0.9392 0.3434 0.0000
usemtl Material.001
s 1
f 4/1/1 1/2/1 3/3/2 5/4/2
f 5/5/2 3/6/2 2/7/3 6/8/3
f 6/9/3 2/10/3 30/11/4 29/12/4
f 12/13/5 13/14/5 7/15/6 8/16/6
f 1/2/7 4/1/7 10/17/8 9/18/8
f 41/19/9 46/20/9 51/21/9 48/22/9
f 9/18/8 10/17/8 13/14/5 12/13/5
f 19/23/10 7/24/10 37/25/10 49/26/10
f 16/27/11 15/28/11 14/29/12 11/30/12
f 44/31/10 47/32/10 52/33/10 45/34/10
f 8/35/6 7/36/6 15/28/11 16/27/11
f 16/37/9 11/38/9 18/39/9 21/40/9
f 11/30/13 14/29/13 17/41/13 18/42/13
f 21/43/14 22/44/14 19/45/15 20/46/15
f 34/47/10 40/48/10 10/49/10 4/50/10
f 18/42/16 17/41/16 22/44/14 21/43/14
f 20/51/15 19/52/15 23/53/17 24/54/17
f 24/55/17 23/56/17 25/57/17 26/58/17
f 26/59/17 25/60/17 27/61/13 28/62/13
f 36/63/10 6/64/10 29/65/10
f 49/26/10 53/66/10 23/67/10 19/23/10
f 34/68/18 35/69/19 33/70/19 31/71/18
f 35/69/19 36/72/20 32/73/20 33/70/19
f 36/72/20 29/12/21 30/11/21 32/73/20
f 53/74/10 55/75/10 25/76/10 23/77/10
f 42/78/22 38/79/23 37/80/23 43/81/22
f 40/48/10 43/82/10 13/83/10 10/49/10
f 31/84/24 39/85/25 40/86/25 34/87/24
f 39/85/25 42/78/22 43/81/22 40/86/25
f 7/88/10 13/83/10 43/82/10 37/89/10
f 46/90/26 41/91/27 44/92/27 45/93/26
f 8/94/9 16/37/9 21/40/9 20/95/9
f 15/96/10 7/24/10 19/23/10 22/97/10
f 38/79/23 46/90/26 45/93/26 37/80/23
f 14/98/10 15/96/10 22/97/10 17/99/10
f 50/100/9 51/21/9 46/20/9 38/101/9
f 45/34/10 52/33/10 49/26/10 37/25/10
f 41/91/28 48/102/28 47/103/28 44/92/28
f 51/104/29 50/105/30 49/106/30 52/107/29
f 48/108/31 51/109/29 52/110/29 47/111/31
f 50/105/30 54/112/32 53/113/32 49/106/30
f 50/100/9 20/95/9 24/114/9 54/115/9
f 54/116/32 56/117/32 55/118/32 53/119/32
f 54/120/9 24/121/9 26/122/9 56/123/9
f 56/124/32 58/125/28 57/126/28 55/127/32
f 57/128/10 27/129/10 25/130/10 55/131/10
f 56/132/9 26/133/9 28/134/9 58/135/9
f 42/136/9 39/137/9 9/138/9 12/139/9
f 35/140/10 5/141/10 6/64/10 36/63/10
f 50/100/9 38/101/9 8/94/9 20/95/9
f 35/140/10 34/47/10 4/50/10 5/141/10
f 1/142/9 9/138/9 39/137/9 31/143/9
f 3/144/9 1/142/9 31/143/9 33/145/9
f 38/146/9 42/136/9 12/139/9 8/147/9
f 2/148/9 3/144/9 33/145/9 32/149/9
f 30/150/9 2/148/9 32/149/9
