# Blender v2.93.5 OBJ File: 'Modular Graveyard.blend'
# www.blender.org
mtllib CTombTall.mtl
o CTombTall_Cube.041
v 0.190377 1.271662 -0.101625
v 0.109373 1.450509 -0.101625
v 0.176421 1.355063 -0.101625
v 0.190377 1.271662 0.101626
v 0.176421 1.355063 0.101626
v 0.109373 1.450509 0.101626
v 0.333738 1.132484 0.101626
v 0.333738 1.132484 -0.101625
v 0.246705 1.248473 -0.101625
v 0.246705 1.248473 0.101626
v 0.400499 1.103934 -0.101625
v 0.280559 1.220812 -0.101625
v 0.280559 1.220812 0.101626
v 0.400499 1.103934 0.101626
v 0.362165 1.113938 0.101626
v 0.362165 1.113938 -0.101625
v 0.400499 0.989380 0.101626
v 0.400499 0.989380 -0.101625
v 0.370984 0.956192 0.101626
v 0.370984 0.956192 -0.101625
v 0.380471 0.975463 -0.101625
v 0.380471 0.975463 0.101626
v 0.370984 0.411868 0.101626
v 0.370984 0.411868 -0.101626
v 0.392066 0.386887 0.101626
v 0.392066 0.386887 -0.101626
v 0.392066 0.234262 0.101626
v 0.392066 0.234262 -0.101626
v 0.481321 0.206226 0.159067
v 0.481321 0.206226 -0.159067
v 0.481321 -0.000357 0.159067
v 0.481321 -0.000357 -0.159067
v 0.000000 1.510729 0.101626
v 0.000000 1.510729 -0.101625
v -0.190377 1.271662 -0.101625
v -0.109373 1.450509 -0.101625
v -0.176421 1.355063 -0.101625
v -0.190377 1.271662 0.101626
v -0.176421 1.355063 0.101626
v -0.109373 1.450509 0.101626
v -0.333738 1.132484 0.101626
v -0.333738 1.132484 -0.101625
v -0.246705 1.248473 -0.101625
v -0.246705 1.248473 0.101626
v -0.400499 1.103934 -0.101625
v -0.280559 1.220812 -0.101625
v -0.280559 1.220812 0.101626
v -0.400499 1.103934 0.101626
v -0.362165 1.113938 0.101626
v -0.362165 1.113938 -0.101625
v -0.400499 0.989380 0.101626
v -0.400499 0.989380 -0.101625
v -0.370984 0.956192 0.101626
v -0.370984 0.956192 -0.101625
v -0.380471 0.975463 -0.101625
v -0.380471 0.975463 0.101626
v -0.370984 0.411868 0.101626
v -0.370984 0.411868 -0.101626
v -0.392066 0.386887 0.101626
v -0.392066 0.386887 -0.101626
v -0.392066 0.234262 0.101626
v -0.392066 0.234262 -0.101626
v -0.481321 0.206226 0.159067
v -0.481321 0.206226 -0.159067
v -0.481321 -0.000357 0.159067
v -0.481321 -0.000357 -0.159067
vt 0.187500 0.871094
vt 0.187500 0.851562
vt 0.210938 0.851562
vt 0.210938 0.871094
vt 0.234375 0.851562
vt 0.234375 0.871094
vt 0.132812 0.871094
vt 0.132812 0.851562
vt 0.156250 0.851562
vt 0.156250 0.871094
vt 0.171875 0.851562
vt 0.171875 0.871094
vt 0.148438 0.871094
vt 0.148438 0.851562
vt 0.179688 0.871094
vt 0.179688 0.851562
vt 0.234375 0.984375
vt 0.234375 0.984375
vt 0.234375 0.976562
vt 0.234375 0.976562
vt 0.234375 0.980469
vt 0.226562 0.996094
vt 0.148438 0.996094
vt 0.140625 0.980469
vt 0.234375 0.851562
vt 0.234375 0.871094
vt 0.226562 0.871094
vt 0.226562 0.851562
vt 0.140625 0.933594
vt 0.140625 0.925781
vt 0.140625 0.925781
vt 0.140625 0.937500
vt 0.242188 0.851562
vt 0.242188 0.871094
vt 0.140625 0.984375
vt 0.140625 0.984375
vt 0.140625 0.976562
vt 0.140625 0.976562
vt 0.203125 0.871094
vt 0.203125 0.851562
vt 0.187500 0.851562
vt 0.187500 0.871094
vt 0.187500 0.871094
vt 0.187500 0.851562
vt 0.156250 0.976562
vt 0.140625 0.976562
vt 0.234375 0.976562
vt 0.210938 0.976562
vt 0.179688 0.851562
vt 0.179688 0.871094
vt 0.132812 0.851562
vt 0.132812 0.871094
vt 0.242188 0.871094
vt 0.242188 0.851562
vt 0.148438 0.851562
vt 0.148438 0.871094
vt 0.156250 0.871094
vt 0.156250 0.851562
vt 0.132812 0.890625
vt 0.242188 0.890625
vt 0.234375 0.878906
vt 0.140625 0.878906
vt 0.164062 0.851562
vt 0.164062 0.871094
vt 0.195312 0.871094
vt 0.195312 0.851562
vt 0.242188 0.871094
vt 0.132812 0.871094
vt 0.132812 0.855469
vt 0.242188 0.855469
vt 0.226562 0.871094
vt 0.171875 0.871094
vt 0.171875 0.855469
vt 0.226562 0.855469
vt 0.242188 0.871094
vt 0.132812 0.871094
vt 0.132812 0.855469
vt 0.242188 0.855469
vt 0.164062 0.890625
vt 0.210938 0.890625
vt 0.203125 0.878906
vt 0.171875 0.878906
vt 0.132812 0.890625
vt 0.242188 0.890625
vt 0.234375 0.878906
vt 0.140625 0.878906
vt 0.171875 0.992188
vt 0.203125 0.992188
vt 0.187500 0.996094
vt 0.132812 0.933594
vt 0.132812 0.890625
vt 0.234375 0.890625
vt 0.234375 0.933594
vt 0.226562 0.871094
vt 0.203125 0.871094
vt 0.203125 0.851562
vt 0.226562 0.851562
vt 0.179688 0.871094
vt 0.179688 0.851562
vt 0.140625 0.957031
vt 0.140625 0.957031
vt 0.234375 0.957031
vt 0.234375 0.957031
vt 0.148438 0.851562
vt 0.171875 0.851562
vt 0.171875 0.871094
vt 0.148438 0.871094
vt 0.140625 0.976562
vt 0.234375 0.976562
vt 0.132812 0.851562
vt 0.140625 0.851562
vt 0.140625 0.871094
vt 0.132812 0.871094
vt 0.242188 0.968750
vt 0.132812 0.968750
vt 0.179688 0.851562
vt 0.187500 0.851562
vt 0.187500 0.871094
vt 0.179688 0.871094
vt 0.140625 0.984375
vt 0.140625 0.972656
vt 0.234375 0.937500
vt 0.234375 0.937500
vt 0.234375 0.921875
vt 0.234375 0.925781
vt 0.234375 0.933594
vt 0.234375 0.925781
vt 0.234375 0.972656
vt 0.234375 0.984375
vt 0.132812 0.921875
vt 0.140625 0.937500
vt 0.210938 0.851562
vt 0.210938 0.871094
vt 0.218750 0.851562
vt 0.218750 0.851562
vt 0.218750 0.871094
vt 0.218750 0.871094
vt 0.226562 0.851562
vt 0.226562 0.871094
vt 0.242188 0.851562
vt 0.132812 0.851562
vt 0.132812 0.871094
vt 0.242188 0.871094
vt 0.234375 0.992188
vt 0.140625 0.992188
vt 0.140625 0.953125
vt 0.234375 0.953125
vt 0.234375 0.851562
vt 0.226562 0.851562
vt 0.226562 0.871094
vt 0.234375 0.871094
vt 0.140625 0.953125
vt 0.234375 0.953125
vt 0.210938 0.851562
vt 0.242188 0.851562
vt 0.242188 0.871094
vt 0.210938 0.871094
vt 0.140625 0.941406
vt 0.234375 0.941406
vt 0.171875 0.871094
vt 0.171875 0.855469
vt 0.226562 0.855469
vt 0.226562 0.871094
vt 0.210938 0.890625
vt 0.203125 0.878906
vt 0.171875 0.878906
vt 0.164062 0.890625
vt 0.140625 0.941406
vt 0.234375 0.941406
vt 0.226562 0.992188
vt 0.226562 0.992188
vt 0.148438 0.992188
vt 0.148438 0.992188
vt 0.164062 0.984375
vt 0.210938 0.984375
vt 0.164062 0.976562
vt 0.164062 0.992188
vt 0.210938 0.992188
vt 0.148438 0.984375
vt 0.148438 0.976562
vt 0.203125 0.976562
vt 0.203125 0.984375
vt 0.156250 0.992188
vt 0.195312 0.992188
vt 0.179688 0.996094
vn 0.9863 0.1650 0.0000
vn 0.9253 0.3793 0.0000
vn 0.6675 0.7446 -0.0000
vn 0.4823 0.8760 -0.0000
vn 0.7559 0.6547 0.0000
vn 0.7198 0.6942 0.0000
vn 0.3807 0.9247 0.0000
vn 0.5122 0.8588 0.0000
vn 0.0000 0.0000 -1.0000
vn 0.0000 -0.0000 1.0000
vn 0.4047 0.9144 0.0000
vn 0.2525 0.9676 0.0000
vn 1.0000 0.0000 0.0000
vn 0.7580 -0.6522 0.0000
vn 0.9740 -0.2267 0.0000
vn 0.5706 -0.8212 0.0000
vn 0.9392 0.3434 0.0000
vn 0.0000 0.8987 0.4386
vn 0.2997 0.9540 0.0000
vn 0.0000 0.8987 -0.4386
vn -0.9863 0.1650 0.0000
vn -0.9253 0.3793 0.0000
vn -0.6675 0.7446 0.0000
vn -0.4823 0.8760 0.0000
vn -0.7559 0.6547 0.0000
vn -0.7198 0.6942 0.0000
vn -0.3807 0.9247 0.0000
vn -0.5122 0.8588 0.0000
vn -0.4047 0.9144 0.0000
vn -0.2525 0.9676 0.0000
vn -1.0000 0.0000 0.0000
vn -0.7580 -0.6522 0.0000
vn -0.9740 -0.2267 0.0000
vn -0.5706 -0.8212 0.0000
vn -0.9392 0.3434 0.0000
vn -0.2997 0.9540 0.0000
usemtl Material.001
s 1
f 4/1/1 1/2/1 3/3/2 5/4/2
f 5/4/2 3/3/2 2/5/3 6/6/3
f 6/7/3 2/8/3 34/9/4 33/10/4
f 12/11/5 13/12/5 7/13/6 8/14/6
f 1/2/7 4/1/7 10/15/8 9/16/8
f 45/17/9 50/18/9 55/19/9 52/20/9
f 9/16/8 10/15/8 13/12/5 12/11/5
f 19/21/10 7/22/10 41/23/10 53/24/10
f 16/25/11 15/26/11 14/27/12 11/28/12
f 48/29/10 51/30/10 56/31/10 49/32/10
f 8/33/6 7/34/6 15/26/11 16/25/11
f 16/35/9 11/36/9 18/37/9 21/38/9
f 11/28/13 14/27/13 17/39/13 18/40/13
f 21/41/14 22/42/14 19/43/15 20/44/15
f 38/45/10 44/46/10 10/47/10 4/48/10
f 18/49/16 17/50/16 22/42/14 21/41/14
f 20/51/15 19/52/15 23/53/17 24/54/17
f 24/55/17 23/56/17 25/57/17 26/58/17
f 63/59/18 29/60/18 27/61/18 61/62/18
f 26/63/17 25/64/17 27/65/13 28/66/13
f 29/67/10 63/68/10 65/69/10 31/70/10
f 30/71/13 29/72/13 31/73/13 32/74/13
f 64/75/9 30/76/9 32/77/9 66/78/9
f 29/79/19 30/80/19 28/81/19 27/82/19
f 30/83/20 64/84/20 62/85/20 28/86/20
f 40/87/10 6/88/10 33/89/10
f 53/90/10 57/91/10 23/92/10 19/93/10
f 38/94/21 39/95/22 37/96/22 35/97/21
f 39/95/22 40/98/23 36/99/23 37/96/22
f 40/98/23 33/10/24 34/9/24 36/99/23
f 57/100/10 59/101/10 25/102/10 23/103/10
f 46/104/25 42/105/26 41/106/26 47/107/25
f 44/46/10 47/108/10 13/109/10 10/47/10
f 35/110/27 43/111/28 44/112/28 38/113/27
f 43/111/28 46/104/25 47/107/25 44/112/28
f 7/114/10 13/109/10 47/108/10 41/115/10
f 50/116/29 45/117/30 48/118/30 49/119/29
f 8/120/9 16/35/9 21/38/9 20/121/9
f 15/122/10 7/123/10 19/124/10 22/125/10
f 42/105/26 50/116/29 49/119/29 41/106/26
f 14/126/10 15/122/10 22/125/10 17/127/10
f 54/128/9 55/19/9 50/18/9 42/129/9
f 49/32/10 56/31/10 53/130/10 41/131/10
f 45/117/31 52/132/31 51/133/31 48/118/31
f 55/134/32 54/135/33 53/136/33 56/137/32
f 52/138/34 55/134/32 56/137/32 51/139/34
f 54/140/33 58/141/35 57/142/35 53/143/33
f 54/144/9 20/145/9 24/146/9 58/147/9
f 58/148/35 60/149/35 59/150/35 57/151/35
f 58/147/9 24/146/9 26/152/9 60/153/9
f 60/154/35 62/155/31 61/156/31 59/157/35
f 61/158/10 27/159/10 25/102/10 59/101/10
f 64/160/31 66/161/31 65/162/31 63/163/31
f 63/164/36 61/165/36 62/166/36 64/167/36
f 60/153/9 26/152/9 28/168/9 62/169/9
f 46/170/9 43/171/9 9/172/9 12/173/9
f 39/174/10 5/175/10 6/88/10 40/87/10
f 54/128/9 42/129/9 8/120/9 20/121/9
f 39/174/10 38/176/10 4/48/10 5/175/10
f 1/177/9 9/172/9 43/171/9 35/178/9
f 3/179/9 1/180/9 35/181/9 37/182/9
f 42/129/9 46/170/9 12/173/9 8/120/9
f 2/183/9 3/179/9 37/182/9 36/184/9
f 34/185/9 2/183/9 36/184/9
