# Blender v2.93.5 OBJ File: 'Modular Graveyard.blend'
# www.blender.org
mtllib SimpleTomb.mtl
o SimpleTomb_Cube.009
v -0.392914 0.000000 0.106973
v -0.392914 0.868574 0.106973
v -0.392914 0.000000 -0.106973
v -0.392914 0.868574 -0.106973
v 0.392914 0.000000 0.106973
v 0.392914 0.868574 0.106973
v 0.392914 0.000000 -0.106973
v 0.392914 0.868574 -0.106973
v -0.236070 1.057901 -0.106973
v 0.000000 1.104817 -0.106973
v -0.236070 1.057901 0.106973
v 0.000000 1.104817 0.106973
v 0.236070 1.057901 -0.106973
v 0.236070 1.057901 0.106973
vt 0.132812 0.976562
vt 0.187500 0.992188
vt 0.156250 0.988281
vt 0.242188 0.878906
vt 0.242188 0.933594
vt 0.132812 0.933594
vt 0.132812 0.878906
vt 0.132812 0.957031
vt 0.187500 0.972656
vt 0.148438 0.968750
vt 0.242188 0.941406
vt 0.242188 0.996094
vt 0.132812 0.996094
vt 0.132812 0.941406
vt 0.242188 0.976562
vt 0.218750 0.988281
vt 0.242188 0.957031
vt 0.226562 0.968750
vt 0.179688 0.871094
vt 0.132812 0.871094
vt 0.132812 0.847656
vt 0.179688 0.847656
vt 0.132812 0.847656
vt 0.179688 0.847656
vt 0.179688 0.871094
vt 0.132812 0.871094
vt 0.132812 0.847656
vt 0.179688 0.847656
vt 0.179688 0.871094
vt 0.132812 0.871094
vt 0.132812 0.847656
vt 0.179688 0.847656
vt 0.179688 0.871094
vt 0.132812 0.871094
vt 0.132812 0.847656
vt 0.179688 0.847656
vt 0.179688 0.871094
vt 0.132812 0.871094
vt 0.132812 0.847656
vt 0.179688 0.847656
vt 0.179688 0.871094
vt 0.132812 0.871094
vn -0.0000 0.0000 1.0000
vn 0.0000 0.0000 -1.0000
vn -0.7071 0.0000 0.7071
vn -0.7243 0.2610 0.6381
vn -0.7243 0.2610 -0.6381
vn -0.7071 0.0000 -0.7071
vn 0.7071 0.0000 -0.7071
vn 0.7243 0.2610 -0.6381
vn 0.7243 0.2610 0.6381
vn 0.7071 0.0000 0.7071
vn -0.3939 0.6607 -0.6389
vn -0.3939 0.6607 0.6389
vn 0.3939 0.6607 -0.6389
vn 0.0000 0.7461 -0.6657
vn 0.0000 0.7461 0.6657
vn 0.3939 0.6607 0.6389
usemtl Material.001
s off
f 2/1/1 12/2/1 11/3/1
f 5/4/1 6/5/1 2/6/1 1/7/1
f 8/8/2 10/9/2 13/10/2
f 3/11/2 4/12/2 8/13/2 7/14/2
f 6/15/1 14/16/1 12/2/1
f 2/1/1 6/15/1 12/2/1
f 4/17/2 9/18/2 10/9/2
f 8/8/2 4/17/2 10/9/2
s 1
f 1/19/3 2/20/4 4/21/5 3/22/6
f 7/23/7 8/24/8 6/25/9 5/26/10
f 9/27/11 4/28/5 2/29/4 11/30/12
f 13/31/13 10/32/14 12/33/15 14/34/16
f 10/35/14 9/36/11 11/37/12 12/38/15
f 8/39/8 13/40/13 14/41/16 6/42/9
