# Blender v2.93.5 OBJ File: 'Modular Graveyard.blend'
# www.blender.org
mtllib TombTall.mtl
o TombTall_Cube.044
v -0.394603 1.094270 -0.091566
v -0.394603 1.094270 0.091566
v -0.315687 1.192230 0.091566
v -0.315687 1.192230 -0.091566
v -0.025592 1.371571 -0.091566
v -0.025592 1.371571 0.091566
v -0.248321 1.192051 -0.091566
v -0.248321 1.192051 0.091566
v -0.192739 1.278930 -0.091566
v -0.102533 1.350236 -0.091566
v -0.328932 1.141067 -0.091566
v -0.102533 1.350236 0.091566
v -0.192739 1.278930 0.091566
v -0.328932 1.141067 0.091566
v -0.348710 1.117204 -0.091566
v -0.348710 1.117204 0.091566
v -0.317452 1.170038 0.091566
v -0.317452 1.170038 -0.091566
v 0.394603 1.094270 -0.091566
v 0.394603 1.094270 0.091566
v 0.315687 1.192230 0.091566
v 0.315687 1.192230 -0.091566
v 0.025592 1.371571 -0.091566
v 0.025592 1.371571 0.091566
v 0.248321 1.192051 -0.091566
v 0.248321 1.192051 0.091566
v 0.192739 1.278930 -0.091566
v 0.102533 1.350236 -0.091566
v 0.328932 1.141067 -0.091566
v 0.102533 1.350236 0.091566
v 0.192739 1.278930 0.091566
v 0.328932 1.141067 0.091566
v 0.348710 1.117204 -0.091566
v 0.348710 1.117204 0.091566
v 0.000000 1.373778 -0.091566
v 0.000000 1.373778 0.091566
v 0.317452 1.170038 0.091566
v 0.317452 1.170038 -0.091566
v 0.000000 1.350236 0.091566
v 0.000000 1.350236 -0.091566
v 0.394603 0.235209 0.091566
v 0.394603 0.235209 -0.091566
v 0.480745 0.204178 0.160761
v 0.480745 0.204178 -0.160761
v 0.480745 -0.003168 0.160761
v 0.480745 -0.003168 -0.160761
v -0.394603 0.235209 0.091566
v -0.394603 0.235209 -0.091566
v -0.480745 0.204178 0.160761
v -0.480745 0.204178 -0.160761
v -0.480745 -0.003168 0.160761
v -0.480745 -0.003168 -0.160761
vt 0.132812 0.851562
vt 0.132812 0.871094
vt 0.242188 0.871094
vt 0.242188 0.851562
vt 0.203125 0.851562
vt 0.203125 0.871094
vt 0.203125 0.871094
vt 0.203125 0.851562
vt 0.210938 0.980469
vt 0.203125 0.980469
vt 0.203125 0.980469
vt 0.234375 0.968750
vt 0.234375 0.968750
vt 0.234375 0.968750
vt 0.234375 0.976562
vt 0.148438 0.976562
vt 0.148438 0.976562
vt 0.234375 0.976562
vt 0.234375 0.976562
vt 0.242188 0.976562
vt 0.140625 0.976562
vt 0.148438 0.976562
vt 0.156250 0.851562
vt 0.156250 0.871094
vt 0.171875 0.871094
vt 0.171875 0.851562
vt 0.195312 0.980469
vt 0.203125 0.980469
vt 0.218750 0.871094
vt 0.218750 0.851562
vt 0.179688 0.976562
vt 0.226562 0.976562
vt 0.187500 0.871094
vt 0.187500 0.851562
vt 0.164062 0.851562
vt 0.164062 0.871094
vt 0.195312 0.871094
vt 0.195312 0.851562
vt 0.164062 0.851562
vt 0.164062 0.871094
vt 0.179688 0.851562
vt 0.179688 0.871094
vt 0.187500 0.871094
vt 0.187500 0.851562
vt 0.203125 0.980469
vt 0.179688 0.871094
vt 0.179688 0.851562
vt 0.234375 0.968750
vt 0.171875 0.968750
vt 0.171875 0.968750
vt 0.171875 0.968750
vt 0.226562 0.984375
vt 0.156250 0.984375
vt 0.195312 0.851562
vt 0.195312 0.871094
vt 0.148438 0.976562
vt 0.234375 0.976562
vt 0.171875 0.964844
vt 0.164062 0.964844
vt 0.242188 0.964844
vt 0.234375 0.964844
vt 0.242188 0.851562
vt 0.132812 0.851562
vt 0.132812 0.871094
vt 0.242188 0.871094
vt 0.242188 0.933594
vt 0.242188 0.878906
vt 0.132812 0.878906
vt 0.132812 0.933594
vt 0.148438 0.851562
vt 0.148438 0.851562
vt 0.148438 0.871094
vt 0.148438 0.871094
vt 0.148438 0.976562
vt 0.171875 0.968750
vt 0.148438 0.996094
vt 0.148438 0.941406
vt 0.226562 0.941406
vt 0.226562 0.996094
vt 0.164062 0.851562
vt 0.148438 0.851562
vt 0.148438 0.871094
vt 0.164062 0.871094
vt 0.132812 0.851562
vt 0.132812 0.871094
vt 0.187500 0.871094
vt 0.187500 0.851562
vt 0.218750 0.871094
vt 0.218750 0.851562
vt 0.171875 0.851562
vt 0.164062 0.851562
vt 0.164062 0.871094
vt 0.171875 0.871094
vt 0.187500 0.851562
vt 0.187500 0.871094
vt 0.156250 0.851562
vt 0.156250 0.871094
vt 0.203125 0.992188
vt 0.210938 0.992188
vt 0.195312 0.992188
vt 0.179688 0.992188
vt 0.195312 0.992188
vt 0.171875 0.992188
vt 0.234375 0.976562
vt 0.132812 0.871094
vt 0.242188 0.871094
vt 0.234375 0.859375
vt 0.140625 0.859375
vt 0.242188 0.957031
vt 0.132812 0.957031
vt 0.132812 0.941406
vt 0.242188 0.941406
vt 0.226562 0.957031
vt 0.171875 0.957031
vt 0.171875 0.941406
vt 0.226562 0.941406
vt 0.242188 0.957031
vt 0.132812 0.957031
vt 0.132812 0.941406
vt 0.242188 0.941406
vt 0.164062 0.871094
vt 0.210938 0.871094
vt 0.203125 0.859375
vt 0.171875 0.859375
vt 0.132812 0.871094
vt 0.242188 0.871094
vt 0.234375 0.859375
vt 0.140625 0.859375
vt 0.171875 0.957031
vt 0.171875 0.941406
vt 0.226562 0.941406
vt 0.226562 0.957031
vt 0.210938 0.871094
vt 0.203125 0.859375
vt 0.171875 0.859375
vt 0.164062 0.871094
vn -1.0000 0.0000 0.0000
vn -0.9740 0.2263 0.0000
vn -0.9969 0.0793 0.0000
vn 0.0000 0.0000 -1.0000
vn 0.0000 0.0000 1.0000
vn -0.4526 0.8917 0.0000
vn -0.1773 0.9842 0.0000
vn 0.0027 1.0000 0.0000
vn -0.7415 0.6710 0.0000
vn -0.8424 0.5389 0.0000
vn -0.4470 0.8945 0.0000
vn -0.6218 0.7831 0.0000
vn 0.0000 1.0000 0.0000
vn -0.8604 0.5096 0.0000
vn 1.0000 -0.0000 0.0000
vn 0.9740 0.2263 0.0000
vn 0.9969 0.0793 0.0000
vn 0.4526 0.8917 0.0000
vn 0.1773 0.9842 0.0000
vn -0.0027 1.0000 0.0000
vn 0.7415 0.6710 0.0000
vn 0.8424 0.5389 0.0000
vn 0.4470 0.8945 0.0000
vn 0.6218 0.7831 0.0000
vn 0.8604 0.5096 0.0000
vn 0.0000 0.9124 0.4092
vn 0.3389 0.9408 0.0000
vn 0.0000 0.9124 -0.4092
vn -0.3389 0.9408 0.0000
usemtl Material.001
s 1
f 48/1/1 47/2/1 2/3/1 1/4/1
f 18/5/2 17/6/2 3/7/3 4/8/3
f 10/9/4 5/10/4 40/11/4
f 18/12/4 4/13/4 7/14/4
f 17/15/5 37/16/5 26/17/5 8/18/5
f 16/19/5 2/20/5 20/21/5 34/22/5
f 10/23/6 12/24/6 6/25/7 5/26/7
f 28/27/4 40/11/4 23/28/4
f 4/8/8 3/7/8 8/29/8 7/30/8
f 27/31/4 9/32/4 40/11/4
f 12/33/6 10/34/6 9/35/9 13/36/9
f 13/37/9 9/38/9 7/39/10 8/40/10
f 1/41/11 2/42/11 16/43/12 15/44/12
f 5/10/4 35/45/4 40/11/4
f 5/26/7 6/25/7 36/46/13 35/47/13
f 11/48/4 18/12/4 38/49/4 29/50/4
f 25/51/4 38/49/4 18/12/4 7/14/4
f 13/52/5 8/18/5 26/17/5 31/53/5
f 11/54/14 14/55/14 17/6/2 18/5/2
f 15/44/12 16/43/12 14/55/14 11/54/14
f 34/22/5 32/56/5 14/57/5 16/19/5
f 33/58/4 19/59/4 1/60/4 15/61/4
f 42/62/15 19/63/15 20/64/15 41/65/15
f 2/66/5 47/67/5 41/68/5 20/69/5
f 38/70/16 22/71/17 21/72/17 37/73/16
f 37/16/5 21/74/5 26/17/5
f 17/15/5 14/57/5 32/56/5 37/16/5
f 25/51/4 22/75/4 38/49/4
f 19/76/4 42/77/4 48/78/4 1/79/4
f 28/80/18 23/81/19 24/82/19 30/83/18
f 22/71/20 25/84/20 26/85/20 21/72/20
f 30/83/18 31/86/21 27/87/21 28/80/18
f 31/86/21 26/88/22 25/89/22 27/87/21
f 19/90/23 33/91/24 34/92/24 20/93/23
f 40/11/4 35/45/4 23/28/4
f 23/94/19 35/47/13 36/46/13 24/95/19
f 29/96/25 38/70/16 37/73/16 32/97/25
f 33/91/24 29/96/25 32/97/25 34/92/24
f 6/98/5 12/99/5 39/100/5
f 24/101/5 36/102/5 39/100/5
f 30/103/5 24/101/5 39/100/5
f 36/102/5 6/98/5 39/100/5
f 30/103/5 39/100/5 31/53/5
f 9/32/4 10/9/4 40/11/4
f 31/53/5 39/100/5 13/52/5
f 27/31/4 40/11/4 28/27/4
f 7/14/4 9/32/4 27/31/4 25/51/4
f 39/100/5 12/99/5 13/52/5
f 3/104/5 17/15/5 8/18/5
f 15/61/4 11/48/4 29/50/4 33/58/4
f 49/105/26 43/106/26 41/107/26 47/108/26
f 43/109/5 49/110/5 51/111/5 45/112/5
f 44/113/15 43/114/15 45/115/15 46/116/15
f 50/117/4 44/118/4 46/119/4 52/120/4
f 43/121/27 44/122/27 42/123/27 41/124/27
f 44/125/28 50/126/28 48/127/28 42/128/28
f 50/129/1 52/130/1 51/131/1 49/132/1
f 49/133/29 47/134/29 48/135/29 50/136/29
