# Blender v2.93.5 OBJ File: 'Modular Graveyard.blend'
# www.blender.org
mtllib Tomb.mtl
o Tomb_Cube.027
v -0.394603 -0.000347 -0.091566
v -0.394603 -0.000347 0.091566
v -0.394603 0.858714 -0.091566
v -0.394603 0.858714 0.091566
v -0.315687 0.956674 0.091566
v -0.315687 0.956674 -0.091566
v -0.025592 1.136016 -0.091566
v -0.025592 1.136016 0.091566
v -0.248321 0.956495 -0.091566
v -0.248321 0.956495 0.091566
v -0.192739 1.043374 -0.091566
v -0.102533 1.114680 -0.091566
v -0.328932 0.905511 -0.091566
v -0.102533 1.114680 0.091566
v -0.192739 1.043374 0.091566
v -0.328932 0.905511 0.091566
v -0.348710 0.881648 -0.091566
v -0.348710 0.881648 0.091566
v -0.317452 0.934482 0.091566
v -0.317452 0.934482 -0.091566
v 0.394603 -0.000347 -0.091566
v 0.394603 -0.000347 0.091566
v 0.394603 0.858714 -0.091566
v 0.394603 0.858714 0.091566
v 0.315687 0.956674 0.091566
v 0.315687 0.956674 -0.091566
v 0.025592 1.136016 -0.091566
v 0.025592 1.136016 0.091566
v 0.248321 0.956495 -0.091566
v 0.248321 0.956495 0.091566
v 0.192739 1.043374 -0.091566
v 0.102533 1.114680 -0.091566
v 0.328932 0.905511 -0.091566
v 0.102533 1.114680 0.091566
v 0.192739 1.043374 0.091566
v 0.328932 0.905511 0.091566
v 0.348710 0.881648 -0.091566
v 0.348710 0.881648 0.091566
v 0.000000 1.138222 -0.091566
v 0.000000 1.138222 0.091566
v 0.317452 0.934482 0.091566
v 0.317452 0.934482 -0.091566
v 0.000000 1.114680 0.091566
v 0.000000 1.114680 -0.091566
vt 0.132812 0.851562
vt 0.132812 0.871094
vt 0.242188 0.871094
vt 0.242188 0.851562
vt 0.203125 0.851562
vt 0.203125 0.871094
vt 0.203125 0.871094
vt 0.203125 0.851562
vt 0.210938 0.980469
vt 0.203125 0.980469
vt 0.203125 0.980469
vt 0.234375 0.968750
vt 0.234375 0.968750
vt 0.234375 0.968750
vt 0.234375 0.976562
vt 0.148438 0.976562
vt 0.148438 0.976562
vt 0.234375 0.976562
vt 0.234375 0.976562
vt 0.242188 0.976562
vt 0.140625 0.976562
vt 0.148438 0.976562
vt 0.156250 0.851562
vt 0.156250 0.871094
vt 0.171875 0.871094
vt 0.171875 0.851562
vt 0.195312 0.980469
vt 0.203125 0.980469
vt 0.218750 0.871094
vt 0.218750 0.851562
vt 0.179688 0.976562
vt 0.226562 0.976562
vt 0.187500 0.871094
vt 0.187500 0.851562
vt 0.164062 0.851562
vt 0.164062 0.871094
vt 0.195312 0.871094
vt 0.195312 0.851562
vt 0.164062 0.851562
vt 0.164062 0.871094
vt 0.179688 0.851562
vt 0.179688 0.871094
vt 0.187500 0.871094
vt 0.187500 0.851562
vt 0.203125 0.980469
vt 0.179688 0.871094
vt 0.179688 0.851562
vt 0.234375 0.968750
vt 0.171875 0.968750
vt 0.171875 0.968750
vt 0.171875 0.968750
vt 0.226562 0.984375
vt 0.156250 0.984375
vt 0.195312 0.851562
vt 0.195312 0.871094
vt 0.148438 0.976562
vt 0.234375 0.976562
vt 0.171875 0.964844
vt 0.164062 0.964844
vt 0.242188 0.964844
vt 0.234375 0.964844
vt 0.242188 0.851562
vt 0.132812 0.851562
vt 0.132812 0.871094
vt 0.242188 0.871094
vt 0.242188 0.929688
vt 0.242188 0.878906
vt 0.132812 0.878906
vt 0.132812 0.929688
vt 0.148438 0.851562
vt 0.148438 0.851562
vt 0.148438 0.871094
vt 0.148438 0.871094
vt 0.148438 0.976562
vt 0.171875 0.968750
vt 0.148438 0.984375
vt 0.148438 0.941406
vt 0.226562 0.941406
vt 0.226562 0.984375
vt 0.164062 0.851562
vt 0.148438 0.851562
vt 0.148438 0.871094
vt 0.164062 0.871094
vt 0.132812 0.851562
vt 0.132812 0.871094
vt 0.187500 0.871094
vt 0.187500 0.851562
vt 0.218750 0.871094
vt 0.218750 0.851562
vt 0.171875 0.851562
vt 0.164062 0.851562
vt 0.164062 0.871094
vt 0.171875 0.871094
vt 0.187500 0.851562
vt 0.187500 0.871094
vt 0.156250 0.851562
vt 0.156250 0.871094
vt 0.203125 0.992188
vt 0.210938 0.992188
vt 0.195312 0.992188
vt 0.179688 0.992188
vt 0.195312 0.992188
vt 0.171875 0.992188
vt 0.234375 0.976562
vn -1.0000 0.0000 0.0000
vn -0.9740 0.2263 0.0000
vn -0.9969 0.0793 0.0000
vn 0.0000 0.0000 -1.0000
vn 0.0000 0.0000 1.0000
vn -0.4526 0.8917 0.0000
vn -0.1773 0.9842 0.0000
vn 0.0027 1.0000 0.0000
vn -0.7415 0.6710 -0.0000
vn -0.8424 0.5389 -0.0000
vn -0.4470 0.8945 0.0000
vn -0.6218 0.7832 0.0000
vn 0.0000 1.0000 0.0000
vn -0.8604 0.5096 0.0000
vn 1.0000 -0.0000 0.0000
vn 0.9740 0.2263 0.0000
vn 0.9969 0.0793 0.0000
vn 0.4526 0.8917 0.0000
vn 0.1773 0.9842 0.0000
vn -0.0027 1.0000 0.0000
vn 0.7415 0.6710 -0.0000
vn 0.8424 0.5389 -0.0000
vn 0.4470 0.8945 0.0000
vn 0.6218 0.7832 0.0000
vn 0.8604 0.5096 0.0000
usemtl Material.001
s 1
f 1/1/1 2/2/1 4/3/1 3/4/1
f 20/5/2 19/6/2 5/7/3 6/8/3
f 12/9/4 7/10/4 44/11/4
f 20/12/4 6/13/4 9/14/4
f 19/15/5 41/16/5 30/17/5 10/18/5
f 18/19/5 4/20/5 24/21/5 38/22/5
f 12/23/6 14/24/6 8/25/7 7/26/7
f 32/27/4 44/11/4 27/28/4
f 6/8/8 5/7/8 10/29/8 9/30/8
f 31/31/4 11/32/4 44/11/4
f 14/33/6 12/34/6 11/35/9 15/36/9
f 15/37/9 11/38/9 9/39/10 10/40/10
f 3/41/11 4/42/11 18/43/12 17/44/12
f 7/10/4 39/45/4 44/11/4
f 7/26/7 8/25/7 40/46/13 39/47/13
f 13/48/4 20/12/4 42/49/4 33/50/4
f 29/51/4 42/49/4 20/12/4 9/14/4
f 15/52/5 10/18/5 30/17/5 35/53/5
f 13/54/14 16/55/14 19/6/2 20/5/2
f 17/44/12 18/43/12 16/55/14 13/54/14
f 38/22/5 36/56/5 16/57/5 18/19/5
f 37/58/4 23/59/4 3/60/4 17/61/4
f 21/62/15 23/63/15 24/64/15 22/65/15
f 4/66/5 2/67/5 22/68/5 24/69/5
f 42/70/16 26/71/17 25/72/17 41/73/16
f 41/16/5 25/74/5 30/17/5
f 19/15/5 16/57/5 36/56/5 41/16/5
f 29/51/4 26/75/4 42/49/4
f 23/76/4 21/77/4 1/78/4 3/79/4
f 32/80/18 27/81/19 28/82/19 34/83/18
f 26/71/20 29/84/20 30/85/20 25/72/20
f 34/83/18 35/86/21 31/87/21 32/80/18
f 35/86/21 30/88/22 29/89/22 31/87/21
f 23/90/23 37/91/24 38/92/24 24/93/23
f 44/11/4 39/45/4 27/28/4
f 27/94/19 39/47/13 40/46/13 28/95/19
f 33/96/25 42/70/16 41/73/16 36/97/25
f 37/91/24 33/96/25 36/97/25 38/92/24
f 8/98/5 14/99/5 43/100/5
f 28/101/5 40/102/5 43/100/5
f 34/103/5 28/101/5 43/100/5
f 40/102/5 8/98/5 43/100/5
f 34/103/5 43/100/5 35/53/5
f 11/32/4 12/9/4 44/11/4
f 35/53/5 43/100/5 15/52/5
f 31/31/4 44/11/4 32/27/4
f 9/14/4 11/32/4 31/31/4 29/51/4
f 43/100/5 14/99/5 15/52/5
f 5/104/5 19/15/5 10/18/5
f 17/61/4 13/48/4 33/50/4 37/58/4
