# Blender v2.93.5 OBJ File: 'Modular Graveyard.blend'
# www.blender.org
mtllib GateKeyL.mtl
o GateKeyL_Circle.024
v 1.781921 1.164664 -0.018812
v 1.781921 1.136727 -0.000141
v 1.560871 1.164664 -0.018813
v 1.560871 1.136727 -0.000142
v 1.781921 1.164664 0.018118
v 1.560871 1.164664 0.018117
v 1.560871 1.417921 0.018117
v 1.781921 1.417921 0.018118
v 1.560871 1.445858 -0.000142
v 1.560871 1.417921 -0.018813
v 1.781921 1.445858 -0.000141
v 1.781921 1.417921 -0.018812
v 1.807937 0.182211 0.018813
v 1.807937 0.210148 0.000141
v 1.807937 0.154274 0.000141
v 0.113965 0.182211 0.018813
v 0.113965 0.210148 0.000142
v 0.113965 0.154274 0.000142
v 1.807937 2.488618 0.018813
v 1.807937 2.516727 0.000141
v 1.807937 2.460542 0.000141
v 0.113965 2.251604 0.018813
v 0.113965 2.279541 0.000142
v 0.113965 2.223666 0.000142
v 1.306160 2.672247 -0.051993
v 1.306160 2.672247 0.052207
v 1.380013 2.661094 0.000107
v 1.232307 2.661094 0.000107
v 1.338414 2.578019 -0.030726
v 1.319516 2.884056 0.000107
v 1.338414 2.578019 0.030940
v 1.273906 2.578019 -0.030726
v 1.292804 2.884056 0.000107
v 1.273906 2.578019 0.030940
v 0.313932 2.407151 0.030940
v 0.332830 2.713188 0.000107
v 0.313932 2.407151 -0.030726
v 0.378439 2.407151 0.030940
v 0.359541 2.713188 0.000107
v 0.378439 2.407151 -0.030726
v 0.272333 2.490226 0.000107
v 0.420038 2.490226 0.000107
v 0.346186 2.501379 0.052207
v 0.346186 2.501379 -0.051993
v 1.021774 2.524860 0.030940
v 1.040672 2.830897 0.000107
v 1.021774 2.524860 -0.030726
v 1.086282 2.524860 0.030940
v 1.067384 2.830897 0.000107
v 1.086282 2.524860 -0.030726
v 0.980175 2.607935 0.000107
v 1.127881 2.607935 0.000107
v 1.054028 2.619089 0.052207
v 1.054028 2.619089 -0.051993
v 0.809257 2.565930 -0.051993
v 0.809257 2.565930 0.052207
v 0.883110 2.554776 0.000107
v 0.735404 2.554776 0.000107
v 0.841511 2.471701 -0.030726
v 0.822613 2.777738 0.000107
v 0.841511 2.471701 0.030940
v 0.777003 2.471701 -0.030726
v 0.795901 2.777738 0.000107
v 0.777003 2.471701 0.030940
v 0.550214 2.429933 0.030940
v 0.569112 2.735970 0.000107
v 0.550214 2.429933 -0.030726
v 0.614722 2.429933 0.030940
v 0.595824 2.735970 0.000107
v 0.614722 2.429933 -0.030726
v 0.508615 2.513009 0.000107
v 0.656321 2.513009 0.000107
v 0.582468 2.524162 0.052207
v 0.582468 2.524162 -0.051993
v 0.315669 -0.002187 0.000000
v 0.315669 2.413933 0.000000
v 0.346062 -0.002187 -0.030394
v 0.346062 2.413933 -0.030394
v 0.346062 -0.002187 0.030394
v 0.346062 2.413933 0.030394
v 0.376456 -0.002187 0.000000
v 0.376456 2.413933 0.000000
v 0.552144 -0.002187 0.000000
v 0.552144 2.436715 0.000000
v 0.582537 -0.002187 -0.030394
v 0.582537 2.436715 -0.030394
v 0.582537 -0.002187 0.030394
v 0.582537 2.436715 0.030394
v 0.612931 -0.002187 0.000000
v 0.612931 2.436715 0.000000
v 0.778823 -0.002187 0.000000
v 0.778823 2.478483 0.000000
v 0.809217 -0.002187 -0.030394
v 0.809217 2.478483 -0.030394
v 0.809217 -0.002187 0.030394
v 0.809217 2.478483 0.030394
v 0.839610 -0.002187 0.000000
v 0.839610 2.478483 0.000000
v 1.023636 -0.002187 0.000000
v 1.023636 2.531642 0.000000
v 1.054030 -0.002187 -0.030394
v 1.054030 2.531642 -0.030394
v 1.054030 -0.002187 0.030394
v 1.054030 2.531642 0.030394
v 1.084424 -0.002187 0.000000
v 1.084424 2.531642 0.000000
v 1.275704 -0.002187 0.000000
v 1.275704 2.584801 0.000000
v 1.306098 -0.002187 -0.030394
v 1.306098 2.584801 -0.030394
v 1.306098 -0.002187 0.030394
v 1.306098 2.584801 0.030394
v 1.336491 -0.002187 0.000000
v 1.336491 2.584801 0.000000
v 1.807937 2.488617 -0.018117
v 0.113965 2.251604 -0.018117
v 1.807937 0.182211 -0.018117
v 0.113965 0.182211 -0.018117
v 1.807937 2.287989 0.018813
v 1.807937 2.316067 0.000141
v 1.807937 2.259937 0.000141
v 0.113965 2.051604 0.018813
v 0.113965 2.079540 0.000142
v 0.113965 2.023666 0.000142
v 1.807937 2.287988 -0.018117
v 0.113965 2.051604 -0.018117
v 0.113965 0.359053 -0.018117
v 1.807937 0.359053 -0.018117
v 0.113965 0.331115 0.000142
v 0.113965 0.386990 0.000142
v 0.113965 0.359053 0.018813
v 1.807937 0.331115 0.000141
v 1.807937 0.386990 0.000141
v 1.807937 0.359053 0.018813
v 0.140777 2.496091 0.031713
v 0.140777 -0.002187 0.031713
v 0.077349 2.496091 0.031713
v 0.077349 -0.002187 0.031713
v 0.140776 2.496091 -0.031714
v 0.140776 -0.002187 -0.031714
v 0.077350 2.496091 -0.031714
v 0.077350 -0.002187 -0.031714
v 1.557424 2.721609 -0.051993
v 1.557424 2.721609 0.052207
v 1.631277 2.710456 0.000107
v 1.483571 2.710456 0.000107
v 1.589678 2.627381 -0.030726
v 1.570780 2.933418 0.000107
v 1.589678 2.627381 0.030940
v 1.525170 2.627381 -0.030726
v 1.544068 2.933418 0.000107
v 1.525170 2.627381 0.030940
v 1.777350 -0.002187 -0.031713
v 1.777350 2.979063 -0.031713
v 1.840776 -0.002187 -0.031714
v 1.840776 2.979063 -0.031714
v 1.777349 -0.002187 0.031713
v 1.777349 2.979063 0.031713
v 1.840777 -0.002187 0.031714
v 1.840777 2.979063 0.031714
v 1.527024 -0.002187 0.000000
v 1.527024 2.634163 0.000000
v 1.557418 -0.002187 -0.030394
v 1.557418 2.634163 -0.030394
v 1.557418 -0.002187 0.030394
v 1.557418 2.634163 0.030394
v 1.587812 -0.002187 0.000000
v 1.587812 2.634163 0.000000
v 1.244306 2.335102 0.000141
v 0.820813 2.262804 0.000142
v 0.397320 2.224275 0.000142
v 0.397320 2.251994 0.018813
v 0.820813 2.290691 0.018813
v 1.244306 2.363173 0.018813
v 1.244306 2.391327 0.000141
v 0.820813 2.318592 0.000142
v 0.397320 2.279799 0.000142
v 0.397320 2.251993 -0.018117
v 0.820813 2.290691 -0.018117
v 1.244306 2.363171 -0.018117
v 1.264326 2.137946 0.000141
v 0.840833 2.065647 0.000142
v 0.417340 2.027118 0.000142
v 0.417340 2.054838 0.018813
v 0.840833 2.093534 0.018813
v 1.264326 2.166016 0.018813
v 1.264326 2.194170 0.000141
v 0.840833 2.121436 0.000142
v 0.417340 2.082642 0.000142
v 0.417340 2.054836 -0.018117
v 0.840833 2.093534 -0.018117
v 1.264326 2.166014 -0.018117
v -0.002666 1.996354 -0.000000
v -0.002666 2.306917 -0.000000
v 0.037736 1.996354 -0.040402
v 0.037736 2.306917 -0.040402
v 0.037736 1.996354 0.040402
v 0.037736 2.306917 0.040402
v 0.078138 1.996354 -0.000000
v 0.078138 2.306917 -0.000000
v -0.002666 0.124949 -0.000000
v -0.002666 0.418193 -0.000000
v 0.037736 0.124949 -0.040402
v 0.037736 0.418193 -0.040402
v 0.037736 0.124949 0.040402
v 0.037736 0.418193 0.040402
v 0.078138 0.124949 -0.000000
v 0.078138 0.418193 -0.000000
vt 0.882812 0.464844
vt 0.859375 0.464844
vt 0.859375 0.433594
vt 0.882812 0.433594
vt 0.859375 0.433594
vt 0.882812 0.433594
vt 0.882812 0.464844
vt 0.859375 0.464844
vt 0.882812 0.464844
vt 0.859375 0.464844
vt 0.859375 0.433594
vt 0.882812 0.433594
vt 0.859375 0.433594
vt 0.882812 0.433594
vt 0.882812 0.464844
vt 0.859375 0.464844
vt 0.820312 0.359375
vt 0.867188 0.359375
vt 0.867188 0.386719
vt 0.820312 0.386719
vt 0.867188 0.359375
vt 0.867188 0.386719
vt 0.820312 0.386719
vt 0.820312 0.359375
vt 0.843750 0.386719
vt 0.843750 0.492188
vt 0.828125 0.492188
vt 0.828125 0.386719
vt 0.828125 0.492188
vt 0.828125 0.386719
vt 0.843750 0.386719
vt 0.843750 0.492188
vt 0.843750 0.386719
vt 0.843750 0.492188
vt 0.828125 0.492188
vt 0.828125 0.386719
vt 0.843750 0.468750
vt 0.843750 0.492188
vt 0.828125 0.492188
vt 0.828125 0.468750
vt 0.843750 0.468750
vt 0.843750 0.492188
vt 0.828125 0.492188
vt 0.828125 0.468750
vt 0.843750 0.468750
vt 0.843750 0.492188
vt 0.828125 0.492188
vt 0.828125 0.468750
vt 0.843750 0.503906
vt 0.828125 0.503906
vt 0.828125 0.492188
vt 0.843750 0.492188
vt 0.859375 0.472656
vt 0.882812 0.472656
vt 0.867188 0.484375
vt 0.882812 0.472656
vt 0.859375 0.472656
vt 0.867188 0.484375
vt 0.851562 0.484375
vt 0.867188 0.503906
vt 0.867188 0.503906
vt 0.859375 0.402344
vt 0.882812 0.402344
vt 0.859375 0.421875
vt 0.890625 0.484375
vt 0.882812 0.402344
vt 0.859375 0.421875
vt 0.859375 0.402344
vt 0.867188 0.484375
vt 0.867188 0.503906
vt 0.867188 0.503906
vt 0.867188 0.484375
vt 0.851562 0.484375
vt 0.882812 0.402344
vt 0.859375 0.421875
vt 0.859375 0.402344
vt 0.859375 0.472656
vt 0.882812 0.472656
vt 0.890625 0.484375
vt 0.859375 0.472656
vt 0.882812 0.472656
vt 0.859375 0.402344
vt 0.882812 0.402344
vt 0.859375 0.421875
vt 0.843750 0.503906
vt 0.828125 0.503906
vt 0.828125 0.492188
vt 0.843750 0.492188
vt 0.867188 0.484375
vt 0.867188 0.503906
vt 0.867188 0.503906
vt 0.867188 0.484375
vt 0.851562 0.484375
vt 0.882812 0.402344
vt 0.859375 0.421875
vt 0.859375 0.402344
vt 0.859375 0.472656
vt 0.882812 0.472656
vt 0.890625 0.484375
vt 0.859375 0.472656
vt 0.882812 0.472656
vt 0.859375 0.402344
vt 0.882812 0.402344
vt 0.859375 0.421875
vt 0.843750 0.503906
vt 0.828125 0.503906
vt 0.828125 0.492188
vt 0.843750 0.492188
vt 0.843750 0.503906
vt 0.828125 0.503906
vt 0.828125 0.492188
vt 0.843750 0.492188
vt 0.859375 0.472656
vt 0.882812 0.472656
vt 0.867188 0.484375
vt 0.882812 0.472656
vt 0.859375 0.472656
vt 0.867188 0.484375
vt 0.851562 0.484375
vt 0.867188 0.503906
vt 0.867188 0.503906
vt 0.859375 0.402344
vt 0.882812 0.402344
vt 0.859375 0.421875
vt 0.890625 0.484375
vt 0.882812 0.402344
vt 0.859375 0.421875
vt 0.859375 0.402344
vt 0.867188 0.484375
vt 0.867188 0.503906
vt 0.867188 0.503906
vt 0.867188 0.484375
vt 0.851562 0.484375
vt 0.882812 0.402344
vt 0.859375 0.421875
vt 0.859375 0.402344
vt 0.859375 0.472656
vt 0.882812 0.472656
vt 0.890625 0.484375
vt 0.859375 0.472656
vt 0.882812 0.472656
vt 0.859375 0.402344
vt 0.882812 0.402344
vt 0.859375 0.421875
vt 0.843750 0.503906
vt 0.828125 0.503906
vt 0.828125 0.492188
vt 0.843750 0.492188
vt 0.843750 0.328125
vt 0.843750 0.492188
vt 0.828125 0.492188
vt 0.828125 0.328125
vt 0.843750 0.328125
vt 0.843750 0.492188
vt 0.828125 0.492188
vt 0.828125 0.328125
vt 0.843750 0.328125
vt 0.843750 0.492188
vt 0.828125 0.492188
vt 0.828125 0.328125
vt 0.843750 0.328125
vt 0.843750 0.492188
vt 0.828125 0.492188
vt 0.828125 0.328125
vt 0.843750 0.328125
vt 0.843750 0.492188
vt 0.828125 0.492188
vt 0.828125 0.328125
vt 0.843750 0.328125
vt 0.843750 0.492188
vt 0.828125 0.492188
vt 0.828125 0.328125
vt 0.843750 0.328125
vt 0.843750 0.492188
vt 0.828125 0.492188
vt 0.828125 0.328125
vt 0.843750 0.328125
vt 0.843750 0.492188
vt 0.828125 0.492188
vt 0.828125 0.328125
vt 0.843750 0.328125
vt 0.843750 0.492188
vt 0.828125 0.492188
vt 0.828125 0.328125
vt 0.843750 0.328125
vt 0.843750 0.492188
vt 0.828125 0.492188
vt 0.828125 0.328125
vt 0.843750 0.328125
vt 0.843750 0.492188
vt 0.828125 0.492188
vt 0.828125 0.328125
vt 0.843750 0.328125
vt 0.843750 0.492188
vt 0.828125 0.492188
vt 0.828125 0.328125
vt 0.843750 0.328125
vt 0.843750 0.492188
vt 0.828125 0.492188
vt 0.828125 0.328125
vt 0.843750 0.328125
vt 0.843750 0.492188
vt 0.828125 0.492188
vt 0.828125 0.328125
vt 0.843750 0.328125
vt 0.843750 0.492188
vt 0.828125 0.492188
vt 0.828125 0.328125
vt 0.843750 0.328125
vt 0.843750 0.492188
vt 0.828125 0.492188
vt 0.828125 0.328125
vt 0.843750 0.328125
vt 0.843750 0.492188
vt 0.828125 0.492188
vt 0.828125 0.328125
vt 0.843750 0.328125
vt 0.843750 0.492188
vt 0.828125 0.492188
vt 0.828125 0.328125
vt 0.843750 0.328125
vt 0.843750 0.492188
vt 0.828125 0.492188
vt 0.828125 0.328125
vt 0.843750 0.328125
vt 0.843750 0.492188
vt 0.828125 0.492188
vt 0.828125 0.328125
vt 0.843750 0.468750
vt 0.843750 0.492188
vt 0.828125 0.492188
vt 0.828125 0.468750
vt 0.828125 0.492188
vt 0.828125 0.386719
vt 0.843750 0.386719
vt 0.843750 0.492188
vt 0.843750 0.468750
vt 0.843750 0.492188
vt 0.828125 0.492188
vt 0.828125 0.468750
vt 0.843750 0.468750
vt 0.843750 0.492188
vt 0.828125 0.492188
vt 0.828125 0.468750
vt 0.843750 0.468750
vt 0.843750 0.492188
vt 0.828125 0.492188
vt 0.828125 0.468750
vt 0.843750 0.468750
vt 0.843750 0.492188
vt 0.828125 0.492188
vt 0.828125 0.468750
vt 0.843750 0.386719
vt 0.843750 0.492188
vt 0.828125 0.492188
vt 0.828125 0.386719
vt 0.843750 0.386719
vt 0.843750 0.492188
vt 0.828125 0.492188
vt 0.828125 0.386719
vt 0.843750 0.386719
vt 0.843750 0.492188
vt 0.828125 0.492188
vt 0.828125 0.386719
vt 0.843750 0.386719
vt 0.843750 0.492188
vt 0.828125 0.492188
vt 0.828125 0.386719
vt 0.828125 0.503906
vt 0.828125 0.492188
vt 0.843750 0.492188
vt 0.843750 0.503906
vt 0.843750 0.492188
vt 0.843750 0.503906
vt 0.828125 0.503906
vt 0.828125 0.492188
vt 0.828125 0.492188
vt 0.828125 0.328125
vt 0.843750 0.328125
vt 0.843750 0.492188
vt 0.843750 0.328125
vt 0.843750 0.492188
vt 0.828125 0.492188
vt 0.828125 0.328125
vt 0.843750 0.328125
vt 0.843750 0.492188
vt 0.828125 0.492188
vt 0.828125 0.328125
vt 0.843750 0.328125
vt 0.843750 0.492188
vt 0.828125 0.492188
vt 0.828125 0.328125
vt 0.843750 0.503906
vt 0.828125 0.503906
vt 0.828125 0.492188
vt 0.843750 0.492188
vt 0.859375 0.472656
vt 0.882812 0.472656
vt 0.867188 0.484375
vt 0.882812 0.472656
vt 0.859375 0.472656
vt 0.867188 0.484375
vt 0.851562 0.484375
vt 0.867188 0.503906
vt 0.867188 0.503906
vt 0.859375 0.402344
vt 0.882812 0.402344
vt 0.859375 0.421875
vt 0.890625 0.484375
vt 0.882812 0.402344
vt 0.859375 0.421875
vt 0.859375 0.402344
vt 0.843750 0.328125
vt 0.843750 0.492188
vt 0.828125 0.492188
vt 0.828125 0.328125
vt 0.843750 0.328125
vt 0.843750 0.492188
vt 0.828125 0.492188
vt 0.828125 0.328125
vt 0.843750 0.328125
vt 0.843750 0.492188
vt 0.828125 0.492188
vt 0.828125 0.328125
vt 0.843750 0.328125
vt 0.828125 0.328125
vt 0.843750 0.328125
vt 0.843750 0.492188
vt 0.828125 0.492188
vt 0.828125 0.328125
vt 0.843750 0.328125
vt 0.843750 0.492188
vt 0.828125 0.492188
vt 0.828125 0.328125
vt 0.843750 0.328125
vt 0.843750 0.492188
vt 0.828125 0.492188
vt 0.828125 0.328125
vt 0.843750 0.328125
vt 0.843750 0.492188
vt 0.828125 0.492188
vt 0.828125 0.328125
vt 0.843750 0.386719
vt 0.843750 0.414062
vt 0.828125 0.414062
vt 0.828125 0.386719
vt 0.843750 0.445312
vt 0.828125 0.445312
vt 0.843750 0.386719
vt 0.843750 0.414062
vt 0.828125 0.414062
vt 0.828125 0.386719
vt 0.843750 0.445312
vt 0.828125 0.445312
vt 0.843750 0.386719
vt 0.843750 0.414062
vt 0.828125 0.414062
vt 0.828125 0.386719
vt 0.843750 0.445312
vt 0.828125 0.445312
vt 0.843750 0.386719
vt 0.843750 0.414062
vt 0.828125 0.414062
vt 0.828125 0.386719
vt 0.843750 0.445312
vt 0.828125 0.445312
vt 0.843750 0.386719
vt 0.843750 0.414062
vt 0.828125 0.414062
vt 0.828125 0.386719
vt 0.843750 0.445312
vt 0.828125 0.445312
vt 0.843750 0.386719
vt 0.843750 0.414062
vt 0.828125 0.414062
vt 0.828125 0.386719
vt 0.843750 0.445312
vt 0.828125 0.445312
vt 0.843750 0.386719
vt 0.843750 0.414062
vt 0.828125 0.414062
vt 0.828125 0.386719
vt 0.843750 0.445312
vt 0.828125 0.445312
vt 0.843750 0.386719
vt 0.843750 0.414062
vt 0.828125 0.414062
vt 0.828125 0.386719
vt 0.843750 0.445312
vt 0.828125 0.445312
vt 0.843750 0.468750
vt 0.843750 0.492188
vt 0.828125 0.492188
vt 0.828125 0.468750
vt 0.843750 0.468750
vt 0.843750 0.492188
vt 0.828125 0.492188
vt 0.828125 0.468750
vt 0.843750 0.468750
vt 0.843750 0.492188
vt 0.828125 0.492188
vt 0.828125 0.468750
vt 0.843750 0.468750
vt 0.843750 0.492188
vt 0.828125 0.492188
vt 0.828125 0.468750
vt 0.843750 0.503906
vt 0.828125 0.503906
vt 0.843750 0.503906
vt 0.828125 0.503906
vt 0.828125 0.492188
vt 0.843750 0.492188
vt 0.843750 0.468750
vt 0.843750 0.492188
vt 0.828125 0.492188
vt 0.828125 0.468750
vt 0.843750 0.468750
vt 0.843750 0.492188
vt 0.828125 0.492188
vt 0.828125 0.468750
vt 0.843750 0.468750
vt 0.843750 0.492188
vt 0.828125 0.492188
vt 0.828125 0.468750
vt 0.843750 0.468750
vt 0.843750 0.492188
vt 0.828125 0.492188
vt 0.828125 0.468750
vt 0.843750 0.503906
vt 0.828125 0.503906
vt 0.843750 0.503906
vt 0.828125 0.503906
vt 0.828125 0.492188
vt 0.843750 0.492188
vn 0.0000 -0.2903 -0.9569
vn 0.0000 -0.5557 -0.8314
vn -0.0000 -0.5471 0.8371
vn -0.0000 -0.2854 0.9584
vn 0.0000 0.5557 -0.8314
vn 0.0000 0.2903 -0.9569
vn -0.0000 0.2854 0.9584
vn -0.0000 0.5471 0.8371
vn 0.0000 -0.0000 1.0000
vn 0.0000 -0.5557 0.8314
vn -0.0000 0.0000 -1.0000
vn -0.0000 0.5471 -0.8371
vn 0.0000 0.5557 0.8314
vn 0.0015 -0.0163 0.9999
vn 0.0002 -0.0008 1.0000
vn 0.0010 -0.5572 0.8304
vn 0.0253 -0.5572 0.8300
vn 0.0015 -0.0160 -0.9999
vn 0.0002 -0.0008 -1.0000
vn -0.0006 0.5480 -0.8365
vn -0.0260 0.5479 -0.8361
vn -0.0264 0.5565 0.8304
vn -0.0006 0.5566 0.8308
vn 0.4717 -0.6779 -0.5638
vn 0.4717 -0.6779 0.5638
vn -0.4717 -0.6779 0.5638
vn -0.4717 -0.6779 -0.5638
vn -0.0000 0.0806 0.9968
vn -0.0000 0.0806 -0.9967
vn -0.9992 0.0407 0.0000
vn -0.1277 0.2293 -0.9649
vn 0.1277 0.2293 0.9649
vn -0.1277 0.2293 0.9649
vn 0.9992 0.0407 0.0000
vn 0.1277 0.2293 -0.9649
vn 0.0000 0.0806 -0.9968
vn 0.0000 0.0806 0.9967
vn -1.0000 0.0000 -0.0000
vn 0.7071 0.0000 -0.7071
vn 0.7071 0.0000 0.7071
vn -0.7071 0.0000 -0.7071
vn 1.0000 0.0000 0.0000
vn -0.7071 0.0000 0.7071
vn 0.0249 -0.5486 -0.8357
vn 0.0010 -0.5486 -0.8361
vn -0.0000 -0.5471 -0.8371
vn 0.0015 -0.0146 0.9999
vn 0.0002 -0.0041 1.0000
vn 0.0061 -0.5572 0.8304
vn 0.0278 -0.5571 0.8300
vn 0.0015 -0.0144 -0.9999
vn 0.0002 -0.0041 -1.0000
vn -0.0057 0.5480 -0.8365
vn -0.0285 0.5479 -0.8361
vn -0.0289 0.5565 0.8304
vn -0.0058 0.5566 0.8308
vn 0.0274 -0.5486 -0.8357
vn 0.0060 -0.5486 -0.8361
vn 0.5773 0.5774 -0.5774
vn -0.5774 0.5774 -0.5773
vn -0.5774 0.5773 0.5773
vn 0.5773 0.5773 0.5774
vn -0.5773 0.5774 -0.5774
vn -0.5774 0.5774 0.5773
vn 0.5774 0.5773 0.5774
vn 0.1205 -0.5413 -0.8322
vn 0.1053 -0.5429 -0.8332
vn 0.0034 -0.0088 -1.0000
vn -0.0167 0.0751 -0.9970
vn 0.0700 -0.5465 -0.8345
vn 0.0035 -0.0139 -0.9999
vn -0.1221 0.5489 0.8269
vn -0.1098 0.5503 0.8277
vn 0.0034 -0.0089 1.0000
vn -0.0170 0.0762 0.9969
vn -0.0743 0.5540 0.8292
vn 0.0035 -0.0141 0.9999
vn -0.1081 0.5419 -0.8335
vn -0.1203 0.5405 -0.8327
vn -0.0731 0.5455 -0.8349
vn 0.1070 -0.5513 0.8274
vn 0.1223 -0.5496 0.8264
vn 0.0711 -0.5550 0.8288
vn 0.1215 -0.5414 -0.8320
vn 0.1058 -0.5430 -0.8331
vn 0.0035 -0.0091 -1.0000
vn -0.0170 0.0757 -0.9970
vn -0.1231 0.5490 0.8267
vn -0.1104 0.5504 0.8276
vn 0.0036 -0.0092 1.0000
vn -0.0172 0.0769 0.9969
vn -0.1087 0.5419 -0.8334
vn -0.1213 0.5406 -0.8325
vn 0.1074 -0.5514 0.8273
vn 0.1234 -0.5497 0.8262
vn -0.8165 -0.5774 -0.0000
vn -0.8165 0.5774 -0.0000
vn 0.0000 0.5774 -0.8165
vn 0.0000 -0.5774 -0.8165
vn 0.8165 0.5774 0.0000
vn 0.8165 -0.5774 0.0000
vn 0.0000 0.5774 0.8165
vn 0.0000 -0.5774 0.8165
vn -0.8165 -0.5773 -0.0000
vn -0.5000 0.7071 0.5000
vn 0.0000 1.0000 0.0000
usemtl Material.001
s 1
f 1/1/1 2/2/2 4/3/2 3/4/1
f 2/5/3 5/6/4 6/7/4 4/8/3
f 11/9/5 12/10/6 10/11/6 9/12/5
f 8/13/7 11/14/8 9/15/8 7/16/7
f 1/17/1 3/18/1 10/19/6 12/20/6
f 5/21/4 8/22/7 7/23/7 6/24/4
f 13/25/9 16/26/9 18/27/10 15/28/10
f 117/29/11 118/30/11 17/31/12 14/32/12
f 14/33/13 17/34/13 16/35/9 13/36/9
f 172/37/14 22/38/15 24/39/16 171/40/17
f 178/41/18 116/42/19 23/43/20 177/44/21
f 177/45/22 23/46/23 22/47/15 172/48/14
f 29/49/24 31/50/25 34/51/26 32/52/27
f 34/53/26 31/54/25 26/55/28
f 29/56/24 32/57/27 25/58/29
f 28/59/30 33/60/31 25/58/29
f 30/61/32 33/60/33 26/55/28
f 31/62/25 29/63/24 27/64/34
f 27/65/34 30/61/32 26/55/28
f 31/54/25 27/65/34 26/55/28
f 32/57/27 28/59/30 25/58/29
f 27/65/34 25/58/29 30/61/35
f 29/56/24 25/58/29 27/65/34
f 34/53/26 26/55/28 28/59/30
f 34/66/26 28/67/30 32/68/27
f 26/55/28 33/60/33 28/59/30
f 25/58/29 33/60/31 30/61/35
f 44/69/36 36/70/31 39/71/35
f 43/72/37 36/70/33 41/73/30
f 35/74/26 41/75/30 37/76/27
f 35/77/26 43/72/37 41/73/30
f 40/78/24 44/69/36 42/79/34
f 42/79/34 44/69/36 39/71/35
f 37/80/27 41/73/30 44/69/36
f 38/81/25 42/79/34 43/72/37
f 42/79/34 39/71/32 43/72/37
f 38/82/25 40/83/24 42/84/34
f 39/71/32 36/70/33 43/72/37
f 41/73/30 36/70/31 44/69/36
f 40/78/24 37/80/27 44/69/36
f 35/77/26 38/81/25 43/72/37
f 40/85/24 38/86/25 35/87/26 37/88/27
f 54/89/29 46/90/31 49/91/35
f 53/92/37 46/90/33 51/93/30
f 45/94/26 51/95/30 47/96/27
f 45/97/26 53/92/37 51/93/30
f 50/98/24 54/89/29 52/99/34
f 52/99/34 54/89/29 49/91/35
f 47/100/27 51/93/30 54/89/29
f 48/101/25 52/99/34 53/92/37
f 52/99/34 49/91/32 53/92/37
f 48/102/25 50/103/24 52/104/34
f 49/91/32 46/90/33 53/92/37
f 51/93/30 46/90/31 54/89/29
f 50/98/24 47/100/27 54/89/29
f 45/97/26 48/101/25 53/92/37
f 50/105/24 48/106/25 45/107/26 47/108/27
f 59/109/24 61/110/25 64/111/26 62/112/27
f 64/113/26 61/114/25 56/115/37
f 59/116/24 62/117/27 55/118/29
f 58/119/30 63/120/31 55/118/29
f 60/121/32 63/120/33 56/115/37
f 61/122/25 59/123/24 57/124/34
f 57/125/34 60/121/32 56/115/37
f 61/114/25 57/125/34 56/115/37
f 62/117/27 58/119/30 55/118/29
f 57/125/34 55/118/29 60/121/35
f 59/116/24 55/118/29 57/125/34
f 64/113/26 56/115/37 58/119/30
f 64/126/26 58/127/30 62/128/27
f 56/115/37 63/120/33 58/119/30
f 55/118/29 63/120/31 60/121/35
f 74/129/36 66/130/31 69/131/35
f 73/132/37 66/130/33 71/133/30
f 65/134/26 71/135/30 67/136/27
f 65/137/26 73/132/37 71/133/30
f 70/138/24 74/129/36 72/139/34
f 72/139/34 74/129/36 69/131/35
f 67/140/27 71/133/30 74/129/36
f 68/141/25 72/139/34 73/132/37
f 72/139/34 69/131/32 73/132/37
f 68/142/25 70/143/24 72/144/34
f 69/131/32 66/130/33 73/132/37
f 71/133/30 66/130/31 74/129/36
f 70/138/24 67/140/27 74/129/36
f 65/137/26 68/141/25 73/132/37
f 70/145/24 68/146/25 65/147/26 67/148/27
f 75/149/38 76/150/38 78/151/11 77/152/11
f 77/153/11 78/154/11 82/155/39 81/156/39
f 81/157/40 82/158/40 80/159/9 79/160/9
f 79/161/9 80/162/9 76/163/38 75/164/38
f 83/165/41 84/166/41 86/167/11 85/168/11
f 85/169/11 86/170/11 90/171/42 89/172/42
f 89/173/42 90/174/42 88/175/9 87/176/9
f 87/177/9 88/178/9 84/179/43 83/180/43
f 91/181/41 92/182/41 94/183/41 93/184/41
f 93/185/39 94/186/39 98/187/42 97/188/42
f 97/189/42 98/190/42 96/191/40 95/192/40
f 95/193/43 96/194/43 92/195/43 91/196/43
f 99/197/41 100/198/41 102/199/41 101/200/41
f 101/201/39 102/202/39 106/203/42 105/204/42
f 105/205/42 106/206/42 104/207/40 103/208/40
f 103/209/43 104/210/43 100/211/43 99/212/43
f 107/213/41 108/214/41 110/215/41 109/216/41
f 109/217/39 110/218/39 114/219/42 113/220/42
f 113/221/42 114/222/42 112/223/40 111/224/40
f 111/225/43 112/226/43 108/227/43 107/228/43
f 171/229/44 24/230/45 116/231/19 178/232/18
f 15/233/46 18/234/46 118/235/11 117/236/11
f 184/237/47 122/238/48 124/239/49 183/240/50
f 190/241/51 126/242/52 123/243/53 189/244/54
f 189/245/55 123/246/56 122/247/48 184/248/47
f 183/249/57 124/250/58 126/251/52 190/252/51
f 133/253/13 130/254/13 131/255/9 134/256/9
f 128/257/11 127/258/11 130/259/12 133/260/12
f 132/261/46 129/262/46 127/263/11 128/264/11
f 134/265/9 131/266/9 129/267/10 132/268/10
f 156/269/59 154/270/60 158/271/61 160/272/62
f 139/273/59 141/274/63 137/275/64 135/276/65
f 140/277/39 139/278/59 135/279/65 136/280/42
f 142/281/41 141/282/63 139/283/59 140/284/39
f 138/285/43 137/286/64 141/287/63 142/288/41
f 136/289/9 135/290/65 137/291/64 138/292/43
f 147/293/24 149/294/25 152/295/26 150/296/27
f 152/297/26 149/298/25 144/299/37
f 147/300/24 150/301/27 143/302/29
f 146/303/30 151/304/31 143/302/29
f 148/305/32 151/304/33 144/299/37
f 149/306/25 147/307/24 145/308/34
f 145/309/34 148/305/32 144/299/37
f 149/298/25 145/309/34 144/299/37
f 150/301/27 146/303/30 143/302/29
f 145/309/34 143/302/29 148/305/35
f 147/300/24 143/302/29 145/309/34
f 152/297/26 144/299/37 146/303/30
f 152/310/26 146/311/30 150/312/27
f 144/299/37 151/304/33 146/303/30
f 143/302/29 151/304/31 148/305/35
f 153/313/41 154/314/60 156/315/59 155/316/39
f 155/317/39 156/318/59 160/319/62 159/320/42
f 159/321/9 160/322/62 158/323/61 157/324/43
f 157/325/43 158/271/61 154/270/60 153/326/41
f 161/327/41 162/328/41 164/329/11 163/330/11
f 163/331/11 164/332/11 168/333/39 167/334/39
f 167/335/40 168/336/40 166/337/9 165/338/9
f 165/339/9 166/340/9 162/341/43 161/342/43
f 21/343/66 169/344/67 180/345/68 115/346/69
f 169/344/67 170/347/70 179/348/71 180/345/68
f 170/347/70 171/229/44 178/232/18 179/348/71
f 20/349/72 175/350/73 174/351/74 19/352/75
f 175/350/73 176/353/76 173/354/77 174/351/74
f 176/353/76 177/45/22 172/48/14 173/354/77
f 115/355/69 180/356/68 175/357/78 20/358/79
f 180/356/68 179/359/71 176/360/80 175/357/78
f 179/359/71 178/41/18 177/44/21 176/360/80
f 19/361/75 174/362/74 169/363/81 21/364/82
f 174/362/74 173/365/77 170/366/83 169/363/81
f 173/365/77 172/37/14 171/40/17 170/366/83
f 121/367/84 181/368/85 192/369/86 125/370/87
f 181/368/85 182/371/70 191/372/71 192/369/86
f 182/371/70 183/249/57 190/252/51 191/372/71
f 120/373/88 187/374/89 186/375/90 119/376/91
f 187/374/89 188/377/76 185/378/77 186/375/90
f 188/377/76 189/245/55 184/248/47 185/378/77
f 125/379/87 192/380/86 187/381/92 120/382/93
f 192/380/86 191/383/71 188/384/80 187/381/92
f 191/383/71 190/241/51 189/244/54 188/384/80
f 119/385/91 186/386/90 181/387/94 121/388/95
f 186/386/90 185/389/77 182/390/83 181/387/94
f 185/389/77 184/237/47 183/240/50 182/390/83
f 193/391/96 194/392/97 196/393/98 195/394/99
f 195/395/99 196/396/98 200/397/100 199/398/101
f 199/399/101 200/400/100 198/401/102 197/402/103
f 197/403/103 198/404/102 194/405/97 193/406/96
f 196/393/98 194/392/97 198/407/102 200/408/100
f 193/409/96 195/410/99 199/411/101 197/412/103
f 201/413/104 202/414/41 204/415/41 203/416/99
f 203/417/99 204/418/39 208/419/100 207/420/101
f 207/421/101 208/422/100 206/423/102 205/424/103
f 205/425/103 206/426/102 202/427/105 201/428/104
f 204/415/106 202/414/105 206/429/102 208/430/100
f 201/431/104 203/432/99 207/433/101 205/434/103
