# Blender v2.93.5 OBJ File: 'Modular Graveyard.blend'
# www.blender.org
mtllib GateKeyR.mtl
o GateKeyR_Circle.025
v -1.781930 1.164664 -0.018812
v -1.781930 1.136727 -0.000141
v -1.560871 1.164664 -0.018813
v -1.560871 1.136727 -0.000142
v -1.781930 1.164664 0.018118
v -1.560871 1.164664 0.018117
v -1.560871 1.417921 0.018117
v -1.781930 1.417921 0.018118
v -1.560871 1.445858 -0.000142
v -1.560871 1.417921 -0.018813
v -1.781930 1.445858 -0.000141
v -1.781930 1.417921 -0.018812
v -1.807937 0.182211 0.018813
v -1.807937 0.210148 0.000141
v -1.807937 0.154274 0.000141
v -0.113965 0.182211 0.018813
v -0.113965 0.210148 0.000142
v -0.113965 0.154274 0.000142
v -1.807937 2.488618 0.018813
v -1.807937 2.516727 0.000141
v -1.807937 2.460542 0.000141
v -0.113965 2.251604 0.018813
v -0.113965 2.279541 0.000142
v -0.113965 2.223666 0.000142
v -1.306160 2.672247 -0.051993
v -1.306160 2.672247 0.052207
v -1.380013 2.661094 0.000107
v -1.232307 2.661094 0.000107
v -1.338414 2.578019 -0.030726
v -1.319516 2.884056 0.000107
v -1.338414 2.578019 0.030940
v -1.273906 2.578019 -0.030726
v -1.292804 2.884056 0.000107
v -1.273906 2.578019 0.030940
v -0.313932 2.407151 0.030940
v -0.332830 2.713188 0.000107
v -0.313932 2.407151 -0.030726
v -0.378439 2.407151 0.030940
v -0.359541 2.713188 0.000107
v -0.378439 2.407151 -0.030726
v -0.272333 2.490226 0.000107
v -0.420038 2.490226 0.000107
v -0.346186 2.501379 0.052207
v -0.346186 2.501379 -0.051993
v -1.021774 2.524860 0.030940
v -1.040672 2.830897 0.000107
v -1.021774 2.524860 -0.030726
v -1.086282 2.524860 0.030940
v -1.067384 2.830897 0.000107
v -1.086282 2.524860 -0.030726
v -0.980175 2.607935 0.000107
v -1.127881 2.607935 0.000107
v -1.054028 2.619089 0.052207
v -1.054028 2.619089 -0.051993
v -0.809257 2.565930 -0.051993
v -0.809257 2.565930 0.052207
v -0.883110 2.554776 0.000107
v -0.735404 2.554776 0.000107
v -0.841511 2.471701 -0.030726
v -0.822613 2.777738 0.000107
v -0.841511 2.471701 0.030940
v -0.777003 2.471701 -0.030726
v -0.795901 2.777738 0.000107
v -0.777003 2.471701 0.030940
v -0.550214 2.429933 0.030940
v -0.569112 2.735970 0.000107
v -0.550214 2.429933 -0.030726
v -0.614722 2.429933 0.030940
v -0.595824 2.735970 0.000107
v -0.614722 2.429933 -0.030726
v -0.508615 2.513009 0.000107
v -0.656321 2.513009 0.000107
v -0.582468 2.524162 0.052207
v -0.582468 2.524162 -0.051993
v -0.315669 -0.002187 0.000000
v -0.315669 2.413933 0.000000
v -0.346062 -0.002187 -0.030394
v -0.346062 2.413933 -0.030394
v -0.346062 -0.002187 0.030394
v -0.346062 2.413933 0.030394
v -0.376456 -0.002187 0.000000
v -0.376456 2.413933 0.000000
v -0.552144 -0.002187 0.000000
v -0.552144 2.436715 0.000000
v -0.582537 -0.002187 -0.030394
v -0.582537 2.436715 -0.030394
v -0.582537 -0.002187 0.030394
v -0.582537 2.436715 0.030394
v -0.612931 -0.002187 0.000000
v -0.612931 2.436715 0.000000
v -0.778823 -0.002187 0.000000
v -0.778823 2.478483 0.000000
v -0.809217 -0.002187 -0.030394
v -0.809217 2.478483 -0.030394
v -0.809217 -0.002187 0.030394
v -0.809217 2.478483 0.030394
v -0.839610 -0.002187 0.000000
v -0.839610 2.478483 0.000000
v -1.023636 -0.002187 0.000000
v -1.023636 2.531642 0.000000
v -1.054030 -0.002187 -0.030394
v -1.054030 2.531642 -0.030394
v -1.054030 -0.002187 0.030394
v -1.054030 2.531642 0.030394
v -1.084424 -0.002187 0.000000
v -1.084424 2.531642 0.000000
v -1.275704 -0.002187 0.000000
v -1.275704 2.584801 0.000000
v -1.306098 -0.002187 -0.030394
v -1.306098 2.584801 -0.030394
v -1.306098 -0.002187 0.030394
v -1.306098 2.584801 0.030394
v -1.336491 -0.002187 0.000000
v -1.336491 2.584801 0.000000
v -1.807937 2.488617 -0.018117
v -0.113965 2.251604 -0.018117
v -1.807937 0.182211 -0.018117
v -0.113965 0.182211 -0.018117
v -1.807937 2.287989 0.018813
v -1.807937 2.316067 0.000141
v -1.807937 2.259937 0.000141
v -0.113965 2.051604 0.018813
v -0.113965 2.079540 0.000142
v -0.113965 2.023666 0.000142
v -1.807937 2.287988 -0.018117
v -0.113965 2.051604 -0.018117
v -0.113965 0.359053 -0.018117
v -1.807937 0.359053 -0.018117
v -0.113965 0.331115 0.000142
v -0.113965 0.386990 0.000142
v -0.113965 0.359053 0.018813
v -1.807937 0.331115 0.000141
v -1.807937 0.386990 0.000141
v -1.807937 0.359053 0.018813
v -0.140777 2.496091 0.031713
v -0.140777 -0.002187 0.031713
v -0.077349 2.496091 0.031713
v -0.077349 -0.002187 0.031713
v -0.140776 2.496091 -0.031714
v -0.140776 -0.002187 -0.031714
v -0.077350 2.496091 -0.031714
v -0.077350 -0.002187 -0.031714
v -1.557424 2.721609 -0.051993
v -1.557424 2.721609 0.052207
v -1.631277 2.710456 0.000107
v -1.483571 2.710456 0.000107
v -1.589678 2.627381 -0.030726
v -1.570780 2.933418 0.000107
v -1.589678 2.627381 0.030940
v -1.525170 2.627381 -0.030726
v -1.544068 2.933418 0.000107
v -1.525170 2.627381 0.030940
v -1.777350 -0.002187 -0.031713
v -1.777350 2.979063 -0.031713
v -1.840776 -0.002187 -0.031714
v -1.840776 2.979063 -0.031714
v -1.777349 -0.002187 0.031713
v -1.777349 2.979063 0.031713
v -1.840777 -0.002187 0.031714
v -1.840777 2.979063 0.031714
v -1.527024 -0.002187 0.000000
v -1.527024 2.634163 0.000000
v -1.557418 -0.002187 -0.030394
v -1.557418 2.634163 -0.030394
v -1.557418 -0.002187 0.030394
v -1.557418 2.634163 0.030394
v -1.587812 -0.002187 0.000000
v -1.587812 2.634163 0.000000
v -1.244306 2.335102 0.000141
v -0.820813 2.262804 0.000142
v -0.397320 2.224275 0.000142
v -0.397320 2.251994 0.018813
v -0.820813 2.290691 0.018813
v -1.244306 2.363173 0.018813
v -1.244306 2.391327 0.000141
v -0.820813 2.318592 0.000142
v -0.397320 2.279799 0.000142
v -0.397320 2.251993 -0.018117
v -0.820813 2.290691 -0.018117
v -1.244306 2.363171 -0.018117
v -1.264326 2.137946 0.000141
v -0.840833 2.065647 0.000142
v -0.417340 2.027118 0.000142
v -0.417340 2.054838 0.018813
v -0.840833 2.093534 0.018813
v -1.264326 2.166016 0.018813
v -1.264326 2.194170 0.000141
v -0.840833 2.121436 0.000142
v -0.417340 2.082642 0.000142
v -0.417340 2.054836 -0.018117
v -0.840833 2.093534 -0.018117
v -1.264326 2.166014 -0.018117
v 0.002666 1.996354 -0.000000
v 0.002666 2.306917 -0.000000
v -0.037736 1.996354 -0.040402
v -0.037736 2.306917 -0.040402
v -0.037736 1.996354 0.040402
v -0.037736 2.306917 0.040402
v -0.078138 1.996354 -0.000000
v -0.078138 2.306917 -0.000000
v 0.002666 0.124949 -0.000000
v 0.002666 0.418193 -0.000000
v -0.037736 0.124949 -0.040402
v -0.037736 0.418193 -0.040402
v -0.037736 0.124949 0.040402
v -0.037736 0.418193 0.040402
v -0.078138 0.124949 -0.000000
v -0.078138 0.418193 -0.000000
vt 0.882812 0.433594
vt 0.882812 0.464844
vt 0.859375 0.464844
vt 0.859375 0.433594
vt 0.859375 0.464844
vt 0.859375 0.433594
vt 0.882812 0.433594
vt 0.882812 0.464844
vt 0.882812 0.433594
vt 0.882812 0.464844
vt 0.859375 0.464844
vt 0.859375 0.433594
vt 0.859375 0.464844
vt 0.859375 0.433594
vt 0.882812 0.433594
vt 0.882812 0.464844
vt 0.093750 0.769531
vt 0.023438 0.769531
vt 0.023438 0.808594
vt 0.093750 0.808594
vt 0.867188 0.359375
vt 0.867188 0.386719
vt 0.820312 0.386719
vt 0.820312 0.359375
vt 0.843750 0.492188
vt 0.828125 0.492188
vt 0.828125 0.386719
vt 0.843750 0.386719
vt 0.828125 0.386719
vt 0.843750 0.386719
vt 0.843750 0.492188
vt 0.828125 0.492188
vt 0.843750 0.492188
vt 0.828125 0.492188
vt 0.828125 0.386719
vt 0.843750 0.386719
vt 0.843750 0.386719
vt 0.828125 0.386719
vt 0.828125 0.386719
vt 0.843750 0.386719
vt 0.828125 0.468750
vt 0.843750 0.468750
vt 0.843750 0.492188
vt 0.828125 0.492188
vt 0.843750 0.386719
vt 0.828125 0.386719
vt 0.828125 0.386719
vt 0.843750 0.386719
vt 0.843750 0.492188
vt 0.843750 0.503906
vt 0.828125 0.503906
vt 0.828125 0.492188
vt 0.882812 0.472656
vt 0.867188 0.484375
vt 0.859375 0.472656
vt 0.859375 0.472656
vt 0.867188 0.484375
vt 0.882812 0.472656
vt 0.890625 0.484375
vt 0.867188 0.503906
vt 0.867188 0.503906
vt 0.882812 0.402344
vt 0.859375 0.421875
vt 0.859375 0.402344
vt 0.851562 0.484375
vt 0.859375 0.402344
vt 0.882812 0.402344
vt 0.859375 0.421875
vt 0.867188 0.484375
vt 0.867188 0.503906
vt 0.867188 0.503906
vt 0.867188 0.484375
vt 0.890625 0.484375
vt 0.859375 0.402344
vt 0.882812 0.402344
vt 0.859375 0.421875
vt 0.882812 0.472656
vt 0.859375 0.472656
vt 0.851562 0.484375
vt 0.882812 0.472656
vt 0.859375 0.472656
vt 0.882812 0.402344
vt 0.859375 0.421875
vt 0.859375 0.402344
vt 0.843750 0.492188
vt 0.843750 0.503906
vt 0.828125 0.503906
vt 0.828125 0.492188
vt 0.867188 0.484375
vt 0.867188 0.503906
vt 0.867188 0.503906
vt 0.867188 0.484375
vt 0.890625 0.484375
vt 0.859375 0.402344
vt 0.882812 0.402344
vt 0.859375 0.421875
vt 0.882812 0.472656
vt 0.859375 0.472656
vt 0.851562 0.484375
vt 0.882812 0.472656
vt 0.859375 0.472656
vt 0.882812 0.402344
vt 0.859375 0.421875
vt 0.859375 0.402344
vt 0.843750 0.492188
vt 0.843750 0.503906
vt 0.828125 0.503906
vt 0.828125 0.492188
vt 0.843750 0.492188
vt 0.843750 0.503906
vt 0.828125 0.503906
vt 0.828125 0.492188
vt 0.882812 0.472656
vt 0.867188 0.484375
vt 0.859375 0.472656
vt 0.859375 0.472656
vt 0.867188 0.484375
vt 0.882812 0.472656
vt 0.890625 0.484375
vt 0.867188 0.503906
vt 0.867188 0.503906
vt 0.882812 0.402344
vt 0.859375 0.421875
vt 0.859375 0.402344
vt 0.851562 0.484375
vt 0.859375 0.402344
vt 0.882812 0.402344
vt 0.859375 0.421875
vt 0.867188 0.484375
vt 0.867188 0.503906
vt 0.867188 0.503906
vt 0.867188 0.484375
vt 0.890625 0.484375
vt 0.859375 0.402344
vt 0.882812 0.402344
vt 0.859375 0.421875
vt 0.882812 0.472656
vt 0.859375 0.472656
vt 0.851562 0.484375
vt 0.882812 0.472656
vt 0.859375 0.472656
vt 0.882812 0.402344
vt 0.859375 0.421875
vt 0.859375 0.402344
vt 0.843750 0.492188
vt 0.843750 0.503906
vt 0.828125 0.503906
vt 0.828125 0.492188
vt 0.828125 0.328125
vt 0.843750 0.328125
vt 0.843750 0.492188
vt 0.828125 0.492188
vt 0.828125 0.328125
vt 0.843750 0.328125
vt 0.843750 0.492188
vt 0.828125 0.492188
vt 0.828125 0.328125
vt 0.843750 0.328125
vt 0.843750 0.492188
vt 0.828125 0.492188
vt 0.828125 0.328125
vt 0.843750 0.328125
vt 0.843750 0.492188
vt 0.828125 0.492188
vt 0.828125 0.328125
vt 0.843750 0.328125
vt 0.843750 0.492188
vt 0.828125 0.492188
vt 0.828125 0.328125
vt 0.843750 0.328125
vt 0.843750 0.492188
vt 0.828125 0.492188
vt 0.828125 0.328125
vt 0.843750 0.328125
vt 0.843750 0.492188
vt 0.828125 0.492188
vt 0.828125 0.328125
vt 0.843750 0.328125
vt 0.843750 0.492188
vt 0.828125 0.492188
vt 0.828125 0.328125
vt 0.843750 0.328125
vt 0.843750 0.492188
vt 0.828125 0.492188
vt 0.828125 0.328125
vt 0.843750 0.328125
vt 0.843750 0.492188
vt 0.828125 0.492188
vt 0.828125 0.328125
vt 0.843750 0.328125
vt 0.843750 0.492188
vt 0.828125 0.492188
vt 0.828125 0.328125
vt 0.843750 0.328125
vt 0.843750 0.492188
vt 0.828125 0.492188
vt 0.828125 0.328125
vt 0.843750 0.328125
vt 0.843750 0.492188
vt 0.828125 0.492188
vt 0.828125 0.328125
vt 0.843750 0.328125
vt 0.843750 0.492188
vt 0.828125 0.492188
vt 0.828125 0.328125
vt 0.843750 0.328125
vt 0.843750 0.492188
vt 0.828125 0.492188
vt 0.828125 0.328125
vt 0.843750 0.328125
vt 0.843750 0.492188
vt 0.828125 0.492188
vt 0.828125 0.328125
vt 0.843750 0.328125
vt 0.843750 0.492188
vt 0.828125 0.492188
vt 0.828125 0.328125
vt 0.843750 0.328125
vt 0.843750 0.492188
vt 0.828125 0.492188
vt 0.828125 0.328125
vt 0.843750 0.328125
vt 0.843750 0.492188
vt 0.828125 0.492188
vt 0.828125 0.328125
vt 0.843750 0.328125
vt 0.843750 0.492188
vt 0.828125 0.492188
vt 0.828125 0.468750
vt 0.843750 0.468750
vt 0.843750 0.492188
vt 0.828125 0.492188
vt 0.828125 0.386719
vt 0.843750 0.386719
vt 0.843750 0.492188
vt 0.828125 0.492188
vt 0.843750 0.386719
vt 0.828125 0.386719
vt 0.828125 0.386719
vt 0.843750 0.386719
vt 0.828125 0.468750
vt 0.843750 0.468750
vt 0.843750 0.492188
vt 0.828125 0.492188
vt 0.843750 0.386719
vt 0.828125 0.386719
vt 0.828125 0.386719
vt 0.843750 0.386719
vt 0.828125 0.468750
vt 0.843750 0.468750
vt 0.843750 0.492188
vt 0.828125 0.492188
vt 0.828125 0.386719
vt 0.843750 0.386719
vt 0.843750 0.492188
vt 0.828125 0.492188
vt 0.843750 0.492188
vt 0.828125 0.492188
vt 0.828125 0.386719
vt 0.843750 0.386719
vt 0.843750 0.492188
vt 0.828125 0.492188
vt 0.828125 0.386719
vt 0.843750 0.386719
vt 0.828125 0.386719
vt 0.843750 0.386719
vt 0.843750 0.492188
vt 0.828125 0.492188
vt 0.828125 0.492188
vt 0.843750 0.492188
vt 0.843750 0.503906
vt 0.828125 0.503906
vt 0.828125 0.492188
vt 0.843750 0.492188
vt 0.843750 0.503906
vt 0.828125 0.503906
vt 0.828125 0.328125
vt 0.843750 0.328125
vt 0.828125 0.328125
vt 0.843750 0.328125
vt 0.843750 0.492188
vt 0.828125 0.492188
vt 0.828125 0.328125
vt 0.843750 0.328125
vt 0.843750 0.492188
vt 0.828125 0.492188
vt 0.828125 0.328125
vt 0.843750 0.328125
vt 0.843750 0.492188
vt 0.828125 0.492188
vt 0.843750 0.492188
vt 0.843750 0.503906
vt 0.828125 0.503906
vt 0.828125 0.492188
vt 0.882812 0.472656
vt 0.867188 0.484375
vt 0.859375 0.472656
vt 0.859375 0.472656
vt 0.867188 0.484375
vt 0.882812 0.472656
vt 0.890625 0.484375
vt 0.867188 0.503906
vt 0.867188 0.503906
vt 0.882812 0.402344
vt 0.859375 0.421875
vt 0.859375 0.402344
vt 0.851562 0.484375
vt 0.859375 0.402344
vt 0.882812 0.402344
vt 0.859375 0.421875
vt 0.828125 0.328125
vt 0.843750 0.328125
vt 0.843750 0.492188
vt 0.828125 0.492188
vt 0.828125 0.328125
vt 0.843750 0.328125
vt 0.828125 0.328125
vt 0.843750 0.328125
vt 0.843750 0.492188
vt 0.828125 0.492188
vt 0.828125 0.328125
vt 0.843750 0.328125
vt 0.843750 0.492188
vt 0.828125 0.492188
vt 0.828125 0.328125
vt 0.843750 0.328125
vt 0.843750 0.492188
vt 0.828125 0.492188
vt 0.828125 0.328125
vt 0.843750 0.328125
vt 0.843750 0.492188
vt 0.828125 0.492188
vt 0.828125 0.328125
vt 0.843750 0.328125
vt 0.843750 0.492188
vt 0.828125 0.492188
vt 0.828125 0.328125
vt 0.843750 0.328125
vt 0.843750 0.492188
vt 0.828125 0.492188
vt 0.828125 0.386719
vt 0.843750 0.386719
vt 0.843750 0.414062
vt 0.828125 0.414062
vt 0.843750 0.445312
vt 0.828125 0.445312
vt 0.843750 0.492188
vt 0.828125 0.492188
vt 0.828125 0.445312
vt 0.843750 0.445312
vt 0.828125 0.414062
vt 0.843750 0.414062
vt 0.828125 0.386719
vt 0.843750 0.386719
vt 0.843750 0.414062
vt 0.828125 0.414062
vt 0.843750 0.445312
vt 0.828125 0.445312
vt 0.843750 0.492188
vt 0.828125 0.492188
vt 0.828125 0.445312
vt 0.843750 0.445312
vt 0.828125 0.414062
vt 0.843750 0.414062
vt 0.828125 0.386719
vt 0.843750 0.386719
vt 0.843750 0.414062
vt 0.828125 0.414062
vt 0.843750 0.445312
vt 0.828125 0.445312
vt 0.843750 0.492188
vt 0.828125 0.492188
vt 0.828125 0.445312
vt 0.843750 0.445312
vt 0.828125 0.414062
vt 0.843750 0.414062
vt 0.828125 0.386719
vt 0.843750 0.386719
vt 0.843750 0.414062
vt 0.828125 0.414062
vt 0.843750 0.445312
vt 0.828125 0.445312
vt 0.843750 0.492188
vt 0.828125 0.492188
vt 0.828125 0.445312
vt 0.843750 0.445312
vt 0.828125 0.414062
vt 0.843750 0.414062
vt 0.828125 0.468750
vt 0.843750 0.468750
vt 0.843750 0.492188
vt 0.828125 0.492188
vt 0.828125 0.468750
vt 0.843750 0.468750
vt 0.843750 0.492188
vt 0.828125 0.492188
vt 0.828125 0.468750
vt 0.843750 0.468750
vt 0.843750 0.492188
vt 0.828125 0.492188
vt 0.828125 0.468750
vt 0.843750 0.468750
vt 0.843750 0.492188
vt 0.828125 0.492188
vt 0.828125 0.503906
vt 0.843750 0.503906
vt 0.843750 0.492188
vt 0.843750 0.503906
vt 0.828125 0.503906
vt 0.828125 0.492188
vt 0.828125 0.468750
vt 0.843750 0.468750
vt 0.843750 0.492188
vt 0.828125 0.492188
vt 0.828125 0.468750
vt 0.843750 0.468750
vt 0.843750 0.492188
vt 0.828125 0.492188
vt 0.828125 0.468750
vt 0.843750 0.468750
vt 0.843750 0.492188
vt 0.828125 0.492188
vt 0.828125 0.468750
vt 0.843750 0.468750
vt 0.843750 0.492188
vt 0.828125 0.492188
vt 0.828125 0.503906
vt 0.843750 0.503906
vt 0.843750 0.492188
vt 0.843750 0.503906
vt 0.828125 0.503906
vt 0.828125 0.492188
vn -0.0000 -0.2903 -0.9569
vn -0.0000 -0.5557 -0.8314
vn 0.0000 -0.5471 0.8371
vn 0.0000 -0.2854 0.9584
vn -0.0000 0.5557 -0.8314
vn -0.0000 0.2903 -0.9569
vn 0.0000 0.2854 0.9584
vn 0.0000 0.5471 0.8371
vn -0.0000 -0.0000 1.0000
vn -0.0000 -0.5557 0.8314
vn 0.0000 0.0000 -1.0000
vn 0.0000 0.5471 -0.8371
vn -0.0000 0.5557 0.8314
vn -0.0015 -0.0163 0.9999
vn -0.0253 -0.5572 0.8300
vn -0.0010 -0.5572 0.8304
vn -0.0002 -0.0008 1.0000
vn -0.0015 -0.0160 -0.9999
vn 0.0260 0.5479 -0.8361
vn 0.0006 0.5480 -0.8365
vn -0.0002 -0.0008 -1.0000
vn 0.0264 0.5565 0.8304
vn 0.0006 0.5566 0.8308
vn -0.4717 -0.6779 -0.5638
vn 0.4717 -0.6779 -0.5638
vn 0.4717 -0.6779 0.5638
vn -0.4717 -0.6779 0.5638
vn 0.0000 0.0806 0.9968
vn 0.0000 0.0806 -0.9968
vn 0.9992 0.0407 0.0000
vn 0.1277 0.2293 -0.9649
vn -0.1277 0.2293 0.9649
vn 0.1277 0.2293 0.9649
vn -0.9992 0.0407 0.0000
vn -0.1277 0.2293 -0.9649
vn -0.0000 0.0806 0.9967
vn -0.0000 0.0806 -0.9967
vn 1.0000 0.0000 -0.0000
vn -0.7071 0.0000 -0.7071
vn -0.7071 0.0000 0.7071
vn 0.7071 0.0000 -0.7071
vn -1.0000 0.0000 0.0000
vn 0.7071 0.0000 0.7071
vn -0.0249 -0.5486 -0.8357
vn -0.0010 -0.5486 -0.8361
vn 0.0000 -0.5471 -0.8371
vn -0.0015 -0.0146 0.9999
vn -0.0278 -0.5571 0.8300
vn -0.0061 -0.5572 0.8304
vn -0.0002 -0.0041 1.0000
vn -0.0015 -0.0144 -0.9999
vn 0.0285 0.5479 -0.8361
vn 0.0057 0.5480 -0.8365
vn -0.0002 -0.0041 -1.0000
vn 0.0289 0.5565 0.8304
vn 0.0058 0.5566 0.8308
vn -0.0274 -0.5486 -0.8357
vn -0.0060 -0.5486 -0.8361
vn -0.5773 0.5774 -0.5774
vn -0.5773 0.5773 0.5774
vn 0.5774 0.5773 0.5773
vn 0.5774 0.5774 -0.5773
vn -0.7071 0.7071 -0.0000
vn 0.5774 0.5774 0.5773
vn 0.5773 0.5774 -0.5774
vn -0.1205 -0.5413 -0.8322
vn 0.0167 0.0751 -0.9970
vn -0.0034 -0.0088 -1.0000
vn -0.1053 -0.5429 -0.8332
vn -0.0035 -0.0139 -0.9999
vn -0.0700 -0.5465 -0.8345
vn 0.1221 0.5489 0.8269
vn 0.0170 0.0762 0.9969
vn -0.0034 -0.0089 1.0000
vn 0.1098 0.5503 0.8277
vn -0.0035 -0.0141 0.9999
vn 0.0743 0.5540 0.8292
vn 0.1203 0.5405 -0.8327
vn 0.1081 0.5419 -0.8335
vn 0.0731 0.5455 -0.8349
vn -0.1223 -0.5496 0.8264
vn -0.1070 -0.5513 0.8274
vn -0.0711 -0.5550 0.8288
vn -0.1215 -0.5414 -0.8320
vn 0.0170 0.0757 -0.9970
vn -0.0035 -0.0091 -1.0000
vn -0.1058 -0.5430 -0.8331
vn 0.1231 0.5490 0.8267
vn 0.0172 0.0769 0.9969
vn -0.0036 -0.0092 1.0000
vn 0.1104 0.5504 0.8276
vn 0.1213 0.5406 -0.8325
vn 0.1087 0.5419 -0.8334
vn -0.1234 -0.5497 0.8262
vn -0.1074 -0.5514 0.8273
vn 0.8165 -0.5774 -0.0000
vn -0.0000 -0.5774 -0.8165
vn -0.0000 0.5774 -0.8165
vn 0.8165 0.5774 -0.0000
vn -0.8165 -0.5774 0.0000
vn -0.8165 0.5774 0.0000
vn -0.0000 -0.5774 0.8165
vn -0.0000 0.5774 0.8165
vn 0.8165 -0.5773 -0.0000
vn 0.5000 0.7071 0.5000
vn 0.0000 1.0000 0.0000
usemtl Material.001
s 1
f 1/1/1 3/2/1 4/3/2 2/4/2
f 2/5/3 4/6/3 6/7/4 5/8/4
f 11/9/5 9/10/5 10/11/6 12/12/6
f 8/13/7 7/14/7 9/15/8 11/16/8
f 5/17/4 6/18/4 7/19/7 8/20/7
f 1/21/1 12/22/6 10/23/6 3/24/1
f 13/25/9 15/26/10 18/27/10 16/28/9
f 117/29/11 14/30/12 17/31/12 118/32/11
f 14/33/13 13/34/9 16/35/9 17/36/13
f 172/37/14 171/38/15 24/39/16 22/40/17
f 178/41/18 177/42/19 23/43/20 116/44/21
f 177/45/22 172/46/14 22/47/17 23/48/23
f 29/49/24 32/50/25 34/51/26 31/52/27
f 34/53/26 26/54/28 31/55/27
f 29/56/24 25/57/29 32/58/25
f 28/59/30 25/57/29 33/60/31
f 30/61/32 26/54/28 33/60/33
f 31/62/27 27/63/34 29/64/24
f 27/65/34 26/54/28 30/61/32
f 31/55/27 26/54/28 27/65/34
f 32/58/25 25/57/29 28/59/30
f 27/65/34 30/61/35 25/57/29
f 29/56/24 27/65/34 25/57/29
f 34/53/26 28/59/30 26/54/28
f 34/66/26 32/67/25 28/68/30
f 26/54/28 28/59/30 33/60/33
f 25/57/29 30/61/35 33/60/31
f 44/69/29 39/70/35 36/71/31
f 43/72/36 41/73/30 36/71/33
f 35/74/26 37/75/25 41/76/30
f 35/77/26 41/73/30 43/72/36
f 40/78/24 42/79/34 44/69/29
f 42/79/34 39/70/35 44/69/29
f 37/80/25 44/69/29 41/73/30
f 38/81/27 43/72/36 42/79/34
f 42/79/34 43/72/36 39/70/32
f 38/82/27 42/83/34 40/84/24
f 39/70/32 43/72/36 36/71/33
f 41/73/30 44/69/29 36/71/31
f 40/78/24 44/69/29 37/80/25
f 35/77/26 43/72/36 38/81/27
f 40/85/24 37/86/25 35/87/26 38/88/27
f 54/89/37 49/90/35 46/91/31
f 53/92/36 51/93/30 46/91/33
f 45/94/26 47/95/25 51/96/30
f 45/97/26 51/93/30 53/92/36
f 50/98/24 52/99/34 54/89/37
f 52/99/34 49/90/35 54/89/37
f 47/100/25 54/89/37 51/93/30
f 48/101/27 53/92/36 52/99/34
f 52/99/34 53/92/36 49/90/32
f 48/102/27 52/103/34 50/104/24
f 49/90/32 53/92/36 46/91/33
f 51/93/30 54/89/37 46/91/31
f 50/98/24 54/89/37 47/100/25
f 45/97/26 53/92/36 48/101/27
f 50/105/24 47/106/25 45/107/26 48/108/27
f 59/109/24 62/110/25 64/111/26 61/112/27
f 64/113/26 56/114/36 61/115/27
f 59/116/24 55/117/37 62/118/25
f 58/119/30 55/117/37 63/120/31
f 60/121/32 56/114/36 63/120/33
f 61/122/27 57/123/34 59/124/24
f 57/125/34 56/114/36 60/121/32
f 61/115/27 56/114/36 57/125/34
f 62/118/25 55/117/37 58/119/30
f 57/125/34 60/121/35 55/117/37
f 59/116/24 57/125/34 55/117/37
f 64/113/26 58/119/30 56/114/36
f 64/126/26 62/127/25 58/128/30
f 56/114/36 58/119/30 63/120/33
f 55/117/37 60/121/35 63/120/31
f 74/129/29 69/130/35 66/131/31
f 73/132/28 71/133/30 66/131/33
f 65/134/26 67/135/25 71/136/30
f 65/137/26 71/133/30 73/132/28
f 70/138/24 72/139/34 74/129/29
f 72/139/34 69/130/35 74/129/29
f 67/140/25 74/129/29 71/133/30
f 68/141/27 73/132/28 72/139/34
f 72/139/34 73/132/28 69/130/32
f 68/142/27 72/143/34 70/144/24
f 69/130/32 73/132/28 66/131/33
f 71/133/30 74/129/29 66/131/31
f 70/138/24 74/129/29 67/140/25
f 65/137/26 73/132/28 68/141/27
f 70/145/24 67/146/25 65/147/26 68/148/27
f 75/149/38 77/150/11 78/151/11 76/152/38
f 77/153/11 81/154/39 82/155/39 78/156/11
f 81/157/40 79/158/9 80/159/9 82/160/40
f 79/161/9 75/162/38 76/163/38 80/164/9
f 83/165/41 85/166/11 86/167/11 84/168/41
f 85/169/11 89/170/42 90/171/42 86/172/11
f 89/173/42 87/174/9 88/175/9 90/176/42
f 87/177/9 83/178/43 84/179/43 88/180/9
f 91/181/41 93/182/41 94/183/41 92/184/41
f 93/185/39 97/186/42 98/187/42 94/188/39
f 97/189/42 95/190/40 96/191/40 98/192/42
f 95/193/43 91/194/43 92/195/43 96/196/43
f 99/197/41 101/198/41 102/199/41 100/200/41
f 101/201/39 105/202/42 106/203/42 102/204/39
f 105/205/42 103/206/40 104/207/40 106/208/42
f 103/209/43 99/210/43 100/211/43 104/212/43
f 107/213/41 109/214/41 110/215/41 108/216/41
f 109/217/39 113/218/42 114/219/42 110/220/39
f 113/221/42 111/222/40 112/223/40 114/224/42
f 111/225/43 107/226/43 108/227/43 112/228/43
f 171/229/44 178/230/18 116/231/21 24/232/45
f 15/233/46 117/234/11 118/235/11 18/236/46
f 184/237/47 183/238/48 124/239/49 122/240/50
f 190/241/51 189/242/52 123/243/53 126/244/54
f 189/245/55 184/246/47 122/247/50 123/248/56
f 183/249/57 190/250/51 126/251/54 124/252/58
f 133/253/13 134/254/9 131/255/9 130/256/13
f 128/257/11 133/258/12 130/259/12 127/260/11
f 132/261/46 128/262/11 127/263/11 129/264/46
f 134/265/9 132/266/10 129/267/10 131/268/9
f 156/269/59 160/270/60 158/271/61 154/272/62
f 139/273/59 135/274/63 137/275/64 141/276/65
f 140/277/39 136/278/42 135/274/63 139/273/59
f 142/279/41 140/280/39 139/281/59 141/282/65
f 138/283/43 142/284/41 141/285/65 137/286/64
f 136/287/9 138/288/43 137/289/64 135/290/9
f 147/291/24 150/292/25 152/293/26 149/294/27
f 152/295/26 144/296/36 149/297/27
f 147/298/24 143/299/37 150/300/25
f 146/301/30 143/299/37 151/302/31
f 148/303/32 144/296/36 151/302/33
f 149/304/27 145/305/34 147/306/24
f 145/307/34 144/296/36 148/303/32
f 149/297/27 144/296/36 145/307/34
f 150/300/25 143/299/37 146/301/30
f 145/307/34 148/303/35 143/299/37
f 147/298/24 145/307/34 143/299/37
f 152/295/26 146/301/30 144/296/36
f 152/308/26 150/309/25 146/310/30
f 144/296/36 146/301/30 151/302/33
f 143/299/37 148/303/35 151/302/31
f 153/311/41 155/312/39 156/313/59 154/314/62
f 155/315/39 159/316/42 160/270/60 156/269/59
f 159/317/9 157/318/43 158/319/61 160/320/60
f 157/321/43 153/322/41 154/323/62 158/324/61
f 161/325/41 163/326/11 164/327/11 162/328/41
f 163/329/11 167/330/39 168/331/39 164/332/11
f 167/333/40 165/334/9 166/335/9 168/336/40
f 165/337/9 161/338/43 162/339/43 166/340/9
f 21/341/66 115/342/67 180/343/68 169/344/69
f 169/344/69 180/343/68 179/345/70 170/346/71
f 170/346/71 179/345/70 178/230/18 171/229/44
f 20/347/72 19/348/73 174/349/74 175/350/75
f 175/350/75 174/349/74 173/351/76 176/352/77
f 176/352/77 173/351/76 172/46/14 177/45/22
f 115/353/67 20/354/78 175/355/79 180/356/68
f 180/356/68 175/355/79 176/357/80 179/358/70
f 179/358/70 176/357/80 177/42/19 178/41/18
f 19/359/73 21/360/81 169/361/82 174/362/74
f 174/362/74 169/361/82 170/363/83 173/364/76
f 173/364/76 170/363/83 171/38/15 172/37/14
f 121/365/84 125/366/85 192/367/86 181/368/87
f 181/368/87 192/367/86 191/369/70 182/370/71
f 182/370/71 191/369/70 190/250/51 183/249/57
f 120/371/88 119/372/89 186/373/90 187/374/91
f 187/374/91 186/373/90 185/375/76 188/376/77
f 188/376/77 185/375/76 184/246/47 189/245/55
f 125/377/85 120/378/92 187/379/93 192/380/86
f 192/380/86 187/379/93 188/381/80 191/382/70
f 191/382/70 188/381/80 189/242/52 190/241/51
f 119/383/89 121/384/94 181/385/95 186/386/90
f 186/386/90 181/385/95 182/387/83 185/388/76
f 185/388/76 182/387/83 183/238/48 184/237/47
f 193/389/96 195/390/97 196/391/98 194/392/99
f 195/393/97 199/394/100 200/395/101 196/396/98
f 199/397/100 197/398/102 198/399/103 200/400/101
f 197/401/102 193/402/96 194/403/99 198/404/103
f 196/405/98 200/400/101 198/399/103 194/406/99
f 193/407/96 197/408/102 199/409/100 195/410/97
f 201/411/104 203/412/97 204/413/41 202/414/41
f 203/415/97 207/416/100 208/417/101 204/418/39
f 207/419/100 205/420/102 206/421/103 208/422/101
f 205/423/102 201/424/104 202/425/105 206/426/103
f 204/427/106 208/422/101 206/421/103 202/428/105
f 201/429/104 205/430/102 207/431/100 203/432/97
