# Blender v2.93.5 OBJ File: 'Modular Graveyard.blend'
# www.blender.org
mtllib GateR.mtl
o GateR_Circle.021
v -1.807937 0.182211 0.018813
v -1.807937 0.210148 0.000141
v -1.807937 0.154274 0.000141
v -0.113965 0.182211 0.018813
v -0.113965 0.210148 0.000142
v -0.113965 0.154274 0.000142
v -1.807937 2.488618 0.018813
v -1.807937 2.516727 0.000141
v -1.807937 2.460542 0.000141
v -0.113965 2.251604 0.018813
v -0.113965 2.279541 0.000142
v -0.113965 2.223666 0.000142
v -1.306160 2.672247 -0.051993
v -1.306160 2.672247 0.052207
v -1.380013 2.661094 0.000107
v -1.232307 2.661094 0.000107
v -1.338414 2.578019 -0.030726
v -1.319516 2.884056 0.000107
v -1.338414 2.578019 0.030940
v -1.273906 2.578019 -0.030726
v -1.292804 2.884056 0.000107
v -1.273906 2.578019 0.030940
v -0.313932 2.407151 0.030940
v -0.332830 2.713188 0.000107
v -0.313932 2.407151 -0.030726
v -0.378439 2.407151 0.030940
v -0.359541 2.713188 0.000107
v -0.378439 2.407151 -0.030726
v -0.272333 2.490226 0.000107
v -0.420038 2.490226 0.000107
v -0.346186 2.501379 0.052207
v -0.346186 2.501379 -0.051993
v -1.021774 2.524860 0.030940
v -1.040672 2.830897 0.000107
v -1.021774 2.524860 -0.030726
v -1.086282 2.524860 0.030940
v -1.067384 2.830897 0.000107
v -1.086282 2.524860 -0.030726
v -0.980175 2.607935 0.000107
v -1.127881 2.607935 0.000107
v -1.054028 2.619089 0.052207
v -1.054028 2.619089 -0.051993
v -0.809257 2.565930 -0.051993
v -0.809257 2.565930 0.052207
v -0.883110 2.554776 0.000107
v -0.735404 2.554776 0.000107
v -0.841511 2.471701 -0.030726
v -0.822613 2.777738 0.000107
v -0.841511 2.471701 0.030940
v -0.777003 2.471701 -0.030726
v -0.795901 2.777738 0.000107
v -0.777003 2.471701 0.030940
v -0.550214 2.429933 0.030940
v -0.569112 2.735970 0.000107
v -0.550214 2.429933 -0.030726
v -0.614722 2.429933 0.030940
v -0.595824 2.735970 0.000107
v -0.614722 2.429933 -0.030726
v -0.508615 2.513009 0.000107
v -0.656321 2.513009 0.000107
v -0.582468 2.524162 0.052207
v -0.582468 2.524162 -0.051993
v -0.315669 -0.002187 0.000000
v -0.315669 2.413933 0.000000
v -0.346062 -0.002187 -0.030394
v -0.346062 2.413933 -0.030394
v -0.346062 -0.002187 0.030394
v -0.346062 2.413933 0.030394
v -0.376456 -0.002187 0.000000
v -0.376456 2.413933 0.000000
v -0.552144 -0.002187 0.000000
v -0.552144 2.436715 0.000000
v -0.582537 -0.002187 -0.030394
v -0.582537 2.436715 -0.030394
v -0.582537 -0.002187 0.030394
v -0.582537 2.436715 0.030394
v -0.612931 -0.002187 0.000000
v -0.612931 2.436715 0.000000
v -0.778823 -0.002187 0.000000
v -0.778823 2.478483 0.000000
v -0.809217 -0.002187 -0.030394
v -0.809217 2.478483 -0.030394
v -0.809217 -0.002187 0.030394
v -0.809217 2.478483 0.030394
v -0.839610 -0.002187 0.000000
v -0.839610 2.478483 0.000000
v -1.023636 -0.002187 0.000000
v -1.023636 2.531642 0.000000
v -1.054030 -0.002187 -0.030394
v -1.054030 2.531642 -0.030394
v -1.054030 -0.002187 0.030394
v -1.054030 2.531642 0.030394
v -1.084424 -0.002187 0.000000
v -1.084424 2.531642 0.000000
v -1.275704 -0.002187 0.000000
v -1.275704 2.584801 0.000000
v -1.306098 -0.002187 -0.030394
v -1.306098 2.584801 -0.030394
v -1.306098 -0.002187 0.030394
v -1.306098 2.584801 0.030394
v -1.336491 -0.002187 0.000000
v -1.336491 2.584801 0.000000
v -1.807937 2.488617 -0.018117
v -0.113965 2.251604 -0.018117
v -1.807937 0.182211 -0.018117
v -0.113965 0.182211 -0.018117
v -1.807937 2.287989 0.018813
v -1.807937 2.316067 0.000141
v -1.807937 2.259937 0.000141
v -0.113965 2.051604 0.018813
v -0.113965 2.079540 0.000142
v -0.113965 2.023666 0.000142
v -1.807937 2.287988 -0.018117
v -0.113965 2.051604 -0.018117
v -0.113965 0.359053 -0.018117
v -1.807937 0.359053 -0.018117
v -0.113965 0.331115 0.000142
v -0.113965 0.386990 0.000142
v -0.113965 0.359053 0.018813
v -1.807937 0.331115 0.000141
v -1.807937 0.386990 0.000141
v -1.807937 0.359053 0.018813
v -0.140777 2.496091 0.031713
v -0.140777 -0.002187 0.031713
v -0.077349 2.496091 0.031713
v -0.077349 -0.002187 0.031713
v -0.140776 2.496091 -0.031714
v -0.140776 -0.002187 -0.031714
v -0.077350 2.496091 -0.031714
v -0.077350 -0.002187 -0.031714
v -1.557424 2.721609 -0.051993
v -1.557424 2.721609 0.052207
v -1.631277 2.710456 0.000107
v -1.483571 2.710456 0.000107
v -1.589678 2.627381 -0.030726
v -1.570780 2.933418 0.000107
v -1.589678 2.627381 0.030940
v -1.525170 2.627381 -0.030726
v -1.544068 2.933418 0.000107
v -1.525170 2.627381 0.030940
v -1.777350 -0.002187 -0.031713
v -1.777350 2.979063 -0.031713
v -1.840776 -0.002187 -0.031714
v -1.840776 2.979063 -0.031714
v -1.777349 -0.002187 0.031713
v -1.777349 2.979063 0.031713
v -1.840777 -0.002187 0.031714
v -1.840777 2.979063 0.031714
v -1.527024 -0.002187 0.000000
v -1.527024 2.634163 0.000000
v -1.557418 -0.002187 -0.030394
v -1.557418 2.634163 -0.030394
v -1.557418 -0.002187 0.030394
v -1.557418 2.634163 0.030394
v -1.587812 -0.002187 0.000000
v -1.587812 2.634163 0.000000
v -1.244306 2.335102 0.000141
v -0.820813 2.262804 0.000142
v -0.397320 2.224275 0.000142
v -0.397320 2.251994 0.018813
v -0.820813 2.290691 0.018813
v -1.244306 2.363173 0.018813
v -1.244306 2.391327 0.000141
v -0.820813 2.318592 0.000142
v -0.397320 2.279799 0.000142
v -0.397320 2.251993 -0.018117
v -0.820813 2.290691 -0.018117
v -1.244306 2.363171 -0.018117
v -1.264326 2.137946 0.000141
v -0.840833 2.065647 0.000142
v -0.417340 2.027118 0.000142
v -0.417340 2.054838 0.018813
v -0.840833 2.093534 0.018813
v -1.264326 2.166016 0.018813
v -1.264326 2.194170 0.000141
v -0.840833 2.121436 0.000142
v -0.417340 2.082642 0.000142
v -0.417340 2.054836 -0.018117
v -0.840833 2.093534 -0.018117
v -1.264326 2.166014 -0.018117
v 0.002666 1.996354 -0.000000
v 0.002666 2.306917 -0.000000
v -0.037736 1.996354 -0.040402
v -0.037736 2.306917 -0.040402
v -0.037736 1.996354 0.040402
v -0.037736 2.306917 0.040402
v -0.078138 1.996354 -0.000000
v -0.078138 2.306917 -0.000000
v 0.002666 0.124949 -0.000000
v 0.002666 0.418193 -0.000000
v -0.037736 0.124949 -0.040402
v -0.037736 0.418193 -0.040402
v -0.037736 0.124949 0.040402
v -0.037736 0.418193 0.040402
v -0.078138 0.124949 -0.000000
v -0.078138 0.418193 -0.000000
vt 0.843750 0.492188
vt 0.828125 0.492188
vt 0.828125 0.386719
vt 0.843750 0.386719
vt 0.828125 0.386719
vt 0.843750 0.386719
vt 0.843750 0.492188
vt 0.828125 0.492188
vt 0.843750 0.492188
vt 0.828125 0.492188
vt 0.828125 0.386719
vt 0.843750 0.386719
vt 0.843750 0.386719
vt 0.828125 0.386719
vt 0.828125 0.386719
vt 0.843750 0.386719
vt 0.828125 0.468750
vt 0.843750 0.468750
vt 0.843750 0.492188
vt 0.828125 0.492188
vt 0.843750 0.386719
vt 0.828125 0.386719
vt 0.828125 0.386719
vt 0.843750 0.386719
vt 0.843750 0.492188
vt 0.843750 0.503906
vt 0.828125 0.503906
vt 0.828125 0.492188
vt 0.882812 0.472656
vt 0.867188 0.484375
vt 0.859375 0.472656
vt 0.859375 0.472656
vt 0.867188 0.484375
vt 0.882812 0.472656
vt 0.890625 0.484375
vt 0.867188 0.503906
vt 0.867188 0.503906
vt 0.882812 0.402344
vt 0.859375 0.421875
vt 0.859375 0.402344
vt 0.851562 0.484375
vt 0.859375 0.402344
vt 0.882812 0.402344
vt 0.859375 0.421875
vt 0.867188 0.484375
vt 0.867188 0.503906
vt 0.867188 0.503906
vt 0.867188 0.484375
vt 0.890625 0.484375
vt 0.859375 0.402344
vt 0.882812 0.402344
vt 0.859375 0.421875
vt 0.882812 0.472656
vt 0.859375 0.472656
vt 0.851562 0.484375
vt 0.882812 0.472656
vt 0.859375 0.472656
vt 0.882812 0.402344
vt 0.859375 0.421875
vt 0.859375 0.402344
vt 0.843750 0.492188
vt 0.843750 0.503906
vt 0.828125 0.503906
vt 0.828125 0.492188
vt 0.867188 0.484375
vt 0.867188 0.503906
vt 0.867188 0.503906
vt 0.867188 0.484375
vt 0.890625 0.484375
vt 0.859375 0.402344
vt 0.882812 0.402344
vt 0.859375 0.421875
vt 0.882812 0.472656
vt 0.859375 0.472656
vt 0.851562 0.484375
vt 0.882812 0.472656
vt 0.859375 0.472656
vt 0.882812 0.402344
vt 0.859375 0.421875
vt 0.859375 0.402344
vt 0.843750 0.492188
vt 0.843750 0.503906
vt 0.828125 0.503906
vt 0.828125 0.492188
vt 0.843750 0.492188
vt 0.843750 0.503906
vt 0.828125 0.503906
vt 0.828125 0.492188
vt 0.882812 0.472656
vt 0.867188 0.484375
vt 0.859375 0.472656
vt 0.859375 0.472656
vt 0.867188 0.484375
vt 0.882812 0.472656
vt 0.890625 0.484375
vt 0.867188 0.503906
vt 0.867188 0.503906
vt 0.882812 0.402344
vt 0.859375 0.421875
vt 0.859375 0.402344
vt 0.851562 0.484375
vt 0.859375 0.402344
vt 0.882812 0.402344
vt 0.859375 0.421875
vt 0.867188 0.484375
vt 0.867188 0.503906
vt 0.867188 0.503906
vt 0.867188 0.484375
vt 0.890625 0.484375
vt 0.859375 0.402344
vt 0.882812 0.402344
vt 0.859375 0.421875
vt 0.882812 0.472656
vt 0.859375 0.472656
vt 0.851562 0.484375
vt 0.882812 0.472656
vt 0.859375 0.472656
vt 0.882812 0.402344
vt 0.859375 0.421875
vt 0.859375 0.402344
vt 0.843750 0.492188
vt 0.843750 0.503906
vt 0.828125 0.503906
vt 0.828125 0.492188
vt 0.828125 0.328125
vt 0.843750 0.328125
vt 0.843750 0.492188
vt 0.828125 0.492188
vt 0.828125 0.328125
vt 0.843750 0.328125
vt 0.843750 0.492188
vt 0.828125 0.492188
vt 0.828125 0.328125
vt 0.843750 0.328125
vt 0.843750 0.492188
vt 0.828125 0.492188
vt 0.828125 0.328125
vt 0.843750 0.328125
vt 0.843750 0.492188
vt 0.828125 0.492188
vt 0.828125 0.328125
vt 0.843750 0.328125
vt 0.843750 0.492188
vt 0.828125 0.492188
vt 0.828125 0.328125
vt 0.843750 0.328125
vt 0.843750 0.492188
vt 0.828125 0.492188
vt 0.828125 0.328125
vt 0.843750 0.328125
vt 0.843750 0.492188
vt 0.828125 0.492188
vt 0.828125 0.328125
vt 0.843750 0.328125
vt 0.843750 0.492188
vt 0.828125 0.492188
vt 0.828125 0.328125
vt 0.843750 0.328125
vt 0.843750 0.492188
vt 0.828125 0.492188
vt 0.828125 0.328125
vt 0.843750 0.328125
vt 0.843750 0.492188
vt 0.828125 0.492188
vt 0.828125 0.328125
vt 0.843750 0.328125
vt 0.843750 0.492188
vt 0.828125 0.492188
vt 0.828125 0.328125
vt 0.843750 0.328125
vt 0.843750 0.492188
vt 0.828125 0.492188
vt 0.828125 0.328125
vt 0.843750 0.328125
vt 0.843750 0.492188
vt 0.828125 0.492188
vt 0.828125 0.328125
vt 0.843750 0.328125
vt 0.843750 0.492188
vt 0.828125 0.492188
vt 0.828125 0.328125
vt 0.843750 0.328125
vt 0.843750 0.492188
vt 0.828125 0.492188
vt 0.828125 0.328125
vt 0.843750 0.328125
vt 0.843750 0.492188
vt 0.828125 0.492188
vt 0.828125 0.328125
vt 0.843750 0.328125
vt 0.843750 0.492188
vt 0.828125 0.492188
vt 0.828125 0.328125
vt 0.843750 0.328125
vt 0.843750 0.492188
vt 0.828125 0.492188
vt 0.828125 0.328125
vt 0.843750 0.328125
vt 0.843750 0.492188
vt 0.828125 0.492188
vt 0.828125 0.328125
vt 0.843750 0.328125
vt 0.843750 0.492188
vt 0.828125 0.492188
vt 0.828125 0.468750
vt 0.843750 0.468750
vt 0.843750 0.492188
vt 0.828125 0.492188
vt 0.828125 0.386719
vt 0.843750 0.386719
vt 0.843750 0.492188
vt 0.828125 0.492188
vt 0.843750 0.386719
vt 0.828125 0.386719
vt 0.828125 0.386719
vt 0.843750 0.386719
vt 0.828125 0.468750
vt 0.843750 0.468750
vt 0.843750 0.492188
vt 0.828125 0.492188
vt 0.843750 0.386719
vt 0.828125 0.386719
vt 0.828125 0.386719
vt 0.843750 0.386719
vt 0.828125 0.468750
vt 0.843750 0.468750
vt 0.843750 0.492188
vt 0.828125 0.492188
vt 0.828125 0.386719
vt 0.843750 0.386719
vt 0.843750 0.492188
vt 0.828125 0.492188
vt 0.843750 0.492188
vt 0.828125 0.492188
vt 0.828125 0.386719
vt 0.843750 0.386719
vt 0.843750 0.492188
vt 0.828125 0.492188
vt 0.828125 0.386719
vt 0.843750 0.386719
vt 0.828125 0.386719
vt 0.843750 0.386719
vt 0.843750 0.492188
vt 0.828125 0.492188
vt 0.828125 0.492188
vt 0.843750 0.492188
vt 0.843750 0.503906
vt 0.828125 0.503906
vt 0.828125 0.492188
vt 0.843750 0.492188
vt 0.843750 0.503906
vt 0.828125 0.503906
vt 0.828125 0.328125
vt 0.843750 0.328125
vt 0.828125 0.328125
vt 0.843750 0.328125
vt 0.843750 0.492188
vt 0.828125 0.492188
vt 0.828125 0.328125
vt 0.843750 0.328125
vt 0.843750 0.492188
vt 0.828125 0.492188
vt 0.828125 0.328125
vt 0.843750 0.328125
vt 0.843750 0.492188
vt 0.828125 0.492188
vt 0.843750 0.492188
vt 0.843750 0.503906
vt 0.828125 0.503906
vt 0.828125 0.492188
vt 0.882812 0.472656
vt 0.867188 0.484375
vt 0.859375 0.472656
vt 0.859375 0.472656
vt 0.867188 0.484375
vt 0.882812 0.472656
vt 0.890625 0.484375
vt 0.867188 0.503906
vt 0.867188 0.503906
vt 0.882812 0.402344
vt 0.859375 0.421875
vt 0.859375 0.402344
vt 0.851562 0.484375
vt 0.859375 0.402344
vt 0.882812 0.402344
vt 0.859375 0.421875
vt 0.828125 0.328125
vt 0.843750 0.328125
vt 0.843750 0.492188
vt 0.828125 0.492188
vt 0.828125 0.328125
vt 0.843750 0.328125
vt 0.828125 0.328125
vt 0.843750 0.328125
vt 0.843750 0.492188
vt 0.828125 0.492188
vt 0.828125 0.328125
vt 0.843750 0.328125
vt 0.843750 0.492188
vt 0.828125 0.492188
vt 0.828125 0.328125
vt 0.843750 0.328125
vt 0.843750 0.492188
vt 0.828125 0.492188
vt 0.828125 0.328125
vt 0.843750 0.328125
vt 0.843750 0.492188
vt 0.828125 0.492188
vt 0.828125 0.328125
vt 0.843750 0.328125
vt 0.843750 0.492188
vt 0.828125 0.492188
vt 0.828125 0.328125
vt 0.843750 0.328125
vt 0.843750 0.492188
vt 0.828125 0.492188
vt 0.828125 0.386719
vt 0.843750 0.386719
vt 0.843750 0.414062
vt 0.828125 0.414062
vt 0.843750 0.445312
vt 0.828125 0.445312
vt 0.843750 0.492188
vt 0.828125 0.492188
vt 0.828125 0.445312
vt 0.843750 0.445312
vt 0.828125 0.414062
vt 0.843750 0.414062
vt 0.828125 0.386719
vt 0.843750 0.386719
vt 0.843750 0.414062
vt 0.828125 0.414062
vt 0.843750 0.445312
vt 0.828125 0.445312
vt 0.843750 0.492188
vt 0.828125 0.492188
vt 0.828125 0.445312
vt 0.843750 0.445312
vt 0.828125 0.414062
vt 0.843750 0.414062
vt 0.828125 0.386719
vt 0.843750 0.386719
vt 0.843750 0.414062
vt 0.828125 0.414062
vt 0.843750 0.445312
vt 0.828125 0.445312
vt 0.843750 0.492188
vt 0.828125 0.492188
vt 0.828125 0.445312
vt 0.843750 0.445312
vt 0.828125 0.414062
vt 0.843750 0.414062
vt 0.828125 0.386719
vt 0.843750 0.386719
vt 0.843750 0.414062
vt 0.828125 0.414062
vt 0.843750 0.445312
vt 0.828125 0.445312
vt 0.843750 0.492188
vt 0.828125 0.492188
vt 0.828125 0.445312
vt 0.843750 0.445312
vt 0.828125 0.414062
vt 0.843750 0.414062
vt 0.828125 0.468750
vt 0.843750 0.468750
vt 0.843750 0.492188
vt 0.828125 0.492188
vt 0.828125 0.468750
vt 0.843750 0.468750
vt 0.843750 0.492188
vt 0.828125 0.492188
vt 0.828125 0.468750
vt 0.843750 0.468750
vt 0.843750 0.492188
vt 0.828125 0.492188
vt 0.828125 0.468750
vt 0.843750 0.468750
vt 0.843750 0.492188
vt 0.828125 0.492188
vt 0.828125 0.503906
vt 0.843750 0.503906
vt 0.843750 0.492188
vt 0.843750 0.503906
vt 0.828125 0.503906
vt 0.828125 0.492188
vt 0.828125 0.468750
vt 0.843750 0.468750
vt 0.843750 0.492188
vt 0.828125 0.492188
vt 0.828125 0.468750
vt 0.843750 0.468750
vt 0.843750 0.492188
vt 0.828125 0.492188
vt 0.828125 0.468750
vt 0.843750 0.468750
vt 0.843750 0.492188
vt 0.828125 0.492188
vt 0.828125 0.468750
vt 0.843750 0.468750
vt 0.843750 0.492188
vt 0.828125 0.492188
vt 0.828125 0.503906
vt 0.843750 0.503906
vt 0.843750 0.492188
vt 0.843750 0.503906
vt 0.828125 0.503906
vt 0.828125 0.492188
vn -0.0000 -0.0000 1.0000
vn -0.0000 -0.5557 0.8314
vn 0.0000 0.0000 -1.0000
vn 0.0000 0.5471 -0.8371
vn -0.0000 0.5557 0.8314
vn -0.0015 -0.0163 0.9999
vn -0.0253 -0.5572 0.8300
vn -0.0010 -0.5572 0.8304
vn -0.0002 -0.0008 1.0000
vn -0.0015 -0.0160 -0.9999
vn 0.0260 0.5479 -0.8361
vn 0.0006 0.5480 -0.8365
vn -0.0002 -0.0008 -1.0000
vn 0.0264 0.5565 0.8304
vn 0.0006 0.5566 0.8308
vn -0.4717 -0.6779 -0.5638
vn 0.4717 -0.6779 -0.5638
vn 0.4717 -0.6779 0.5638
vn -0.4717 -0.6779 0.5638
vn 0.0000 0.0806 0.9968
vn 0.0000 0.0806 -0.9968
vn 0.9992 0.0407 0.0000
vn 0.1277 0.2293 -0.9649
vn -0.1277 0.2293 0.9649
vn 0.1277 0.2293 0.9649
vn -0.9992 0.0407 0.0000
vn -0.1277 0.2293 -0.9649
vn -0.0000 0.0806 0.9967
vn -0.0000 0.0806 -0.9967
vn 1.0000 0.0000 -0.0000
vn -0.7071 0.0000 -0.7071
vn -0.7071 0.0000 0.7071
vn 0.7071 0.0000 -0.7071
vn -1.0000 0.0000 0.0000
vn 0.7071 0.0000 0.7071
vn -0.0249 -0.5486 -0.8357
vn -0.0010 -0.5486 -0.8361
vn 0.0000 -0.5471 -0.8371
vn -0.0015 -0.0146 0.9999
vn -0.0278 -0.5571 0.8300
vn -0.0061 -0.5572 0.8304
vn -0.0002 -0.0041 1.0000
vn -0.0015 -0.0144 -0.9999
vn 0.0285 0.5479 -0.8361
vn 0.0057 0.5480 -0.8365
vn -0.0002 -0.0041 -1.0000
vn 0.0289 0.5565 0.8304
vn 0.0058 0.5566 0.8308
vn -0.0274 -0.5486 -0.8357
vn -0.0060 -0.5486 -0.8361
vn -0.5773 0.5774 -0.5774
vn -0.5773 0.5773 0.5774
vn 0.5774 0.5773 0.5773
vn 0.5774 0.5774 -0.5773
vn -0.7071 0.7071 -0.0000
vn 0.5774 0.5774 0.5773
vn 0.5773 0.5774 -0.5774
vn -0.1205 -0.5413 -0.8322
vn 0.0167 0.0751 -0.9970
vn -0.0034 -0.0088 -1.0000
vn -0.1053 -0.5429 -0.8332
vn -0.0035 -0.0139 -0.9999
vn -0.0700 -0.5465 -0.8345
vn 0.1221 0.5489 0.8269
vn 0.0170 0.0762 0.9969
vn -0.0034 -0.0089 1.0000
vn 0.1098 0.5503 0.8277
vn -0.0035 -0.0141 0.9999
vn 0.0743 0.5540 0.8292
vn 0.1203 0.5405 -0.8327
vn 0.1081 0.5419 -0.8335
vn 0.0731 0.5455 -0.8349
vn -0.1223 -0.5496 0.8264
vn -0.1070 -0.5513 0.8274
vn -0.0711 -0.5550 0.8288
vn -0.1215 -0.5414 -0.8320
vn 0.0170 0.0757 -0.9970
vn -0.0035 -0.0091 -1.0000
vn -0.1058 -0.5430 -0.8331
vn 0.1231 0.5490 0.8267
vn 0.0172 0.0769 0.9969
vn -0.0036 -0.0092 1.0000
vn 0.1104 0.5504 0.8276
vn 0.1213 0.5406 -0.8325
vn 0.1087 0.5419 -0.8334
vn -0.1234 -0.5497 0.8262
vn -0.1074 -0.5514 0.8273
vn 0.8165 -0.5774 -0.0000
vn -0.0000 -0.5774 -0.8165
vn -0.0000 0.5774 -0.8165
vn 0.8165 0.5774 -0.0000
vn -0.8165 -0.5774 0.0000
vn -0.8165 0.5774 0.0000
vn -0.0000 -0.5774 0.8165
vn -0.0000 0.5774 0.8165
vn 0.8165 -0.5773 -0.0000
vn 0.5000 0.7071 0.5000
vn 0.0000 1.0000 0.0000
usemtl Material.001
s 1
f 1/1/1 3/2/2 6/3/2 4/4/1
f 105/5/3 2/6/4 5/7/4 106/8/3
f 2/9/5 1/10/1 4/11/1 5/12/5
f 160/13/6 159/14/7 12/15/8 10/16/9
f 166/17/10 165/18/11 11/19/12 104/20/13
f 165/21/14 160/22/6 10/23/9 11/24/15
f 17/25/16 20/26/17 22/27/18 19/28/19
f 22/29/18 14/30/20 19/31/19
f 17/32/16 13/33/21 20/34/17
f 16/35/22 13/33/21 21/36/23
f 18/37/24 14/30/20 21/36/25
f 19/38/19 15/39/26 17/40/16
f 15/41/26 14/30/20 18/37/24
f 19/31/19 14/30/20 15/41/26
f 20/34/17 13/33/21 16/35/22
f 15/41/26 18/37/27 13/33/21
f 17/32/16 15/41/26 13/33/21
f 22/29/18 16/35/22 14/30/20
f 22/42/18 20/43/17 16/44/22
f 14/30/20 16/35/22 21/36/25
f 13/33/21 18/37/27 21/36/23
f 32/45/21 27/46/27 24/47/23
f 31/48/28 29/49/22 24/47/25
f 23/50/18 25/51/17 29/52/22
f 23/53/18 29/49/22 31/48/28
f 28/54/16 30/55/26 32/45/21
f 30/55/26 27/46/27 32/45/21
f 25/56/17 32/45/21 29/49/22
f 26/57/19 31/48/28 30/55/26
f 30/55/26 31/48/28 27/46/24
f 26/58/19 30/59/26 28/60/16
f 27/46/24 31/48/28 24/47/25
f 29/49/22 32/45/21 24/47/23
f 28/54/16 32/45/21 25/56/17
f 23/53/18 31/48/28 26/57/19
f 28/61/16 25/62/17 23/63/18 26/64/19
f 42/65/29 37/66/27 34/67/23
f 41/68/28 39/69/22 34/67/25
f 33/70/18 35/71/17 39/72/22
f 33/73/18 39/69/22 41/68/28
f 38/74/16 40/75/26 42/65/29
f 40/75/26 37/66/27 42/65/29
f 35/76/17 42/65/29 39/69/22
f 36/77/19 41/68/28 40/75/26
f 40/75/26 41/68/28 37/66/24
f 36/78/19 40/79/26 38/80/16
f 37/66/24 41/68/28 34/67/25
f 39/69/22 42/65/29 34/67/23
f 38/74/16 42/65/29 35/76/17
f 33/73/18 41/68/28 36/77/19
f 38/81/16 35/82/17 33/83/18 36/84/19
f 47/85/16 50/86/17 52/87/18 49/88/19
f 52/89/18 44/90/28 49/91/19
f 47/92/16 43/93/29 50/94/17
f 46/95/22 43/93/29 51/96/23
f 48/97/24 44/90/28 51/96/25
f 49/98/19 45/99/26 47/100/16
f 45/101/26 44/90/28 48/97/24
f 49/91/19 44/90/28 45/101/26
f 50/94/17 43/93/29 46/95/22
f 45/101/26 48/97/27 43/93/29
f 47/92/16 45/101/26 43/93/29
f 52/89/18 46/95/22 44/90/28
f 52/102/18 50/103/17 46/104/22
f 44/90/28 46/95/22 51/96/25
f 43/93/29 48/97/27 51/96/23
f 62/105/21 57/106/27 54/107/23
f 61/108/20 59/109/22 54/107/25
f 53/110/18 55/111/17 59/112/22
f 53/113/18 59/109/22 61/108/20
f 58/114/16 60/115/26 62/105/21
f 60/115/26 57/106/27 62/105/21
f 55/116/17 62/105/21 59/109/22
f 56/117/19 61/108/20 60/115/26
f 60/115/26 61/108/20 57/106/24
f 56/118/19 60/119/26 58/120/16
f 57/106/24 61/108/20 54/107/25
f 59/109/22 62/105/21 54/107/23
f 58/114/16 62/105/21 55/116/17
f 53/113/18 61/108/20 56/117/19
f 58/121/16 55/122/17 53/123/18 56/124/19
f 63/125/30 65/126/3 66/127/3 64/128/30
f 65/129/3 69/130/31 70/131/31 66/132/3
f 69/133/32 67/134/1 68/135/1 70/136/32
f 67/137/1 63/138/30 64/139/30 68/140/1
f 71/141/33 73/142/3 74/143/3 72/144/33
f 73/145/3 77/146/34 78/147/34 74/148/3
f 77/149/34 75/150/1 76/151/1 78/152/34
f 75/153/1 71/154/35 72/155/35 76/156/1
f 79/157/33 81/158/33 82/159/33 80/160/33
f 81/161/31 85/162/34 86/163/34 82/164/31
f 85/165/34 83/166/32 84/167/32 86/168/34
f 83/169/35 79/170/35 80/171/35 84/172/35
f 87/173/33 89/174/33 90/175/33 88/176/33
f 89/177/31 93/178/34 94/179/34 90/180/31
f 93/181/34 91/182/32 92/183/32 94/184/34
f 91/185/35 87/186/35 88/187/35 92/188/35
f 95/189/33 97/190/33 98/191/33 96/192/33
f 97/193/31 101/194/34 102/195/34 98/196/31
f 101/197/34 99/198/32 100/199/32 102/200/34
f 99/201/35 95/202/35 96/203/35 100/204/35
f 159/205/36 166/206/10 104/207/13 12/208/37
f 3/209/38 105/210/3 106/211/3 6/212/38
f 172/213/39 171/214/40 112/215/41 110/216/42
f 178/217/43 177/218/44 111/219/45 114/220/46
f 177/221/47 172/222/39 110/223/42 111/224/48
f 171/225/49 178/226/43 114/227/46 112/228/50
f 121/229/5 122/230/1 119/231/1 118/232/5
f 116/233/3 121/234/4 118/235/4 115/236/3
f 120/237/38 116/238/3 115/239/3 117/240/38
f 122/241/1 120/242/2 117/243/2 119/244/1
f 144/245/51 148/246/52 146/247/53 142/248/54
f 127/249/51 123/250/55 125/251/56 129/252/57
f 128/253/31 124/254/34 123/250/55 127/249/51
f 130/255/33 128/256/31 127/257/51 129/258/57
f 126/259/35 130/260/33 129/261/57 125/262/56
f 124/263/1 126/264/35 125/265/56 123/266/1
f 135/267/16 138/268/17 140/269/18 137/270/19
f 140/271/18 132/272/28 137/273/19
f 135/274/16 131/275/29 138/276/17
f 134/277/22 131/275/29 139/278/23
f 136/279/24 132/272/28 139/278/25
f 137/280/19 133/281/26 135/282/16
f 133/283/26 132/272/28 136/279/24
f 137/273/19 132/272/28 133/283/26
f 138/276/17 131/275/29 134/277/22
f 133/283/26 136/279/27 131/275/29
f 135/274/16 133/283/26 131/275/29
f 140/271/18 134/277/22 132/272/28
f 140/284/18 138/285/17 134/286/22
f 132/272/28 134/277/22 139/278/25
f 131/275/29 136/279/27 139/278/23
f 141/287/33 143/288/31 144/289/51 142/290/54
f 143/291/31 147/292/34 148/246/52 144/245/51
f 147/293/1 145/294/35 146/295/53 148/296/52
f 145/297/35 141/298/33 142/299/54 146/300/53
f 149/301/33 151/302/3 152/303/3 150/304/33
f 151/305/3 155/306/31 156/307/31 152/308/3
f 155/309/32 153/310/1 154/311/1 156/312/32
f 153/313/1 149/314/35 150/315/35 154/316/1
f 9/317/58 103/318/59 168/319/60 157/320/61
f 157/320/61 168/319/60 167/321/62 158/322/63
f 158/322/63 167/321/62 166/206/10 159/205/36
f 8/323/64 7/324/65 162/325/66 163/326/67
f 163/326/67 162/325/66 161/327/68 164/328/69
f 164/328/69 161/327/68 160/22/6 165/21/14
f 103/329/59 8/330/70 163/331/71 168/332/60
f 168/332/60 163/331/71 164/333/72 167/334/62
f 167/334/62 164/333/72 165/18/11 166/17/10
f 7/335/65 9/336/73 157/337/74 162/338/66
f 162/338/66 157/337/74 158/339/75 161/340/68
f 161/340/68 158/339/75 159/14/7 160/13/6
f 109/341/76 113/342/77 180/343/78 169/344/79
f 169/344/79 180/343/78 179/345/62 170/346/63
f 170/346/63 179/345/62 178/226/43 171/225/49
f 108/347/80 107/348/81 174/349/82 175/350/83
f 175/350/83 174/349/82 173/351/68 176/352/69
f 176/352/69 173/351/68 172/222/39 177/221/47
f 113/353/77 108/354/84 175/355/85 180/356/78
f 180/356/78 175/355/85 176/357/72 179/358/62
f 179/358/62 176/357/72 177/218/44 178/217/43
f 107/359/81 109/360/86 169/361/87 174/362/82
f 174/362/82 169/361/87 170/363/75 173/364/68
f 173/364/68 170/363/75 171/214/40 172/213/39
f 181/365/88 183/366/89 184/367/90 182/368/91
f 183/369/89 187/370/92 188/371/93 184/372/90
f 187/373/92 185/374/94 186/375/95 188/376/93
f 185/377/94 181/378/88 182/379/91 186/380/95
f 184/381/90 188/376/93 186/375/95 182/382/91
f 181/383/88 185/384/94 187/385/92 183/386/89
f 189/387/96 191/388/89 192/389/33 190/390/33
f 191/391/89 195/392/92 196/393/93 192/394/31
f 195/395/92 193/396/94 194/397/95 196/398/93
f 193/399/94 189/400/96 190/401/97 194/402/95
f 192/403/98 196/398/93 194/397/95 190/404/97
f 189/405/96 193/406/94 195/407/92 191/408/89
