# Blender v2.93.5 OBJ File: 'Modular Graveyard.blend'
# www.blender.org
mtllib RustyGateKeyL.mtl
o RustyGateKeyL_Circle.052
v 1.781921 1.164664 -0.018812
v 1.781921 1.136727 -0.000141
v 1.560871 1.164664 -0.018813
v 1.560871 1.136727 -0.000142
v 1.781921 1.164664 0.018118
v 1.560871 1.164664 0.018117
v 1.560871 1.417921 0.018117
v 1.781921 1.417921 0.018118
v 1.560871 1.445858 -0.000142
v 1.560871 1.417921 -0.018813
v 1.781921 1.445858 -0.000141
v 1.781921 1.417921 -0.018812
v 1.807937 0.182211 0.018813
v 1.807937 0.210148 0.000141
v 1.807937 0.154274 0.000141
v 0.113965 0.182211 0.018813
v 0.113965 0.210148 0.000142
v 0.113965 0.154274 0.000142
v 1.807937 2.488618 0.018813
v 1.807937 2.516727 0.000141
v 1.807937 2.460542 0.000141
v 0.113965 2.251604 0.018813
v 0.113965 2.279541 0.000142
v 0.113965 2.223666 0.000142
v 1.306160 2.672247 -0.051993
v 1.306160 2.672247 0.052207
v 1.380013 2.661094 0.000107
v 1.232307 2.661094 0.000107
v 1.338414 2.578019 -0.030726
v 1.319516 2.884056 0.000107
v 1.338414 2.578019 0.030940
v 1.273906 2.578019 -0.030726
v 1.292804 2.884056 0.000107
v 1.273906 2.578019 0.030940
v 0.313932 2.407151 0.030940
v 0.332830 2.713188 0.000107
v 0.313932 2.407151 -0.030726
v 0.378439 2.407151 0.030940
v 0.359541 2.713188 0.000107
v 0.378439 2.407151 -0.030726
v 0.272333 2.490226 0.000107
v 0.420038 2.490226 0.000107
v 0.346186 2.501379 0.052207
v 0.346186 2.501379 -0.051993
v 1.021774 2.524860 0.030940
v 1.040672 2.830897 0.000107
v 1.021774 2.524860 -0.030726
v 1.086282 2.524860 0.030940
v 1.067384 2.830897 0.000107
v 1.086282 2.524860 -0.030726
v 0.980175 2.607935 0.000107
v 1.127881 2.607935 0.000107
v 1.054028 2.619089 0.052207
v 1.054028 2.619089 -0.051993
v 0.809257 2.565930 -0.051993
v 0.809257 2.565930 0.052207
v 0.883110 2.554776 0.000107
v 0.735404 2.554776 0.000107
v 0.841511 2.471701 -0.030726
v 0.822613 2.777738 0.000107
v 0.841511 2.471701 0.030940
v 0.777003 2.471701 -0.030726
v 0.795901 2.777738 0.000107
v 0.777003 2.471701 0.030940
v 0.550214 2.429933 0.030940
v 0.569112 2.735970 0.000107
v 0.550214 2.429933 -0.030726
v 0.614722 2.429933 0.030940
v 0.595824 2.735970 0.000107
v 0.614722 2.429933 -0.030726
v 0.508615 2.513009 0.000107
v 0.656321 2.513009 0.000107
v 0.582468 2.524162 0.052207
v 0.582468 2.524162 -0.051993
v 0.315669 -0.002187 0.000000
v 0.315669 2.413933 0.000000
v 0.346062 -0.002187 -0.030394
v 0.346062 2.413933 -0.030394
v 0.346062 -0.002187 0.030394
v 0.346062 2.413933 0.030394
v 0.376456 -0.002187 0.000000
v 0.376456 2.413933 0.000000
v 0.552144 -0.002187 0.000000
v 0.552144 2.436715 0.000000
v 0.582537 -0.002187 -0.030394
v 0.582537 2.436715 -0.030394
v 0.582537 -0.002187 0.030394
v 0.582537 2.436715 0.030394
v 0.612931 -0.002187 0.000000
v 0.612931 2.436715 0.000000
v 0.778823 -0.002187 0.000000
v 0.778823 2.478483 0.000000
v 0.809217 -0.002187 -0.030394
v 0.809217 2.478483 -0.030394
v 0.809217 -0.002187 0.030394
v 0.809217 2.478483 0.030394
v 0.839610 -0.002187 0.000000
v 0.839610 2.478483 0.000000
v 1.023636 -0.002187 0.000000
v 1.023636 2.531642 0.000000
v 1.054030 -0.002187 -0.030394
v 1.054030 2.531642 -0.030394
v 1.054030 -0.002187 0.030394
v 1.054030 2.531642 0.030394
v 1.084424 -0.002187 0.000000
v 1.084424 2.531642 0.000000
v 1.275704 -0.002187 0.000000
v 1.275704 2.584801 0.000000
v 1.306098 -0.002187 -0.030394
v 1.306098 2.584801 -0.030394
v 1.306098 -0.002187 0.030394
v 1.306098 2.584801 0.030394
v 1.336491 -0.002187 0.000000
v 1.336491 2.584801 0.000000
v 1.807937 2.488617 -0.018117
v 0.113965 2.251604 -0.018117
v 1.807937 0.182211 -0.018117
v 0.113965 0.182211 -0.018117
v 1.807937 2.287989 0.018813
v 1.807937 2.316067 0.000141
v 1.807937 2.259937 0.000141
v 0.113965 2.051604 0.018813
v 0.113965 2.079540 0.000142
v 0.113965 2.023666 0.000142
v 1.807937 2.287988 -0.018117
v 0.113965 2.051604 -0.018117
v 0.113965 0.359053 -0.018117
v 1.807937 0.359053 -0.018117
v 0.113965 0.331115 0.000142
v 0.113965 0.386990 0.000142
v 0.113965 0.359053 0.018813
v 1.807937 0.331115 0.000141
v 1.807937 0.386990 0.000141
v 1.807937 0.359053 0.018813
v 0.140777 2.496091 0.031713
v 0.140777 -0.002187 0.031713
v 0.077349 2.496091 0.031713
v 0.077349 -0.002187 0.031713
v 0.140776 2.496091 -0.031714
v 0.140776 -0.002187 -0.031714
v 0.077350 2.496091 -0.031714
v 0.077350 -0.002187 -0.031714
v 1.557424 2.721609 -0.051993
v 1.557424 2.721609 0.052207
v 1.631277 2.710456 0.000107
v 1.483571 2.710456 0.000107
v 1.589678 2.627381 -0.030726
v 1.570780 2.933418 0.000107
v 1.589678 2.627381 0.030940
v 1.525170 2.627381 -0.030726
v 1.544068 2.933418 0.000107
v 1.525170 2.627381 0.030940
v 1.777350 -0.002187 -0.031713
v 1.777350 2.979063 -0.031713
v 1.840776 -0.002187 -0.031714
v 1.840776 2.979063 -0.031714
v 1.777349 -0.002187 0.031713
v 1.777349 2.979063 0.031713
v 1.840777 -0.002187 0.031714
v 1.840777 2.979063 0.031714
v 1.527024 -0.002187 0.000000
v 1.527024 2.634163 0.000000
v 1.557418 -0.002187 -0.030394
v 1.557418 2.634163 -0.030394
v 1.557418 -0.002187 0.030394
v 1.557418 2.634163 0.030394
v 1.587812 -0.002187 0.000000
v 1.587812 2.634163 0.000000
v 1.244306 2.335102 0.000141
v 0.820813 2.262804 0.000142
v 0.397320 2.224275 0.000142
v 0.397320 2.251994 0.018813
v 0.820813 2.290691 0.018813
v 1.244306 2.363173 0.018813
v 1.244306 2.391327 0.000141
v 0.820813 2.318592 0.000142
v 0.397320 2.279799 0.000142
v 0.397320 2.251993 -0.018117
v 0.820813 2.290691 -0.018117
v 1.244306 2.363171 -0.018117
v 1.264326 2.137946 0.000141
v 0.840833 2.065647 0.000142
v 0.417340 2.027118 0.000142
v 0.417340 2.054838 0.018813
v 0.840833 2.093534 0.018813
v 1.264326 2.166016 0.018813
v 1.264326 2.194170 0.000141
v 0.840833 2.121436 0.000142
v 0.417340 2.082642 0.000142
v 0.417340 2.054836 -0.018117
v 0.840833 2.093534 -0.018117
v 1.264326 2.166014 -0.018117
v -0.002666 1.996354 -0.000000
v -0.002666 2.306917 -0.000000
v 0.037736 1.996354 -0.040402
v 0.037736 2.306917 -0.040402
v 0.037736 1.996354 0.040402
v 0.037736 2.306917 0.040402
v 0.078138 1.996354 -0.000000
v 0.078138 2.306917 -0.000000
v -0.002666 0.124949 -0.000000
v -0.002666 0.418193 -0.000000
v 0.037736 0.124949 -0.040402
v 0.037736 0.418193 -0.040402
v 0.037736 0.124949 0.040402
v 0.037736 0.418193 0.040402
v 0.078138 0.124949 -0.000000
v 0.078138 0.418193 -0.000000
vt 0.773438 0.222656
vt 0.773438 0.218750
vt 0.812500 0.218750
vt 0.812500 0.222656
vt 0.812500 0.191406
vt 0.812500 0.195312
vt 0.773438 0.195312
vt 0.773438 0.191406
vt 0.773438 0.246094
vt 0.773438 0.242188
vt 0.812500 0.242188
vt 0.812500 0.246094
vt 0.812500 0.214844
vt 0.812500 0.214844
vt 0.773438 0.214844
vt 0.773438 0.214844
vt 0.828125 0.187500
vt 0.828125 0.257812
vt 0.820312 0.257812
vt 0.820312 0.187500
vt 0.828125 0.113281
vt 0.828125 0.042969
vt 0.835938 0.042969
vt 0.835938 0.113281
vt 0.835938 0.187500
vt 0.835938 0.257812
vt 0.789062 0.175781
vt 0.804688 0.187500
vt 0.796875 0.187500
vt 0.781250 0.179688
vt 0.875000 0.101562
vt 0.859375 0.113281
vt 0.851562 0.113281
vt 0.867188 0.101562
vt 0.796875 0.175781
vt 0.812500 0.187500
vt 0.882812 0.066406
vt 0.882812 0.074219
vt 0.867188 0.074219
vt 0.867188 0.066406
vt 0.843750 0.156250
vt 0.851562 0.156250
vt 0.851562 0.164062
vt 0.843750 0.183594
vt 0.851562 0.183594
vt 0.851562 0.191406
vt 0.867188 0.187500
vt 0.867188 0.207031
vt 0.867188 0.179688
vt 0.859375 0.179688
vt 0.820312 0.261719
vt 0.812500 0.261719
vt 0.820312 0.253906
vt 0.867188 0.160156
vt 0.843750 0.191406
vt 0.859375 0.207031
vt 0.843750 0.164062
vt 0.812500 0.269531
vt 0.820312 0.261719
vt 0.820312 0.269531
vt 0.859375 0.265625
vt 0.867188 0.250000
vt 0.867188 0.250000
vt 0.882812 0.253906
vt 0.890625 0.269531
vt 0.875000 0.253906
vt 0.890625 0.257812
vt 0.890625 0.265625
vt 0.875000 0.257812
vt 0.875000 0.246094
vt 0.859375 0.273438
vt 0.867188 0.265625
vt 0.843750 0.273438
vt 0.843750 0.265625
vt 0.890625 0.246094
vt 0.898438 0.253906
vt 0.898438 0.269531
vt 0.890625 0.253906
vt 0.875000 0.253906
vt 0.890625 0.246094
vt 0.890625 0.269531
vt 0.890625 0.273438
vt 0.875000 0.273438
vt 0.875000 0.269531
vt 0.851562 0.050781
vt 0.867188 0.070312
vt 0.859375 0.070312
vt 0.914062 0.261719
vt 0.929688 0.242188
vt 0.929688 0.261719
vt 0.789062 0.273438
vt 0.789062 0.265625
vt 0.796875 0.273438
vt 0.921875 0.269531
vt 0.843750 0.046875
vt 0.843750 0.050781
vt 0.851562 0.042969
vt 0.867188 0.050781
vt 0.906250 0.269531
vt 0.906250 0.261719
vt 0.921875 0.242188
vt 0.789062 0.257812
vt 0.804688 0.257812
vt 0.804688 0.265625
vt 0.914062 0.269531
vt 0.914062 0.273438
vt 0.898438 0.273438
vt 0.898438 0.269531
vt 0.882812 0.042969
vt 0.882812 0.050781
vt 0.867188 0.050781
vt 0.867188 0.042969
vt 0.843750 0.074219
vt 0.851562 0.074219
vt 0.851562 0.082031
vt 0.843750 0.210938
vt 0.851562 0.210938
vt 0.851562 0.218750
vt 0.867188 0.214844
vt 0.867188 0.234375
vt 0.867188 0.097656
vt 0.859375 0.097656
vt 0.851562 0.273438
vt 0.843750 0.273438
vt 0.843750 0.265625
vt 0.867188 0.078125
vt 0.843750 0.218750
vt 0.859375 0.234375
vt 0.843750 0.078125
vt 0.804688 0.246094
vt 0.804688 0.253906
vt 0.789062 0.246094
vt 0.851562 0.246094
vt 0.867188 0.261719
vt 0.859375 0.261719
vt 0.851562 0.136719
vt 0.859375 0.152344
vt 0.843750 0.136719
vt 0.828125 0.257812
vt 0.828125 0.265625
vt 0.820312 0.257812
vt 0.843750 0.128906
vt 0.843750 0.238281
vt 0.843750 0.246094
vt 0.851562 0.238281
vt 0.867188 0.246094
vt 0.851562 0.128906
vt 0.867188 0.132812
vt 0.867188 0.152344
vt 0.867188 0.273438
vt 0.859375 0.273438
vt 0.859375 0.265625
vt 0.882812 0.050781
vt 0.882812 0.058594
vt 0.867188 0.058594
vt 0.867188 0.050781
vt 0.929688 0.042969
vt 0.929688 0.242188
vt 0.921875 0.242188
vt 0.921875 0.042969
vt 0.921875 0.242188
vt 0.921875 0.042969
vt 0.914062 0.042969
vt 0.914062 0.242188
vt 0.906250 0.242188
vt 0.906250 0.042969
vt 0.906250 0.242188
vt 0.906250 0.042969
vt 0.882812 0.042969
vt 0.882812 0.242188
vt 0.882812 0.242188
vt 0.882812 0.042969
vt 0.875000 0.242188
vt 0.875000 0.042969
vt 0.898438 0.042969
vt 0.898438 0.242188
vt 0.890625 0.242188
vt 0.890625 0.042969
vt 0.890625 0.242188
vt 0.890625 0.042969
vt 0.867188 0.042969
vt 0.867188 0.246094
vt 0.867188 0.246094
vt 0.867188 0.042969
vt 0.859375 0.246094
vt 0.859375 0.042969
vt 0.851562 0.042969
vt 0.851562 0.246094
vt 0.851562 0.246094
vt 0.851562 0.042969
vt 0.843750 0.246094
vt 0.843750 0.042969
vt 0.835938 0.042969
vt 0.835938 0.250000
vt 0.835938 0.250000
vt 0.835938 0.042969
vt 0.828125 0.250000
vt 0.828125 0.042969
vt 0.820312 0.042969
vt 0.820312 0.250000
vt 0.820312 0.250000
vt 0.820312 0.042969
vt 0.812500 0.250000
vt 0.812500 0.042969
vt 0.773438 0.042969
vt 0.773438 0.253906
vt 0.773438 0.253906
vt 0.773438 0.042969
vt 0.765625 0.253906
vt 0.765625 0.042969
vt 0.757812 0.042969
vt 0.757812 0.253906
vt 0.757812 0.253906
vt 0.757812 0.042969
vt 0.750000 0.253906
vt 0.750000 0.042969
vt 0.882812 0.101562
vt 0.867188 0.113281
vt 0.820312 0.113281
vt 0.820312 0.042969
vt 0.867188 0.175781
vt 0.882812 0.187500
vt 0.875000 0.187500
vt 0.859375 0.175781
vt 0.796875 0.101562
vt 0.781250 0.113281
vt 0.773438 0.113281
vt 0.789062 0.101562
vt 0.875000 0.175781
vt 0.890625 0.187500
vt 0.804688 0.101562
vt 0.789062 0.113281
vt 0.851562 0.261719
vt 0.851562 0.191406
vt 0.859375 0.191406
vt 0.859375 0.261719
vt 0.828125 0.117188
vt 0.828125 0.183594
vt 0.820312 0.183594
vt 0.820312 0.117188
vt 0.835938 0.117188
vt 0.835938 0.183594
vt 0.875000 0.191406
vt 0.875000 0.261719
vt 0.804688 0.273438
vt 0.789062 0.273438
vt 0.789062 0.269531
vt 0.804688 0.269531
vt 0.812500 0.269531
vt 0.804688 0.269531
vt 0.804688 0.265625
vt 0.812500 0.265625
vt 0.789062 0.234375
vt 0.789062 0.042969
vt 0.796875 0.042969
vt 0.796875 0.234375
vt 0.804688 0.042969
vt 0.804688 0.246094
vt 0.796875 0.246094
vt 0.796875 0.042969
vt 0.812500 0.042969
vt 0.812500 0.234375
vt 0.804688 0.234375
vt 0.789062 0.042969
vt 0.789062 0.246094
vt 0.781250 0.246094
vt 0.781250 0.042969
vt 0.882812 0.058594
vt 0.882812 0.066406
vt 0.867188 0.066406
vt 0.867188 0.058594
vt 0.789062 0.238281
vt 0.796875 0.238281
vt 0.796875 0.246094
vt 0.843750 0.101562
vt 0.851562 0.101562
vt 0.851562 0.109375
vt 0.867188 0.105469
vt 0.867188 0.125000
vt 0.812500 0.261719
vt 0.804688 0.261719
vt 0.757812 0.265625
vt 0.750000 0.265625
vt 0.757812 0.257812
vt 0.812500 0.246094
vt 0.843750 0.105469
vt 0.859375 0.125000
vt 0.789062 0.246094
vt 0.898438 0.265625
vt 0.914062 0.257812
vt 0.914062 0.265625
vt 0.765625 0.039062
vt 0.765625 0.281250
vt 0.757812 0.281250
vt 0.757812 0.039062
vt 0.835938 0.039062
vt 0.835938 0.269531
vt 0.820312 0.269531
vt 0.820312 0.039062
vt 0.750000 0.039062
vt 0.750000 0.281250
vt 0.742188 0.281250
vt 0.742188 0.039062
vt 0.851562 0.039062
vt 0.851562 0.269531
vt 0.835938 0.269531
vt 0.835938 0.039062
vt 0.914062 0.039062
vt 0.914062 0.253906
vt 0.906250 0.253906
vt 0.906250 0.039062
vt 0.898438 0.253906
vt 0.898438 0.039062
vt 0.929688 0.039062
vt 0.929688 0.253906
vt 0.921875 0.253906
vt 0.921875 0.039062
vt 0.890625 0.042969
vt 0.898438 0.066406
vt 0.890625 0.066406
vt 0.875000 0.042969
vt 0.898438 0.085938
vt 0.890625 0.085938
vt 0.812500 0.117188
vt 0.796875 0.140625
vt 0.789062 0.140625
vt 0.804688 0.117188
vt 0.789062 0.160156
vt 0.781250 0.160156
vt 0.875000 0.066406
vt 0.867188 0.039062
vt 0.875000 0.085938
vt 0.781250 0.140625
vt 0.796875 0.117188
vt 0.773438 0.160156
vt 0.804688 0.042969
vt 0.820312 0.066406
vt 0.804688 0.066406
vt 0.796875 0.042969
vt 0.820312 0.085938
vt 0.804688 0.082031
vt 0.890625 0.117188
vt 0.875000 0.140625
vt 0.867188 0.140625
vt 0.882812 0.117188
vt 0.867188 0.160156
vt 0.859375 0.160156
vt 0.796875 0.066406
vt 0.789062 0.039062
vt 0.796875 0.082031
vt 0.859375 0.140625
vt 0.875000 0.117188
vt 0.851562 0.160156
vt 0.890625 0.191406
vt 0.890625 0.218750
vt 0.882812 0.218750
vt 0.882812 0.191406
vt 0.875000 0.218750
vt 0.875000 0.191406
vt 0.890625 0.218750
vt 0.890625 0.246094
vt 0.882812 0.246094
vt 0.882812 0.218750
vt 0.875000 0.246094
vt 0.875000 0.218750
vt 0.765625 0.273438
vt 0.750000 0.273438
vt 0.750000 0.269531
vt 0.765625 0.269531
vt 0.820312 0.273438
vt 0.828125 0.269531
vt 0.828125 0.273438
vt 0.820312 0.273438
vt 0.796875 0.250000
vt 0.796875 0.273438
vt 0.789062 0.273438
vt 0.789062 0.250000
vt 0.781250 0.273438
vt 0.781250 0.250000
vt 0.789062 0.246094
vt 0.789062 0.269531
vt 0.781250 0.269531
vt 0.781250 0.246094
vt 0.773438 0.269531
vt 0.773438 0.246094
vt 0.914062 0.277344
vt 0.906250 0.273438
vt 0.906250 0.269531
vt 0.914062 0.273438
vt 0.851562 0.265625
vt 0.867188 0.261719
vt 0.867188 0.265625
vt 0.851562 0.269531
vn 0.0000 -0.2903 -0.9569
vn 0.0000 -0.5557 -0.8314
vn -0.0000 -0.5471 0.8371
vn -0.0000 -0.2854 0.9584
vn 0.0000 0.5557 -0.8314
vn 0.0000 0.2903 -0.9569
vn -0.0000 0.2854 0.9584
vn -0.0000 0.5471 0.8371
vn 0.0000 -0.0000 1.0000
vn 0.0000 -0.5557 0.8314
vn -0.0000 0.0000 -1.0000
vn -0.0000 0.5471 -0.8371
vn 0.0000 0.5557 0.8314
vn 0.0015 -0.0163 0.9999
vn 0.0002 -0.0008 1.0000
vn 0.0010 -0.5572 0.8304
vn 0.0253 -0.5572 0.8300
vn 0.0015 -0.0160 -0.9999
vn 0.0002 -0.0008 -1.0000
vn -0.0006 0.5480 -0.8365
vn -0.0260 0.5479 -0.8361
vn -0.0264 0.5565 0.8304
vn -0.0006 0.5566 0.8308
vn 0.4717 -0.6779 -0.5638
vn 0.4717 -0.6779 0.5638
vn -0.4717 -0.6779 0.5638
vn -0.4717 -0.6779 -0.5638
vn -0.0000 0.0806 0.9968
vn -0.0000 0.0806 -0.9967
vn -0.9992 0.0407 0.0000
vn -0.1277 0.2293 -0.9649
vn 0.1277 0.2293 0.9649
vn -0.1277 0.2293 0.9649
vn 0.9992 0.0407 0.0000
vn 0.1277 0.2293 -0.9649
vn 0.0000 0.0806 -0.9968
vn 0.0000 0.0806 0.9967
vn -1.0000 0.0000 -0.0000
vn 0.7071 0.0000 -0.7071
vn 0.7071 0.0000 0.7071
vn -0.7071 0.0000 -0.7071
vn 1.0000 0.0000 0.0000
vn -0.7071 0.0000 0.7071
vn 0.0249 -0.5486 -0.8357
vn 0.0010 -0.5486 -0.8361
vn -0.0000 -0.5471 -0.8371
vn 0.0015 -0.0146 0.9999
vn 0.0002 -0.0041 1.0000
vn 0.0061 -0.5572 0.8304
vn 0.0278 -0.5571 0.8300
vn 0.0015 -0.0144 -0.9999
vn 0.0002 -0.0041 -1.0000
vn -0.0057 0.5480 -0.8365
vn -0.0285 0.5479 -0.8361
vn -0.0289 0.5565 0.8304
vn -0.0058 0.5566 0.8308
vn 0.0274 -0.5486 -0.8357
vn 0.0060 -0.5486 -0.8361
vn 0.5773 0.5774 -0.5774
vn -0.5774 0.5774 -0.5773
vn -0.5774 0.5773 0.5773
vn 0.5773 0.5773 0.5774
vn -0.5773 0.5774 -0.5774
vn -0.5774 0.5774 0.5773
vn 0.5774 0.5773 0.5774
vn 0.1205 -0.5413 -0.8322
vn 0.1053 -0.5429 -0.8332
vn 0.0034 -0.0088 -1.0000
vn -0.0167 0.0751 -0.9970
vn 0.0700 -0.5465 -0.8345
vn 0.0035 -0.0139 -0.9999
vn -0.1221 0.5489 0.8269
vn -0.1098 0.5503 0.8277
vn 0.0034 -0.0089 1.0000
vn -0.0170 0.0762 0.9969
vn -0.0743 0.5540 0.8292
vn 0.0035 -0.0141 0.9999
vn -0.1081 0.5419 -0.8335
vn -0.1203 0.5405 -0.8327
vn -0.0731 0.5455 -0.8349
vn 0.1070 -0.5513 0.8274
vn 0.1223 -0.5496 0.8264
vn 0.0711 -0.5550 0.8288
vn 0.1215 -0.5414 -0.8320
vn 0.1058 -0.5430 -0.8331
vn 0.0035 -0.0091 -1.0000
vn -0.0170 0.0757 -0.9970
vn -0.1231 0.5490 0.8267
vn -0.1104 0.5504 0.8276
vn 0.0036 -0.0092 1.0000
vn -0.0172 0.0769 0.9969
vn -0.1087 0.5419 -0.8334
vn -0.1213 0.5406 -0.8325
vn 0.1074 -0.5514 0.8273
vn 0.1234 -0.5497 0.8262
vn -0.8165 -0.5774 -0.0000
vn -0.8165 0.5774 -0.0000
vn 0.0000 0.5774 -0.8165
vn 0.0000 -0.5774 -0.8165
vn 0.8165 0.5774 0.0000
vn 0.8165 -0.5774 0.0000
vn 0.0000 0.5774 0.8165
vn 0.0000 -0.5774 0.8165
vn -0.8165 -0.5773 -0.0000
vn -0.5000 0.7071 0.5000
vn 0.0000 1.0000 0.0000
usemtl Material.001
s 1
f 1/1/1 2/2/2 4/3/2 3/4/1
f 2/5/3 5/6/4 6/7/4 4/8/3
f 11/9/5 12/10/6 10/11/6 9/12/5
f 8/13/7 11/14/8 9/15/8 7/16/7
f 1/1/1 3/4/1 10/11/6 12/10/6
f 5/6/4 8/13/7 7/16/7 6/7/4
f 13/17/9 16/18/9 18/19/10 15/20/10
f 117/21/11 118/22/11 17/23/12 14/24/12
f 14/25/13 17/26/13 16/18/9 13/17/9
f 172/27/14 22/28/15 24/29/16 171/30/17
f 178/31/18 116/32/19 23/33/20 177/34/21
f 177/35/22 23/36/23 22/28/15 172/27/14
f 29/37/24 31/38/25 34/39/26 32/40/27
f 34/41/26 31/42/25 26/43/28
f 29/44/24 32/45/27 25/46/29
f 28/47/30 33/48/31 25/46/29
f 30/49/32 33/50/33 26/43/28
f 31/51/25 29/52/24 27/53/34
f 27/54/34 30/49/32 26/43/28
f 31/42/25 27/54/34 26/43/28
f 32/45/27 28/47/30 25/46/29
f 27/55/34 25/46/29 30/56/35
f 29/44/24 25/46/29 27/55/34
f 34/41/26 26/43/28 28/57/30
f 34/58/26 28/59/30 32/60/27
f 26/43/28 33/50/33 28/57/30
f 25/46/29 33/48/31 30/56/35
f 44/61/36 36/62/31 39/63/35
f 43/64/37 36/65/33 41/66/30
f 35/67/26 41/68/30 37/69/27
f 35/70/26 43/64/37 41/66/30
f 40/71/24 44/61/36 42/72/34
f 42/72/34 44/61/36 39/63/35
f 37/73/27 41/74/30 44/61/36
f 38/75/25 42/76/34 43/64/37
f 42/76/34 39/77/32 43/64/37
f 38/78/25 40/79/24 42/80/34
f 39/77/32 36/65/33 43/64/37
f 41/74/30 36/62/31 44/61/36
f 40/71/24 37/73/27 44/61/36
f 35/70/26 38/75/25 43/64/37
f 40/81/24 38/82/25 35/83/26 37/84/27
f 54/85/29 46/86/31 49/87/35
f 53/88/37 46/89/33 51/90/30
f 45/91/26 51/92/30 47/93/27
f 45/94/26 53/88/37 51/90/30
f 50/95/24 54/85/29 52/96/34
f 52/96/34 54/85/29 49/87/35
f 47/97/27 51/98/30 54/85/29
f 48/99/25 52/100/34 53/88/37
f 52/100/34 49/101/32 53/88/37
f 48/102/25 50/103/24 52/104/34
f 49/101/32 46/89/33 53/88/37
f 51/98/30 46/86/31 54/85/29
f 50/95/24 47/97/27 54/85/29
f 45/94/26 48/99/25 53/88/37
f 50/105/24 48/106/25 45/107/26 47/108/27
f 59/109/24 61/110/25 64/111/26 62/112/27
f 64/113/26 61/114/25 56/115/37
f 59/116/24 62/117/27 55/118/29
f 58/119/30 63/120/31 55/118/29
f 60/121/32 63/122/33 56/115/37
f 61/123/25 59/124/24 57/125/34
f 57/126/34 60/121/32 56/115/37
f 61/114/25 57/126/34 56/115/37
f 62/117/27 58/119/30 55/118/29
f 57/127/34 55/118/29 60/128/35
f 59/116/24 55/118/29 57/127/34
f 64/113/26 56/115/37 58/129/30
f 64/130/26 58/131/30 62/132/27
f 56/115/37 63/122/33 58/129/30
f 55/118/29 63/120/31 60/128/35
f 74/133/36 66/134/31 69/135/35
f 73/136/37 66/137/33 71/138/30
f 65/139/26 71/140/30 67/141/27
f 65/142/26 73/136/37 71/138/30
f 70/143/24 74/133/36 72/144/34
f 72/144/34 74/133/36 69/135/35
f 67/145/27 71/146/30 74/133/36
f 68/147/25 72/148/34 73/136/37
f 72/148/34 69/149/32 73/136/37
f 68/150/25 70/151/24 72/152/34
f 69/149/32 66/137/33 73/136/37
f 71/146/30 66/134/31 74/133/36
f 70/143/24 67/145/27 74/133/36
f 65/142/26 68/147/25 73/136/37
f 70/153/24 68/154/25 65/155/26 67/156/27
f 75/157/38 76/158/38 78/159/11 77/160/11
f 77/160/11 78/159/11 82/161/39 81/162/39
f 81/163/40 82/164/40 80/165/9 79/166/9
f 79/166/9 80/165/9 76/167/38 75/168/38
f 83/169/41 84/170/41 86/171/11 85/172/11
f 85/172/11 86/171/11 90/173/42 89/174/42
f 89/175/42 90/176/42 88/177/9 87/178/9
f 87/178/9 88/177/9 84/179/43 83/180/43
f 91/181/41 92/182/41 94/183/41 93/184/41
f 93/184/39 94/183/39 98/185/42 97/186/42
f 97/187/42 98/188/42 96/189/40 95/190/40
f 95/190/43 96/189/43 92/191/43 91/192/43
f 99/193/41 100/194/41 102/195/41 101/196/41
f 101/196/39 102/195/39 106/197/42 105/198/42
f 105/199/42 106/200/42 104/201/40 103/202/40
f 103/202/43 104/201/43 100/203/43 99/204/43
f 107/205/41 108/206/41 110/207/41 109/208/41
f 109/208/39 110/207/39 114/209/42 113/210/42
f 113/211/42 114/212/42 112/213/40 111/214/40
f 111/214/43 112/213/43 108/215/43 107/216/43
f 171/217/44 24/218/45 116/32/19 178/31/18
f 15/219/46 18/220/46 118/22/11 117/21/11
f 184/221/47 122/222/48 124/223/49 183/224/50
f 190/225/51 126/226/52 123/227/53 189/228/54
f 189/229/55 123/230/56 122/222/48 184/221/47
f 183/231/57 124/232/58 126/226/52 190/225/51
f 133/233/13 130/234/13 131/235/9 134/236/9
f 128/237/11 127/238/11 130/239/12 133/240/12
f 132/241/46 129/242/46 127/238/11 128/237/11
f 134/236/9 131/235/9 129/243/10 132/244/10
f 156/245/59 154/246/60 158/247/61 160/248/62
f 139/249/59 141/250/63 137/251/64 135/252/65
f 140/253/39 139/254/59 135/255/65 136/256/42
f 142/257/41 141/258/63 139/259/59 140/260/39
f 138/261/43 137/262/64 141/263/63 142/257/41
f 136/264/9 135/265/65 137/266/64 138/267/43
f 147/268/24 149/269/25 152/270/26 150/271/27
f 152/272/26 149/273/25 144/274/37
f 147/275/24 150/276/27 143/277/29
f 146/278/30 151/279/31 143/277/29
f 148/280/32 151/281/33 144/274/37
f 149/282/25 147/283/24 145/284/34
f 145/285/34 148/280/32 144/274/37
f 149/273/25 145/285/34 144/274/37
f 150/276/27 146/278/30 143/277/29
f 145/286/34 143/277/29 148/287/35
f 147/275/24 143/277/29 145/286/34
f 152/272/26 144/274/37 146/288/30
f 152/289/26 146/290/30 150/291/27
f 144/274/37 151/281/33 146/288/30
f 143/277/29 151/279/31 148/287/35
f 153/292/41 154/293/60 156/294/59 155/295/39
f 155/296/39 156/297/59 160/298/62 159/299/42
f 159/300/9 160/301/62 158/302/61 157/303/43
f 157/304/43 158/305/61 154/306/60 153/307/41
f 161/308/41 162/309/41 164/310/11 163/311/11
f 163/311/11 164/310/11 168/312/39 167/313/39
f 167/314/40 168/315/40 166/316/9 165/317/9
f 165/317/9 166/316/9 162/309/43 161/308/43
f 21/318/66 169/319/67 180/320/68 115/321/69
f 169/319/67 170/322/70 179/323/71 180/320/68
f 170/322/70 171/217/44 178/31/18 179/323/71
f 20/324/72 175/325/73 174/326/74 19/327/75
f 175/325/73 176/328/76 173/329/77 174/326/74
f 176/328/76 177/35/22 172/27/14 173/329/77
f 115/321/69 180/320/68 175/330/78 20/331/79
f 180/320/68 179/323/71 176/332/80 175/330/78
f 179/323/71 178/31/18 177/34/21 176/332/80
f 19/327/75 174/326/74 169/333/81 21/334/82
f 174/326/74 173/329/77 170/335/83 169/333/81
f 173/329/77 172/27/14 171/30/17 170/335/83
f 121/336/84 181/337/85 192/338/86 125/339/87
f 181/337/85 182/340/70 191/341/71 192/338/86
f 182/340/70 183/231/57 190/225/51 191/341/71
f 120/342/88 187/343/89 186/344/90 119/345/91
f 187/343/89 188/346/76 185/347/77 186/344/90
f 188/346/76 189/229/55 184/221/47 185/347/77
f 125/339/87 192/338/86 187/348/92 120/349/93
f 192/338/86 191/341/71 188/350/80 187/348/92
f 191/341/71 190/225/51 189/228/54 188/350/80
f 119/345/91 186/344/90 181/351/94 121/352/95
f 186/344/90 185/347/77 182/353/83 181/351/94
f 185/347/77 184/221/47 183/224/50 182/353/83
f 193/354/96 194/355/97 196/356/98 195/357/99
f 195/357/99 196/356/98 200/358/100 199/359/101
f 199/360/101 200/361/100 198/362/102 197/363/103
f 197/363/103 198/362/102 194/364/97 193/365/96
f 196/366/98 194/367/97 198/368/102 200/369/100
f 193/370/96 195/371/99 199/372/101 197/373/103
f 201/374/104 202/375/41 204/376/41 203/377/99
f 203/377/99 204/376/39 208/378/100 207/379/101
f 207/380/101 208/381/100 206/382/102 205/383/103
f 205/383/103 206/382/102 202/384/105 201/385/104
f 204/386/106 202/387/105 206/388/102 208/389/100
f 201/390/104 203/391/99 207/392/101 205/393/103
