# Blender v2.93.5 OBJ File: 'Modular Graveyard.blend'
# www.blender.org
mtllib RustyGateKeyR.mtl
o RustyGateKeyR_Circle.053
v -1.781930 1.164664 -0.018812
v -1.781930 1.136727 -0.000141
v -1.560871 1.164664 -0.018813
v -1.560871 1.136727 -0.000142
v -1.781930 1.164664 0.018118
v -1.560871 1.164664 0.018117
v -1.560871 1.417921 0.018117
v -1.781930 1.417921 0.018118
v -1.560871 1.445858 -0.000142
v -1.560871 1.417921 -0.018813
v -1.781930 1.445858 -0.000141
v -1.781930 1.417921 -0.018812
v -1.807937 0.182211 0.018813
v -1.807937 0.210148 0.000141
v -1.807937 0.154274 0.000141
v -0.113965 0.182211 0.018813
v -0.113965 0.210148 0.000142
v -0.113965 0.154274 0.000142
v -1.807937 2.488618 0.018813
v -1.807937 2.516727 0.000141
v -1.807937 2.460542 0.000141
v -0.113965 2.251604 0.018813
v -0.113965 2.279541 0.000142
v -0.113965 2.223666 0.000142
v -1.306160 2.672247 -0.051993
v -1.306160 2.672247 0.052207
v -1.380013 2.661094 0.000107
v -1.232307 2.661094 0.000107
v -1.338414 2.578019 -0.030726
v -1.319516 2.884056 0.000107
v -1.338414 2.578019 0.030940
v -1.273906 2.578019 -0.030726
v -1.292804 2.884056 0.000107
v -1.273906 2.578019 0.030940
v -0.313932 2.407151 0.030940
v -0.332830 2.713188 0.000107
v -0.313932 2.407151 -0.030726
v -0.378439 2.407151 0.030940
v -0.359541 2.713188 0.000107
v -0.378439 2.407151 -0.030726
v -0.272333 2.490226 0.000107
v -0.420038 2.490226 0.000107
v -0.346186 2.501379 0.052207
v -0.346186 2.501379 -0.051993
v -1.021774 2.524860 0.030940
v -1.040672 2.830897 0.000107
v -1.021774 2.524860 -0.030726
v -1.086282 2.524860 0.030940
v -1.067384 2.830897 0.000107
v -1.086282 2.524860 -0.030726
v -0.980175 2.607935 0.000107
v -1.127881 2.607935 0.000107
v -1.054028 2.619089 0.052207
v -1.054028 2.619089 -0.051993
v -0.809257 2.565930 -0.051993
v -0.809257 2.565930 0.052207
v -0.883110 2.554776 0.000107
v -0.735404 2.554776 0.000107
v -0.841511 2.471701 -0.030726
v -0.822613 2.777738 0.000107
v -0.841511 2.471701 0.030940
v -0.777003 2.471701 -0.030726
v -0.795901 2.777738 0.000107
v -0.777003 2.471701 0.030940
v -0.550214 2.429933 0.030940
v -0.569112 2.735970 0.000107
v -0.550214 2.429933 -0.030726
v -0.614722 2.429933 0.030940
v -0.595824 2.735970 0.000107
v -0.614722 2.429933 -0.030726
v -0.508615 2.513009 0.000107
v -0.656321 2.513009 0.000107
v -0.582468 2.524162 0.052207
v -0.582468 2.524162 -0.051993
v -0.315669 -0.002187 0.000000
v -0.315669 2.413933 0.000000
v -0.346062 -0.002187 -0.030394
v -0.346062 2.413933 -0.030394
v -0.346062 -0.002187 0.030394
v -0.346062 2.413933 0.030394
v -0.376456 -0.002187 0.000000
v -0.376456 2.413933 0.000000
v -0.552144 -0.002187 0.000000
v -0.552144 2.436715 0.000000
v -0.582537 -0.002187 -0.030394
v -0.582537 2.436715 -0.030394
v -0.582537 -0.002187 0.030394
v -0.582537 2.436715 0.030394
v -0.612931 -0.002187 0.000000
v -0.612931 2.436715 0.000000
v -0.778823 -0.002187 0.000000
v -0.778823 2.478483 0.000000
v -0.809217 -0.002187 -0.030394
v -0.809217 2.478483 -0.030394
v -0.809217 -0.002187 0.030394
v -0.809217 2.478483 0.030394
v -0.839610 -0.002187 0.000000
v -0.839610 2.478483 0.000000
v -1.023636 -0.002187 0.000000
v -1.023636 2.531642 0.000000
v -1.054030 -0.002187 -0.030394
v -1.054030 2.531642 -0.030394
v -1.054030 -0.002187 0.030394
v -1.054030 2.531642 0.030394
v -1.084424 -0.002187 0.000000
v -1.084424 2.531642 0.000000
v -1.275704 -0.002187 0.000000
v -1.275704 2.584801 0.000000
v -1.306098 -0.002187 -0.030394
v -1.306098 2.584801 -0.030394
v -1.306098 -0.002187 0.030394
v -1.306098 2.584801 0.030394
v -1.336491 -0.002187 0.000000
v -1.336491 2.584801 0.000000
v -1.807937 2.488617 -0.018117
v -0.113965 2.251604 -0.018117
v -1.807937 0.182211 -0.018117
v -0.113965 0.182211 -0.018117
v -1.807937 2.287989 0.018813
v -1.807937 2.316067 0.000141
v -1.807937 2.259937 0.000141
v -0.113965 2.051604 0.018813
v -0.113965 2.079540 0.000142
v -0.113965 2.023666 0.000142
v -1.807937 2.287988 -0.018117
v -0.113965 2.051604 -0.018117
v -0.113965 0.359053 -0.018117
v -1.807937 0.359053 -0.018117
v -0.113965 0.331115 0.000142
v -0.113965 0.386990 0.000142
v -0.113965 0.359053 0.018813
v -1.807937 0.331115 0.000141
v -1.807937 0.386990 0.000141
v -1.807937 0.359053 0.018813
v -0.140777 2.496091 0.031713
v -0.140777 -0.002187 0.031713
v -0.077349 2.496091 0.031713
v -0.077349 -0.002187 0.031713
v -0.140776 2.496091 -0.031714
v -0.140776 -0.002187 -0.031714
v -0.077350 2.496091 -0.031714
v -0.077350 -0.002187 -0.031714
v -1.557424 2.721609 -0.051993
v -1.557424 2.721609 0.052207
v -1.631277 2.710456 0.000107
v -1.483571 2.710456 0.000107
v -1.589678 2.627381 -0.030726
v -1.570780 2.933418 0.000107
v -1.589678 2.627381 0.030940
v -1.525170 2.627381 -0.030726
v -1.544068 2.933418 0.000107
v -1.525170 2.627381 0.030940
v -1.777350 -0.002187 -0.031713
v -1.777350 2.979063 -0.031713
v -1.840776 -0.002187 -0.031714
v -1.840776 2.979063 -0.031714
v -1.777349 -0.002187 0.031713
v -1.777349 2.979063 0.031713
v -1.840777 -0.002187 0.031714
v -1.840777 2.979063 0.031714
v -1.527024 -0.002187 0.000000
v -1.527024 2.634163 0.000000
v -1.557418 -0.002187 -0.030394
v -1.557418 2.634163 -0.030394
v -1.557418 -0.002187 0.030394
v -1.557418 2.634163 0.030394
v -1.587812 -0.002187 0.000000
v -1.587812 2.634163 0.000000
v -1.244306 2.335102 0.000141
v -0.820813 2.262804 0.000142
v -0.397320 2.224275 0.000142
v -0.397320 2.251994 0.018813
v -0.820813 2.290691 0.018813
v -1.244306 2.363173 0.018813
v -1.244306 2.391327 0.000141
v -0.820813 2.318592 0.000142
v -0.397320 2.279799 0.000142
v -0.397320 2.251993 -0.018117
v -0.820813 2.290691 -0.018117
v -1.244306 2.363171 -0.018117
v -1.264326 2.137946 0.000141
v -0.840833 2.065647 0.000142
v -0.417340 2.027118 0.000142
v -0.417340 2.054838 0.018813
v -0.840833 2.093534 0.018813
v -1.264326 2.166016 0.018813
v -1.264326 2.194170 0.000141
v -0.840833 2.121436 0.000142
v -0.417340 2.082642 0.000142
v -0.417340 2.054836 -0.018117
v -0.840833 2.093534 -0.018117
v -1.264326 2.166014 -0.018117
v 0.002666 1.996354 -0.000000
v 0.002666 2.306917 -0.000000
v -0.037736 1.996354 -0.040402
v -0.037736 2.306917 -0.040402
v -0.037736 1.996354 0.040402
v -0.037736 2.306917 0.040402
v -0.078138 1.996354 -0.000000
v -0.078138 2.306917 -0.000000
v 0.002666 0.124949 -0.000000
v 0.002666 0.418193 -0.000000
v -0.037736 0.124949 -0.040402
v -0.037736 0.418193 -0.040402
v -0.037736 0.124949 0.040402
v -0.037736 0.418193 0.040402
v -0.078138 0.124949 -0.000000
v -0.078138 0.418193 -0.000000
vt 0.804688 0.195312
vt 0.773438 0.195312
vt 0.773438 0.191406
vt 0.804688 0.191406
vt 0.781250 0.246094
vt 0.781250 0.250000
vt 0.773438 0.250000
vt 0.773438 0.246094
vt 0.804688 0.218750
vt 0.773438 0.218750
vt 0.773438 0.214844
vt 0.804688 0.214844
vt 0.890625 0.246094
vt 0.890625 0.250000
vt 0.882812 0.250000
vt 0.882812 0.246094
vt 0.094488 0.765625
vt 0.023622 0.765625
vt 0.023622 0.808594
vt 0.094488 0.808594
vt 0.835938 0.253906
vt 0.835938 0.253906
vt 0.835938 0.191406
vt 0.835938 0.191406
vt 0.835938 0.046875
vt 0.851562 0.046875
vt 0.851562 0.117188
vt 0.835938 0.117188
vt 0.851562 0.253906
vt 0.851562 0.191406
vt 0.882812 0.101562
vt 0.890625 0.105469
vt 0.875000 0.117188
vt 0.859375 0.117188
vt 0.789062 0.179688
vt 0.796875 0.175781
vt 0.804688 0.187500
vt 0.796875 0.187500
vt 0.867188 0.101562
vt 0.851562 0.117188
vt 0.898438 0.265625
vt 0.906250 0.265625
vt 0.906250 0.273438
vt 0.898438 0.273438
vt 0.789062 0.218750
vt 0.789062 0.226562
vt 0.773438 0.222656
vt 0.875000 0.210938
vt 0.867188 0.218750
vt 0.859375 0.214844
vt 0.851562 0.218750
vt 0.875000 0.230469
vt 0.796875 0.242188
vt 0.796875 0.242188
vt 0.812500 0.250000
vt 0.812500 0.253906
vt 0.796875 0.250000
vt 0.773438 0.226562
vt 0.882812 0.214844
vt 0.882812 0.230469
vt 0.796875 0.222656
vt 0.796875 0.253906
vt 0.812500 0.253906
vt 0.812500 0.261719
vt 0.875000 0.250000
vt 0.882812 0.265625
vt 0.882812 0.265625
vt 0.867188 0.109375
vt 0.882812 0.109375
vt 0.882812 0.125000
vt 0.796875 0.261719
vt 0.781250 0.261719
vt 0.796875 0.253906
vt 0.875000 0.105469
vt 0.875000 0.238281
vt 0.882812 0.246094
vt 0.867188 0.238281
vt 0.867188 0.250000
vt 0.859375 0.105469
vt 0.851562 0.109375
vt 0.875000 0.125000
vt 0.796875 0.246094
vt 0.796875 0.250000
vt 0.781250 0.246094
vt 0.796875 0.265625
vt 0.812500 0.265625
vt 0.812500 0.273438
vt 0.796875 0.273438
vt 0.867188 0.144531
vt 0.875000 0.128906
vt 0.882812 0.128906
vt 0.867188 0.082031
vt 0.882812 0.082031
vt 0.882812 0.101562
vt 0.906250 0.261719
vt 0.898438 0.261719
vt 0.898438 0.253906
vt 0.875000 0.074219
vt 0.859375 0.152344
vt 0.851562 0.144531
vt 0.875000 0.152344
vt 0.882812 0.144531
vt 0.859375 0.074219
vt 0.851562 0.082031
vt 0.875000 0.101562
vt 0.835938 0.265625
vt 0.835938 0.253906
vt 0.835938 0.265625
vt 0.835938 0.269531
vt 0.835938 0.269531
vt 0.835938 0.273438
vt 0.835938 0.273438
vt 0.890625 0.265625
vt 0.898438 0.265625
vt 0.898438 0.273438
vt 0.890625 0.273438
vt 0.875000 0.046875
vt 0.867188 0.054688
vt 0.859375 0.046875
vt 0.875000 0.234375
vt 0.867188 0.242188
vt 0.859375 0.234375
vt 0.851562 0.242188
vt 0.875000 0.257812
vt 0.875000 0.070312
vt 0.882812 0.070312
vt 0.882812 0.261719
vt 0.882812 0.253906
vt 0.890625 0.261719
vt 0.851562 0.054688
vt 0.882812 0.242188
vt 0.882812 0.257812
vt 0.882812 0.054688
vt 0.781250 0.250000
vt 0.773438 0.250000
vt 0.781250 0.246094
vt 0.867188 0.191406
vt 0.882812 0.210938
vt 0.875000 0.210938
vt 0.898438 0.246094
vt 0.914062 0.246094
vt 0.914062 0.261719
vt 0.929688 0.257812
vt 0.921875 0.257812
vt 0.929688 0.250000
vt 0.898438 0.238281
vt 0.875000 0.183594
vt 0.882812 0.191406
vt 0.859375 0.183594
vt 0.851562 0.191406
vt 0.898438 0.238281
vt 0.890625 0.246094
vt 0.906250 0.261719
vt 0.773438 0.265625
vt 0.773438 0.253906
vt 0.781250 0.265625
vt 0.773438 0.265625
vt 0.789062 0.265625
vt 0.789062 0.273438
vt 0.773438 0.273438
vt 0.906250 0.042969
vt 0.906250 0.042969
vt 0.906250 0.234375
vt 0.906250 0.234375
vt 0.914062 0.042969
vt 0.914062 0.234375
vt 0.890625 0.042969
vt 0.898438 0.042969
vt 0.898438 0.234375
vt 0.890625 0.234375
vt 0.898438 0.042969
vt 0.898438 0.234375
vt 0.875000 0.042969
vt 0.882812 0.042969
vt 0.882812 0.234375
vt 0.875000 0.234375
vt 0.890625 0.042969
vt 0.890625 0.234375
vt 0.867188 0.042969
vt 0.875000 0.042969
vt 0.875000 0.234375
vt 0.867188 0.234375
vt 0.843750 0.042969
vt 0.851562 0.042969
vt 0.851562 0.238281
vt 0.843750 0.238281
vt 0.859375 0.042969
vt 0.859375 0.238281
vt 0.828125 0.042969
vt 0.835938 0.042969
vt 0.835938 0.238281
vt 0.828125 0.238281
vt 0.820312 0.042969
vt 0.828125 0.042969
vt 0.828125 0.246094
vt 0.820312 0.246094
vt 0.828125 0.042969
vt 0.828125 0.246094
vt 0.796875 0.042969
vt 0.804688 0.042969
vt 0.804688 0.246094
vt 0.796875 0.246094
vt 0.812500 0.042969
vt 0.812500 0.246094
vt 0.750000 0.042969
vt 0.757812 0.042969
vt 0.757812 0.250000
vt 0.750000 0.250000
vt 0.765625 0.042969
vt 0.765625 0.250000
vt 0.921875 0.042969
vt 0.929688 0.042969
vt 0.929688 0.250000
vt 0.921875 0.250000
vt 0.929688 0.042969
vt 0.929688 0.250000
vt 0.781250 0.179688
vt 0.796875 0.187500
vt 0.835938 0.046875
vt 0.835938 0.117188
vt 0.796875 0.101562
vt 0.804688 0.101562
vt 0.796875 0.117188
vt 0.781250 0.117188
vt 0.867188 0.175781
vt 0.882812 0.175781
vt 0.890625 0.187500
vt 0.882812 0.187500
vt 0.789062 0.101562
vt 0.773438 0.117188
vt 0.859375 0.175781
vt 0.875000 0.187500
vt 0.851562 0.191406
vt 0.859375 0.191406
vt 0.859375 0.257812
vt 0.851562 0.257812
vt 0.835938 0.187500
vt 0.835938 0.187500
vt 0.835938 0.121094
vt 0.835938 0.121094
vt 0.851562 0.187500
vt 0.851562 0.121094
vt 0.875000 0.191406
vt 0.875000 0.257812
vt 0.937500 0.261719
vt 0.937500 0.269531
vt 0.921875 0.269531
vt 0.921875 0.261719
vt 0.867188 0.261719
vt 0.867188 0.265625
vt 0.851562 0.265625
vt 0.851562 0.261719
vt 0.796875 0.046875
vt 0.812500 0.046875
vt 0.812500 0.230469
vt 0.796875 0.230469
vt 0.781250 0.042969
vt 0.796875 0.042969
vt 0.796875 0.242188
vt 0.781250 0.242188
vt 0.812500 0.046875
vt 0.828125 0.046875
vt 0.828125 0.230469
vt 0.812500 0.230469
vt 0.773438 0.042969
vt 0.781250 0.042969
vt 0.781250 0.242188
vt 0.773438 0.242188
vt 0.882812 0.265625
vt 0.890625 0.265625
vt 0.890625 0.273438
vt 0.882812 0.273438
vt 0.812500 0.234375
vt 0.812500 0.242188
vt 0.804688 0.234375
vt 0.859375 0.179688
vt 0.867188 0.171875
vt 0.875000 0.179688
vt 0.882812 0.171875
vt 0.882812 0.156250
vt 0.820312 0.261719
vt 0.828125 0.261719
vt 0.812500 0.246094
vt 0.812500 0.250000
vt 0.796875 0.246094
vt 0.796875 0.242188
vt 0.851562 0.171875
vt 0.875000 0.156250
vt 0.828125 0.242188
vt 0.773438 0.253906
vt 0.781250 0.253906
vt 0.781250 0.261719
vt 0.757812 0.042969
vt 0.765625 0.042969
vt 0.765625 0.281250
vt 0.757812 0.281250
vt 0.820312 0.042969
vt 0.835938 0.042969
vt 0.835938 0.265625
vt 0.820312 0.265625
vt 0.742188 0.042969
vt 0.750000 0.042969
vt 0.750000 0.281250
vt 0.742188 0.281250
vt 0.843750 0.042969
vt 0.843750 0.042969
vt 0.843750 0.265625
vt 0.843750 0.265625
vt 0.914062 0.042969
vt 0.914062 0.042969
vt 0.914062 0.250000
vt 0.914062 0.250000
vt 0.921875 0.042969
vt 0.921875 0.250000
vt 0.898438 0.042969
vt 0.898438 0.042969
vt 0.898438 0.250000
vt 0.898438 0.250000
vt 0.906250 0.042969
vt 0.906250 0.250000
vt 0.796875 0.121094
vt 0.796875 0.121094
vt 0.789062 0.140625
vt 0.781250 0.140625
vt 0.781250 0.160156
vt 0.773438 0.160156
vt 0.867188 0.042969
vt 0.882812 0.042969
vt 0.890625 0.070312
vt 0.882812 0.066406
vt 0.890625 0.085938
vt 0.882812 0.085938
vt 0.804688 0.121094
vt 0.796875 0.140625
vt 0.796875 0.160156
vt 0.890625 0.042969
vt 0.898438 0.070312
vt 0.898438 0.085938
vt 0.875000 0.121094
vt 0.882812 0.121094
vt 0.867188 0.140625
vt 0.859375 0.140625
vt 0.859375 0.160156
vt 0.851562 0.160156
vt 0.789062 0.042969
vt 0.796875 0.042969
vt 0.804688 0.066406
vt 0.796875 0.066406
vt 0.804688 0.085938
vt 0.796875 0.085938
vt 0.890625 0.121094
vt 0.875000 0.140625
vt 0.875000 0.160156
vt 0.804688 0.042969
vt 0.812500 0.070312
vt 0.812500 0.085938
vt 0.796875 0.218750
vt 0.804688 0.218750
vt 0.804688 0.242188
vt 0.796875 0.242188
vt 0.812500 0.218750
vt 0.812500 0.242188
vt 0.882812 0.191406
vt 0.890625 0.191406
vt 0.890625 0.218750
vt 0.882812 0.218750
vt 0.890625 0.191406
vt 0.890625 0.218750
vt 0.812500 0.257812
vt 0.812500 0.261719
vt 0.796875 0.265625
vt 0.796875 0.257812
vt 0.796875 0.269531
vt 0.796875 0.261719
vt 0.812500 0.265625
vt 0.812500 0.269531
vt 0.828125 0.242188
vt 0.835938 0.242188
vt 0.835938 0.269531
vt 0.828125 0.269531
vt 0.843750 0.242188
vt 0.843750 0.269531
vt 0.882812 0.222656
vt 0.890625 0.218750
vt 0.890625 0.242188
vt 0.882812 0.242188
vt 0.890625 0.222656
vt 0.890625 0.242188
vt 0.882812 0.261719
vt 0.882812 0.265625
vt 0.875000 0.269531
vt 0.875000 0.265625
vt 0.851562 0.265625
vt 0.851562 0.261719
vt 0.867188 0.265625
vt 0.867188 0.269531
vn -0.0000 -0.2903 -0.9569
vn -0.0000 -0.5557 -0.8314
vn 0.0000 -0.5471 0.8371
vn 0.0000 -0.2854 0.9584
vn -0.0000 0.5557 -0.8314
vn -0.0000 0.2903 -0.9569
vn 0.0000 0.2854 0.9584
vn 0.0000 0.5471 0.8371
vn -0.0000 -0.0000 1.0000
vn -0.0000 -0.5557 0.8314
vn 0.0000 0.0000 -1.0000
vn 0.0000 0.5471 -0.8371
vn -0.0000 0.5557 0.8314
vn -0.0015 -0.0163 0.9999
vn -0.0253 -0.5572 0.8300
vn -0.0010 -0.5572 0.8304
vn -0.0002 -0.0008 1.0000
vn -0.0015 -0.0160 -0.9999
vn 0.0260 0.5479 -0.8361
vn 0.0006 0.5480 -0.8365
vn -0.0002 -0.0008 -1.0000
vn 0.0264 0.5565 0.8304
vn 0.0006 0.5566 0.8308
vn -0.4717 -0.6779 -0.5638
vn 0.4717 -0.6779 -0.5638
vn 0.4717 -0.6779 0.5638
vn -0.4717 -0.6779 0.5638
vn 0.0000 0.0806 0.9968
vn 0.0000 0.0806 -0.9968
vn 0.9992 0.0407 0.0000
vn 0.1277 0.2293 -0.9649
vn -0.1277 0.2293 0.9649
vn 0.1277 0.2293 0.9649
vn -0.9992 0.0407 0.0000
vn -0.1277 0.2293 -0.9649
vn -0.0000 0.0806 0.9967
vn -0.0000 0.0806 -0.9967
vn 1.0000 0.0000 -0.0000
vn -0.7071 0.0000 -0.7071
vn -0.7071 0.0000 0.7071
vn 0.7071 0.0000 -0.7071
vn -1.0000 0.0000 0.0000
vn 0.7071 0.0000 0.7071
vn -0.0249 -0.5486 -0.8357
vn -0.0010 -0.5486 -0.8361
vn 0.0000 -0.5471 -0.8371
vn -0.0015 -0.0146 0.9999
vn -0.0278 -0.5571 0.8300
vn -0.0061 -0.5572 0.8304
vn -0.0002 -0.0041 1.0000
vn -0.0015 -0.0144 -0.9999
vn 0.0285 0.5479 -0.8361
vn 0.0057 0.5480 -0.8365
vn -0.0002 -0.0041 -1.0000
vn 0.0289 0.5565 0.8304
vn 0.0058 0.5566 0.8308
vn -0.0274 -0.5486 -0.8357
vn -0.0060 -0.5486 -0.8361
vn -0.5773 0.5774 -0.5774
vn -0.5773 0.5773 0.5774
vn 0.5774 0.5773 0.5773
vn 0.5774 0.5774 -0.5773
vn -0.7071 0.7071 -0.0000
vn 0.5774 0.5774 0.5773
vn 0.5773 0.5774 -0.5774
vn -0.1205 -0.5413 -0.8322
vn 0.0167 0.0751 -0.9970
vn -0.0034 -0.0088 -1.0000
vn -0.1053 -0.5429 -0.8332
vn -0.0035 -0.0139 -0.9999
vn -0.0700 -0.5465 -0.8345
vn 0.1221 0.5489 0.8269
vn 0.0170 0.0762 0.9969
vn -0.0034 -0.0089 1.0000
vn 0.1098 0.5503 0.8277
vn -0.0035 -0.0141 0.9999
vn 0.0743 0.5540 0.8292
vn 0.1203 0.5405 -0.8327
vn 0.1081 0.5419 -0.8335
vn 0.0731 0.5455 -0.8349
vn -0.1223 -0.5496 0.8264
vn -0.1070 -0.5513 0.8274
vn -0.0711 -0.5550 0.8288
vn -0.1215 -0.5414 -0.8320
vn 0.0170 0.0757 -0.9970
vn -0.0035 -0.0091 -1.0000
vn -0.1058 -0.5430 -0.8331
vn 0.1231 0.5490 0.8267
vn 0.0172 0.0769 0.9969
vn -0.0036 -0.0092 1.0000
vn 0.1104 0.5504 0.8276
vn 0.1213 0.5406 -0.8325
vn 0.1087 0.5419 -0.8334
vn -0.1234 -0.5497 0.8262
vn -0.1074 -0.5514 0.8273
vn 0.8165 -0.5774 -0.0000
vn -0.0000 -0.5774 -0.8165
vn -0.0000 0.5774 -0.8165
vn 0.8165 0.5774 -0.0000
vn -0.8165 -0.5774 0.0000
vn -0.8165 0.5774 0.0000
vn -0.0000 -0.5774 0.8165
vn -0.0000 0.5774 0.8165
vn 0.8165 -0.5773 -0.0000
vn 0.5000 0.7071 0.5000
vn 0.0000 1.0000 0.0000
usemtl Material.001
s 1
f 1/1/1 3/2/1 4/3/2 2/4/2
f 2/5/3 4/6/3 6/7/4 5/8/4
f 11/9/5 9/10/5 10/11/6 12/12/6
f 8/13/7 7/14/7 9/15/8 11/16/8
f 5/17/4 6/18/4 7/19/7 8/20/7
f 1/1/1 12/12/6 10/11/6 3/2/1
f 13/21/9 15/22/10 18/23/10 16/24/9
f 117/25/11 14/26/12 17/27/12 118/28/11
f 14/29/13 13/21/9 16/24/9 17/30/13
f 172/31/14 171/32/15 24/33/16 22/34/17
f 178/35/18 177/36/19 23/37/20 116/38/21
f 177/39/22 172/31/14 22/34/17 23/40/23
f 29/41/24 32/42/25 34/43/26 31/44/27
f 34/45/26 26/46/28 31/47/27
f 29/48/24 25/49/29 32/50/25
f 28/51/30 25/49/29 33/52/31
f 30/53/32 26/46/28 33/54/33
f 31/55/27 27/56/34 29/57/24
f 27/58/34 26/46/28 30/53/32
f 31/47/27 26/46/28 27/58/34
f 32/50/25 25/49/29 28/51/30
f 27/59/34 30/60/35 25/49/29
f 29/48/24 27/59/34 25/49/29
f 34/45/26 28/61/30 26/46/28
f 34/62/26 32/63/25 28/64/30
f 26/46/28 28/61/30 33/54/33
f 25/49/29 30/60/35 33/52/31
f 44/65/29 39/66/35 36/67/31
f 43/68/36 41/69/30 36/70/33
f 35/71/26 37/72/25 41/73/30
f 35/74/26 41/69/30 43/68/36
f 40/75/24 42/76/34 44/65/29
f 42/76/34 39/66/35 44/65/29
f 37/77/25 44/65/29 41/78/30
f 38/79/27 43/68/36 42/80/34
f 42/80/34 43/68/36 39/81/32
f 38/82/27 42/83/34 40/84/24
f 39/81/32 43/68/36 36/70/33
f 41/78/30 44/65/29 36/67/31
f 40/75/24 44/65/29 37/77/25
f 35/74/26 43/68/36 38/79/27
f 40/85/24 37/86/25 35/87/26 38/88/27
f 54/89/37 49/90/35 46/91/31
f 53/92/36 51/93/30 46/94/33
f 45/95/26 47/96/25 51/97/30
f 45/98/26 51/93/30 53/92/36
f 50/99/24 52/100/34 54/89/37
f 52/100/34 49/90/35 54/89/37
f 47/101/25 54/89/37 51/102/30
f 48/103/27 53/92/36 52/104/34
f 52/104/34 53/92/36 49/105/32
f 48/106/27 52/107/34 50/108/24
f 49/105/32 53/92/36 46/94/33
f 51/102/30 54/89/37 46/91/31
f 50/99/24 54/89/37 47/101/25
f 45/98/26 53/92/36 48/103/27
f 50/109/24 47/110/25 45/111/26 48/112/27
f 59/113/24 62/114/25 64/115/26 61/116/27
f 64/117/26 56/118/36 61/119/27
f 59/120/24 55/121/37 62/122/25
f 58/123/30 55/121/37 63/124/31
f 60/125/32 56/118/36 63/126/33
f 61/127/27 57/128/34 59/129/24
f 57/130/34 56/118/36 60/125/32
f 61/119/27 56/118/36 57/130/34
f 62/122/25 55/121/37 58/123/30
f 57/131/34 60/132/35 55/121/37
f 59/120/24 57/131/34 55/121/37
f 64/117/26 58/133/30 56/118/36
f 64/134/26 62/135/25 58/136/30
f 56/118/36 58/133/30 63/126/33
f 55/121/37 60/132/35 63/124/31
f 74/137/29 69/138/35 66/139/31
f 73/140/28 71/141/30 66/142/33
f 65/143/26 67/144/25 71/145/30
f 65/146/26 71/141/30 73/140/28
f 70/147/24 72/148/34 74/137/29
f 72/148/34 69/138/35 74/137/29
f 67/149/25 74/137/29 71/150/30
f 68/151/27 73/140/28 72/152/34
f 72/152/34 73/140/28 69/153/32
f 68/154/27 72/155/34 70/156/24
f 69/153/32 73/140/28 66/142/33
f 71/150/30 74/137/29 66/139/31
f 70/147/24 74/137/29 67/149/25
f 65/146/26 73/140/28 68/151/27
f 70/157/24 67/158/25 65/159/26 68/160/27
f 75/161/38 77/162/11 78/163/11 76/164/38
f 77/162/11 81/165/39 82/166/39 78/163/11
f 81/167/40 79/168/9 80/169/9 82/170/40
f 79/168/9 75/171/38 76/172/38 80/169/9
f 83/173/41 85/174/11 86/175/11 84/176/41
f 85/174/11 89/177/42 90/178/42 86/175/11
f 89/179/42 87/180/9 88/181/9 90/182/42
f 87/180/9 83/173/43 84/176/43 88/181/9
f 91/183/41 93/184/41 94/185/41 92/186/41
f 93/184/39 97/187/42 98/188/42 94/185/39
f 97/189/42 95/190/40 96/191/40 98/192/42
f 95/190/43 91/183/43 92/186/43 96/191/43
f 99/193/41 101/194/41 102/195/41 100/196/41
f 101/194/39 105/197/42 106/198/42 102/195/39
f 105/199/42 103/200/40 104/201/40 106/202/42
f 103/200/43 99/203/43 100/204/43 104/201/43
f 107/205/41 109/206/41 110/207/41 108/208/41
f 109/206/39 113/209/42 114/210/42 110/207/39
f 113/211/42 111/212/40 112/213/40 114/214/42
f 111/212/43 107/215/43 108/216/43 112/213/43
f 171/217/44 178/35/18 116/38/21 24/218/45
f 15/219/46 117/25/11 118/28/11 18/220/46
f 184/221/47 183/222/48 124/223/49 122/224/50
f 190/225/51 189/226/52 123/227/53 126/228/54
f 189/229/55 184/221/47 122/224/50 123/230/56
f 183/231/57 190/225/51 126/228/54 124/232/58
f 133/233/13 134/234/9 131/235/9 130/236/13
f 128/237/11 133/238/12 130/239/12 127/240/11
f 132/241/46 128/237/11 127/240/11 129/242/46
f 134/234/9 132/243/10 129/244/10 131/235/9
f 156/245/59 160/246/60 158/247/61 154/248/62
f 139/249/59 135/250/63 137/251/64 141/252/65
f 140/253/39 136/254/42 135/255/63 139/256/59
f 142/257/41 140/258/39 139/259/59 141/260/65
f 138/261/43 142/262/41 141/263/65 137/264/64
f 136/265/9 138/266/43 137/267/64 135/268/9
f 147/269/24 150/270/25 152/271/26 149/272/27
f 152/273/26 144/274/36 149/275/27
f 147/276/24 143/277/37 150/278/25
f 146/279/30 143/277/37 151/280/31
f 148/281/32 144/274/36 151/282/33
f 149/283/27 145/284/34 147/285/24
f 145/286/34 144/274/36 148/281/32
f 149/275/27 144/274/36 145/286/34
f 150/278/25 143/277/37 146/279/30
f 145/287/34 148/288/35 143/277/37
f 147/276/24 145/287/34 143/277/37
f 152/273/26 146/289/30 144/274/36
f 152/290/26 150/291/25 146/292/30
f 144/274/36 146/289/30 151/282/33
f 143/277/37 148/288/35 151/280/31
f 153/293/41 155/294/39 156/295/59 154/296/62
f 155/297/39 159/298/42 160/299/60 156/300/59
f 159/301/9 157/302/43 158/303/61 160/304/60
f 157/305/43 153/306/41 154/307/62 158/308/61
f 161/309/41 163/310/11 164/311/11 162/312/41
f 163/310/11 167/313/39 168/314/39 164/311/11
f 167/315/40 165/316/9 166/317/9 168/318/40
f 165/316/9 161/319/43 162/320/43 166/317/9
f 21/321/66 115/322/67 180/323/68 169/324/69
f 169/324/69 180/323/68 179/325/70 170/326/71
f 170/326/71 179/325/70 178/35/18 171/217/44
f 20/327/72 19/328/73 174/329/74 175/330/75
f 175/330/75 174/329/74 173/331/76 176/332/77
f 176/332/77 173/331/76 172/31/14 177/39/22
f 115/322/67 20/333/78 175/334/79 180/323/68
f 180/323/68 175/334/79 176/335/80 179/325/70
f 179/325/70 176/335/80 177/36/19 178/35/18
f 19/328/73 21/336/81 169/337/82 174/329/74
f 174/329/74 169/337/82 170/338/83 173/331/76
f 173/331/76 170/338/83 171/32/15 172/31/14
f 121/339/84 125/340/85 192/341/86 181/342/87
f 181/342/87 192/341/86 191/343/70 182/344/71
f 182/344/71 191/343/70 190/225/51 183/231/57
f 120/345/88 119/346/89 186/347/90 187/348/91
f 187/348/91 186/347/90 185/349/76 188/350/77
f 188/350/77 185/349/76 184/221/47 189/229/55
f 125/340/85 120/351/92 187/352/93 192/341/86
f 192/341/86 187/352/93 188/353/80 191/343/70
f 191/343/70 188/353/80 189/226/52 190/225/51
f 119/346/89 121/354/94 181/355/95 186/347/90
f 186/347/90 181/355/95 182/356/83 185/349/76
f 185/349/76 182/356/83 183/222/48 184/221/47
f 193/357/96 195/358/97 196/359/98 194/360/99
f 195/358/97 199/361/100 200/362/101 196/359/98
f 199/363/100 197/364/102 198/365/103 200/366/101
f 197/364/102 193/367/96 194/368/99 198/365/103
f 196/369/98 200/370/101 198/371/103 194/372/99
f 193/373/96 197/374/102 199/375/100 195/376/97
f 201/377/104 203/378/97 204/379/41 202/380/41
f 203/378/97 207/381/100 208/382/101 204/379/39
f 207/383/100 205/384/102 206/385/103 208/386/101
f 205/384/102 201/387/104 202/388/105 206/385/103
f 204/389/106 208/390/101 206/391/103 202/392/105
f 201/393/104 205/394/102 207/395/100 203/396/97
