# Blender v2.93.5 OBJ File: 'Modular Graveyard.blend'
# www.blender.org
mtllib RustyGateL.mtl
o RustyGateL_Circle.054
v 1.807937 0.182211 0.018813
v 1.807937 0.210148 0.000141
v 1.807937 0.154274 0.000141
v 0.113965 0.182211 0.018813
v 0.113965 0.210148 0.000142
v 0.113965 0.154274 0.000142
v 1.807937 2.488618 0.018813
v 1.807937 2.516727 0.000141
v 1.807937 2.460542 0.000141
v 0.113965 2.251604 0.018813
v 0.113965 2.279541 0.000142
v 0.113965 2.223666 0.000142
v 1.306160 2.672247 -0.051993
v 1.306160 2.672247 0.052207
v 1.380013 2.661094 0.000107
v 1.232307 2.661094 0.000107
v 1.338414 2.578019 -0.030726
v 1.319516 2.884056 0.000107
v 1.338414 2.578019 0.030940
v 1.273906 2.578019 -0.030726
v 1.292804 2.884056 0.000107
v 1.273906 2.578019 0.030940
v 0.313932 2.407151 0.030940
v 0.332830 2.713188 0.000107
v 0.313932 2.407151 -0.030726
v 0.378439 2.407151 0.030940
v 0.359541 2.713188 0.000107
v 0.378439 2.407151 -0.030726
v 0.272333 2.490226 0.000107
v 0.420038 2.490226 0.000107
v 0.346186 2.501379 0.052207
v 0.346186 2.501379 -0.051993
v 1.021774 2.524860 0.030940
v 1.040672 2.830897 0.000107
v 1.021774 2.524860 -0.030726
v 1.086282 2.524860 0.030940
v 1.067384 2.830897 0.000107
v 1.086282 2.524860 -0.030726
v 0.980175 2.607935 0.000107
v 1.127881 2.607935 0.000107
v 1.054028 2.619089 0.052207
v 1.054028 2.619089 -0.051993
v 0.809257 2.565930 -0.051993
v 0.809257 2.565930 0.052207
v 0.883110 2.554776 0.000107
v 0.735404 2.554776 0.000107
v 0.841511 2.471701 -0.030726
v 0.822613 2.777738 0.000107
v 0.841511 2.471701 0.030940
v 0.777003 2.471701 -0.030726
v 0.795901 2.777738 0.000107
v 0.777003 2.471701 0.030940
v 0.550214 2.429933 0.030940
v 0.569112 2.735970 0.000107
v 0.550214 2.429933 -0.030726
v 0.614722 2.429933 0.030940
v 0.595824 2.735970 0.000107
v 0.614722 2.429933 -0.030726
v 0.508615 2.513009 0.000107
v 0.656321 2.513009 0.000107
v 0.582468 2.524162 0.052207
v 0.582468 2.524162 -0.051993
v 0.315669 -0.002187 0.000000
v 0.315669 2.413933 0.000000
v 0.346062 -0.002187 -0.030394
v 0.346062 2.413933 -0.030394
v 0.346062 -0.002187 0.030394
v 0.346062 2.413933 0.030394
v 0.376456 -0.002187 0.000000
v 0.376456 2.413933 0.000000
v 0.552144 -0.002187 0.000000
v 0.552144 2.436715 0.000000
v 0.582537 -0.002187 -0.030394
v 0.582537 2.436715 -0.030394
v 0.582537 -0.002187 0.030394
v 0.582537 2.436715 0.030394
v 0.612931 -0.002187 0.000000
v 0.612931 2.436715 0.000000
v 0.778823 -0.002187 0.000000
v 0.778823 2.478483 0.000000
v 0.809217 -0.002187 -0.030394
v 0.809217 2.478483 -0.030394
v 0.809217 -0.002187 0.030394
v 0.809217 2.478483 0.030394
v 0.839610 -0.002187 0.000000
v 0.839610 2.478483 0.000000
v 1.023636 -0.002187 0.000000
v 1.023636 2.531642 0.000000
v 1.054030 -0.002187 -0.030394
v 1.054030 2.531642 -0.030394
v 1.054030 -0.002187 0.030394
v 1.054030 2.531642 0.030394
v 1.084424 -0.002187 0.000000
v 1.084424 2.531642 0.000000
v 1.275704 -0.002187 0.000000
v 1.275704 2.584801 0.000000
v 1.306098 -0.002187 -0.030394
v 1.306098 2.584801 -0.030394
v 1.306098 -0.002187 0.030394
v 1.306098 2.584801 0.030394
v 1.336491 -0.002187 0.000000
v 1.336491 2.584801 0.000000
v 1.807937 2.488617 -0.018117
v 0.113965 2.251604 -0.018117
v 1.807937 0.182211 -0.018117
v 0.113965 0.182211 -0.018117
v 1.807937 2.287989 0.018813
v 1.807937 2.316067 0.000141
v 1.807937 2.259937 0.000141
v 0.113965 2.051604 0.018813
v 0.113965 2.079540 0.000142
v 0.113965 2.023666 0.000142
v 1.807937 2.287988 -0.018117
v 0.113965 2.051604 -0.018117
v 0.113965 0.359053 -0.018117
v 1.807937 0.359053 -0.018117
v 0.113965 0.331115 0.000142
v 0.113965 0.386990 0.000142
v 0.113965 0.359053 0.018813
v 1.807937 0.331115 0.000141
v 1.807937 0.386990 0.000141
v 1.807937 0.359053 0.018813
v 0.140777 2.496091 0.031713
v 0.140777 -0.002187 0.031713
v 0.077349 2.496091 0.031713
v 0.077349 -0.002187 0.031713
v 0.140776 2.496091 -0.031714
v 0.140776 -0.002187 -0.031714
v 0.077350 2.496091 -0.031714
v 0.077350 -0.002187 -0.031714
v 1.557424 2.721609 -0.051993
v 1.557424 2.721609 0.052207
v 1.631277 2.710456 0.000107
v 1.483571 2.710456 0.000107
v 1.589678 2.627381 -0.030726
v 1.570780 2.933418 0.000107
v 1.589678 2.627381 0.030940
v 1.525170 2.627381 -0.030726
v 1.544068 2.933418 0.000107
v 1.525170 2.627381 0.030940
v 1.777350 -0.002187 -0.031713
v 1.777350 2.979063 -0.031713
v 1.840776 -0.002187 -0.031714
v 1.840776 2.979063 -0.031714
v 1.777349 -0.002187 0.031713
v 1.777349 2.979063 0.031713
v 1.840777 -0.002187 0.031714
v 1.840777 2.979063 0.031714
v 1.527024 -0.002187 0.000000
v 1.527024 2.634163 0.000000
v 1.557418 -0.002187 -0.030394
v 1.557418 2.634163 -0.030394
v 1.557418 -0.002187 0.030394
v 1.557418 2.634163 0.030394
v 1.587812 -0.002187 0.000000
v 1.587812 2.634163 0.000000
v 1.244306 2.335102 0.000141
v 0.820813 2.262804 0.000142
v 0.397320 2.224275 0.000142
v 0.397320 2.251994 0.018813
v 0.820813 2.290691 0.018813
v 1.244306 2.363173 0.018813
v 1.244306 2.391327 0.000141
v 0.820813 2.318592 0.000142
v 0.397320 2.279799 0.000142
v 0.397320 2.251993 -0.018117
v 0.820813 2.290691 -0.018117
v 1.244306 2.363171 -0.018117
v 1.264326 2.137946 0.000141
v 0.840833 2.065647 0.000142
v 0.417340 2.027118 0.000142
v 0.417340 2.054838 0.018813
v 0.840833 2.093534 0.018813
v 1.264326 2.166016 0.018813
v 1.264326 2.194170 0.000141
v 0.840833 2.121436 0.000142
v 0.417340 2.082642 0.000142
v 0.417340 2.054836 -0.018117
v 0.840833 2.093534 -0.018117
v 1.264326 2.166014 -0.018117
v -0.002666 1.996354 -0.000000
v -0.002666 2.306917 -0.000000
v 0.037736 1.996354 -0.040402
v 0.037736 2.306917 -0.040402
v 0.037736 1.996354 0.040402
v 0.037736 2.306917 0.040402
v 0.078138 1.996354 -0.000000
v 0.078138 2.306917 -0.000000
v -0.002666 0.124949 -0.000000
v -0.002666 0.418193 -0.000000
v 0.037736 0.124949 -0.040402
v 0.037736 0.418193 -0.040402
v 0.037736 0.124949 0.040402
v 0.037736 0.418193 0.040402
v 0.078138 0.124949 -0.000000
v 0.078138 0.418193 -0.000000
vt 0.828125 0.187500
vt 0.828125 0.257812
vt 0.820312 0.257812
vt 0.820312 0.187500
vt 0.804688 0.113281
vt 0.804688 0.046875
vt 0.820312 0.046875
vt 0.820312 0.113281
vt 0.828125 0.187500
vt 0.828125 0.257812
vt 0.781250 0.179688
vt 0.789062 0.187500
vt 0.789062 0.187500
vt 0.773438 0.179688
vt 0.835938 0.105469
vt 0.828125 0.117188
vt 0.820312 0.117188
vt 0.828125 0.105469
vt 0.789062 0.179688
vt 0.804688 0.187500
vt 0.929688 0.261719
vt 0.929688 0.265625
vt 0.914062 0.265625
vt 0.914062 0.261719
vt 0.835938 0.148438
vt 0.828125 0.148438
vt 0.835938 0.140625
vt 0.828125 0.097656
vt 0.835938 0.097656
vt 0.835938 0.105469
vt 0.843750 0.105469
vt 0.843750 0.121094
vt 0.843750 0.125000
vt 0.843750 0.125000
vt 0.804688 0.246094
vt 0.789062 0.246094
vt 0.804688 0.242188
vt 0.820312 0.140625
vt 0.820312 0.105469
vt 0.843750 0.121094
vt 0.843750 0.140625
vt 0.765625 0.257812
vt 0.773438 0.257812
vt 0.773438 0.257812
vt 0.835938 0.082031
vt 0.843750 0.097656
vt 0.843750 0.097656
vt 0.835938 0.238281
vt 0.843750 0.253906
vt 0.820312 0.238281
vt 0.843750 0.257812
vt 0.843750 0.265625
vt 0.835938 0.257812
vt 0.828125 0.230469
vt 0.828125 0.074219
vt 0.820312 0.082031
vt 0.835938 0.074219
vt 0.843750 0.078125
vt 0.835938 0.230469
vt 0.843750 0.238281
vt 0.843750 0.253906
vt 0.820312 0.257812
vt 0.812500 0.257812
vt 0.820312 0.253906
vt 0.843750 0.257812
vt 0.843750 0.261719
vt 0.835938 0.261719
vt 0.906250 0.250000
vt 0.921875 0.265625
vt 0.914062 0.265625
vt 0.835938 0.167969
vt 0.843750 0.152344
vt 0.843750 0.167969
vt 0.812500 0.273438
vt 0.812500 0.261719
vt 0.820312 0.273438
vt 0.835938 0.175781
vt 0.898438 0.242188
vt 0.890625 0.250000
vt 0.906250 0.242188
vt 0.921875 0.250000
vt 0.828125 0.175781
vt 0.820312 0.167969
vt 0.843750 0.152344
vt 0.781250 0.257812
vt 0.789062 0.257812
vt 0.789062 0.261719
vt 0.835938 0.257812
vt 0.835938 0.261719
vt 0.820312 0.261719
vt 0.820312 0.257812
vt 0.906250 0.269531
vt 0.906250 0.273438
vt 0.890625 0.273438
vt 0.890625 0.269531
vt 0.835938 0.203125
vt 0.828125 0.203125
vt 0.835938 0.195312
vt 0.828125 0.046875
vt 0.835938 0.046875
vt 0.835938 0.054688
vt 0.843750 0.054688
vt 0.843750 0.070312
vt 0.843750 0.179688
vt 0.843750 0.179688
vt 0.929688 0.257812
vt 0.914062 0.257812
vt 0.921875 0.246094
vt 0.820312 0.195312
vt 0.820312 0.054688
vt 0.843750 0.070312
vt 0.843750 0.195312
vt 0.843750 0.250000
vt 0.843750 0.257812
vt 0.835938 0.250000
vt 0.781250 0.222656
vt 0.789062 0.242188
vt 0.789062 0.242188
vt 0.835938 0.210938
vt 0.843750 0.226562
vt 0.820312 0.210938
vt 0.757812 0.257812
vt 0.757812 0.257812
vt 0.757812 0.257812
vt 0.828125 0.203125
vt 0.773438 0.218750
vt 0.773438 0.222656
vt 0.781250 0.214844
vt 0.789062 0.222656
vt 0.835938 0.203125
vt 0.843750 0.210938
vt 0.843750 0.226562
vt 0.804688 0.261719
vt 0.796875 0.261719
vt 0.804688 0.250000
vt 0.843750 0.269531
vt 0.843750 0.273438
vt 0.835938 0.273438
vt 0.835938 0.269531
vt 0.882812 0.058594
vt 0.882812 0.246094
vt 0.882812 0.246094
vt 0.882812 0.058594
vt 0.882812 0.246094
vt 0.882812 0.058594
vt 0.875000 0.246094
vt 0.875000 0.058594
vt 0.867188 0.246094
vt 0.867188 0.058594
vt 0.859375 0.058594
vt 0.859375 0.250000
vt 0.859375 0.250000
vt 0.859375 0.058594
vt 0.851562 0.250000
vt 0.851562 0.058594
vt 0.843750 0.058594
vt 0.843750 0.250000
vt 0.835938 0.250000
vt 0.835938 0.058594
vt 0.835938 0.250000
vt 0.835938 0.058594
vt 0.820312 0.058594
vt 0.820312 0.250000
vt 0.812500 0.250000
vt 0.812500 0.058594
vt 0.812500 0.250000
vt 0.812500 0.058594
vt 0.835938 0.058594
vt 0.835938 0.250000
vt 0.828125 0.250000
vt 0.828125 0.058594
vt 0.828125 0.250000
vt 0.828125 0.058594
vt 0.789062 0.058594
vt 0.789062 0.257812
vt 0.789062 0.257812
vt 0.789062 0.058594
vt 0.781250 0.257812
vt 0.781250 0.058594
vt 0.804688 0.058594
vt 0.804688 0.257812
vt 0.796875 0.257812
vt 0.796875 0.058594
vt 0.796875 0.257812
vt 0.796875 0.058594
vt 0.929688 0.046875
vt 0.929688 0.246094
vt 0.921875 0.246094
vt 0.921875 0.046875
vt 0.914062 0.246094
vt 0.914062 0.046875
vt 0.750000 0.058594
vt 0.750000 0.257812
vt 0.742188 0.257812
vt 0.742188 0.058594
vt 0.742188 0.257812
vt 0.742188 0.058594
vt 0.843750 0.105469
vt 0.828125 0.117188
vt 0.796875 0.113281
vt 0.796875 0.046875
vt 0.828125 0.179688
vt 0.835938 0.187500
vt 0.828125 0.187500
vt 0.820312 0.179688
vt 0.789062 0.105469
vt 0.781250 0.117188
vt 0.773438 0.117188
vt 0.781250 0.105469
vt 0.835938 0.179688
vt 0.851562 0.187500
vt 0.796875 0.105469
vt 0.781250 0.117188
vt 0.796875 0.179688
vt 0.796875 0.117188
vt 0.804688 0.117188
vt 0.804688 0.179688
vt 0.804688 0.179688
vt 0.804688 0.246094
vt 0.796875 0.246094
vt 0.820312 0.179688
vt 0.820312 0.246094
vt 0.820312 0.117188
vt 0.789062 0.273438
vt 0.781250 0.273438
vt 0.781250 0.265625
vt 0.789062 0.265625
vt 0.898438 0.261719
vt 0.890625 0.261719
vt 0.890625 0.253906
vt 0.898438 0.253906
vt 0.890625 0.238281
vt 0.890625 0.058594
vt 0.906250 0.058594
vt 0.906250 0.238281
vt 0.773438 0.058594
vt 0.773438 0.253906
vt 0.765625 0.253906
vt 0.765625 0.058594
vt 0.921875 0.058594
vt 0.921875 0.238281
vt 0.906250 0.238281
vt 0.906250 0.058594
vt 0.757812 0.058594
vt 0.757812 0.253906
vt 0.757812 0.253906
vt 0.757812 0.058594
vt 0.828125 0.261719
vt 0.828125 0.265625
vt 0.820312 0.265625
vt 0.820312 0.261719
vt 0.781250 0.214844
vt 0.773438 0.214844
vt 0.781250 0.207031
vt 0.882812 0.273438
vt 0.867188 0.273438
vt 0.882812 0.261719
vt 0.867188 0.265625
vt 0.882812 0.250000
vt 0.789062 0.187500
vt 0.789062 0.187500
vt 0.843750 0.246094
vt 0.835938 0.246094
vt 0.843750 0.242188
vt 0.773438 0.207031
vt 0.882812 0.265625
vt 0.882812 0.250000
vt 0.789062 0.207031
vt 0.773438 0.246094
vt 0.781250 0.246094
vt 0.781250 0.246094
vt 0.765625 0.046875
vt 0.765625 0.277344
vt 0.750000 0.277344
vt 0.750000 0.046875
vt 0.867188 0.046875
vt 0.867188 0.265625
vt 0.867188 0.265625
vt 0.867188 0.046875
vt 0.742188 0.046875
vt 0.742188 0.277344
vt 0.742188 0.277344
vt 0.742188 0.046875
vt 0.882812 0.046875
vt 0.882812 0.265625
vt 0.875000 0.265625
vt 0.875000 0.046875
vt 0.898438 0.046875
vt 0.898438 0.250000
vt 0.890625 0.250000
vt 0.890625 0.046875
vt 0.890625 0.250000
vt 0.890625 0.046875
vt 0.906250 0.046875
vt 0.906250 0.250000
vt 0.906250 0.250000
vt 0.906250 0.046875
vt 0.906250 0.250000
vt 0.906250 0.046875
vt 0.843750 0.046875
vt 0.859375 0.070312
vt 0.843750 0.070312
vt 0.835938 0.046875
vt 0.859375 0.089844
vt 0.843750 0.089844
vt 0.804688 0.117188
vt 0.789062 0.140625
vt 0.781250 0.140625
vt 0.789062 0.117188
vt 0.781250 0.160156
vt 0.781250 0.160156
vt 0.835938 0.070312
vt 0.828125 0.046875
vt 0.835938 0.089844
vt 0.773438 0.140625
vt 0.789062 0.117188
vt 0.773438 0.160156
vt 0.796875 0.046875
vt 0.812500 0.070312
vt 0.796875 0.070312
vt 0.789062 0.046875
vt 0.812500 0.089844
vt 0.796875 0.089844
vt 0.851562 0.117188
vt 0.835938 0.140625
vt 0.828125 0.140625
vt 0.835938 0.117188
vt 0.828125 0.160156
vt 0.828125 0.160156
vt 0.789062 0.070312
vt 0.781250 0.046875
vt 0.789062 0.085938
vt 0.820312 0.140625
vt 0.828125 0.117188
vt 0.820312 0.160156
vt 0.851562 0.187500
vt 0.851562 0.214844
vt 0.835938 0.214844
vt 0.835938 0.187500
vt 0.835938 0.214844
vt 0.835938 0.187500
vt 0.812500 0.187500
vt 0.812500 0.214844
vt 0.804688 0.214844
vt 0.804688 0.187500
vt 0.789062 0.214844
vt 0.789062 0.187500
vt 0.812500 0.257812
vt 0.789062 0.253906
vt 0.789062 0.250000
vt 0.812500 0.253906
vt 0.757812 0.265625
vt 0.765625 0.261719
vt 0.765625 0.269531
vt 0.757812 0.269531
vt 0.851562 0.218750
vt 0.851562 0.238281
vt 0.835938 0.238281
vt 0.835938 0.218750
vt 0.835938 0.238281
vt 0.835938 0.218750
vt 0.812500 0.218750
vt 0.812500 0.238281
vt 0.804688 0.238281
vt 0.804688 0.218750
vt 0.789062 0.238281
vt 0.789062 0.218750
vt 0.781250 0.261719
vt 0.773438 0.257812
vt 0.773438 0.250000
vt 0.781250 0.253906
vt 0.835938 0.253906
vt 0.843750 0.250000
vt 0.843750 0.253906
vt 0.835938 0.257812
vn 0.0000 -0.0000 1.0000
vn 0.0000 -0.5557 0.8314
vn -0.0000 0.0000 -1.0000
vn -0.0000 0.5471 -0.8371
vn 0.0000 0.5557 0.8314
vn 0.0015 -0.0163 0.9999
vn 0.0002 -0.0008 1.0000
vn 0.0010 -0.5572 0.8304
vn 0.0253 -0.5572 0.8300
vn 0.0015 -0.0160 -0.9999
vn 0.0002 -0.0008 -1.0000
vn -0.0006 0.5480 -0.8365
vn -0.0260 0.5479 -0.8361
vn -0.0264 0.5565 0.8304
vn -0.0006 0.5566 0.8308
vn 0.4717 -0.6779 -0.5638
vn 0.4717 -0.6779 0.5638
vn -0.4717 -0.6779 0.5638
vn -0.4717 -0.6779 -0.5638
vn -0.0000 0.0806 0.9968
vn -0.0000 0.0806 -0.9967
vn -0.9992 0.0407 0.0000
vn -0.1277 0.2293 -0.9649
vn 0.1277 0.2293 0.9649
vn -0.1277 0.2293 0.9649
vn 0.9992 0.0407 0.0000
vn 0.1277 0.2293 -0.9649
vn 0.0000 0.0806 -0.9968
vn 0.0000 0.0806 0.9967
vn -1.0000 0.0000 -0.0000
vn 0.7071 0.0000 -0.7071
vn 0.7071 0.0000 0.7071
vn -0.7071 0.0000 -0.7071
vn 1.0000 0.0000 0.0000
vn -0.7071 0.0000 0.7071
vn 0.0249 -0.5486 -0.8357
vn 0.0010 -0.5486 -0.8361
vn -0.0000 -0.5471 -0.8371
vn 0.0015 -0.0146 0.9999
vn 0.0002 -0.0041 1.0000
vn 0.0061 -0.5572 0.8304
vn 0.0278 -0.5571 0.8300
vn 0.0015 -0.0144 -0.9999
vn 0.0002 -0.0041 -1.0000
vn -0.0057 0.5480 -0.8365
vn -0.0285 0.5479 -0.8361
vn -0.0289 0.5565 0.8304
vn -0.0058 0.5566 0.8308
vn 0.0274 -0.5486 -0.8357
vn 0.0060 -0.5486 -0.8361
vn 0.5773 0.5774 -0.5774
vn -0.5774 0.5774 -0.5773
vn -0.5774 0.5773 0.5773
vn 0.5773 0.5773 0.5774
vn -0.5773 0.5774 -0.5774
vn -0.5774 0.5774 0.5773
vn 0.5774 0.5773 0.5774
vn 0.1205 -0.5413 -0.8322
vn 0.1053 -0.5429 -0.8332
vn 0.0034 -0.0088 -1.0000
vn -0.0167 0.0751 -0.9970
vn 0.0700 -0.5465 -0.8345
vn 0.0035 -0.0139 -0.9999
vn -0.1221 0.5489 0.8269
vn -0.1098 0.5503 0.8277
vn 0.0034 -0.0089 1.0000
vn -0.0170 0.0762 0.9969
vn -0.0743 0.5540 0.8292
vn 0.0035 -0.0141 0.9999
vn -0.1081 0.5419 -0.8335
vn -0.1203 0.5405 -0.8327
vn -0.0731 0.5455 -0.8349
vn 0.1070 -0.5513 0.8274
vn 0.1223 -0.5496 0.8264
vn 0.0711 -0.5550 0.8288
vn 0.1215 -0.5414 -0.8320
vn 0.1058 -0.5430 -0.8331
vn 0.0035 -0.0091 -1.0000
vn -0.0170 0.0757 -0.9970
vn -0.1231 0.5490 0.8267
vn -0.1104 0.5504 0.8276
vn 0.0036 -0.0092 1.0000
vn -0.0172 0.0769 0.9969
vn -0.1087 0.5419 -0.8334
vn -0.1213 0.5406 -0.8325
vn 0.1074 -0.5514 0.8273
vn 0.1234 -0.5497 0.8262
vn -0.8165 -0.5774 -0.0000
vn -0.8165 0.5774 -0.0000
vn 0.0000 0.5774 -0.8165
vn 0.0000 -0.5774 -0.8165
vn 0.8165 0.5774 0.0000
vn 0.8165 -0.5774 0.0000
vn 0.0000 0.5774 0.8165
vn 0.0000 -0.5774 0.8165
vn -0.8165 -0.5773 -0.0000
vn -0.5000 0.7071 0.5000
vn 0.0000 1.0000 0.0000
usemtl Material.001
s 1
f 1/1/1 4/2/1 6/3/2 3/4/2
f 105/5/3 106/6/3 5/7/4 2/8/4
f 2/9/5 5/10/5 4/2/1 1/1/1
f 160/11/6 10/12/7 12/13/8 159/14/9
f 166/15/10 104/16/11 11/17/12 165/18/13
f 165/19/14 11/20/15 10/12/7 160/11/6
f 17/21/16 19/22/17 22/23/18 20/24/19
f 22/25/18 19/26/17 14/27/20
f 17/28/16 20/29/19 13/30/21
f 16/31/22 21/32/23 13/30/21
f 18/33/24 21/34/25 14/27/20
f 19/35/17 17/36/16 15/37/26
f 15/38/26 18/33/24 14/27/20
f 19/26/17 15/38/26 14/27/20
f 20/29/19 16/31/22 13/30/21
f 15/39/26 13/30/21 18/40/27
f 17/28/16 13/30/21 15/39/26
f 22/25/18 14/27/20 16/41/22
f 22/42/18 16/43/22 20/44/19
f 14/27/20 21/34/25 16/41/22
f 13/30/21 21/32/23 18/40/27
f 32/45/28 24/46/23 27/47/27
f 31/48/29 24/49/25 29/50/22
f 23/51/18 29/52/22 25/53/19
f 23/54/18 31/48/29 29/50/22
f 28/55/16 32/45/28 30/56/26
f 30/56/26 32/45/28 27/47/27
f 25/57/19 29/58/22 32/45/28
f 26/59/17 30/60/26 31/48/29
f 30/60/26 27/61/24 31/48/29
f 26/62/17 28/63/16 30/64/26
f 27/61/24 24/49/25 31/48/29
f 29/58/22 24/46/23 32/45/28
f 28/55/16 25/57/19 32/45/28
f 23/54/18 26/59/17 31/48/29
f 28/65/16 26/66/17 23/67/18 25/53/19
f 42/68/21 34/69/23 37/70/27
f 41/71/29 34/72/25 39/73/22
f 33/74/18 39/75/22 35/76/19
f 33/77/18 41/71/29 39/73/22
f 38/78/16 42/68/21 40/79/26
f 40/79/26 42/68/21 37/70/27
f 35/80/19 39/81/22 42/68/21
f 36/82/17 40/83/26 41/71/29
f 40/83/26 37/84/24 41/71/29
f 36/85/17 38/86/16 40/87/26
f 37/84/24 34/72/25 41/71/29
f 39/81/22 34/69/23 42/68/21
f 38/78/16 35/80/19 42/68/21
f 33/77/18 36/82/17 41/71/29
f 38/88/16 36/89/17 33/90/18 35/91/19
f 47/92/16 49/93/17 52/94/18 50/95/19
f 52/96/18 49/97/17 44/98/29
f 47/99/16 50/100/19 43/101/21
f 46/102/22 51/103/23 43/101/21
f 48/104/24 51/105/25 44/98/29
f 49/106/17 47/107/16 45/108/26
f 45/109/26 48/104/24 44/98/29
f 49/97/17 45/109/26 44/98/29
f 50/100/19 46/102/22 43/101/21
f 45/110/26 43/101/21 48/111/27
f 47/99/16 43/101/21 45/110/26
f 52/96/18 44/98/29 46/112/22
f 52/113/18 46/114/22 50/115/19
f 44/98/29 51/105/25 46/112/22
f 43/101/21 51/103/23 48/111/27
f 62/116/28 54/117/23 57/118/27
f 61/119/29 54/120/25 59/121/22
f 53/122/18 59/123/22 55/124/19
f 53/125/18 61/119/29 59/121/22
f 58/126/16 62/116/28 60/127/26
f 60/127/26 62/116/28 57/118/27
f 55/128/19 59/129/22 62/116/28
f 56/130/17 60/131/26 61/119/29
f 60/131/26 57/132/24 61/119/29
f 56/133/17 58/134/16 60/135/26
f 57/132/24 54/120/25 61/119/29
f 59/129/22 54/117/23 62/116/28
f 58/126/16 55/128/19 62/116/28
f 53/125/18 56/130/17 61/119/29
f 58/136/16 56/137/17 53/138/18 55/139/19
f 63/140/30 64/141/30 66/142/3 65/143/3
f 65/143/3 66/142/3 70/144/31 69/145/31
f 69/145/32 70/144/32 68/146/1 67/147/1
f 67/147/1 68/146/1 64/148/30 63/149/30
f 71/150/33 72/151/33 74/152/3 73/153/3
f 73/153/3 74/152/3 78/154/34 77/155/34
f 77/156/34 78/157/34 76/158/1 75/159/1
f 75/159/1 76/158/1 72/160/35 71/161/35
f 79/162/33 80/163/33 82/164/33 81/165/33
f 81/165/31 82/164/31 86/166/34 85/167/34
f 85/168/34 86/169/34 84/170/32 83/171/32
f 83/171/35 84/170/35 80/172/35 79/173/35
f 87/174/33 88/175/33 90/176/33 89/177/33
f 89/177/31 90/176/31 94/178/34 93/179/34
f 93/180/34 94/181/34 92/182/32 91/183/32
f 91/183/35 92/182/35 88/184/35 87/185/35
f 95/186/33 96/187/33 98/188/33 97/189/33
f 97/189/31 98/188/31 102/190/34 101/191/34
f 101/192/34 102/193/34 100/194/32 99/195/32
f 99/195/35 100/194/35 96/196/35 95/197/35
f 159/198/36 12/199/37 104/16/11 166/15/10
f 3/200/38 6/201/38 106/6/3 105/5/3
f 172/202/39 110/203/40 112/204/41 171/205/42
f 178/206/43 114/207/44 111/208/45 177/209/46
f 177/210/47 111/211/48 110/203/40 172/202/39
f 171/212/49 112/213/50 114/207/44 178/206/43
f 121/214/5 118/215/5 119/216/1 122/217/1
f 116/218/3 115/219/3 118/220/4 121/214/4
f 120/221/38 117/222/38 115/219/3 116/218/3
f 122/217/1 119/216/1 117/223/2 120/221/2
f 144/224/51 142/225/52 146/226/53 148/227/54
f 127/228/51 129/229/55 125/230/56 123/231/57
f 128/232/31 127/233/51 123/234/57 124/235/34
f 130/236/33 129/237/55 127/238/51 128/239/31
f 126/240/35 125/241/56 129/242/55 130/243/33
f 124/244/1 123/245/57 125/246/56 126/247/35
f 135/248/16 137/249/17 140/250/18 138/251/19
f 140/252/18 137/253/17 132/254/29
f 135/255/16 138/256/19 131/257/21
f 134/258/22 139/259/23 131/257/21
f 136/260/24 139/261/25 132/254/29
f 137/262/17 135/263/16 133/264/26
f 133/265/26 136/260/24 132/254/29
f 137/253/17 133/265/26 132/254/29
f 138/256/19 134/258/22 131/257/21
f 133/266/26 131/257/21 136/267/27
f 135/255/16 131/257/21 133/266/26
f 140/252/18 132/254/29 134/268/22
f 140/269/18 134/270/22 138/271/19
f 132/254/29 139/261/25 134/268/22
f 131/257/21 139/259/23 136/267/27
f 141/272/33 142/273/52 144/274/51 143/275/31
f 143/276/31 144/277/51 148/278/54 147/279/34
f 147/280/1 148/281/54 146/282/53 145/283/35
f 145/284/35 146/285/53 142/286/52 141/287/33
f 149/288/33 150/289/33 152/290/3 151/291/3
f 151/291/3 152/290/3 156/292/31 155/293/31
f 155/294/32 156/295/32 154/296/1 153/297/1
f 153/297/1 154/296/1 150/298/35 149/299/35
f 9/300/58 157/301/59 168/302/60 103/303/61
f 157/301/59 158/304/62 167/305/63 168/302/60
f 158/304/62 159/198/36 166/15/10 167/305/63
f 8/306/64 163/307/65 162/308/66 7/309/67
f 163/307/65 164/310/68 161/311/69 162/308/66
f 164/310/68 165/19/14 160/11/6 161/311/69
f 103/303/61 168/302/60 163/312/70 8/313/71
f 168/302/60 167/305/63 164/314/72 163/312/70
f 167/305/63 166/15/10 165/18/13 164/314/72
f 7/309/67 162/308/66 157/315/73 9/316/74
f 162/308/66 161/311/69 158/317/75 157/315/73
f 161/311/69 160/11/6 159/14/9 158/317/75
f 109/318/76 169/319/77 180/320/78 113/321/79
f 169/319/77 170/322/62 179/323/63 180/320/78
f 170/322/62 171/212/49 178/206/43 179/323/63
f 108/324/80 175/325/81 174/326/82 107/327/83
f 175/325/81 176/328/68 173/329/69 174/326/82
f 176/328/68 177/210/47 172/202/39 173/329/69
f 113/321/79 180/320/78 175/330/84 108/331/85
f 180/320/78 179/323/63 176/332/72 175/330/84
f 179/323/63 178/206/43 177/209/46 176/332/72
f 107/327/83 174/326/82 169/333/86 109/334/87
f 174/326/82 173/329/69 170/335/75 169/333/86
f 173/329/69 172/202/39 171/205/42 170/335/75
f 181/336/88 182/337/89 184/338/90 183/339/91
f 183/339/91 184/338/90 188/340/92 187/341/93
f 187/342/93 188/343/92 186/344/94 185/345/95
f 185/345/95 186/344/94 182/346/89 181/347/88
f 184/348/90 182/349/89 186/350/94 188/351/92
f 181/352/88 183/353/91 187/354/93 185/355/95
f 189/356/96 190/357/33 192/358/33 191/359/91
f 191/359/91 192/358/31 196/360/92 195/361/93
f 195/362/93 196/363/92 194/364/94 193/365/95
f 193/365/95 194/364/94 190/366/97 189/367/96
f 192/368/98 190/369/97 194/370/94 196/371/92
f 189/372/96 191/373/91 195/374/93 193/375/95
