# Blender v2.93.5 OBJ File: 'Modular Graveyard.blend'
# www.blender.org
mtllib RustyGateR.mtl
o RustyGateR_Circle.055
v -1.807937 0.182211 0.018813
v -1.807937 0.210148 0.000141
v -1.807937 0.154274 0.000141
v -0.113965 0.182211 0.018813
v -0.113965 0.210148 0.000142
v -0.113965 0.154274 0.000142
v -1.807937 2.488618 0.018813
v -1.807937 2.516727 0.000141
v -1.807937 2.460542 0.000141
v -0.113965 2.251604 0.018813
v -0.113965 2.279541 0.000142
v -0.113965 2.223666 0.000142
v -1.306160 2.672247 -0.051993
v -1.306160 2.672247 0.052207
v -1.380013 2.661094 0.000107
v -1.232307 2.661094 0.000107
v -1.338414 2.578019 -0.030726
v -1.319516 2.884056 0.000107
v -1.338414 2.578019 0.030940
v -1.273906 2.578019 -0.030726
v -1.292804 2.884056 0.000107
v -1.273906 2.578019 0.030940
v -0.313932 2.407151 0.030940
v -0.332830 2.713188 0.000107
v -0.313932 2.407151 -0.030726
v -0.378439 2.407151 0.030940
v -0.359541 2.713188 0.000107
v -0.378439 2.407151 -0.030726
v -0.272333 2.490226 0.000107
v -0.420038 2.490226 0.000107
v -0.346186 2.501379 0.052207
v -0.346186 2.501379 -0.051993
v -1.021774 2.524860 0.030940
v -1.040672 2.830897 0.000107
v -1.021774 2.524860 -0.030726
v -1.086282 2.524860 0.030940
v -1.067384 2.830897 0.000107
v -1.086282 2.524860 -0.030726
v -0.980175 2.607935 0.000107
v -1.127881 2.607935 0.000107
v -1.054028 2.619089 0.052207
v -1.054028 2.619089 -0.051993
v -0.809257 2.565930 -0.051993
v -0.809257 2.565930 0.052207
v -0.883110 2.554776 0.000107
v -0.735404 2.554776 0.000107
v -0.841511 2.471701 -0.030726
v -0.822613 2.777738 0.000107
v -0.841511 2.471701 0.030940
v -0.777003 2.471701 -0.030726
v -0.795901 2.777738 0.000107
v -0.777003 2.471701 0.030940
v -0.550214 2.429933 0.030940
v -0.569112 2.735970 0.000107
v -0.550214 2.429933 -0.030726
v -0.614722 2.429933 0.030940
v -0.595824 2.735970 0.000107
v -0.614722 2.429933 -0.030726
v -0.508615 2.513009 0.000107
v -0.656321 2.513009 0.000107
v -0.582468 2.524162 0.052207
v -0.582468 2.524162 -0.051993
v -0.315669 -0.002187 0.000000
v -0.315669 2.413933 0.000000
v -0.346062 -0.002187 -0.030394
v -0.346062 2.413933 -0.030394
v -0.346062 -0.002187 0.030394
v -0.346062 2.413933 0.030394
v -0.376456 -0.002187 0.000000
v -0.376456 2.413933 0.000000
v -0.552144 -0.002187 0.000000
v -0.552144 2.436715 0.000000
v -0.582537 -0.002187 -0.030394
v -0.582537 2.436715 -0.030394
v -0.582537 -0.002187 0.030394
v -0.582537 2.436715 0.030394
v -0.612931 -0.002187 0.000000
v -0.612931 2.436715 0.000000
v -0.778823 -0.002187 0.000000
v -0.778823 2.478483 0.000000
v -0.809217 -0.002187 -0.030394
v -0.809217 2.478483 -0.030394
v -0.809217 -0.002187 0.030394
v -0.809217 2.478483 0.030394
v -0.839610 -0.002187 0.000000
v -0.839610 2.478483 0.000000
v -1.023636 -0.002187 0.000000
v -1.023636 2.531642 0.000000
v -1.054030 -0.002187 -0.030394
v -1.054030 2.531642 -0.030394
v -1.054030 -0.002187 0.030394
v -1.054030 2.531642 0.030394
v -1.084424 -0.002187 0.000000
v -1.084424 2.531642 0.000000
v -1.275704 -0.002187 0.000000
v -1.275704 2.584801 0.000000
v -1.306098 -0.002187 -0.030394
v -1.306098 2.584801 -0.030394
v -1.306098 -0.002187 0.030394
v -1.306098 2.584801 0.030394
v -1.336491 -0.002187 0.000000
v -1.336491 2.584801 0.000000
v -1.807937 2.488617 -0.018117
v -0.113965 2.251604 -0.018117
v -1.807937 0.182211 -0.018117
v -0.113965 0.182211 -0.018117
v -1.807937 2.287989 0.018813
v -1.807937 2.316067 0.000141
v -1.807937 2.259937 0.000141
v -0.113965 2.051604 0.018813
v -0.113965 2.079540 0.000142
v -0.113965 2.023666 0.000142
v -1.807937 2.287988 -0.018117
v -0.113965 2.051604 -0.018117
v -0.113965 0.359053 -0.018117
v -1.807937 0.359053 -0.018117
v -0.113965 0.331115 0.000142
v -0.113965 0.386990 0.000142
v -0.113965 0.359053 0.018813
v -1.807937 0.331115 0.000141
v -1.807937 0.386990 0.000141
v -1.807937 0.359053 0.018813
v -0.140777 2.496091 0.031713
v -0.140777 -0.002187 0.031713
v -0.077349 2.496091 0.031713
v -0.077349 -0.002187 0.031713
v -0.140776 2.496091 -0.031714
v -0.140776 -0.002187 -0.031714
v -0.077350 2.496091 -0.031714
v -0.077350 -0.002187 -0.031714
v -1.557424 2.721609 -0.051993
v -1.557424 2.721609 0.052207
v -1.631277 2.710456 0.000107
v -1.483571 2.710456 0.000107
v -1.589678 2.627381 -0.030726
v -1.570780 2.933418 0.000107
v -1.589678 2.627381 0.030940
v -1.525170 2.627381 -0.030726
v -1.544068 2.933418 0.000107
v -1.525170 2.627381 0.030940
v -1.777350 -0.002187 -0.031713
v -1.777350 2.979063 -0.031713
v -1.840776 -0.002187 -0.031714
v -1.840776 2.979063 -0.031714
v -1.777349 -0.002187 0.031713
v -1.777349 2.979063 0.031713
v -1.840777 -0.002187 0.031714
v -1.840777 2.979063 0.031714
v -1.527024 -0.002187 0.000000
v -1.527024 2.634163 0.000000
v -1.557418 -0.002187 -0.030394
v -1.557418 2.634163 -0.030394
v -1.557418 -0.002187 0.030394
v -1.557418 2.634163 0.030394
v -1.587812 -0.002187 0.000000
v -1.587812 2.634163 0.000000
v -1.244306 2.335102 0.000141
v -0.820813 2.262804 0.000142
v -0.397320 2.224275 0.000142
v -0.397320 2.251994 0.018813
v -0.820813 2.290691 0.018813
v -1.244306 2.363173 0.018813
v -1.244306 2.391327 0.000141
v -0.820813 2.318592 0.000142
v -0.397320 2.279799 0.000142
v -0.397320 2.251993 -0.018117
v -0.820813 2.290691 -0.018117
v -1.244306 2.363171 -0.018117
v -1.264326 2.137946 0.000141
v -0.840833 2.065647 0.000142
v -0.417340 2.027118 0.000142
v -0.417340 2.054838 0.018813
v -0.840833 2.093534 0.018813
v -1.264326 2.166016 0.018813
v -1.264326 2.194170 0.000141
v -0.840833 2.121436 0.000142
v -0.417340 2.082642 0.000142
v -0.417340 2.054836 -0.018117
v -0.840833 2.093534 -0.018117
v -1.264326 2.166014 -0.018117
v 0.002666 1.996354 -0.000000
v 0.002666 2.306917 -0.000000
v -0.037736 1.996354 -0.040402
v -0.037736 2.306917 -0.040402
v -0.037736 1.996354 0.040402
v -0.037736 2.306917 0.040402
v -0.078138 1.996354 -0.000000
v -0.078138 2.306917 -0.000000
v 0.002666 0.124949 -0.000000
v 0.002666 0.418193 -0.000000
v -0.037736 0.124949 -0.040402
v -0.037736 0.418193 -0.040402
v -0.037736 0.124949 0.040402
v -0.037736 0.418193 0.040402
v -0.078138 0.124949 -0.000000
v -0.078138 0.418193 -0.000000
vt 0.851562 0.117188
vt 0.835938 0.117188
vt 0.835938 0.050781
vt 0.851562 0.050781
vt 0.851562 0.117188
vt 0.851562 0.117188
vt 0.851562 0.191406
vt 0.851562 0.191406
vt 0.851562 0.050781
vt 0.843750 0.105469
vt 0.851562 0.105469
vt 0.843750 0.113281
vt 0.828125 0.113281
vt 0.789062 0.179688
vt 0.796875 0.179688
vt 0.812500 0.183594
vt 0.796875 0.187500
vt 0.835938 0.105469
vt 0.820312 0.109375
vt 0.921875 0.261719
vt 0.929688 0.261719
vt 0.929688 0.261719
vt 0.921875 0.261719
vt 0.875000 0.187500
vt 0.875000 0.191406
vt 0.867188 0.187500
vt 0.867188 0.156250
vt 0.875000 0.144531
vt 0.875000 0.156250
vt 0.882812 0.148438
vt 0.882812 0.128906
vt 0.882812 0.210938
vt 0.882812 0.210938
vt 0.812500 0.242188
vt 0.812500 0.250000
vt 0.804688 0.242188
vt 0.859375 0.191406
vt 0.859375 0.144531
vt 0.882812 0.128906
vt 0.882812 0.191406
vt 0.773438 0.242188
vt 0.781250 0.242188
vt 0.781250 0.250000
vt 0.875000 0.218750
vt 0.882812 0.238281
vt 0.882812 0.238281
vt 0.796875 0.250000
vt 0.812500 0.250000
vt 0.812500 0.269531
vt 0.867188 0.265625
vt 0.859375 0.265625
vt 0.867188 0.261719
vt 0.796875 0.242188
vt 0.875000 0.214844
vt 0.882812 0.218750
vt 0.867188 0.214844
vt 0.859375 0.218750
vt 0.789062 0.246094
vt 0.789062 0.250000
vt 0.804688 0.269531
vt 0.835938 0.253906
vt 0.835938 0.261719
vt 0.820312 0.253906
vt 0.812500 0.265625
vt 0.820312 0.265625
vt 0.820312 0.269531
vt 0.812500 0.269531
vt 0.875000 0.070312
vt 0.882812 0.050781
vt 0.882812 0.050781
vt 0.875000 0.246094
vt 0.882812 0.242188
vt 0.882812 0.261719
vt 0.851562 0.265625
vt 0.835938 0.265625
vt 0.843750 0.261719
vt 0.875000 0.238281
vt 0.867188 0.074219
vt 0.859375 0.070312
vt 0.875000 0.074219
vt 0.882812 0.070312
vt 0.867188 0.238281
vt 0.859375 0.246094
vt 0.882812 0.261719
vt 0.796875 0.265625
vt 0.812500 0.257812
vt 0.812500 0.265625
vt 0.859375 0.265625
vt 0.875000 0.265625
vt 0.875000 0.269531
vt 0.859375 0.269531
vt 0.859375 0.269531
vt 0.867188 0.269531
vt 0.867188 0.273438
vt 0.859375 0.273438
vt 0.875000 0.078125
vt 0.875000 0.085938
vt 0.867188 0.078125
vt 0.820312 0.261719
vt 0.820312 0.253906
vt 0.820312 0.261719
vt 0.828125 0.257812
vt 0.828125 0.242188
vt 0.882812 0.105469
vt 0.882812 0.105469
vt 0.921875 0.257812
vt 0.921875 0.250000
vt 0.929688 0.257812
vt 0.859375 0.085938
vt 0.812500 0.257812
vt 0.828125 0.242188
vt 0.882812 0.085938
vt 0.851562 0.250000
vt 0.843750 0.250000
vt 0.851562 0.242188
vt 0.789062 0.226562
vt 0.796875 0.242188
vt 0.796875 0.242188
vt 0.875000 0.113281
vt 0.882812 0.113281
vt 0.882812 0.125000
vt 0.773438 0.261719
vt 0.765625 0.261719
vt 0.773438 0.253906
vt 0.875000 0.109375
vt 0.789062 0.218750
vt 0.796875 0.226562
vt 0.773438 0.218750
vt 0.773438 0.226562
vt 0.867188 0.109375
vt 0.859375 0.113281
vt 0.882812 0.125000
vt 0.820312 0.269531
vt 0.828125 0.265625
vt 0.835938 0.269531
vt 0.875000 0.265625
vt 0.890625 0.265625
vt 0.890625 0.269531
vt 0.875000 0.269531
vt 0.796875 0.050781
vt 0.804688 0.050781
vt 0.804688 0.242188
vt 0.796875 0.242188
vt 0.812500 0.050781
vt 0.812500 0.242188
vt 0.789062 0.050781
vt 0.796875 0.050781
vt 0.796875 0.242188
vt 0.789062 0.242188
vt 0.859375 0.054688
vt 0.859375 0.054688
vt 0.859375 0.246094
vt 0.859375 0.246094
vt 0.867188 0.054688
vt 0.867188 0.246094
vt 0.875000 0.054688
vt 0.875000 0.246094
vt 0.882812 0.054688
vt 0.882812 0.246094
vt 0.820312 0.054688
vt 0.828125 0.054688
vt 0.828125 0.250000
vt 0.820312 0.250000
vt 0.835938 0.054688
vt 0.835938 0.250000
vt 0.843750 0.054688
vt 0.851562 0.054688
vt 0.851562 0.250000
vt 0.843750 0.250000
vt 0.859375 0.054688
vt 0.859375 0.250000
vt 0.820312 0.054688
vt 0.820312 0.054688
vt 0.820312 0.253906
vt 0.820312 0.253906
vt 0.820312 0.054688
vt 0.820312 0.253906
vt 0.796875 0.054688
vt 0.804688 0.054688
vt 0.804688 0.253906
vt 0.796875 0.253906
vt 0.812500 0.054688
vt 0.812500 0.253906
vt 0.921875 0.042969
vt 0.921875 0.042969
vt 0.921875 0.246094
vt 0.921875 0.246094
vt 0.929688 0.042969
vt 0.929688 0.246094
vt 0.750000 0.054688
vt 0.757812 0.054688
vt 0.757812 0.257812
vt 0.750000 0.257812
vt 0.765625 0.054688
vt 0.765625 0.257812
vt 0.781250 0.179688
vt 0.796875 0.187500
vt 0.835938 0.191406
vt 0.796875 0.105469
vt 0.804688 0.105469
vt 0.796875 0.113281
vt 0.781250 0.113281
vt 0.835938 0.179688
vt 0.843750 0.175781
vt 0.851562 0.183594
vt 0.851562 0.187500
vt 0.789062 0.101562
vt 0.773438 0.109375
vt 0.828125 0.179688
vt 0.843750 0.187500
vt 0.835938 0.191406
vt 0.851562 0.191406
vt 0.851562 0.257812
vt 0.835938 0.257812
vt 0.828125 0.257812
vt 0.820312 0.257812
vt 0.820312 0.191406
vt 0.828125 0.191406
vt 0.843750 0.257812
vt 0.843750 0.191406
vt 0.851562 0.191406
vt 0.851562 0.257812
vt 0.812500 0.265625
vt 0.812500 0.273438
vt 0.796875 0.273438
vt 0.796875 0.265625
vt 0.906250 0.253906
vt 0.906250 0.257812
vt 0.890625 0.257812
vt 0.890625 0.253906
vt 0.812500 0.050781
vt 0.820312 0.050781
vt 0.820312 0.238281
vt 0.812500 0.238281
vt 0.781250 0.054688
vt 0.789062 0.054688
vt 0.789062 0.253906
vt 0.781250 0.253906
vt 0.828125 0.050781
vt 0.828125 0.050781
vt 0.828125 0.238281
vt 0.828125 0.238281
vt 0.765625 0.054688
vt 0.773438 0.054688
vt 0.773438 0.253906
vt 0.765625 0.253906
vt 0.820312 0.257812
vt 0.835938 0.257812
vt 0.835938 0.261719
vt 0.820312 0.261719
vt 0.875000 0.160156
vt 0.875000 0.164062
vt 0.867188 0.160156
vt 0.789062 0.191406
vt 0.789062 0.199219
vt 0.773438 0.191406
vt 0.773438 0.199219
vt 0.796875 0.214844
vt 0.882812 0.183594
vt 0.882812 0.183594
vt 0.867188 0.250000
vt 0.867188 0.257812
vt 0.859375 0.250000
vt 0.859375 0.164062
vt 0.796875 0.199219
vt 0.796875 0.214844
vt 0.882812 0.164062
vt 0.773438 0.253906
vt 0.789062 0.253906
vt 0.789062 0.261719
vt 0.757812 0.042969
vt 0.765625 0.042969
vt 0.765625 0.277344
vt 0.757812 0.277344
vt 0.859375 0.042969
vt 0.875000 0.042969
vt 0.875000 0.261719
vt 0.859375 0.261719
vt 0.742188 0.042969
vt 0.757812 0.042969
vt 0.757812 0.277344
vt 0.742188 0.277344
vt 0.875000 0.042969
vt 0.890625 0.042969
vt 0.890625 0.261719
vt 0.875000 0.261719
vt 0.906250 0.042969
vt 0.914062 0.042969
vt 0.914062 0.253906
vt 0.906250 0.253906
vt 0.914062 0.042969
vt 0.914062 0.253906
vt 0.890625 0.042969
vt 0.898438 0.042969
vt 0.898438 0.253906
vt 0.890625 0.253906
vt 0.796875 0.117188
vt 0.796875 0.117188
vt 0.789062 0.140625
vt 0.773438 0.140625
vt 0.781250 0.156250
vt 0.773438 0.156250
vt 0.843750 0.042969
vt 0.843750 0.042969
vt 0.851562 0.070312
vt 0.843750 0.066406
vt 0.851562 0.089844
vt 0.843750 0.089844
vt 0.812500 0.117188
vt 0.796875 0.136719
vt 0.796875 0.156250
vt 0.851562 0.042969
vt 0.859375 0.070312
vt 0.859375 0.089844
vt 0.843750 0.117188
vt 0.851562 0.117188
vt 0.835938 0.136719
vt 0.828125 0.136719
vt 0.828125 0.156250
vt 0.820312 0.156250
vt 0.789062 0.042969
vt 0.796875 0.042969
vt 0.804688 0.066406
vt 0.796875 0.066406
vt 0.812500 0.089844
vt 0.796875 0.085938
vt 0.851562 0.117188
vt 0.843750 0.136719
vt 0.843750 0.156250
vt 0.804688 0.042969
vt 0.812500 0.070312
vt 0.812500 0.089844
vt 0.804688 0.191406
vt 0.812500 0.191406
vt 0.812500 0.214844
vt 0.804688 0.218750
vt 0.812500 0.191406
vt 0.812500 0.218750
vt 0.843750 0.191406
vt 0.851562 0.191406
vt 0.851562 0.214844
vt 0.843750 0.218750
vt 0.851562 0.191406
vt 0.851562 0.218750
vt 0.851562 0.253906
vt 0.851562 0.253906
vt 0.843750 0.257812
vt 0.843750 0.253906
vt 0.804688 0.253906
vt 0.804688 0.253906
vt 0.812500 0.253906
vt 0.812500 0.257812
vt 0.804688 0.218750
vt 0.812500 0.218750
vt 0.812500 0.242188
vt 0.804688 0.242188
vt 0.812500 0.218750
vt 0.812500 0.242188
vt 0.843750 0.218750
vt 0.851562 0.218750
vt 0.851562 0.242188
vt 0.843750 0.242188
vt 0.851562 0.218750
vt 0.851562 0.242188
vt 0.773438 0.265625
vt 0.773438 0.269531
vt 0.765625 0.269531
vt 0.765625 0.265625
vt 0.773438 0.257812
vt 0.773438 0.253906
vt 0.789062 0.253906
vt 0.789062 0.257812
vn -0.0000 -0.0000 1.0000
vn -0.0000 -0.5557 0.8314
vn 0.0000 0.0000 -1.0000
vn 0.0000 0.5471 -0.8371
vn -0.0000 0.5557 0.8314
vn -0.0015 -0.0163 0.9999
vn -0.0253 -0.5572 0.8300
vn -0.0010 -0.5572 0.8304
vn -0.0002 -0.0008 1.0000
vn -0.0015 -0.0160 -0.9999
vn 0.0260 0.5479 -0.8361
vn 0.0006 0.5480 -0.8365
vn -0.0002 -0.0008 -1.0000
vn 0.0264 0.5565 0.8304
vn 0.0006 0.5566 0.8308
vn -0.4717 -0.6779 -0.5638
vn 0.4717 -0.6779 -0.5638
vn 0.4717 -0.6779 0.5638
vn -0.4717 -0.6779 0.5638
vn 0.0000 0.0806 0.9968
vn 0.0000 0.0806 -0.9968
vn 0.9992 0.0407 0.0000
vn 0.1277 0.2293 -0.9649
vn -0.1277 0.2293 0.9649
vn 0.1277 0.2293 0.9649
vn -0.9992 0.0407 0.0000
vn -0.1277 0.2293 -0.9649
vn -0.0000 0.0806 0.9967
vn -0.0000 0.0806 -0.9967
vn 1.0000 0.0000 -0.0000
vn -0.7071 0.0000 -0.7071
vn -0.7071 0.0000 0.7071
vn 0.7071 0.0000 -0.7071
vn -1.0000 0.0000 0.0000
vn 0.7071 0.0000 0.7071
vn -0.0249 -0.5486 -0.8357
vn -0.0010 -0.5486 -0.8361
vn 0.0000 -0.5471 -0.8371
vn -0.0015 -0.0146 0.9999
vn -0.0278 -0.5571 0.8300
vn -0.0061 -0.5572 0.8304
vn -0.0002 -0.0041 1.0000
vn -0.0015 -0.0144 -0.9999
vn 0.0285 0.5479 -0.8361
vn 0.0057 0.5480 -0.8365
vn -0.0002 -0.0041 -1.0000
vn 0.0289 0.5565 0.8304
vn 0.0058 0.5566 0.8308
vn -0.0274 -0.5486 -0.8357
vn -0.0060 -0.5486 -0.8361
vn -0.5773 0.5774 -0.5774
vn -0.5773 0.5773 0.5774
vn 0.5774 0.5773 0.5773
vn 0.5774 0.5774 -0.5773
vn -0.7071 0.7071 -0.0000
vn 0.5774 0.5774 0.5773
vn 0.5773 0.5774 -0.5774
vn -0.1205 -0.5413 -0.8322
vn 0.0167 0.0751 -0.9970
vn -0.0034 -0.0088 -1.0000
vn -0.1053 -0.5429 -0.8332
vn -0.0035 -0.0139 -0.9999
vn -0.0700 -0.5465 -0.8345
vn 0.1221 0.5489 0.8269
vn 0.0170 0.0762 0.9969
vn -0.0034 -0.0089 1.0000
vn 0.1098 0.5503 0.8277
vn -0.0035 -0.0141 0.9999
vn 0.0743 0.5540 0.8292
vn 0.1203 0.5405 -0.8327
vn 0.1081 0.5419 -0.8335
vn 0.0731 0.5455 -0.8349
vn -0.1223 -0.5496 0.8264
vn -0.1070 -0.5513 0.8274
vn -0.0711 -0.5550 0.8288
vn -0.1215 -0.5414 -0.8320
vn 0.0170 0.0757 -0.9970
vn -0.0035 -0.0091 -1.0000
vn -0.1058 -0.5430 -0.8331
vn 0.1231 0.5490 0.8267
vn 0.0172 0.0769 0.9969
vn -0.0036 -0.0092 1.0000
vn 0.1104 0.5504 0.8276
vn 0.1213 0.5406 -0.8325
vn 0.1087 0.5419 -0.8334
vn -0.1234 -0.5497 0.8262
vn -0.1074 -0.5514 0.8273
vn 0.8165 -0.5774 -0.0000
vn -0.0000 -0.5774 -0.8165
vn -0.0000 0.5774 -0.8165
vn 0.8165 0.5774 -0.0000
vn -0.8165 -0.5774 0.0000
vn -0.8165 0.5774 0.0000
vn -0.0000 -0.5774 0.8165
vn -0.0000 0.5774 0.8165
vn 0.8165 -0.5773 -0.0000
vn 0.5000 0.7071 0.5000
vn 0.0000 1.0000 0.0000
usemtl Material.001
s 1
f 1/1/1 3/2/2 6/3/2 4/4/1
f 105/5/3 2/6/4 5/7/4 106/8/3
f 2/6/5 1/1/1 4/4/1 5/9/5
f 160/10/6 159/11/7 12/12/8 10/13/9
f 166/14/10 165/15/11 11/16/12 104/17/13
f 165/18/14 160/10/6 10/13/9 11/19/15
f 17/20/16 20/21/17 22/22/18 19/23/19
f 22/24/18 14/25/20 19/26/19
f 17/27/16 13/28/21 20/29/17
f 16/30/22 13/28/21 21/31/23
f 18/32/24 14/25/20 21/33/25
f 19/34/19 15/35/26 17/36/16
f 15/37/26 14/25/20 18/32/24
f 19/26/19 14/25/20 15/37/26
f 20/29/17 13/28/21 16/30/22
f 15/38/26 18/39/27 13/28/21
f 17/27/16 15/38/26 13/28/21
f 22/24/18 16/40/22 14/25/20
f 22/41/18 20/42/17 16/43/22
f 14/25/20 16/40/22 21/33/25
f 13/28/21 18/39/27 21/31/23
f 32/44/21 27/45/27 24/46/23
f 31/47/28 29/48/22 24/49/25
f 23/50/18 25/51/17 29/52/22
f 23/53/18 29/48/22 31/47/28
f 28/54/16 30/55/26 32/44/21
f 30/55/26 27/45/27 32/44/21
f 25/56/17 32/44/21 29/57/22
f 26/58/19 31/47/28 30/59/26
f 30/59/26 31/47/28 27/60/24
f 26/61/19 30/62/26 28/63/16
f 27/60/24 31/47/28 24/49/25
f 29/57/22 32/44/21 24/46/23
f 28/54/16 32/44/21 25/56/17
f 23/53/18 31/47/28 26/58/19
f 28/64/16 25/65/17 23/66/18 26/67/19
f 42/68/29 37/69/27 34/70/23
f 41/71/28 39/72/22 34/73/25
f 33/74/18 35/75/17 39/76/22
f 33/77/18 39/72/22 41/71/28
f 38/78/16 40/79/26 42/68/29
f 40/79/26 37/69/27 42/68/29
f 35/80/17 42/68/29 39/81/22
f 36/82/19 41/71/28 40/83/26
f 40/83/26 41/71/28 37/84/24
f 36/85/19 40/86/26 38/87/16
f 37/84/24 41/71/28 34/73/25
f 39/81/22 42/68/29 34/70/23
f 38/78/16 42/68/29 35/80/17
f 33/77/18 41/71/28 36/82/19
f 38/88/16 35/89/17 33/90/18 36/91/19
f 47/92/16 50/93/17 52/94/18 49/95/19
f 52/96/18 44/97/28 49/98/19
f 47/99/16 43/100/29 50/101/17
f 46/102/22 43/100/29 51/103/23
f 48/104/24 44/97/28 51/105/25
f 49/106/19 45/107/26 47/108/16
f 45/109/26 44/97/28 48/104/24
f 49/98/19 44/97/28 45/109/26
f 50/101/17 43/100/29 46/102/22
f 45/110/26 48/111/27 43/100/29
f 47/99/16 45/110/26 43/100/29
f 52/96/18 46/112/22 44/97/28
f 52/113/18 50/114/17 46/115/22
f 44/97/28 46/112/22 51/105/25
f 43/100/29 48/111/27 51/103/23
f 62/116/21 57/117/27 54/118/23
f 61/119/20 59/120/22 54/121/25
f 53/122/18 55/123/17 59/124/22
f 53/125/18 59/120/22 61/119/20
f 58/126/16 60/127/26 62/116/21
f 60/127/26 57/117/27 62/116/21
f 55/128/17 62/116/21 59/129/22
f 56/130/19 61/119/20 60/131/26
f 60/131/26 61/119/20 57/132/24
f 56/133/19 60/134/26 58/135/16
f 57/132/24 61/119/20 54/121/25
f 59/129/22 62/116/21 54/118/23
f 58/126/16 62/116/21 55/128/17
f 53/125/18 61/119/20 56/130/19
f 58/136/16 55/137/17 53/138/18 56/139/19
f 63/140/30 65/141/3 66/142/3 64/143/30
f 65/141/3 69/144/31 70/145/31 66/142/3
f 69/146/32 67/147/1 68/148/1 70/149/32
f 67/147/1 63/140/30 64/143/30 68/148/1
f 71/150/33 73/151/3 74/152/3 72/153/33
f 73/151/3 77/154/34 78/155/34 74/152/3
f 77/154/34 75/156/1 76/157/1 78/155/34
f 75/156/1 71/158/35 72/159/35 76/157/1
f 79/160/33 81/161/33 82/162/33 80/163/33
f 81/161/31 85/164/34 86/165/34 82/162/31
f 85/166/34 83/167/32 84/168/32 86/169/34
f 83/167/35 79/170/35 80/171/35 84/168/35
f 87/172/33 89/173/33 90/174/33 88/175/33
f 89/173/31 93/176/34 94/177/34 90/174/31
f 93/178/34 91/179/32 92/180/32 94/181/34
f 91/179/35 87/182/35 88/183/35 92/180/35
f 95/184/33 97/185/33 98/186/33 96/187/33
f 97/185/31 101/188/34 102/189/34 98/186/31
f 101/190/34 99/191/32 100/192/32 102/193/34
f 99/191/35 95/194/35 96/195/35 100/192/35
f 159/196/36 166/14/10 104/17/13 12/197/37
f 3/2/38 105/5/3 106/8/3 6/198/38
f 172/199/39 171/200/40 112/201/41 110/202/42
f 178/203/43 177/204/44 111/205/45 114/206/46
f 177/207/47 172/199/39 110/202/42 111/208/48
f 171/209/49 178/203/43 114/206/46 112/210/50
f 121/211/5 122/212/1 119/213/1 118/214/5
f 116/215/3 121/216/4 118/217/4 115/218/3
f 120/219/38 116/215/3 115/218/3 117/220/38
f 122/212/1 120/221/2 117/222/2 119/213/1
f 144/223/51 148/224/52 146/225/53 142/226/54
f 127/227/51 123/228/55 125/229/56 129/230/57
f 128/231/31 124/232/34 123/233/55 127/234/51
f 130/235/33 128/236/31 127/237/51 129/238/57
f 126/239/35 130/240/33 129/241/57 125/242/56
f 124/243/1 126/244/35 125/245/56 123/246/1
f 135/247/16 138/248/17 140/249/18 137/250/19
f 140/251/18 132/252/28 137/253/19
f 135/254/16 131/255/29 138/256/17
f 134/257/22 131/255/29 139/258/23
f 136/259/24 132/252/28 139/260/25
f 137/261/19 133/262/26 135/263/16
f 133/264/26 132/252/28 136/259/24
f 137/253/19 132/252/28 133/264/26
f 138/256/17 131/255/29 134/257/22
f 133/265/26 136/266/27 131/255/29
f 135/254/16 133/265/26 131/255/29
f 140/251/18 134/267/22 132/252/28
f 140/268/18 138/269/17 134/270/22
f 132/252/28 134/267/22 139/260/25
f 131/255/29 136/266/27 139/258/23
f 141/271/33 143/272/31 144/273/51 142/274/54
f 143/275/31 147/276/34 148/277/52 144/278/51
f 147/279/1 145/280/35 146/281/53 148/282/52
f 145/283/35 141/284/33 142/285/54 146/286/53
f 149/287/33 151/288/3 152/289/3 150/290/33
f 151/288/3 155/291/31 156/292/31 152/289/3
f 155/293/32 153/294/1 154/295/1 156/296/32
f 153/294/1 149/287/35 150/290/35 154/295/1
f 9/297/58 103/298/59 168/299/60 157/300/61
f 157/300/61 168/299/60 167/301/62 158/302/63
f 158/302/63 167/301/62 166/14/10 159/196/36
f 8/303/64 7/304/65 162/305/66 163/306/67
f 163/306/67 162/305/66 161/307/68 164/308/69
f 164/308/69 161/307/68 160/10/6 165/18/14
f 103/298/59 8/309/70 163/310/71 168/299/60
f 168/299/60 163/310/71 164/311/72 167/301/62
f 167/301/62 164/311/72 165/15/11 166/14/10
f 7/304/65 9/312/73 157/313/74 162/305/66
f 162/305/66 157/313/74 158/314/75 161/307/68
f 161/307/68 158/314/75 159/11/7 160/10/6
f 109/315/76 113/316/77 180/317/78 169/318/79
f 169/318/79 180/317/78 179/319/62 170/320/63
f 170/320/63 179/319/62 178/203/43 171/209/49
f 108/321/80 107/322/81 174/323/82 175/324/83
f 175/324/83 174/323/82 173/325/68 176/326/69
f 176/326/69 173/325/68 172/199/39 177/207/47
f 113/316/77 108/327/84 175/328/85 180/317/78
f 180/317/78 175/328/85 176/329/72 179/319/62
f 179/319/62 176/329/72 177/204/44 178/203/43
f 107/322/81 109/330/86 169/331/87 174/323/82
f 174/323/82 169/331/87 170/332/75 173/325/68
f 173/325/68 170/332/75 171/200/40 172/199/39
f 181/333/88 183/334/89 184/335/90 182/336/91
f 183/334/89 187/337/92 188/338/93 184/335/90
f 187/339/92 185/340/94 186/341/95 188/342/93
f 185/340/94 181/343/88 182/344/91 186/341/95
f 184/345/90 188/346/93 186/347/95 182/348/91
f 181/349/88 185/350/94 187/351/92 183/352/89
f 189/353/96 191/354/89 192/355/33 190/356/33
f 191/354/89 195/357/92 196/358/93 192/355/31
f 195/359/92 193/360/94 194/361/95 196/362/93
f 193/360/94 189/363/96 190/364/97 194/361/95
f 192/365/98 196/366/93 194/367/95 190/368/97
f 189/369/96 193/370/94 195/371/92 191/372/89
