# Blender v2.93.5 OBJ File: 'Modular Graveyard.blend'
# www.blender.org
mtllib CircularTallRailing.mtl
o CircularTallRailing_Circle.010
v -0.181015 0.359044 0.629854
v -0.194977 0.386982 0.619227
v -0.194977 0.331107 0.619227
v -0.851626 0.359044 1.018712
v -0.851914 0.386982 0.999605
v -0.851914 0.331107 0.999605
v -0.180998 2.259179 0.629848
v -0.194985 2.287116 0.619230
v -0.194985 2.231242 0.619230
v -0.851612 2.259179 1.018708
v -0.851901 2.287116 0.999601
v -0.851901 2.231242 0.999601
v -0.757418 2.394374 1.007629
v -0.746910 2.700411 0.973026
v -0.772975 2.394374 0.947958
v -0.694997 2.394374 0.991355
v -0.721062 2.700411 0.966287
v -0.710554 2.394374 0.931684
v -0.805450 2.477450 0.988288
v -0.662522 2.477450 0.951025
v -0.720842 2.488603 1.020071
v -0.747130 2.488603 0.919242
v -0.322393 2.488603 0.674987
v -0.248820 2.488603 0.748776
v -0.233308 2.477450 0.659736
v -0.337905 2.477450 0.764027
v -0.284536 2.394374 0.667274
v -0.276149 2.700411 0.702451
v -0.240996 2.394374 0.710942
v -0.330217 2.394374 0.712821
v -0.295065 2.700411 0.721312
v -0.286677 2.394374 0.756489
v -0.505814 2.394374 0.914248
v -0.504982 2.700411 0.878094
v -0.536821 2.394374 0.860945
v -0.450054 2.394374 0.881813
v -0.481893 2.700411 0.864663
v -0.481061 2.394374 0.828510
v -0.557275 2.477450 0.908513
v -0.429600 2.477450 0.834245
v -0.467241 2.488603 0.916414
v -0.519634 2.488603 0.826344
v -0.763543 0.055746 0.977252
v -0.763543 2.401156 0.977252
v -0.741800 0.055746 0.940174
v -0.741800 2.401156 0.940174
v -0.726464 0.055746 0.998995
v -0.726464 2.401156 0.998995
v -0.704722 0.055746 0.961916
v -0.704722 2.401156 0.961916
v -0.519703 0.055746 0.886534
v -0.519703 2.401156 0.886534
v -0.508714 0.055746 0.844979
v -0.508714 2.401156 0.844979
v -0.478149 0.055746 0.897524
v -0.478149 2.401156 0.897524
v -0.467159 0.055746 0.855969
v -0.467159 2.401156 0.855969
v -0.307234 0.055746 0.733295
v -0.307234 2.401156 0.733295
v -0.307171 0.055746 0.690312
v -0.307171 2.401156 0.690312
v -0.264251 0.055746 0.733358
v -0.264251 2.401156 0.733358
v -0.264188 0.055746 0.690375
v -0.264188 2.401156 0.690375
v -0.208771 2.259179 0.608843
v -0.851508 2.259179 0.980643
v -0.208850 0.359044 0.608870
v -0.851545 0.359045 0.980655
v -0.380011 2.231242 0.805482
v -0.367520 2.259179 0.820994
v -0.380011 2.287116 0.805482
v -0.391653 2.259179 0.790122
v -0.379978 0.331107 0.805471
v -0.367594 0.359044 0.821018
v -0.379978 0.386982 0.805471
v -0.391930 0.359044 0.790215
v -0.606172 2.231242 0.937036
v -0.606172 2.287116 0.937036
v -0.598961 2.259179 0.953864
v -0.612698 2.259179 0.919286
v -0.606331 0.331107 0.937085
v -0.606331 0.386982 0.937085
v -0.599182 0.359044 0.953935
v -0.613037 0.359044 0.919396
v -0.065141 2.231242 0.391777
v -0.046565 2.259179 0.398956
v -0.065141 2.287116 0.391777
v -0.082907 2.259179 0.384305
v -0.065118 0.331107 0.391751
v -0.046616 0.359044 0.399014
v -0.065118 0.386982 0.391751
v -0.083101 0.359044 0.384524
v -0.000861 2.231242 0.147296
v 0.019523 2.259179 0.147231
v -0.000861 2.287116 0.147296
v -0.020564 2.259179 0.146985
v -0.000846 0.331107 0.147266
v 0.019488 0.359044 0.147300
v -0.000846 0.386982 0.147266
v -0.020697 0.359044 0.147245
v -0.175473 2.488603 0.478782
v -0.084863 2.488603 0.530236
v -0.093699 2.477450 0.440288
v -0.166637 2.477450 0.568729
v -0.141052 2.394374 0.461236
v -0.123573 2.700411 0.492895
v -0.087430 2.394374 0.491687
v -0.172907 2.394374 0.517331
v -0.136763 2.700411 0.516123
v -0.119284 2.394374 0.547781
v -0.145290 0.055746 0.530921
v -0.145290 2.401156 0.530921
v -0.156711 0.055746 0.489483
v -0.156711 2.401156 0.489483
v -0.103851 0.055746 0.519500
v -0.103851 2.401156 0.519500
v -0.115272 0.055746 0.478062
v -0.115272 2.401156 0.478062
v -0.083554 2.488603 0.255607
v 0.017299 2.488603 0.281803
v -0.014561 2.477450 0.197224
v -0.051694 2.477450 0.340186
v -0.054861 2.394374 0.229735
v -0.029770 2.700411 0.255778
v 0.004824 2.394374 0.245238
v -0.071079 2.394374 0.292172
v -0.036485 2.700411 0.281632
v -0.011394 2.394374 0.307674
v -0.040882 0.055746 0.298135
v -0.040882 2.401156 0.298135
v -0.062659 0.055746 0.261076
v -0.062659 2.401156 0.261076
v -0.003824 0.055746 0.276358
v -0.003824 2.401156 0.276358
v -0.025600 0.055746 0.239300
v -0.025600 2.401156 0.239300
v -0.181015 0.181307 0.629854
v -0.194977 0.209244 0.619227
v -0.194977 0.153370 0.619227
v -0.851626 0.181307 1.018712
v -0.851914 0.209244 0.999605
v -0.851914 0.153370 0.999605
v -0.208850 0.181307 0.608870
v -0.851545 0.181307 0.980655
v -0.379978 0.153370 0.805471
v -0.367594 0.181307 0.821018
v -0.379978 0.209244 0.805471
v -0.391930 0.181307 0.790215
v -0.606331 0.153370 0.937085
v -0.606331 0.209244 0.937085
v -0.599182 0.181307 0.953935
v -0.613037 0.181307 0.919396
v -0.065118 0.153370 0.391751
v -0.046616 0.181307 0.399014
v -0.065118 0.209244 0.391751
v -0.083101 0.181307 0.384524
v -0.000846 0.153370 0.147266
v 0.019488 0.181307 0.147300
v -0.000846 0.209244 0.147266
v -0.020697 0.181307 0.147245
v -0.181015 2.059008 0.629854
v -0.194977 2.086945 0.619227
v -0.194977 2.031071 0.619227
v -0.851626 2.059008 1.018712
v -0.851914 2.086945 0.999605
v -0.851914 2.031071 0.999605
v -0.208850 2.059008 0.608870
v -0.851545 2.059008 0.980655
v -0.379978 2.031071 0.805471
v -0.367594 2.059008 0.821018
v -0.379978 2.086945 0.805471
v -0.391930 2.059008 0.790215
v -0.606331 2.031071 0.937085
v -0.606331 2.086945 0.937085
v -0.599182 2.059008 0.953935
v -0.613037 2.059008 0.919396
v -0.065118 2.031071 0.391751
v -0.046616 2.059008 0.399014
v -0.065118 2.086945 0.391751
v -0.083101 2.059008 0.384524
v -0.000846 2.031071 0.147266
v 0.019488 2.059008 0.147300
v -0.000846 2.086945 0.147266
v -0.020697 2.059008 0.147245
vt 0.843750 0.429688
vt 0.843750 0.488281
vt 0.828125 0.488281
vt 0.828125 0.445312
vt 0.828125 0.390625
vt 0.828125 0.339844
vt 0.843750 0.332031
vt 0.843750 0.378906
vt 0.843750 0.445312
vt 0.843750 0.488281
vt 0.828125 0.488281
vt 0.828125 0.429688
vt 0.843750 0.429688
vt 0.843750 0.488281
vt 0.828125 0.488281
vt 0.828125 0.429688
vt 0.843750 0.429688
vt 0.843750 0.488281
vt 0.828125 0.488281
vt 0.828125 0.429688
vt 0.843750 0.429688
vt 0.843750 0.488281
vt 0.828125 0.488281
vt 0.828125 0.429688
vt 0.867188 0.484375
vt 0.867188 0.503906
vt 0.867188 0.503906
vt 0.867188 0.484375
vt 0.851562 0.484375
vt 0.882812 0.402344
vt 0.859375 0.421875
vt 0.859375 0.402344
vt 0.859375 0.472656
vt 0.882812 0.472656
vt 0.890625 0.484375
vt 0.859375 0.472656
vt 0.882812 0.472656
vt 0.859375 0.402344
vt 0.882812 0.402344
vt 0.859375 0.421875
vt 0.843750 0.503906
vt 0.828125 0.503906
vt 0.828125 0.492188
vt 0.843750 0.492188
vt 0.843750 0.503906
vt 0.828125 0.503906
vt 0.828125 0.492188
vt 0.843750 0.492188
vt 0.859375 0.472656
vt 0.882812 0.472656
vt 0.867188 0.484375
vt 0.882812 0.472656
vt 0.859375 0.472656
vt 0.867188 0.484375
vt 0.851562 0.484375
vt 0.867188 0.503906
vt 0.867188 0.503906
vt 0.859375 0.402344
vt 0.882812 0.402344
vt 0.859375 0.421875
vt 0.890625 0.484375
vt 0.882812 0.402344
vt 0.859375 0.421875
vt 0.859375 0.402344
vt 0.867188 0.484375
vt 0.867188 0.503906
vt 0.867188 0.503906
vt 0.867188 0.484375
vt 0.851562 0.484375
vt 0.882812 0.402344
vt 0.859375 0.421875
vt 0.859375 0.402344
vt 0.859375 0.472656
vt 0.882812 0.472656
vt 0.890625 0.484375
vt 0.859375 0.472656
vt 0.882812 0.472656
vt 0.859375 0.402344
vt 0.882812 0.402344
vt 0.859375 0.421875
vt 0.843750 0.503906
vt 0.828125 0.503906
vt 0.828125 0.492188
vt 0.843750 0.492188
vt 0.843750 0.328125
vt 0.843750 0.492188
vt 0.828125 0.492188
vt 0.828125 0.328125
vt 0.843750 0.328125
vt 0.843750 0.492188
vt 0.828125 0.492188
vt 0.828125 0.328125
vt 0.843750 0.328125
vt 0.843750 0.492188
vt 0.828125 0.492188
vt 0.828125 0.328125
vt 0.843750 0.328125
vt 0.843750 0.492188
vt 0.828125 0.492188
vt 0.828125 0.328125
vt 0.843750 0.328125
vt 0.843750 0.492188
vt 0.828125 0.492188
vt 0.828125 0.328125
vt 0.843750 0.328125
vt 0.843750 0.492188
vt 0.828125 0.492188
vt 0.828125 0.328125
vt 0.843750 0.328125
vt 0.843750 0.492188
vt 0.828125 0.492188
vt 0.828125 0.328125
vt 0.843750 0.328125
vt 0.843750 0.492188
vt 0.828125 0.492188
vt 0.828125 0.328125
vt 0.843750 0.328125
vt 0.843750 0.492188
vt 0.828125 0.492188
vt 0.828125 0.328125
vt 0.843750 0.328125
vt 0.843750 0.492188
vt 0.828125 0.492188
vt 0.828125 0.328125
vt 0.843750 0.328125
vt 0.843750 0.492188
vt 0.828125 0.492188
vt 0.828125 0.328125
vt 0.843750 0.328125
vt 0.843750 0.492188
vt 0.828125 0.492188
vt 0.828125 0.328125
vt 0.843750 0.429688
vt 0.843750 0.488281
vt 0.828125 0.488281
vt 0.828125 0.429688
vt 0.828125 0.378906
vt 0.828125 0.332031
vt 0.843750 0.339844
vt 0.843750 0.390625
vt 0.843750 0.343750
vt 0.843750 0.386719
vt 0.828125 0.386719
vt 0.828125 0.347656
vt 0.843750 0.343750
vt 0.843750 0.386719
vt 0.828125 0.386719
vt 0.828125 0.343750
vt 0.843750 0.347656
vt 0.843750 0.386719
vt 0.828125 0.386719
vt 0.828125 0.343750
vt 0.843750 0.343750
vt 0.843750 0.386719
vt 0.828125 0.386719
vt 0.828125 0.343750
vt 0.828125 0.472656
vt 0.828125 0.410156
vt 0.843750 0.433594
vt 0.843750 0.476562
vt 0.843750 0.351562
vt 0.843750 0.410156
vt 0.828125 0.386719
vt 0.828125 0.343750
vt 0.828125 0.476562
vt 0.828125 0.433594
vt 0.843750 0.472656
vt 0.843750 0.343750
vt 0.843750 0.386719
vt 0.828125 0.351562
vt 0.843750 0.386719
vt 0.843750 0.429688
vt 0.828125 0.429688
vt 0.828125 0.386719
vt 0.843750 0.386719
vt 0.843750 0.429688
vt 0.828125 0.429688
vt 0.828125 0.386719
vt 0.843750 0.386719
vt 0.843750 0.429688
vt 0.828125 0.429688
vt 0.828125 0.386719
vt 0.843750 0.386719
vt 0.843750 0.429688
vt 0.828125 0.429688
vt 0.828125 0.386719
vt 0.828125 0.410156
vt 0.828125 0.378906
vt 0.843750 0.390625
vt 0.843750 0.433594
vt 0.843750 0.410156
vt 0.843750 0.445312
vt 0.828125 0.429688
vt 0.828125 0.386719
vt 0.828125 0.433594
vt 0.828125 0.390625
vt 0.843750 0.378906
vt 0.843750 0.386719
vt 0.843750 0.429688
vt 0.828125 0.445312
vt 0.843750 0.390625
vt 0.843750 0.429688
vt 0.828125 0.429688
vt 0.828125 0.390625
vt 0.843750 0.390625
vt 0.843750 0.429688
vt 0.828125 0.429688
vt 0.828125 0.386719
vt 0.843750 0.390625
vt 0.843750 0.429688
vt 0.828125 0.429688
vt 0.828125 0.390625
vt 0.843750 0.386719
vt 0.843750 0.429688
vt 0.828125 0.429688
vt 0.828125 0.390625
vt 0.828125 0.410156
vt 0.828125 0.378906
vt 0.843750 0.390625
vt 0.843750 0.429688
vt 0.843750 0.410156
vt 0.843750 0.445312
vt 0.828125 0.429688
vt 0.828125 0.386719
vt 0.828125 0.429688
vt 0.828125 0.390625
vt 0.843750 0.378906
vt 0.843750 0.386719
vt 0.843750 0.429688
vt 0.828125 0.445312
vt 0.843750 0.503906
vt 0.828125 0.503906
vt 0.828125 0.492188
vt 0.843750 0.492188
vt 0.859375 0.472656
vt 0.882812 0.472656
vt 0.867188 0.484375
vt 0.882812 0.472656
vt 0.859375 0.472656
vt 0.867188 0.484375
vt 0.851562 0.484375
vt 0.867188 0.503906
vt 0.867188 0.503906
vt 0.859375 0.402344
vt 0.882812 0.402344
vt 0.859375 0.421875
vt 0.890625 0.484375
vt 0.882812 0.402344
vt 0.859375 0.421875
vt 0.859375 0.402344
vt 0.843750 0.328125
vt 0.843750 0.492188
vt 0.828125 0.492188
vt 0.828125 0.328125
vt 0.843750 0.328125
vt 0.843750 0.492188
vt 0.828125 0.492188
vt 0.828125 0.328125
vt 0.843750 0.328125
vt 0.843750 0.492188
vt 0.828125 0.492188
vt 0.828125 0.328125
vt 0.843750 0.328125
vt 0.843750 0.492188
vt 0.828125 0.492188
vt 0.828125 0.328125
vt 0.843750 0.503906
vt 0.828125 0.503906
vt 0.828125 0.492188
vt 0.843750 0.492188
vt 0.859375 0.472656
vt 0.882812 0.472656
vt 0.867188 0.484375
vt 0.882812 0.472656
vt 0.859375 0.472656
vt 0.867188 0.484375
vt 0.851562 0.484375
vt 0.867188 0.503906
vt 0.867188 0.503906
vt 0.859375 0.402344
vt 0.882812 0.402344
vt 0.859375 0.421875
vt 0.890625 0.484375
vt 0.882812 0.402344
vt 0.859375 0.421875
vt 0.859375 0.402344
vt 0.843750 0.328125
vt 0.843750 0.492188
vt 0.828125 0.492188
vt 0.828125 0.328125
vt 0.843750 0.328125
vt 0.843750 0.492188
vt 0.828125 0.492188
vt 0.828125 0.328125
vt 0.843750 0.328125
vt 0.843750 0.492188
vt 0.828125 0.492188
vt 0.828125 0.328125
vt 0.843750 0.328125
vt 0.843750 0.492188
vt 0.828125 0.492188
vt 0.828125 0.328125
vt 0.843750 0.429688
vt 0.843750 0.488281
vt 0.828125 0.488281
vt 0.828125 0.445312
vt 0.828125 0.390625
vt 0.828125 0.339844
vt 0.843750 0.332031
vt 0.843750 0.378906
vt 0.843750 0.445312
vt 0.843750 0.488281
vt 0.828125 0.488281
vt 0.828125 0.429688
vt 0.828125 0.378906
vt 0.828125 0.332031
vt 0.843750 0.339844
vt 0.843750 0.390625
vt 0.828125 0.472656
vt 0.828125 0.410156
vt 0.843750 0.433594
vt 0.843750 0.476562
vt 0.843750 0.351562
vt 0.843750 0.410156
vt 0.828125 0.386719
vt 0.828125 0.343750
vt 0.828125 0.476562
vt 0.828125 0.433594
vt 0.843750 0.472656
vt 0.843750 0.343750
vt 0.843750 0.386719
vt 0.828125 0.351562
vt 0.828125 0.410156
vt 0.828125 0.378906
vt 0.843750 0.390625
vt 0.843750 0.433594
vt 0.843750 0.410156
vt 0.843750 0.445312
vt 0.828125 0.429688
vt 0.828125 0.386719
vt 0.828125 0.433594
vt 0.828125 0.390625
vt 0.843750 0.378906
vt 0.843750 0.386719
vt 0.843750 0.429688
vt 0.828125 0.445312
vt 0.828125 0.410156
vt 0.828125 0.378906
vt 0.843750 0.390625
vt 0.843750 0.429688
vt 0.843750 0.410156
vt 0.843750 0.445312
vt 0.828125 0.429688
vt 0.828125 0.386719
vt 0.828125 0.429688
vt 0.828125 0.390625
vt 0.843750 0.378906
vt 0.843750 0.386719
vt 0.843750 0.429688
vt 0.828125 0.445312
vt 0.843750 0.429688
vt 0.843750 0.488281
vt 0.828125 0.488281
vt 0.828125 0.445312
vt 0.828125 0.390625
vt 0.828125 0.339844
vt 0.843750 0.332031
vt 0.843750 0.378906
vt 0.843750 0.445312
vt 0.843750 0.488281
vt 0.828125 0.488281
vt 0.828125 0.429688
vt 0.828125 0.378906
vt 0.828125 0.332031
vt 0.843750 0.339844
vt 0.843750 0.390625
vt 0.828125 0.472656
vt 0.828125 0.410156
vt 0.843750 0.433594
vt 0.843750 0.476562
vt 0.843750 0.351562
vt 0.843750 0.410156
vt 0.828125 0.386719
vt 0.828125 0.343750
vt 0.828125 0.476562
vt 0.828125 0.433594
vt 0.843750 0.472656
vt 0.843750 0.343750
vt 0.843750 0.386719
vt 0.828125 0.351562
vt 0.828125 0.410156
vt 0.828125 0.378906
vt 0.843750 0.390625
vt 0.843750 0.433594
vt 0.843750 0.410156
vt 0.843750 0.445312
vt 0.828125 0.429688
vt 0.828125 0.386719
vt 0.828125 0.433594
vt 0.828125 0.390625
vt 0.843750 0.378906
vt 0.843750 0.386719
vt 0.843750 0.429688
vt 0.828125 0.445312
vt 0.828125 0.410156
vt 0.828125 0.378906
vt 0.843750 0.390625
vt 0.843750 0.429688
vt 0.843750 0.410156
vt 0.843750 0.445312
vt 0.828125 0.429688
vt 0.828125 0.386719
vt 0.828125 0.429688
vt 0.828125 0.390625
vt 0.843750 0.378906
vt 0.843750 0.386719
vt 0.843750 0.429688
vt 0.828125 0.445312
vt 0.828125 0.503906
vt 0.828125 0.492188
vt 0.843750 0.492188
vt 0.843750 0.503906
vt 0.843750 0.492188
vt 0.843750 0.503906
vt 0.828125 0.503906
vt 0.828125 0.492188
vt 0.828125 0.503906
vt 0.828125 0.492188
vt 0.843750 0.492188
vt 0.843750 0.503906
vt 0.828125 0.492188
vt 0.843750 0.492188
vt 0.843750 0.503906
vt 0.828125 0.503906
vt 0.828125 0.492188
vt 0.843750 0.492188
vt 0.843750 0.503906
vt 0.828125 0.503906
vn 0.3775 -0.0000 0.9260
vn 0.2476 -0.0000 0.9689
vn 0.2070 -0.5488 0.8099
vn 0.3122 -0.5583 0.7687
vn -0.3801 0.0000 -0.9250
vn -0.2477 0.0000 -0.9688
vn -0.2064 0.5528 -0.8073
vn -0.3127 0.5606 -0.7668
vn 0.3122 0.5583 0.7687
vn 0.2070 0.5488 0.8099
vn 0.3778 -0.0000 0.9259
vn 0.2477 -0.0000 0.9688
vn 0.2071 -0.5487 0.8100
vn 0.3121 -0.5584 0.7686
vn -0.3806 -0.0000 -0.9247
vn -0.2478 -0.0000 -0.9688
vn -0.2064 0.5530 -0.8072
vn -0.3125 0.5601 -0.7672
vn 0.3121 0.5584 0.7686
vn 0.2071 0.5487 0.8100
vn -0.2515 0.0806 -0.9645
vn -0.3670 0.2293 -0.9015
vn -0.1199 0.2293 -0.9659
vn 0.2515 0.0806 0.9645
vn 0.1199 0.2293 0.9659
vn -0.9669 0.0407 0.2521
vn -0.3142 -0.6779 0.6646
vn -0.5987 -0.6779 -0.4266
vn 0.3142 -0.6779 -0.6646
vn 0.9669 0.0407 -0.2521
vn 0.5987 -0.6779 0.4266
vn 0.3670 0.2293 0.9015
vn -0.0641 -0.6779 -0.7323
vn 0.7321 -0.6779 0.0663
vn 0.0641 -0.6779 0.7323
vn -0.7321 -0.6779 -0.0663
vn 0.7038 0.0806 0.7058
vn -0.7038 0.0806 -0.7058
vn -0.7076 0.0407 0.7055
vn -0.7717 0.2293 -0.5932
vn 0.7717 0.2293 0.5932
vn 0.5909 0.2293 0.7735
vn 0.7076 0.0407 -0.7055
vn -0.5909 0.2293 -0.7735
vn -0.5012 0.0806 -0.8616
vn -0.5955 0.2293 -0.7699
vn -0.3748 0.2293 -0.8983
vn 0.5012 0.0806 0.8616
vn 0.3748 0.2293 0.8983
vn -0.8637 0.0407 0.5024
vn -0.1242 -0.6779 0.7245
vn -0.6912 -0.6779 -0.2502
vn 0.1242 -0.6779 -0.7245
vn 0.8637 0.0407 -0.5024
vn 0.6912 -0.6779 0.2502
vn 0.5955 0.2293 0.7699
vn -0.7901 -0.5774 0.2060
vn -0.9677 0.0000 0.2523
vn -0.8626 0.0000 -0.5058
vn -0.2060 -0.5774 -0.7901
vn 0.5058 0.0000 -0.8626
vn 0.7901 -0.5774 -0.2060
vn 0.8626 0.0000 0.5058
vn 0.2523 0.0000 0.9677
vn 0.2060 -0.5773 0.7901
vn -0.6836 -0.7071 -0.1808
vn -0.9668 0.0000 -0.2557
vn -0.4105 -0.5774 -0.7058
vn 0.2557 0.0000 -0.9668
vn 0.8644 0.0000 -0.5028
vn 0.7058 -0.5774 -0.4105
vn 0.5028 0.0000 0.8644
vn 0.4105 -0.5774 0.7058
vn -0.2557 0.0000 0.9668
vn -0.5782 -0.5774 0.5765
vn -1.0000 0.0000 -0.0015
vn -0.5765 -0.5774 -0.5782
vn 0.0015 0.0000 -1.0000
vn 0.7081 0.0000 -0.7061
vn 0.5782 -0.5774 -0.5765
vn 1.0000 0.0000 0.0015
vn 0.5765 -0.5774 0.5782
vn -0.0015 0.0000 1.0000
vn -0.3125 -0.5601 -0.7672
vn -0.2064 -0.5530 -0.8072
vn -0.3127 -0.5606 -0.7668
vn -0.2064 -0.5528 -0.8073
vn -0.6661 -0.5475 -0.5066
vn -0.5079 -0.5550 -0.6588
vn -0.6111 -0.0000 -0.7915
vn -0.7957 -0.0000 -0.6057
vn 0.6611 0.5568 0.5029
vn 0.5062 0.5611 0.6549
vn 0.6131 -0.0000 0.7900
vn 0.7960 -0.0000 0.6054
vn -0.5079 0.5550 -0.6588
vn -0.6661 0.5475 -0.5066
vn 0.5062 -0.5611 0.6549
vn 0.6611 -0.5568 0.5029
vn -0.6653 -0.5492 -0.5058
vn -0.5077 -0.5564 -0.6577
vn -0.6104 -0.0000 -0.7921
vn -0.7956 0.0000 -0.6059
vn 0.6614 0.5563 0.5031
vn 0.5065 0.5606 0.6551
vn 0.6128 -0.0000 0.7902
vn 0.7959 -0.0000 0.6054
vn -0.5077 0.5564 -0.6577
vn -0.6653 0.5492 -0.5058
vn 0.5065 -0.5606 0.6551
vn 0.6614 -0.5563 0.5031
vn -0.7685 -0.5576 -0.3136
vn -0.9263 -0.0000 -0.3768
vn 0.7602 0.5685 0.3144
vn 0.9249 -0.0000 0.3803
vn -0.7685 0.5576 -0.3136
vn 0.7602 -0.5686 0.3144
vn -0.7676 -0.5595 -0.3127
vn -0.9260 0.0000 -0.3776
vn 0.7606 0.5680 0.3144
vn 0.9248 -0.0000 0.3805
vn -0.7676 0.5595 -0.3127
vn 0.7606 -0.5680 0.3144
vn -0.7983 -0.5645 -0.2098
vn -0.9672 -0.0000 -0.2542
vn 0.7898 0.5772 0.2075
vn 0.9672 -0.0000 0.2541
vn -0.7983 0.5645 -0.2098
vn 0.7898 -0.5772 0.2075
vn -0.7968 -0.5667 -0.2095
vn -0.9671 0.0000 -0.2543
vn 0.7903 0.5764 0.2077
vn -0.7968 0.5667 -0.2095
vn 0.7903 -0.5764 0.2077
vn -0.2574 -0.6779 -0.6886
vn 0.7232 -0.6779 -0.1317
vn 0.2574 -0.6779 0.6886
vn -0.7232 -0.6779 0.1317
vn 0.8667 0.0806 0.4922
vn -0.8667 0.0806 -0.4922
vn -0.4934 0.0407 0.8689
vn -0.9021 0.2293 -0.3655
vn 0.9021 0.2293 0.3655
vn 0.7760 0.2293 0.5875
vn 0.4934 0.0407 -0.8689
vn -0.7760 0.2293 -0.5875
vn -0.6817 -0.7071 0.1879
vn -0.9641 0.0000 0.2657
vn -0.8696 0.0000 -0.4938
vn -0.7100 -0.5774 -0.4032
vn -0.2657 0.0000 -0.9641
vn 0.4032 -0.5774 -0.7100
vn 0.9641 0.0000 -0.2657
vn 0.8696 0.0000 0.4938
vn 0.7100 -0.5774 0.4032
vn 0.2657 0.0000 0.9641
vn -0.4272 -0.6779 -0.5983
vn 0.6643 -0.6779 -0.3148
vn 0.4272 -0.6779 0.5983
vn -0.6643 -0.6779 0.3148
vn 0.9647 0.0806 0.2506
vn -0.9647 0.0806 -0.2506
vn -0.2512 0.0407 0.9671
vn -0.9660 0.2293 -0.1190
vn 0.9660 0.2293 0.1190
vn 0.9019 0.2293 0.3662
vn 0.2512 0.0407 -0.9671
vn -0.9019 0.2293 -0.3662
vn -0.2053 -0.5773 0.7903
vn -0.8622 0.0000 0.5066
vn -0.9679 0.0000 -0.2514
vn -0.7903 -0.5774 -0.2053
vn 0.2514 0.0000 -0.9679
vn 0.2053 -0.5774 -0.7903
vn 0.8622 0.0000 -0.5066
vn 0.7903 -0.5774 0.2053
vn 0.5066 0.0000 0.8622
usemtl Material.001
s 1
f 85/1/1 4/2/2 6/3/3 83/4/4
f 86/5/5 70/6/6 5/7/7 84/8/8
f 84/9/9 5/10/10 4/11/2 85/12/1
f 81/13/11 10/14/12 12/15/13 79/16/14
f 82/17/15 68/18/16 11/19/17 80/20/18
f 80/21/19 11/22/20 10/23/12 81/24/11
f 22/25/21 14/26/22 17/27/23
f 21/28/24 14/26/25 19/29/26
f 13/30/27 19/31/26 15/32/28
f 13/33/27 21/28/24 19/29/26
f 18/34/29 22/25/21 20/35/30
f 20/35/30 22/25/21 17/27/23
f 15/36/28 19/29/26 22/25/21
f 16/37/31 20/35/30 21/28/24
f 20/35/30 17/27/32 21/28/24
f 16/38/31 18/39/29 20/40/30
f 17/27/32 14/26/25 21/28/24
f 19/29/26 14/26/22 22/25/21
f 18/34/29 15/36/28 22/25/21
f 13/33/27 16/37/31 21/28/24
f 18/41/29 16/42/31 13/43/27 15/44/28
f 27/45/33 29/46/34 32/47/35 30/48/36
f 32/49/35 29/50/34 24/51/37
f 27/52/33 30/53/36 23/54/38
f 26/55/39 31/56/40 23/54/38
f 28/57/41 31/56/42 24/51/37
f 29/58/34 27/59/33 25/60/43
f 25/61/43 28/57/41 24/51/37
f 29/50/34 25/61/43 24/51/37
f 30/53/36 26/55/39 23/54/38
f 25/61/43 23/54/38 28/57/44
f 27/52/33 23/54/38 25/61/43
f 32/49/35 24/51/37 26/55/39
f 32/62/35 26/63/39 30/64/36
f 24/51/37 31/56/42 26/55/39
f 23/54/38 31/56/40 28/57/44
f 42/65/45 34/66/46 37/67/47
f 41/68/48 34/66/49 39/69/50
f 33/70/51 39/71/50 35/72/52
f 33/73/51 41/68/48 39/69/50
f 38/74/53 42/65/45 40/75/54
f 40/75/54 42/65/45 37/67/47
f 35/76/52 39/69/50 42/65/45
f 36/77/55 40/75/54 41/68/48
f 40/75/54 37/67/56 41/68/48
f 36/78/55 38/79/53 40/80/54
f 37/67/56 34/66/49 41/68/48
f 39/69/50 34/66/46 42/65/45
f 38/74/53 35/76/52 42/65/45
f 33/73/51 36/77/55 41/68/48
f 38/81/53 36/82/55 33/83/51 35/84/52
f 43/85/57 44/86/58 46/87/59 45/88/60
f 45/89/60 46/90/61 50/91/61 49/92/62
f 49/93/62 50/94/63 48/95/64 47/96/65
f 47/97/65 48/98/64 44/99/58 43/100/57
f 51/101/66 52/102/67 54/103/67 53/104/68
f 53/105/68 54/106/69 58/107/70 57/108/71
f 57/109/71 58/110/70 56/111/72 55/112/73
f 55/113/73 56/114/72 52/115/74 51/116/74
f 59/117/75 60/118/76 62/119/76 61/120/77
f 61/121/77 62/122/78 66/123/79 65/124/80
f 65/125/80 66/126/79 64/127/81 63/128/82
f 63/129/82 64/130/83 60/131/83 59/132/75
f 79/133/84 12/134/85 68/135/16 82/136/15
f 83/137/86 6/138/87 70/139/6 86/140/5
f 9/141/88 71/142/89 74/143/90 67/144/91
f 8/145/92 73/146/93 72/147/94 7/148/95
f 67/149/91 74/150/90 73/151/96 8/152/97
f 7/153/95 72/154/94 71/155/98 9/156/99
f 3/157/100 75/158/101 78/159/102 69/160/103
f 2/161/104 77/162/105 76/163/106 1/164/107
f 69/165/103 78/166/102 77/162/108 2/167/109
f 1/168/107 76/169/106 75/158/110 3/170/111
f 71/142/89 79/133/84 82/136/15 74/143/90
f 73/146/93 80/21/19 81/24/11 72/147/94
f 74/150/90 82/17/15 80/20/18 73/151/96
f 72/154/94 81/13/11 79/16/14 71/155/98
f 75/158/101 83/137/86 86/140/5 78/159/102
f 77/162/105 84/9/9 85/12/1 76/163/106
f 78/166/102 86/5/5 84/8/8 77/162/108
f 76/169/106 85/1/1 83/4/4 75/158/110
f 87/171/112 9/172/88 67/173/91 90/174/113
f 89/175/114 8/176/92 7/177/95 88/178/115
f 90/179/113 67/180/91 8/181/97 89/182/116
f 88/183/115 7/184/95 9/185/99 87/186/117
f 91/187/118 3/188/100 69/189/103 94/190/119
f 93/191/120 2/192/104 1/193/107 92/194/121
f 94/195/119 69/196/103 2/197/109 93/191/122
f 92/198/121 1/199/107 3/200/111 91/187/123
f 95/201/124 87/202/112 90/203/113 98/204/125
f 97/205/126 89/206/114 88/207/115 96/208/127
f 98/209/125 90/210/113 89/211/116 97/212/128
f 96/213/127 88/214/115 87/215/117 95/216/129
f 99/217/130 91/218/118 94/219/119 102/220/131
f 101/221/132 93/222/120 92/223/121 100/224/127
f 102/225/131 94/226/119 93/227/122 101/221/133
f 100/228/127 92/229/121 91/230/123 99/217/134
f 107/231/135 109/232/136 112/233/137 110/234/138
f 112/235/137 109/236/136 104/237/139
f 107/238/135 110/239/138 103/240/140
f 106/241/141 111/242/142 103/240/140
f 108/243/143 111/242/144 104/237/139
f 109/244/136 107/245/135 105/246/145
f 105/247/145 108/243/143 104/237/139
f 109/236/136 105/247/145 104/237/139
f 110/239/138 106/241/141 103/240/140
f 105/247/145 103/240/140 108/243/146
f 107/238/135 103/240/140 105/247/145
f 112/235/137 104/237/139 106/241/141
f 112/248/137 106/249/141 110/250/138
f 104/237/139 111/242/144 106/241/141
f 103/240/140 111/242/142 108/243/146
f 113/251/147 114/252/148 116/253/149 115/254/150
f 115/255/150 116/256/149 120/257/151 119/258/152
f 119/259/152 120/260/153 118/261/154 117/262/155
f 117/263/155 118/264/154 114/265/156 113/266/156
f 125/267/157 127/268/158 130/269/159 128/270/160
f 130/271/159 127/272/158 122/273/161
f 125/274/157 128/275/160 121/276/162
f 124/277/163 129/278/164 121/276/162
f 126/279/165 129/278/166 122/273/161
f 127/280/158 125/281/157 123/282/167
f 123/283/167 126/279/165 122/273/161
f 127/272/158 123/283/167 122/273/161
f 128/275/160 124/277/163 121/276/162
f 123/283/167 121/276/162 126/279/168
f 125/274/157 121/276/162 123/283/167
f 130/271/159 122/273/161 124/277/163
f 130/284/159 124/285/163 128/286/160
f 122/273/161 129/278/166 124/277/163
f 121/276/162 129/278/164 126/279/168
f 131/287/169 132/288/170 134/289/171 133/290/172
f 133/291/172 134/292/171 138/293/173 137/294/174
f 137/295/174 138/296/173 136/297/175 135/298/176
f 135/299/176 136/300/177 132/301/177 131/302/169
f 153/303/1 142/304/2 144/305/3 151/306/4
f 154/307/5 146/308/6 143/309/7 152/310/8
f 152/311/9 143/312/10 142/313/2 153/314/1
f 151/315/86 144/316/87 146/317/6 154/318/5
f 141/319/100 147/320/101 150/321/102 145/322/103
f 140/323/104 149/324/105 148/325/106 139/326/107
f 145/327/103 150/328/102 149/324/108 140/329/109
f 139/330/107 148/331/106 147/320/110 141/332/111
f 147/320/101 151/315/86 154/318/5 150/321/102
f 149/324/105 152/311/9 153/314/1 148/325/106
f 150/328/102 154/307/5 152/310/8 149/324/108
f 148/331/106 153/303/1 151/306/4 147/320/110
f 155/333/118 141/334/100 145/335/103 158/336/119
f 157/337/120 140/338/104 139/339/107 156/340/121
f 158/341/119 145/342/103 140/343/109 157/337/122
f 156/344/121 139/345/107 141/346/111 155/333/123
f 159/347/130 155/348/118 158/349/119 162/350/131
f 161/351/132 157/352/120 156/353/121 160/354/127
f 162/355/131 158/356/119 157/357/122 161/351/133
f 160/358/127 156/359/121 155/360/123 159/347/134
f 177/361/1 166/362/2 168/363/3 175/364/4
f 178/365/5 170/366/6 167/367/7 176/368/8
f 176/369/9 167/370/10 166/371/2 177/372/1
f 175/373/86 168/374/87 170/375/6 178/376/5
f 165/377/100 171/378/101 174/379/102 169/380/103
f 164/381/104 173/382/105 172/383/106 163/384/107
f 169/385/103 174/386/102 173/382/108 164/387/109
f 163/388/107 172/389/106 171/378/110 165/390/111
f 171/378/101 175/373/86 178/376/5 174/379/102
f 173/382/105 176/369/9 177/372/1 172/383/106
f 174/386/102 178/365/5 176/368/8 173/382/108
f 172/389/106 177/361/1 175/364/4 171/378/110
f 179/391/118 165/392/100 169/393/103 182/394/119
f 181/395/120 164/396/104 163/397/107 180/398/121
f 182/399/119 169/400/103 164/401/109 181/395/122
f 180/402/121 163/403/107 165/404/111 179/391/123
f 183/405/130 179/406/118 182/407/119 186/408/131
f 185/409/132 181/410/120 180/411/121 184/412/127
f 186/413/131 182/414/119 181/415/122 185/409/133
f 184/416/127 180/417/121 179/418/123 183/405/134
f 45/419/60 49/420/62 47/421/65 43/422/57
f 53/423/68 57/424/71 55/425/73 51/426/66
f 61/427/77 65/428/80 63/429/82 59/430/75
f 113/431/147 115/432/150 119/433/152 117/434/155
f 131/435/169 133/436/172 137/437/174 135/438/176
