# Blender v2.93.5 OBJ File: 'Modular Graveyard.blend'
# www.blender.org
mtllib CTallRailing.mtl
o CTallRailing_Circle.020
v -0.629854 0.359044 -0.181015
v -0.619227 0.386982 -0.194977
v -0.619227 0.331107 -0.194977
v -1.018712 0.359044 -0.851626
v -0.999605 0.386982 -0.851914
v -0.999605 0.331107 -0.851914
v -0.629848 2.259179 -0.180998
v -0.619230 2.287116 -0.194985
v -0.619230 2.231242 -0.194985
v -1.018708 2.259179 -0.851612
v -0.999601 2.287116 -0.851901
v -0.999601 2.231242 -0.851901
v -1.007629 2.394374 -0.757418
v -0.973026 2.700411 -0.746910
v -0.947958 2.394374 -0.772975
v -0.991355 2.394374 -0.694997
v -0.966287 2.700411 -0.721062
v -0.931684 2.394374 -0.710554
v -0.988288 2.477450 -0.805450
v -0.951025 2.477450 -0.662522
v -1.020071 2.488603 -0.720842
v -0.919242 2.488603 -0.747130
v -0.674987 2.488603 -0.322393
v -0.748776 2.488603 -0.248820
v -0.659736 2.477450 -0.233308
v -0.764027 2.477450 -0.337905
v -0.667274 2.394374 -0.284536
v -0.702451 2.700411 -0.276149
v -0.710942 2.394374 -0.240996
v -0.712821 2.394374 -0.330217
v -0.721312 2.700411 -0.295065
v -0.756489 2.394374 -0.286677
v -0.914248 2.394374 -0.505815
v -0.878094 2.700411 -0.504982
v -0.860945 2.394374 -0.536821
v -0.881813 2.394374 -0.450054
v -0.864663 2.700411 -0.481893
v -0.828510 2.394374 -0.481061
v -0.908513 2.477450 -0.557276
v -0.834245 2.477450 -0.429600
v -0.916414 2.488603 -0.467241
v -0.826344 2.488603 -0.519634
v -0.977252 0.055746 -0.763543
v -0.977252 2.401156 -0.763543
v -0.940174 0.055746 -0.741800
v -0.940174 2.401156 -0.741800
v -0.998995 0.055746 -0.726464
v -0.998995 2.401156 -0.726464
v -0.961916 0.055746 -0.704722
v -0.961916 2.401156 -0.704722
v -0.886534 0.055746 -0.519703
v -0.886534 2.401156 -0.519703
v -0.844979 0.055746 -0.508714
v -0.844979 2.401156 -0.508714
v -0.897524 0.055746 -0.478149
v -0.897524 2.401156 -0.478149
v -0.855969 0.055746 -0.467159
v -0.855969 2.401156 -0.467159
v -0.733295 0.055746 -0.307234
v -0.733295 2.401156 -0.307234
v -0.690312 0.055746 -0.307171
v -0.690312 2.401156 -0.307171
v -0.733358 0.055746 -0.264251
v -0.733358 2.401156 -0.264251
v -0.690375 0.055746 -0.264188
v -0.690375 2.401156 -0.264188
v -0.608843 2.259179 -0.208771
v -0.980643 2.259179 -0.851508
v -0.608870 0.359044 -0.208850
v -0.980655 0.359045 -0.851545
v -0.805482 2.231242 -0.380011
v -0.820994 2.259179 -0.367520
v -0.805482 2.287116 -0.380011
v -0.790122 2.259179 -0.391653
v -0.805471 0.331107 -0.379978
v -0.821018 0.359044 -0.367594
v -0.805471 0.386982 -0.379978
v -0.790215 0.359044 -0.391930
v -0.937036 2.231242 -0.606172
v -0.937036 2.287116 -0.606172
v -0.953864 2.259179 -0.598961
v -0.919286 2.259179 -0.612698
v -0.937085 0.331107 -0.606331
v -0.937085 0.386982 -0.606331
v -0.953935 0.359044 -0.599182
v -0.919396 0.359044 -0.613037
v -0.391777 2.231242 -0.065141
v -0.398956 2.259179 -0.046565
v -0.391777 2.287116 -0.065141
v -0.384305 2.259179 -0.082907
v -0.391751 0.331107 -0.065118
v -0.399014 0.359044 -0.046616
v -0.391751 0.386982 -0.065118
v -0.384524 0.359044 -0.083101
v -0.147296 2.231242 -0.000861
v -0.147231 2.259179 0.019523
v -0.147296 2.287116 -0.000861
v -0.146985 2.259179 -0.020564
v -0.147266 0.331107 -0.000846
v -0.147300 0.359044 0.019488
v -0.147266 0.386982 -0.000846
v -0.147245 0.359044 -0.020697
v -0.478782 2.488603 -0.175473
v -0.530236 2.488603 -0.084863
v -0.440288 2.477450 -0.093699
v -0.568729 2.477450 -0.166637
v -0.461236 2.394374 -0.141052
v -0.492895 2.700411 -0.123573
v -0.491687 2.394374 -0.087430
v -0.517331 2.394374 -0.172907
v -0.516123 2.700411 -0.136763
v -0.547781 2.394374 -0.119284
v -0.530921 0.055746 -0.145290
v -0.530921 2.401156 -0.145290
v -0.489483 0.055746 -0.156711
v -0.489483 2.401156 -0.156711
v -0.519500 0.055746 -0.103851
v -0.519500 2.401156 -0.103851
v -0.478062 0.055746 -0.115272
v -0.478062 2.401156 -0.115272
v -0.255607 2.488603 -0.083554
v -0.281803 2.488603 0.017299
v -0.197224 2.477450 -0.014561
v -0.340186 2.477450 -0.051695
v -0.229735 2.394374 -0.054861
v -0.255778 2.700411 -0.029770
v -0.245238 2.394374 0.004824
v -0.292172 2.394374 -0.071079
v -0.281632 2.700411 -0.036485
v -0.307674 2.394374 -0.011394
v -0.298135 0.055746 -0.040882
v -0.298135 2.401156 -0.040882
v -0.261076 0.055746 -0.062659
v -0.261076 2.401156 -0.062659
v -0.276358 0.055746 -0.003824
v -0.276358 2.401156 -0.003824
v -0.239300 0.055746 -0.025600
v -0.239300 2.401156 -0.025600
v -0.629854 0.181307 -0.181015
v -0.619227 0.209244 -0.194977
v -0.619227 0.153370 -0.194977
v -1.018712 0.181307 -0.851626
v -0.999605 0.209244 -0.851914
v -0.999605 0.153370 -0.851914
v -0.608870 0.181307 -0.208850
v -0.980655 0.181307 -0.851545
v -0.805471 0.153370 -0.379978
v -0.821018 0.181307 -0.367594
v -0.805471 0.209244 -0.379978
v -0.790215 0.181307 -0.391930
v -0.937085 0.153370 -0.606331
v -0.937085 0.209244 -0.606331
v -0.953935 0.181307 -0.599182
v -0.919396 0.181307 -0.613037
v -0.391751 0.153370 -0.065118
v -0.399014 0.181307 -0.046616
v -0.391751 0.209244 -0.065118
v -0.384524 0.181307 -0.083101
v -0.147266 0.153370 -0.000846
v -0.147300 0.181307 0.019488
v -0.147266 0.209244 -0.000846
v -0.147245 0.181307 -0.020697
v -0.629854 2.059008 -0.181015
v -0.619227 2.086945 -0.194977
v -0.619227 2.031071 -0.194977
v -1.018712 2.059008 -0.851626
v -0.999605 2.086945 -0.851914
v -0.999605 2.031071 -0.851914
v -0.608870 2.059008 -0.208850
v -0.980655 2.059008 -0.851545
v -0.805471 2.031071 -0.379978
v -0.821018 2.059008 -0.367594
v -0.805471 2.086945 -0.379978
v -0.790215 2.059008 -0.391930
v -0.937085 2.031071 -0.606331
v -0.937085 2.086945 -0.606331
v -0.953935 2.059008 -0.599182
v -0.919396 2.059008 -0.613037
v -0.391751 2.031071 -0.065118
v -0.399014 2.059008 -0.046616
v -0.391751 2.086945 -0.065118
v -0.384524 2.059008 -0.083101
v -0.147266 2.031071 -0.000846
v -0.147300 2.059008 0.019488
v -0.147266 2.086945 -0.000846
v -0.147245 2.059008 -0.020697
v 0.629854 0.359044 -0.181015
v 0.619227 0.386982 -0.194977
v 0.619227 0.331107 -0.194977
v 1.018712 0.359044 -0.851626
v 0.999605 0.386982 -0.851914
v 0.999605 0.331107 -0.851914
v 0.629848 2.259179 -0.180998
v 0.619230 2.287116 -0.194985
v 0.619230 2.231242 -0.194985
v 1.018708 2.259179 -0.851612
v 0.999601 2.287116 -0.851901
v 0.999601 2.231242 -0.851901
v 1.007629 2.394374 -0.757418
v 0.973026 2.700411 -0.746910
v 0.947958 2.394374 -0.772975
v 0.991355 2.394374 -0.694997
v 0.966287 2.700411 -0.721062
v 0.931684 2.394374 -0.710554
v 0.988288 2.477450 -0.805450
v 0.951025 2.477450 -0.662522
v 1.020071 2.488603 -0.720842
v 0.919242 2.488603 -0.747130
v 0.674987 2.488603 -0.322393
v 0.748776 2.488603 -0.248820
v 0.659736 2.477450 -0.233308
v 0.764027 2.477450 -0.337905
v 0.667274 2.394374 -0.284536
v 0.702451 2.700411 -0.276149
v 0.710942 2.394374 -0.240996
v 0.712821 2.394374 -0.330217
v 0.721312 2.700411 -0.295065
v 0.756489 2.394374 -0.286677
v 0.914248 2.394374 -0.505815
v 0.878094 2.700411 -0.504982
v 0.860945 2.394374 -0.536821
v 0.881813 2.394374 -0.450054
v 0.864663 2.700411 -0.481893
v 0.828510 2.394374 -0.481061
v 0.908513 2.477450 -0.557276
v 0.834245 2.477450 -0.429600
v 0.916414 2.488603 -0.467241
v 0.826344 2.488603 -0.519634
v 0.977252 0.055746 -0.763543
v 0.977252 2.401156 -0.763543
v 0.940174 0.055746 -0.741800
v 0.940174 2.401156 -0.741800
v 0.998995 0.055746 -0.726464
v 0.998995 2.401156 -0.726464
v 0.961916 0.055746 -0.704722
v 0.961916 2.401156 -0.704722
v 0.886534 0.055746 -0.519703
v 0.886534 2.401156 -0.519703
v 0.844979 0.055746 -0.508714
v 0.844979 2.401156 -0.508714
v 0.897524 0.055746 -0.478149
v 0.897524 2.401156 -0.478149
v 0.855969 0.055746 -0.467159
v 0.855969 2.401156 -0.467159
v 0.733295 0.055746 -0.307234
v 0.733295 2.401156 -0.307234
v 0.690312 0.055746 -0.307171
v 0.690312 2.401156 -0.307171
v 0.733358 0.055746 -0.264251
v 0.733358 2.401156 -0.264251
v 0.690375 0.055746 -0.264188
v 0.690375 2.401156 -0.264188
v 0.608843 2.259179 -0.208771
v 0.980643 2.259179 -0.851508
v 0.608870 0.359044 -0.208850
v 0.980655 0.359045 -0.851545
v 0.805482 2.231242 -0.380011
v 0.820994 2.259179 -0.367520
v 0.805482 2.287116 -0.380011
v 0.790122 2.259179 -0.391653
v 0.805471 0.331107 -0.379978
v 0.821018 0.359044 -0.367594
v 0.805471 0.386982 -0.379978
v 0.790215 0.359044 -0.391930
v 0.937036 2.231242 -0.606172
v 0.937036 2.287116 -0.606172
v 0.953864 2.259179 -0.598961
v 0.919286 2.259179 -0.612698
v 0.937085 0.331107 -0.606331
v 0.937085 0.386982 -0.606331
v 0.953935 0.359044 -0.599182
v 0.919396 0.359044 -0.613037
v 0.391777 2.231242 -0.065141
v 0.398956 2.259179 -0.046565
v 0.391777 2.287116 -0.065141
v 0.384305 2.259179 -0.082907
v 0.391751 0.331107 -0.065118
v 0.399014 0.359044 -0.046616
v 0.391751 0.386982 -0.065118
v 0.384524 0.359044 -0.083101
v 0.147296 2.231242 -0.000861
v 0.147231 2.259179 0.019523
v 0.147296 2.287116 -0.000861
v 0.146985 2.259179 -0.020564
v 0.147266 0.331107 -0.000846
v 0.147300 0.359044 0.019488
v 0.147266 0.386982 -0.000846
v 0.147245 0.359044 -0.020697
v 0.478782 2.488603 -0.175473
v 0.530236 2.488603 -0.084863
v 0.440288 2.477450 -0.093699
v 0.568729 2.477450 -0.166637
v 0.461236 2.394374 -0.141052
v 0.492895 2.700411 -0.123573
v 0.491687 2.394374 -0.087430
v 0.517331 2.394374 -0.172907
v 0.516123 2.700411 -0.136763
v 0.547781 2.394374 -0.119284
v 0.530921 0.055746 -0.145290
v 0.530921 2.401156 -0.145290
v 0.489483 0.055746 -0.156711
v 0.489483 2.401156 -0.156711
v 0.519500 0.055746 -0.103851
v 0.519500 2.401156 -0.103851
v 0.478062 0.055746 -0.115272
v 0.478062 2.401156 -0.115272
v 0.255607 2.488603 -0.083554
v 0.281803 2.488603 0.017299
v 0.197224 2.477450 -0.014561
v 0.340186 2.477450 -0.051695
v 0.229735 2.394374 -0.054861
v 0.255778 2.700411 -0.029770
v 0.245238 2.394374 0.004824
v 0.292172 2.394374 -0.071079
v 0.281632 2.700411 -0.036485
v 0.307674 2.394374 -0.011394
v 0.298135 0.055746 -0.040882
v 0.298135 2.401156 -0.040882
v 0.261076 0.055746 -0.062659
v 0.261076 2.401156 -0.062659
v 0.276358 0.055746 -0.003824
v 0.276358 2.401156 -0.003824
v 0.239300 0.055746 -0.025600
v 0.239300 2.401156 -0.025600
v 0.629854 0.181307 -0.181015
v 0.619227 0.209244 -0.194977
v 0.619227 0.153370 -0.194977
v 1.018712 0.181307 -0.851626
v 0.999605 0.209244 -0.851914
v 0.999605 0.153370 -0.851914
v 0.608870 0.181307 -0.208850
v 0.980655 0.181307 -0.851545
v 0.805471 0.153370 -0.379978
v 0.821018 0.181307 -0.367594
v 0.805471 0.209244 -0.379978
v 0.790215 0.181307 -0.391930
v 0.937085 0.153370 -0.606331
v 0.937085 0.209244 -0.606331
v 0.953935 0.181307 -0.599182
v 0.919396 0.181307 -0.613037
v 0.391751 0.153370 -0.065118
v 0.399014 0.181307 -0.046616
v 0.391751 0.209244 -0.065118
v 0.384524 0.181307 -0.083101
v 0.147266 0.153370 -0.000846
v 0.147300 0.181307 0.019488
v 0.147266 0.209244 -0.000846
v 0.147245 0.181307 -0.020697
v 0.629854 2.059008 -0.181015
v 0.619227 2.086945 -0.194977
v 0.619227 2.031071 -0.194977
v 1.018712 2.059008 -0.851626
v 0.999605 2.086945 -0.851914
v 0.999605 2.031071 -0.851914
v 0.608870 2.059008 -0.208850
v 0.980655 2.059008 -0.851545
v 0.805471 2.031071 -0.379978
v 0.821018 2.059008 -0.367594
v 0.805471 2.086945 -0.379978
v 0.790215 2.059008 -0.391930
v 0.937085 2.031071 -0.606331
v 0.937085 2.086945 -0.606331
v 0.953935 2.059008 -0.599182
v 0.919396 2.059008 -0.613037
v 0.391751 2.031071 -0.065118
v 0.399014 2.059008 -0.046616
v 0.391751 2.086945 -0.065118
v 0.384524 2.059008 -0.083101
v 0.147266 2.031071 -0.000846
v 0.147300 2.059008 0.019488
v 0.147266 2.086945 -0.000846
v 0.147245 2.059008 -0.020697
v -0.000094 2.488603 -0.053112
v -0.000068 2.488603 0.051089
v 0.073772 2.477450 -0.001030
v -0.073934 2.477450 -0.000993
v 0.032165 2.394374 -0.031852
v 0.013275 2.700411 -0.001015
v 0.032181 2.394374 0.029813
v -0.032343 2.394374 -0.031836
v -0.013437 2.700411 -0.001008
v -0.032327 2.394374 0.029829
v -0.030516 0.055746 -0.001111
v -0.030516 2.401156 -0.001111
v -0.000130 0.055746 -0.031512
v -0.000130 2.401156 -0.031512
v -0.000114 0.055746 0.029275
v -0.000114 2.401156 0.029275
v 0.030272 0.055746 -0.001126
v 0.030272 2.401156 -0.001126
vt 0.843750 0.429688
vt 0.843750 0.488281
vt 0.828125 0.488281
vt 0.828125 0.445312
vt 0.828125 0.390625
vt 0.828125 0.339844
vt 0.843750 0.332031
vt 0.843750 0.378906
vt 0.843750 0.445312
vt 0.843750 0.488281
vt 0.828125 0.488281
vt 0.828125 0.429688
vt 0.843750 0.429688
vt 0.843750 0.488281
vt 0.828125 0.488281
vt 0.828125 0.429688
vt 0.843750 0.429688
vt 0.843750 0.488281
vt 0.828125 0.488281
vt 0.828125 0.429688
vt 0.843750 0.429688
vt 0.843750 0.488281
vt 0.828125 0.488281
vt 0.828125 0.429688
vt 0.867188 0.484375
vt 0.867188 0.503906
vt 0.867188 0.503906
vt 0.867188 0.484375
vt 0.851562 0.484375
vt 0.882812 0.402344
vt 0.859375 0.421875
vt 0.859375 0.402344
vt 0.859375 0.472656
vt 0.882812 0.472656
vt 0.890625 0.484375
vt 0.859375 0.472656
vt 0.882812 0.472656
vt 0.859375 0.402344
vt 0.882812 0.402344
vt 0.859375 0.421875
vt 0.843750 0.503906
vt 0.828125 0.503906
vt 0.828125 0.492188
vt 0.843750 0.492188
vt 0.843750 0.503906
vt 0.828125 0.503906
vt 0.828125 0.492188
vt 0.843750 0.492188
vt 0.859375 0.472656
vt 0.882812 0.472656
vt 0.867188 0.484375
vt 0.882812 0.472656
vt 0.859375 0.472656
vt 0.867188 0.484375
vt 0.851562 0.484375
vt 0.867188 0.503906
vt 0.867188 0.503906
vt 0.859375 0.402344
vt 0.882812 0.402344
vt 0.859375 0.421875
vt 0.890625 0.484375
vt 0.882812 0.402344
vt 0.859375 0.421875
vt 0.859375 0.402344
vt 0.867188 0.484375
vt 0.867188 0.503906
vt 0.867188 0.503906
vt 0.867188 0.484375
vt 0.851562 0.484375
vt 0.882812 0.402344
vt 0.859375 0.421875
vt 0.859375 0.402344
vt 0.859375 0.472656
vt 0.882812 0.472656
vt 0.890625 0.484375
vt 0.859375 0.472656
vt 0.882812 0.472656
vt 0.859375 0.402344
vt 0.882812 0.402344
vt 0.859375 0.421875
vt 0.843750 0.503906
vt 0.828125 0.503906
vt 0.828125 0.492188
vt 0.843750 0.492188
vt 0.843750 0.328125
vt 0.843750 0.492188
vt 0.828125 0.492188
vt 0.828125 0.328125
vt 0.843750 0.328125
vt 0.843750 0.492188
vt 0.828125 0.492188
vt 0.828125 0.328125
vt 0.843750 0.328125
vt 0.843750 0.492188
vt 0.828125 0.492188
vt 0.828125 0.328125
vt 0.843750 0.328125
vt 0.843750 0.492188
vt 0.828125 0.492188
vt 0.828125 0.328125
vt 0.843750 0.328125
vt 0.843750 0.492188
vt 0.828125 0.492188
vt 0.828125 0.328125
vt 0.843750 0.328125
vt 0.843750 0.492188
vt 0.828125 0.492188
vt 0.828125 0.328125
vt 0.843750 0.328125
vt 0.843750 0.492188
vt 0.828125 0.492188
vt 0.828125 0.328125
vt 0.843750 0.328125
vt 0.843750 0.492188
vt 0.828125 0.492188
vt 0.828125 0.328125
vt 0.843750 0.328125
vt 0.843750 0.492188
vt 0.828125 0.492188
vt 0.828125 0.328125
vt 0.843750 0.328125
vt 0.843750 0.492188
vt 0.828125 0.492188
vt 0.828125 0.328125
vt 0.843750 0.328125
vt 0.843750 0.492188
vt 0.828125 0.492188
vt 0.828125 0.328125
vt 0.843750 0.328125
vt 0.843750 0.492188
vt 0.828125 0.492188
vt 0.828125 0.328125
vt 0.843750 0.429688
vt 0.843750 0.488281
vt 0.828125 0.488281
vt 0.828125 0.429688
vt 0.828125 0.378906
vt 0.828125 0.332031
vt 0.843750 0.339844
vt 0.843750 0.390625
vt 0.843750 0.343750
vt 0.843750 0.386719
vt 0.828125 0.386719
vt 0.828125 0.347656
vt 0.843750 0.343750
vt 0.843750 0.386719
vt 0.828125 0.386719
vt 0.828125 0.343750
vt 0.843750 0.347656
vt 0.843750 0.386719
vt 0.828125 0.386719
vt 0.828125 0.343750
vt 0.843750 0.343750
vt 0.843750 0.386719
vt 0.828125 0.386719
vt 0.828125 0.343750
vt 0.828125 0.472656
vt 0.828125 0.410156
vt 0.843750 0.433594
vt 0.843750 0.476562
vt 0.843750 0.351562
vt 0.843750 0.410156
vt 0.828125 0.386719
vt 0.828125 0.343750
vt 0.828125 0.476562
vt 0.828125 0.433594
vt 0.843750 0.472656
vt 0.843750 0.343750
vt 0.843750 0.386719
vt 0.828125 0.351562
vt 0.843750 0.386719
vt 0.843750 0.429688
vt 0.828125 0.429688
vt 0.828125 0.386719
vt 0.843750 0.386719
vt 0.843750 0.429688
vt 0.828125 0.429688
vt 0.828125 0.386719
vt 0.843750 0.386719
vt 0.843750 0.429688
vt 0.828125 0.429688
vt 0.828125 0.386719
vt 0.843750 0.386719
vt 0.843750 0.429688
vt 0.828125 0.429688
vt 0.828125 0.386719
vt 0.828125 0.410156
vt 0.828125 0.378906
vt 0.843750 0.390625
vt 0.843750 0.433594
vt 0.843750 0.410156
vt 0.843750 0.445312
vt 0.828125 0.429688
vt 0.828125 0.386719
vt 0.828125 0.433594
vt 0.828125 0.390625
vt 0.843750 0.378906
vt 0.843750 0.386719
vt 0.843750 0.429688
vt 0.828125 0.445312
vt 0.843750 0.390625
vt 0.843750 0.429688
vt 0.828125 0.429688
vt 0.828125 0.390625
vt 0.843750 0.390625
vt 0.843750 0.429688
vt 0.828125 0.429688
vt 0.828125 0.386719
vt 0.843750 0.390625
vt 0.843750 0.429688
vt 0.828125 0.429688
vt 0.828125 0.390625
vt 0.843750 0.386719
vt 0.843750 0.429688
vt 0.828125 0.429688
vt 0.828125 0.390625
vt 0.828125 0.410156
vt 0.828125 0.378906
vt 0.843750 0.390625
vt 0.843750 0.429688
vt 0.843750 0.410156
vt 0.843750 0.445312
vt 0.828125 0.429688
vt 0.828125 0.386719
vt 0.828125 0.429688
vt 0.828125 0.390625
vt 0.843750 0.378906
vt 0.843750 0.386719
vt 0.843750 0.429688
vt 0.828125 0.445312
vt 0.843750 0.503906
vt 0.828125 0.503906
vt 0.828125 0.492188
vt 0.843750 0.492188
vt 0.859375 0.472656
vt 0.882812 0.472656
vt 0.867188 0.484375
vt 0.882812 0.472656
vt 0.859375 0.472656
vt 0.867188 0.484375
vt 0.851562 0.484375
vt 0.867188 0.503906
vt 0.867188 0.503906
vt 0.859375 0.402344
vt 0.882812 0.402344
vt 0.859375 0.421875
vt 0.890625 0.484375
vt 0.882812 0.402344
vt 0.859375 0.421875
vt 0.859375 0.402344
vt 0.843750 0.328125
vt 0.843750 0.492188
vt 0.828125 0.492188
vt 0.828125 0.328125
vt 0.843750 0.328125
vt 0.843750 0.492188
vt 0.828125 0.492188
vt 0.828125 0.328125
vt 0.843750 0.328125
vt 0.843750 0.492188
vt 0.828125 0.492188
vt 0.828125 0.328125
vt 0.843750 0.328125
vt 0.843750 0.492188
vt 0.828125 0.492188
vt 0.828125 0.328125
vt 0.843750 0.503906
vt 0.828125 0.503906
vt 0.828125 0.492188
vt 0.843750 0.492188
vt 0.859375 0.472656
vt 0.882812 0.472656
vt 0.867188 0.484375
vt 0.882812 0.472656
vt 0.859375 0.472656
vt 0.867188 0.484375
vt 0.851562 0.484375
vt 0.867188 0.503906
vt 0.867188 0.503906
vt 0.859375 0.402344
vt 0.882812 0.402344
vt 0.859375 0.421875
vt 0.890625 0.484375
vt 0.882812 0.402344
vt 0.859375 0.421875
vt 0.859375 0.402344
vt 0.843750 0.328125
vt 0.843750 0.492188
vt 0.828125 0.492188
vt 0.828125 0.328125
vt 0.843750 0.328125
vt 0.843750 0.492188
vt 0.828125 0.492188
vt 0.828125 0.328125
vt 0.843750 0.328125
vt 0.843750 0.492188
vt 0.828125 0.492188
vt 0.828125 0.328125
vt 0.843750 0.328125
vt 0.843750 0.492188
vt 0.828125 0.492188
vt 0.828125 0.328125
vt 0.843750 0.429688
vt 0.843750 0.488281
vt 0.828125 0.488281
vt 0.828125 0.445312
vt 0.828125 0.390625
vt 0.828125 0.339844
vt 0.843750 0.332031
vt 0.843750 0.378906
vt 0.843750 0.445312
vt 0.843750 0.488281
vt 0.828125 0.488281
vt 0.828125 0.429688
vt 0.828125 0.378906
vt 0.828125 0.332031
vt 0.843750 0.339844
vt 0.843750 0.390625
vt 0.828125 0.472656
vt 0.828125 0.410156
vt 0.843750 0.433594
vt 0.843750 0.476562
vt 0.843750 0.351562
vt 0.843750 0.410156
vt 0.828125 0.386719
vt 0.828125 0.343750
vt 0.828125 0.476562
vt 0.828125 0.433594
vt 0.843750 0.472656
vt 0.843750 0.343750
vt 0.843750 0.386719
vt 0.828125 0.351562
vt 0.828125 0.410156
vt 0.828125 0.378906
vt 0.843750 0.390625
vt 0.843750 0.433594
vt 0.843750 0.410156
vt 0.843750 0.445312
vt 0.828125 0.429688
vt 0.828125 0.386719
vt 0.828125 0.433594
vt 0.828125 0.390625
vt 0.843750 0.378906
vt 0.843750 0.386719
vt 0.843750 0.429688
vt 0.828125 0.445312
vt 0.828125 0.410156
vt 0.828125 0.378906
vt 0.843750 0.390625
vt 0.843750 0.429688
vt 0.843750 0.410156
vt 0.843750 0.445312
vt 0.828125 0.429688
vt 0.828125 0.386719
vt 0.828125 0.429688
vt 0.828125 0.390625
vt 0.843750 0.378906
vt 0.843750 0.386719
vt 0.843750 0.429688
vt 0.828125 0.445312
vt 0.843750 0.429688
vt 0.843750 0.488281
vt 0.828125 0.488281
vt 0.828125 0.445312
vt 0.828125 0.390625
vt 0.828125 0.339844
vt 0.843750 0.332031
vt 0.843750 0.378906
vt 0.843750 0.445312
vt 0.843750 0.488281
vt 0.828125 0.488281
vt 0.828125 0.429688
vt 0.828125 0.378906
vt 0.828125 0.332031
vt 0.843750 0.339844
vt 0.843750 0.390625
vt 0.828125 0.472656
vt 0.828125 0.410156
vt 0.843750 0.433594
vt 0.843750 0.476562
vt 0.843750 0.351562
vt 0.843750 0.410156
vt 0.828125 0.386719
vt 0.828125 0.343750
vt 0.828125 0.476562
vt 0.828125 0.433594
vt 0.843750 0.472656
vt 0.843750 0.343750
vt 0.843750 0.386719
vt 0.828125 0.351562
vt 0.828125 0.410156
vt 0.828125 0.378906
vt 0.843750 0.390625
vt 0.843750 0.433594
vt 0.843750 0.410156
vt 0.843750 0.445312
vt 0.828125 0.429688
vt 0.828125 0.386719
vt 0.828125 0.433594
vt 0.828125 0.390625
vt 0.843750 0.378906
vt 0.843750 0.386719
vt 0.843750 0.429688
vt 0.828125 0.445312
vt 0.828125 0.410156
vt 0.828125 0.378906
vt 0.843750 0.390625
vt 0.843750 0.429688
vt 0.843750 0.410156
vt 0.843750 0.445312
vt 0.828125 0.429688
vt 0.828125 0.386719
vt 0.828125 0.429688
vt 0.828125 0.390625
vt 0.843750 0.378906
vt 0.843750 0.386719
vt 0.843750 0.429688
vt 0.828125 0.445312
vt 0.828125 0.503906
vt 0.828125 0.492188
vt 0.843750 0.492188
vt 0.843750 0.503906
vt 0.843750 0.492188
vt 0.843750 0.503906
vt 0.828125 0.503906
vt 0.828125 0.492188
vt 0.828125 0.503906
vt 0.828125 0.492188
vt 0.843750 0.492188
vt 0.843750 0.503906
vt 0.828125 0.492188
vt 0.843750 0.492188
vt 0.843750 0.503906
vt 0.828125 0.503906
vt 0.828125 0.492188
vt 0.843750 0.492188
vt 0.843750 0.503906
vt 0.828125 0.503906
vt 0.843750 0.429688
vt 0.828125 0.445312
vt 0.828125 0.488281
vt 0.843750 0.488281
vt 0.828125 0.390625
vt 0.843750 0.378906
vt 0.843750 0.332031
vt 0.828125 0.339844
vt 0.843750 0.445312
vt 0.828125 0.429688
vt 0.828125 0.488281
vt 0.843750 0.488281
vt 0.843750 0.429688
vt 0.828125 0.429688
vt 0.828125 0.488281
vt 0.843750 0.488281
vt 0.843750 0.429688
vt 0.828125 0.429688
vt 0.828125 0.488281
vt 0.843750 0.488281
vt 0.843750 0.429688
vt 0.828125 0.429688
vt 0.828125 0.488281
vt 0.843750 0.488281
vt 0.867188 0.484375
vt 0.867188 0.503906
vt 0.867188 0.503906
vt 0.867188 0.484375
vt 0.851562 0.484375
vt 0.882812 0.402344
vt 0.859375 0.402344
vt 0.859375 0.421875
vt 0.859375 0.472656
vt 0.882812 0.472656
vt 0.890625 0.484375
vt 0.859375 0.472656
vt 0.882812 0.472656
vt 0.859375 0.402344
vt 0.859375 0.421875
vt 0.882812 0.402344
vt 0.843750 0.503906
vt 0.843750 0.492188
vt 0.828125 0.492188
vt 0.828125 0.503906
vt 0.843750 0.503906
vt 0.843750 0.492188
vt 0.828125 0.492188
vt 0.828125 0.503906
vt 0.859375 0.472656
vt 0.867188 0.484375
vt 0.882812 0.472656
vt 0.882812 0.472656
vt 0.867188 0.484375
vt 0.859375 0.472656
vt 0.851562 0.484375
vt 0.867188 0.503906
vt 0.867188 0.503906
vt 0.859375 0.402344
vt 0.859375 0.421875
vt 0.882812 0.402344
vt 0.890625 0.484375
vt 0.882812 0.402344
vt 0.859375 0.402344
vt 0.859375 0.421875
vt 0.867188 0.484375
vt 0.867188 0.503906
vt 0.867188 0.503906
vt 0.867188 0.484375
vt 0.851562 0.484375
vt 0.882812 0.402344
vt 0.859375 0.402344
vt 0.859375 0.421875
vt 0.859375 0.472656
vt 0.882812 0.472656
vt 0.890625 0.484375
vt 0.859375 0.472656
vt 0.882812 0.472656
vt 0.859375 0.402344
vt 0.859375 0.421875
vt 0.882812 0.402344
vt 0.843750 0.503906
vt 0.843750 0.492188
vt 0.828125 0.492188
vt 0.828125 0.503906
vt 0.843750 0.328125
vt 0.828125 0.328125
vt 0.828125 0.492188
vt 0.843750 0.492188
vt 0.843750 0.328125
vt 0.828125 0.328125
vt 0.828125 0.492188
vt 0.843750 0.492188
vt 0.843750 0.328125
vt 0.828125 0.328125
vt 0.828125 0.492188
vt 0.843750 0.492188
vt 0.843750 0.328125
vt 0.828125 0.328125
vt 0.828125 0.492188
vt 0.843750 0.492188
vt 0.843750 0.328125
vt 0.828125 0.328125
vt 0.828125 0.492188
vt 0.843750 0.492188
vt 0.843750 0.328125
vt 0.828125 0.328125
vt 0.828125 0.492188
vt 0.843750 0.492188
vt 0.843750 0.328125
vt 0.828125 0.328125
vt 0.828125 0.492188
vt 0.843750 0.492188
vt 0.843750 0.328125
vt 0.828125 0.328125
vt 0.828125 0.492188
vt 0.843750 0.492188
vt 0.843750 0.328125
vt 0.828125 0.328125
vt 0.828125 0.492188
vt 0.843750 0.492188
vt 0.843750 0.328125
vt 0.828125 0.328125
vt 0.828125 0.492188
vt 0.843750 0.492188
vt 0.843750 0.328125
vt 0.828125 0.328125
vt 0.828125 0.492188
vt 0.843750 0.492188
vt 0.843750 0.328125
vt 0.828125 0.328125
vt 0.828125 0.492188
vt 0.843750 0.492188
vt 0.843750 0.429688
vt 0.828125 0.429688
vt 0.828125 0.488281
vt 0.843750 0.488281
vt 0.828125 0.378906
vt 0.843750 0.390625
vt 0.843750 0.339844
vt 0.828125 0.332031
vt 0.843750 0.343750
vt 0.828125 0.347656
vt 0.828125 0.386719
vt 0.843750 0.386719
vt 0.843750 0.343750
vt 0.828125 0.343750
vt 0.828125 0.386719
vt 0.843750 0.386719
vt 0.843750 0.347656
vt 0.828125 0.343750
vt 0.828125 0.386719
vt 0.843750 0.386719
vt 0.843750 0.343750
vt 0.828125 0.343750
vt 0.828125 0.386719
vt 0.843750 0.386719
vt 0.828125 0.472656
vt 0.843750 0.476562
vt 0.843750 0.433594
vt 0.828125 0.410156
vt 0.843750 0.351562
vt 0.828125 0.343750
vt 0.828125 0.386719
vt 0.843750 0.410156
vt 0.828125 0.476562
vt 0.843750 0.472656
vt 0.828125 0.433594
vt 0.843750 0.343750
vt 0.828125 0.351562
vt 0.843750 0.386719
vt 0.843750 0.386719
vt 0.828125 0.386719
vt 0.828125 0.429688
vt 0.843750 0.429688
vt 0.843750 0.386719
vt 0.828125 0.386719
vt 0.828125 0.429688
vt 0.843750 0.429688
vt 0.843750 0.386719
vt 0.828125 0.386719
vt 0.828125 0.429688
vt 0.843750 0.429688
vt 0.843750 0.386719
vt 0.828125 0.386719
vt 0.828125 0.429688
vt 0.843750 0.429688
vt 0.828125 0.410156
vt 0.843750 0.433594
vt 0.843750 0.390625
vt 0.828125 0.378906
vt 0.843750 0.410156
vt 0.828125 0.386719
vt 0.828125 0.429688
vt 0.843750 0.445312
vt 0.828125 0.433594
vt 0.843750 0.378906
vt 0.828125 0.390625
vt 0.843750 0.386719
vt 0.828125 0.445312
vt 0.843750 0.429688
vt 0.843750 0.390625
vt 0.828125 0.390625
vt 0.828125 0.429688
vt 0.843750 0.429688
vt 0.843750 0.390625
vt 0.828125 0.386719
vt 0.828125 0.429688
vt 0.843750 0.429688
vt 0.843750 0.390625
vt 0.828125 0.390625
vt 0.828125 0.429688
vt 0.843750 0.429688
vt 0.843750 0.386719
vt 0.828125 0.390625
vt 0.828125 0.429688
vt 0.843750 0.429688
vt 0.828125 0.410156
vt 0.843750 0.429688
vt 0.843750 0.390625
vt 0.828125 0.378906
vt 0.843750 0.410156
vt 0.828125 0.386719
vt 0.828125 0.429688
vt 0.843750 0.445312
vt 0.828125 0.429688
vt 0.843750 0.378906
vt 0.828125 0.390625
vt 0.843750 0.386719
vt 0.828125 0.445312
vt 0.843750 0.429688
vt 0.843750 0.503906
vt 0.843750 0.492188
vt 0.828125 0.492188
vt 0.828125 0.503906
vt 0.859375 0.472656
vt 0.867188 0.484375
vt 0.882812 0.472656
vt 0.882812 0.472656
vt 0.867188 0.484375
vt 0.859375 0.472656
vt 0.851562 0.484375
vt 0.867188 0.503906
vt 0.867188 0.503906
vt 0.859375 0.402344
vt 0.859375 0.421875
vt 0.882812 0.402344
vt 0.890625 0.484375
vt 0.882812 0.402344
vt 0.859375 0.402344
vt 0.859375 0.421875
vt 0.843750 0.328125
vt 0.828125 0.328125
vt 0.828125 0.492188
vt 0.843750 0.492188
vt 0.843750 0.328125
vt 0.828125 0.328125
vt 0.828125 0.492188
vt 0.843750 0.492188
vt 0.843750 0.328125
vt 0.828125 0.328125
vt 0.828125 0.492188
vt 0.843750 0.492188
vt 0.843750 0.328125
vt 0.828125 0.328125
vt 0.828125 0.492188
vt 0.843750 0.492188
vt 0.843750 0.503906
vt 0.843750 0.492188
vt 0.828125 0.492188
vt 0.828125 0.503906
vt 0.859375 0.472656
vt 0.867188 0.484375
vt 0.882812 0.472656
vt 0.882812 0.472656
vt 0.867188 0.484375
vt 0.859375 0.472656
vt 0.851562 0.484375
vt 0.867188 0.503906
vt 0.867188 0.503906
vt 0.859375 0.402344
vt 0.859375 0.421875
vt 0.882812 0.402344
vt 0.890625 0.484375
vt 0.882812 0.402344
vt 0.859375 0.402344
vt 0.859375 0.421875
vt 0.843750 0.328125
vt 0.828125 0.328125
vt 0.828125 0.492188
vt 0.843750 0.492188
vt 0.843750 0.328125
vt 0.828125 0.328125
vt 0.828125 0.492188
vt 0.843750 0.492188
vt 0.843750 0.328125
vt 0.828125 0.328125
vt 0.828125 0.492188
vt 0.843750 0.492188
vt 0.843750 0.328125
vt 0.828125 0.328125
vt 0.828125 0.492188
vt 0.843750 0.492188
vt 0.843750 0.429688
vt 0.828125 0.445312
vt 0.828125 0.488281
vt 0.843750 0.488281
vt 0.828125 0.390625
vt 0.843750 0.378906
vt 0.843750 0.332031
vt 0.828125 0.339844
vt 0.843750 0.445312
vt 0.828125 0.429688
vt 0.828125 0.488281
vt 0.843750 0.488281
vt 0.828125 0.378906
vt 0.843750 0.390625
vt 0.843750 0.339844
vt 0.828125 0.332031
vt 0.828125 0.472656
vt 0.843750 0.476562
vt 0.843750 0.433594
vt 0.828125 0.410156
vt 0.843750 0.351562
vt 0.828125 0.343750
vt 0.828125 0.386719
vt 0.843750 0.410156
vt 0.828125 0.476562
vt 0.843750 0.472656
vt 0.828125 0.433594
vt 0.843750 0.343750
vt 0.828125 0.351562
vt 0.843750 0.386719
vt 0.828125 0.410156
vt 0.843750 0.433594
vt 0.843750 0.390625
vt 0.828125 0.378906
vt 0.843750 0.410156
vt 0.828125 0.386719
vt 0.828125 0.429688
vt 0.843750 0.445312
vt 0.828125 0.433594
vt 0.843750 0.378906
vt 0.828125 0.390625
vt 0.843750 0.386719
vt 0.828125 0.445312
vt 0.843750 0.429688
vt 0.828125 0.410156
vt 0.843750 0.429688
vt 0.843750 0.390625
vt 0.828125 0.378906
vt 0.843750 0.410156
vt 0.828125 0.386719
vt 0.828125 0.429688
vt 0.843750 0.445312
vt 0.828125 0.429688
vt 0.843750 0.378906
vt 0.828125 0.390625
vt 0.843750 0.386719
vt 0.828125 0.445312
vt 0.843750 0.429688
vt 0.843750 0.429688
vt 0.828125 0.445312
vt 0.828125 0.488281
vt 0.843750 0.488281
vt 0.828125 0.390625
vt 0.843750 0.378906
vt 0.843750 0.332031
vt 0.828125 0.339844
vt 0.843750 0.445312
vt 0.828125 0.429688
vt 0.828125 0.488281
vt 0.843750 0.488281
vt 0.828125 0.378906
vt 0.843750 0.390625
vt 0.843750 0.339844
vt 0.828125 0.332031
vt 0.828125 0.472656
vt 0.843750 0.476562
vt 0.843750 0.433594
vt 0.828125 0.410156
vt 0.843750 0.351562
vt 0.828125 0.343750
vt 0.828125 0.386719
vt 0.843750 0.410156
vt 0.828125 0.476562
vt 0.843750 0.472656
vt 0.828125 0.433594
vt 0.843750 0.343750
vt 0.828125 0.351562
vt 0.843750 0.386719
vt 0.828125 0.410156
vt 0.843750 0.433594
vt 0.843750 0.390625
vt 0.828125 0.378906
vt 0.843750 0.410156
vt 0.828125 0.386719
vt 0.828125 0.429688
vt 0.843750 0.445312
vt 0.828125 0.433594
vt 0.843750 0.378906
vt 0.828125 0.390625
vt 0.843750 0.386719
vt 0.828125 0.445312
vt 0.843750 0.429688
vt 0.828125 0.410156
vt 0.843750 0.429688
vt 0.843750 0.390625
vt 0.828125 0.378906
vt 0.843750 0.410156
vt 0.828125 0.386719
vt 0.828125 0.429688
vt 0.843750 0.445312
vt 0.828125 0.429688
vt 0.843750 0.378906
vt 0.828125 0.390625
vt 0.843750 0.386719
vt 0.828125 0.445312
vt 0.843750 0.429688
vt 0.828125 0.503906
vt 0.843750 0.503906
vt 0.843750 0.492188
vt 0.828125 0.492188
vt 0.843750 0.492188
vt 0.828125 0.492188
vt 0.828125 0.503906
vt 0.843750 0.503906
vt 0.828125 0.503906
vt 0.843750 0.503906
vt 0.843750 0.492188
vt 0.828125 0.492188
vt 0.828125 0.492188
vt 0.828125 0.503906
vt 0.843750 0.503906
vt 0.843750 0.492188
vt 0.828125 0.492188
vt 0.828125 0.503906
vt 0.843750 0.503906
vt 0.843750 0.492188
vt 0.843750 0.429688
vt 0.828125 0.429688
vt 0.843750 0.429688
vt 0.828125 0.429688
vt 0.843750 0.429688
vt 0.828125 0.429688
vt 0.843750 0.429688
vt 0.828125 0.429688
vt 0.843750 0.390625
vt 0.843750 0.429688
vt 0.828125 0.390625
vt 0.843750 0.390625
vt 0.843750 0.429688
vt 0.828125 0.429688
vt 0.843750 0.390625
vt 0.828125 0.429688
vt 0.828125 0.390625
vt 0.843750 0.429688
vt 0.828125 0.429688
vt 0.828125 0.390625
vt 0.843750 0.390625
vt 0.843750 0.429688
vt 0.828125 0.390625
vt 0.843750 0.390625
vt 0.843750 0.429688
vt 0.828125 0.429688
vt 0.843750 0.390625
vt 0.828125 0.429688
vt 0.828125 0.390625
vt 0.843750 0.429688
vt 0.828125 0.429688
vt 0.828125 0.390625
vt 0.843750 0.390625
vt 0.843750 0.429688
vt 0.828125 0.390625
vt 0.843750 0.390625
vt 0.843750 0.429688
vt 0.828125 0.429688
vt 0.843750 0.390625
vt 0.828125 0.429688
vt 0.828125 0.390625
vt 0.843750 0.429688
vt 0.828125 0.429688
vt 0.828125 0.390625
vt 0.843750 0.503906
vt 0.828125 0.503906
vt 0.828125 0.492188
vt 0.843750 0.492188
vt 0.859375 0.472656
vt 0.882812 0.472656
vt 0.867188 0.484375
vt 0.882812 0.472656
vt 0.859375 0.472656
vt 0.867188 0.484375
vt 0.851562 0.484375
vt 0.867188 0.503906
vt 0.867188 0.503906
vt 0.859375 0.402344
vt 0.882812 0.402344
vt 0.859375 0.421875
vt 0.890625 0.484375
vt 0.882812 0.402344
vt 0.859375 0.421875
vt 0.859375 0.402344
vt 0.843750 0.328125
vt 0.843750 0.492188
vt 0.828125 0.492188
vt 0.828125 0.328125
vt 0.843750 0.328125
vt 0.843750 0.492188
vt 0.828125 0.492188
vt 0.828125 0.328125
vt 0.843750 0.328125
vt 0.843750 0.492188
vt 0.828125 0.492188
vt 0.828125 0.328125
vt 0.843750 0.328125
vt 0.843750 0.492188
vt 0.828125 0.492188
vt 0.828125 0.328125
vt 0.828125 0.492188
vt 0.843750 0.492188
vt 0.843750 0.503906
vt 0.828125 0.503906
vn -0.9260 -0.0000 0.3775
vn -0.9689 0.0000 0.2476
vn -0.8099 -0.5488 0.2070
vn -0.7687 -0.5583 0.3122
vn 0.9250 0.0000 -0.3801
vn 0.9688 0.0000 -0.2477
vn 0.8073 0.5528 -0.2064
vn 0.7668 0.5606 -0.3127
vn -0.7687 0.5583 0.3122
vn -0.8099 0.5488 0.2070
vn -0.9259 -0.0000 0.3778
vn -0.9688 -0.0000 0.2477
vn -0.8100 -0.5487 0.2071
vn -0.7686 -0.5584 0.3121
vn 0.9247 -0.0000 -0.3806
vn 0.9688 -0.0000 -0.2478
vn 0.8072 0.5530 -0.2064
vn 0.7672 0.5601 -0.3125
vn -0.7686 0.5584 0.3121
vn -0.8100 0.5487 0.2071
vn 0.9645 0.0806 -0.2515
vn 0.9015 0.2293 -0.3670
vn 0.9659 0.2293 -0.1199
vn -0.9645 0.0806 0.2515
vn -0.9659 0.2293 0.1199
vn -0.2521 0.0407 -0.9669
vn -0.6646 -0.6779 -0.3142
vn 0.4266 -0.6779 -0.5987
vn 0.6646 -0.6779 0.3142
vn 0.2521 0.0407 0.9669
vn -0.4266 -0.6779 0.5987
vn -0.9015 0.2293 0.3670
vn 0.7323 -0.6779 -0.0641
vn -0.0663 -0.6779 0.7321
vn -0.7323 -0.6779 0.0641
vn 0.0663 -0.6779 -0.7321
vn -0.7058 0.0806 0.7038
vn 0.7058 0.0806 -0.7038
vn -0.7055 0.0407 -0.7076
vn 0.5932 0.2293 -0.7717
vn -0.5932 0.2293 0.7717
vn -0.7735 0.2293 0.5909
vn 0.7055 0.0407 0.7076
vn 0.7735 0.2293 -0.5909
vn 0.8616 0.0806 -0.5012
vn 0.7699 0.2293 -0.5955
vn 0.8983 0.2293 -0.3748
vn -0.8616 0.0806 0.5012
vn -0.8983 0.2293 0.3748
vn -0.5024 0.0407 -0.8637
vn -0.7245 -0.6779 -0.1242
vn 0.2502 -0.6779 -0.6912
vn 0.7245 -0.6779 0.1242
vn 0.5024 0.0407 0.8637
vn -0.2502 -0.6779 0.6912
vn -0.7699 0.2293 0.5955
vn -0.2060 -0.5774 -0.7901
vn -0.2523 0.0000 -0.9677
vn 0.9677 0.0000 -0.2523
vn 0.7901 -0.5774 -0.2060
vn 0.8626 0.0000 0.5058
vn 0.2060 -0.5774 0.7901
vn -0.5058 0.0000 0.8626
vn -0.9677 0.0000 0.2523
vn -0.7901 -0.5774 0.2060
vn 0.2557 0.0000 -0.9668
vn 0.6836 -0.7071 0.1808
vn 0.9668 0.0000 0.2557
vn 0.5028 0.0000 0.8644
vn 0.4105 -0.5774 0.7058
vn -0.2557 0.0000 0.9668
vn -0.7058 -0.5774 0.4105
vn -0.9668 0.0000 -0.2557
vn -0.6836 -0.7071 -0.1808
vn 0.0015 0.0000 -1.0000
vn 0.7071 -0.7071 0.0010
vn 1.0000 0.0000 0.0015
vn 0.7061 0.0000 0.7081
vn 0.5765 -0.5774 0.5782
vn -0.0015 0.0000 1.0000
vn -0.5782 -0.5774 0.5765
vn -1.0000 0.0000 -0.0015
vn -0.7071 -0.7071 -0.0010
vn 0.7672 -0.5601 -0.3125
vn 0.8072 -0.5530 -0.2064
vn 0.7668 -0.5606 -0.3127
vn 0.8073 -0.5528 -0.2064
vn 0.5066 -0.5475 -0.6661
vn 0.6588 -0.5550 -0.5079
vn 0.7915 -0.0000 -0.6111
vn 0.6057 -0.0000 -0.7957
vn -0.5029 0.5568 0.6611
vn -0.6549 0.5611 0.5062
vn -0.7900 -0.0000 0.6131
vn -0.6054 -0.0000 0.7960
vn 0.6588 0.5550 -0.5079
vn 0.5066 0.5475 -0.6661
vn -0.6549 -0.5611 0.5062
vn -0.5029 -0.5568 0.6611
vn 0.5058 -0.5492 -0.6653
vn 0.6577 -0.5564 -0.5077
vn 0.7921 -0.0000 -0.6104
vn 0.6059 -0.0000 -0.7956
vn -0.5031 0.5563 0.6614
vn -0.6551 0.5606 0.5065
vn -0.7902 -0.0000 0.6128
vn -0.6054 0.0000 0.7959
vn 0.6577 0.5564 -0.5077
vn 0.5058 0.5492 -0.6653
vn -0.6551 -0.5606 0.5065
vn -0.5031 -0.5563 0.6614
vn 0.3136 -0.5576 -0.7685
vn 0.3768 -0.0000 -0.9263
vn -0.3144 0.5685 0.7602
vn -0.3803 -0.0000 0.9249
vn 0.3136 0.5576 -0.7685
vn -0.3144 -0.5686 0.7602
vn 0.3127 -0.5595 -0.7676
vn 0.3776 0.0000 -0.9260
vn -0.3144 0.5680 0.7606
vn -0.3805 0.0000 0.9248
vn 0.3127 0.5595 -0.7676
vn -0.3144 -0.5680 0.7606
vn 0.1009 -0.5739 -0.8127
vn 0.1338 -0.0000 -0.9910
vn -0.1092 0.5862 0.8028
vn -0.1222 -0.0000 0.9925
vn 0.1009 0.5739 -0.8127
vn -0.1092 -0.5862 0.8028
vn 0.1002 -0.5765 -0.8109
vn 0.1346 0.0000 -0.9909
vn -0.1091 0.5854 0.8034
vn -0.1225 0.0000 0.9925
vn 0.1002 0.5765 -0.8109
vn -0.1091 -0.5854 0.8034
vn 0.6886 -0.6779 -0.2574
vn 0.1317 -0.6779 0.7232
vn -0.6886 -0.6779 0.2574
vn -0.1317 -0.6779 -0.7232
vn -0.4922 0.0806 0.8667
vn 0.4922 0.0806 -0.8667
vn -0.8689 0.0407 -0.4934
vn 0.3655 0.2293 -0.9021
vn -0.3655 0.2293 0.9021
vn -0.5875 0.2293 0.7760
vn 0.8689 0.0407 0.4934
vn 0.5875 0.2293 -0.7760
vn -0.2657 0.0000 -0.9641
vn 0.4938 0.0000 -0.8696
vn 0.4032 -0.5774 -0.7100
vn 0.8696 0.0000 0.4938
vn 0.7100 -0.5774 0.4032
vn -0.4938 0.0000 0.8696
vn -0.4032 -0.5774 0.7100
vn -0.9641 0.0000 0.2657
vn -0.6817 -0.7071 0.1879
vn 0.5983 -0.6779 -0.4272
vn 0.3148 -0.6779 0.6643
vn -0.5983 -0.6779 0.4272
vn -0.3148 -0.6779 -0.6643
vn -0.2506 0.0806 0.9647
vn 0.2506 0.0806 -0.9647
vn -0.9671 0.0407 -0.2512
vn 0.1190 0.2293 -0.9660
vn -0.1190 0.2293 0.9660
vn -0.3662 0.2293 0.9019
vn 0.9671 0.0407 0.2512
vn 0.3662 0.2293 -0.9019
vn -0.7903 -0.5774 -0.2053
vn -0.5066 0.0000 -0.8622
vn 0.2514 0.0000 -0.9679
vn 0.2053 -0.5774 -0.7903
vn 0.9679 0.0000 0.2514
vn 0.7903 -0.5774 0.2053
vn 0.5066 0.0000 0.8622
vn -0.2053 -0.5774 0.7903
vn -0.8622 0.0000 0.5066
vn 0.9260 -0.0000 0.3775
vn 0.7687 -0.5583 0.3122
vn 0.8099 -0.5488 0.2070
vn 0.9689 0.0000 0.2476
vn -0.9250 0.0000 -0.3801
vn -0.7668 0.5606 -0.3127
vn -0.8073 0.5528 -0.2064
vn -0.9688 0.0000 -0.2477
vn 0.7687 0.5583 0.3122
vn 0.8099 0.5488 0.2070
vn 0.9259 -0.0000 0.3778
vn 0.7686 -0.5584 0.3121
vn 0.8100 -0.5487 0.2071
vn 0.9688 -0.0000 0.2477
vn -0.9247 -0.0000 -0.3806
vn -0.7672 0.5601 -0.3125
vn -0.8072 0.5530 -0.2064
vn -0.9688 -0.0000 -0.2478
vn 0.7686 0.5584 0.3121
vn 0.8100 0.5487 0.2071
vn -0.9645 0.0806 -0.2515
vn -0.9659 0.2293 -0.1199
vn -0.9015 0.2293 -0.3670
vn 0.9645 0.0806 0.2515
vn 0.2521 0.0407 -0.9669
vn 0.9659 0.2293 0.1199
vn 0.6646 -0.6779 -0.3142
vn -0.4266 -0.6779 -0.5987
vn -0.6646 -0.6779 0.3142
vn -0.2521 0.0407 0.9669
vn 0.4266 -0.6779 0.5987
vn 0.9015 0.2293 0.3670
vn -0.7323 -0.6779 -0.0641
vn -0.0663 -0.6779 -0.7321
vn 0.7323 -0.6779 0.0641
vn 0.0663 -0.6779 0.7321
vn 0.7058 0.0806 0.7038
vn -0.7058 0.0806 -0.7038
vn 0.7055 0.0407 -0.7076
vn -0.5932 0.2293 -0.7717
vn 0.5932 0.2293 0.7717
vn 0.7735 0.2293 0.5909
vn -0.7055 0.0407 0.7076
vn -0.7735 0.2293 -0.5909
vn -0.8616 0.0806 -0.5012
vn -0.8983 0.2293 -0.3748
vn -0.7699 0.2293 -0.5955
vn 0.8616 0.0806 0.5012
vn 0.5024 0.0407 -0.8637
vn 0.8983 0.2293 0.3748
vn 0.7245 -0.6779 -0.1242
vn -0.2502 -0.6779 -0.6912
vn -0.7245 -0.6779 0.1242
vn -0.5024 0.0407 0.8637
vn 0.2502 -0.6779 0.6912
vn 0.7699 0.2293 0.5955
vn 0.2060 -0.5774 -0.7901
vn -0.7901 -0.5774 -0.2060
vn -0.9677 0.0000 -0.2523
vn 0.2523 0.0000 -0.9677
vn -0.2060 -0.5774 0.7901
vn -0.8626 0.0000 0.5058
vn 0.7901 -0.5774 0.2060
vn 0.9677 0.0000 0.2523
vn 0.5058 0.0000 0.8626
vn 0.4105 -0.5774 -0.7058
vn -0.7058 -0.5774 -0.4105
vn -0.2557 0.0000 -0.9668
vn -0.4105 -0.5774 0.7058
vn -0.5028 0.0000 0.8644
vn -0.9668 0.0000 0.2557
vn 0.7058 -0.5774 0.4105
vn 0.2557 0.0000 0.9668
vn 0.9668 0.0000 -0.2557
vn -0.0015 0.0000 -1.0000
vn -0.7071 -0.7071 0.0010
vn -0.5765 -0.5774 0.5782
vn -0.7061 0.0000 0.7081
vn -1.0000 0.0000 0.0015
vn 0.5782 -0.5774 0.5765
vn 0.0015 0.0000 1.0000
vn 0.7071 -0.7071 -0.0010
vn 1.0000 0.0000 -0.0015
vn -0.7672 -0.5601 -0.3125
vn -0.8072 -0.5530 -0.2064
vn -0.7668 -0.5606 -0.3127
vn -0.8073 -0.5528 -0.2064
vn -0.5066 -0.5475 -0.6661
vn -0.6057 -0.0000 -0.7957
vn -0.7915 -0.0000 -0.6111
vn -0.6588 -0.5550 -0.5079
vn 0.5029 0.5568 0.6611
vn 0.6054 -0.0000 0.7960
vn 0.7900 -0.0000 0.6131
vn 0.6549 0.5611 0.5062
vn -0.5066 0.5475 -0.6661
vn -0.6588 0.5550 -0.5079
vn 0.5029 -0.5568 0.6611
vn 0.6549 -0.5611 0.5062
vn -0.5058 -0.5492 -0.6653
vn -0.6059 -0.0000 -0.7956
vn -0.7921 -0.0000 -0.6104
vn -0.6577 -0.5564 -0.5077
vn 0.5031 0.5563 0.6614
vn 0.6054 0.0000 0.7959
vn 0.7902 -0.0000 0.6128
vn 0.6551 0.5606 0.5065
vn -0.5058 0.5492 -0.6653
vn -0.6577 0.5564 -0.5077
vn 0.5031 -0.5563 0.6614
vn 0.6551 -0.5606 0.5065
vn -0.3136 -0.5576 -0.7685
vn -0.3768 -0.0000 -0.9263
vn 0.3144 0.5685 0.7602
vn 0.3803 -0.0000 0.9249
vn -0.3136 0.5576 -0.7685
vn 0.3144 -0.5686 0.7602
vn -0.3127 -0.5595 -0.7676
vn -0.3776 0.0000 -0.9260
vn 0.3144 0.5680 0.7606
vn 0.3805 0.0000 0.9248
vn -0.3127 0.5595 -0.7676
vn 0.3144 -0.5680 0.7606
vn -0.1009 -0.5739 -0.8127
vn -0.1338 -0.0000 -0.9910
vn 0.1092 0.5862 0.8028
vn 0.1222 -0.0000 0.9925
vn -0.1009 0.5739 -0.8127
vn 0.1092 -0.5862 0.8028
vn -0.1002 -0.5765 -0.8109
vn -0.1346 0.0000 -0.9909
vn 0.1091 0.5854 0.8034
vn 0.1225 0.0000 0.9925
vn -0.1002 0.5765 -0.8109
vn 0.1091 -0.5854 0.8034
vn -0.6886 -0.6779 -0.2574
vn 0.1317 -0.6779 -0.7232
vn 0.6886 -0.6779 0.2574
vn -0.1317 -0.6779 0.7232
vn 0.4922 0.0806 0.8667
vn -0.4922 0.0806 -0.8667
vn 0.8689 0.0407 -0.4934
vn -0.3655 0.2293 -0.9021
vn 0.3655 0.2293 0.9021
vn 0.5875 0.2293 0.7760
vn -0.8689 0.0407 0.4934
vn -0.5875 0.2293 -0.7760
vn 0.2657 0.0000 -0.9641
vn -0.4032 -0.5774 -0.7100
vn -0.4938 0.0000 -0.8696
vn -0.7100 -0.5774 0.4032
vn -0.8696 0.0000 0.4938
vn 0.4032 -0.5774 0.7100
vn 0.4938 0.0000 0.8696
vn 0.6817 -0.7071 0.1879
vn 0.9641 0.0000 0.2657
vn -0.5983 -0.6779 -0.4272
vn 0.3148 -0.6779 -0.6643
vn 0.5983 -0.6779 0.4272
vn -0.3148 -0.6779 0.6643
vn 0.2506 0.0806 0.9647
vn -0.2506 0.0806 -0.9647
vn 0.9671 0.0407 -0.2512
vn -0.1190 0.2293 -0.9660
vn 0.1190 0.2293 0.9660
vn 0.3662 0.2293 0.9019
vn -0.9671 0.0407 0.2512
vn -0.3662 0.2293 -0.9019
vn 0.7903 -0.5774 -0.2053
vn -0.2053 -0.5774 -0.7903
vn -0.2514 0.0000 -0.9679
vn 0.5066 0.0000 -0.8622
vn -0.7903 -0.5774 0.2053
vn -0.9679 0.0000 0.2514
vn 0.2053 -0.5774 0.7903
vn -0.5066 0.0000 0.8622
vn 0.8622 0.0000 0.5066
vn 0.4715 -0.6779 -0.5640
vn 0.4718 -0.6779 0.5637
vn -0.4715 -0.6779 0.5640
vn -0.4718 -0.6779 -0.5637
vn 0.0002 0.0806 0.9967
vn -0.0002 0.0806 -0.9967
vn -0.9992 0.0407 0.0002
vn -0.1279 0.2293 -0.9649
vn 0.1279 0.2293 0.9649
vn -0.1274 0.2293 0.9650
vn 0.9992 0.0407 -0.0002
vn 0.1274 0.2293 -0.9650
vn -0.8165 -0.5773 0.0002
vn -0.7073 0.0000 -0.7069
vn -0.0002 0.0000 -1.0000
vn -0.0002 -0.5774 -0.8165
vn 1.0000 0.0000 -0.0003
vn 0.8165 -0.5774 -0.0002
vn 0.7073 0.0000 0.7069
vn 0.0002 -0.5774 0.8165
vn -0.7069 0.0000 0.7073
usemtl Material.001
s 1
f 85/1/1 4/2/2 6/3/3 83/4/4
f 86/5/5 70/6/6 5/7/7 84/8/8
f 84/9/9 5/10/10 4/11/2 85/12/1
f 81/13/11 10/14/12 12/15/13 79/16/14
f 82/17/15 68/18/16 11/19/17 80/20/18
f 80/21/19 11/22/20 10/23/12 81/24/11
f 22/25/21 14/26/22 17/27/23
f 21/28/24 14/26/25 19/29/26
f 13/30/27 19/31/26 15/32/28
f 13/33/27 21/28/24 19/29/26
f 18/34/29 22/25/21 20/35/30
f 20/35/30 22/25/21 17/27/23
f 15/36/28 19/29/26 22/25/21
f 16/37/31 20/35/30 21/28/24
f 20/35/30 17/27/32 21/28/24
f 16/38/31 18/39/29 20/40/30
f 17/27/32 14/26/25 21/28/24
f 19/29/26 14/26/22 22/25/21
f 18/34/29 15/36/28 22/25/21
f 13/33/27 16/37/31 21/28/24
f 18/41/29 16/42/31 13/43/27 15/44/28
f 27/45/33 29/46/34 32/47/35 30/48/36
f 32/49/35 29/50/34 24/51/37
f 27/52/33 30/53/36 23/54/38
f 26/55/39 31/56/40 23/54/38
f 28/57/41 31/56/42 24/51/37
f 29/58/34 27/59/33 25/60/43
f 25/61/43 28/57/41 24/51/37
f 29/50/34 25/61/43 24/51/37
f 30/53/36 26/55/39 23/54/38
f 25/61/43 23/54/38 28/57/44
f 27/52/33 23/54/38 25/61/43
f 32/49/35 24/51/37 26/55/39
f 32/62/35 26/63/39 30/64/36
f 24/51/37 31/56/42 26/55/39
f 23/54/38 31/56/40 28/57/44
f 42/65/45 34/66/46 37/67/47
f 41/68/48 34/66/49 39/69/50
f 33/70/51 39/71/50 35/72/52
f 33/73/51 41/68/48 39/69/50
f 38/74/53 42/65/45 40/75/54
f 40/75/54 42/65/45 37/67/47
f 35/76/52 39/69/50 42/65/45
f 36/77/55 40/75/54 41/68/48
f 40/75/54 37/67/56 41/68/48
f 36/78/55 38/79/53 40/80/54
f 37/67/56 34/66/49 41/68/48
f 39/69/50 34/66/46 42/65/45
f 38/74/53 35/76/52 42/65/45
f 33/73/51 36/77/55 41/68/48
f 38/81/53 36/82/55 33/83/51 35/84/52
f 43/85/57 44/86/58 46/87/59 45/88/60
f 45/89/60 46/90/59 50/91/61 49/92/62
f 49/93/62 50/94/63 48/95/64 47/96/65
f 47/97/65 48/98/64 44/99/58 43/100/57
f 51/101/66 52/102/66 54/103/66 53/104/66
f 53/105/67 54/106/68 58/107/69 57/108/70
f 57/109/70 58/110/69 56/111/71 55/112/72
f 55/113/72 56/114/73 52/115/73 51/116/74
f 59/117/75 60/118/75 62/119/75 61/120/75
f 61/121/76 62/122/77 66/123/78 65/124/79
f 65/125/79 66/126/78 64/127/80 63/128/81
f 63/129/81 64/130/82 60/131/82 59/132/83
f 79/133/84 12/134/85 68/135/16 82/136/15
f 83/137/86 6/138/87 70/139/6 86/140/5
f 9/141/88 71/142/89 74/143/90 67/144/91
f 8/145/92 73/146/93 72/147/94 7/148/95
f 67/149/91 74/150/90 73/151/96 8/152/97
f 7/153/95 72/154/94 71/155/98 9/156/99
f 3/157/100 75/158/101 78/159/102 69/160/103
f 2/161/104 77/162/105 76/163/106 1/164/107
f 69/165/103 78/166/102 77/162/108 2/167/109
f 1/168/107 76/169/106 75/158/110 3/170/111
f 71/142/89 79/133/84 82/136/15 74/143/90
f 73/146/93 80/21/19 81/24/11 72/147/94
f 74/150/90 82/17/15 80/20/18 73/151/96
f 72/154/94 81/13/11 79/16/14 71/155/98
f 75/158/101 83/137/86 86/140/5 78/159/102
f 77/162/105 84/9/9 85/12/1 76/163/106
f 78/166/102 86/5/5 84/8/8 77/162/108
f 76/169/106 85/1/1 83/4/4 75/158/110
f 87/171/112 9/172/88 67/173/91 90/174/113
f 89/175/114 8/176/92 7/177/95 88/178/115
f 90/179/113 67/180/91 8/181/97 89/182/116
f 88/183/115 7/184/95 9/185/99 87/186/117
f 91/187/118 3/188/100 69/189/103 94/190/119
f 93/191/120 2/192/104 1/193/107 92/194/121
f 94/195/119 69/196/103 2/197/109 93/191/122
f 92/198/121 1/199/107 3/200/111 91/187/123
f 95/201/124 87/202/112 90/203/113 98/204/125
f 97/205/126 89/206/114 88/207/115 96/208/127
f 98/209/125 90/210/113 89/211/116 97/212/128
f 96/213/127 88/214/115 87/215/117 95/216/129
f 99/217/130 91/218/118 94/219/119 102/220/131
f 101/221/132 93/222/120 92/223/121 100/224/133
f 102/225/131 94/226/119 93/227/122 101/221/134
f 100/228/133 92/229/121 91/230/123 99/217/135
f 107/231/136 109/232/137 112/233/138 110/234/139
f 112/235/138 109/236/137 104/237/140
f 107/238/136 110/239/139 103/240/141
f 106/241/142 111/242/143 103/240/141
f 108/243/144 111/242/145 104/237/140
f 109/244/137 107/245/136 105/246/146
f 105/247/146 108/243/144 104/237/140
f 109/236/137 105/247/146 104/237/140
f 110/239/139 106/241/142 103/240/141
f 105/247/146 103/240/141 108/243/147
f 107/238/136 103/240/141 105/247/146
f 112/235/138 104/237/140 106/241/142
f 112/248/138 106/249/142 110/250/139
f 104/237/140 111/242/145 106/241/142
f 103/240/141 111/242/143 108/243/147
f 113/251/148 114/252/148 116/253/149 115/254/150
f 115/255/150 116/256/149 120/257/151 119/258/152
f 119/259/152 120/260/151 118/261/153 117/262/154
f 117/263/154 118/264/153 114/265/155 113/266/156
f 125/267/157 127/268/158 130/269/159 128/270/160
f 130/271/159 127/272/158 122/273/161
f 125/274/157 128/275/160 121/276/162
f 124/277/163 129/278/164 121/276/162
f 126/279/165 129/278/166 122/273/161
f 127/280/158 125/281/157 123/282/167
f 123/283/167 126/279/165 122/273/161
f 127/272/158 123/283/167 122/273/161
f 128/275/160 124/277/163 121/276/162
f 123/283/167 121/276/162 126/279/168
f 125/274/157 121/276/162 123/283/167
f 130/271/159 122/273/161 124/277/163
f 130/284/159 124/285/163 128/286/160
f 122/273/161 129/278/166 124/277/163
f 121/276/162 129/278/164 126/279/168
f 131/287/169 132/288/170 134/289/171 133/290/172
f 133/291/172 134/292/171 138/293/173 137/294/174
f 137/295/174 138/296/173 136/297/175 135/298/176
f 135/299/176 136/300/177 132/301/177 131/302/169
f 153/303/1 142/304/2 144/305/3 151/306/4
f 154/307/5 146/308/6 143/309/7 152/310/8
f 152/311/9 143/312/10 142/313/2 153/314/1
f 151/315/86 144/316/87 146/317/6 154/318/5
f 141/319/100 147/320/101 150/321/102 145/322/103
f 140/323/104 149/324/105 148/325/106 139/326/107
f 145/327/103 150/328/102 149/324/108 140/329/109
f 139/330/107 148/331/106 147/320/110 141/332/111
f 147/320/101 151/315/86 154/318/5 150/321/102
f 149/324/105 152/311/9 153/314/1 148/325/106
f 150/328/102 154/307/5 152/310/8 149/324/108
f 148/331/106 153/303/1 151/306/4 147/320/110
f 155/333/118 141/334/100 145/335/103 158/336/119
f 157/337/120 140/338/104 139/339/107 156/340/121
f 158/341/119 145/342/103 140/343/109 157/337/122
f 156/344/121 139/345/107 141/346/111 155/333/123
f 159/347/130 155/348/118 158/349/119 162/350/131
f 161/351/132 157/352/120 156/353/121 160/354/133
f 162/355/131 158/356/119 157/357/122 161/351/134
f 160/358/133 156/359/121 155/360/123 159/347/135
f 177/361/1 166/362/2 168/363/3 175/364/4
f 178/365/5 170/366/6 167/367/7 176/368/8
f 176/369/9 167/370/10 166/371/2 177/372/1
f 175/373/86 168/374/87 170/375/6 178/376/5
f 165/377/100 171/378/101 174/379/102 169/380/103
f 164/381/104 173/382/105 172/383/106 163/384/107
f 169/385/103 174/386/102 173/382/108 164/387/109
f 163/388/107 172/389/106 171/378/110 165/390/111
f 171/378/101 175/373/86 178/376/5 174/379/102
f 173/382/105 176/369/9 177/372/1 172/383/106
f 174/386/102 178/365/5 176/368/8 173/382/108
f 172/389/106 177/361/1 175/364/4 171/378/110
f 179/391/118 165/392/100 169/393/103 182/394/119
f 181/395/120 164/396/104 163/397/107 180/398/121
f 182/399/119 169/400/103 164/401/109 181/395/122
f 180/402/121 163/403/107 165/404/111 179/391/123
f 183/405/130 179/406/118 182/407/119 186/408/131
f 185/409/132 181/410/120 180/411/121 184/412/133
f 186/413/131 182/414/119 181/415/122 185/409/134
f 184/416/133 180/417/121 179/418/123 183/405/135
f 45/419/60 49/420/62 47/421/65 43/422/57
f 53/423/67 57/424/70 55/425/72 51/426/74
f 61/427/76 65/428/79 63/429/81 59/430/83
f 113/431/156 115/432/150 119/433/152 117/434/154
f 131/435/169 133/436/172 137/437/174 135/438/176
f 271/439/178 269/440/179 192/441/180 190/442/181
f 272/443/182 270/444/183 191/445/184 256/446/185
f 270/447/186 271/448/178 190/449/181 191/450/187
f 267/451/188 265/452/189 198/453/190 196/454/191
f 268/455/192 266/456/193 197/457/194 254/458/195
f 266/459/196 267/460/188 196/461/191 197/462/197
f 208/463/198 203/464/199 200/465/200
f 207/466/201 205/467/202 200/465/203
f 199/468/204 201/469/205 205/470/202
f 199/471/204 205/467/202 207/466/201
f 204/472/206 206/473/207 208/463/198
f 206/473/207 203/464/199 208/463/198
f 201/474/205 208/463/198 205/467/202
f 202/475/208 207/466/201 206/473/207
f 206/473/207 207/466/201 203/464/209
f 202/476/208 206/477/207 204/478/206
f 203/464/209 207/466/201 200/465/203
f 205/467/202 208/463/198 200/465/200
f 204/472/206 208/463/198 201/474/205
f 199/471/204 207/466/201 202/475/208
f 204/479/206 201/480/205 199/481/204 202/482/208
f 213/483/210 216/484/211 218/485/212 215/486/213
f 218/487/212 210/488/214 215/489/213
f 213/490/210 209/491/215 216/492/211
f 212/493/216 209/491/215 217/494/217
f 214/495/218 210/488/214 217/494/219
f 215/496/213 211/497/220 213/498/210
f 211/499/220 210/488/214 214/495/218
f 215/489/213 210/488/214 211/499/220
f 216/492/211 209/491/215 212/493/216
f 211/499/220 214/495/221 209/491/215
f 213/490/210 211/499/220 209/491/215
f 218/487/212 212/493/216 210/488/214
f 218/500/212 216/501/211 212/502/216
f 210/488/214 212/493/216 217/494/219
f 209/491/215 214/495/221 217/494/217
f 228/503/222 223/504/223 220/505/224
f 227/506/225 225/507/226 220/505/227
f 219/508/228 221/509/229 225/510/226
f 219/511/228 225/507/226 227/506/225
f 224/512/230 226/513/231 228/503/222
f 226/513/231 223/504/223 228/503/222
f 221/514/229 228/503/222 225/507/226
f 222/515/232 227/506/225 226/513/231
f 226/513/231 227/506/225 223/504/233
f 222/516/232 226/517/231 224/518/230
f 223/504/233 227/506/225 220/505/227
f 225/507/226 228/503/222 220/505/224
f 224/512/230 228/503/222 221/514/229
f 219/511/228 227/506/225 222/515/232
f 224/519/230 221/520/229 219/521/228 222/522/232
f 229/523/234 231/524/235 232/525/236 230/526/237
f 231/527/235 235/528/238 236/529/239 232/530/236
f 235/531/238 233/532/240 234/533/241 236/534/242
f 233/535/240 229/536/234 230/537/237 234/538/241
f 237/539/243 239/540/244 240/541/245 238/542/245
f 239/543/244 243/544/246 244/545/247 240/546/248
f 243/547/246 241/548/249 242/549/250 244/550/247
f 241/551/249 237/552/243 238/553/251 242/554/251
f 245/555/252 247/556/252 248/557/252 246/558/252
f 247/559/253 251/560/254 252/561/255 248/562/256
f 251/563/254 249/564/257 250/565/258 252/566/255
f 249/567/257 245/568/259 246/569/260 250/570/260
f 265/571/261 268/572/192 254/573/195 198/574/262
f 269/575/263 272/576/182 256/577/185 192/578/264
f 195/579/265 253/580/266 260/581/267 257/582/268
f 194/583/269 193/584/270 258/585/271 259/586/272
f 253/587/266 194/588/273 259/589/274 260/590/267
f 193/591/270 195/592/275 257/593/276 258/594/271
f 189/595/277 255/596/278 264/597/279 261/598/280
f 188/599/281 187/600/282 262/601/283 263/602/284
f 255/603/278 188/604/285 263/602/286 264/605/279
f 187/606/282 189/607/287 261/598/288 262/608/283
f 257/582/268 260/581/267 268/572/192 265/571/261
f 259/586/272 258/585/271 267/460/188 266/459/196
f 260/590/267 259/589/274 266/456/193 268/455/192
f 258/594/271 257/593/276 265/452/189 267/451/188
f 261/598/280 264/597/279 272/576/182 269/575/263
f 263/602/284 262/601/283 271/448/178 270/447/186
f 264/605/279 263/602/286 270/444/183 272/443/182
f 262/608/283 261/598/288 269/440/179 271/439/178
f 273/609/289 276/610/290 253/611/266 195/612/265
f 275/613/291 274/614/292 193/615/270 194/616/269
f 276/617/290 275/618/293 194/619/273 253/620/266
f 274/621/292 273/622/294 195/623/275 193/624/270
f 277/625/295 280/626/296 255/627/278 189/628/277
f 279/629/297 278/630/298 187/631/282 188/632/281
f 280/633/296 279/629/299 188/634/285 255/635/278
f 278/636/298 277/625/300 189/637/287 187/638/282
f 281/639/301 284/640/302 276/641/290 273/642/289
f 283/643/303 282/644/304 274/645/292 275/646/291
f 284/647/302 283/648/305 275/649/293 276/650/290
f 282/651/304 281/652/306 273/653/294 274/654/292
f 285/655/307 288/656/308 280/657/296 277/658/295
f 287/659/309 286/660/310 278/661/298 279/662/297
f 288/663/308 287/659/311 279/664/299 280/665/296
f 286/666/310 285/655/312 277/667/300 278/668/298
f 293/669/313 296/670/314 298/671/315 295/672/316
f 298/673/315 290/674/317 295/675/316
f 293/676/313 289/677/318 296/678/314
f 292/679/319 289/677/318 297/680/320
f 294/681/321 290/674/317 297/680/322
f 295/682/316 291/683/323 293/684/313
f 291/685/323 290/674/317 294/681/321
f 295/675/316 290/674/317 291/685/323
f 296/678/314 289/677/318 292/679/319
f 291/685/323 294/681/324 289/677/318
f 293/676/313 291/685/323 289/677/318
f 298/673/315 292/679/319 290/674/317
f 298/686/315 296/687/314 292/688/319
f 290/674/317 292/679/319 297/680/322
f 289/677/318 294/681/324 297/680/320
f 299/689/325 301/690/326 302/691/327 300/692/325
f 301/693/326 305/694/328 306/695/329 302/696/327
f 305/697/328 303/698/330 304/699/331 306/700/329
f 303/701/330 299/702/332 300/703/333 304/704/331
f 311/705/334 314/706/335 316/707/336 313/708/337
f 316/709/336 308/710/338 313/711/337
f 311/712/334 307/713/339 314/714/335
f 310/715/340 307/713/339 315/716/341
f 312/717/342 308/710/338 315/716/343
f 313/718/337 309/719/344 311/720/334
f 309/721/344 308/710/338 312/717/342
f 313/711/337 308/710/338 309/721/344
f 314/714/335 307/713/339 310/715/340
f 309/721/344 312/717/345 307/713/339
f 311/712/334 309/721/344 307/713/339
f 316/709/336 310/715/340 308/710/338
f 316/722/336 314/723/335 310/724/340
f 308/710/338 310/715/340 315/716/343
f 307/713/339 312/717/345 315/716/341
f 317/725/346 319/726/347 320/727/348 318/728/349
f 319/729/347 323/730/350 324/731/351 320/732/348
f 323/733/350 321/734/352 322/735/353 324/736/351
f 321/737/352 317/738/346 318/739/354 322/740/354
f 339/741/178 337/742/179 330/743/180 328/744/181
f 340/745/182 338/746/183 329/747/184 332/748/185
f 338/749/186 339/750/178 328/751/181 329/752/187
f 337/753/263 340/754/182 332/755/185 330/756/264
f 327/757/277 331/758/278 336/759/279 333/760/280
f 326/761/281 325/762/282 334/763/283 335/764/284
f 331/765/278 326/766/285 335/764/286 336/767/279
f 325/768/282 327/769/287 333/760/288 334/770/283
f 333/760/280 336/759/279 340/754/182 337/753/263
f 335/764/284 334/763/283 339/750/178 338/749/186
f 336/767/279 335/764/286 338/746/183 340/745/182
f 334/770/283 333/760/288 337/742/179 339/741/178
f 341/771/295 344/772/296 331/773/278 327/774/277
f 343/775/297 342/776/298 325/777/282 326/778/281
f 344/779/296 343/775/299 326/780/285 331/781/278
f 342/782/298 341/771/300 327/783/287 325/784/282
f 345/785/307 348/786/308 344/787/296 341/788/295
f 347/789/309 346/790/310 342/791/298 343/792/297
f 348/793/308 347/789/311 343/794/299 344/795/296
f 346/796/310 345/785/312 341/797/300 342/798/298
f 363/799/178 361/800/179 354/801/180 352/802/181
f 364/803/182 362/804/183 353/805/184 356/806/185
f 362/807/186 363/808/178 352/809/181 353/810/187
f 361/811/263 364/812/182 356/813/185 354/814/264
f 351/815/277 355/816/278 360/817/279 357/818/280
f 350/819/281 349/820/282 358/821/283 359/822/284
f 355/823/278 350/824/285 359/822/286 360/825/279
f 349/826/282 351/827/287 357/818/288 358/828/283
f 357/818/280 360/817/279 364/812/182 361/811/263
f 359/822/284 358/821/283 363/808/178 362/807/186
f 360/825/279 359/822/286 362/804/183 364/803/182
f 358/828/283 357/818/288 361/800/179 363/799/178
f 365/829/295 368/830/296 355/831/278 351/832/277
f 367/833/297 366/834/298 349/835/282 350/836/281
f 368/837/296 367/833/299 350/838/285 355/839/278
f 366/840/298 365/829/300 351/841/287 349/842/282
f 369/843/307 372/844/308 368/845/296 365/846/295
f 371/847/309 370/848/310 366/849/298 367/850/297
f 372/851/308 371/847/311 367/852/299 368/853/296
f 370/854/310 369/843/312 365/855/300 366/856/298
f 231/857/235 229/858/234 233/859/240 235/860/238
f 239/861/244 237/862/243 241/863/249 243/864/246
f 247/865/253 245/866/259 249/867/257 251/868/254
f 299/869/332 303/870/330 305/871/328 301/872/326
f 317/873/346 321/874/352 323/875/350 319/876/347
f 281/639/301 95/877/124 98/878/125 284/640/302
f 283/643/303 97/879/126 96/880/127 282/644/304
f 284/647/302 98/881/125 97/882/128 283/648/305
f 282/651/304 96/883/127 95/884/129 281/652/306
f 369/885/307 183/886/130 186/413/131 372/887/308
f 371/888/309 185/889/132 184/890/133 370/848/310
f 372/891/308 186/408/131 185/892/134 371/893/311
f 370/854/310 184/894/133 183/895/135 369/896/312
f 285/897/307 99/898/130 102/225/131 288/899/308
f 287/900/309 101/901/132 100/902/133 286/660/310
f 288/903/308 102/220/131 101/904/134 287/905/311
f 286/666/310 100/906/133 99/907/135 285/908/312
f 345/909/307 159/910/130 162/355/131 348/911/308
f 347/912/309 161/913/132 160/914/133 346/790/310
f 348/915/308 162/350/131 161/916/134 347/917/311
f 346/796/310 160/918/133 159/919/135 345/920/312
f 377/921/355 379/922/356 382/923/357 380/924/358
f 382/925/357 379/926/356 374/927/359
f 377/928/355 380/929/358 373/930/360
f 376/931/361 381/932/362 373/930/360
f 378/933/363 381/932/364 374/927/359
f 379/934/356 377/935/355 375/936/365
f 375/937/365 378/933/363 374/927/359
f 379/926/356 375/937/365 374/927/359
f 380/929/358 376/931/361 373/930/360
f 375/937/365 373/930/360 378/933/366
f 377/928/355 373/930/360 375/937/365
f 382/925/357 374/927/359 376/931/361
f 382/938/357 376/939/361 380/940/358
f 374/927/359 381/932/364 376/931/361
f 373/930/360 381/932/362 378/933/366
f 383/941/367 384/942/368 386/943/369 385/944/370
f 385/945/370 386/946/369 390/947/371 389/948/372
f 389/949/372 390/950/371 388/951/373 387/952/374
f 387/953/374 388/954/375 384/955/375 383/956/367
f 383/957/367 385/958/370 389/959/372 387/960/374
