# Blender v2.93.5 OBJ File: 'Modular Graveyard.blend'
# www.blender.org
mtllib TallRailing3.mtl
o TallRailing3_Circle.003
v 2.851080 0.182211 0.018813
v 2.851080 0.210148 0.000142
v 2.851080 0.154274 0.000142
v 0.147868 0.182211 0.018813
v 0.147868 0.210148 0.000142
v 0.147868 0.154274 0.000142
v 2.851080 2.259053 0.018813
v 2.851080 2.286990 0.000142
v 2.851080 2.231116 0.000142
v 0.147868 2.259053 0.018813
v 0.147868 2.286990 0.000142
v 0.147868 2.231116 0.000142
v 1.251616 2.488476 -0.051993
v 1.251616 2.488476 0.052207
v 1.325469 2.477323 0.000107
v 1.177763 2.477323 0.000107
v 1.283870 2.394248 -0.030726
v 1.264972 2.700284 0.000107
v 1.283870 2.394248 0.030940
v 1.219362 2.394248 -0.030726
v 1.238260 2.700284 0.000107
v 1.219362 2.394248 0.030940
v 0.219504 2.394248 0.030940
v 0.238402 2.700284 0.000107
v 0.219504 2.394248 -0.030726
v 0.284011 2.394248 0.030940
v 0.265113 2.700284 0.000107
v 0.284011 2.394248 -0.030726
v 0.177905 2.477323 0.000107
v 0.325610 2.477323 0.000107
v 0.251758 2.488476 0.052207
v 0.251758 2.488476 -0.051993
v 0.968611 2.394248 0.030940
v 0.987509 2.700284 0.000107
v 0.968611 2.394248 -0.030726
v 1.033119 2.394248 0.030940
v 1.014221 2.700284 0.000107
v 1.033119 2.394248 -0.030726
v 0.927012 2.477323 0.000107
v 1.074718 2.477323 0.000107
v 1.000865 2.488476 0.052207
v 1.000865 2.488476 -0.051993
v 0.750520 2.488476 -0.051993
v 0.750520 2.488476 0.052207
v 0.824373 2.477323 0.000107
v 0.676667 2.477323 0.000107
v 0.782774 2.394248 -0.030726
v 0.763876 2.700284 0.000107
v 0.782774 2.394248 0.030940
v 0.718266 2.394248 -0.030726
v 0.737164 2.700284 0.000107
v 0.718266 2.394248 0.030940
v 0.467691 2.394248 0.030940
v 0.486589 2.700284 0.000107
v 0.467691 2.394248 -0.030726
v 0.532199 2.394248 0.030940
v 0.513301 2.700284 0.000107
v 0.532199 2.394248 -0.030726
v 0.426092 2.477323 0.000107
v 0.573798 2.477323 0.000107
v 0.499945 2.488476 0.052207
v 0.499945 2.488476 -0.051993
v 0.221241 0.055823 0.000000
v 0.221241 2.401030 0.000000
v 0.251634 0.055823 -0.030394
v 0.251634 2.401030 -0.030394
v 0.251634 0.055823 0.030394
v 0.251634 2.401030 0.030394
v 0.282028 0.055823 0.000000
v 0.282028 2.401030 0.000000
v 0.469621 0.055823 0.000000
v 0.469621 2.401030 0.000000
v 0.500015 0.055823 -0.030394
v 0.500015 2.401030 -0.030394
v 0.500015 0.055823 0.030394
v 0.500015 2.401030 0.030394
v 0.530409 0.055823 0.000000
v 0.530409 2.401030 0.000000
v 0.720085 0.055823 0.000000
v 0.720085 2.401030 0.000000
v 0.750479 0.055823 -0.030394
v 0.750479 2.401030 -0.030394
v 0.750479 0.055823 0.030394
v 0.750479 2.401030 0.030394
v 0.780873 0.055823 0.000000
v 0.780873 2.401030 0.000000
v 0.970473 0.055823 0.000000
v 0.970473 2.401030 0.000000
v 1.000867 0.055823 -0.030394
v 1.000867 2.401030 -0.030394
v 1.000867 0.055823 0.030394
v 1.000867 2.401030 0.030394
v 1.031261 0.055823 0.000000
v 1.031261 2.401030 0.000000
v 1.221160 0.055823 0.000000
v 1.221160 2.401030 0.000000
v 1.251554 0.055823 -0.030394
v 1.251554 2.401030 -0.030394
v 1.251554 0.055823 0.030394
v 1.251554 2.401030 0.030394
v 1.281947 0.055823 0.000000
v 1.281947 2.401030 0.000000
v 2.851080 2.259053 -0.018117
v 0.147868 2.259053 -0.018117
v 2.851080 0.182211 -0.018117
v 0.147868 0.182211 -0.018117
v 2.851080 2.059053 0.018813
v 2.851080 2.086990 0.000142
v 2.851080 2.031116 0.000142
v 0.147868 2.059053 0.018813
v 0.147868 2.086990 0.000142
v 0.147868 2.031116 0.000142
v 2.851080 2.059053 -0.018117
v 0.147868 2.059053 -0.018117
v 0.147868 0.359053 -0.018117
v 2.851080 0.359053 -0.018117
v 0.147868 0.331115 0.000142
v 0.147868 0.386990 0.000142
v 0.147868 0.359053 0.018813
v 2.851080 0.331115 0.000142
v 2.851080 0.386990 0.000142
v 2.851080 0.359053 0.018813
v 1.718160 2.394248 0.030940
v 1.737058 2.700284 0.000107
v 1.718160 2.394248 -0.030726
v 1.782668 2.394248 0.030940
v 1.763770 2.700284 0.000107
v 1.782668 2.394248 -0.030726
v 1.676561 2.477323 0.000107
v 1.824267 2.477323 0.000107
v 1.750414 2.488476 0.052207
v 1.750414 2.488476 -0.051993
v 2.467785 2.394248 0.030940
v 2.486683 2.700284 0.000107
v 2.467785 2.394248 -0.030726
v 2.532293 2.394248 0.030940
v 2.513395 2.700284 0.000107
v 2.532293 2.394248 -0.030726
v 2.426186 2.477323 0.000107
v 2.573892 2.477323 0.000107
v 2.500039 2.488476 0.052207
v 2.500039 2.488476 -0.051993
v 2.251553 2.488476 -0.051993
v 2.251553 2.488476 0.052207
v 2.325405 2.477323 0.000107
v 2.177700 2.477323 0.000107
v 2.283806 2.394248 -0.030726
v 2.264908 2.700284 0.000107
v 2.283806 2.394248 0.030940
v 2.219298 2.394248 -0.030726
v 2.238196 2.700284 0.000107
v 2.219298 2.394248 0.030940
v 1.968570 2.394248 0.030940
v 1.987468 2.700284 0.000107
v 1.968570 2.394248 -0.030726
v 2.033078 2.394248 0.030940
v 2.014180 2.700284 0.000107
v 2.033078 2.394248 -0.030726
v 1.926971 2.477323 0.000107
v 2.074677 2.477323 0.000107
v 2.000824 2.488476 0.052207
v 2.000824 2.488476 -0.051993
v 1.500093 2.488476 -0.051993
v 1.500093 2.488476 0.052207
v 1.573946 2.477323 0.000107
v 1.426240 2.477323 0.000107
v 1.532347 2.394248 -0.030726
v 1.513449 2.700284 0.000107
v 1.532347 2.394248 0.030940
v 1.467839 2.394248 -0.030726
v 1.486737 2.700284 0.000107
v 1.467839 2.394248 0.030940
v 1.719897 0.055823 0.000000
v 1.719897 2.401030 0.000000
v 1.750290 0.055823 -0.030394
v 1.750290 2.401030 -0.030394
v 1.750290 0.055823 0.030394
v 1.750290 2.401030 0.030394
v 1.780684 0.055823 0.000000
v 1.780684 2.401030 0.000000
v 1.469693 0.055823 0.000000
v 1.469693 2.401030 0.000000
v 1.500087 0.055823 -0.030394
v 1.500087 2.401030 -0.030394
v 1.500087 0.055823 0.030394
v 1.500087 2.401030 0.030394
v 1.530481 0.055823 0.000000
v 1.530481 2.401030 0.000000
v 1.970500 0.055823 0.000000
v 1.970500 2.401030 0.000000
v 2.000894 0.055823 -0.030394
v 2.000894 2.401030 -0.030394
v 2.000894 0.055823 0.030394
v 2.000894 2.401030 0.030394
v 2.031287 0.055823 0.000000
v 2.031287 2.401030 0.000000
v 2.221118 0.055823 0.000000
v 2.221118 2.401030 0.000000
v 2.251512 0.055823 -0.030394
v 2.251512 2.401030 -0.030394
v 2.251512 0.055823 0.030394
v 2.251512 2.401030 0.030394
v 2.281905 0.055823 0.000000
v 2.281905 2.401030 0.000000
v 2.469648 0.055823 0.000000
v 2.469648 2.401030 0.000000
v 2.500041 0.055823 -0.030394
v 2.500041 2.401030 -0.030394
v 2.500041 0.055823 0.030394
v 2.500041 2.401030 0.030394
v 2.530435 0.055823 0.000000
v 2.530435 2.401030 0.000000
v 2.718194 2.394248 0.030940
v 2.737092 2.700284 0.000107
v 2.718194 2.394248 -0.030726
v 2.782701 2.394248 0.030940
v 2.763803 2.700284 0.000107
v 2.782701 2.394248 -0.030726
v 2.676594 2.477323 0.000107
v 2.824300 2.477323 0.000107
v 2.750448 2.488476 0.052207
v 2.750448 2.488476 -0.051993
v 2.720123 0.055823 0.000000
v 2.720123 2.401030 0.000000
v 2.750517 0.055823 -0.030394
v 2.750517 2.401030 -0.030394
v 2.750517 0.055823 0.030394
v 2.750517 2.401030 0.030394
v 2.780910 0.055823 0.000000
v 2.780910 2.401030 0.000000
vt 0.843750 0.328125
vt 0.843750 0.492188
vt 0.828125 0.492188
vt 0.828125 0.328125
vt 0.843750 0.328125
vt 0.843750 0.492188
vt 0.828125 0.492188
vt 0.828125 0.328125
vt 0.843750 0.328125
vt 0.843750 0.492188
vt 0.828125 0.492188
vt 0.828125 0.328125
vt 0.843750 0.328125
vt 0.843750 0.492188
vt 0.828125 0.492188
vt 0.828125 0.328125
vt 0.828125 0.492188
vt 0.828125 0.328125
vt 0.843750 0.328125
vt 0.843750 0.492188
vt 0.843750 0.328125
vt 0.843750 0.492188
vt 0.828125 0.492188
vt 0.828125 0.328125
vt 0.882812 0.472656
vt 0.882812 0.472656
vt 0.859375 0.472656
vt 0.859375 0.472656
vt 0.867188 0.484375
vt 0.867188 0.484375
vt 0.851562 0.484375
vt 0.867188 0.503906
vt 0.867188 0.503906
vt 0.859375 0.402344
vt 0.882812 0.402344
vt 0.859375 0.421875
vt 0.890625 0.484375
vt 0.882812 0.402344
vt 0.859375 0.421875
vt 0.859375 0.402344
vt 0.867188 0.484375
vt 0.867188 0.503906
vt 0.867188 0.503906
vt 0.867188 0.484375
vt 0.851562 0.484375
vt 0.882812 0.402344
vt 0.859375 0.421875
vt 0.859375 0.402344
vt 0.859375 0.472656
vt 0.882812 0.472656
vt 0.890625 0.484375
vt 0.859375 0.472656
vt 0.882812 0.472656
vt 0.859375 0.402344
vt 0.882812 0.402344
vt 0.859375 0.421875
vt 0.867188 0.484375
vt 0.867188 0.503906
vt 0.867188 0.503906
vt 0.867188 0.484375
vt 0.851562 0.484375
vt 0.882812 0.402344
vt 0.859375 0.421875
vt 0.859375 0.402344
vt 0.859375 0.472656
vt 0.882812 0.472656
vt 0.890625 0.484375
vt 0.859375 0.472656
vt 0.882812 0.472656
vt 0.859375 0.402344
vt 0.882812 0.402344
vt 0.859375 0.421875
vt 0.882812 0.472656
vt 0.882812 0.472656
vt 0.859375 0.472656
vt 0.859375 0.472656
vt 0.867188 0.484375
vt 0.867188 0.484375
vt 0.851562 0.484375
vt 0.867188 0.503906
vt 0.867188 0.503906
vt 0.859375 0.402344
vt 0.882812 0.402344
vt 0.859375 0.421875
vt 0.890625 0.484375
vt 0.882812 0.402344
vt 0.859375 0.421875
vt 0.859375 0.402344
vt 0.867188 0.484375
vt 0.867188 0.503906
vt 0.867188 0.503906
vt 0.867188 0.484375
vt 0.851562 0.484375
vt 0.882812 0.402344
vt 0.859375 0.421875
vt 0.859375 0.402344
vt 0.859375 0.472656
vt 0.882812 0.472656
vt 0.890625 0.484375
vt 0.859375 0.472656
vt 0.882812 0.472656
vt 0.859375 0.402344
vt 0.882812 0.402344
vt 0.859375 0.421875
vt 0.843750 0.328125
vt 0.843750 0.492188
vt 0.828125 0.492188
vt 0.828125 0.328125
vt 0.828125 0.492188
vt 0.828125 0.328125
vt 0.843750 0.328125
vt 0.843750 0.492188
vt 0.843750 0.328125
vt 0.843750 0.492188
vt 0.828125 0.492188
vt 0.828125 0.328125
vt 0.828125 0.492188
vt 0.828125 0.328125
vt 0.843750 0.328125
vt 0.843750 0.492188
vt 0.843750 0.328125
vt 0.843750 0.492188
vt 0.828125 0.492188
vt 0.828125 0.328125
vt 0.828125 0.492188
vt 0.828125 0.328125
vt 0.843750 0.328125
vt 0.843750 0.492188
vt 0.843750 0.328125
vt 0.843750 0.492188
vt 0.828125 0.492188
vt 0.828125 0.328125
vt 0.828125 0.492188
vt 0.828125 0.328125
vt 0.843750 0.328125
vt 0.843750 0.492188
vt 0.843750 0.328125
vt 0.843750 0.492188
vt 0.828125 0.492188
vt 0.828125 0.328125
vt 0.828125 0.492188
vt 0.828125 0.328125
vt 0.843750 0.328125
vt 0.843750 0.492188
vt 0.843750 0.328125
vt 0.843750 0.492188
vt 0.828125 0.492188
vt 0.828125 0.328125
vt 0.828125 0.492188
vt 0.828125 0.328125
vt 0.843750 0.328125
vt 0.843750 0.492188
vt 0.843750 0.328125
vt 0.843750 0.492188
vt 0.828125 0.492188
vt 0.828125 0.328125
vt 0.828125 0.492188
vt 0.828125 0.328125
vt 0.843750 0.328125
vt 0.843750 0.492188
vt 0.843750 0.328125
vt 0.843750 0.492188
vt 0.828125 0.492188
vt 0.828125 0.328125
vt 0.828125 0.492188
vt 0.828125 0.328125
vt 0.843750 0.328125
vt 0.843750 0.492188
vt 0.843750 0.328125
vt 0.843750 0.492188
vt 0.828125 0.492188
vt 0.828125 0.328125
vt 0.828125 0.492188
vt 0.828125 0.328125
vt 0.843750 0.328125
vt 0.843750 0.492188
vt 0.843750 0.328125
vt 0.843750 0.492188
vt 0.828125 0.492188
vt 0.828125 0.328125
vt 0.828125 0.492188
vt 0.828125 0.328125
vt 0.843750 0.328125
vt 0.843750 0.492188
vt 0.828125 0.492188
vt 0.828125 0.328125
vt 0.843750 0.328125
vt 0.843750 0.492188
vt 0.843750 0.328125
vt 0.843750 0.492188
vt 0.828125 0.492188
vt 0.828125 0.328125
vt 0.843750 0.328125
vt 0.843750 0.492188
vt 0.828125 0.492188
vt 0.828125 0.328125
vt 0.828125 0.492188
vt 0.828125 0.328125
vt 0.843750 0.328125
vt 0.843750 0.492188
vt 0.843750 0.328125
vt 0.843750 0.492188
vt 0.828125 0.492188
vt 0.828125 0.328125
vt 0.828125 0.492188
vt 0.828125 0.328125
vt 0.843750 0.328125
vt 0.843750 0.492188
vt 0.843750 0.328125
vt 0.843750 0.492188
vt 0.828125 0.492188
vt 0.828125 0.328125
vt 0.828125 0.492188
vt 0.828125 0.328125
vt 0.843750 0.328125
vt 0.843750 0.492188
vt 0.828125 0.492188
vt 0.828125 0.328125
vt 0.843750 0.328125
vt 0.843750 0.492188
vt 0.843750 0.328125
vt 0.843750 0.492188
vt 0.828125 0.492188
vt 0.828125 0.328125
vt 0.867188 0.484375
vt 0.867188 0.503906
vt 0.867188 0.503906
vt 0.867188 0.484375
vt 0.851562 0.484375
vt 0.882812 0.402344
vt 0.859375 0.421875
vt 0.859375 0.402344
vt 0.859375 0.472656
vt 0.882812 0.472656
vt 0.890625 0.484375
vt 0.859375 0.472656
vt 0.882812 0.472656
vt 0.859375 0.402344
vt 0.882812 0.402344
vt 0.859375 0.421875
vt 0.867188 0.484375
vt 0.867188 0.503906
vt 0.867188 0.503906
vt 0.867188 0.484375
vt 0.851562 0.484375
vt 0.882812 0.402344
vt 0.859375 0.421875
vt 0.859375 0.402344
vt 0.859375 0.472656
vt 0.882812 0.472656
vt 0.890625 0.484375
vt 0.859375 0.472656
vt 0.882812 0.472656
vt 0.859375 0.402344
vt 0.882812 0.402344
vt 0.859375 0.421875
vt 0.882812 0.472656
vt 0.882812 0.472656
vt 0.859375 0.472656
vt 0.859375 0.472656
vt 0.867188 0.484375
vt 0.867188 0.484375
vt 0.851562 0.484375
vt 0.867188 0.503906
vt 0.867188 0.503906
vt 0.859375 0.402344
vt 0.882812 0.402344
vt 0.859375 0.421875
vt 0.890625 0.484375
vt 0.882812 0.402344
vt 0.859375 0.421875
vt 0.859375 0.402344
vt 0.867188 0.484375
vt 0.867188 0.503906
vt 0.867188 0.503906
vt 0.867188 0.484375
vt 0.851562 0.484375
vt 0.882812 0.402344
vt 0.859375 0.421875
vt 0.859375 0.402344
vt 0.859375 0.472656
vt 0.882812 0.472656
vt 0.890625 0.484375
vt 0.859375 0.472656
vt 0.882812 0.472656
vt 0.859375 0.402344
vt 0.882812 0.402344
vt 0.859375 0.421875
vt 0.882812 0.472656
vt 0.882812 0.472656
vt 0.859375 0.472656
vt 0.859375 0.472656
vt 0.867188 0.484375
vt 0.867188 0.484375
vt 0.851562 0.484375
vt 0.867188 0.503906
vt 0.867188 0.503906
vt 0.859375 0.402344
vt 0.882812 0.402344
vt 0.859375 0.421875
vt 0.890625 0.484375
vt 0.882812 0.402344
vt 0.859375 0.421875
vt 0.859375 0.402344
vt 0.843750 0.328125
vt 0.843750 0.492188
vt 0.828125 0.492188
vt 0.828125 0.328125
vt 0.828125 0.492188
vt 0.828125 0.328125
vt 0.843750 0.328125
vt 0.843750 0.492188
vt 0.843750 0.328125
vt 0.843750 0.492188
vt 0.828125 0.492188
vt 0.828125 0.328125
vt 0.828125 0.492188
vt 0.828125 0.328125
vt 0.843750 0.328125
vt 0.843750 0.492188
vt 0.843750 0.328125
vt 0.843750 0.492188
vt 0.828125 0.492188
vt 0.828125 0.328125
vt 0.828125 0.492188
vt 0.828125 0.328125
vt 0.843750 0.328125
vt 0.843750 0.492188
vt 0.843750 0.328125
vt 0.843750 0.492188
vt 0.828125 0.492188
vt 0.828125 0.328125
vt 0.828125 0.492188
vt 0.828125 0.328125
vt 0.843750 0.328125
vt 0.843750 0.492188
vt 0.843750 0.328125
vt 0.843750 0.492188
vt 0.828125 0.492188
vt 0.828125 0.328125
vt 0.828125 0.492188
vt 0.828125 0.328125
vt 0.843750 0.328125
vt 0.843750 0.492188
vt 0.843750 0.328125
vt 0.843750 0.492188
vt 0.828125 0.492188
vt 0.828125 0.328125
vt 0.828125 0.492188
vt 0.828125 0.328125
vt 0.843750 0.328125
vt 0.843750 0.492188
vt 0.843750 0.328125
vt 0.843750 0.492188
vt 0.828125 0.492188
vt 0.828125 0.328125
vt 0.828125 0.492188
vt 0.828125 0.328125
vt 0.843750 0.328125
vt 0.843750 0.492188
vt 0.843750 0.328125
vt 0.843750 0.492188
vt 0.828125 0.492188
vt 0.828125 0.328125
vt 0.828125 0.492188
vt 0.828125 0.328125
vt 0.843750 0.328125
vt 0.843750 0.492188
vt 0.843750 0.328125
vt 0.843750 0.492188
vt 0.828125 0.492188
vt 0.828125 0.328125
vt 0.828125 0.492188
vt 0.828125 0.328125
vt 0.843750 0.328125
vt 0.843750 0.492188
vt 0.843750 0.328125
vt 0.843750 0.492188
vt 0.828125 0.492188
vt 0.828125 0.328125
vt 0.828125 0.492188
vt 0.828125 0.328125
vt 0.843750 0.328125
vt 0.843750 0.492188
vt 0.843750 0.503906
vt 0.828125 0.503906
vt 0.843750 0.492188
vt 0.843750 0.503906
vt 0.828125 0.503906
vt 0.828125 0.492188
vt 0.843750 0.503906
vt 0.828125 0.503906
vt 0.843750 0.503906
vt 0.828125 0.503906
vt 0.828125 0.503906
vt 0.828125 0.492188
vt 0.843750 0.492188
vt 0.843750 0.503906
vt 0.843750 0.503906
vt 0.828125 0.503906
vt 0.828125 0.492188
vt 0.843750 0.492188
vt 0.828125 0.503906
vt 0.843750 0.503906
vt 0.843750 0.503906
vt 0.828125 0.503906
vt 0.828125 0.492188
vt 0.843750 0.492188
vt 0.828125 0.503906
vt 0.843750 0.503906
vt 0.843750 0.503906
vt 0.828125 0.503906
vt 0.867188 0.484375
vt 0.867188 0.503906
vt 0.867188 0.503906
vt 0.867188 0.484375
vt 0.851562 0.484375
vt 0.882812 0.402344
vt 0.859375 0.421875
vt 0.859375 0.402344
vt 0.859375 0.472656
vt 0.882812 0.472656
vt 0.890625 0.484375
vt 0.859375 0.472656
vt 0.882812 0.472656
vt 0.859375 0.402344
vt 0.882812 0.402344
vt 0.859375 0.421875
vt 0.843750 0.328125
vt 0.843750 0.492188
vt 0.828125 0.492188
vt 0.828125 0.328125
vt 0.828125 0.492188
vt 0.828125 0.328125
vt 0.843750 0.328125
vt 0.843750 0.492188
vt 0.843750 0.328125
vt 0.843750 0.492188
vt 0.828125 0.492188
vt 0.828125 0.328125
vt 0.828125 0.492188
vt 0.828125 0.328125
vt 0.843750 0.328125
vt 0.843750 0.492188
vt 0.843750 0.503906
vt 0.828125 0.503906
vt 0.828125 0.492188
vt 0.843750 0.492188
vn 0.0000 0.0000 1.0000
vn 0.0000 -0.5557 0.8314
vn -0.0000 -0.0000 -1.0000
vn -0.0000 0.5471 -0.8371
vn 0.0000 0.5557 0.8314
vn 0.4717 -0.6779 -0.5638
vn 0.4717 -0.6779 0.5638
vn -0.4717 -0.6779 0.5638
vn -0.4717 -0.6779 -0.5638
vn -0.0000 0.0806 0.9967
vn -0.0000 0.0806 -0.9967
vn -0.9992 0.0407 0.0000
vn -0.1277 0.2293 -0.9649
vn 0.1277 0.2293 0.9649
vn -0.1277 0.2293 0.9649
vn 0.9992 0.0407 0.0000
vn 0.1277 0.2293 -0.9649
vn 0.0000 0.0806 0.9968
vn -0.8165 -0.5774 -0.0000
vn -1.0000 0.0000 -0.0000
vn -0.0000 -0.5774 -0.8165
vn 0.7071 0.0000 -0.7071
vn 0.5000 -0.7071 -0.5000
vn 0.7071 0.0000 0.7071
vn -0.5000 -0.7071 -0.5000
vn -0.7071 0.0000 -0.7071
vn 1.0000 0.0000 0.0000
vn 0.8165 -0.5774 0.0000
vn -0.7071 0.0000 0.7071
vn -0.0000 -0.5774 0.8165
vn -0.0000 -0.5471 -0.8371
vn 0.0000 0.0806 -0.9968
vn 0.8165 -0.5773 0.0000
vn -0.8165 -0.5773 -0.0000
vn -0.0000 -0.5773 0.8165
vn 0.0000 -1.0000 -0.0000
usemtl Material.001
s 1
f 1/1/1 4/2/1 6/3/2 3/4/2
f 105/5/3 106/6/3 5/7/4 2/8/4
f 2/9/5 5/10/5 4/11/1 1/12/1
f 7/13/1 10/14/1 12/15/2 9/16/2
f 103/17/3 104/18/3 11/19/4 8/20/4
f 8/21/5 11/22/5 10/23/1 7/24/1
f 17/25/6 19/26/7 22/27/8 20/28/9
f 22/27/8 19/26/7 14/29/10
f 17/25/6 20/28/9 13/30/11
f 16/31/12 21/32/13 13/30/11
f 18/33/14 21/32/15 14/29/10
f 19/34/7 17/35/6 15/36/16
f 15/37/16 18/33/14 14/29/10
f 19/26/7 15/37/16 14/29/10
f 20/28/9 16/31/12 13/30/11
f 15/37/16 13/30/11 18/33/17
f 17/25/6 13/30/11 15/37/16
f 22/27/8 14/29/10 16/31/12
f 22/38/8 16/39/12 20/40/9
f 14/29/10 21/32/15 16/31/12
f 13/30/11 21/32/13 18/33/17
f 32/41/11 24/42/13 27/43/17
f 31/44/18 24/42/15 29/45/12
f 23/46/8 29/47/12 25/48/9
f 23/49/8 31/44/18 29/45/12
f 28/50/6 32/41/11 30/51/16
f 30/51/16 32/41/11 27/43/17
f 25/52/9 29/45/12 32/41/11
f 26/53/7 30/51/16 31/44/18
f 30/51/16 27/43/14 31/44/18
f 26/54/7 28/55/6 30/56/16
f 27/43/14 24/42/15 31/44/18
f 29/45/12 24/42/13 32/41/11
f 28/50/6 25/52/9 32/41/11
f 23/49/8 26/53/7 31/44/18
f 28/50/6 26/53/7 23/49/8 25/52/9
f 42/57/11 34/58/13 37/59/17
f 41/60/10 34/58/15 39/61/12
f 33/62/8 39/63/12 35/64/9
f 33/65/8 41/60/10 39/61/12
f 38/66/6 42/57/11 40/67/16
f 40/67/16 42/57/11 37/59/17
f 35/68/9 39/61/12 42/57/11
f 36/69/7 40/67/16 41/60/10
f 40/67/16 37/59/14 41/60/10
f 36/70/7 38/71/6 40/72/16
f 37/59/14 34/58/15 41/60/10
f 39/61/12 34/58/13 42/57/11
f 38/66/6 35/68/9 42/57/11
f 33/65/8 36/69/7 41/60/10
f 38/66/6 36/69/7 33/65/8 35/68/9
f 47/73/6 49/74/7 52/75/8 50/76/9
f 52/75/8 49/74/7 44/77/18
f 47/73/6 50/76/9 43/78/11
f 46/79/12 51/80/13 43/78/11
f 48/81/14 51/80/15 44/77/18
f 49/82/7 47/83/6 45/84/16
f 45/85/16 48/81/14 44/77/18
f 49/74/7 45/85/16 44/77/18
f 50/76/9 46/79/12 43/78/11
f 45/85/16 43/78/11 48/81/17
f 47/73/6 43/78/11 45/85/16
f 52/75/8 44/77/18 46/79/12
f 52/86/8 46/87/12 50/88/9
f 44/77/18 51/80/15 46/79/12
f 43/78/11 51/80/13 48/81/17
f 62/89/11 54/90/13 57/91/17
f 61/92/10 54/90/15 59/93/12
f 53/94/8 59/95/12 55/96/9
f 53/97/8 61/92/10 59/93/12
f 58/98/6 62/89/11 60/99/16
f 60/99/16 62/89/11 57/91/17
f 55/100/9 59/93/12 62/89/11
f 56/101/7 60/99/16 61/92/10
f 60/99/16 57/91/14 61/92/10
f 56/102/7 58/103/6 60/104/16
f 57/91/14 54/90/15 61/92/10
f 59/93/12 54/90/13 62/89/11
f 58/98/6 55/100/9 62/89/11
f 53/97/8 56/101/7 61/92/10
f 58/98/6 56/101/7 53/97/8 55/100/9
f 63/105/19 64/106/20 66/107/3 65/108/21
f 65/109/21 66/110/3 70/111/22 69/112/23
f 69/113/24 70/114/24 68/115/1 67/116/1
f 67/117/1 68/118/1 64/119/20 63/120/19
f 71/121/25 72/122/26 74/123/3 73/124/21
f 73/125/21 74/126/3 78/127/27 77/128/28
f 77/129/28 78/130/27 76/131/1 75/132/1
f 75/133/1 76/134/1 72/135/29 71/136/29
f 79/137/25 80/138/26 82/139/26 81/140/21
f 81/141/21 82/142/22 86/143/27 85/144/28
f 85/145/28 86/146/27 84/147/24 83/148/24
f 83/149/29 84/150/29 80/151/29 79/152/29
f 87/153/19 88/154/26 90/155/3 89/156/21
f 89/157/21 90/158/3 94/159/22 93/160/28
f 93/161/28 94/162/24 92/163/1 91/164/30
f 91/165/30 92/166/1 88/167/29 87/168/19
f 95/169/19 96/170/26 98/171/26 97/172/21
f 97/173/21 98/174/22 102/175/27 101/176/28
f 101/177/28 102/178/27 100/179/24 99/180/30
f 99/181/30 100/182/29 96/183/29 95/184/19
f 9/185/31 12/186/31 104/187/3 103/188/3
f 3/189/31 6/190/31 106/191/3 105/192/3
f 107/193/1 110/194/1 112/195/2 109/196/2
f 113/197/3 114/198/3 111/199/4 108/200/4
f 108/201/5 111/202/5 110/203/1 107/204/1
f 109/205/31 112/206/31 114/207/3 113/208/3
f 121/209/5 118/210/5 119/211/1 122/212/1
f 116/213/3 115/214/3 118/215/4 121/216/4
f 120/217/31 117/218/31 115/219/3 116/220/3
f 122/221/1 119/222/1 117/223/2 120/224/2
f 132/225/11 124/226/13 127/227/17
f 131/228/18 124/226/15 129/229/12
f 123/230/8 129/231/12 125/232/9
f 123/233/8 131/228/18 129/229/12
f 128/234/6 132/225/11 130/235/16
f 130/235/16 132/225/11 127/227/17
f 125/236/9 129/229/12 132/225/11
f 126/237/7 130/235/16 131/228/18
f 130/235/16 127/227/14 131/228/18
f 126/238/7 128/239/6 130/240/16
f 127/227/14 124/226/15 131/228/18
f 129/229/12 124/226/13 132/225/11
f 128/234/6 125/236/9 132/225/11
f 123/233/8 126/237/7 131/228/18
f 128/234/6 126/237/7 123/233/8 125/236/9
f 142/241/11 134/242/13 137/243/17
f 141/244/18 134/242/15 139/245/12
f 133/246/8 139/247/12 135/248/9
f 133/249/8 141/244/18 139/245/12
f 138/250/6 142/241/11 140/251/16
f 140/251/16 142/241/11 137/243/17
f 135/252/9 139/245/12 142/241/11
f 136/253/7 140/251/16 141/244/18
f 140/251/16 137/243/14 141/244/18
f 136/254/7 138/255/6 140/256/16
f 137/243/14 134/242/15 141/244/18
f 139/245/12 134/242/13 142/241/11
f 138/250/6 135/252/9 142/241/11
f 133/249/8 136/253/7 141/244/18
f 138/250/6 136/253/7 133/249/8 135/252/9
f 147/257/6 149/258/7 152/259/8 150/260/9
f 152/259/8 149/258/7 144/261/10
f 147/257/6 150/260/9 143/262/32
f 146/263/12 151/264/13 143/262/32
f 148/265/14 151/264/15 144/261/10
f 149/266/7 147/267/6 145/268/16
f 145/269/16 148/265/14 144/261/10
f 149/258/7 145/269/16 144/261/10
f 150/260/9 146/263/12 143/262/32
f 145/269/16 143/262/32 148/265/17
f 147/257/6 143/262/32 145/269/16
f 152/259/8 144/261/10 146/263/12
f 152/270/8 146/271/12 150/272/9
f 144/261/10 151/264/15 146/263/12
f 143/262/32 151/264/13 148/265/17
f 162/273/11 154/274/13 157/275/17
f 161/276/18 154/274/15 159/277/12
f 153/278/8 159/279/12 155/280/9
f 153/281/8 161/276/18 159/277/12
f 158/282/6 162/273/11 160/283/16
f 160/283/16 162/273/11 157/275/17
f 155/284/9 159/277/12 162/273/11
f 156/285/7 160/283/16 161/276/18
f 160/283/16 157/275/14 161/276/18
f 156/286/7 158/287/6 160/288/16
f 157/275/14 154/274/15 161/276/18
f 159/277/12 154/274/13 162/273/11
f 158/282/6 155/284/9 162/273/11
f 153/281/8 156/285/7 161/276/18
f 158/282/6 156/285/7 153/281/8 155/284/9
f 167/289/6 169/290/7 172/291/8 170/292/9
f 172/291/8 169/290/7 164/293/18
f 167/289/6 170/292/9 163/294/11
f 166/295/12 171/296/13 163/294/11
f 168/297/14 171/296/15 164/293/18
f 169/298/7 167/299/6 165/300/16
f 165/301/16 168/297/14 164/293/18
f 169/290/7 165/301/16 164/293/18
f 170/292/9 166/295/12 163/294/11
f 165/301/16 163/294/11 168/297/17
f 167/289/6 163/294/11 165/301/16
f 172/291/8 164/293/18 166/295/12
f 172/302/8 166/303/12 170/304/9
f 164/293/18 171/296/15 166/295/12
f 163/294/11 171/296/13 168/297/17
f 173/305/19 174/306/20 176/307/3 175/308/21
f 175/309/21 176/310/3 180/311/22 179/312/33
f 179/313/33 180/314/24 178/315/1 177/316/30
f 177/317/30 178/318/1 174/319/20 173/320/19
f 181/321/19 182/322/26 184/323/3 183/324/21
f 183/325/21 184/326/3 188/327/27 187/328/28
f 187/329/28 188/330/27 186/331/1 185/332/30
f 185/333/30 186/334/1 182/335/29 181/336/19
f 189/337/34 190/338/26 192/339/26 191/340/21
f 191/341/21 192/342/22 196/343/27 195/344/28
f 195/345/28 196/346/27 194/347/24 193/348/30
f 193/349/30 194/350/29 190/351/29 189/352/34
f 197/353/19 198/354/20 200/355/26 199/356/21
f 199/357/21 200/358/22 204/359/27 203/360/28
f 203/361/28 204/362/27 202/363/24 201/364/35
f 201/365/35 202/366/29 198/367/20 197/368/19
f 205/369/19 206/370/20 208/371/3 207/372/21
f 207/373/21 208/374/3 212/375/22 211/376/33
f 211/377/33 212/378/24 210/379/1 209/380/30
f 209/381/30 210/382/1 206/383/20 205/384/19
f 65/385/21 69/386/23 67/117/36 63/120/19
f 73/387/21 77/388/28 75/389/36 71/390/25
f 81/141/21 85/144/28 83/391/36 79/392/25
f 89/157/21 93/160/28 91/393/30 87/394/19
f 97/395/21 101/396/28 99/397/30 95/398/19
f 181/399/19 183/400/21 187/401/28 185/402/30
f 173/403/19 175/309/21 179/312/33 177/404/30
f 189/405/34 191/406/21 195/407/28 193/408/30
f 197/409/19 199/357/21 203/360/28 201/410/35
f 205/384/19 207/411/21 211/412/33 209/381/30
f 222/413/11 214/414/13 217/415/17
f 221/416/10 214/414/15 219/417/12
f 213/418/8 219/419/12 215/420/9
f 213/421/8 221/416/10 219/417/12
f 218/422/6 222/413/11 220/423/16
f 220/423/16 222/413/11 217/415/17
f 215/424/9 219/417/12 222/413/11
f 216/425/7 220/423/16 221/416/10
f 220/423/16 217/415/14 221/416/10
f 216/426/7 218/427/6 220/428/16
f 217/415/14 214/414/15 221/416/10
f 219/417/12 214/414/13 222/413/11
f 218/422/6 215/424/9 222/413/11
f 213/421/8 216/425/7 221/416/10
f 218/422/6 216/425/7 213/421/8 215/424/9
f 223/429/34 224/430/26 226/431/26 225/432/21
f 225/433/21 226/434/22 230/435/27 229/436/28
f 229/437/28 230/438/27 228/439/24 227/440/30
f 227/441/30 228/442/29 224/443/29 223/444/34
f 223/445/34 225/446/21 229/447/28 227/448/30
