# Blender v2.93.5 OBJ File: 'Modular Graveyard.blend'
# www.blender.org
mtllib TallRailingPillar.mtl
o TallRailingPillar_Circle.002
v 0.149626 0.182211 0.168813
v 0.149626 0.210148 0.150142
v 0.149626 0.154274 0.150142
v -0.148103 0.182211 0.168813
v -0.148103 0.210148 0.150142
v -0.148103 0.154274 0.150142
v 0.149626 2.259053 0.168813
v 0.149626 2.286990 0.150142
v 0.149626 2.231116 0.150142
v -0.148103 2.259053 0.168813
v -0.148103 2.286990 0.150142
v -0.148103 2.231116 0.150142
v 0.117574 2.394248 0.180940
v 0.136472 2.700284 0.150107
v 0.117574 2.394248 0.119274
v 0.182082 2.394248 0.180940
v 0.163184 2.700284 0.150107
v 0.182082 2.394248 0.119274
v 0.075975 2.477323 0.150107
v 0.223681 2.477323 0.150107
v 0.149828 2.488476 0.202207
v 0.149828 2.488476 0.098007
v -0.148934 2.488476 0.098007
v -0.148934 2.488476 0.202207
v -0.075081 2.477323 0.150107
v -0.222787 2.477323 0.150107
v -0.116680 2.394248 0.119274
v -0.135578 2.700284 0.150107
v -0.116680 2.394248 0.180940
v -0.181188 2.394248 0.119274
v -0.162290 2.700284 0.150107
v -0.181188 2.394248 0.180940
v 0.119311 -0.002187 0.150000
v 0.119311 2.401030 0.150000
v 0.149704 -0.002187 0.119606
v 0.149704 2.401030 0.119606
v 0.149704 -0.002187 0.180394
v 0.149704 2.401030 0.180394
v 0.180098 -0.002187 0.150000
v 0.180098 2.401030 0.150000
v -0.179334 -0.002187 0.150000
v -0.179334 2.401030 0.150000
v -0.148940 -0.002187 0.119606
v -0.148940 2.401030 0.119606
v -0.148940 -0.002187 0.180394
v -0.148940 2.401030 0.180394
v -0.118546 -0.002187 0.150000
v -0.118546 2.401030 0.150000
v 0.149626 2.259053 0.131883
v -0.148103 2.259053 0.131883
v 0.149626 0.182211 0.131883
v -0.148103 0.182211 0.131883
v 0.149626 0.182211 -0.131187
v 0.149626 0.210148 -0.149858
v 0.149626 0.154274 -0.149858
v -0.148103 0.182211 -0.131187
v -0.148103 0.210148 -0.149858
v -0.148103 0.154274 -0.149858
v 0.149626 2.259053 -0.131187
v 0.149626 2.286990 -0.149858
v 0.149626 2.231116 -0.149858
v -0.148103 2.259053 -0.131187
v -0.148103 2.286990 -0.149858
v -0.148103 2.231116 -0.149858
v 0.117574 2.394248 -0.119060
v 0.136472 2.700284 -0.149893
v 0.117574 2.394248 -0.180726
v 0.182082 2.394248 -0.119060
v 0.163184 2.700284 -0.149893
v 0.182082 2.394248 -0.180726
v 0.075975 2.477323 -0.149893
v 0.223681 2.477323 -0.149893
v 0.149828 2.488476 -0.097793
v 0.149828 2.488476 -0.201993
v -0.148934 2.488476 -0.201993
v -0.148934 2.488476 -0.097793
v -0.075081 2.477323 -0.149893
v -0.222787 2.477323 -0.149893
v -0.116680 2.394248 -0.180726
v -0.135578 2.700284 -0.149893
v -0.116680 2.394248 -0.119060
v -0.181188 2.394248 -0.180726
v -0.162290 2.700284 -0.149893
v -0.181188 2.394248 -0.119060
v 0.119311 -0.002187 -0.150000
v 0.119311 2.401030 -0.150000
v 0.149704 -0.002187 -0.180394
v 0.149704 2.401030 -0.180394
v 0.149704 -0.002187 -0.119606
v 0.149704 2.401030 -0.119606
v 0.180098 -0.002187 -0.150000
v 0.180098 2.401030 -0.150000
v -0.179334 -0.002187 -0.150000
v -0.179334 2.401030 -0.150000
v -0.148940 -0.002187 -0.180394
v -0.148940 2.401030 -0.180394
v -0.148940 -0.002187 -0.119606
v -0.148940 2.401030 -0.119606
v -0.118546 -0.002187 -0.150000
v -0.118546 2.401030 -0.150000
v 0.149626 2.259053 -0.168117
v -0.148103 2.259053 -0.168117
v 0.149626 0.182211 -0.168117
v -0.148103 0.182211 -0.168117
v -0.167792 0.182211 0.148321
v -0.149121 0.210148 0.148321
v -0.149121 0.154274 0.148321
v -0.167792 0.182211 -0.149539
v -0.149121 0.210148 -0.149539
v -0.149121 0.154274 -0.149539
v -0.167792 2.259053 0.148321
v -0.149121 2.286990 0.148321
v -0.149121 2.231116 0.148321
v -0.167792 2.259053 -0.149539
v -0.149121 2.286990 -0.149539
v -0.149121 2.231116 -0.149539
v -0.130862 2.259053 0.148321
v -0.130862 2.259053 -0.149539
v -0.130862 0.182211 0.148321
v -0.130862 0.182211 -0.149539
v 0.131167 0.182211 0.148321
v 0.149838 0.210148 0.148321
v 0.149838 0.154274 0.148321
v 0.131167 0.182211 -0.149539
v 0.149838 0.210148 -0.149539
v 0.149838 0.154274 -0.149539
v 0.131167 2.259053 0.148321
v 0.149838 2.286990 0.148321
v 0.149838 2.231116 0.148321
v 0.131167 2.259053 -0.149539
v 0.149838 2.286990 -0.149539
v 0.149838 2.231116 -0.149539
v 0.168097 2.259053 0.148321
v 0.168097 2.259053 -0.149539
v 0.168097 0.182211 0.148321
v 0.168097 0.182211 -0.149539
v -0.148103 2.059053 -0.168117
v 0.149626 2.059053 -0.168117
v -0.148103 2.031116 -0.149858
v -0.148103 2.086990 -0.149858
v -0.148103 2.059053 -0.131187
v 0.149626 2.031116 -0.149858
v 0.149626 2.086990 -0.149858
v 0.149626 2.059053 -0.131187
v -0.148103 2.059053 0.131883
v 0.149626 2.059053 0.131883
v -0.148103 2.031116 0.150142
v -0.148103 2.086990 0.150142
v -0.148103 2.059053 0.168813
v 0.149626 2.031116 0.150142
v 0.149626 2.086990 0.150142
v 0.149626 2.059053 0.168813
v -0.167792 2.059053 0.148321
v -0.149121 2.086990 0.148321
v -0.149121 2.031116 0.148321
v -0.167792 2.059053 -0.149539
v -0.149121 2.086990 -0.149539
v -0.149121 2.031116 -0.149539
v -0.130862 2.059053 0.148321
v -0.130862 2.059053 -0.149539
v 0.131167 2.059053 0.148321
v 0.149838 2.086990 0.148321
v 0.149838 2.031116 0.148321
v 0.131167 2.059053 -0.149539
v 0.149838 2.086990 -0.149539
v 0.149838 2.031116 -0.149539
v 0.168097 2.059053 0.148321
v 0.168097 2.059053 -0.149539
v -0.148103 0.359053 -0.168117
v 0.149626 0.359053 -0.168117
v -0.148103 0.331115 -0.149858
v -0.148103 0.386990 -0.149858
v -0.148103 0.359053 -0.131187
v 0.149626 0.331115 -0.149858
v 0.149626 0.386990 -0.149858
v 0.149626 0.359053 -0.131187
v -0.148103 0.359053 0.131883
v 0.149626 0.359053 0.131883
v -0.148103 0.331115 0.150142
v -0.148103 0.386990 0.150142
v -0.148103 0.359053 0.168813
v 0.149626 0.331115 0.150142
v 0.149626 0.386990 0.150142
v 0.149626 0.359053 0.168813
v -0.167792 0.359053 0.148321
v -0.149121 0.386990 0.148321
v -0.149121 0.331115 0.148321
v -0.167792 0.359053 -0.149539
v -0.149121 0.386990 -0.149539
v -0.149121 0.331115 -0.149539
v -0.130862 0.359053 0.148321
v -0.130862 0.359053 -0.149539
v 0.131167 0.359053 0.148321
v 0.149838 0.386990 0.148321
v 0.149838 0.331115 0.148321
v 0.131167 0.359053 -0.149539
v 0.149838 0.386990 -0.149539
v 0.149838 0.331115 -0.149539
v 0.168097 0.359053 0.148321
v 0.168097 0.359053 -0.149539
vt 0.882812 0.386719
vt 0.882812 0.464844
vt 0.859375 0.464844
vt 0.859375 0.386719
vt 0.859375 0.464844
vt 0.859375 0.386719
vt 0.882812 0.386719
vt 0.882812 0.464844
vt 0.882812 0.386719
vt 0.882812 0.464844
vt 0.859375 0.464844
vt 0.859375 0.386719
vt 0.882812 0.386719
vt 0.882812 0.464844
vt 0.859375 0.464844
vt 0.859375 0.386719
vt 0.859375 0.464844
vt 0.859375 0.386719
vt 0.882812 0.386719
vt 0.882812 0.464844
vt 0.882812 0.386719
vt 0.882812 0.464844
vt 0.859375 0.464844
vt 0.859375 0.386719
vt 0.867188 0.484375
vt 0.867188 0.503906
vt 0.867188 0.503906
vt 0.867188 0.484375
vt 0.859375 0.484375
vt 0.882812 0.402344
vt 0.859375 0.421875
vt 0.859375 0.402344
vt 0.859375 0.472656
vt 0.867188 0.472656
vt 0.882812 0.484375
vt 0.859375 0.472656
vt 0.867188 0.472656
vt 0.859375 0.402344
vt 0.882812 0.402344
vt 0.859375 0.421875
vt 0.843750 0.503906
vt 0.843750 0.492188
vt 0.851562 0.492188
vt 0.851562 0.503906
vt 0.843750 0.503906
vt 0.843750 0.492188
vt 0.851562 0.492188
vt 0.851562 0.503906
vt 0.859375 0.472656
vt 0.867188 0.472656
vt 0.867188 0.484375
vt 0.867188 0.472656
vt 0.859375 0.472656
vt 0.867188 0.484375
vt 0.859375 0.484375
vt 0.867188 0.503906
vt 0.867188 0.503906
vt 0.859375 0.402344
vt 0.882812 0.402344
vt 0.859375 0.421875
vt 0.882812 0.484375
vt 0.882812 0.402344
vt 0.859375 0.421875
vt 0.859375 0.402344
vt 0.843750 0.328125
vt 0.843750 0.492188
vt 0.828125 0.492188
vt 0.828125 0.328125
vt 0.843750 0.328125
vt 0.843750 0.492188
vt 0.828125 0.492188
vt 0.828125 0.328125
vt 0.843750 0.328125
vt 0.843750 0.492188
vt 0.828125 0.492188
vt 0.828125 0.328125
vt 0.843750 0.328125
vt 0.843750 0.492188
vt 0.828125 0.492188
vt 0.828125 0.328125
vt 0.843750 0.328125
vt 0.843750 0.492188
vt 0.828125 0.492188
vt 0.828125 0.328125
vt 0.843750 0.328125
vt 0.843750 0.492188
vt 0.828125 0.492188
vt 0.828125 0.328125
vt 0.843750 0.328125
vt 0.843750 0.492188
vt 0.828125 0.492188
vt 0.828125 0.328125
vt 0.843750 0.328125
vt 0.843750 0.492188
vt 0.828125 0.492188
vt 0.828125 0.328125
vt 0.859375 0.464844
vt 0.859375 0.386719
vt 0.882812 0.386719
vt 0.882812 0.464844
vt 0.859375 0.464844
vt 0.859375 0.386719
vt 0.882812 0.386719
vt 0.882812 0.464844
vt 0.882812 0.386719
vt 0.882812 0.464844
vt 0.859375 0.464844
vt 0.859375 0.386719
vt 0.859375 0.464844
vt 0.859375 0.386719
vt 0.882812 0.386719
vt 0.882812 0.464844
vt 0.882812 0.386719
vt 0.882812 0.464844
vt 0.859375 0.464844
vt 0.859375 0.386719
vt 0.882812 0.386719
vt 0.882812 0.464844
vt 0.859375 0.464844
vt 0.859375 0.386719
vt 0.859375 0.464844
vt 0.859375 0.386719
vt 0.882812 0.386719
vt 0.882812 0.464844
vt 0.882812 0.386719
vt 0.882812 0.464844
vt 0.859375 0.464844
vt 0.859375 0.386719
vt 0.867188 0.484375
vt 0.867188 0.503906
vt 0.867188 0.503906
vt 0.867188 0.484375
vt 0.859375 0.484375
vt 0.882812 0.402344
vt 0.859375 0.421875
vt 0.859375 0.402344
vt 0.859375 0.472656
vt 0.867188 0.472656
vt 0.882812 0.484375
vt 0.859375 0.472656
vt 0.867188 0.472656
vt 0.859375 0.402344
vt 0.882812 0.402344
vt 0.859375 0.421875
vt 0.843750 0.503906
vt 0.843750 0.492188
vt 0.851562 0.492188
vt 0.851562 0.503906
vt 0.843750 0.503906
vt 0.843750 0.492188
vt 0.851562 0.492188
vt 0.851562 0.503906
vt 0.859375 0.472656
vt 0.867188 0.472656
vt 0.867188 0.484375
vt 0.867188 0.472656
vt 0.859375 0.472656
vt 0.867188 0.484375
vt 0.859375 0.484375
vt 0.867188 0.503906
vt 0.867188 0.503906
vt 0.859375 0.402344
vt 0.882812 0.402344
vt 0.859375 0.421875
vt 0.882812 0.484375
vt 0.882812 0.402344
vt 0.859375 0.421875
vt 0.859375 0.402344
vt 0.843750 0.328125
vt 0.843750 0.492188
vt 0.828125 0.492188
vt 0.828125 0.328125
vt 0.843750 0.328125
vt 0.843750 0.492188
vt 0.828125 0.492188
vt 0.828125 0.328125
vt 0.843750 0.328125
vt 0.843750 0.492188
vt 0.828125 0.492188
vt 0.828125 0.328125
vt 0.843750 0.328125
vt 0.843750 0.492188
vt 0.828125 0.492188
vt 0.828125 0.328125
vt 0.843750 0.328125
vt 0.843750 0.492188
vt 0.828125 0.492188
vt 0.828125 0.328125
vt 0.843750 0.328125
vt 0.843750 0.492188
vt 0.828125 0.492188
vt 0.828125 0.328125
vt 0.843750 0.328125
vt 0.843750 0.492188
vt 0.828125 0.492188
vt 0.828125 0.328125
vt 0.843750 0.328125
vt 0.843750 0.492188
vt 0.828125 0.492188
vt 0.828125 0.328125
vt 0.859375 0.464844
vt 0.859375 0.386719
vt 0.882812 0.386719
vt 0.882812 0.464844
vt 0.859375 0.464844
vt 0.859375 0.386719
vt 0.882812 0.386719
vt 0.882812 0.464844
vt 0.882812 0.386719
vt 0.882812 0.464844
vt 0.859375 0.464844
vt 0.859375 0.386719
vt 0.882812 0.386719
vt 0.882812 0.464844
vt 0.859375 0.464844
vt 0.859375 0.386719
vt 0.882812 0.386719
vt 0.882812 0.464844
vt 0.859375 0.464844
vt 0.859375 0.386719
vt 0.882812 0.386719
vt 0.882812 0.464844
vt 0.859375 0.464844
vt 0.859375 0.386719
vt 0.859375 0.464844
vt 0.859375 0.386719
vt 0.882812 0.386719
vt 0.882812 0.464844
vt 0.882812 0.386719
vt 0.882812 0.464844
vt 0.859375 0.464844
vt 0.859375 0.386719
vt 0.859375 0.464844
vt 0.859375 0.386719
vt 0.882812 0.386719
vt 0.882812 0.464844
vt 0.859375 0.464844
vt 0.859375 0.386719
vt 0.882812 0.386719
vt 0.882812 0.464844
vt 0.882812 0.386719
vt 0.882812 0.464844
vt 0.859375 0.464844
vt 0.859375 0.386719
vt 0.882812 0.386719
vt 0.882812 0.464844
vt 0.859375 0.464844
vt 0.859375 0.386719
vt 0.882812 0.386719
vt 0.882812 0.464844
vt 0.859375 0.464844
vt 0.859375 0.386719
vt 0.882812 0.386719
vt 0.882812 0.464844
vt 0.859375 0.464844
vt 0.859375 0.386719
vt 0.859375 0.464844
vt 0.859375 0.386719
vt 0.882812 0.386719
vt 0.882812 0.464844
vt 0.882812 0.386719
vt 0.882812 0.464844
vt 0.859375 0.464844
vt 0.859375 0.386719
vt 0.859375 0.464844
vt 0.859375 0.386719
vt 0.882812 0.386719
vt 0.882812 0.464844
vt 0.859375 0.464844
vt 0.859375 0.386719
vt 0.882812 0.386719
vt 0.882812 0.464844
vt 0.882812 0.386719
vt 0.882812 0.464844
vt 0.859375 0.464844
vt 0.859375 0.386719
vt 0.859375 0.464844
vt 0.859375 0.386719
vt 0.882812 0.386719
vt 0.882812 0.464844
vt 0.859375 0.464844
vt 0.859375 0.386719
vt 0.882812 0.386719
vt 0.882812 0.464844
vt 0.882812 0.386719
vt 0.882812 0.464844
vt 0.859375 0.464844
vt 0.859375 0.386719
vt 0.882812 0.386719
vt 0.882812 0.464844
vt 0.859375 0.464844
vt 0.859375 0.386719
vt 0.859375 0.464844
vt 0.859375 0.386719
vt 0.882812 0.386719
vt 0.882812 0.464844
vt 0.859375 0.464844
vt 0.859375 0.386719
vt 0.882812 0.386719
vt 0.882812 0.464844
vt 0.882812 0.386719
vt 0.882812 0.464844
vt 0.859375 0.464844
vt 0.859375 0.386719
vt 0.882812 0.386719
vt 0.882812 0.464844
vt 0.859375 0.464844
vt 0.859375 0.386719
vt 0.859375 0.464844
vt 0.859375 0.386719
vt 0.882812 0.386719
vt 0.882812 0.464844
vt 0.882812 0.386719
vt 0.882812 0.464844
vt 0.859375 0.464844
vt 0.859375 0.386719
vt 0.859375 0.464844
vt 0.859375 0.386719
vt 0.882812 0.386719
vt 0.882812 0.464844
vt 0.882812 0.386719
vt 0.882812 0.464844
vt 0.859375 0.464844
vt 0.859375 0.386719
vt 0.859375 0.464844
vt 0.859375 0.386719
vt 0.882812 0.386719
vt 0.882812 0.464844
vt 0.882812 0.386719
vt 0.882812 0.464844
vt 0.859375 0.464844
vt 0.859375 0.386719
vt 0.859375 0.464844
vt 0.859375 0.386719
vt 0.882812 0.386719
vt 0.882812 0.464844
vt 0.882812 0.386719
vt 0.882812 0.464844
vt 0.859375 0.464844
vt 0.859375 0.386719
vt 0.859375 0.464844
vt 0.859375 0.386719
vt 0.882812 0.386719
vt 0.882812 0.464844
vt 0.859375 0.464844
vt 0.859375 0.386719
vt 0.882812 0.386719
vt 0.882812 0.464844
vt 0.882812 0.386719
vt 0.882812 0.464844
vt 0.859375 0.464844
vt 0.859375 0.386719
vt 0.882812 0.386719
vt 0.882812 0.464844
vt 0.859375 0.464844
vt 0.859375 0.386719
vt 0.859375 0.464844
vt 0.859375 0.386719
vt 0.882812 0.386719
vt 0.882812 0.464844
vt 0.859375 0.464844
vt 0.859375 0.386719
vt 0.882812 0.386719
vt 0.882812 0.464844
vt 0.882812 0.386719
vt 0.882812 0.464844
vt 0.859375 0.464844
vt 0.859375 0.386719
vt 0.882812 0.386719
vt 0.882812 0.464844
vt 0.859375 0.464844
vt 0.859375 0.386719
vt 0.859375 0.464844
vt 0.859375 0.386719
vt 0.882812 0.386719
vt 0.882812 0.464844
vt 0.882812 0.386719
vt 0.882812 0.464844
vt 0.859375 0.464844
vt 0.859375 0.386719
vt 0.859375 0.464844
vt 0.859375 0.386719
vt 0.882812 0.386719
vt 0.882812 0.464844
vt 0.882812 0.386719
vt 0.882812 0.464844
vt 0.859375 0.464844
vt 0.859375 0.386719
vt 0.859375 0.464844
vt 0.859375 0.386719
vt 0.882812 0.386719
vt 0.882812 0.464844
vt 0.882812 0.386719
vt 0.882812 0.464844
vt 0.859375 0.464844
vt 0.859375 0.386719
vt 0.859375 0.464844
vt 0.859375 0.386719
vt 0.882812 0.386719
vt 0.882812 0.464844
vn 0.0000 -0.0000 1.0000
vn 0.0000 -0.5557 0.8314
vn -0.0000 -0.0000 -1.0000
vn -0.0000 0.5471 -0.8371
vn -0.0000 0.5557 0.8314
vn 0.0000 0.0806 -0.9967
vn -0.1277 0.2293 -0.9649
vn 0.1277 0.2293 -0.9649
vn 0.0000 0.0806 0.9968
vn -0.1277 0.2293 0.9649
vn -0.9992 0.0407 0.0000
vn -0.4717 -0.6779 0.5638
vn -0.4717 -0.6779 -0.5638
vn 0.4717 -0.6779 -0.5638
vn 0.9992 0.0407 0.0000
vn 0.4717 -0.6779 0.5638
vn 0.1277 0.2293 0.9649
vn -0.0000 0.0806 0.9967
vn -0.7071 0.0000 -0.7071
vn 0.7071 0.0000 -0.7071
vn 0.7071 0.0000 0.7071
vn -0.7071 0.0000 0.7071
vn 1.0000 0.0000 0.0000
vn 0.0000 -0.5471 -0.8371
vn -0.0000 0.0806 -0.9968
vn -1.0000 -0.0000 -0.0000
vn -0.8314 -0.5557 -0.0000
vn 0.8371 0.5471 -0.0000
vn -0.8314 0.5557 -0.0000
vn 0.8371 -0.5471 0.0000
usemtl Material.001
s 1
f 1/1/1 4/2/1 6/3/2 3/4/2
f 51/5/3 52/6/3 5/7/4 2/8/4
f 2/9/5 5/10/5 4/11/1 1/12/1
f 7/13/1 10/14/1 12/15/2 9/16/2
f 49/17/3 50/18/3 11/19/4 8/20/4
f 8/21/5 11/22/5 10/23/1 7/24/1
f 22/25/6 14/26/7 17/27/8
f 21/28/9 14/26/10 19/29/11
f 13/30/12 19/31/11 15/32/13
f 13/33/12 21/28/9 19/29/11
f 18/34/14 22/25/6 20/35/15
f 20/35/15 22/25/6 17/27/8
f 15/36/13 19/29/11 22/25/6
f 16/37/16 20/35/15 21/28/9
f 20/35/15 17/27/17 21/28/9
f 16/38/16 18/39/14 20/40/15
f 17/27/17 14/26/10 21/28/9
f 19/29/11 14/26/7 22/25/6
f 18/34/14 15/36/13 22/25/6
f 13/33/12 16/37/16 21/28/9
f 18/41/14 16/42/16 13/43/12 15/44/13
f 27/45/14 29/46/16 32/47/12 30/48/13
f 32/49/12 29/50/16 24/51/18
f 27/52/14 30/53/13 23/54/6
f 26/55/11 31/56/7 23/54/6
f 28/57/17 31/56/10 24/51/18
f 29/58/16 27/59/14 25/60/15
f 25/61/15 28/57/17 24/51/18
f 29/50/16 25/61/15 24/51/18
f 30/53/13 26/55/11 23/54/6
f 25/61/15 23/54/6 28/57/8
f 27/52/14 23/54/6 25/61/15
f 32/49/12 24/51/18 26/55/11
f 32/62/12 26/63/11 30/64/13
f 24/51/18 31/56/10 26/55/11
f 23/54/6 31/56/7 28/57/8
f 33/65/19 34/66/19 36/67/3 35/68/3
f 35/69/3 36/70/3 40/71/20 39/72/20
f 39/73/21 40/74/21 38/75/1 37/76/1
f 37/77/1 38/78/1 34/79/22 33/80/22
f 41/81/19 42/82/19 44/83/3 43/84/3
f 43/85/3 44/86/3 48/87/23 47/88/23
f 47/89/23 48/90/23 46/91/1 45/92/1
f 45/93/1 46/94/1 42/95/22 41/96/22
f 9/97/24 12/98/24 50/99/3 49/100/3
f 3/101/24 6/102/24 52/103/3 51/104/3
f 53/105/1 56/106/1 58/107/2 55/108/2
f 103/109/3 104/110/3 57/111/4 54/112/4
f 54/113/5 57/114/5 56/115/1 53/116/1
f 59/117/1 62/118/1 64/119/2 61/120/2
f 101/121/3 102/122/3 63/123/4 60/124/4
f 60/125/5 63/126/5 62/127/1 59/128/1
f 74/129/6 66/130/7 69/131/8
f 73/132/9 66/130/10 71/133/11
f 65/134/12 71/135/11 67/136/13
f 65/137/12 73/132/9 71/133/11
f 70/138/14 74/129/6 72/139/15
f 72/139/15 74/129/6 69/131/8
f 67/140/13 71/133/11 74/129/6
f 68/141/16 72/139/15 73/132/9
f 72/139/15 69/131/17 73/132/9
f 68/142/16 70/143/14 72/144/15
f 69/131/17 66/130/10 73/132/9
f 71/133/11 66/130/7 74/129/6
f 70/138/14 67/140/13 74/129/6
f 65/137/12 68/141/16 73/132/9
f 70/145/14 68/146/16 65/147/12 67/148/13
f 79/149/14 81/150/16 84/151/12 82/152/13
f 84/153/12 81/154/16 76/155/18
f 79/156/14 82/157/13 75/158/25
f 78/159/11 83/160/7 75/158/25
f 80/161/17 83/160/10 76/155/18
f 81/162/16 79/163/14 77/164/15
f 77/165/15 80/161/17 76/155/18
f 81/154/16 77/165/15 76/155/18
f 82/157/13 78/159/11 75/158/25
f 77/165/15 75/158/25 80/161/8
f 79/156/14 75/158/25 77/165/15
f 84/153/12 76/155/18 78/159/11
f 84/166/12 78/167/11 82/168/13
f 76/155/18 83/160/10 78/159/11
f 75/158/25 83/160/7 80/161/8
f 85/169/19 86/170/19 88/171/3 87/172/3
f 87/173/3 88/174/3 92/175/20 91/176/20
f 91/177/21 92/178/21 90/179/1 89/180/1
f 89/181/1 90/182/1 86/183/22 85/184/22
f 93/185/19 94/186/19 96/187/3 95/188/3
f 95/189/3 96/190/3 100/191/23 99/192/23
f 99/193/23 100/194/23 98/195/1 97/196/1
f 97/197/1 98/198/1 94/199/22 93/200/22
f 61/201/24 64/202/24 102/203/3 101/204/3
f 55/205/24 58/206/24 104/207/3 103/208/3
f 105/209/26 108/210/26 110/211/27 107/212/27
f 119/213/23 120/214/23 109/215/28 106/216/28
f 106/217/29 109/218/29 108/219/26 105/220/26
f 111/221/26 114/222/26 116/223/27 113/224/27
f 117/225/23 118/226/23 115/227/28 112/228/28
f 112/229/29 115/230/29 114/231/26 111/232/26
f 113/233/30 116/234/30 118/235/23 117/236/23
f 107/237/30 110/238/30 120/239/23 119/240/23
f 121/241/26 124/242/26 126/243/27 123/244/27
f 135/245/23 136/246/23 125/247/28 122/248/28
f 122/249/29 125/250/29 124/251/26 121/252/26
f 127/253/26 130/254/26 132/255/27 129/256/27
f 133/257/23 134/258/23 131/259/28 128/260/28
f 128/261/29 131/262/29 130/263/26 127/264/26
f 129/265/30 132/266/30 134/267/23 133/268/23
f 123/269/30 126/270/30 136/271/23 135/272/23
f 143/273/5 140/274/5 141/275/1 144/276/1
f 138/277/3 137/278/3 140/279/4 143/280/4
f 142/281/24 139/282/24 137/283/3 138/284/3
f 144/285/1 141/286/1 139/287/2 142/288/2
f 151/289/5 148/290/5 149/291/1 152/292/1
f 146/293/3 145/294/3 148/295/4 151/296/4
f 150/297/24 147/298/24 145/299/3 146/300/3
f 152/301/1 149/302/1 147/303/2 150/304/2
f 153/305/26 156/306/26 158/307/27 155/308/27
f 159/309/23 160/310/23 157/311/28 154/312/28
f 154/313/29 157/314/29 156/315/26 153/316/26
f 155/317/30 158/318/30 160/319/23 159/320/23
f 161/321/26 164/322/26 166/323/27 163/324/27
f 167/325/23 168/326/23 165/327/28 162/328/28
f 162/329/29 165/330/29 164/331/26 161/332/26
f 163/333/30 166/334/30 168/335/23 167/336/23
f 175/337/5 172/338/5 173/339/1 176/340/1
f 170/341/3 169/342/3 172/343/4 175/344/4
f 174/345/24 171/346/24 169/347/3 170/348/3
f 176/349/1 173/350/1 171/351/2 174/352/2
f 183/353/5 180/354/5 181/355/1 184/356/1
f 178/357/3 177/358/3 180/359/4 183/360/4
f 182/361/24 179/362/24 177/363/3 178/364/3
f 184/365/1 181/366/1 179/367/2 182/368/2
f 185/369/26 188/370/26 190/371/27 187/372/27
f 191/373/23 192/374/23 189/375/28 186/376/28
f 186/377/29 189/378/29 188/379/26 185/380/26
f 187/381/30 190/382/30 192/383/23 191/384/23
f 193/385/26 196/386/26 198/387/27 195/388/27
f 199/389/23 200/390/23 197/391/28 194/392/28
f 194/393/29 197/394/29 196/395/26 193/396/26
f 195/397/30 198/398/30 200/399/23 199/400/23
