# Blender v2.93.5 OBJ File: 'Modular Graveyard.blend'
# www.blender.org
mtllib CTombWorn.mtl
o CTombWorn_Cube.051
v 0.190377 1.037197 -0.101625
v 0.109373 1.216045 -0.101625
v 0.176421 1.120598 -0.101625
v 0.190377 1.037197 0.101626
v 0.176421 1.120598 0.101626
v 0.109373 1.216045 0.101626
v 0.333738 0.898019 0.101626
v 0.333738 0.898019 -0.101625
v 0.246705 1.014009 -0.101625
v 0.246705 1.014009 0.101626
v 0.400499 0.869470 -0.101625
v 0.280559 0.986348 -0.101625
v 0.280559 0.986348 0.101626
v 0.400499 0.869470 0.101626
v 0.362165 0.879474 0.101626
v 0.362165 0.879474 -0.101625
v 0.400499 0.754916 0.101626
v 0.400499 0.754916 -0.101625
v 0.370984 0.721727 0.101626
v 0.370984 0.721727 -0.101625
v 0.380471 0.740998 -0.101625
v 0.380471 0.740998 0.101626
v 0.370984 0.177403 0.101626
v 0.370984 0.177403 -0.101626
v 0.392066 0.152423 0.101626
v 0.392066 0.152423 -0.101626
v 0.392066 -0.000202 0.101626
v 0.392066 -0.000202 -0.101626
v 0.000000 1.276265 0.101626
v 0.000000 1.276265 -0.101625
v -0.190377 1.037197 -0.101625
v -0.109373 1.216045 -0.101625
v -0.176421 1.120598 -0.101625
v -0.190377 1.037197 0.101626
v -0.176421 1.120598 0.101626
v -0.109373 1.216045 0.101626
v -0.333738 0.898019 0.101626
v -0.333738 0.898019 -0.101625
v -0.246705 1.014009 -0.101625
v -0.246705 1.014009 0.101626
v -0.400499 0.869470 -0.101625
v -0.280559 0.986348 -0.101625
v -0.280559 0.986348 0.101626
v -0.400499 0.869470 0.101626
v -0.362165 0.879474 0.101626
v -0.362165 0.879474 -0.101625
v -0.400499 0.754916 0.101626
v -0.400499 0.754916 -0.101625
v -0.370984 0.721727 0.101626
v -0.370984 0.721727 -0.101625
v -0.380471 0.740998 -0.101625
v -0.380471 0.740998 0.101626
v -0.370984 0.177403 0.101626
v -0.370984 0.177403 -0.101626
v -0.392066 0.152423 0.101626
v -0.392066 0.152423 -0.101626
v -0.392066 -0.000202 0.101626
v -0.392066 -0.000202 -0.101626
vt 0.953125 0.917969
vt 0.914062 0.917969
vt 0.914062 0.929688
vt 0.953125 0.929688
vt 0.914062 0.941406
vt 0.953125 0.941406
vt 0.914062 0.953125
vt 0.953125 0.953125
vt 0.914062 0.910156
vt 0.953125 0.910156
vt 0.953125 0.898438
vt 0.914062 0.898438
vt 0.953125 0.914062
vt 0.914062 0.914062
vt 0.906250 0.953125
vt 0.906250 0.957031
vt 0.906250 0.945312
vt 0.906250 0.945312
vt 0.914062 0.941406
vt 0.914062 0.957031
vt 0.789062 0.957031
vt 0.781250 0.941406
vt 0.914062 0.980469
vt 0.953125 0.980469
vt 0.953125 0.976562
vt 0.914062 0.976562
vt 0.789062 0.953125
vt 0.789062 0.945312
vt 0.789062 0.945312
vt 0.789062 0.957031
vt 0.914062 0.984375
vt 0.953125 0.984375
vt 0.781250 0.957031
vt 0.781250 0.953125
vt 0.781250 0.945312
vt 0.781250 0.945312
vt 0.953125 0.964844
vt 0.914062 0.964844
vt 0.796875 0.855469
vt 0.796875 0.875000
vt 0.796875 0.875000
vt 0.796875 0.855469
vt 0.812500 0.964844
vt 0.796875 0.964844
vt 0.906250 0.964844
vt 0.875000 0.964844
vt 0.789062 0.855469
vt 0.789062 0.875000
vt 0.906250 0.875000
vt 0.906250 0.855469
vt 0.914062 0.875000
vt 0.914062 0.855469
vt 0.898438 0.863281
vt 0.898438 0.843750
vt 0.929688 0.843750
vt 0.929688 0.863281
vt 0.820312 0.984375
vt 0.867188 0.984375
vt 0.843750 0.992188
vt 0.789062 0.890625
vt 0.914062 0.890625
vt 0.953125 0.988281
vt 0.953125 0.976562
vt 0.914062 0.976562
vt 0.914062 0.988281
vt 0.953125 0.964844
vt 0.914062 0.964844
vt 0.789062 0.886719
vt 0.914062 0.886719
vt 0.914062 0.898438
vt 0.914062 0.910156
vt 0.953125 0.910156
vt 0.953125 0.898438
vt 0.796875 0.964844
vt 0.906250 0.964844
vt 0.914062 0.890625
vt 0.914062 0.894531
vt 0.953125 0.894531
vt 0.953125 0.890625
vt 0.914062 0.914062
vt 0.914062 0.917969
vt 0.953125 0.917969
vt 0.953125 0.914062
vt 0.781250 0.957031
vt 0.781250 0.941406
vt 0.914062 0.957031
vt 0.914062 0.945312
vt 0.914062 0.953125
vt 0.914062 0.945312
vt 0.906250 0.941406
vt 0.906250 0.957031
vt 0.914062 0.929688
vt 0.953125 0.929688
vt 0.851562 0.855469
vt 0.851562 0.855469
vt 0.851562 0.875000
vt 0.851562 0.875000
vt 0.859375 0.855469
vt 0.859375 0.875000
vt 0.742188 0.855469
vt 0.742188 0.875000
vt 0.781250 0.890625
vt 0.906250 0.890625
vt 0.945312 0.855469
vt 0.937500 0.855469
vt 0.937500 0.875000
vt 0.945312 0.875000
vt 0.781250 0.886719
vt 0.906250 0.886719
vt 0.898438 0.863281
vt 0.929688 0.863281
vt 0.929688 0.843750
vt 0.898438 0.843750
vt 0.789062 0.878906
vt 0.914062 0.878906
vt 0.914062 0.894531
vt 0.789062 0.894531
vt 0.906250 0.894531
vt 0.781250 0.894531
vt 0.781250 0.878906
vt 0.906250 0.878906
vt 0.929688 0.960938
vt 0.929688 0.960938
vt 0.820312 0.960938
vt 0.820312 0.960938
vt 0.812500 0.976562
vt 0.875000 0.976562
vt 0.843750 0.960938
vt 0.906250 0.960938
vt 0.843750 0.972656
vt 0.906250 0.972656
vt 0.937500 0.953125
vt 0.812500 0.953125
vt 0.851562 0.980469
vt 0.898438 0.980469
vt 0.875000 0.988281
vn 0.9863 0.1650 0.0000
vn 0.9253 0.3793 0.0000
vn 0.6675 0.7446 -0.0000
vn 0.4823 0.8760 -0.0000
vn 0.7559 0.6547 0.0000
vn 0.7198 0.6942 0.0000
vn 0.3807 0.9247 0.0000
vn 0.5122 0.8588 0.0000
vn 0.0000 0.0000 -1.0000
vn 0.0000 -0.0000 1.0000
vn 0.4047 0.9144 0.0000
vn 0.2525 0.9676 0.0000
vn 1.0000 0.0000 0.0000
vn 0.7580 -0.6522 0.0000
vn 0.9740 -0.2267 0.0000
vn 0.5706 -0.8212 0.0000
vn 0.9392 0.3434 0.0000
vn -0.9863 0.1650 0.0000
vn -0.9253 0.3793 0.0000
vn -0.6675 0.7446 0.0000
vn -0.4823 0.8760 0.0000
vn -0.7559 0.6547 0.0000
vn -0.7198 0.6942 0.0000
vn -0.3807 0.9247 0.0000
vn -0.5122 0.8588 0.0000
vn -0.4047 0.9144 0.0000
vn -0.2525 0.9676 0.0000
vn -1.0000 0.0000 0.0000
vn -0.7580 -0.6522 0.0000
vn -0.9740 -0.2267 0.0000
vn -0.5706 -0.8212 0.0000
vn -0.9392 0.3434 0.0000
usemtl Material.001
s 1
f 4/1/1 1/2/1 3/3/2 5/4/2
f 5/4/2 3/3/2 2/5/3 6/6/3
f 6/6/3 2/5/3 30/7/4 29/8/4
f 12/9/5 13/10/5 7/11/6 8/12/6
f 1/2/7 4/1/7 10/13/8 9/14/8
f 41/15/9 46/16/9 51/17/9 48/18/9
f 9/14/8 10/13/8 13/10/5 12/9/5
f 19/19/10 7/20/10 37/21/10 49/22/10
f 16/23/11 15/24/11 14/25/12 11/26/12
f 44/27/10 47/28/10 52/29/10 45/30/10
f 8/31/6 7/32/6 15/24/11 16/23/11
f 16/33/9 11/34/9 18/35/9 21/36/9
f 11/26/13 14/25/13 17/37/13 18/38/13
f 21/39/14 22/40/14 19/41/15 20/42/15
f 34/43/10 40/44/10 10/45/10 4/46/10
f 18/47/16 17/48/16 22/40/14 21/39/14
f 20/42/15 19/41/15 23/49/17 24/50/17
f 24/50/17 23/49/17 25/51/17 26/52/17
f 26/53/17 25/54/17 27/55/13 28/56/13
f 36/57/10 6/58/10 29/59/10
f 49/22/10 53/60/10 23/61/10 19/19/10
f 34/62/18 35/63/19 33/64/19 31/65/18
f 35/63/19 36/66/20 32/67/20 33/64/19
f 36/66/20 29/8/21 30/7/21 32/67/20
f 53/60/10 55/68/10 25/69/10 23/61/10
f 42/70/22 38/71/23 37/72/23 43/73/22
f 40/44/10 43/74/10 13/75/10 10/45/10
f 31/76/24 39/77/25 40/78/25 34/79/24
f 39/77/25 42/70/22 43/73/22 40/78/25
f 7/20/10 13/75/10 43/74/10 37/21/10
f 46/80/26 41/81/27 44/82/27 45/83/26
f 8/84/9 16/33/9 21/36/9 20/85/9
f 15/86/10 7/20/10 19/19/10 22/87/10
f 38/71/23 46/80/26 45/83/26 37/72/23
f 14/88/10 15/86/10 22/87/10 17/89/10
f 50/90/9 51/17/9 46/16/9 38/91/9
f 45/30/10 52/29/10 49/22/10 37/21/10
f 41/81/28 48/92/28 47/93/28 44/82/28
f 51/94/29 50/95/30 49/96/30 52/97/29
f 48/98/31 51/94/29 52/97/29 47/99/31
f 50/95/30 54/100/32 53/101/32 49/96/30
f 50/90/9 20/85/9 24/102/9 54/103/9
f 54/104/32 56/105/32 55/106/32 53/107/32
f 54/103/9 24/102/9 26/108/9 56/109/9
f 56/110/32 58/111/28 57/112/28 55/113/32
f 57/114/10 27/115/10 25/116/10 55/117/10
f 56/118/9 26/119/9 28/120/9 58/121/9
f 42/122/9 39/123/9 9/124/9 12/125/9
f 35/126/10 5/127/10 6/58/10 36/57/10
f 50/90/9 38/91/9 8/84/9 20/85/9
f 35/126/10 34/43/10 4/46/10 5/127/10
f 1/128/9 9/124/9 39/123/9 31/129/9
f 3/130/9 1/128/9 31/129/9 33/131/9
f 38/132/9 42/122/9 12/125/9 8/133/9
f 2/134/9 3/130/9 33/131/9 32/135/9
f 30/136/9 2/134/9 32/135/9
