# Blender v2.93.5 OBJ File: 'Modular Graveyard.blend'
# www.blender.org
mtllib SimpleTombTallWorn.mtl
o SimpleTombTallWorn_Cube.056
v 0.392914 0.387341 0.107236
v 0.434795 0.360287 0.153199
v 0.434795 0.360287 -0.152673
v 0.434795 0.001105 0.153199
v 0.434795 0.001105 -0.152673
v -0.434794 0.360287 0.153199
v -0.434794 0.360287 -0.152673
v -0.434794 0.001105 0.153199
v -0.434794 0.001105 -0.152673
v -0.392914 0.387341 0.107236
v -0.392914 1.212942 0.107236
v -0.392914 0.387341 -0.106710
v -0.392914 1.212942 -0.106710
v 0.392914 1.212942 0.107236
v 0.392914 0.387341 -0.106710
v 0.392914 1.212942 -0.106710
v -0.236070 1.402268 -0.106710
v 0.000000 1.449184 -0.106710
v -0.236070 1.402268 0.107236
v 0.000000 1.449184 0.107236
v 0.236070 1.402268 -0.106710
v 0.236070 1.402268 0.107236
vt 0.773438 0.960938
vt 0.843750 0.980469
vt 0.804688 0.972656
vt 0.914062 0.878906
vt 0.914062 0.957031
vt 0.773438 0.957031
vt 0.773438 0.878906
vt 0.773438 0.933594
vt 0.843750 0.953125
vt 0.796875 0.949219
vt 0.921875 0.878906
vt 0.921875 0.949219
vt 0.781250 0.949219
vt 0.781250 0.878906
vt 0.914062 0.960938
vt 0.882812 0.972656
vt 0.914062 0.933594
vt 0.890625 0.949219
vt 0.750000 0.886719
vt 0.929688 0.886719
vt 0.765625 0.878906
vt 0.929688 0.871094
vt 0.757812 0.871094
vt 0.757812 0.910156
vt 0.929688 0.910156
vt 0.875000 0.871094
vt 0.812500 0.871094
vt 0.812500 0.910156
vt 0.875000 0.910156
vt 0.929688 0.871094
vt 0.757812 0.871094
vt 0.757812 0.910156
vt 0.929688 0.910156
vt 0.804688 0.886719
vt 0.882812 0.886719
vt 0.867188 0.878906
vt 0.820312 0.878906
vt 0.750000 0.886719
vt 0.929688 0.886719
vt 0.914062 0.878906
vt 0.765625 0.878906
vt 0.812500 0.871094
vt 0.812500 0.910156
vt 0.875000 0.910156
vt 0.875000 0.871094
vt 0.882812 0.886719
vt 0.867188 0.878906
vt 0.820312 0.878906
vt 0.804688 0.886719
vt 0.937500 0.875000
vt 0.750000 0.875000
vt 0.750000 0.851562
vt 0.937500 0.851562
vt 0.750000 0.851562
vt 0.937500 0.851562
vt 0.937500 0.875000
vt 0.750000 0.875000
vt 0.843750 0.851562
vt 0.890625 0.851562
vt 0.890625 0.875000
vt 0.843750 0.875000
vt 0.750000 0.851562
vt 0.796875 0.851562
vt 0.796875 0.875000
vt 0.750000 0.875000
vt 0.851562 0.851562
vt 0.898438 0.851562
vt 0.898438 0.875000
vt 0.851562 0.875000
vt 0.781250 0.851562
vt 0.828125 0.851562
vt 0.828125 0.875000
vt 0.781250 0.875000
vn 0.0000 0.0000 1.0000
vn 0.0000 0.0000 -1.0000
vn -0.0000 0.8618 0.5073
vn 1.0000 -0.0000 0.0000
vn 0.5426 0.8400 0.0000
vn 0.0000 0.8618 -0.5073
vn -1.0000 -0.0000 0.0000
vn -0.5426 0.8400 0.0000
vn -0.9408 0.3391 0.0000
vn 0.9408 0.3391 0.0000
vn -0.5120 0.8590 0.0000
vn 0.5120 0.8590 0.0000
vn 0.0000 1.0000 0.0000
usemtl Material.001
s off
f 11/1/1 20/2/1 19/3/1
f 1/4/1 14/5/1 11/6/1 10/7/1
f 16/8/2 18/9/2 21/10/2
f 12/11/2 13/12/2 16/13/2 15/14/2
f 14/15/1 22/16/1 20/2/1
f 11/1/1 14/15/1 20/2/1
f 13/17/2 17/18/2 18/9/2
f 16/8/2 13/17/2 18/9/2
s 1
f 6/19/3 2/20/3 1/4/3 10/21/3
f 2/22/1 6/23/1 8/24/1 4/25/1
f 3/26/4 2/27/4 4/28/4 5/29/4
f 7/30/2 3/31/2 5/32/2 9/33/2
f 2/34/5 3/35/5 15/36/5 1/37/5
f 3/38/6 7/39/6 12/40/6 15/41/6
f 7/42/7 9/43/7 8/44/7 6/45/7
f 6/46/8 10/47/8 12/48/8 7/49/8
f 10/50/7 11/51/9 13/52/9 12/53/7
f 15/54/4 16/55/10 14/56/10 1/57/4
f 17/58/11 13/59/9 11/60/9 19/61/11
f 21/62/12 18/63/13 20/64/13 22/65/12
f 18/66/13 17/67/11 19/68/11 20/69/13
f 16/70/10 21/71/12 22/72/12 14/73/10
