# Blender v2.93.5 OBJ File: 'Modular Graveyard.blend'
# www.blender.org
mtllib TombTallWorn.mtl
o TombTallWorn_Cube.057
v -0.394603 1.094270 -0.091566
v -0.394603 1.094270 0.091566
v -0.315687 1.192230 0.091566
v -0.315687 1.192230 -0.091566
v -0.025592 1.371571 -0.091566
v -0.025592 1.371571 0.091566
v -0.248321 1.192051 -0.091566
v -0.248321 1.192051 0.091566
v -0.192739 1.278930 -0.091566
v -0.102533 1.350236 -0.091566
v -0.328932 1.141067 -0.091566
v -0.102533 1.350236 0.091566
v -0.192739 1.278930 0.091566
v -0.328932 1.141067 0.091566
v -0.348710 1.117204 -0.091566
v -0.348710 1.117204 0.091566
v -0.317452 1.170038 0.091566
v -0.317452 1.170038 -0.091566
v 0.394603 0.235209 -0.091566
v 0.394603 1.094270 -0.091566
v 0.394603 1.094270 0.091566
v 0.315687 1.192230 0.091566
v 0.315687 1.192230 -0.091566
v 0.025592 1.371571 -0.091566
v 0.025592 1.371571 0.091566
v 0.248321 1.192051 -0.091566
v 0.248321 1.192051 0.091566
v 0.192739 1.278930 -0.091566
v 0.102533 1.350236 -0.091566
v 0.328932 1.141067 -0.091566
v 0.102533 1.350236 0.091566
v 0.192739 1.278930 0.091566
v 0.328932 1.141067 0.091566
v 0.348710 1.117204 -0.091566
v 0.348710 1.117204 0.091566
v 0.000000 1.373778 -0.091566
v 0.000000 1.373778 0.091566
v 0.317452 1.170038 0.091566
v 0.317452 1.170038 -0.091566
v 0.000000 1.350236 0.091566
v 0.000000 1.350236 -0.091566
v 0.394603 0.235209 0.091566
v 0.480745 0.204178 0.160761
v 0.480745 0.204178 -0.160761
v 0.480745 -0.003168 0.160761
v 0.480745 -0.003168 -0.160761
v -0.394603 0.235209 0.091566
v -0.394603 0.235209 -0.091566
v -0.480745 0.204178 0.160761
v -0.480745 0.204178 -0.160761
v -0.480745 -0.003168 0.160761
v -0.480745 -0.003168 -0.160761
vt 0.945312 0.855469
vt 0.945312 0.875000
vt 0.742188 0.875000
vt 0.742188 0.855469
vt 0.765625 0.855469
vt 0.765625 0.875000
vt 0.765625 0.875000
vt 0.765625 0.855469
vt 0.843750 0.984375
vt 0.835938 0.984375
vt 0.828125 0.984375
vt 0.882812 0.964844
vt 0.882812 0.964844
vt 0.875000 0.964844
vt 0.906250 0.960938
vt 0.796875 0.960938
vt 0.804688 0.960938
vt 0.898438 0.960938
vt 0.906250 0.953125
vt 0.906250 0.953125
vt 0.789062 0.953125
vt 0.796875 0.953125
vt 0.828125 0.855469
vt 0.828125 0.875000
vt 0.812500 0.875000
vt 0.812500 0.855469
vt 0.812500 0.984375
vt 0.828125 0.984375
vt 0.750000 0.875000
vt 0.750000 0.855469
vt 0.789062 0.972656
vt 0.867188 0.972656
vt 0.796875 0.875000
vt 0.796875 0.855469
vt 0.828125 0.855469
vt 0.828125 0.875000
vt 0.781250 0.875000
vt 0.781250 0.855469
vt 0.828125 0.855469
vt 0.828125 0.875000
vt 0.789062 0.855469
vt 0.789062 0.875000
vt 0.781250 0.875000
vt 0.781250 0.855469
vt 0.828125 0.984375
vt 0.796875 0.875000
vt 0.796875 0.855469
vt 0.882812 0.964844
vt 0.773438 0.964844
vt 0.773438 0.964844
vt 0.781250 0.964844
vt 0.890625 0.972656
vt 0.812500 0.972656
vt 0.773438 0.855469
vt 0.773438 0.875000
vt 0.796875 0.960938
vt 0.906250 0.960938
vt 0.773438 0.960938
vt 0.773438 0.960938
vt 0.890625 0.960938
vt 0.882812 0.960938
vt 0.750000 0.855469
vt 0.937500 0.855469
vt 0.937500 0.875000
vt 0.750000 0.875000
vt 0.906250 0.949219
vt 0.906250 0.878906
vt 0.789062 0.878906
vt 0.789062 0.949219
vt 0.828125 0.855469
vt 0.828125 0.855469
vt 0.828125 0.875000
vt 0.828125 0.875000
vt 0.796875 0.960938
vt 0.773438 0.964844
vt 0.773438 0.878906
vt 0.890625 0.878906
vt 0.828125 0.855469
vt 0.843750 0.855469
vt 0.843750 0.875000
vt 0.828125 0.875000
vt 0.843750 0.855469
vt 0.843750 0.875000
vt 0.796875 0.875000
vt 0.796875 0.855469
vt 0.937500 0.875000
vt 0.906250 0.875000
vt 0.906250 0.855469
vt 0.937500 0.855469
vt 0.804688 0.855469
vt 0.812500 0.855469
vt 0.812500 0.875000
vt 0.804688 0.875000
vt 0.796875 0.875000
vt 0.796875 0.875000
vt 0.796875 0.855469
vt 0.796875 0.855469
vt 0.820312 0.855469
vt 0.820312 0.875000
vt 0.851562 0.984375
vt 0.867188 0.984375
vt 0.851562 0.984375
vt 0.843750 0.984375
vt 0.851562 0.984375
vt 0.835938 0.984375
vt 0.906250 0.960938
vt 0.750000 0.890625
vt 0.937500 0.890625
vt 0.921875 0.878906
vt 0.765625 0.878906
vt 0.937500 0.875000
vt 0.750000 0.875000
vt 0.750000 0.851562
vt 0.937500 0.851562
vt 0.875000 0.875000
vt 0.804688 0.875000
vt 0.804688 0.851562
vt 0.875000 0.851562
vt 0.937500 0.875000
vt 0.750000 0.875000
vt 0.750000 0.851562
vt 0.937500 0.851562
vt 0.804688 0.890625
vt 0.882812 0.890625
vt 0.867188 0.878906
vt 0.820312 0.878906
vt 0.750000 0.890625
vt 0.937500 0.890625
vt 0.921875 0.878906
vt 0.765625 0.878906
vt 0.804688 0.875000
vt 0.804688 0.851562
vt 0.875000 0.851562
vt 0.875000 0.875000
vt 0.882812 0.890625
vt 0.867188 0.878906
vt 0.820312 0.878906
vt 0.804688 0.890625
vn -1.0000 0.0000 0.0000
vn -0.9740 0.2263 0.0000
vn -0.9969 0.0793 0.0000
vn 0.0000 0.0000 -1.0000
vn 0.0000 0.0000 1.0000
vn -0.4526 0.8917 0.0000
vn -0.1773 0.9842 0.0000
vn 0.0027 1.0000 0.0000
vn -0.7415 0.6710 0.0000
vn -0.8424 0.5389 0.0000
vn -0.4470 0.8945 0.0000
vn -0.6218 0.7831 0.0000
vn 0.0000 1.0000 0.0000
vn -0.8604 0.5096 0.0000
vn 1.0000 -0.0000 -0.0000
vn 0.9740 0.2263 0.0000
vn 0.9969 0.0793 0.0000
vn 0.4526 0.8917 0.0000
vn 0.1773 0.9842 0.0000
vn -0.0027 1.0000 0.0000
vn 0.7415 0.6710 0.0000
vn 0.8424 0.5389 0.0000
vn 0.4470 0.8945 0.0000
vn 0.6218 0.7831 0.0000
vn 0.8604 0.5096 0.0000
vn 0.0000 0.9124 0.4092
vn 0.3389 0.9408 -0.0000
vn 0.0000 0.9124 -0.4092
vn -0.3389 0.9408 0.0000
usemtl Material.001
s 1
f 48/1/1 47/2/1 2/3/1 1/4/1
f 18/5/2 17/6/2 3/7/3 4/8/3
f 10/9/4 5/10/4 41/11/4
f 18/12/4 4/13/4 7/14/4
f 17/15/5 38/16/5 27/17/5 8/18/5
f 16/19/5 2/20/5 21/21/5 35/22/5
f 10/23/6 12/24/6 6/25/7 5/26/7
f 29/27/4 41/11/4 24/28/4
f 4/8/8 3/7/8 8/29/8 7/30/8
f 28/31/4 9/32/4 41/11/4
f 12/33/6 10/34/6 9/35/9 13/36/9
f 13/37/9 9/38/9 7/39/10 8/40/10
f 1/41/11 2/42/11 16/43/12 15/44/12
f 5/10/4 36/45/4 41/11/4
f 5/26/7 6/25/7 37/46/13 36/47/13
f 11/48/4 18/12/4 39/49/4 30/50/4
f 26/51/4 39/49/4 18/12/4 7/14/4
f 13/52/5 8/18/5 27/17/5 32/53/5
f 11/54/14 14/55/14 17/6/2 18/5/2
f 15/44/12 16/43/12 14/55/14 11/54/14
f 35/22/5 33/56/5 14/57/5 16/19/5
f 34/58/4 20/59/4 1/60/4 15/61/4
f 19/62/15 20/63/15 21/64/15 42/65/15
f 2/66/5 47/67/5 42/68/5 21/69/5
f 39/70/16 23/71/17 22/72/17 38/73/16
f 38/16/5 22/74/5 27/17/5
f 17/15/5 14/57/5 33/56/5 38/16/5
f 26/51/4 23/75/4 39/49/4
f 20/59/4 19/76/4 48/77/4 1/60/4
f 29/78/18 24/79/19 25/80/19 31/81/18
f 23/71/20 26/82/20 27/83/20 22/72/20
f 31/81/18 32/84/21 28/85/21 29/78/18
f 32/86/21 27/87/22 26/88/22 28/89/21
f 20/90/23 34/91/24 35/92/24 21/93/23
f 41/11/4 36/45/4 24/28/4
f 24/94/19 36/95/13 37/96/13 25/97/19
f 30/98/25 39/70/16 38/73/16 33/99/25
f 34/91/24 30/98/25 33/99/25 35/92/24
f 6/100/5 12/101/5 40/102/5
f 25/103/5 37/104/5 40/102/5
f 31/105/5 25/103/5 40/102/5
f 37/104/5 6/100/5 40/102/5
f 31/105/5 40/102/5 32/53/5
f 9/32/4 10/9/4 41/11/4
f 32/53/5 40/102/5 13/52/5
f 28/31/4 41/11/4 29/27/4
f 7/14/4 9/32/4 28/31/4 26/51/4
f 40/102/5 12/101/5 13/52/5
f 3/106/5 17/15/5 8/18/5
f 15/61/4 11/48/4 30/50/4 34/58/4
f 49/107/26 43/108/26 42/109/26 47/110/26
f 43/111/5 49/112/5 51/113/5 45/114/5
f 44/115/15 43/116/15 45/117/15 46/118/15
f 50/119/4 44/120/4 46/121/4 52/122/4
f 43/123/27 44/124/27 19/125/27 42/126/27
f 44/127/28 50/128/28 48/129/28 19/130/28
f 50/131/1 52/132/1 51/133/1 49/134/1
f 49/135/29 47/136/29 48/137/29 50/138/29
